<?xml version="1.0" encoding="UTF-8" standalone="no"?>
<!DOCTYPE svg PUBLIC "-//W3C//DTD SVG 1.1//EN"
 "http://www.w3.org/Graphics/SVG/1.1/DTD/svg11.dtd">
<!-- Generated by graphviz version 2.38.0 (20140413.2041)
 -->
<!-- Title: /home/lucamuratore/advr&#45;superbuild/external/XCM/include/XCM/MessageInterfaces/AdvrJointState.h Pages: 1 -->
<svg width="525pt" height="128pt"
 viewBox="0.00 0.00 524.50 128.00" xmlns="http://www.w3.org/2000/svg" xmlns:xlink="http://www.w3.org/1999/xlink">
<g id="graph0" class="graph" transform="scale(1 1) rotate(0) translate(4 124)">
<title>/home/lucamuratore/advr&#45;superbuild/external/XCM/include/XCM/MessageInterfaces/AdvrJointState.h</title>
<!-- Node1 -->
<g id="node1" class="node"><title>Node1</title>
<polygon fill="#bfbfbf" stroke="black" points="124.5,-67.5 124.5,-119.5 312.5,-119.5 312.5,-67.5 124.5,-67.5"/>
<text text-anchor="start" x="132.5" y="-107.5" font-family="Helvetica,sans-Serif" font-size="10.00">/home/lucamuratore</text>
<text text-anchor="start" x="132.5" y="-96.5" font-family="Helvetica,sans-Serif" font-size="10.00">/advr&#45;superbuild/external</text>
<text text-anchor="start" x="132.5" y="-85.5" font-family="Helvetica,sans-Serif" font-size="10.00">/XCM/include/XCM/MessageInterfaces</text>
<text text-anchor="middle" x="218.5" y="-74.5" font-family="Helvetica,sans-Serif" font-size="10.00">/AdvrJointState.h</text>
</g>
<!-- Node2 -->
<g id="node2" class="node"><title>Node2</title>
<polygon fill="none" stroke="#bfbfbf" points="0,-6 0,-25 115,-25 115,-6 0,-6"/>
<text text-anchor="middle" x="57.5" y="-13" font-family="Helvetica,sans-Serif" font-size="10.00">XCM/JointStateAdvr.h</text>
</g>
<!-- Node1&#45;&gt;Node2 -->
<g id="edge1" class="edge"><title>Node1&#45;&gt;Node2</title>
<path fill="none" stroke="midnightblue" d="M165.336,-67.4041C138.369,-54.674 106.756,-39.7514 84.7592,-29.3677"/>
<polygon fill="midnightblue" stroke="midnightblue" points="86.2088,-26.1817 75.6716,-25.0779 83.2206,-32.5118 86.2088,-26.1817"/>
</g>
<!-- Node3 -->
<g id="node3" class="node"><title>Node3</title>
<polygon fill="none" stroke="#bfbfbf" points="133,-6 133,-25 188,-25 188,-6 133,-6"/>
<text text-anchor="middle" x="160.5" y="-13" font-family="Helvetica,sans-Serif" font-size="10.00">ros/ros.h</text>
</g>
<!-- Node1&#45;&gt;Node3 -->
<g id="edge2" class="edge"><title>Node1&#45;&gt;Node3</title>
<path fill="none" stroke="midnightblue" d="M199.187,-67.1931C190.71,-56.0849 180.985,-43.3418 173.406,-33.4109"/>
<polygon fill="midnightblue" stroke="midnightblue" points="175.995,-31.0351 167.146,-25.2089 170.431,-35.2818 175.995,-31.0351"/>
</g>
<!-- Node4 -->
<g id="node4" class="node"><title>Node4</title>
<polygon fill="none" stroke="#bfbfbf" points="206.5,-0.5 206.5,-30.5 346.5,-30.5 346.5,-0.5 206.5,-0.5"/>
<text text-anchor="start" x="214.5" y="-18.5" font-family="Helvetica,sans-Serif" font-size="10.00">RobotInterfaceROS/Generic</text>
<text text-anchor="middle" x="276.5" y="-7.5" font-family="Helvetica,sans-Serif" font-size="10.00">JointStateMessage.h</text>
</g>
<!-- Node1&#45;&gt;Node4 -->
<g id="edge3" class="edge"><title>Node1&#45;&gt;Node4</title>
<path fill="none" stroke="midnightblue" d="M237.813,-67.1931C244.805,-58.0307 252.647,-47.7561 259.432,-38.8647"/>
<polygon fill="midnightblue" stroke="midnightblue" points="262.268,-40.9182 265.552,-30.8453 256.703,-36.6714 262.268,-40.9182"/>
</g>
<!-- Node5 -->
<g id="node5" class="node"><title>Node5</title>
<polygon fill="none" stroke="#bfbfbf" points="364.5,-6 364.5,-25 516.5,-25 516.5,-6 364.5,-6"/>
<text text-anchor="middle" x="440.5" y="-13" font-family="Helvetica,sans-Serif" font-size="10.00">XBotInterface/RobotInterface.h</text>
</g>
<!-- Node1&#45;&gt;Node5 -->
<g id="edge4" class="edge"><title>Node1&#45;&gt;Node5</title>
<path fill="none" stroke="midnightblue" d="M291.806,-67.4041C330.159,-54.2744 375.324,-38.8124 405.729,-28.4035"/>
<polygon fill="midnightblue" stroke="midnightblue" points="407.116,-31.6282 415.443,-25.0779 404.849,-25.0055 407.116,-31.6282"/>
</g>
</g>
</svg>
