<?xml version="1.0" encoding="UTF-8" standalone="no"?>
<!DOCTYPE svg PUBLIC "-//W3C//DTD SVG 1.1//EN"
 "http://www.w3.org/Graphics/SVG/1.1/DTD/svg11.dtd">
<!-- Generated by graphviz version 2.38.0 (20140413.2041)
 -->
<!-- Title: /home/lucamuratore/advr&#45;superbuild/external/XCM/include/XCM/MessageInterfaces/AdvrCommandMessage.h Pages: 1 -->
<svg width="650pt" height="128pt"
 viewBox="0.00 0.00 649.50 128.00" xmlns="http://www.w3.org/2000/svg" xmlns:xlink="http://www.w3.org/1999/xlink">
<g id="graph0" class="graph" transform="scale(1 1) rotate(0) translate(4 124)">
<title>/home/lucamuratore/advr&#45;superbuild/external/XCM/include/XCM/MessageInterfaces/AdvrCommandMessage.h</title>
<!-- Node1 -->
<g id="node1" class="node"><title>Node1</title>
<polygon fill="#bfbfbf" stroke="black" points="234,-67.5 234,-119.5 422,-119.5 422,-67.5 234,-67.5"/>
<text text-anchor="start" x="242" y="-107.5" font-family="Helvetica,sans-Serif" font-size="10.00">/home/lucamuratore</text>
<text text-anchor="start" x="242" y="-96.5" font-family="Helvetica,sans-Serif" font-size="10.00">/advr&#45;superbuild/external</text>
<text text-anchor="start" x="242" y="-85.5" font-family="Helvetica,sans-Serif" font-size="10.00">/XCM/include/XCM/MessageInterfaces</text>
<text text-anchor="middle" x="328" y="-74.5" font-family="Helvetica,sans-Serif" font-size="10.00">/AdvrCommandMessage.h</text>
</g>
<!-- Node2 -->
<g id="node2" class="node"><title>Node2</title>
<polygon fill="none" stroke="#bfbfbf" points="0,-6 0,-25 116,-25 116,-6 0,-6"/>
<text text-anchor="middle" x="58" y="-13" font-family="Helvetica,sans-Serif" font-size="10.00">XCM/CommandAdvr.h</text>
</g>
<!-- Node1&#45;&gt;Node2 -->
<g id="edge1" class="edge"><title>Node1&#45;&gt;Node2</title>
<path fill="none" stroke="midnightblue" d="M238.844,-67.4041C191.387,-54.0461 135.355,-38.2739 98.3759,-27.8651"/>
<polygon fill="midnightblue" stroke="midnightblue" points="99.0484,-24.4184 88.4742,-25.0779 97.1517,-31.1566 99.0484,-24.4184"/>
</g>
<!-- Node3 -->
<g id="node3" class="node"><title>Node3</title>
<polygon fill="none" stroke="#bfbfbf" points="134,-0.5 134,-30.5 240,-30.5 240,-0.5 134,-0.5"/>
<text text-anchor="start" x="142" y="-18.5" font-family="Helvetica,sans-Serif" font-size="10.00">XCM/advr_controller</text>
<text text-anchor="middle" x="187" y="-7.5" font-family="Helvetica,sans-Serif" font-size="10.00">_joint_names.h</text>
</g>
<!-- Node1&#45;&gt;Node3 -->
<g id="edge2" class="edge"><title>Node1&#45;&gt;Node3</title>
<path fill="none" stroke="midnightblue" d="M281.441,-67.4041C262.178,-57.0213 240.209,-45.18 222.31,-35.5323"/>
<polygon fill="midnightblue" stroke="midnightblue" points="223.82,-32.3704 213.357,-30.7066 220.499,-38.5323 223.82,-32.3704"/>
</g>
<!-- Node4 -->
<g id="node4" class="node"><title>Node4</title>
<polygon fill="none" stroke="#bfbfbf" points="258,-0.5 258,-30.5 398,-30.5 398,-0.5 258,-0.5"/>
<text text-anchor="start" x="266" y="-18.5" font-family="Helvetica,sans-Serif" font-size="10.00">RobotInterfaceROS/Generic</text>
<text text-anchor="middle" x="328" y="-7.5" font-family="Helvetica,sans-Serif" font-size="10.00">ControlMessage.h</text>
</g>
<!-- Node1&#45;&gt;Node4 -->
<g id="edge3" class="edge"><title>Node1&#45;&gt;Node4</title>
<path fill="none" stroke="midnightblue" d="M328,-67.1931C328,-58.7864 328,-49.4433 328,-41.0914"/>
<polygon fill="midnightblue" stroke="midnightblue" points="331.5,-40.8452 328,-30.8453 324.5,-40.8453 331.5,-40.8452"/>
</g>
<!-- Node5 -->
<g id="node5" class="node"><title>Node5</title>
<polygon fill="none" stroke="#bfbfbf" points="416,-6 416,-25 568,-25 568,-6 416,-6"/>
<text text-anchor="middle" x="492" y="-13" font-family="Helvetica,sans-Serif" font-size="10.00">XBotInterface/RobotInterface.h</text>
</g>
<!-- Node1&#45;&gt;Node5 -->
<g id="edge4" class="edge"><title>Node1&#45;&gt;Node5</title>
<path fill="none" stroke="midnightblue" d="M382.154,-67.4041C409.625,-54.674 441.826,-39.7514 464.233,-29.3677"/>
<polygon fill="midnightblue" stroke="midnightblue" points="465.888,-32.4582 473.49,-25.0779 462.945,-26.107 465.888,-32.4582"/>
</g>
<!-- Node6 -->
<g id="node6" class="node"><title>Node6</title>
<polygon fill="none" stroke="#bfbfbf" points="586.5,-6 586.5,-25 641.5,-25 641.5,-6 586.5,-6"/>
<text text-anchor="middle" x="614" y="-13" font-family="Helvetica,sans-Serif" font-size="10.00">ros/ros.h</text>
</g>
<!-- Node1&#45;&gt;Node6 -->
<g id="edge5" class="edge"><title>Node1&#45;&gt;Node6</title>
<path fill="none" stroke="midnightblue" d="M422.223,-72.3059C469.148,-61.4723 526.502,-47.0545 577,-31 579.275,-30.2769 581.61,-29.4844 583.948,-28.6545"/>
<polygon fill="midnightblue" stroke="midnightblue" points="585.285,-31.8915 593.429,-25.1144 582.836,-25.3338 585.285,-31.8915"/>
</g>
</g>
</svg>
