<?xml version="1.0" encoding="UTF-8" standalone="no"?>
<!DOCTYPE svg PUBLIC "-//W3C//DTD SVG 1.1//EN"
 "http://www.w3.org/Graphics/SVG/1.1/DTD/svg11.dtd">
<!-- Generated by graphviz version 2.38.0 (20140413.2041)
 -->
<!-- Title: /home/lucamuratore/advr&#45;superbuild/external/XCM/src/MessageInterfaces/AdvrJointState.cpp Pages: 1 -->
<svg width="525pt" height="195pt"
 viewBox="0.00 0.00 524.50 195.00" xmlns="http://www.w3.org/2000/svg" xmlns:xlink="http://www.w3.org/1999/xlink">
<g id="graph0" class="graph" transform="scale(1 1) rotate(0) translate(4 191)">
<title>/home/lucamuratore/advr&#45;superbuild/external/XCM/src/MessageInterfaces/AdvrJointState.cpp</title>
<!-- Node1 -->
<g id="node1" class="node"><title>Node1</title>
<polygon fill="#bfbfbf" stroke="black" points="146,-134.5 146,-186.5 291,-186.5 291,-134.5 146,-134.5"/>
<text text-anchor="start" x="154" y="-174.5" font-family="Helvetica,sans-Serif" font-size="10.00">/home/lucamuratore</text>
<text text-anchor="start" x="154" y="-163.5" font-family="Helvetica,sans-Serif" font-size="10.00">/advr&#45;superbuild/external</text>
<text text-anchor="start" x="154" y="-152.5" font-family="Helvetica,sans-Serif" font-size="10.00">/XCM/src/MessageInterfaces</text>
<text text-anchor="middle" x="218.5" y="-141.5" font-family="Helvetica,sans-Serif" font-size="10.00">/AdvrJointState.cpp</text>
</g>
<!-- Node2 -->
<g id="node2" class="node"><title>Node2</title>
<g id="a_node2"><a xlink:href="AdvrJointState_8h.html" target="_top" xlink:title="XCM/MessageInterfaces\l/AdvrJointState.h">
<polygon fill="none" stroke="black" points="156,-67.5 156,-97.5 281,-97.5 281,-67.5 156,-67.5"/>
<text text-anchor="start" x="164" y="-85.5" font-family="Helvetica,sans-Serif" font-size="10.00">XCM/MessageInterfaces</text>
<text text-anchor="middle" x="218.5" y="-74.5" font-family="Helvetica,sans-Serif" font-size="10.00">/AdvrJointState.h</text>
</a>
</g>
</g>
<!-- Node1&#45;&gt;Node2 -->
<g id="edge1" class="edge"><title>Node1&#45;&gt;Node2</title>
<path fill="none" stroke="midnightblue" d="M218.5,-134.193C218.5,-125.786 218.5,-116.443 218.5,-108.091"/>
<polygon fill="midnightblue" stroke="midnightblue" points="222,-107.845 218.5,-97.8453 215,-107.845 222,-107.845"/>
</g>
<!-- Node3 -->
<g id="node3" class="node"><title>Node3</title>
<polygon fill="none" stroke="#bfbfbf" points="0,-6 0,-25 115,-25 115,-6 0,-6"/>
<text text-anchor="middle" x="57.5" y="-13" font-family="Helvetica,sans-Serif" font-size="10.00">XCM/JointStateAdvr.h</text>
</g>
<!-- Node2&#45;&gt;Node3 -->
<g id="edge2" class="edge"><title>Node2&#45;&gt;Node3</title>
<path fill="none" stroke="midnightblue" d="M183.565,-67.396C155.066,-55.8901 115.206,-39.7974 87.984,-28.8072"/>
<polygon fill="midnightblue" stroke="midnightblue" points="89.1543,-25.5053 78.5712,-25.007 86.5337,-31.9962 89.1543,-25.5053"/>
</g>
<!-- Node4 -->
<g id="node4" class="node"><title>Node4</title>
<polygon fill="none" stroke="#bfbfbf" points="133,-6 133,-25 188,-25 188,-6 133,-6"/>
<text text-anchor="middle" x="160.5" y="-13" font-family="Helvetica,sans-Serif" font-size="10.00">ros/ros.h</text>
</g>
<!-- Node2&#45;&gt;Node4 -->
<g id="edge3" class="edge"><title>Node2&#45;&gt;Node4</title>
<path fill="none" stroke="midnightblue" d="M205.915,-67.396C196.871,-57.2611 184.652,-43.5674 175.167,-32.9368"/>
<polygon fill="midnightblue" stroke="midnightblue" points="177.528,-30.3257 168.258,-25.1945 172.305,-34.9862 177.528,-30.3257"/>
</g>
<!-- Node5 -->
<g id="node5" class="node"><title>Node5</title>
<polygon fill="none" stroke="#bfbfbf" points="206.5,-0.5 206.5,-30.5 346.5,-30.5 346.5,-0.5 206.5,-0.5"/>
<text text-anchor="start" x="214.5" y="-18.5" font-family="Helvetica,sans-Serif" font-size="10.00">RobotInterfaceROS/Generic</text>
<text text-anchor="middle" x="276.5" y="-7.5" font-family="Helvetica,sans-Serif" font-size="10.00">JointStateMessage.h</text>
</g>
<!-- Node2&#45;&gt;Node5 -->
<g id="edge4" class="edge"><title>Node2&#45;&gt;Node5</title>
<path fill="none" stroke="midnightblue" d="M231.085,-67.396C238.686,-58.8783 248.529,-47.8469 257.108,-38.2328"/>
<polygon fill="midnightblue" stroke="midnightblue" points="259.893,-40.3682 263.939,-30.5765 254.67,-35.7077 259.893,-40.3682"/>
</g>
<!-- Node6 -->
<g id="node6" class="node"><title>Node6</title>
<polygon fill="none" stroke="#bfbfbf" points="364.5,-6 364.5,-25 516.5,-25 516.5,-6 364.5,-6"/>
<text text-anchor="middle" x="440.5" y="-13" font-family="Helvetica,sans-Serif" font-size="10.00">XBotInterface/RobotInterface.h</text>
</g>
<!-- Node2&#45;&gt;Node6 -->
<g id="edge5" class="edge"><title>Node2&#45;&gt;Node6</title>
<path fill="none" stroke="midnightblue" d="M266.397,-67.476C306.71,-55.6727 363.651,-39.0009 401.295,-27.9789"/>
<polygon fill="midnightblue" stroke="midnightblue" points="402.758,-31.1977 411.371,-25.0287 400.791,-24.4797 402.758,-31.1977"/>
</g>
</g>
</svg>
