<?xml version="1.0" encoding="UTF-8" standalone="no"?>
<!DOCTYPE svg PUBLIC "-//W3C//DTD SVG 1.1//EN"
 "http://www.w3.org/Graphics/SVG/1.1/DTD/svg11.dtd">
<!-- Generated by graphviz version 2.38.0 (20140413.2041)
 -->
<!-- Title: /home/lucamuratore/advr&#45;superbuild/external/XCM/src/MessageInterfaces/AdvrCommandMessage.cpp Pages: 1 -->
<svg width="650pt" height="195pt"
 viewBox="0.00 0.00 649.50 195.00" xmlns="http://www.w3.org/2000/svg" xmlns:xlink="http://www.w3.org/1999/xlink">
<g id="graph0" class="graph" transform="scale(1 1) rotate(0) translate(4 191)">
<title>/home/lucamuratore/advr&#45;superbuild/external/XCM/src/MessageInterfaces/AdvrCommandMessage.cpp</title>
<!-- Node1 -->
<g id="node1" class="node"><title>Node1</title>
<polygon fill="#bfbfbf" stroke="black" points="255.5,-134.5 255.5,-186.5 400.5,-186.5 400.5,-134.5 255.5,-134.5"/>
<text text-anchor="start" x="263.5" y="-174.5" font-family="Helvetica,sans-Serif" font-size="10.00">/home/lucamuratore</text>
<text text-anchor="start" x="263.5" y="-163.5" font-family="Helvetica,sans-Serif" font-size="10.00">/advr&#45;superbuild/external</text>
<text text-anchor="start" x="263.5" y="-152.5" font-family="Helvetica,sans-Serif" font-size="10.00">/XCM/src/MessageInterfaces</text>
<text text-anchor="middle" x="328" y="-141.5" font-family="Helvetica,sans-Serif" font-size="10.00">/AdvrCommandMessage.cpp</text>
</g>
<!-- Node2 -->
<g id="node2" class="node"><title>Node2</title>
<g id="a_node2"><a xlink:href="AdvrCommandMessage_8h.html" target="_top" xlink:title="XCM/MessageInterfaces\l/AdvrCommandMessage.h">
<polygon fill="none" stroke="black" points="261.5,-67.5 261.5,-97.5 394.5,-97.5 394.5,-67.5 261.5,-67.5"/>
<text text-anchor="start" x="269.5" y="-85.5" font-family="Helvetica,sans-Serif" font-size="10.00">XCM/MessageInterfaces</text>
<text text-anchor="middle" x="328" y="-74.5" font-family="Helvetica,sans-Serif" font-size="10.00">/AdvrCommandMessage.h</text>
</a>
</g>
</g>
<!-- Node1&#45;&gt;Node2 -->
<g id="edge1" class="edge"><title>Node1&#45;&gt;Node2</title>
<path fill="none" stroke="midnightblue" d="M328,-134.193C328,-125.786 328,-116.443 328,-108.091"/>
<polygon fill="midnightblue" stroke="midnightblue" points="331.5,-107.845 328,-97.8453 324.5,-107.845 331.5,-107.845"/>
</g>
<!-- Node3 -->
<g id="node3" class="node"><title>Node3</title>
<polygon fill="none" stroke="#bfbfbf" points="0,-6 0,-25 116,-25 116,-6 0,-6"/>
<text text-anchor="middle" x="58" y="-13" font-family="Helvetica,sans-Serif" font-size="10.00">XCM/CommandAdvr.h</text>
</g>
<!-- Node2&#45;&gt;Node3 -->
<g id="edge2" class="edge"><title>Node2&#45;&gt;Node3</title>
<path fill="none" stroke="midnightblue" d="M269.746,-67.476C219.879,-55.471 149.092,-38.4295 103.354,-27.4187"/>
<polygon fill="midnightblue" stroke="midnightblue" points="103.968,-23.9665 93.4267,-25.0287 102.33,-30.7721 103.968,-23.9665"/>
</g>
<!-- Node4 -->
<g id="node4" class="node"><title>Node4</title>
<polygon fill="none" stroke="#bfbfbf" points="134,-0.5 134,-30.5 240,-30.5 240,-0.5 134,-0.5"/>
<text text-anchor="start" x="142" y="-18.5" font-family="Helvetica,sans-Serif" font-size="10.00">XCM/advr_controller</text>
<text text-anchor="middle" x="187" y="-7.5" font-family="Helvetica,sans-Serif" font-size="10.00">_joint_names.h</text>
</g>
<!-- Node2&#45;&gt;Node4 -->
<g id="edge3" class="edge"><title>Node2&#45;&gt;Node4</title>
<path fill="none" stroke="midnightblue" d="M297.405,-67.396C276.711,-57.8561 249.177,-45.1632 226.783,-34.8397"/>
<polygon fill="midnightblue" stroke="midnightblue" points="228.082,-31.5845 217.535,-30.5765 225.151,-37.9416 228.082,-31.5845"/>
</g>
<!-- Node5 -->
<g id="node5" class="node"><title>Node5</title>
<polygon fill="none" stroke="#bfbfbf" points="258,-0.5 258,-30.5 398,-30.5 398,-0.5 258,-0.5"/>
<text text-anchor="start" x="266" y="-18.5" font-family="Helvetica,sans-Serif" font-size="10.00">RobotInterfaceROS/Generic</text>
<text text-anchor="middle" x="328" y="-7.5" font-family="Helvetica,sans-Serif" font-size="10.00">ControlMessage.h</text>
</g>
<!-- Node2&#45;&gt;Node5 -->
<g id="edge4" class="edge"><title>Node2&#45;&gt;Node5</title>
<path fill="none" stroke="midnightblue" d="M328,-67.396C328,-59.6448 328,-49.8122 328,-40.8601"/>
<polygon fill="midnightblue" stroke="midnightblue" points="331.5,-40.5765 328,-30.5765 324.5,-40.5765 331.5,-40.5765"/>
</g>
<!-- Node6 -->
<g id="node6" class="node"><title>Node6</title>
<polygon fill="none" stroke="#bfbfbf" points="416,-6 416,-25 568,-25 568,-6 416,-6"/>
<text text-anchor="middle" x="492" y="-13" font-family="Helvetica,sans-Serif" font-size="10.00">XBotInterface/RobotInterface.h</text>
</g>
<!-- Node2&#45;&gt;Node6 -->
<g id="edge5" class="edge"><title>Node2&#45;&gt;Node6</title>
<path fill="none" stroke="midnightblue" d="M363.586,-67.396C392.616,-55.8901 433.219,-39.7974 460.948,-28.8072"/>
<polygon fill="midnightblue" stroke="midnightblue" points="462.529,-31.9454 470.536,-25.007 459.95,-25.4379 462.529,-31.9454"/>
</g>
<!-- Node7 -->
<g id="node7" class="node"><title>Node7</title>
<polygon fill="none" stroke="#bfbfbf" points="586.5,-6 586.5,-25 641.5,-25 641.5,-6 586.5,-6"/>
<text text-anchor="middle" x="614" y="-13" font-family="Helvetica,sans-Serif" font-size="10.00">ros/ros.h</text>
</g>
<!-- Node2&#45;&gt;Node7 -->
<g id="edge6" class="edge"><title>Node2&#45;&gt;Node7</title>
<path fill="none" stroke="midnightblue" d="M394.559,-71.2325C445.154,-62.6527 516.183,-48.9367 577,-31 579.432,-30.2828 581.928,-29.4726 584.42,-28.6111"/>
<polygon fill="midnightblue" stroke="midnightblue" points="585.698,-31.8703 593.864,-25.1209 583.271,-25.3043 585.698,-31.8703"/>
</g>
</g>
</svg>
