<?xml version="1.0" encoding="UTF-8" standalone="no"?>
<!DOCTYPE svg PUBLIC "-//W3C//DTD SVG 1.1//EN"
 "http://www.w3.org/Graphics/SVG/1.1/DTD/svg11.dtd">
<!-- Generated by graphviz version 2.38.0 (20140413.2041)
 -->
<!-- Title: /home/lucamuratore/advr&#45;superbuild/external/XCM/include/XBotCore&#45;interfaces/All.h Pages: 1 -->
<svg width="2738pt" height="329pt"
 viewBox="0.00 0.00 2737.50 329.00" xmlns="http://www.w3.org/2000/svg" xmlns:xlink="http://www.w3.org/1999/xlink">
<g id="graph0" class="graph" transform="scale(1 1) rotate(0) translate(4 325)">
<title>/home/lucamuratore/advr&#45;superbuild/external/XCM/include/XBotCore&#45;interfaces/All.h</title>
<!-- Node1 -->
<g id="node1" class="node"><title>Node1</title>
<polygon fill="#bfbfbf" stroke="black" points="538.5,-279.5 538.5,-320.5 728.5,-320.5 728.5,-279.5 538.5,-279.5"/>
<text text-anchor="start" x="546.5" y="-308.5" font-family="Helvetica,sans-Serif" font-size="10.00">/home/lucamuratore</text>
<text text-anchor="start" x="546.5" y="-297.5" font-family="Helvetica,sans-Serif" font-size="10.00">/advr&#45;superbuild/external</text>
<text text-anchor="middle" x="633.5" y="-286.5" font-family="Helvetica,sans-Serif" font-size="10.00">/XCM/include/XBotCore&#45;interfaces/All.h</text>
</g>
<!-- Node2 -->
<g id="node2" class="node"><title>Node2</title>
<g id="a_node2"><a xlink:href="IXBotModel_8h.html" target="_top" xlink:title="XBotCore&#45;interfaces\l/IXBotModel.h">
<polygon fill="none" stroke="black" points="162,-145.5 162,-175.5 267,-175.5 267,-145.5 162,-145.5"/>
<text text-anchor="start" x="170" y="-163.5" font-family="Helvetica,sans-Serif" font-size="10.00">XBotCore&#45;interfaces</text>
<text text-anchor="middle" x="214.5" y="-152.5" font-family="Helvetica,sans-Serif" font-size="10.00">/IXBotModel.h</text>
</a>
</g>
</g>
<!-- Node1&#45;&gt;Node2 -->
<g id="edge1" class="edge"><title>Node1&#45;&gt;Node2</title>
<path fill="none" stroke="midnightblue" d="M538.327,-286.82C484.938,-278.184 417.759,-264.274 360.5,-243 317.53,-227.035 272.02,-199.756 243.453,-181.195"/>
<polygon fill="midnightblue" stroke="midnightblue" points="245.075,-178.073 234.798,-175.501 241.228,-183.921 245.075,-178.073"/>
</g>
<!-- Node6 -->
<g id="node6" class="node"><title>Node6</title>
<g id="a_node6"><a xlink:href="IXBotJoint_8h.html" target="_top" xlink:title="XBotCore&#45;interfaces\l/IXBotJoint.h">
<polygon fill="none" stroke="black" points="0,-145.5 0,-175.5 105,-175.5 105,-145.5 0,-145.5"/>
<text text-anchor="start" x="8" y="-163.5" font-family="Helvetica,sans-Serif" font-size="10.00">XBotCore&#45;interfaces</text>
<text text-anchor="middle" x="52.5" y="-152.5" font-family="Helvetica,sans-Serif" font-size="10.00">/IXBotJoint.h</text>
</a>
</g>
</g>
<!-- Node1&#45;&gt;Node6 -->
<g id="edge5" class="edge"><title>Node1&#45;&gt;Node6</title>
<path fill="none" stroke="midnightblue" d="M538.411,-287.467C469.992,-278.159 375.823,-263.27 294.5,-243 224.677,-225.596 146.107,-197.497 97.9533,-179.263"/>
<polygon fill="midnightblue" stroke="midnightblue" points="99.0376,-175.93 88.4467,-175.641 96.5456,-182.472 99.0376,-175.93"/>
</g>
<!-- Node8 -->
<g id="node8" class="node"><title>Node8</title>
<g id="a_node8"><a xlink:href="IXBotFT_8h.html" target="_top" xlink:title="XBotCore&#45;interfaces\l/IXBotFT.h">
<polygon fill="none" stroke="black" points="657,-145.5 657,-175.5 762,-175.5 762,-145.5 657,-145.5"/>
<text text-anchor="start" x="665" y="-163.5" font-family="Helvetica,sans-Serif" font-size="10.00">XBotCore&#45;interfaces</text>
<text text-anchor="middle" x="709.5" y="-152.5" font-family="Helvetica,sans-Serif" font-size="10.00">/IXBotFT.h</text>
</a>
</g>
</g>
<!-- Node1&#45;&gt;Node8 -->
<g id="edge10" class="edge"><title>Node1&#45;&gt;Node8</title>
<path fill="none" stroke="midnightblue" d="M644.389,-279.3C658.207,-254.3 682.004,-211.246 696.683,-184.689"/>
<polygon fill="midnightblue" stroke="midnightblue" points="699.869,-186.16 701.643,-175.715 693.742,-182.774 699.869,-186.16"/>
</g>
<!-- Node9 -->
<g id="node9" class="node"><title>Node9</title>
<g id="a_node9"><a xlink:href="IXBotIMU_8h.html" target="_top" xlink:title="XBotCore&#45;interfaces\l/IXBotIMU.h">
<polygon fill="none" stroke="black" points="285,-145.5 285,-175.5 390,-175.5 390,-145.5 285,-145.5"/>
<text text-anchor="start" x="293" y="-163.5" font-family="Helvetica,sans-Serif" font-size="10.00">XBotCore&#45;interfaces</text>
<text text-anchor="middle" x="337.5" y="-152.5" font-family="Helvetica,sans-Serif" font-size="10.00">/IXBotIMU.h</text>
</a>
</g>
</g>
<!-- Node1&#45;&gt;Node9 -->
<g id="edge11" class="edge"><title>Node1&#45;&gt;Node9</title>
<path fill="none" stroke="midnightblue" d="M538.37,-292.616C491.774,-285.716 436.754,-271.618 394.5,-243 373.195,-228.571 357.379,-203.323 347.881,-184.742"/>
<polygon fill="midnightblue" stroke="midnightblue" points="351.017,-183.186 343.494,-175.725 344.722,-186.249 351.017,-183.186"/>
</g>
<!-- Node10 -->
<g id="node10" class="node"><title>Node10</title>
<g id="a_node10"><a xlink:href="XBotPlugin_8h.html" target="_top" xlink:title="XBotCore&#45;interfaces\l/XBotPlugin.h">
<polygon fill="none" stroke="black" points="404,-212.5 404,-242.5 509,-242.5 509,-212.5 404,-212.5"/>
<text text-anchor="start" x="412" y="-230.5" font-family="Helvetica,sans-Serif" font-size="10.00">XBotCore&#45;interfaces</text>
<text text-anchor="middle" x="456.5" y="-219.5" font-family="Helvetica,sans-Serif" font-size="10.00">/XBotPlugin.h</text>
</a>
</g>
</g>
<!-- Node1&#45;&gt;Node10 -->
<g id="edge13" class="edge"><title>Node1&#45;&gt;Node10</title>
<path fill="none" stroke="midnightblue" d="M584.196,-279.362C558.164,-268.993 526.462,-256.366 501.158,-246.288"/>
<polygon fill="midnightblue" stroke="midnightblue" points="502.384,-243.008 491.799,-242.56 499.794,-249.512 502.384,-243.008"/>
</g>
<!-- Node11 -->
<g id="node11" class="node"><title>Node11</title>
<g id="a_node11"><a xlink:href="XBotSharedMemory_8h.html" target="_top" xlink:title="XBotCore&#45;interfaces\l/XBotSharedMemory.h">
<polygon fill="none" stroke="black" points="522.5,-145.5 522.5,-175.5 638.5,-175.5 638.5,-145.5 522.5,-145.5"/>
<text text-anchor="start" x="530.5" y="-163.5" font-family="Helvetica,sans-Serif" font-size="10.00">XBotCore&#45;interfaces</text>
<text text-anchor="middle" x="580.5" y="-152.5" font-family="Helvetica,sans-Serif" font-size="10.00">/XBotSharedMemory.h</text>
</a>
</g>
</g>
<!-- Node1&#45;&gt;Node11 -->
<g id="edge30" class="edge"><title>Node1&#45;&gt;Node11</title>
<path fill="none" stroke="midnightblue" d="M625.906,-279.3C616.355,-254.52 599.966,-212 589.709,-185.392"/>
<polygon fill="midnightblue" stroke="midnightblue" points="592.842,-183.787 585.979,-175.715 586.31,-186.305 592.842,-183.787"/>
</g>
<!-- Node12 -->
<g id="node12" class="node"><title>Node12</title>
<g id="a_node12"><a xlink:href="XBotSharedObject_8h.html" target="_top" xlink:title="XBotCore&#45;interfaces\l/XBotSharedObject.h">
<polygon fill="none" stroke="black" points="561,-78.5 561,-108.5 670,-108.5 670,-78.5 561,-78.5"/>
<text text-anchor="start" x="569" y="-96.5" font-family="Helvetica,sans-Serif" font-size="10.00">XBotCore&#45;interfaces</text>
<text text-anchor="middle" x="615.5" y="-85.5" font-family="Helvetica,sans-Serif" font-size="10.00">/XBotSharedObject.h</text>
</a>
</g>
</g>
<!-- Node1&#45;&gt;Node12 -->
<g id="edge31" class="edge"><title>Node1&#45;&gt;Node12</title>
<path fill="none" stroke="midnightblue" d="M673.882,-279.416C726.613,-251.169 808.024,-196.691 770.5,-145 749.857,-116.564 712.78,-103.832 680.064,-98.2599"/>
<polygon fill="midnightblue" stroke="midnightblue" points="680.485,-94.7838 670.074,-96.7511 679.439,-101.705 680.485,-94.7838"/>
</g>
<!-- Node16 -->
<g id="node16" class="node"><title>Node16</title>
<g id="a_node16"><a xlink:href="XBotESC_8h.html" target="_top" xlink:title="XBotCore&#45;interfaces\l/XBotESC.h">
<polygon fill="none" stroke="black" points="819,-145.5 819,-175.5 924,-175.5 924,-145.5 819,-145.5"/>
<text text-anchor="start" x="827" y="-163.5" font-family="Helvetica,sans-Serif" font-size="10.00">XBotCore&#45;interfaces</text>
<text text-anchor="middle" x="871.5" y="-152.5" font-family="Helvetica,sans-Serif" font-size="10.00">/XBotESC.h</text>
</a>
</g>
</g>
<!-- Node1&#45;&gt;Node16 -->
<g id="edge70" class="edge"><title>Node1&#45;&gt;Node16</title>
<path fill="none" stroke="midnightblue" d="M724.907,-279.467C752.016,-271.012 780.774,-259.218 804.5,-243 827.009,-227.614 845.994,-202.566 857.943,-184.295"/>
<polygon fill="midnightblue" stroke="midnightblue" points="860.995,-186.016 863.38,-175.693 855.078,-182.276 860.995,-186.016"/>
</g>
<!-- Node18 -->
<g id="node18" class="node"><title>Node18</title>
<g id="a_node18"><a xlink:href="XDomainCommunication_8h.html" target="_top" xlink:title="XBotCore&#45;interfaces\l/XDomainCommunication.h">
<polygon fill="none" stroke="black" points="1076,-212.5 1076,-242.5 1213,-242.5 1213,-212.5 1076,-212.5"/>
<text text-anchor="start" x="1084" y="-230.5" font-family="Helvetica,sans-Serif" font-size="10.00">XBotCore&#45;interfaces</text>
<text text-anchor="middle" x="1144.5" y="-219.5" font-family="Helvetica,sans-Serif" font-size="10.00">/XDomainCommunication.h</text>
</a>
</g>
</g>
<!-- Node1&#45;&gt;Node18 -->
<g id="edge32" class="edge"><title>Node1&#45;&gt;Node18</title>
<path fill="none" stroke="midnightblue" d="M728.717,-285.863C825.988,-272.443 975.253,-251.85 1065.98,-239.333"/>
<polygon fill="midnightblue" stroke="midnightblue" points="1066.51,-242.794 1075.93,-237.96 1065.55,-235.859 1066.51,-242.794"/>
</g>
<!-- Node19 -->
<g id="node19" class="node"><title>Node19</title>
<g id="a_node19"><a xlink:href="XBotPipes_8h.html" target="_top" xlink:title="XBotCore&#45;interfaces\l/XBotPipes.h">
<polygon fill="none" stroke="black" points="986,-145.5 986,-175.5 1091,-175.5 1091,-145.5 986,-145.5"/>
<text text-anchor="start" x="994" y="-163.5" font-family="Helvetica,sans-Serif" font-size="10.00">XBotCore&#45;interfaces</text>
<text text-anchor="middle" x="1038.5" y="-152.5" font-family="Helvetica,sans-Serif" font-size="10.00">/XBotPipes.h</text>
</a>
</g>
</g>
<!-- Node1&#45;&gt;Node19 -->
<g id="edge69" class="edge"><title>Node1&#45;&gt;Node19</title>
<path fill="none" stroke="midnightblue" d="M711.411,-279.401C748.913,-269.433 794.348,-256.569 834.5,-243 891.698,-223.67 956.166,-197.08 997.04,-179.602"/>
<polygon fill="midnightblue" stroke="midnightblue" points="998.592,-182.745 1006.4,-175.583 995.829,-176.313 998.592,-182.745"/>
</g>
<!-- Node3 -->
<g id="node3" class="node"><title>Node3</title>
<polygon fill="none" stroke="#bfbfbf" points="116,-84 116,-103 151,-103 151,-84 116,-84"/>
<text text-anchor="middle" x="133.5" y="-91" font-family="Helvetica,sans-Serif" font-size="10.00">map</text>
</g>
<!-- Node2&#45;&gt;Node3 -->
<g id="edge2" class="edge"><title>Node2&#45;&gt;Node3</title>
<path fill="none" stroke="midnightblue" d="M196.924,-145.396C183.794,-134.86 165.872,-120.477 152.427,-109.689"/>
<polygon fill="midnightblue" stroke="midnightblue" points="154.325,-106.723 144.335,-103.195 149.943,-112.183 154.325,-106.723"/>
</g>
<!-- Node4 -->
<g id="node4" class="node"><title>Node4</title>
<polygon fill="none" stroke="#bfbfbf" points="402,-84 402,-103 443,-103 443,-84 402,-84"/>
<text text-anchor="middle" x="422.5" y="-91" font-family="Helvetica,sans-Serif" font-size="10.00">string</text>
</g>
<!-- Node2&#45;&gt;Node4 -->
<g id="edge3" class="edge"><title>Node2&#45;&gt;Node4</title>
<path fill="none" stroke="midnightblue" d="M259.377,-145.476C299.486,-132.942 357.163,-114.918 392.103,-103.999"/>
<polygon fill="midnightblue" stroke="midnightblue" points="393.246,-107.309 401.747,-100.985 391.158,-100.628 393.246,-107.309"/>
</g>
<!-- Node5 -->
<g id="node5" class="node"><title>Node5</title>
<polygon fill="none" stroke="#bfbfbf" points="254.5,-84 254.5,-103 298.5,-103 298.5,-84 254.5,-84"/>
<text text-anchor="middle" x="276.5" y="-91" font-family="Helvetica,sans-Serif" font-size="10.00">vector</text>
</g>
<!-- Node2&#45;&gt;Node5 -->
<g id="edge4" class="edge"><title>Node2&#45;&gt;Node5</title>
<path fill="none" stroke="midnightblue" d="M227.953,-145.396C237.716,-135.161 250.941,-121.296 261.122,-110.622"/>
<polygon fill="midnightblue" stroke="midnightblue" points="263.837,-112.846 268.207,-103.195 258.772,-108.015 263.837,-112.846"/>
</g>
<!-- Node6&#45;&gt;Node3 -->
<g id="edge6" class="edge"><title>Node6&#45;&gt;Node3</title>
<path fill="none" stroke="midnightblue" d="M70.0758,-145.396C83.2056,-134.86 101.128,-120.477 114.573,-109.689"/>
<polygon fill="midnightblue" stroke="midnightblue" points="117.057,-112.183 122.665,-103.195 112.675,-106.723 117.057,-112.183"/>
</g>
<!-- Node6&#45;&gt;Node4 -->
<g id="edge9" class="edge"><title>Node6&#45;&gt;Node4</title>
<path fill="none" stroke="midnightblue" d="M105.119,-150.256C183.577,-136.473 328.745,-110.971 391.862,-99.8823"/>
<polygon fill="midnightblue" stroke="midnightblue" points="392.721,-103.285 401.964,-98.1077 391.509,-96.3908 392.721,-103.285"/>
</g>
<!-- Node6&#45;&gt;Node5 -->
<g id="edge7" class="edge"><title>Node6&#45;&gt;Node5</title>
<path fill="none" stroke="midnightblue" d="M100.829,-145.476C144.326,-132.854 207.01,-114.665 244.553,-103.77"/>
<polygon fill="midnightblue" stroke="midnightblue" points="245.81,-107.05 254.439,-100.902 243.859,-100.327 245.81,-107.05"/>
</g>
<!-- Node7 -->
<g id="node7" class="node"><title>Node7</title>
<polygon fill="none" stroke="#bfbfbf" points="363.5,-11.5 363.5,-30.5 415.5,-30.5 415.5,-11.5 363.5,-11.5"/>
<text text-anchor="middle" x="389.5" y="-18.5" font-family="Helvetica,sans-Serif" font-size="10.00">memory</text>
</g>
<!-- Node6&#45;&gt;Node7 -->
<g id="edge8" class="edge"><title>Node6&#45;&gt;Node7</title>
<path fill="none" stroke="midnightblue" d="M57.7545,-145.47C65.4675,-126.917 81.6855,-94.6324 106.5,-78 146.485,-51.1995 285.972,-33.074 352.997,-25.7056"/>
<polygon fill="midnightblue" stroke="midnightblue" points="353.538,-29.1676 363.106,-24.6157 352.788,-22.2079 353.538,-29.1676"/>
</g>
<!-- Node9&#45;&gt;Node5 -->
<g id="edge12" class="edge"><title>Node9&#45;&gt;Node5</title>
<path fill="none" stroke="midnightblue" d="M324.264,-145.396C314.659,-135.161 301.647,-121.296 291.63,-110.622"/>
<polygon fill="midnightblue" stroke="midnightblue" points="294.055,-108.091 284.659,-103.195 288.95,-112.882 294.055,-108.091"/>
</g>
<!-- Node10&#45;&gt;Node2 -->
<g id="edge15" class="edge"><title>Node10&#45;&gt;Node2</title>
<path fill="none" stroke="midnightblue" d="M404.288,-212.476C366.884,-202.43 316.35,-188.856 276.831,-178.242"/>
<polygon fill="midnightblue" stroke="midnightblue" points="277.602,-174.825 267.036,-175.611 275.786,-181.585 277.602,-174.825"/>
</g>
<!-- Node10&#45;&gt;Node3 -->
<g id="edge26" class="edge"><title>Node10&#45;&gt;Node3</title>
<path fill="none" stroke="midnightblue" d="M403.884,-224.628C326.685,-220.776 188.017,-209.3 152.5,-176 135.472,-160.035 132.334,-132.011 132.358,-113.35"/>
<polygon fill="midnightblue" stroke="midnightblue" points="135.863,-113.24 132.685,-103.133 128.866,-113.016 135.863,-113.24"/>
</g>
<!-- Node10&#45;&gt;Node4 -->
<g id="edge29" class="edge"><title>Node10&#45;&gt;Node4</title>
<path fill="none" stroke="midnightblue" d="M452.861,-212.374C446.686,-188.397 434.155,-139.748 427.28,-113.056"/>
<polygon fill="midnightblue" stroke="midnightblue" points="430.598,-111.908 424.714,-103.097 423.819,-113.654 430.598,-111.908"/>
</g>
<!-- Node10&#45;&gt;Node5 -->
<g id="edge27" class="edge"><title>Node10&#45;&gt;Node5</title>
<path fill="none" stroke="midnightblue" d="M449.575,-212.255C440.229,-194.354 422.005,-163.713 398.5,-145 371.743,-123.698 334.737,-110.073 308.515,-102.412"/>
<polygon fill="midnightblue" stroke="midnightblue" points="309.265,-98.9879 298.692,-99.6727 307.385,-105.731 309.265,-98.9879"/>
</g>
<!-- Node10&#45;&gt;Node6 -->
<g id="edge14" class="edge"><title>Node10&#45;&gt;Node6</title>
<path fill="none" stroke="midnightblue" d="M403.791,-219.671C337.314,-210.813 219.594,-194.311 119.5,-176 118.037,-175.732 116.556,-175.456 115.065,-175.173"/>
<polygon fill="midnightblue" stroke="midnightblue" points="115.589,-171.709 105.103,-173.219 114.242,-178.579 115.589,-171.709"/>
</g>
<!-- Node10&#45;&gt;Node7 -->
<g id="edge28" class="edge"><title>Node10&#45;&gt;Node7</title>
<path fill="none" stroke="midnightblue" d="M459.552,-212.149C464.667,-184.626 472.477,-123.151 451.5,-78 443.429,-60.6272 427.184,-46.2751 413.347,-36.4508"/>
<polygon fill="midnightblue" stroke="midnightblue" points="414.968,-33.3234 404.712,-30.6624 411.07,-39.1378 414.968,-33.3234"/>
</g>
<!-- Node10&#45;&gt;Node8 -->
<g id="edge16" class="edge"><title>Node10&#45;&gt;Node8</title>
<path fill="none" stroke="midnightblue" d="M509.229,-212.953C549.316,-202.654 604.596,-188.452 646.923,-177.577"/>
<polygon fill="midnightblue" stroke="midnightblue" points="648.024,-180.908 656.839,-175.03 646.282,-174.128 648.024,-180.908"/>
</g>
<!-- Node10&#45;&gt;Node9 -->
<g id="edge17" class="edge"><title>Node10&#45;&gt;Node9</title>
<path fill="none" stroke="midnightblue" d="M430.679,-212.396C413.525,-203.026 390.804,-190.615 372.092,-180.395"/>
<polygon fill="midnightblue" stroke="midnightblue" points="373.725,-177.299 363.271,-175.577 370.369,-183.442 373.725,-177.299"/>
</g>
<!-- Node10&#45;&gt;Node11 -->
<g id="edge18" class="edge"><title>Node10&#45;&gt;Node11</title>
<path fill="none" stroke="midnightblue" d="M483.406,-212.396C501.361,-202.984 525.172,-190.503 544.72,-180.256"/>
<polygon fill="midnightblue" stroke="midnightblue" points="546.414,-183.319 553.646,-175.577 543.164,-177.119 546.414,-183.319"/>
</g>
<!-- Node10&#45;&gt;Node16 -->
<g id="edge24" class="edge"><title>Node10&#45;&gt;Node16</title>
<path fill="none" stroke="midnightblue" d="M509.06,-218.268C585.482,-206.298 727.047,-184.125 808.804,-171.32"/>
<polygon fill="midnightblue" stroke="midnightblue" points="809.375,-174.773 818.713,-169.768 808.292,-167.857 809.375,-174.773"/>
</g>
<!-- Node11&#45;&gt;Node12 -->
<g id="edge19" class="edge"><title>Node11&#45;&gt;Node12</title>
<path fill="none" stroke="midnightblue" d="M588.094,-145.396C592.497,-137.219 598.148,-126.725 603.173,-117.393"/>
<polygon fill="midnightblue" stroke="midnightblue" points="606.261,-119.041 607.92,-108.577 600.098,-115.722 606.261,-119.041"/>
</g>
<!-- Node12&#45;&gt;Node7 -->
<g id="edge22" class="edge"><title>Node12&#45;&gt;Node7</title>
<path fill="none" stroke="midnightblue" d="M560.796,-79.7162C513.51,-68.3586 449.018,-52.0445 424.5,-42 420.157,-40.2208 415.687,-38.0013 411.456,-35.6942"/>
<polygon fill="midnightblue" stroke="midnightblue" points="413.123,-32.6152 402.714,-30.6409 409.62,-38.6756 413.123,-32.6152"/>
</g>
<!-- Node13 -->
<g id="node13" class="node"><title>Node13</title>
<polygon fill="none" stroke="#bfbfbf" points="433.5,-11.5 433.5,-30.5 511.5,-30.5 511.5,-11.5 433.5,-11.5"/>
<text text-anchor="middle" x="472.5" y="-18.5" font-family="Helvetica,sans-Serif" font-size="10.00">boost/any.hpp</text>
</g>
<!-- Node12&#45;&gt;Node13 -->
<g id="edge20" class="edge"><title>Node12&#45;&gt;Node13</title>
<path fill="none" stroke="midnightblue" d="M586.906,-78.4027C561.29,-65.774 524.015,-47.3972 499.046,-35.0873"/>
<polygon fill="midnightblue" stroke="midnightblue" points="500.326,-31.8163 489.809,-30.5336 497.231,-38.0947 500.326,-31.8163"/>
</g>
<!-- Node14 -->
<g id="node14" class="node"><title>Node14</title>
<polygon fill="none" stroke="#bfbfbf" points="530,-11.5 530,-30.5 613,-30.5 613,-11.5 530,-11.5"/>
<text text-anchor="middle" x="571.5" y="-18.5" font-family="Helvetica,sans-Serif" font-size="10.00">unordered_map</text>
</g>
<!-- Node12&#45;&gt;Node14 -->
<g id="edge21" class="edge"><title>Node12&#45;&gt;Node14</title>
<path fill="none" stroke="midnightblue" d="M606.596,-78.2333C599.621,-67.058 589.886,-51.4589 582.437,-39.5243"/>
<polygon fill="midnightblue" stroke="midnightblue" points="585.314,-37.5234 577.05,-30.8932 579.376,-41.2296 585.314,-37.5234"/>
</g>
<!-- Node15 -->
<g id="node15" class="node"><title>Node15</title>
<polygon fill="none" stroke="#bfbfbf" points="631.5,-11.5 631.5,-30.5 685.5,-30.5 685.5,-11.5 631.5,-11.5"/>
<text text-anchor="middle" x="658.5" y="-18.5" font-family="Helvetica,sans-Serif" font-size="10.00">iostream</text>
</g>
<!-- Node12&#45;&gt;Node15 -->
<g id="edge23" class="edge"><title>Node12&#45;&gt;Node15</title>
<path fill="none" stroke="midnightblue" d="M624.202,-78.2333C631.018,-67.058 640.532,-51.4589 647.811,-39.5243"/>
<polygon fill="midnightblue" stroke="midnightblue" points="650.857,-41.253 653.076,-30.8932 644.881,-37.608 650.857,-41.253"/>
</g>
<!-- Node17 -->
<g id="node17" class="node"><title>Node17</title>
<polygon fill="none" stroke="#bfbfbf" points="704,-11.5 704,-30.5 753,-30.5 753,-11.5 704,-11.5"/>
<text text-anchor="middle" x="728.5" y="-18.5" font-family="Helvetica,sans-Serif" font-size="10.00">stdint.h</text>
</g>
<!-- Node16&#45;&gt;Node17 -->
<g id="edge25" class="edge"><title>Node16&#45;&gt;Node17</title>
<path fill="none" stroke="midnightblue" d="M856.735,-145.303C829.846,-119.448 773.081,-64.866 744.977,-37.8433"/>
<polygon fill="midnightblue" stroke="midnightblue" points="747.183,-35.1088 737.549,-30.7007 742.331,-40.1547 747.183,-35.1088"/>
</g>
<!-- Node18&#45;&gt;Node15 -->
<g id="edge68" class="edge"><title>Node18&#45;&gt;Node15</title>
<path fill="none" stroke="midnightblue" d="M1144.07,-212.19C1142.3,-181.853 1133.53,-111.146 1090.5,-78 1020.5,-24.0789 778.946,-68.0184 694.5,-42 689.551,-40.475 684.52,-38.2117 679.85,-35.7501"/>
<polygon fill="midnightblue" stroke="midnightblue" points="681.323,-32.5594 670.913,-30.5915 677.824,-38.622 681.323,-32.5594"/>
</g>
<!-- Node18&#45;&gt;Node19 -->
<g id="edge33" class="edge"><title>Node18&#45;&gt;Node19</title>
<path fill="none" stroke="midnightblue" d="M1121.5,-212.396C1106.5,-203.197 1086.71,-191.066 1070.23,-180.955"/>
<polygon fill="midnightblue" stroke="midnightblue" points="1071.81,-177.82 1061.46,-175.577 1068.15,-183.788 1071.81,-177.82"/>
</g>
<!-- Node21 -->
<g id="node21" class="node"><title>Node21</title>
<polygon fill="none" stroke="#bfbfbf" points="1257.5,-84 1257.5,-103 1317.5,-103 1317.5,-84 1257.5,-84"/>
<text text-anchor="middle" x="1287.5" y="-91" font-family="Helvetica,sans-Serif" font-size="10.00">sys/stat.h</text>
</g>
<!-- Node18&#45;&gt;Node21 -->
<g id="edge66" class="edge"><title>Node18&#45;&gt;Node21</title>
<path fill="none" stroke="midnightblue" d="M1159.8,-212.374C1186.82,-187.434 1242.76,-135.798 1270.76,-109.948"/>
<polygon fill="midnightblue" stroke="midnightblue" points="1273.21,-112.452 1278.19,-103.097 1268.46,-107.308 1273.21,-112.452"/>
</g>
<!-- Node22 -->
<g id="node22" class="node"><title>Node22</title>
<polygon fill="none" stroke="#bfbfbf" points="1335.5,-84 1335.5,-103 1379.5,-103 1379.5,-84 1335.5,-84"/>
<text text-anchor="middle" x="1357.5" y="-91" font-family="Helvetica,sans-Serif" font-size="10.00">fcntl.h</text>
</g>
<!-- Node18&#45;&gt;Node22 -->
<g id="edge67" class="edge"><title>Node18&#45;&gt;Node22</title>
<path fill="none" stroke="midnightblue" d="M1169.12,-212.389C1186.4,-202.401 1209.99,-188.595 1230.5,-176 1268.08,-152.922 1311.15,-124.957 1336.24,-108.509"/>
<polygon fill="midnightblue" stroke="midnightblue" points="1338.19,-111.415 1344.63,-103.001 1334.35,-105.564 1338.19,-111.415"/>
</g>
<!-- Node37 -->
<g id="node37" class="node"><title>Node37</title>
<g id="a_node37"><a xlink:href="CommunicationInterfaceROS_8h.html" target="_top" xlink:title="XCM/CommunicationInterface\lROS.h">
<polygon fill="none" stroke="black" points="2027,-145.5 2027,-175.5 2176,-175.5 2176,-145.5 2027,-145.5"/>
<text text-anchor="start" x="2035" y="-163.5" font-family="Helvetica,sans-Serif" font-size="10.00">XCM/CommunicationInterface</text>
<text text-anchor="middle" x="2101.5" y="-152.5" font-family="Helvetica,sans-Serif" font-size="10.00">ROS.h</text>
</a>
</g>
</g>
<!-- Node18&#45;&gt;Node37 -->
<g id="edge55" class="edge"><title>Node18&#45;&gt;Node37</title>
<path fill="none" stroke="midnightblue" d="M1213.33,-221.825C1384.6,-210.192 1829.64,-179.965 2016.71,-167.259"/>
<polygon fill="midnightblue" stroke="midnightblue" points="2017.03,-170.746 2026.77,-166.576 2016.55,-163.762 2017.03,-170.746"/>
</g>
<!-- Node19&#45;&gt;Node4 -->
<g id="edge34" class="edge"><title>Node19&#45;&gt;Node4</title>
<path fill="none" stroke="midnightblue" d="M985.996,-151.797C968.953,-149.437 949.944,-146.95 932.5,-145 748.949,-124.478 701.903,-130.803 518.5,-109 496.571,-106.393 471.943,-102.657 453.123,-99.6297"/>
<polygon fill="midnightblue" stroke="midnightblue" points="453.481,-96.142 443.049,-97.9881 452.355,-103.051 453.481,-96.142"/>
</g>
<!-- Node19&#45;&gt;Node7 -->
<g id="edge35" class="edge"><title>Node19&#45;&gt;Node7</title>
<path fill="none" stroke="midnightblue" d="M985.987,-151.875C968.944,-149.519 949.936,-147.015 932.5,-145 763.537,-125.47 710.719,-168.825 551.5,-109 529.446,-100.713 529.007,-89.5991 508.5,-78 473.146,-58.0028 460.859,-60.1055 424.5,-42 420.553,-40.0346 416.429,-37.8254 412.455,-35.6112"/>
<polygon fill="midnightblue" stroke="midnightblue" points="414.022,-32.4758 403.604,-30.5487 410.546,-38.552 414.022,-32.4758"/>
</g>
<!-- Node19&#45;&gt;Node15 -->
<g id="edge36" class="edge"><title>Node19&#45;&gt;Node15</title>
<path fill="none" stroke="midnightblue" d="M988.453,-145.461C920.534,-125.725 796.005,-87.1009 694.5,-42 690.194,-40.0867 685.719,-37.8329 681.447,-35.5409"/>
<polygon fill="midnightblue" stroke="midnightblue" points="683.003,-32.4009 672.566,-30.5793 679.589,-38.5119 683.003,-32.4009"/>
</g>
<!-- Node20 -->
<g id="node20" class="node"><title>Node20</title>
<polygon fill="none" stroke="#bfbfbf" points="1013.5,-84 1013.5,-103 1081.5,-103 1081.5,-84 1013.5,-84"/>
<text text-anchor="middle" x="1047.5" y="-91" font-family="Helvetica,sans-Serif" font-size="10.00">sys/types.h</text>
</g>
<!-- Node19&#45;&gt;Node20 -->
<g id="edge37" class="edge"><title>Node19&#45;&gt;Node20</title>
<path fill="none" stroke="midnightblue" d="M1040.45,-145.396C1041.76,-135.963 1043.49,-123.448 1044.91,-113.189"/>
<polygon fill="midnightblue" stroke="midnightblue" points="1048.39,-113.58 1046.3,-103.195 1041.46,-112.62 1048.39,-113.58"/>
</g>
<!-- Node19&#45;&gt;Node21 -->
<g id="edge38" class="edge"><title>Node19&#45;&gt;Node21</title>
<path fill="none" stroke="midnightblue" d="M1091.18,-148.669C1133.94,-139.439 1195.6,-125.132 1248.5,-109 1251.07,-108.217 1253.71,-107.356 1256.35,-106.456"/>
<polygon fill="midnightblue" stroke="midnightblue" points="1257.55,-109.747 1265.79,-103.095 1255.2,-103.152 1257.55,-109.747"/>
</g>
<!-- Node19&#45;&gt;Node22 -->
<g id="edge39" class="edge"><title>Node19&#45;&gt;Node22</title>
<path fill="none" stroke="midnightblue" d="M1091.26,-154.474C1149.78,-147.933 1246.5,-134.234 1326.5,-109 1328.37,-108.41 1330.27,-107.731 1332.17,-106.997"/>
<polygon fill="midnightblue" stroke="midnightblue" points="1333.62,-110.183 1341.41,-103.006 1330.85,-103.756 1333.62,-110.183"/>
</g>
<!-- Node23 -->
<g id="node23" class="node"><title>Node23</title>
<polygon fill="none" stroke="#bfbfbf" points="944,-84 944,-103 995,-103 995,-84 944,-84"/>
<text text-anchor="middle" x="969.5" y="-91" font-family="Helvetica,sans-Serif" font-size="10.00">unistd.h</text>
</g>
<!-- Node19&#45;&gt;Node23 -->
<g id="edge40" class="edge"><title>Node19&#45;&gt;Node23</title>
<path fill="none" stroke="midnightblue" d="M1023.53,-145.396C1012.56,-135.06 997.656,-121.024 986.282,-110.309"/>
<polygon fill="midnightblue" stroke="midnightblue" points="988.408,-107.504 978.73,-103.195 983.609,-112.599 988.408,-107.504"/>
</g>
<!-- Node24 -->
<g id="node24" class="node"><title>Node24</title>
<g id="a_node24"><a xlink:href="XBotUtils_8h.html" target="_top" xlink:title="XCM/XBotUtils.h">
<polygon fill="none" stroke="black" points="1147.5,-84 1147.5,-103 1239.5,-103 1239.5,-84 1147.5,-84"/>
<text text-anchor="middle" x="1193.5" y="-91" font-family="Helvetica,sans-Serif" font-size="10.00">XCM/XBotUtils.h</text>
</a>
</g>
</g>
<!-- Node19&#45;&gt;Node24 -->
<g id="edge41" class="edge"><title>Node19&#45;&gt;Node24</title>
<path fill="none" stroke="midnightblue" d="M1072.13,-145.396C1099.45,-133.941 1137.61,-117.938 1163.81,-106.952"/>
<polygon fill="midnightblue" stroke="midnightblue" points="1165.35,-110.102 1173.21,-103.007 1162.64,-103.647 1165.35,-110.102"/>
</g>
<!-- Node24&#45;&gt;Node17 -->
<g id="edge42" class="edge"><title>Node24&#45;&gt;Node17</title>
<path fill="none" stroke="midnightblue" d="M1161.91,-83.9851C1152.8,-81.7684 1142.8,-79.5657 1133.5,-78 969.7,-50.4223 919.138,-94.3568 761.5,-42 757.016,-40.5107 752.498,-38.3238 748.304,-35.9369"/>
<polygon fill="midnightblue" stroke="midnightblue" points="750.114,-32.9401 739.784,-30.5851 746.39,-38.8679 750.114,-32.9401"/>
</g>
<!-- Node25 -->
<g id="node25" class="node"><title>Node25</title>
<polygon fill="none" stroke="#bfbfbf" points="1522.5,-11.5 1522.5,-30.5 1568.5,-30.5 1568.5,-11.5 1522.5,-11.5"/>
<text text-anchor="middle" x="1545.5" y="-18.5" font-family="Helvetica,sans-Serif" font-size="10.00">stdio.h</text>
</g>
<!-- Node24&#45;&gt;Node25 -->
<g id="edge43" class="edge"><title>Node24&#45;&gt;Node25</title>
<path fill="none" stroke="midnightblue" d="M1223.32,-83.9265C1231.44,-81.7867 1240.27,-79.6379 1248.5,-78 1365.07,-54.8061 1401.72,-82.4004 1513.5,-42 1517.66,-40.4969 1521.85,-38.396 1525.77,-36.117"/>
<polygon fill="midnightblue" stroke="midnightblue" points="1527.73,-39.0154 1534.26,-30.6738 1523.95,-33.1212 1527.73,-39.0154"/>
</g>
<!-- Node26 -->
<g id="node26" class="node"><title>Node26</title>
<polygon fill="none" stroke="#bfbfbf" points="1586.5,-11.5 1586.5,-30.5 1636.5,-30.5 1636.5,-11.5 1586.5,-11.5"/>
<text text-anchor="middle" x="1611.5" y="-18.5" font-family="Helvetica,sans-Serif" font-size="10.00">fstream</text>
</g>
<!-- Node24&#45;&gt;Node26 -->
<g id="edge44" class="edge"><title>Node24&#45;&gt;Node26</title>
<path fill="none" stroke="midnightblue" d="M1222.72,-83.934C1231,-81.7431 1240.05,-79.5666 1248.5,-78 1393.13,-51.1766 1437.89,-88.3209 1577.5,-42 1582.08,-40.479 1586.72,-38.2779 1591.04,-35.887"/>
<polygon fill="midnightblue" stroke="midnightblue" points="1593.1,-38.7292 1599.82,-30.54 1589.46,-32.7498 1593.1,-38.7292"/>
</g>
<!-- Node27 -->
<g id="node27" class="node"><title>Node27</title>
<polygon fill="none" stroke="#bfbfbf" points="1654.5,-11.5 1654.5,-30.5 1706.5,-30.5 1706.5,-11.5 1654.5,-11.5"/>
<text text-anchor="middle" x="1680.5" y="-18.5" font-family="Helvetica,sans-Serif" font-size="10.00">sstream</text>
</g>
<!-- Node24&#45;&gt;Node27 -->
<g id="edge45" class="edge"><title>Node24&#45;&gt;Node27</title>
<path fill="none" stroke="midnightblue" d="M1222.13,-83.9826C1230.56,-81.7388 1239.84,-79.5224 1248.5,-78 1422.99,-47.3102 1476.5,-95.1669 1645.5,-42 1650.34,-40.4787 1655.24,-38.217 1659.78,-35.7557"/>
<polygon fill="midnightblue" stroke="midnightblue" points="1661.66,-38.7129 1668.46,-30.5966 1658.08,-32.6947 1661.66,-38.7129"/>
</g>
<!-- Node28 -->
<g id="node28" class="node"><title>Node28</title>
<polygon fill="none" stroke="#bfbfbf" points="1724.5,-11.5 1724.5,-30.5 1848.5,-30.5 1848.5,-11.5 1724.5,-11.5"/>
<text text-anchor="middle" x="1786.5" y="-18.5" font-family="Helvetica,sans-Serif" font-size="10.00">boost/circular_buffer.hpp</text>
</g>
<!-- Node24&#45;&gt;Node28 -->
<g id="edge46" class="edge"><title>Node24&#45;&gt;Node28</title>
<path fill="none" stroke="midnightblue" d="M1221.83,-83.9837C1230.34,-81.712 1239.74,-79.4804 1248.5,-78 1453.76,-43.3242 1510.54,-78.3992 1715.5,-42 1727.18,-39.9256 1739.71,-36.7335 1750.93,-33.5042"/>
<polygon fill="midnightblue" stroke="midnightblue" points="1752.23,-36.7687 1760.82,-30.5591 1750.24,-30.0601 1752.23,-36.7687"/>
</g>
<!-- Node29 -->
<g id="node29" class="node"><title>Node29</title>
<polygon fill="none" stroke="#bfbfbf" points="1866.5,-6 1866.5,-36 1968.5,-36 1968.5,-6 1866.5,-6"/>
<text text-anchor="start" x="1874.5" y="-24" font-family="Helvetica,sans-Serif" font-size="10.00">boost/accumulators</text>
<text text-anchor="middle" x="1917.5" y="-13" font-family="Helvetica,sans-Serif" font-size="10.00">/accumulators.hpp</text>
</g>
<!-- Node24&#45;&gt;Node29 -->
<g id="edge47" class="edge"><title>Node24&#45;&gt;Node29</title>
<path fill="none" stroke="midnightblue" d="M1221.53,-83.9606C1230.11,-81.6595 1239.63,-79.4175 1248.5,-78 1516.24,-35.2288 1591.26,-93.3129 1857.5,-42 1861.86,-41.1591 1866.35,-40.0842 1870.8,-38.8704"/>
<polygon fill="midnightblue" stroke="midnightblue" points="1871.85,-42.2098 1880.46,-36.0281 1869.88,-35.4947 1871.85,-42.2098"/>
</g>
<!-- Node30 -->
<g id="node30" class="node"><title>Node30</title>
<polygon fill="none" stroke="#bfbfbf" points="1987,-6 1987,-36 2092,-36 2092,-6 1987,-6"/>
<text text-anchor="start" x="1995" y="-24" font-family="Helvetica,sans-Serif" font-size="10.00">boost/accumulators</text>
<text text-anchor="middle" x="2039.5" y="-13" font-family="Helvetica,sans-Serif" font-size="10.00">/statistics/count.hpp</text>
</g>
<!-- Node24&#45;&gt;Node30 -->
<g id="edge48" class="edge"><title>Node24&#45;&gt;Node30</title>
<path fill="none" stroke="midnightblue" d="M1221.24,-83.9829C1229.89,-81.6531 1239.52,-79.3896 1248.5,-78 1569.08,-28.3825 1658.39,-100.297 1977.5,-42 1982,-41.1775 1986.63,-40.1152 1991.23,-38.9095"/>
<polygon fill="midnightblue" stroke="midnightblue" points="1992.54,-42.1763 2001.21,-36.0785 1990.63,-35.4424 1992.54,-42.1763"/>
</g>
<!-- Node31 -->
<g id="node31" class="node"><title>Node31</title>
<polygon fill="none" stroke="#bfbfbf" points="771,-6 771,-36 876,-36 876,-6 771,-6"/>
<text text-anchor="start" x="779" y="-24" font-family="Helvetica,sans-Serif" font-size="10.00">boost/accumulators</text>
<text text-anchor="middle" x="823.5" y="-13" font-family="Helvetica,sans-Serif" font-size="10.00">/statistics/mean.hpp</text>
</g>
<!-- Node24&#45;&gt;Node31 -->
<g id="edge49" class="edge"><title>Node24&#45;&gt;Node31</title>
<path fill="none" stroke="midnightblue" d="M1160.61,-83.9689C1151.84,-81.8532 1142.34,-79.7057 1133.5,-78 1024.14,-56.8957 993.993,-67.1853 885.5,-42 881.472,-41.0649 877.33,-39.989 873.188,-38.8315"/>
<polygon fill="midnightblue" stroke="midnightblue" points="874.161,-35.4694 863.58,-36.0105 872.189,-42.1859 874.161,-35.4694"/>
</g>
<!-- Node32 -->
<g id="node32" class="node"><title>Node32</title>
<polygon fill="none" stroke="#bfbfbf" points="894.5,-6 894.5,-36 996.5,-36 996.5,-6 894.5,-6"/>
<text text-anchor="start" x="902.5" y="-24" font-family="Helvetica,sans-Serif" font-size="10.00">boost/accumulators</text>
<text text-anchor="middle" x="945.5" y="-13" font-family="Helvetica,sans-Serif" font-size="10.00">/statistics/min.hpp</text>
</g>
<!-- Node24&#45;&gt;Node32 -->
<g id="edge50" class="edge"><title>Node24&#45;&gt;Node32</title>
<path fill="none" stroke="midnightblue" d="M1159.37,-83.9801C1121.56,-74.3943 1058.9,-58.0571 1005.5,-42 1002.55,-41.1117 999.518,-40.1776 996.467,-39.2183"/>
<polygon fill="midnightblue" stroke="midnightblue" points="997.302,-35.8107 986.711,-36.0944 995.167,-42.4773 997.302,-35.8107"/>
</g>
<!-- Node33 -->
<g id="node33" class="node"><title>Node33</title>
<polygon fill="none" stroke="#bfbfbf" points="1014.5,-6 1014.5,-36 1116.5,-36 1116.5,-6 1014.5,-6"/>
<text text-anchor="start" x="1022.5" y="-24" font-family="Helvetica,sans-Serif" font-size="10.00">boost/accumulators</text>
<text text-anchor="middle" x="1065.5" y="-13" font-family="Helvetica,sans-Serif" font-size="10.00">/statistics/max.hpp</text>
</g>
<!-- Node24&#45;&gt;Node33 -->
<g id="edge51" class="edge"><title>Node24&#45;&gt;Node33</title>
<path fill="none" stroke="midnightblue" d="M1178.06,-83.9961C1158.87,-73.4281 1125.56,-55.0797 1100.14,-41.0777"/>
<polygon fill="midnightblue" stroke="midnightblue" points="1101.62,-37.897 1091.17,-36.1383 1098.24,-44.0285 1101.62,-37.897"/>
</g>
<!-- Node34 -->
<g id="node34" class="node"><title>Node34</title>
<polygon fill="none" stroke="#bfbfbf" points="1134.5,-6 1134.5,-36 1252.5,-36 1252.5,-6 1134.5,-6"/>
<text text-anchor="start" x="1142.5" y="-24" font-family="Helvetica,sans-Serif" font-size="10.00">boost/accumulators</text>
<text text-anchor="middle" x="1193.5" y="-13" font-family="Helvetica,sans-Serif" font-size="10.00">/statistics/variance.hpp</text>
</g>
<!-- Node24&#45;&gt;Node34 -->
<g id="edge52" class="edge"><title>Node24&#45;&gt;Node34</title>
<path fill="none" stroke="midnightblue" d="M1193.5,-83.8553C1193.5,-74.5483 1193.5,-59.3253 1193.5,-46.3107"/>
<polygon fill="midnightblue" stroke="midnightblue" points="1197,-46.0761 1193.5,-36.0762 1190,-46.0762 1197,-46.0761"/>
</g>
<!-- Node35 -->
<g id="node35" class="node"><title>Node35</title>
<polygon fill="none" stroke="#bfbfbf" points="1270.5,-6 1270.5,-36 1384.5,-36 1384.5,-6 1270.5,-6"/>
<text text-anchor="start" x="1278.5" y="-24" font-family="Helvetica,sans-Serif" font-size="10.00">boost/accumulators</text>
<text text-anchor="middle" x="1327.5" y="-13" font-family="Helvetica,sans-Serif" font-size="10.00">/statistics/error_of.hpp</text>
</g>
<!-- Node24&#45;&gt;Node35 -->
<g id="edge53" class="edge"><title>Node24&#45;&gt;Node35</title>
<path fill="none" stroke="midnightblue" d="M1209.66,-83.9961C1229.9,-73.349 1265.15,-54.8045 1291.84,-40.764"/>
<polygon fill="midnightblue" stroke="midnightblue" points="1293.66,-43.7595 1300.88,-36.0059 1290.4,-37.5646 1293.66,-43.7595"/>
</g>
<!-- Node36 -->
<g id="node36" class="node"><title>Node36</title>
<polygon fill="none" stroke="#bfbfbf" points="1402.5,-0.5 1402.5,-41.5 1504.5,-41.5 1504.5,-0.5 1402.5,-0.5"/>
<text text-anchor="start" x="1410.5" y="-29.5" font-family="Helvetica,sans-Serif" font-size="10.00">boost/accumulators</text>
<text text-anchor="start" x="1410.5" y="-18.5" font-family="Helvetica,sans-Serif" font-size="10.00">/statistics/error_of</text>
<text text-anchor="middle" x="1453.5" y="-7.5" font-family="Helvetica,sans-Serif" font-size="10.00">_mean.hpp</text>
</g>
<!-- Node24&#45;&gt;Node36 -->
<g id="edge54" class="edge"><title>Node24&#45;&gt;Node36</title>
<path fill="none" stroke="midnightblue" d="M1225.47,-83.988C1233.02,-82.0019 1241.04,-79.9098 1248.5,-78 1309.81,-62.3077 1328.04,-60.6429 1392.36,-42.2362"/>
<polygon fill="midnightblue" stroke="midnightblue" points="1393.56,-45.5331 1402.2,-39.3953 1391.62,-38.808 1393.56,-45.5331"/>
</g>
<!-- Node38 -->
<g id="node38" class="node"><title>Node38</title>
<g id="a_node38"><a xlink:href="XBotCommunicationInterface_8h.html" target="_top" xlink:title="XCM/XBotCommunicationInterface.h">
<polygon fill="none" stroke="black" points="1945,-84 1945,-103 2124,-103 2124,-84 1945,-84"/>
<text text-anchor="middle" x="2034.5" y="-91" font-family="Helvetica,sans-Serif" font-size="10.00">XCM/XBotCommunicationInterface.h</text>
</a>
</g>
</g>
<!-- Node37&#45;&gt;Node38 -->
<g id="edge56" class="edge"><title>Node37&#45;&gt;Node38</title>
<path fill="none" stroke="midnightblue" d="M2086.96,-145.396C2076.31,-135.06 2061.84,-121.024 2050.8,-110.309"/>
<polygon fill="midnightblue" stroke="midnightblue" points="2053.08,-107.646 2043.46,-103.195 2048.2,-112.67 2053.08,-107.646"/>
</g>
<!-- Node40 -->
<g id="node40" class="node"><title>Node40</title>
<polygon fill="none" stroke="#bfbfbf" points="2142,-84 2142,-103 2197,-103 2197,-84 2142,-84"/>
<text text-anchor="middle" x="2169.5" y="-91" font-family="Helvetica,sans-Serif" font-size="10.00">ros/ros.h</text>
</g>
<!-- Node37&#45;&gt;Node40 -->
<g id="edge58" class="edge"><title>Node37&#45;&gt;Node40</title>
<path fill="none" stroke="midnightblue" d="M2116.25,-145.396C2127.07,-135.06 2141.75,-121.024 2152.96,-110.309"/>
<polygon fill="midnightblue" stroke="midnightblue" points="2155.59,-112.634 2160.4,-103.195 2150.76,-107.574 2155.59,-112.634"/>
</g>
<!-- Node41 -->
<g id="node41" class="node"><title>Node41</title>
<polygon fill="none" stroke="#bfbfbf" points="2215.5,-84 2215.5,-103 2315.5,-103 2315.5,-84 2215.5,-84"/>
<text text-anchor="middle" x="2265.5" y="-91" font-family="Helvetica,sans-Serif" font-size="10.00">std_srvs/SetBool.h</text>
</g>
<!-- Node37&#45;&gt;Node41 -->
<g id="edge59" class="edge"><title>Node37&#45;&gt;Node41</title>
<path fill="none" stroke="midnightblue" d="M2137.09,-145.396C2166.12,-133.89 2206.72,-117.797 2234.45,-106.807"/>
<polygon fill="midnightblue" stroke="midnightblue" points="2236.03,-109.945 2244.04,-103.007 2233.45,-103.438 2236.03,-109.945"/>
</g>
<!-- Node42 -->
<g id="node42" class="node"><title>Node42</title>
<polygon fill="none" stroke="#bfbfbf" points="2333.5,-84 2333.5,-103 2413.5,-103 2413.5,-84 2333.5,-84"/>
<text text-anchor="middle" x="2373.5" y="-91" font-family="Helvetica,sans-Serif" font-size="10.00">boost/bind.hpp</text>
</g>
<!-- Node37&#45;&gt;Node42 -->
<g id="edge60" class="edge"><title>Node37&#45;&gt;Node42</title>
<path fill="none" stroke="midnightblue" d="M2168.62,-145.492C2213.03,-135.931 2272.45,-122.578 2324.5,-109 2328.3,-108.008 2332.26,-106.925 2336.19,-105.812"/>
<polygon fill="midnightblue" stroke="midnightblue" points="2337.22,-109.158 2345.86,-103.021 2335.28,-102.433 2337.22,-109.158"/>
</g>
<!-- Node43 -->
<g id="node43" class="node"><title>Node43</title>
<polygon fill="none" stroke="#bfbfbf" points="2431.5,-78.5 2431.5,-108.5 2571.5,-108.5 2571.5,-78.5 2431.5,-78.5"/>
<text text-anchor="start" x="2439.5" y="-96.5" font-family="Helvetica,sans-Serif" font-size="10.00">RobotInterfaceROS/Generic</text>
<text text-anchor="middle" x="2501.5" y="-85.5" font-family="Helvetica,sans-Serif" font-size="10.00">ControlMessage.h</text>
</g>
<!-- Node37&#45;&gt;Node43 -->
<g id="edge61" class="edge"><title>Node37&#45;&gt;Node43</title>
<path fill="none" stroke="midnightblue" d="M2176.18,-148.302C2238.94,-138.765 2331.28,-124.438 2421.2,-109.197"/>
<polygon fill="midnightblue" stroke="midnightblue" points="2422.03,-112.607 2431.31,-107.48 2420.86,-105.706 2422.03,-112.607"/>
</g>
<!-- Node44 -->
<g id="node44" class="node"><title>Node44</title>
<polygon fill="none" stroke="#bfbfbf" points="2589.5,-78.5 2589.5,-108.5 2729.5,-108.5 2729.5,-78.5 2589.5,-78.5"/>
<text text-anchor="start" x="2597.5" y="-96.5" font-family="Helvetica,sans-Serif" font-size="10.00">RobotInterfaceROS/Generic</text>
<text text-anchor="middle" x="2659.5" y="-85.5" font-family="Helvetica,sans-Serif" font-size="10.00">JointStateMessage.h</text>
</g>
<!-- Node37&#45;&gt;Node44 -->
<g id="edge62" class="edge"><title>Node37&#45;&gt;Node44</title>
<path fill="none" stroke="midnightblue" d="M2176.39,-153.39C2268.73,-145.456 2430.67,-130.241 2579.12,-109.131"/>
<polygon fill="midnightblue" stroke="midnightblue" points="2579.93,-112.551 2589.33,-107.666 2578.94,-105.621 2579.93,-112.551"/>
</g>
<!-- Node45 -->
<g id="node45" class="node"><title>Node45</title>
<polygon fill="none" stroke="#bfbfbf" points="1549,-78.5 1549,-108.5 1670,-108.5 1670,-78.5 1549,-78.5"/>
<text text-anchor="start" x="1557" y="-96.5" font-family="Helvetica,sans-Serif" font-size="10.00">robot_state_publisher</text>
<text text-anchor="middle" x="1609.5" y="-85.5" font-family="Helvetica,sans-Serif" font-size="10.00">/robot_state_publisher.h</text>
</g>
<!-- Node37&#45;&gt;Node45 -->
<g id="edge63" class="edge"><title>Node37&#45;&gt;Node45</title>
<path fill="none" stroke="midnightblue" d="M2026.91,-152.512C1944.51,-144.356 1807.73,-129.524 1680.1,-109.007"/>
<polygon fill="midnightblue" stroke="midnightblue" points="1680.58,-105.539 1670.15,-107.392 1679.46,-112.448 1680.58,-105.539"/>
</g>
<!-- Node46 -->
<g id="node46" class="node"><title>Node46</title>
<polygon fill="none" stroke="#bfbfbf" points="1688.5,-84 1688.5,-103 1794.5,-103 1794.5,-84 1688.5,-84"/>
<text text-anchor="middle" x="1741.5" y="-91" font-family="Helvetica,sans-Serif" font-size="10.00">XCM/cmd_service.h</text>
</g>
<!-- Node37&#45;&gt;Node46 -->
<g id="edge64" class="edge"><title>Node37&#45;&gt;Node46</title>
<path fill="none" stroke="midnightblue" d="M2026.87,-148.165C1966.45,-138.673 1879.25,-124.26 1803.5,-109 1797.81,-107.853 1791.84,-106.566 1785.95,-105.245"/>
<polygon fill="midnightblue" stroke="midnightblue" points="1786.7,-101.828 1776.18,-103.009 1785.14,-108.651 1786.7,-101.828"/>
</g>
<!-- Node47 -->
<g id="node47" class="node"><title>Node47</title>
<polygon fill="none" stroke="#bfbfbf" points="1812.5,-84 1812.5,-103 1926.5,-103 1926.5,-84 1812.5,-84"/>
<text text-anchor="middle" x="1869.5" y="-91" font-family="Helvetica,sans-Serif" font-size="10.00">XCM/status_service.h</text>
</g>
<!-- Node37&#45;&gt;Node47 -->
<g id="edge65" class="edge"><title>Node37&#45;&gt;Node47</title>
<path fill="none" stroke="midnightblue" d="M2051.45,-145.476C2009.05,-133.597 1949.05,-116.787 1909.72,-105.768"/>
<polygon fill="midnightblue" stroke="midnightblue" points="1910.51,-102.356 1899.94,-103.029 1908.63,-109.097 1910.51,-102.356"/>
</g>
<!-- Node39 -->
<g id="node39" class="node"><title>Node39</title>
<polygon fill="none" stroke="#bfbfbf" points="2110.5,-11.5 2110.5,-30.5 2262.5,-30.5 2262.5,-11.5 2110.5,-11.5"/>
<text text-anchor="middle" x="2186.5" y="-18.5" font-family="Helvetica,sans-Serif" font-size="10.00">XBotInterface/RobotInterface.h</text>
</g>
<!-- Node38&#45;&gt;Node39 -->
<g id="edge57" class="edge"><title>Node38&#45;&gt;Node39</title>
<path fill="none" stroke="midnightblue" d="M2052.83,-83.9961C2079.2,-71.7689 2128.01,-49.1264 2158.79,-34.8511"/>
<polygon fill="midnightblue" stroke="midnightblue" points="2160.5,-37.9169 2168.1,-30.5341 2157.56,-31.5667 2160.5,-37.9169"/>
</g>
</g>
</svg>
