<?xml version="1.0" encoding="UTF-8" standalone="no"?>
<!DOCTYPE svg PUBLIC "-//W3C//DTD SVG 1.1//EN"
 "http://www.w3.org/Graphics/SVG/1.1/DTD/svg11.dtd">
<!-- Generated by graphviz version 2.38.0 (20140413.2041)
 -->
<!-- Title: XBot::SubscriberNRT&lt; DataType &gt; Pages: 1 -->
<svg width="160pt" height="449pt"
 viewBox="0.00 0.00 160.00 449.00" xmlns="http://www.w3.org/2000/svg" xmlns:xlink="http://www.w3.org/1999/xlink">
<g id="graph0" class="graph" transform="scale(1 1) rotate(0) translate(4 445)">
<title>XBot::SubscriberNRT&lt; DataType &gt;</title>
<!-- Node1 -->
<g id="node1" class="node"><title>Node1</title>
<polygon fill="#bfbfbf" stroke="black" points="20,-0.5 20,-101.5 132,-101.5 132,-0.5 20,-0.5"/>
<text text-anchor="start" x="28" y="-89.5" font-family="Helvetica,sans-Serif" font-size="10.00">XBot::SubscriberNRT</text>
<text text-anchor="middle" x="76" y="-78.5" font-family="Helvetica,sans-Serif" font-size="10.00">&lt; DataType &gt;</text>
<polyline fill="none" stroke="black" points="20,-71.5 132,-71.5 "/>
<text text-anchor="middle" x="76" y="-59.5" font-family="Helvetica,sans-Serif" font-size="10.00"> </text>
<polyline fill="none" stroke="black" points="20,-52.5 132,-52.5 "/>
<text text-anchor="start" x="28" y="-40.5" font-family="Helvetica,sans-Serif" font-size="10.00">+ SubscriberNRT()</text>
<text text-anchor="start" x="28" y="-29.5" font-family="Helvetica,sans-Serif" font-size="10.00">+ SubscriberNRT()</text>
<text text-anchor="start" x="28" y="-18.5" font-family="Helvetica,sans-Serif" font-size="10.00">+ init()</text>
<text text-anchor="start" x="28" y="-7.5" font-family="Helvetica,sans-Serif" font-size="10.00">+ read()</text>
</g>
<!-- Node2 -->
<g id="node2" class="node"><title>Node2</title>
<g id="a_node2"><a xlink:href="classXBot_1_1Subscriber.html" target="_top" xlink:title="{XBot::Subscriber\&lt; DataType \&gt;\n||+ Subscriber()\l+ Subscriber()\l+ init()\l+ read()\l}">
<polygon fill="none" stroke="black" points="0,-139.5 0,-229.5 152,-229.5 152,-139.5 0,-139.5"/>
<text text-anchor="middle" x="76" y="-217.5" font-family="Helvetica,sans-Serif" font-size="10.00">XBot::Subscriber&lt; DataType &gt;</text>
<polyline fill="none" stroke="black" points="0,-210.5 152,-210.5 "/>
<text text-anchor="middle" x="76" y="-198.5" font-family="Helvetica,sans-Serif" font-size="10.00"> </text>
<polyline fill="none" stroke="black" points="0,-191.5 152,-191.5 "/>
<text text-anchor="start" x="8" y="-179.5" font-family="Helvetica,sans-Serif" font-size="10.00">+ Subscriber()</text>
<text text-anchor="start" x="8" y="-168.5" font-family="Helvetica,sans-Serif" font-size="10.00">+ Subscriber()</text>
<text text-anchor="start" x="8" y="-157.5" font-family="Helvetica,sans-Serif" font-size="10.00">+ init()</text>
<text text-anchor="start" x="8" y="-146.5" font-family="Helvetica,sans-Serif" font-size="10.00">+ read()</text>
</a>
</g>
</g>
<!-- Node2&#45;&gt;Node1 -->
<g id="edge1" class="edge"><title>Node2&#45;&gt;Node1</title>
<path fill="none" stroke="midnightblue" d="M76,-129.224C76,-120.11 76,-110.693 76,-101.701"/>
<polygon fill="none" stroke="midnightblue" points="72.5001,-129.347 76,-139.347 79.5001,-129.347 72.5001,-129.347"/>
</g>
<!-- Node3 -->
<g id="node3" class="node"><title>Node3</title>
<g id="a_node3"><a xlink:title="STL class. ">
<polygon fill="none" stroke="#bfbfbf" points="46,-277.5 46,-334.5 106,-334.5 106,-277.5 46,-277.5"/>
<text text-anchor="middle" x="76" y="-322.5" font-family="Helvetica,sans-Serif" font-size="10.00">std::string</text>
<polyline fill="none" stroke="#bfbfbf" points="46,-315.5 106,-315.5 "/>
<text text-anchor="middle" x="76" y="-303.5" font-family="Helvetica,sans-Serif" font-size="10.00"> </text>
<polyline fill="none" stroke="#bfbfbf" points="46,-296.5 106,-296.5 "/>
<text text-anchor="middle" x="76" y="-284.5" font-family="Helvetica,sans-Serif" font-size="10.00"> </text>
</a>
</g>
</g>
<!-- Node3&#45;&gt;Node2 -->
<g id="edge2" class="edge"><title>Node3&#45;&gt;Node2</title>
<path fill="none" stroke="#404040" d="M76,-277.284C76,-266.735 76,-254.294 76,-242.035"/>
<polygon fill="none" stroke="#404040" points="76.0001,-241.912 72,-235.912 76,-229.912 80,-235.912 76.0001,-241.912"/>
<text text-anchor="middle" x="95" y="-251" font-family="Helvetica,sans-Serif" font-size="10.00"> #_name</text>
</g>
<!-- Node4 -->
<g id="node4" class="node"><title>Node4</title>
<g id="a_node4"><a xlink:title="STL class. ">
<polygon fill="none" stroke="#bfbfbf" points="28.5,-372.5 28.5,-440.5 123.5,-440.5 123.5,-372.5 28.5,-372.5"/>
<text text-anchor="start" x="36.5" y="-428.5" font-family="Helvetica,sans-Serif" font-size="10.00">std::basic_string&lt;</text>
<text text-anchor="middle" x="76" y="-417.5" font-family="Helvetica,sans-Serif" font-size="10.00"> char &gt;</text>
<polyline fill="none" stroke="#bfbfbf" points="28.5,-410.5 123.5,-410.5 "/>
<text text-anchor="middle" x="76" y="-398.5" font-family="Helvetica,sans-Serif" font-size="10.00"> </text>
<polyline fill="none" stroke="#bfbfbf" points="28.5,-391.5 123.5,-391.5 "/>
<text text-anchor="middle" x="76" y="-379.5" font-family="Helvetica,sans-Serif" font-size="10.00"> </text>
</a>
</g>
</g>
<!-- Node4&#45;&gt;Node3 -->
<g id="edge3" class="edge"><title>Node4&#45;&gt;Node3</title>
<path fill="none" stroke="midnightblue" d="M76,-362.375C76,-352.94 76,-343.201 76,-334.571"/>
<polygon fill="none" stroke="midnightblue" points="72.5001,-362.427 76,-372.427 79.5001,-362.427 72.5001,-362.427"/>
</g>
</g>
</svg>
