<?xml version="1.0" encoding="UTF-8" standalone="no"?>
<!DOCTYPE svg PUBLIC "-//W3C//DTD SVG 1.1//EN"
 "http://www.w3.org/Graphics/SVG/1.1/DTD/svg11.dtd">
<!-- Generated by graphviz version 2.38.0 (20140413.2041)
 -->
<!-- Title: Thread_hook Pages: 1 -->
<svg width="276pt" height="347pt"
 viewBox="0.00 0.00 276.00 347.00" xmlns="http://www.w3.org/2000/svg" xmlns:xlink="http://www.w3.org/1999/xlink">
<g id="graph0" class="graph" transform="scale(1 1) rotate(0) translate(4 343)">
<title>Thread_hook</title>
<!-- Node1 -->
<g id="node1" class="node"><title>Node1</title>
<polygon fill="#bfbfbf" stroke="black" points="94.5,-127.5 94.5,-338.5 193.5,-338.5 193.5,-127.5 94.5,-127.5"/>
<text text-anchor="middle" x="144" y="-326.5" font-family="Helvetica,sans-Serif" font-size="10.00">Thread_hook</text>
<polyline fill="none" stroke="black" points="94.5,-319.5 193.5,-319.5 "/>
<text text-anchor="start" x="102.5" y="-307.5" font-family="Helvetica,sans-Serif" font-size="10.00"># _run_loop</text>
<text text-anchor="start" x="102.5" y="-296.5" font-family="Helvetica,sans-Serif" font-size="10.00"># name</text>
<text text-anchor="start" x="102.5" y="-285.5" font-family="Helvetica,sans-Serif" font-size="10.00"># period</text>
<text text-anchor="start" x="102.5" y="-274.5" font-family="Helvetica,sans-Serif" font-size="10.00"># thread_id</text>
<text text-anchor="start" x="102.5" y="-263.5" font-family="Helvetica,sans-Serif" font-size="10.00"># schedpolicy</text>
<text text-anchor="start" x="102.5" y="-252.5" font-family="Helvetica,sans-Serif" font-size="10.00"># priority</text>
<text text-anchor="start" x="102.5" y="-241.5" font-family="Helvetica,sans-Serif" font-size="10.00"># stacksize</text>
<polyline fill="none" stroke="black" points="94.5,-234.5 193.5,-234.5 "/>
<text text-anchor="start" x="102.5" y="-222.5" font-family="Helvetica,sans-Serif" font-size="10.00">+ ~Thread_hook()</text>
<text text-anchor="start" x="102.5" y="-211.5" font-family="Helvetica,sans-Serif" font-size="10.00">+ create()</text>
<text text-anchor="start" x="102.5" y="-200.5" font-family="Helvetica,sans-Serif" font-size="10.00">+ stop()</text>
<text text-anchor="start" x="102.5" y="-189.5" font-family="Helvetica,sans-Serif" font-size="10.00">+ join()</text>
<text text-anchor="start" x="102.5" y="-178.5" font-family="Helvetica,sans-Serif" font-size="10.00">+ is_non_periodic()</text>
<text text-anchor="start" x="102.5" y="-167.5" font-family="Helvetica,sans-Serif" font-size="10.00">+ th_init()</text>
<text text-anchor="start" x="102.5" y="-156.5" font-family="Helvetica,sans-Serif" font-size="10.00">+ th_loop()</text>
<text text-anchor="start" x="102.5" y="-145.5" font-family="Helvetica,sans-Serif" font-size="10.00">+ nrt_th_helper()</text>
<text text-anchor="start" x="102.5" y="-134.5" font-family="Helvetica,sans-Serif" font-size="10.00">+ rt_th_helper()</text>
</g>
<!-- Node2 -->
<g id="node2" class="node"><title>Node2</title>
<g id="a_node2"><a xlink:href="classXBot_1_1CommunicationHandler.html" target="_top" xlink:title="{XBot::CommunicationHandler\n||+ CommunicationHandler()\l+ th_init()\l+ th_loop()\l+ ~CommunicationHandler()\l}">
<polygon fill="none" stroke="black" points="0,-0.5 0,-90.5 146,-90.5 146,-0.5 0,-0.5"/>
<text text-anchor="middle" x="73" y="-78.5" font-family="Helvetica,sans-Serif" font-size="10.00">XBot::CommunicationHandler</text>
<polyline fill="none" stroke="black" points="0,-71.5 146,-71.5 "/>
<text text-anchor="middle" x="73" y="-59.5" font-family="Helvetica,sans-Serif" font-size="10.00"> </text>
<polyline fill="none" stroke="black" points="0,-52.5 146,-52.5 "/>
<text text-anchor="start" x="8" y="-40.5" font-family="Helvetica,sans-Serif" font-size="10.00">+ CommunicationHandler()</text>
<text text-anchor="start" x="8" y="-29.5" font-family="Helvetica,sans-Serif" font-size="10.00">+ th_init()</text>
<text text-anchor="start" x="8" y="-18.5" font-family="Helvetica,sans-Serif" font-size="10.00">+ th_loop()</text>
<text text-anchor="start" x="8" y="-7.5" font-family="Helvetica,sans-Serif" font-size="10.00">+ ~CommunicationHandler()</text>
</a>
</g>
</g>
<!-- Node1&#45;&gt;Node2 -->
<g id="edge1" class="edge"><title>Node1&#45;&gt;Node2</title>
<path fill="none" stroke="midnightblue" d="M100.283,-117.782C96.6652,-108.33 93.1678,-99.192 89.9527,-90.7919"/>
<polygon fill="none" stroke="midnightblue" points="97.0917,-119.235 103.935,-127.323 103.629,-116.733 97.0917,-119.235"/>
</g>
<!-- Node3 -->
<g id="node3" class="node"><title>Node3</title>
<g id="a_node3"><a xlink:href="classXBot_1_1NRTDeployer.html" target="_top" xlink:title="{XBot::NRTDeployer\n||+ NRTDeployer()\l+ th_init()\l+ th_loop()\l+ ~NRTDeployer()\l}">
<polygon fill="none" stroke="black" points="164,-0.5 164,-90.5 268,-90.5 268,-0.5 164,-0.5"/>
<text text-anchor="middle" x="216" y="-78.5" font-family="Helvetica,sans-Serif" font-size="10.00">XBot::NRTDeployer</text>
<polyline fill="none" stroke="black" points="164,-71.5 268,-71.5 "/>
<text text-anchor="middle" x="216" y="-59.5" font-family="Helvetica,sans-Serif" font-size="10.00"> </text>
<polyline fill="none" stroke="black" points="164,-52.5 268,-52.5 "/>
<text text-anchor="start" x="172" y="-40.5" font-family="Helvetica,sans-Serif" font-size="10.00">+ NRTDeployer()</text>
<text text-anchor="start" x="172" y="-29.5" font-family="Helvetica,sans-Serif" font-size="10.00">+ th_init()</text>
<text text-anchor="start" x="172" y="-18.5" font-family="Helvetica,sans-Serif" font-size="10.00">+ th_loop()</text>
<text text-anchor="start" x="172" y="-7.5" font-family="Helvetica,sans-Serif" font-size="10.00">+ ~NRTDeployer()</text>
</a>
</g>
</g>
<!-- Node1&#45;&gt;Node3 -->
<g id="edge2" class="edge"><title>Node1&#45;&gt;Node3</title>
<path fill="none" stroke="midnightblue" d="M188.333,-117.782C192.001,-108.33 195.548,-99.192 198.809,-90.7919"/>
<polygon fill="none" stroke="midnightblue" points="184.985,-116.735 184.629,-127.323 191.511,-119.267 184.985,-116.735"/>
</g>
</g>
</svg>
