<?xml version="1.0" encoding="UTF-8" standalone="no"?>
<!DOCTYPE svg PUBLIC "-//W3C//DTD SVG 1.1//EN"
 "http://www.w3.org/Graphics/SVG/1.1/DTD/svg11.dtd">
<!-- Generated by graphviz version 2.38.0 (20140413.2041)
 -->
<!-- Title: XBot::NRTDeployer Pages: 1 -->
<svg width="112pt" height="453pt"
 viewBox="0.00 0.00 112.00 453.00" xmlns="http://www.w3.org/2000/svg" xmlns:xlink="http://www.w3.org/1999/xlink">
<g id="graph0" class="graph" transform="scale(1 1) rotate(0) translate(4 449)">
<title>XBot::NRTDeployer</title>
<!-- Node1 -->
<g id="node1" class="node"><title>Node1</title>
<polygon fill="#bfbfbf" stroke="black" points="0,-0.5 0,-90.5 104,-90.5 104,-0.5 0,-0.5"/>
<text text-anchor="middle" x="52" y="-78.5" font-family="Helvetica,sans-Serif" font-size="10.00">XBot::NRTDeployer</text>
<polyline fill="none" stroke="black" points="0,-71.5 104,-71.5 "/>
<text text-anchor="middle" x="52" y="-59.5" font-family="Helvetica,sans-Serif" font-size="10.00"> </text>
<polyline fill="none" stroke="black" points="0,-52.5 104,-52.5 "/>
<text text-anchor="start" x="8" y="-40.5" font-family="Helvetica,sans-Serif" font-size="10.00">+ NRTDeployer()</text>
<text text-anchor="start" x="8" y="-29.5" font-family="Helvetica,sans-Serif" font-size="10.00">+ th_init()</text>
<text text-anchor="start" x="8" y="-18.5" font-family="Helvetica,sans-Serif" font-size="10.00">+ th_loop()</text>
<text text-anchor="start" x="8" y="-7.5" font-family="Helvetica,sans-Serif" font-size="10.00">+ ~NRTDeployer()</text>
</g>
<!-- Node2 -->
<g id="node2" class="node"><title>Node2</title>
<g id="a_node2"><a xlink:href="classThread__hook.html" target="_top" xlink:title="{Thread_hook\n|# _run_loop\l# name\l# thread_id\l# schedpolicy\l# priority\l# stacksize\l|+ ~Thread_hook()\l+ create()\l+ stop()\l+ join()\l+ is_non_periodic()\l+ th_init()\l+ th_loop()\l+ nrt_th_helper()\l+ rt_th_helper()\l}">
<polygon fill="none" stroke="black" points="2.5,-128.5 2.5,-328.5 101.5,-328.5 101.5,-128.5 2.5,-128.5"/>
<text text-anchor="middle" x="52" y="-316.5" font-family="Helvetica,sans-Serif" font-size="10.00">Thread_hook</text>
<polyline fill="none" stroke="black" points="2.5,-309.5 101.5,-309.5 "/>
<text text-anchor="start" x="10.5" y="-297.5" font-family="Helvetica,sans-Serif" font-size="10.00"># _run_loop</text>
<text text-anchor="start" x="10.5" y="-286.5" font-family="Helvetica,sans-Serif" font-size="10.00"># name</text>
<text text-anchor="start" x="10.5" y="-275.5" font-family="Helvetica,sans-Serif" font-size="10.00"># thread_id</text>
<text text-anchor="start" x="10.5" y="-264.5" font-family="Helvetica,sans-Serif" font-size="10.00"># schedpolicy</text>
<text text-anchor="start" x="10.5" y="-253.5" font-family="Helvetica,sans-Serif" font-size="10.00"># priority</text>
<text text-anchor="start" x="10.5" y="-242.5" font-family="Helvetica,sans-Serif" font-size="10.00"># stacksize</text>
<polyline fill="none" stroke="black" points="2.5,-235.5 101.5,-235.5 "/>
<text text-anchor="start" x="10.5" y="-223.5" font-family="Helvetica,sans-Serif" font-size="10.00">+ ~Thread_hook()</text>
<text text-anchor="start" x="10.5" y="-212.5" font-family="Helvetica,sans-Serif" font-size="10.00">+ create()</text>
<text text-anchor="start" x="10.5" y="-201.5" font-family="Helvetica,sans-Serif" font-size="10.00">+ stop()</text>
<text text-anchor="start" x="10.5" y="-190.5" font-family="Helvetica,sans-Serif" font-size="10.00">+ join()</text>
<text text-anchor="start" x="10.5" y="-179.5" font-family="Helvetica,sans-Serif" font-size="10.00">+ is_non_periodic()</text>
<text text-anchor="start" x="10.5" y="-168.5" font-family="Helvetica,sans-Serif" font-size="10.00">+ th_init()</text>
<text text-anchor="start" x="10.5" y="-157.5" font-family="Helvetica,sans-Serif" font-size="10.00">+ th_loop()</text>
<text text-anchor="start" x="10.5" y="-146.5" font-family="Helvetica,sans-Serif" font-size="10.00">+ nrt_th_helper()</text>
<text text-anchor="start" x="10.5" y="-135.5" font-family="Helvetica,sans-Serif" font-size="10.00">+ rt_th_helper()</text>
</a>
</g>
</g>
<!-- Node2&#45;&gt;Node1 -->
<g id="edge1" class="edge"><title>Node2&#45;&gt;Node1</title>
<path fill="none" stroke="midnightblue" d="M52,-118.142C52,-108.516 52,-99.1869 52,-90.6184"/>
<polygon fill="none" stroke="midnightblue" points="48.5001,-118.263 52,-128.263 55.5001,-118.263 48.5001,-118.263"/>
</g>
<!-- Node3 -->
<g id="node3" class="node"><title>Node3</title>
<g id="a_node3"><a xlink:href="structtask__period__t.html" target="_top" xlink:title="{task_period_t\n|+ task_time\l+ period\l|}">
<polygon fill="none" stroke="black" points="14.5,-376.5 14.5,-444.5 89.5,-444.5 89.5,-376.5 14.5,-376.5"/>
<text text-anchor="middle" x="52" y="-432.5" font-family="Helvetica,sans-Serif" font-size="10.00">task_period_t</text>
<polyline fill="none" stroke="black" points="14.5,-425.5 89.5,-425.5 "/>
<text text-anchor="start" x="22.5" y="-413.5" font-family="Helvetica,sans-Serif" font-size="10.00">+ task_time</text>
<text text-anchor="start" x="22.5" y="-402.5" font-family="Helvetica,sans-Serif" font-size="10.00">+ period</text>
<polyline fill="none" stroke="black" points="14.5,-395.5 89.5,-395.5 "/>
<text text-anchor="middle" x="52" y="-383.5" font-family="Helvetica,sans-Serif" font-size="10.00"> </text>
</a>
</g>
</g>
<!-- Node3&#45;&gt;Node2 -->
<g id="edge2" class="edge"><title>Node3&#45;&gt;Node2</title>
<path fill="none" stroke="#404040" d="M52,-376.485C52,-365.917 52,-353.569 52,-340.6"/>
<polygon fill="none" stroke="#404040" points="52.0001,-340.55 48,-334.55 52,-328.55 56,-334.55 52.0001,-340.55"/>
<text text-anchor="middle" x="69.5" y="-350" font-family="Helvetica,sans-Serif" font-size="10.00"> #period</text>
</g>
</g>
</svg>
