<?xml version="1.0" encoding="UTF-8" standalone="no"?>
<!DOCTYPE svg PUBLIC "-//W3C//DTD SVG 1.1//EN"
 "http://www.w3.org/Graphics/SVG/1.1/DTD/svg11.dtd">
<!-- Generated by graphviz version 2.38.0 (20140413.2041)
 -->
<!-- Title: XBot::Publisher&lt; DataType &gt; Pages: 1 -->
<svg width="236pt" height="237pt"
 viewBox="0.00 0.00 236.00 237.00" xmlns="http://www.w3.org/2000/svg" xmlns:xlink="http://www.w3.org/1999/xlink">
<g id="graph0" class="graph" transform="scale(1 1) rotate(0) translate(4 233)">
<title>XBot::Publisher&lt; DataType &gt;</title>
<!-- Node1 -->
<g id="node1" class="node"><title>Node1</title>
<polygon fill="#bfbfbf" stroke="black" points="41,-138.5 41,-228.5 187,-228.5 187,-138.5 41,-138.5"/>
<text text-anchor="middle" x="114" y="-216.5" font-family="Helvetica,sans-Serif" font-size="10.00">XBot::Publisher&lt; DataType &gt;</text>
<polyline fill="none" stroke="black" points="41,-209.5 187,-209.5 "/>
<text text-anchor="start" x="49" y="-197.5" font-family="Helvetica,sans-Serif" font-size="10.00"># _name</text>
<polyline fill="none" stroke="black" points="41,-190.5 187,-190.5 "/>
<text text-anchor="start" x="49" y="-178.5" font-family="Helvetica,sans-Serif" font-size="10.00">+ Publisher()</text>
<text text-anchor="start" x="49" y="-167.5" font-family="Helvetica,sans-Serif" font-size="10.00">+ Publisher()</text>
<text text-anchor="start" x="49" y="-156.5" font-family="Helvetica,sans-Serif" font-size="10.00">+ init()</text>
<text text-anchor="start" x="49" y="-145.5" font-family="Helvetica,sans-Serif" font-size="10.00">+ write()</text>
</g>
<!-- Node2 -->
<g id="node2" class="node"><title>Node2</title>
<g id="a_node2"><a xlink:href="classXBot_1_1PublisherNRT.html" target="_top" xlink:title="{XBot::PublisherNRT\l\&lt; DataType \&gt;\n||+ PublisherNRT()\l+ PublisherNRT()\l+ init()\l+ write()\l}">
<polygon fill="none" stroke="black" points="0,-0.5 0,-101.5 106,-101.5 106,-0.5 0,-0.5"/>
<text text-anchor="start" x="8" y="-89.5" font-family="Helvetica,sans-Serif" font-size="10.00">XBot::PublisherNRT</text>
<text text-anchor="middle" x="53" y="-78.5" font-family="Helvetica,sans-Serif" font-size="10.00">&lt; DataType &gt;</text>
<polyline fill="none" stroke="black" points="0,-71.5 106,-71.5 "/>
<text text-anchor="middle" x="53" y="-59.5" font-family="Helvetica,sans-Serif" font-size="10.00"> </text>
<polyline fill="none" stroke="black" points="0,-52.5 106,-52.5 "/>
<text text-anchor="start" x="8" y="-40.5" font-family="Helvetica,sans-Serif" font-size="10.00">+ PublisherNRT()</text>
<text text-anchor="start" x="8" y="-29.5" font-family="Helvetica,sans-Serif" font-size="10.00">+ PublisherNRT()</text>
<text text-anchor="start" x="8" y="-18.5" font-family="Helvetica,sans-Serif" font-size="10.00">+ init()</text>
<text text-anchor="start" x="8" y="-7.5" font-family="Helvetica,sans-Serif" font-size="10.00">+ write()</text>
</a>
</g>
</g>
<!-- Node1&#45;&gt;Node2 -->
<g id="edge1" class="edge"><title>Node1&#45;&gt;Node2</title>
<path fill="none" stroke="midnightblue" d="M88.9889,-128.993C84.7408,-119.905 80.3459,-110.502 76.1485,-101.523"/>
<polygon fill="none" stroke="midnightblue" points="85.9429,-130.742 93.3482,-138.319 92.2843,-127.777 85.9429,-130.742"/>
</g>
<!-- Node3 -->
<g id="node3" class="node"><title>Node3</title>
<g id="a_node3"><a xlink:href="classXBot_1_1PublisherRT.html" target="_top" xlink:title="{XBot::PublisherRT\&lt;\l DataType \&gt;\n||+ PublisherRT()\l+ PublisherRT()\l+ init()\l+ write()\l}">
<polygon fill="none" stroke="black" points="124,-0.5 124,-101.5 228,-101.5 228,-0.5 124,-0.5"/>
<text text-anchor="start" x="132" y="-89.5" font-family="Helvetica,sans-Serif" font-size="10.00">XBot::PublisherRT&lt;</text>
<text text-anchor="middle" x="176" y="-78.5" font-family="Helvetica,sans-Serif" font-size="10.00"> DataType &gt;</text>
<polyline fill="none" stroke="black" points="124,-71.5 228,-71.5 "/>
<text text-anchor="middle" x="176" y="-59.5" font-family="Helvetica,sans-Serif" font-size="10.00"> </text>
<polyline fill="none" stroke="black" points="124,-52.5 228,-52.5 "/>
<text text-anchor="start" x="132" y="-40.5" font-family="Helvetica,sans-Serif" font-size="10.00">+ PublisherRT()</text>
<text text-anchor="start" x="132" y="-29.5" font-family="Helvetica,sans-Serif" font-size="10.00">+ PublisherRT()</text>
<text text-anchor="start" x="132" y="-18.5" font-family="Helvetica,sans-Serif" font-size="10.00">+ init()</text>
<text text-anchor="start" x="132" y="-7.5" font-family="Helvetica,sans-Serif" font-size="10.00">+ write()</text>
</a>
</g>
</g>
<!-- Node1&#45;&gt;Node3 -->
<g id="edge2" class="edge"><title>Node1&#45;&gt;Node3</title>
<path fill="none" stroke="midnightblue" d="M139.285,-129.279C143.645,-120.103 148.161,-110.597 152.472,-101.523"/>
<polygon fill="none" stroke="midnightblue" points="136.12,-127.784 134.99,-138.319 142.443,-130.788 136.12,-127.784"/>
</g>
</g>
</svg>
