<?xml version="1.0" encoding="UTF-8" standalone="no"?>
<!DOCTYPE svg PUBLIC "-//W3C//DTD SVG 1.1//EN"
 "http://www.w3.org/Graphics/SVG/1.1/DTD/svg11.dtd">
<!-- Generated by graphviz version 2.38.0 (20140413.2041)
 -->
<!-- Title: XBot::XBotCommunicationPlugin Pages: 1 -->
<svg width="359pt" height="992pt"
 viewBox="0.00 0.00 359.00 992.00" xmlns="http://www.w3.org/2000/svg" xmlns:xlink="http://www.w3.org/1999/xlink">
<g id="graph0" class="graph" transform="scale(1 1) rotate(0) translate(4 988)">
<title>XBot::XBotCommunicationPlugin</title>
<!-- Node1 -->
<g id="node1" class="node"><title>Node1</title>
<polygon fill="#bfbfbf" stroke="black" points="72,-0.5 72,-123.5 233,-123.5 233,-0.5 72,-0.5"/>
<text text-anchor="middle" x="152.5" y="-111.5" font-family="Helvetica,sans-Serif" font-size="10.00">XBot::XBotCommunicationPlugin</text>
<polyline fill="none" stroke="black" points="72,-104.5 233,-104.5 "/>
<text text-anchor="middle" x="152.5" y="-92.5" font-family="Helvetica,sans-Serif" font-size="10.00"> </text>
<polyline fill="none" stroke="black" points="72,-85.5 233,-85.5 "/>
<text text-anchor="start" x="80" y="-73.5" font-family="Helvetica,sans-Serif" font-size="10.00">+ XBotCommunicationPlugin()</text>
<text text-anchor="start" x="80" y="-62.5" font-family="Helvetica,sans-Serif" font-size="10.00">+ init_control_plugin()</text>
<text text-anchor="start" x="80" y="-51.5" font-family="Helvetica,sans-Serif" font-size="10.00">+ on_start()</text>
<text text-anchor="start" x="80" y="-40.5" font-family="Helvetica,sans-Serif" font-size="10.00">+ on_stop()</text>
<text text-anchor="start" x="80" y="-29.5" font-family="Helvetica,sans-Serif" font-size="10.00">+ close()</text>
<text text-anchor="start" x="80" y="-18.5" font-family="Helvetica,sans-Serif" font-size="10.00">+ ~XBotCommunicationPlugin()</text>
<text text-anchor="start" x="80" y="-7.5" font-family="Helvetica,sans-Serif" font-size="10.00"># control_loop()</text>
</g>
<!-- Node2 -->
<g id="node2" class="node"><title>Node2</title>
<g id="a_node2"><a xlink:href="classXBot_1_1XBotControlPlugin.html" target="_top" xlink:title="{XBot::XBotControlPlugin\n||+ XBotControlPlugin()\l+ ~XBotControlPlugin()\l+ init()\l+ init_control_plugin()\l+ on_start()\l+ on_stop()\l+ run()\l# control_loop()\l}">
<polygon fill="none" stroke="black" points="90,-161.5 90,-295.5 215,-295.5 215,-161.5 90,-161.5"/>
<text text-anchor="middle" x="152.5" y="-283.5" font-family="Helvetica,sans-Serif" font-size="10.00">XBot::XBotControlPlugin</text>
<polyline fill="none" stroke="black" points="90,-276.5 215,-276.5 "/>
<text text-anchor="middle" x="152.5" y="-264.5" font-family="Helvetica,sans-Serif" font-size="10.00"> </text>
<polyline fill="none" stroke="black" points="90,-257.5 215,-257.5 "/>
<text text-anchor="start" x="98" y="-245.5" font-family="Helvetica,sans-Serif" font-size="10.00">+ XBotControlPlugin()</text>
<text text-anchor="start" x="98" y="-234.5" font-family="Helvetica,sans-Serif" font-size="10.00">+ ~XBotControlPlugin()</text>
<text text-anchor="start" x="98" y="-223.5" font-family="Helvetica,sans-Serif" font-size="10.00">+ init()</text>
<text text-anchor="start" x="98" y="-212.5" font-family="Helvetica,sans-Serif" font-size="10.00">+ init_control_plugin()</text>
<text text-anchor="start" x="98" y="-201.5" font-family="Helvetica,sans-Serif" font-size="10.00">+ on_start()</text>
<text text-anchor="start" x="98" y="-190.5" font-family="Helvetica,sans-Serif" font-size="10.00">+ on_stop()</text>
<text text-anchor="start" x="98" y="-179.5" font-family="Helvetica,sans-Serif" font-size="10.00">+ run()</text>
<text text-anchor="start" x="98" y="-168.5" font-family="Helvetica,sans-Serif" font-size="10.00"># control_loop()</text>
</a>
</g>
</g>
<!-- Node2&#45;&gt;Node1 -->
<g id="edge1" class="edge"><title>Node2&#45;&gt;Node1</title>
<path fill="none" stroke="midnightblue" d="M152.5,-150.811C152.5,-141.672 152.5,-132.441 152.5,-123.572"/>
<polygon fill="none" stroke="midnightblue" points="149,-151.066 152.5,-161.066 156,-151.066 149,-151.066"/>
</g>
<!-- Node3 -->
<g id="node3" class="node"><title>Node3</title>
<g id="a_node3"><a xlink:href="classXBot_1_1XBotPlugin.html" target="_top" xlink:title="XBotCore Plugin Interface. ">
<polygon fill="none" stroke="black" points="0,-463.5 0,-652.5 119,-652.5 119,-463.5 0,-463.5"/>
<text text-anchor="middle" x="59.5" y="-640.5" font-family="Helvetica,sans-Serif" font-size="10.00">XBot::XBotPlugin</text>
<polyline fill="none" stroke="black" points="0,-633.5 119,-633.5 "/>
<text text-anchor="middle" x="59.5" y="-621.5" font-family="Helvetica,sans-Serif" font-size="10.00"> </text>
<polyline fill="none" stroke="black" points="0,-614.5 119,-614.5 "/>
<text text-anchor="start" x="8" y="-602.5" font-family="Helvetica,sans-Serif" font-size="10.00">+ XBotPlugin()</text>
<text text-anchor="start" x="8" y="-591.5" font-family="Helvetica,sans-Serif" font-size="10.00">+ ~XBotPlugin()</text>
<text text-anchor="start" x="8" y="-580.5" font-family="Helvetica,sans-Serif" font-size="10.00">+ init()</text>
<text text-anchor="start" x="8" y="-569.5" font-family="Helvetica,sans-Serif" font-size="10.00">+ run()</text>
<text text-anchor="start" x="8" y="-558.5" font-family="Helvetica,sans-Serif" font-size="10.00">+ close()</text>
<text text-anchor="start" x="8" y="-547.5" font-family="Helvetica,sans-Serif" font-size="10.00"># get_xbotcore_joint()</text>
<text text-anchor="start" x="8" y="-536.5" font-family="Helvetica,sans-Serif" font-size="10.00"># get_xbotcore_model()</text>
<text text-anchor="start" x="8" y="-525.5" font-family="Helvetica,sans-Serif" font-size="10.00"># get_xbotcore_ft()</text>
<text text-anchor="start" x="8" y="-514.5" font-family="Helvetica,sans-Serif" font-size="10.00"># get_xbotcore_imu()</text>
<text text-anchor="start" x="8" y="-503.5" font-family="Helvetica,sans-Serif" font-size="10.00"># set_xbotcore_joint()</text>
<text text-anchor="start" x="8" y="-492.5" font-family="Helvetica,sans-Serif" font-size="10.00"># set_xbotcore_model()</text>
<text text-anchor="start" x="8" y="-481.5" font-family="Helvetica,sans-Serif" font-size="10.00"># set_xbotcore_ft()</text>
<text text-anchor="start" x="8" y="-470.5" font-family="Helvetica,sans-Serif" font-size="10.00"># set_xbotcore_imu()</text>
</a>
</g>
</g>
<!-- Node3&#45;&gt;Node2 -->
<g id="edge2" class="edge"><title>Node3&#45;&gt;Node2</title>
<path fill="none" stroke="midnightblue" d="M56.5009,-453.041C58.2677,-417.341 63.4195,-377.662 75.5,-343 81.1815,-326.698 89.8207,-310.527 99.2866,-295.719"/>
<polygon fill="none" stroke="midnightblue" points="52.9852,-453.354 56.0732,-463.489 59.9794,-453.64 52.9852,-453.354"/>
</g>
<!-- Node4 -->
<g id="node4" class="node"><title>Node4</title>
<g id="a_node4"><a xlink:title="STL class. ">
<polygon fill="none" stroke="#bfbfbf" points="66.5,-820.5 66.5,-877.5 126.5,-877.5 126.5,-820.5 66.5,-820.5"/>
<text text-anchor="middle" x="96.5" y="-865.5" font-family="Helvetica,sans-Serif" font-size="10.00">std::string</text>
<polyline fill="none" stroke="#bfbfbf" points="66.5,-858.5 126.5,-858.5 "/>
<text text-anchor="middle" x="96.5" y="-846.5" font-family="Helvetica,sans-Serif" font-size="10.00"> </text>
<polyline fill="none" stroke="#bfbfbf" points="66.5,-839.5 126.5,-839.5 "/>
<text text-anchor="middle" x="96.5" y="-827.5" font-family="Helvetica,sans-Serif" font-size="10.00"> </text>
</a>
</g>
</g>
<!-- Node4&#45;&gt;Node3 -->
<g id="edge3" class="edge"><title>Node4&#45;&gt;Node3</title>
<path fill="none" stroke="#404040" d="M84.833,-820.145C82.7511,-814.242 80.8262,-807.985 79.5,-802 69.6857,-757.708 64.5835,-707.912 61.9682,-664.984"/>
<polygon fill="none" stroke="#404040" points="61.9555,-664.757 57.6238,-658.992 61.2794,-652.776 65.6111,-658.541 61.9555,-664.757"/>
<text text-anchor="middle" x="96.5" y="-794" font-family="Helvetica,sans-Serif" font-size="10.00"> +name</text>
</g>
<!-- Node7 -->
<g id="node7" class="node"><title>Node7</title>
<g id="a_node7"><a xlink:href="classXBot_1_1Subscriber.html" target="_top" xlink:title="{XBot::Subscriber\&lt; XBot\l::XBot::Command \&gt;\n||+ Subscriber()\l+ Subscriber()\l+ init()\l+ read()\l}">
<polygon fill="none" stroke="black" points="88.5,-671.5 88.5,-772.5 210.5,-772.5 210.5,-671.5 88.5,-671.5"/>
<text text-anchor="start" x="96.5" y="-760.5" font-family="Helvetica,sans-Serif" font-size="10.00">XBot::Subscriber&lt; XBot</text>
<text text-anchor="middle" x="149.5" y="-749.5" font-family="Helvetica,sans-Serif" font-size="10.00">::XBot::Command &gt;</text>
<polyline fill="none" stroke="black" points="88.5,-742.5 210.5,-742.5 "/>
<text text-anchor="middle" x="149.5" y="-730.5" font-family="Helvetica,sans-Serif" font-size="10.00"> </text>
<polyline fill="none" stroke="black" points="88.5,-723.5 210.5,-723.5 "/>
<text text-anchor="start" x="96.5" y="-711.5" font-family="Helvetica,sans-Serif" font-size="10.00">+ Subscriber()</text>
<text text-anchor="start" x="96.5" y="-700.5" font-family="Helvetica,sans-Serif" font-size="10.00">+ Subscriber()</text>
<text text-anchor="start" x="96.5" y="-689.5" font-family="Helvetica,sans-Serif" font-size="10.00">+ init()</text>
<text text-anchor="start" x="96.5" y="-678.5" font-family="Helvetica,sans-Serif" font-size="10.00">+ read()</text>
</a>
</g>
</g>
<!-- Node4&#45;&gt;Node7 -->
<g id="edge7" class="edge"><title>Node4&#45;&gt;Node7</title>
<path fill="none" stroke="#404040" d="M108.262,-820.258C112.838,-809.466 118.274,-796.647 123.672,-783.915"/>
<polygon fill="none" stroke="#404040" points="123.7,-783.85 122.359,-776.764 128.384,-772.802 129.724,-779.887 123.7,-783.85"/>
<text text-anchor="middle" x="139.5" y="-794" font-family="Helvetica,sans-Serif" font-size="10.00"> #_name</text>
</g>
<!-- Node5 -->
<g id="node5" class="node"><title>Node5</title>
<g id="a_node5"><a xlink:title="STL class. ">
<polygon fill="none" stroke="#bfbfbf" points="49,-915.5 49,-983.5 144,-983.5 144,-915.5 49,-915.5"/>
<text text-anchor="start" x="57" y="-971.5" font-family="Helvetica,sans-Serif" font-size="10.00">std::basic_string&lt;</text>
<text text-anchor="middle" x="96.5" y="-960.5" font-family="Helvetica,sans-Serif" font-size="10.00"> char &gt;</text>
<polyline fill="none" stroke="#bfbfbf" points="49,-953.5 144,-953.5 "/>
<text text-anchor="middle" x="96.5" y="-941.5" font-family="Helvetica,sans-Serif" font-size="10.00"> </text>
<polyline fill="none" stroke="#bfbfbf" points="49,-934.5 144,-934.5 "/>
<text text-anchor="middle" x="96.5" y="-922.5" font-family="Helvetica,sans-Serif" font-size="10.00"> </text>
</a>
</g>
</g>
<!-- Node5&#45;&gt;Node4 -->
<g id="edge4" class="edge"><title>Node5&#45;&gt;Node4</title>
<path fill="none" stroke="midnightblue" d="M96.5,-905.375C96.5,-895.94 96.5,-886.201 96.5,-877.571"/>
<polygon fill="none" stroke="midnightblue" points="93.0001,-905.427 96.5,-915.427 100,-905.427 93.0001,-905.427"/>
</g>
<!-- Node6 -->
<g id="node6" class="node"><title>Node6</title>
<g id="a_node6"><a xlink:href="classXBot_1_1SubscriberRT.html" target="_top" xlink:title="{XBot::SubscriberRT\l\&lt; XBot::XBot::Command \&gt;\n||+ SubscriberRT()\l+ SubscriberRT()\l+ init()\l+ read()\l}">
<polygon fill="none" stroke="black" points="85,-343.5 85,-444.5 220,-444.5 220,-343.5 85,-343.5"/>
<text text-anchor="start" x="93" y="-432.5" font-family="Helvetica,sans-Serif" font-size="10.00">XBot::SubscriberRT</text>
<text text-anchor="middle" x="152.5" y="-421.5" font-family="Helvetica,sans-Serif" font-size="10.00">&lt; XBot::XBot::Command &gt;</text>
<polyline fill="none" stroke="black" points="85,-414.5 220,-414.5 "/>
<text text-anchor="middle" x="152.5" y="-402.5" font-family="Helvetica,sans-Serif" font-size="10.00"> </text>
<polyline fill="none" stroke="black" points="85,-395.5 220,-395.5 "/>
<text text-anchor="start" x="93" y="-383.5" font-family="Helvetica,sans-Serif" font-size="10.00">+ SubscriberRT()</text>
<text text-anchor="start" x="93" y="-372.5" font-family="Helvetica,sans-Serif" font-size="10.00">+ SubscriberRT()</text>
<text text-anchor="start" x="93" y="-361.5" font-family="Helvetica,sans-Serif" font-size="10.00">+ init()</text>
<text text-anchor="start" x="93" y="-350.5" font-family="Helvetica,sans-Serif" font-size="10.00">+ read()</text>
</a>
</g>
</g>
<!-- Node6&#45;&gt;Node2 -->
<g id="edge5" class="edge"><title>Node6&#45;&gt;Node2</title>
<path fill="none" stroke="#404040" d="M152.5,-343.056C152.5,-331.974 152.5,-319.968 152.5,-308.053"/>
<polygon fill="none" stroke="#404040" points="152.5,-307.711 148.5,-301.711 152.5,-295.711 156.5,-301.711 152.5,-307.711"/>
<text text-anchor="middle" x="178.5" y="-317" font-family="Helvetica,sans-Serif" font-size="10.00"> #command</text>
</g>
<!-- Node7&#45;&gt;Node6 -->
<g id="edge6" class="edge"><title>Node7&#45;&gt;Node6</title>
<path fill="none" stroke="midnightblue" d="M150.048,-661.437C150.62,-599.279 151.507,-502.924 152.043,-444.71"/>
<polygon fill="none" stroke="midnightblue" points="146.548,-661.456 149.956,-671.488 153.548,-661.52 146.548,-661.456"/>
</g>
<!-- Node8 -->
<g id="node8" class="node"><title>Node8</title>
<g id="a_node8"><a xlink:href="classXBot_1_1Command.html" target="_top" xlink:title="Class which acts as a std::string of maximum length equal to 40 chars. ">
<polygon fill="none" stroke="black" points="238,-349 238,-439 351,-439 351,-349 238,-349"/>
<text text-anchor="middle" x="294.5" y="-427" font-family="Helvetica,sans-Serif" font-size="10.00">XBot::Command</text>
<polyline fill="none" stroke="black" points="238,-420 351,-420 "/>
<text text-anchor="middle" x="294.5" y="-408" font-family="Helvetica,sans-Serif" font-size="10.00"> </text>
<polyline fill="none" stroke="black" points="238,-401 351,-401 "/>
<text text-anchor="start" x="246" y="-389" font-family="Helvetica,sans-Serif" font-size="10.00">+ Command()</text>
<text text-anchor="start" x="246" y="-378" font-family="Helvetica,sans-Serif" font-size="10.00">+ str()</text>
<text text-anchor="start" x="246" y="-367" font-family="Helvetica,sans-Serif" font-size="10.00">+ operator=()</text>
<text text-anchor="start" x="246" y="-356" font-family="Helvetica,sans-Serif" font-size="10.00">+ operator std::string()</text>
</a>
</g>
</g>
<!-- Node8&#45;&gt;Node2 -->
<g id="edge8" class="edge"><title>Node8&#45;&gt;Node2</title>
<path fill="none" stroke="#404040" d="M256.073,-348.755C244.305,-335.206 231.014,-319.902 217.973,-304.886"/>
<polygon fill="none" stroke="#404040" points="217.77,-304.652 210.815,-302.745 209.901,-295.592 216.855,-297.499 217.77,-304.652"/>
<text text-anchor="middle" x="276" y="-317" font-family="Helvetica,sans-Serif" font-size="10.00"> #current_command</text>
</g>
</g>
</svg>
