<?xml version="1.0" encoding="UTF-8" standalone="no"?>
<!DOCTYPE svg PUBLIC "-//W3C//DTD SVG 1.1//EN"
 "http://www.w3.org/Graphics/SVG/1.1/DTD/svg11.dtd">
<!-- Generated by graphviz version 2.38.0 (20140413.2041)
 -->
<!-- Title: XBot::XBotControlPlugin Pages: 1 -->
<svg width="359pt" height="831pt"
 viewBox="0.00 0.00 359.00 831.00" xmlns="http://www.w3.org/2000/svg" xmlns:xlink="http://www.w3.org/1999/xlink">
<g id="graph0" class="graph" transform="scale(1 1) rotate(0) translate(4 827)">
<title>XBot::XBotControlPlugin</title>
<!-- Node1 -->
<g id="node1" class="node"><title>Node1</title>
<polygon fill="#bfbfbf" stroke="black" points="90,-0.5 90,-134.5 215,-134.5 215,-0.5 90,-0.5"/>
<text text-anchor="middle" x="152.5" y="-122.5" font-family="Helvetica,sans-Serif" font-size="10.00">XBot::XBotControlPlugin</text>
<polyline fill="none" stroke="black" points="90,-115.5 215,-115.5 "/>
<text text-anchor="middle" x="152.5" y="-103.5" font-family="Helvetica,sans-Serif" font-size="10.00"> </text>
<polyline fill="none" stroke="black" points="90,-96.5 215,-96.5 "/>
<text text-anchor="start" x="98" y="-84.5" font-family="Helvetica,sans-Serif" font-size="10.00">+ XBotControlPlugin()</text>
<text text-anchor="start" x="98" y="-73.5" font-family="Helvetica,sans-Serif" font-size="10.00">+ ~XBotControlPlugin()</text>
<text text-anchor="start" x="98" y="-62.5" font-family="Helvetica,sans-Serif" font-size="10.00">+ init()</text>
<text text-anchor="start" x="98" y="-51.5" font-family="Helvetica,sans-Serif" font-size="10.00">+ init_control_plugin()</text>
<text text-anchor="start" x="98" y="-40.5" font-family="Helvetica,sans-Serif" font-size="10.00">+ on_start()</text>
<text text-anchor="start" x="98" y="-29.5" font-family="Helvetica,sans-Serif" font-size="10.00">+ on_stop()</text>
<text text-anchor="start" x="98" y="-18.5" font-family="Helvetica,sans-Serif" font-size="10.00">+ run()</text>
<text text-anchor="start" x="98" y="-7.5" font-family="Helvetica,sans-Serif" font-size="10.00"># control_loop()</text>
</g>
<!-- Node2 -->
<g id="node2" class="node"><title>Node2</title>
<g id="a_node2"><a xlink:href="classXBot_1_1XBotPlugin.html" target="_top" xlink:title="XBotCore Plugin Interface. ">
<polygon fill="none" stroke="black" points="0,-302.5 0,-491.5 119,-491.5 119,-302.5 0,-302.5"/>
<text text-anchor="middle" x="59.5" y="-479.5" font-family="Helvetica,sans-Serif" font-size="10.00">XBot::XBotPlugin</text>
<polyline fill="none" stroke="black" points="0,-472.5 119,-472.5 "/>
<text text-anchor="middle" x="59.5" y="-460.5" font-family="Helvetica,sans-Serif" font-size="10.00"> </text>
<polyline fill="none" stroke="black" points="0,-453.5 119,-453.5 "/>
<text text-anchor="start" x="8" y="-441.5" font-family="Helvetica,sans-Serif" font-size="10.00">+ XBotPlugin()</text>
<text text-anchor="start" x="8" y="-430.5" font-family="Helvetica,sans-Serif" font-size="10.00">+ ~XBotPlugin()</text>
<text text-anchor="start" x="8" y="-419.5" font-family="Helvetica,sans-Serif" font-size="10.00">+ init()</text>
<text text-anchor="start" x="8" y="-408.5" font-family="Helvetica,sans-Serif" font-size="10.00">+ run()</text>
<text text-anchor="start" x="8" y="-397.5" font-family="Helvetica,sans-Serif" font-size="10.00">+ close()</text>
<text text-anchor="start" x="8" y="-386.5" font-family="Helvetica,sans-Serif" font-size="10.00"># get_xbotcore_joint()</text>
<text text-anchor="start" x="8" y="-375.5" font-family="Helvetica,sans-Serif" font-size="10.00"># get_xbotcore_model()</text>
<text text-anchor="start" x="8" y="-364.5" font-family="Helvetica,sans-Serif" font-size="10.00"># get_xbotcore_ft()</text>
<text text-anchor="start" x="8" y="-353.5" font-family="Helvetica,sans-Serif" font-size="10.00"># get_xbotcore_imu()</text>
<text text-anchor="start" x="8" y="-342.5" font-family="Helvetica,sans-Serif" font-size="10.00"># set_xbotcore_joint()</text>
<text text-anchor="start" x="8" y="-331.5" font-family="Helvetica,sans-Serif" font-size="10.00"># set_xbotcore_model()</text>
<text text-anchor="start" x="8" y="-320.5" font-family="Helvetica,sans-Serif" font-size="10.00"># set_xbotcore_ft()</text>
<text text-anchor="start" x="8" y="-309.5" font-family="Helvetica,sans-Serif" font-size="10.00"># set_xbotcore_imu()</text>
</a>
</g>
</g>
<!-- Node2&#45;&gt;Node1 -->
<g id="edge1" class="edge"><title>Node2&#45;&gt;Node1</title>
<path fill="none" stroke="midnightblue" d="M56.5009,-292.041C58.2677,-256.341 63.4195,-216.662 75.5,-182 81.1815,-165.698 89.8207,-149.527 99.2866,-134.719"/>
<polygon fill="none" stroke="midnightblue" points="52.9852,-292.354 56.0732,-302.489 59.9794,-292.64 52.9852,-292.354"/>
</g>
<!-- Node3 -->
<g id="node3" class="node"><title>Node3</title>
<g id="a_node3"><a xlink:title="STL class. ">
<polygon fill="none" stroke="#bfbfbf" points="66.5,-659.5 66.5,-716.5 126.5,-716.5 126.5,-659.5 66.5,-659.5"/>
<text text-anchor="middle" x="96.5" y="-704.5" font-family="Helvetica,sans-Serif" font-size="10.00">std::string</text>
<polyline fill="none" stroke="#bfbfbf" points="66.5,-697.5 126.5,-697.5 "/>
<text text-anchor="middle" x="96.5" y="-685.5" font-family="Helvetica,sans-Serif" font-size="10.00"> </text>
<polyline fill="none" stroke="#bfbfbf" points="66.5,-678.5 126.5,-678.5 "/>
<text text-anchor="middle" x="96.5" y="-666.5" font-family="Helvetica,sans-Serif" font-size="10.00"> </text>
</a>
</g>
</g>
<!-- Node3&#45;&gt;Node2 -->
<g id="edge2" class="edge"><title>Node3&#45;&gt;Node2</title>
<path fill="none" stroke="#404040" d="M84.833,-659.145C82.7511,-653.242 80.8262,-646.985 79.5,-641 69.6857,-596.708 64.5835,-546.912 61.9682,-503.984"/>
<polygon fill="none" stroke="#404040" points="61.9555,-503.757 57.6238,-497.992 61.2794,-491.776 65.6111,-497.541 61.9555,-503.757"/>
<text text-anchor="middle" x="96.5" y="-633" font-family="Helvetica,sans-Serif" font-size="10.00"> +name</text>
</g>
<!-- Node6 -->
<g id="node6" class="node"><title>Node6</title>
<g id="a_node6"><a xlink:href="classXBot_1_1Subscriber.html" target="_top" xlink:title="{XBot::Subscriber\&lt; XBot\l::XBot::Command \&gt;\n||+ Subscriber()\l+ Subscriber()\l+ init()\l+ read()\l}">
<polygon fill="none" stroke="black" points="88.5,-510.5 88.5,-611.5 210.5,-611.5 210.5,-510.5 88.5,-510.5"/>
<text text-anchor="start" x="96.5" y="-599.5" font-family="Helvetica,sans-Serif" font-size="10.00">XBot::Subscriber&lt; XBot</text>
<text text-anchor="middle" x="149.5" y="-588.5" font-family="Helvetica,sans-Serif" font-size="10.00">::XBot::Command &gt;</text>
<polyline fill="none" stroke="black" points="88.5,-581.5 210.5,-581.5 "/>
<text text-anchor="middle" x="149.5" y="-569.5" font-family="Helvetica,sans-Serif" font-size="10.00"> </text>
<polyline fill="none" stroke="black" points="88.5,-562.5 210.5,-562.5 "/>
<text text-anchor="start" x="96.5" y="-550.5" font-family="Helvetica,sans-Serif" font-size="10.00">+ Subscriber()</text>
<text text-anchor="start" x="96.5" y="-539.5" font-family="Helvetica,sans-Serif" font-size="10.00">+ Subscriber()</text>
<text text-anchor="start" x="96.5" y="-528.5" font-family="Helvetica,sans-Serif" font-size="10.00">+ init()</text>
<text text-anchor="start" x="96.5" y="-517.5" font-family="Helvetica,sans-Serif" font-size="10.00">+ read()</text>
</a>
</g>
</g>
<!-- Node3&#45;&gt;Node6 -->
<g id="edge6" class="edge"><title>Node3&#45;&gt;Node6</title>
<path fill="none" stroke="#404040" d="M108.262,-659.258C112.838,-648.466 118.274,-635.647 123.672,-622.915"/>
<polygon fill="none" stroke="#404040" points="123.7,-622.85 122.359,-615.764 128.384,-611.802 129.724,-618.887 123.7,-622.85"/>
<text text-anchor="middle" x="139.5" y="-633" font-family="Helvetica,sans-Serif" font-size="10.00"> #_name</text>
</g>
<!-- Node4 -->
<g id="node4" class="node"><title>Node4</title>
<g id="a_node4"><a xlink:title="STL class. ">
<polygon fill="none" stroke="#bfbfbf" points="49,-754.5 49,-822.5 144,-822.5 144,-754.5 49,-754.5"/>
<text text-anchor="start" x="57" y="-810.5" font-family="Helvetica,sans-Serif" font-size="10.00">std::basic_string&lt;</text>
<text text-anchor="middle" x="96.5" y="-799.5" font-family="Helvetica,sans-Serif" font-size="10.00"> char &gt;</text>
<polyline fill="none" stroke="#bfbfbf" points="49,-792.5 144,-792.5 "/>
<text text-anchor="middle" x="96.5" y="-780.5" font-family="Helvetica,sans-Serif" font-size="10.00"> </text>
<polyline fill="none" stroke="#bfbfbf" points="49,-773.5 144,-773.5 "/>
<text text-anchor="middle" x="96.5" y="-761.5" font-family="Helvetica,sans-Serif" font-size="10.00"> </text>
</a>
</g>
</g>
<!-- Node4&#45;&gt;Node3 -->
<g id="edge3" class="edge"><title>Node4&#45;&gt;Node3</title>
<path fill="none" stroke="midnightblue" d="M96.5,-744.375C96.5,-734.94 96.5,-725.201 96.5,-716.571"/>
<polygon fill="none" stroke="midnightblue" points="93.0001,-744.427 96.5,-754.427 100,-744.427 93.0001,-744.427"/>
</g>
<!-- Node5 -->
<g id="node5" class="node"><title>Node5</title>
<g id="a_node5"><a xlink:href="classXBot_1_1SubscriberRT.html" target="_top" xlink:title="{XBot::SubscriberRT\l\&lt; XBot::XBot::Command \&gt;\n||+ SubscriberRT()\l+ SubscriberRT()\l+ init()\l+ read()\l}">
<polygon fill="none" stroke="black" points="85,-182.5 85,-283.5 220,-283.5 220,-182.5 85,-182.5"/>
<text text-anchor="start" x="93" y="-271.5" font-family="Helvetica,sans-Serif" font-size="10.00">XBot::SubscriberRT</text>
<text text-anchor="middle" x="152.5" y="-260.5" font-family="Helvetica,sans-Serif" font-size="10.00">&lt; XBot::XBot::Command &gt;</text>
<polyline fill="none" stroke="black" points="85,-253.5 220,-253.5 "/>
<text text-anchor="middle" x="152.5" y="-241.5" font-family="Helvetica,sans-Serif" font-size="10.00"> </text>
<polyline fill="none" stroke="black" points="85,-234.5 220,-234.5 "/>
<text text-anchor="start" x="93" y="-222.5" font-family="Helvetica,sans-Serif" font-size="10.00">+ SubscriberRT()</text>
<text text-anchor="start" x="93" y="-211.5" font-family="Helvetica,sans-Serif" font-size="10.00">+ SubscriberRT()</text>
<text text-anchor="start" x="93" y="-200.5" font-family="Helvetica,sans-Serif" font-size="10.00">+ init()</text>
<text text-anchor="start" x="93" y="-189.5" font-family="Helvetica,sans-Serif" font-size="10.00">+ read()</text>
</a>
</g>
</g>
<!-- Node5&#45;&gt;Node1 -->
<g id="edge4" class="edge"><title>Node5&#45;&gt;Node1</title>
<path fill="none" stroke="#404040" d="M152.5,-182.056C152.5,-170.974 152.5,-158.968 152.5,-147.053"/>
<polygon fill="none" stroke="#404040" points="152.5,-146.711 148.5,-140.711 152.5,-134.711 156.5,-140.711 152.5,-146.711"/>
<text text-anchor="middle" x="178.5" y="-156" font-family="Helvetica,sans-Serif" font-size="10.00"> #command</text>
</g>
<!-- Node6&#45;&gt;Node5 -->
<g id="edge5" class="edge"><title>Node6&#45;&gt;Node5</title>
<path fill="none" stroke="midnightblue" d="M150.048,-500.437C150.62,-438.279 151.507,-341.924 152.043,-283.71"/>
<polygon fill="none" stroke="midnightblue" points="146.548,-500.456 149.956,-510.488 153.548,-500.52 146.548,-500.456"/>
</g>
<!-- Node7 -->
<g id="node7" class="node"><title>Node7</title>
<g id="a_node7"><a xlink:href="classXBot_1_1Command.html" target="_top" xlink:title="Class which acts as a std::string of maximum length equal to 40 chars. ">
<polygon fill="none" stroke="black" points="238,-188 238,-278 351,-278 351,-188 238,-188"/>
<text text-anchor="middle" x="294.5" y="-266" font-family="Helvetica,sans-Serif" font-size="10.00">XBot::Command</text>
<polyline fill="none" stroke="black" points="238,-259 351,-259 "/>
<text text-anchor="middle" x="294.5" y="-247" font-family="Helvetica,sans-Serif" font-size="10.00"> </text>
<polyline fill="none" stroke="black" points="238,-240 351,-240 "/>
<text text-anchor="start" x="246" y="-228" font-family="Helvetica,sans-Serif" font-size="10.00">+ Command()</text>
<text text-anchor="start" x="246" y="-217" font-family="Helvetica,sans-Serif" font-size="10.00">+ str()</text>
<text text-anchor="start" x="246" y="-206" font-family="Helvetica,sans-Serif" font-size="10.00">+ operator=()</text>
<text text-anchor="start" x="246" y="-195" font-family="Helvetica,sans-Serif" font-size="10.00">+ operator std::string()</text>
</a>
</g>
</g>
<!-- Node7&#45;&gt;Node1 -->
<g id="edge7" class="edge"><title>Node7&#45;&gt;Node1</title>
<path fill="none" stroke="#404040" d="M256.073,-187.755C244.305,-174.206 231.014,-158.902 217.973,-143.886"/>
<polygon fill="none" stroke="#404040" points="217.77,-143.652 210.815,-141.745 209.901,-134.592 216.855,-136.499 217.77,-143.652"/>
<text text-anchor="middle" x="276" y="-156" font-family="Helvetica,sans-Serif" font-size="10.00"> #current_command</text>
</g>
</g>
</svg>
