<?xml version="1.0" encoding="UTF-8" standalone="no"?>
<!DOCTYPE svg PUBLIC "-//W3C//DTD SVG 1.1//EN"
 "http://www.w3.org/Graphics/SVG/1.1/DTD/svg11.dtd">
<!-- Generated by graphviz version 2.38.0 (20140413.2041)
 -->
<!-- Title: XBot::TimeProviderFunction&lt; Callable &gt; Pages: 1 -->
<svg width="148pt" height="182pt"
 viewBox="0.00 0.00 148.00 182.00" xmlns="http://www.w3.org/2000/svg" xmlns:xlink="http://www.w3.org/1999/xlink">
<g id="graph0" class="graph" transform="scale(1 1) rotate(0) translate(4 178)">
<title>XBot::TimeProviderFunction&lt; Callable &gt;</title>
<!-- Node1 -->
<g id="node1" class="node"><title>Node1</title>
<polygon fill="#bfbfbf" stroke="black" points="0,-0.5 0,-79.5 140,-79.5 140,-0.5 0,-0.5"/>
<text text-anchor="start" x="8" y="-67.5" font-family="Helvetica,sans-Serif" font-size="10.00">XBot::TimeProviderFunction</text>
<text text-anchor="middle" x="70" y="-56.5" font-family="Helvetica,sans-Serif" font-size="10.00">&lt; Callable &gt;</text>
<polyline fill="none" stroke="black" points="0,-49.5 140,-49.5 "/>
<text text-anchor="middle" x="70" y="-37.5" font-family="Helvetica,sans-Serif" font-size="10.00"> </text>
<polyline fill="none" stroke="black" points="0,-30.5 140,-30.5 "/>
<text text-anchor="start" x="8" y="-18.5" font-family="Helvetica,sans-Serif" font-size="10.00">+ TimeProviderFunction()</text>
<text text-anchor="start" x="8" y="-7.5" font-family="Helvetica,sans-Serif" font-size="10.00">+ get_time()</text>
</g>
<!-- Node2 -->
<g id="node2" class="node"><title>Node2</title>
<g id="a_node2"><a xlink:href="classXBot_1_1TimeProvider.html" target="_top" xlink:title="{XBot::TimeProvider\n||+ get_time()\l}">
<polygon fill="none" stroke="black" points="19,-116.5 19,-173.5 121,-173.5 121,-116.5 19,-116.5"/>
<text text-anchor="middle" x="70" y="-161.5" font-family="Helvetica,sans-Serif" font-size="10.00">XBot::TimeProvider</text>
<polyline fill="none" stroke="black" points="19,-154.5 121,-154.5 "/>
<text text-anchor="middle" x="70" y="-142.5" font-family="Helvetica,sans-Serif" font-size="10.00"> </text>
<polyline fill="none" stroke="black" points="19,-135.5 121,-135.5 "/>
<text text-anchor="start" x="27" y="-123.5" font-family="Helvetica,sans-Serif" font-size="10.00">+ get_time()</text>
</a>
</g>
</g>
<!-- Node2&#45;&gt;Node1 -->
<g id="edge1" class="edge"><title>Node2&#45;&gt;Node1</title>
<path fill="none" stroke="midnightblue" d="M70,-106.156C70,-97.4733 70,-88.2318 70,-79.5205"/>
<polygon fill="none" stroke="midnightblue" points="66.5001,-106.398 70,-116.398 73.5001,-106.398 66.5001,-106.398"/>
</g>
</g>
</svg>
