<?xml version="1.0" encoding="UTF-8" standalone="no"?>
<!DOCTYPE svg PUBLIC "-//W3C//DTD SVG 1.1//EN"
 "http://www.w3.org/Graphics/SVG/1.1/DTD/svg11.dtd">
<!-- Generated by graphviz version 2.38.0 (20140413.2041)
 -->
<!-- Title: XBot::CommunicationInterfaceROS Pages: 1 -->
<svg width="210pt" height="669pt"
 viewBox="0.00 0.00 209.50 669.00" xmlns="http://www.w3.org/2000/svg" xmlns:xlink="http://www.w3.org/1999/xlink">
<g id="graph0" class="graph" transform="scale(1 1) rotate(0) translate(4 665)">
<title>XBot::CommunicationInterfaceROS</title>
<!-- Node1 -->
<g id="node1" class="node"><title>Node1</title>
<polygon fill="#bfbfbf" stroke="black" points="0,-0.5 0,-200.5 173,-200.5 173,-0.5 0,-0.5"/>
<text text-anchor="middle" x="86.5" y="-188.5" font-family="Helvetica,sans-Serif" font-size="10.00">XBot::CommunicationInterfaceROS</text>
<polyline fill="none" stroke="black" points="0,-181.5 173,-181.5 "/>
<text text-anchor="middle" x="86.5" y="-169.5" font-family="Helvetica,sans-Serif" font-size="10.00"> </text>
<polyline fill="none" stroke="black" points="0,-162.5 173,-162.5 "/>
<text text-anchor="start" x="8" y="-150.5" font-family="Helvetica,sans-Serif" font-size="10.00">+ CommunicationInterfaceROS()</text>
<text text-anchor="start" x="8" y="-139.5" font-family="Helvetica,sans-Serif" font-size="10.00">+ CommunicationInterfaceROS()</text>
<text text-anchor="start" x="8" y="-128.5" font-family="Helvetica,sans-Serif" font-size="10.00">+ sendRobotState()</text>
<text text-anchor="start" x="8" y="-117.5" font-family="Helvetica,sans-Serif" font-size="10.00">+ receiveReference()</text>
<text text-anchor="start" x="8" y="-106.5" font-family="Helvetica,sans-Serif" font-size="10.00">+ advertiseSwitch()</text>
<text text-anchor="start" x="8" y="-95.5" font-family="Helvetica,sans-Serif" font-size="10.00">+ receiveFromSwitch()</text>
<text text-anchor="start" x="8" y="-84.5" font-family="Helvetica,sans-Serif" font-size="10.00">+ advertiseCmd()</text>
<text text-anchor="start" x="8" y="-73.5" font-family="Helvetica,sans-Serif" font-size="10.00">+ receiveFromCmd()</text>
<text text-anchor="start" x="8" y="-62.5" font-family="Helvetica,sans-Serif" font-size="10.00">+ advertiseMasterCommunication</text>
<text text-anchor="start" x="8" y="-51.5" font-family="Helvetica,sans-Serif" font-size="10.00">Interface()</text>
<text text-anchor="start" x="8" y="-40.5" font-family="Helvetica,sans-Serif" font-size="10.00">+ receiveMasterCommunication</text>
<text text-anchor="start" x="8" y="-29.5" font-family="Helvetica,sans-Serif" font-size="10.00">Interface()</text>
<text text-anchor="start" x="8" y="-18.5" font-family="Helvetica,sans-Serif" font-size="10.00">+ advertiseStatus()</text>
<text text-anchor="start" x="8" y="-7.5" font-family="Helvetica,sans-Serif" font-size="10.00">+ setPluginStatus()</text>
</g>
<!-- Node2 -->
<g id="node2" class="node"><title>Node2</title>
<g id="a_node2"><a xlink:href="classXBot_1_1CommunicationInterface.html" target="_top" xlink:title="{XBot::CommunicationInterface\n|# _robot\l|+ CommunicationInterface()\l+ CommunicationInterface()\l+ sendRobotState()\l+ receiveReference()\l+ advertiseSwitch()\l+ receiveFromSwitch()\l+ advertiseCmd()\l+ receiveFromCmd()\l+ advertiseMasterCommunication\lInterface()\l+ receiveMasterCommunication\lInterface()\l+ advertiseStatus()\l+ setPluginStatus()\l}">
<polygon fill="none" stroke="black" points="4.5,-238.5 4.5,-438.5 168.5,-438.5 168.5,-238.5 4.5,-238.5"/>
<text text-anchor="middle" x="86.5" y="-426.5" font-family="Helvetica,sans-Serif" font-size="10.00">XBot::CommunicationInterface</text>
<polyline fill="none" stroke="black" points="4.5,-419.5 168.5,-419.5 "/>
<text text-anchor="start" x="12.5" y="-407.5" font-family="Helvetica,sans-Serif" font-size="10.00"># _robot</text>
<polyline fill="none" stroke="black" points="4.5,-400.5 168.5,-400.5 "/>
<text text-anchor="start" x="12.5" y="-388.5" font-family="Helvetica,sans-Serif" font-size="10.00">+ CommunicationInterface()</text>
<text text-anchor="start" x="12.5" y="-377.5" font-family="Helvetica,sans-Serif" font-size="10.00">+ CommunicationInterface()</text>
<text text-anchor="start" x="12.5" y="-366.5" font-family="Helvetica,sans-Serif" font-size="10.00">+ sendRobotState()</text>
<text text-anchor="start" x="12.5" y="-355.5" font-family="Helvetica,sans-Serif" font-size="10.00">+ receiveReference()</text>
<text text-anchor="start" x="12.5" y="-344.5" font-family="Helvetica,sans-Serif" font-size="10.00">+ advertiseSwitch()</text>
<text text-anchor="start" x="12.5" y="-333.5" font-family="Helvetica,sans-Serif" font-size="10.00">+ receiveFromSwitch()</text>
<text text-anchor="start" x="12.5" y="-322.5" font-family="Helvetica,sans-Serif" font-size="10.00">+ advertiseCmd()</text>
<text text-anchor="start" x="12.5" y="-311.5" font-family="Helvetica,sans-Serif" font-size="10.00">+ receiveFromCmd()</text>
<text text-anchor="start" x="12.5" y="-300.5" font-family="Helvetica,sans-Serif" font-size="10.00">+ advertiseMasterCommunication</text>
<text text-anchor="start" x="12.5" y="-289.5" font-family="Helvetica,sans-Serif" font-size="10.00">Interface()</text>
<text text-anchor="start" x="12.5" y="-278.5" font-family="Helvetica,sans-Serif" font-size="10.00">+ receiveMasterCommunication</text>
<text text-anchor="start" x="12.5" y="-267.5" font-family="Helvetica,sans-Serif" font-size="10.00">Interface()</text>
<text text-anchor="start" x="12.5" y="-256.5" font-family="Helvetica,sans-Serif" font-size="10.00">+ advertiseStatus()</text>
<text text-anchor="start" x="12.5" y="-245.5" font-family="Helvetica,sans-Serif" font-size="10.00">+ setPluginStatus()</text>
</a>
</g>
</g>
<!-- Node2&#45;&gt;Node1 -->
<g id="edge1" class="edge"><title>Node2&#45;&gt;Node1</title>
<path fill="none" stroke="midnightblue" d="M86.5,-228.439C86.5,-219.184 86.5,-209.857 86.5,-200.684"/>
<polygon fill="none" stroke="midnightblue" points="83.0001,-228.441 86.5,-238.441 90.0001,-228.441 83.0001,-228.441"/>
</g>
<!-- Node3 -->
<g id="node3" class="node"><title>Node3</title>
<g id="a_node3"><a xlink:title="STL class. ">
<polygon fill="none" stroke="#bfbfbf" points="56.5,-497.5 56.5,-554.5 116.5,-554.5 116.5,-497.5 56.5,-497.5"/>
<text text-anchor="middle" x="86.5" y="-542.5" font-family="Helvetica,sans-Serif" font-size="10.00">std::string</text>
<polyline fill="none" stroke="#bfbfbf" points="56.5,-535.5 116.5,-535.5 "/>
<text text-anchor="middle" x="86.5" y="-523.5" font-family="Helvetica,sans-Serif" font-size="10.00"> </text>
<polyline fill="none" stroke="#bfbfbf" points="56.5,-516.5 116.5,-516.5 "/>
<text text-anchor="middle" x="86.5" y="-504.5" font-family="Helvetica,sans-Serif" font-size="10.00"> </text>
</a>
</g>
</g>
<!-- Node3&#45;&gt;Node2 -->
<g id="edge2" class="edge"><title>Node3&#45;&gt;Node2</title>
<path fill="none" stroke="#404040" d="M86.5,-497.229C86.5,-484.254 86.5,-467.869 86.5,-450.601"/>
<polygon fill="none" stroke="#404040" points="86.5001,-450.536 82.5,-444.536 86.5,-438.536 90.5,-444.536 86.5001,-450.536"/>
<text text-anchor="start" x="86.5" y="-471" font-family="Helvetica,sans-Serif" font-size="10.00"> #_master_communication</text>
<text text-anchor="middle" x="144" y="-460" font-family="Helvetica,sans-Serif" font-size="10.00">_interface_port</text>
</g>
<!-- Node4 -->
<g id="node4" class="node"><title>Node4</title>
<g id="a_node4"><a xlink:title="STL class. ">
<polygon fill="none" stroke="#bfbfbf" points="39,-592.5 39,-660.5 134,-660.5 134,-592.5 39,-592.5"/>
<text text-anchor="start" x="47" y="-648.5" font-family="Helvetica,sans-Serif" font-size="10.00">std::basic_string&lt;</text>
<text text-anchor="middle" x="86.5" y="-637.5" font-family="Helvetica,sans-Serif" font-size="10.00"> char &gt;</text>
<polyline fill="none" stroke="#bfbfbf" points="39,-630.5 134,-630.5 "/>
<text text-anchor="middle" x="86.5" y="-618.5" font-family="Helvetica,sans-Serif" font-size="10.00"> </text>
<polyline fill="none" stroke="#bfbfbf" points="39,-611.5 134,-611.5 "/>
<text text-anchor="middle" x="86.5" y="-599.5" font-family="Helvetica,sans-Serif" font-size="10.00"> </text>
</a>
</g>
</g>
<!-- Node4&#45;&gt;Node3 -->
<g id="edge3" class="edge"><title>Node4&#45;&gt;Node3</title>
<path fill="none" stroke="midnightblue" d="M86.5,-582.375C86.5,-572.94 86.5,-563.201 86.5,-554.571"/>
<polygon fill="none" stroke="midnightblue" points="83.0001,-582.427 86.5,-592.427 90.0001,-582.427 83.0001,-582.427"/>
</g>
</g>
</svg>
