<?xml version="1.0" encoding="UTF-8" standalone="no"?>
<!DOCTYPE svg PUBLIC "-//W3C//DTD SVG 1.1//EN"
 "http://www.w3.org/Graphics/SVG/1.1/DTD/svg11.dtd">
<!-- Generated by graphviz version 2.38.0 (20140413.2041)
 -->
<!-- Title: XBot::Subscriber&lt; DataType &gt; Pages: 1 -->
<svg width="160pt" height="310pt"
 viewBox="0.00 0.00 160.00 310.00" xmlns="http://www.w3.org/2000/svg" xmlns:xlink="http://www.w3.org/1999/xlink">
<g id="graph0" class="graph" transform="scale(1 1) rotate(0) translate(4 306)">
<title>XBot::Subscriber&lt; DataType &gt;</title>
<!-- Node1 -->
<g id="node1" class="node"><title>Node1</title>
<polygon fill="#bfbfbf" stroke="black" points="0,-0.5 0,-90.5 152,-90.5 152,-0.5 0,-0.5"/>
<text text-anchor="middle" x="76" y="-78.5" font-family="Helvetica,sans-Serif" font-size="10.00">XBot::Subscriber&lt; DataType &gt;</text>
<polyline fill="none" stroke="black" points="0,-71.5 152,-71.5 "/>
<text text-anchor="middle" x="76" y="-59.5" font-family="Helvetica,sans-Serif" font-size="10.00"> </text>
<polyline fill="none" stroke="black" points="0,-52.5 152,-52.5 "/>
<text text-anchor="start" x="8" y="-40.5" font-family="Helvetica,sans-Serif" font-size="10.00">+ Subscriber()</text>
<text text-anchor="start" x="8" y="-29.5" font-family="Helvetica,sans-Serif" font-size="10.00">+ Subscriber()</text>
<text text-anchor="start" x="8" y="-18.5" font-family="Helvetica,sans-Serif" font-size="10.00">+ init()</text>
<text text-anchor="start" x="8" y="-7.5" font-family="Helvetica,sans-Serif" font-size="10.00">+ read()</text>
</g>
<!-- Node2 -->
<g id="node2" class="node"><title>Node2</title>
<g id="a_node2"><a xlink:title="STL class. ">
<polygon fill="none" stroke="#bfbfbf" points="46,-138.5 46,-195.5 106,-195.5 106,-138.5 46,-138.5"/>
<text text-anchor="middle" x="76" y="-183.5" font-family="Helvetica,sans-Serif" font-size="10.00">std::string</text>
<polyline fill="none" stroke="#bfbfbf" points="46,-176.5 106,-176.5 "/>
<text text-anchor="middle" x="76" y="-164.5" font-family="Helvetica,sans-Serif" font-size="10.00"> </text>
<polyline fill="none" stroke="#bfbfbf" points="46,-157.5 106,-157.5 "/>
<text text-anchor="middle" x="76" y="-145.5" font-family="Helvetica,sans-Serif" font-size="10.00"> </text>
</a>
</g>
</g>
<!-- Node2&#45;&gt;Node1 -->
<g id="edge1" class="edge"><title>Node2&#45;&gt;Node1</title>
<path fill="none" stroke="#404040" d="M76,-138.284C76,-127.735 76,-115.294 76,-103.035"/>
<polygon fill="none" stroke="#404040" points="76.0001,-102.912 72,-96.9125 76,-90.9125 80,-96.9124 76.0001,-102.912"/>
<text text-anchor="middle" x="95" y="-112" font-family="Helvetica,sans-Serif" font-size="10.00"> #_name</text>
</g>
<!-- Node3 -->
<g id="node3" class="node"><title>Node3</title>
<g id="a_node3"><a xlink:title="STL class. ">
<polygon fill="none" stroke="#bfbfbf" points="28.5,-233.5 28.5,-301.5 123.5,-301.5 123.5,-233.5 28.5,-233.5"/>
<text text-anchor="start" x="36.5" y="-289.5" font-family="Helvetica,sans-Serif" font-size="10.00">std::basic_string&lt;</text>
<text text-anchor="middle" x="76" y="-278.5" font-family="Helvetica,sans-Serif" font-size="10.00"> char &gt;</text>
<polyline fill="none" stroke="#bfbfbf" points="28.5,-271.5 123.5,-271.5 "/>
<text text-anchor="middle" x="76" y="-259.5" font-family="Helvetica,sans-Serif" font-size="10.00"> </text>
<polyline fill="none" stroke="#bfbfbf" points="28.5,-252.5 123.5,-252.5 "/>
<text text-anchor="middle" x="76" y="-240.5" font-family="Helvetica,sans-Serif" font-size="10.00"> </text>
</a>
</g>
</g>
<!-- Node3&#45;&gt;Node2 -->
<g id="edge2" class="edge"><title>Node3&#45;&gt;Node2</title>
<path fill="none" stroke="midnightblue" d="M76,-223.375C76,-213.94 76,-204.201 76,-195.571"/>
<polygon fill="none" stroke="midnightblue" points="72.5001,-223.427 76,-233.427 79.5001,-223.427 72.5001,-223.427"/>
</g>
</g>
</svg>
