<?xml version="1.0" encoding="UTF-8" standalone="no"?>
<!DOCTYPE svg PUBLIC "-//W3C//DTD SVG 1.1//EN"
 "http://www.w3.org/Graphics/SVG/1.1/DTD/svg11.dtd">
<!-- Generated by graphviz version 2.38.0 (20140413.2041)
 -->
<!-- Title: XBot::PublisherNRT&lt; DataType &gt; Pages: 1 -->
<svg width="154pt" height="237pt"
 viewBox="0.00 0.00 154.00 237.00" xmlns="http://www.w3.org/2000/svg" xmlns:xlink="http://www.w3.org/1999/xlink">
<g id="graph0" class="graph" transform="scale(1 1) rotate(0) translate(4 233)">
<title>XBot::PublisherNRT&lt; DataType &gt;</title>
<!-- Node1 -->
<g id="node1" class="node"><title>Node1</title>
<polygon fill="#bfbfbf" stroke="black" points="20,-0.5 20,-101.5 126,-101.5 126,-0.5 20,-0.5"/>
<text text-anchor="start" x="28" y="-89.5" font-family="Helvetica,sans-Serif" font-size="10.00">XBot::PublisherNRT</text>
<text text-anchor="middle" x="73" y="-78.5" font-family="Helvetica,sans-Serif" font-size="10.00">&lt; DataType &gt;</text>
<polyline fill="none" stroke="black" points="20,-71.5 126,-71.5 "/>
<text text-anchor="middle" x="73" y="-59.5" font-family="Helvetica,sans-Serif" font-size="10.00"> </text>
<polyline fill="none" stroke="black" points="20,-52.5 126,-52.5 "/>
<text text-anchor="start" x="28" y="-40.5" font-family="Helvetica,sans-Serif" font-size="10.00">+ PublisherNRT()</text>
<text text-anchor="start" x="28" y="-29.5" font-family="Helvetica,sans-Serif" font-size="10.00">+ PublisherNRT()</text>
<text text-anchor="start" x="28" y="-18.5" font-family="Helvetica,sans-Serif" font-size="10.00">+ init()</text>
<text text-anchor="start" x="28" y="-7.5" font-family="Helvetica,sans-Serif" font-size="10.00">+ write()</text>
</g>
<!-- Node2 -->
<g id="node2" class="node"><title>Node2</title>
<g id="a_node2"><a xlink:href="classXBot_1_1Publisher.html" target="_top" xlink:title="{XBot::Publisher\&lt; DataType \&gt;\n|# _name\l|+ Publisher()\l+ Publisher()\l+ init()\l+ write()\l}">
<polygon fill="none" stroke="black" points="0,-138.5 0,-228.5 146,-228.5 146,-138.5 0,-138.5"/>
<text text-anchor="middle" x="73" y="-216.5" font-family="Helvetica,sans-Serif" font-size="10.00">XBot::Publisher&lt; DataType &gt;</text>
<polyline fill="none" stroke="black" points="0,-209.5 146,-209.5 "/>
<text text-anchor="start" x="8" y="-197.5" font-family="Helvetica,sans-Serif" font-size="10.00"># _name</text>
<polyline fill="none" stroke="black" points="0,-190.5 146,-190.5 "/>
<text text-anchor="start" x="8" y="-178.5" font-family="Helvetica,sans-Serif" font-size="10.00">+ Publisher()</text>
<text text-anchor="start" x="8" y="-167.5" font-family="Helvetica,sans-Serif" font-size="10.00">+ Publisher()</text>
<text text-anchor="start" x="8" y="-156.5" font-family="Helvetica,sans-Serif" font-size="10.00">+ init()</text>
<text text-anchor="start" x="8" y="-145.5" font-family="Helvetica,sans-Serif" font-size="10.00">+ write()</text>
</a>
</g>
</g>
<!-- Node2&#45;&gt;Node1 -->
<g id="edge1" class="edge"><title>Node2&#45;&gt;Node1</title>
<path fill="none" stroke="midnightblue" d="M73,-128.131C73,-119.311 73,-110.219 73,-101.523"/>
<polygon fill="none" stroke="midnightblue" points="69.5001,-128.319 73,-138.319 76.5001,-128.319 69.5001,-128.319"/>
</g>
</g>
</svg>
