<?xml version="1.0" encoding="UTF-8" standalone="no"?>
<!DOCTYPE svg PUBLIC "-//W3C//DTD SVG 1.1//EN"
 "http://www.w3.org/Graphics/SVG/1.1/DTD/svg11.dtd">
<!-- Generated by graphviz version 2.38.0 (20140413.2041)
 -->
<!-- Title: XBot::Subscriber&lt; DataType &gt; Pages: 1 -->
<svg width="242pt" height="237pt"
 viewBox="0.00 0.00 242.00 237.00" xmlns="http://www.w3.org/2000/svg" xmlns:xlink="http://www.w3.org/1999/xlink">
<g id="graph0" class="graph" transform="scale(1 1) rotate(0) translate(4 233)">
<title>XBot::Subscriber&lt; DataType &gt;</title>
<!-- Node1 -->
<g id="node1" class="node"><title>Node1</title>
<polygon fill="#bfbfbf" stroke="black" points="43,-138.5 43,-228.5 195,-228.5 195,-138.5 43,-138.5"/>
<text text-anchor="middle" x="119" y="-216.5" font-family="Helvetica,sans-Serif" font-size="10.00">XBot::Subscriber&lt; DataType &gt;</text>
<polyline fill="none" stroke="black" points="43,-209.5 195,-209.5 "/>
<text text-anchor="start" x="51" y="-197.5" font-family="Helvetica,sans-Serif" font-size="10.00"># _name</text>
<polyline fill="none" stroke="black" points="43,-190.5 195,-190.5 "/>
<text text-anchor="start" x="51" y="-178.5" font-family="Helvetica,sans-Serif" font-size="10.00">+ Subscriber()</text>
<text text-anchor="start" x="51" y="-167.5" font-family="Helvetica,sans-Serif" font-size="10.00">+ Subscriber()</text>
<text text-anchor="start" x="51" y="-156.5" font-family="Helvetica,sans-Serif" font-size="10.00">+ init()</text>
<text text-anchor="start" x="51" y="-145.5" font-family="Helvetica,sans-Serif" font-size="10.00">+ read()</text>
</g>
<!-- Node2 -->
<g id="node2" class="node"><title>Node2</title>
<g id="a_node2"><a xlink:href="classXBot_1_1SubscriberNRT.html" target="_top" xlink:title="{XBot::SubscriberNRT\l\&lt; DataType \&gt;\n||+ SubscriberNRT()\l+ SubscriberNRT()\l+ init()\l+ read()\l}">
<polygon fill="none" stroke="black" points="0,-0.5 0,-101.5 112,-101.5 112,-0.5 0,-0.5"/>
<text text-anchor="start" x="8" y="-89.5" font-family="Helvetica,sans-Serif" font-size="10.00">XBot::SubscriberNRT</text>
<text text-anchor="middle" x="56" y="-78.5" font-family="Helvetica,sans-Serif" font-size="10.00">&lt; DataType &gt;</text>
<polyline fill="none" stroke="black" points="0,-71.5 112,-71.5 "/>
<text text-anchor="middle" x="56" y="-59.5" font-family="Helvetica,sans-Serif" font-size="10.00"> </text>
<polyline fill="none" stroke="black" points="0,-52.5 112,-52.5 "/>
<text text-anchor="start" x="8" y="-40.5" font-family="Helvetica,sans-Serif" font-size="10.00">+ SubscriberNRT()</text>
<text text-anchor="start" x="8" y="-29.5" font-family="Helvetica,sans-Serif" font-size="10.00">+ SubscriberNRT()</text>
<text text-anchor="start" x="8" y="-18.5" font-family="Helvetica,sans-Serif" font-size="10.00">+ init()</text>
<text text-anchor="start" x="8" y="-7.5" font-family="Helvetica,sans-Serif" font-size="10.00">+ read()</text>
</a>
</g>
</g>
<!-- Node1&#45;&gt;Node2 -->
<g id="edge1" class="edge"><title>Node1&#45;&gt;Node2</title>
<path fill="none" stroke="midnightblue" d="M93.3073,-129.279C88.8771,-120.103 84.2881,-110.597 79.9074,-101.523"/>
<polygon fill="none" stroke="midnightblue" points="90.1716,-130.835 97.6711,-138.319 96.4755,-127.791 90.1716,-130.835"/>
</g>
<!-- Node3 -->
<g id="node3" class="node"><title>Node3</title>
<g id="a_node3"><a xlink:href="classXBot_1_1SubscriberRT.html" target="_top" xlink:title="{XBot::SubscriberRT\l\&lt; DataType \&gt;\n||+ SubscriberRT()\l+ SubscriberRT()\l+ init()\l+ read()\l}">
<polygon fill="none" stroke="black" points="130,-0.5 130,-101.5 234,-101.5 234,-0.5 130,-0.5"/>
<text text-anchor="start" x="138" y="-89.5" font-family="Helvetica,sans-Serif" font-size="10.00">XBot::SubscriberRT</text>
<text text-anchor="middle" x="182" y="-78.5" font-family="Helvetica,sans-Serif" font-size="10.00">&lt; DataType &gt;</text>
<polyline fill="none" stroke="black" points="130,-71.5 234,-71.5 "/>
<text text-anchor="middle" x="182" y="-59.5" font-family="Helvetica,sans-Serif" font-size="10.00"> </text>
<polyline fill="none" stroke="black" points="130,-52.5 234,-52.5 "/>
<text text-anchor="start" x="138" y="-40.5" font-family="Helvetica,sans-Serif" font-size="10.00">+ SubscriberRT()</text>
<text text-anchor="start" x="138" y="-29.5" font-family="Helvetica,sans-Serif" font-size="10.00">+ SubscriberRT()</text>
<text text-anchor="start" x="138" y="-18.5" font-family="Helvetica,sans-Serif" font-size="10.00">+ init()</text>
<text text-anchor="start" x="138" y="-7.5" font-family="Helvetica,sans-Serif" font-size="10.00">+ read()</text>
</a>
</g>
</g>
<!-- Node1&#45;&gt;Node3 -->
<g id="edge2" class="edge"><title>Node1&#45;&gt;Node3</title>
<path fill="none" stroke="midnightblue" d="M144.693,-129.279C149.123,-120.103 153.712,-110.597 158.093,-101.523"/>
<polygon fill="none" stroke="midnightblue" points="141.525,-127.791 140.329,-138.319 147.828,-130.835 141.525,-127.791"/>
</g>
</g>
</svg>
