<?xml version="1.0" encoding="UTF-8" standalone="no"?>
<!DOCTYPE svg PUBLIC "-//W3C//DTD SVG 1.1//EN"
 "http://www.w3.org/Graphics/SVG/1.1/DTD/svg11.dtd">
<!-- Generated by graphviz version 2.38.0 (20140413.2041)
 -->
<!-- Title: XBot::TimeProvider Pages: 1 -->
<svg width="298pt" height="182pt"
 viewBox="0.00 0.00 298.00 182.00" xmlns="http://www.w3.org/2000/svg" xmlns:xlink="http://www.w3.org/1999/xlink">
<g id="graph0" class="graph" transform="scale(1 1) rotate(0) translate(4 178)">
<title>XBot::TimeProvider</title>
<!-- Node1 -->
<g id="node1" class="node"><title>Node1</title>
<polygon fill="#bfbfbf" stroke="black" points="92,-116.5 92,-173.5 194,-173.5 194,-116.5 92,-116.5"/>
<text text-anchor="middle" x="143" y="-161.5" font-family="Helvetica,sans-Serif" font-size="10.00">XBot::TimeProvider</text>
<polyline fill="none" stroke="black" points="92,-154.5 194,-154.5 "/>
<text text-anchor="middle" x="143" y="-142.5" font-family="Helvetica,sans-Serif" font-size="10.00"> </text>
<polyline fill="none" stroke="black" points="92,-135.5 194,-135.5 "/>
<text text-anchor="start" x="100" y="-123.5" font-family="Helvetica,sans-Serif" font-size="10.00">+ get_time()</text>
</g>
<!-- Node2 -->
<g id="node2" class="node"><title>Node2</title>
<g id="a_node2"><a xlink:href="classXBot_1_1SimpleTimeProvider.html" target="_top" xlink:title="{XBot::SimpleTimeProvider\n||+ set_time()\l+ get_time()\l}">
<polygon fill="none" stroke="black" points="0,-6 0,-74 132,-74 132,-6 0,-6"/>
<text text-anchor="middle" x="66" y="-62" font-family="Helvetica,sans-Serif" font-size="10.00">XBot::SimpleTimeProvider</text>
<polyline fill="none" stroke="black" points="0,-55 132,-55 "/>
<text text-anchor="middle" x="66" y="-43" font-family="Helvetica,sans-Serif" font-size="10.00"> </text>
<polyline fill="none" stroke="black" points="0,-36 132,-36 "/>
<text text-anchor="start" x="8" y="-24" font-family="Helvetica,sans-Serif" font-size="10.00">+ set_time()</text>
<text text-anchor="start" x="8" y="-13" font-family="Helvetica,sans-Serif" font-size="10.00">+ get_time()</text>
</a>
</g>
</g>
<!-- Node1&#45;&gt;Node2 -->
<g id="edge1" class="edge"><title>Node1&#45;&gt;Node2</title>
<path fill="none" stroke="midnightblue" d="M116.235,-108.197C107.978,-97.1522 98.9245,-85.0418 90.8054,-74.1812"/>
<polygon fill="none" stroke="midnightblue" points="113.575,-110.484 122.365,-116.398 119.181,-106.293 113.575,-110.484"/>
</g>
<!-- Node3 -->
<g id="node3" class="node"><title>Node3</title>
<g id="a_node3"><a xlink:href="classXBot_1_1TimeProviderFunction.html" target="_top" xlink:title="{XBot::TimeProviderFunction\l\&lt; Callable \&gt;\n||+ TimeProviderFunction()\l+ get_time()\l}">
<polygon fill="none" stroke="black" points="150,-0.5 150,-79.5 290,-79.5 290,-0.5 150,-0.5"/>
<text text-anchor="start" x="158" y="-67.5" font-family="Helvetica,sans-Serif" font-size="10.00">XBot::TimeProviderFunction</text>
<text text-anchor="middle" x="220" y="-56.5" font-family="Helvetica,sans-Serif" font-size="10.00">&lt; Callable &gt;</text>
<polyline fill="none" stroke="black" points="150,-49.5 290,-49.5 "/>
<text text-anchor="middle" x="220" y="-37.5" font-family="Helvetica,sans-Serif" font-size="10.00"> </text>
<polyline fill="none" stroke="black" points="150,-30.5 290,-30.5 "/>
<text text-anchor="start" x="158" y="-18.5" font-family="Helvetica,sans-Serif" font-size="10.00">+ TimeProviderFunction()</text>
<text text-anchor="start" x="158" y="-7.5" font-family="Helvetica,sans-Serif" font-size="10.00">+ get_time()</text>
</a>
</g>
</g>
<!-- Node1&#45;&gt;Node3 -->
<g id="edge2" class="edge"><title>Node1&#45;&gt;Node3</title>
<path fill="none" stroke="midnightblue" d="M169.801,-108.15C176.717,-98.8982 184.19,-88.902 191.203,-79.5205"/>
<polygon fill="none" stroke="midnightblue" points="166.819,-106.293 163.635,-116.398 172.425,-110.484 166.819,-106.293"/>
</g>
</g>
</svg>
