<?xml version="1.0" encoding="UTF-8" standalone="no"?>
<!DOCTYPE svg PUBLIC "-//W3C//DTD SVG 1.1//EN"
 "http://www.w3.org/Graphics/SVG/1.1/DTD/svg11.dtd">
<!-- Generated by graphviz version 2.38.0 (20140413.2041)
 -->
<!-- Title: XBot::SimpleTimeProvider Pages: 1 -->
<svg width="140pt" height="171pt"
 viewBox="0.00 0.00 140.00 171.00" xmlns="http://www.w3.org/2000/svg" xmlns:xlink="http://www.w3.org/1999/xlink">
<g id="graph0" class="graph" transform="scale(1 1) rotate(0) translate(4 167)">
<title>XBot::SimpleTimeProvider</title>
<!-- Node1 -->
<g id="node1" class="node"><title>Node1</title>
<polygon fill="#bfbfbf" stroke="black" points="0,-0.5 0,-68.5 132,-68.5 132,-0.5 0,-0.5"/>
<text text-anchor="middle" x="66" y="-56.5" font-family="Helvetica,sans-Serif" font-size="10.00">XBot::SimpleTimeProvider</text>
<polyline fill="none" stroke="black" points="0,-49.5 132,-49.5 "/>
<text text-anchor="middle" x="66" y="-37.5" font-family="Helvetica,sans-Serif" font-size="10.00"> </text>
<polyline fill="none" stroke="black" points="0,-30.5 132,-30.5 "/>
<text text-anchor="start" x="8" y="-18.5" font-family="Helvetica,sans-Serif" font-size="10.00">+ set_time()</text>
<text text-anchor="start" x="8" y="-7.5" font-family="Helvetica,sans-Serif" font-size="10.00">+ get_time()</text>
</g>
<!-- Node2 -->
<g id="node2" class="node"><title>Node2</title>
<g id="a_node2"><a xlink:href="classXBot_1_1TimeProvider.html" target="_top" xlink:title="{XBot::TimeProvider\n||+ get_time()\l}">
<polygon fill="none" stroke="black" points="15,-105.5 15,-162.5 117,-162.5 117,-105.5 15,-105.5"/>
<text text-anchor="middle" x="66" y="-150.5" font-family="Helvetica,sans-Serif" font-size="10.00">XBot::TimeProvider</text>
<polyline fill="none" stroke="black" points="15,-143.5 117,-143.5 "/>
<text text-anchor="middle" x="66" y="-131.5" font-family="Helvetica,sans-Serif" font-size="10.00"> </text>
<polyline fill="none" stroke="black" points="15,-124.5 117,-124.5 "/>
<text text-anchor="start" x="23" y="-112.5" font-family="Helvetica,sans-Serif" font-size="10.00">+ get_time()</text>
</a>
</g>
</g>
<!-- Node2&#45;&gt;Node1 -->
<g id="edge1" class="edge"><title>Node2&#45;&gt;Node1</title>
<path fill="none" stroke="midnightblue" d="M66,-95.0631C66,-86.3933 66,-77.2431 66,-68.7855"/>
<polygon fill="none" stroke="midnightblue" points="62.5001,-95.3212 66,-105.321 69.5001,-95.3212 62.5001,-95.3212"/>
</g>
</g>
</svg>
