<?xml version="1.0" encoding="UTF-8" standalone="no"?>
<!DOCTYPE svg PUBLIC "-//W3C//DTD SVG 1.1//EN"
 "http://www.w3.org/Graphics/SVG/1.1/DTD/svg11.dtd">
<!-- Generated by graphviz version 2.38.0 (20140413.2041)
 -->
<!-- Title: XBot::XBotXDDP Pages: 1 -->
<svg width="318pt" height="380pt"
 viewBox="0.00 0.00 318.00 380.00" xmlns="http://www.w3.org/2000/svg" xmlns:xlink="http://www.w3.org/1999/xlink">
<g id="graph0" class="graph" transform="scale(1 1) rotate(0) translate(4 376)">
<title>XBot::XBotXDDP</title>
<!-- Node1 -->
<g id="node1" class="node"><title>Node1</title>
<polygon fill="#bfbfbf" stroke="black" points="101,-0.5 101,-167.5 221,-167.5 221,-0.5 101,-0.5"/>
<text text-anchor="middle" x="161" y="-155.5" font-family="Helvetica,sans-Serif" font-size="10.00">XBot::XBotXDDP</text>
<polyline fill="none" stroke="black" points="101,-148.5 221,-148.5 "/>
<text text-anchor="middle" x="161" y="-136.5" font-family="Helvetica,sans-Serif" font-size="10.00"> </text>
<polyline fill="none" stroke="black" points="101,-129.5 221,-129.5 "/>
<text text-anchor="start" x="109" y="-117.5" font-family="Helvetica,sans-Serif" font-size="10.00">+ XBotXDDP()</text>
<text text-anchor="start" x="109" y="-106.5" font-family="Helvetica,sans-Serif" font-size="10.00">+ ~XBotXDDP()</text>
<text text-anchor="start" x="109" y="-95.5" font-family="Helvetica,sans-Serif" font-size="10.00">+ get_robot_map()</text>
<text text-anchor="start" x="109" y="-84.5" font-family="Helvetica,sans-Serif" font-size="10.00">+ get_ft_sensors_map()</text>
<text text-anchor="start" x="109" y="-73.5" font-family="Helvetica,sans-Serif" font-size="10.00">+ get_robot_model()</text>
<text text-anchor="start" x="109" y="-62.5" font-family="Helvetica,sans-Serif" font-size="10.00">+ init()</text>
<text text-anchor="start" x="109" y="-51.5" font-family="Helvetica,sans-Serif" font-size="10.00">+ update()</text>
<text text-anchor="start" x="109" y="-40.5" font-family="Helvetica,sans-Serif" font-size="10.00">+ get_link_pos()</text>
<text text-anchor="start" x="109" y="-29.5" font-family="Helvetica,sans-Serif" font-size="10.00">+ get_motor_pos()</text>
<text text-anchor="start" x="109" y="-18.5" font-family="Helvetica,sans-Serif" font-size="10.00">+ get_link_vel()</text>
<text text-anchor="start" x="109" y="-7.5" font-family="Helvetica,sans-Serif" font-size="10.00">and 28 more...</text>
</g>
<!-- Node2 -->
<g id="node2" class="node"><title>Node2</title>
<g id="a_node2"><a xlink:href="classXBot_1_1IXBotJoint.html" target="_top" xlink:title="XBotCore Joint Interface. ">
<polygon fill="none" stroke="black" points="0,-204.5 0,-371.5 102,-371.5 102,-204.5 0,-204.5"/>
<text text-anchor="middle" x="51" y="-359.5" font-family="Helvetica,sans-Serif" font-size="10.00">XBot::IXBotJoint</text>
<polyline fill="none" stroke="black" points="0,-352.5 102,-352.5 "/>
<text text-anchor="middle" x="51" y="-340.5" font-family="Helvetica,sans-Serif" font-size="10.00"> </text>
<polyline fill="none" stroke="black" points="0,-333.5 102,-333.5 "/>
<text text-anchor="start" x="8" y="-321.5" font-family="Helvetica,sans-Serif" font-size="10.00">+ get_link_pos()</text>
<text text-anchor="start" x="8" y="-310.5" font-family="Helvetica,sans-Serif" font-size="10.00">+ get_motor_pos()</text>
<text text-anchor="start" x="8" y="-299.5" font-family="Helvetica,sans-Serif" font-size="10.00">+ get_link_vel()</text>
<text text-anchor="start" x="8" y="-288.5" font-family="Helvetica,sans-Serif" font-size="10.00">+ get_motor_vel()</text>
<text text-anchor="start" x="8" y="-277.5" font-family="Helvetica,sans-Serif" font-size="10.00">+ get_torque()</text>
<text text-anchor="start" x="8" y="-266.5" font-family="Helvetica,sans-Serif" font-size="10.00">+ get_temperature()</text>
<text text-anchor="start" x="8" y="-255.5" font-family="Helvetica,sans-Serif" font-size="10.00">+ get_gains()</text>
<text text-anchor="start" x="8" y="-244.5" font-family="Helvetica,sans-Serif" font-size="10.00">+ get_fault()</text>
<text text-anchor="start" x="8" y="-233.5" font-family="Helvetica,sans-Serif" font-size="10.00">+ get_rtt()</text>
<text text-anchor="start" x="8" y="-222.5" font-family="Helvetica,sans-Serif" font-size="10.00">+ get_op_idx_ack()</text>
<text text-anchor="start" x="8" y="-211.5" font-family="Helvetica,sans-Serif" font-size="10.00">and 13 more...</text>
</a>
</g>
</g>
<!-- Node2&#45;&gt;Node1 -->
<g id="edge1" class="edge"><title>Node2&#45;&gt;Node1</title>
<path fill="none" stroke="midnightblue" d="M100.873,-195.416C105.918,-186.15 111.022,-176.778 116.011,-167.615"/>
<polygon fill="none" stroke="midnightblue" points="97.7673,-193.8 96.0586,-204.256 103.915,-197.148 97.7673,-193.8"/>
</g>
<!-- Node3 -->
<g id="node3" class="node"><title>Node3</title>
<g id="a_node3"><a xlink:href="classXBot_1_1IXBotFT.html" target="_top" xlink:title="XBotCore F&#45;T Force Torque Interface. ">
<polygon fill="none" stroke="black" points="120.5,-243 120.5,-333 201.5,-333 201.5,-243 120.5,-243"/>
<text text-anchor="middle" x="161" y="-321" font-family="Helvetica,sans-Serif" font-size="10.00">XBot::IXBotFT</text>
<polyline fill="none" stroke="black" points="120.5,-314 201.5,-314 "/>
<text text-anchor="middle" x="161" y="-302" font-family="Helvetica,sans-Serif" font-size="10.00"> </text>
<polyline fill="none" stroke="black" points="120.5,-295 201.5,-295 "/>
<text text-anchor="start" x="128.5" y="-283" font-family="Helvetica,sans-Serif" font-size="10.00">+ get_ft()</text>
<text text-anchor="start" x="128.5" y="-272" font-family="Helvetica,sans-Serif" font-size="10.00">+ get_ft_fault()</text>
<text text-anchor="start" x="128.5" y="-261" font-family="Helvetica,sans-Serif" font-size="10.00">+ get_ft_rtt()</text>
<text text-anchor="start" x="128.5" y="-250" font-family="Helvetica,sans-Serif" font-size="10.00">+ ~IXBotFT()</text>
</a>
</g>
</g>
<!-- Node3&#45;&gt;Node1 -->
<g id="edge2" class="edge"><title>Node3&#45;&gt;Node1</title>
<path fill="none" stroke="midnightblue" d="M161,-232.569C161,-212.672 161,-189.688 161,-167.87"/>
<polygon fill="none" stroke="midnightblue" points="157.5,-232.67 161,-242.67 164.5,-232.67 157.5,-232.67"/>
</g>
<!-- Node4 -->
<g id="node4" class="node"><title>Node4</title>
<g id="a_node4"><a xlink:href="classXBot_1_1IXBotIMU.html" target="_top" xlink:title="XBotCore IMU Interface. ">
<polygon fill="none" stroke="black" points="220,-243 220,-333 310,-333 310,-243 220,-243"/>
<text text-anchor="middle" x="265" y="-321" font-family="Helvetica,sans-Serif" font-size="10.00">XBot::IXBotIMU</text>
<polyline fill="none" stroke="black" points="220,-314 310,-314 "/>
<text text-anchor="middle" x="265" y="-302" font-family="Helvetica,sans-Serif" font-size="10.00"> </text>
<polyline fill="none" stroke="black" points="220,-295 310,-295 "/>
<text text-anchor="start" x="228" y="-283" font-family="Helvetica,sans-Serif" font-size="10.00">+ get_imu()</text>
<text text-anchor="start" x="228" y="-272" font-family="Helvetica,sans-Serif" font-size="10.00">+ get_imu_fault()</text>
<text text-anchor="start" x="228" y="-261" font-family="Helvetica,sans-Serif" font-size="10.00">+ get_imu_rtt()</text>
<text text-anchor="start" x="228" y="-250" font-family="Helvetica,sans-Serif" font-size="10.00">+ ~IXBotIMU()</text>
</a>
</g>
</g>
<!-- Node4&#45;&gt;Node1 -->
<g id="edge3" class="edge"><title>Node4&#45;&gt;Node1</title>
<path fill="none" stroke="midnightblue" d="M237.539,-233.661C227.167,-213.516 215.105,-190.088 203.666,-167.87"/>
<polygon fill="none" stroke="midnightblue" points="234.487,-235.382 242.177,-242.67 240.711,-232.177 234.487,-235.382"/>
</g>
</g>
</svg>
