<?xml version="1.0" encoding="UTF-8" standalone="no"?>
<!DOCTYPE svg PUBLIC "-//W3C//DTD SVG 1.1//EN"
 "http://www.w3.org/Graphics/SVG/1.1/DTD/svg11.dtd">
<!-- Generated by graphviz version 2.38.0 (20140413.2041)
 -->
<!-- Title: Thread_hook Pages: 1 -->
<svg width="107pt" height="325pt"
 viewBox="0.00 0.00 107.00 325.00" xmlns="http://www.w3.org/2000/svg" xmlns:xlink="http://www.w3.org/1999/xlink">
<g id="graph0" class="graph" transform="scale(1 1) rotate(0) translate(4 321)">
<title>Thread_hook</title>
<!-- Node1 -->
<g id="node1" class="node"><title>Node1</title>
<polygon fill="#bfbfbf" stroke="black" points="0,-0.5 0,-200.5 99,-200.5 99,-0.5 0,-0.5"/>
<text text-anchor="middle" x="49.5" y="-188.5" font-family="Helvetica,sans-Serif" font-size="10.00">Thread_hook</text>
<polyline fill="none" stroke="black" points="0,-181.5 99,-181.5 "/>
<text text-anchor="start" x="8" y="-169.5" font-family="Helvetica,sans-Serif" font-size="10.00"># _run_loop</text>
<text text-anchor="start" x="8" y="-158.5" font-family="Helvetica,sans-Serif" font-size="10.00"># name</text>
<text text-anchor="start" x="8" y="-147.5" font-family="Helvetica,sans-Serif" font-size="10.00"># thread_id</text>
<text text-anchor="start" x="8" y="-136.5" font-family="Helvetica,sans-Serif" font-size="10.00"># schedpolicy</text>
<text text-anchor="start" x="8" y="-125.5" font-family="Helvetica,sans-Serif" font-size="10.00"># priority</text>
<text text-anchor="start" x="8" y="-114.5" font-family="Helvetica,sans-Serif" font-size="10.00"># stacksize</text>
<polyline fill="none" stroke="black" points="0,-107.5 99,-107.5 "/>
<text text-anchor="start" x="8" y="-95.5" font-family="Helvetica,sans-Serif" font-size="10.00">+ ~Thread_hook()</text>
<text text-anchor="start" x="8" y="-84.5" font-family="Helvetica,sans-Serif" font-size="10.00">+ create()</text>
<text text-anchor="start" x="8" y="-73.5" font-family="Helvetica,sans-Serif" font-size="10.00">+ stop()</text>
<text text-anchor="start" x="8" y="-62.5" font-family="Helvetica,sans-Serif" font-size="10.00">+ join()</text>
<text text-anchor="start" x="8" y="-51.5" font-family="Helvetica,sans-Serif" font-size="10.00">+ is_non_periodic()</text>
<text text-anchor="start" x="8" y="-40.5" font-family="Helvetica,sans-Serif" font-size="10.00">+ th_init()</text>
<text text-anchor="start" x="8" y="-29.5" font-family="Helvetica,sans-Serif" font-size="10.00">+ th_loop()</text>
<text text-anchor="start" x="8" y="-18.5" font-family="Helvetica,sans-Serif" font-size="10.00">+ nrt_th_helper()</text>
<text text-anchor="start" x="8" y="-7.5" font-family="Helvetica,sans-Serif" font-size="10.00">+ rt_th_helper()</text>
</g>
<!-- Node2 -->
<g id="node2" class="node"><title>Node2</title>
<g id="a_node2"><a xlink:href="structtask__period__t.html" target="_top" xlink:title="{task_period_t\n|+ task_time\l+ period\l|}">
<polygon fill="none" stroke="black" points="12,-248.5 12,-316.5 87,-316.5 87,-248.5 12,-248.5"/>
<text text-anchor="middle" x="49.5" y="-304.5" font-family="Helvetica,sans-Serif" font-size="10.00">task_period_t</text>
<polyline fill="none" stroke="black" points="12,-297.5 87,-297.5 "/>
<text text-anchor="start" x="20" y="-285.5" font-family="Helvetica,sans-Serif" font-size="10.00">+ task_time</text>
<text text-anchor="start" x="20" y="-274.5" font-family="Helvetica,sans-Serif" font-size="10.00">+ period</text>
<polyline fill="none" stroke="black" points="12,-267.5 87,-267.5 "/>
<text text-anchor="middle" x="49.5" y="-255.5" font-family="Helvetica,sans-Serif" font-size="10.00"> </text>
</a>
</g>
</g>
<!-- Node2&#45;&gt;Node1 -->
<g id="edge1" class="edge"><title>Node2&#45;&gt;Node1</title>
<path fill="none" stroke="#404040" d="M49.5,-248.485C49.5,-237.917 49.5,-225.569 49.5,-212.6"/>
<polygon fill="none" stroke="#404040" points="49.5001,-212.55 45.5,-206.55 49.5,-200.55 53.5,-206.55 49.5001,-212.55"/>
<text text-anchor="middle" x="67" y="-222" font-family="Helvetica,sans-Serif" font-size="10.00"> #period</text>
</g>
</g>
</svg>
