<?xml version="1.0" encoding="UTF-8" standalone="no"?>
<!DOCTYPE svg PUBLIC "-//W3C//DTD SVG 1.1//EN"
 "http://www.w3.org/Graphics/SVG/1.1/DTD/svg11.dtd">
<!-- Generated by graphviz version 2.38.0 (20140413.2041)
 -->
<!-- Title: XBot::CommunicationInterface Pages: 1 -->
<svg width="205pt" height="431pt"
 viewBox="0.00 0.00 205.00 431.00" xmlns="http://www.w3.org/2000/svg" xmlns:xlink="http://www.w3.org/1999/xlink">
<g id="graph0" class="graph" transform="scale(1 1) rotate(0) translate(4 427)">
<title>XBot::CommunicationInterface</title>
<!-- Node1 -->
<g id="node1" class="node"><title>Node1</title>
<polygon fill="#bfbfbf" stroke="black" points="0,-0.5 0,-200.5 164,-200.5 164,-0.5 0,-0.5"/>
<text text-anchor="middle" x="82" y="-188.5" font-family="Helvetica,sans-Serif" font-size="10.00">XBot::CommunicationInterface</text>
<polyline fill="none" stroke="black" points="0,-181.5 164,-181.5 "/>
<text text-anchor="start" x="8" y="-169.5" font-family="Helvetica,sans-Serif" font-size="10.00"># _robot</text>
<polyline fill="none" stroke="black" points="0,-162.5 164,-162.5 "/>
<text text-anchor="start" x="8" y="-150.5" font-family="Helvetica,sans-Serif" font-size="10.00">+ CommunicationInterface()</text>
<text text-anchor="start" x="8" y="-139.5" font-family="Helvetica,sans-Serif" font-size="10.00">+ CommunicationInterface()</text>
<text text-anchor="start" x="8" y="-128.5" font-family="Helvetica,sans-Serif" font-size="10.00">+ sendRobotState()</text>
<text text-anchor="start" x="8" y="-117.5" font-family="Helvetica,sans-Serif" font-size="10.00">+ receiveReference()</text>
<text text-anchor="start" x="8" y="-106.5" font-family="Helvetica,sans-Serif" font-size="10.00">+ advertiseSwitch()</text>
<text text-anchor="start" x="8" y="-95.5" font-family="Helvetica,sans-Serif" font-size="10.00">+ receiveFromSwitch()</text>
<text text-anchor="start" x="8" y="-84.5" font-family="Helvetica,sans-Serif" font-size="10.00">+ advertiseCmd()</text>
<text text-anchor="start" x="8" y="-73.5" font-family="Helvetica,sans-Serif" font-size="10.00">+ receiveFromCmd()</text>
<text text-anchor="start" x="8" y="-62.5" font-family="Helvetica,sans-Serif" font-size="10.00">+ advertiseMasterCommunication</text>
<text text-anchor="start" x="8" y="-51.5" font-family="Helvetica,sans-Serif" font-size="10.00">Interface()</text>
<text text-anchor="start" x="8" y="-40.5" font-family="Helvetica,sans-Serif" font-size="10.00">+ receiveMasterCommunication</text>
<text text-anchor="start" x="8" y="-29.5" font-family="Helvetica,sans-Serif" font-size="10.00">Interface()</text>
<text text-anchor="start" x="8" y="-18.5" font-family="Helvetica,sans-Serif" font-size="10.00">+ advertiseStatus()</text>
<text text-anchor="start" x="8" y="-7.5" font-family="Helvetica,sans-Serif" font-size="10.00">+ setPluginStatus()</text>
</g>
<!-- Node2 -->
<g id="node2" class="node"><title>Node2</title>
<g id="a_node2"><a xlink:title="STL class. ">
<polygon fill="none" stroke="#bfbfbf" points="52,-259.5 52,-316.5 112,-316.5 112,-259.5 52,-259.5"/>
<text text-anchor="middle" x="82" y="-304.5" font-family="Helvetica,sans-Serif" font-size="10.00">std::string</text>
<polyline fill="none" stroke="#bfbfbf" points="52,-297.5 112,-297.5 "/>
<text text-anchor="middle" x="82" y="-285.5" font-family="Helvetica,sans-Serif" font-size="10.00"> </text>
<polyline fill="none" stroke="#bfbfbf" points="52,-278.5 112,-278.5 "/>
<text text-anchor="middle" x="82" y="-266.5" font-family="Helvetica,sans-Serif" font-size="10.00"> </text>
</a>
</g>
</g>
<!-- Node2&#45;&gt;Node1 -->
<g id="edge1" class="edge"><title>Node2&#45;&gt;Node1</title>
<path fill="none" stroke="#404040" d="M82,-259.229C82,-246.254 82,-229.869 82,-212.601"/>
<polygon fill="none" stroke="#404040" points="82.0001,-212.536 78,-206.536 82,-200.536 86,-206.536 82.0001,-212.536"/>
<text text-anchor="start" x="82" y="-233" font-family="Helvetica,sans-Serif" font-size="10.00"> #_master_communication</text>
<text text-anchor="middle" x="139.5" y="-222" font-family="Helvetica,sans-Serif" font-size="10.00">_interface_port</text>
</g>
<!-- Node3 -->
<g id="node3" class="node"><title>Node3</title>
<g id="a_node3"><a xlink:title="STL class. ">
<polygon fill="none" stroke="#bfbfbf" points="34.5,-354.5 34.5,-422.5 129.5,-422.5 129.5,-354.5 34.5,-354.5"/>
<text text-anchor="start" x="42.5" y="-410.5" font-family="Helvetica,sans-Serif" font-size="10.00">std::basic_string&lt;</text>
<text text-anchor="middle" x="82" y="-399.5" font-family="Helvetica,sans-Serif" font-size="10.00"> char &gt;</text>
<polyline fill="none" stroke="#bfbfbf" points="34.5,-392.5 129.5,-392.5 "/>
<text text-anchor="middle" x="82" y="-380.5" font-family="Helvetica,sans-Serif" font-size="10.00"> </text>
<polyline fill="none" stroke="#bfbfbf" points="34.5,-373.5 129.5,-373.5 "/>
<text text-anchor="middle" x="82" y="-361.5" font-family="Helvetica,sans-Serif" font-size="10.00"> </text>
</a>
</g>
</g>
<!-- Node3&#45;&gt;Node2 -->
<g id="edge2" class="edge"><title>Node3&#45;&gt;Node2</title>
<path fill="none" stroke="midnightblue" d="M82,-344.375C82,-334.94 82,-325.201 82,-316.571"/>
<polygon fill="none" stroke="midnightblue" points="78.5001,-344.427 82,-354.427 85.5001,-344.427 78.5001,-344.427"/>
</g>
</g>
</svg>
