<?xml version="1.0" encoding="UTF-8" standalone="no"?>
<!DOCTYPE svg PUBLIC "-//W3C//DTD SVG 1.1//EN"
 "http://www.w3.org/Graphics/SVG/1.1/DTD/svg11.dtd">
<!-- Generated by graphviz version 2.38.0 (20140413.2041)
 -->
<!-- Title: XBot::IXBotInit Pages: 1 -->
<svg width="280pt" height="281pt"
 viewBox="0.00 0.00 279.50 281.00" xmlns="http://www.w3.org/2000/svg" xmlns:xlink="http://www.w3.org/1999/xlink">
<g id="graph0" class="graph" transform="scale(1 1) rotate(0) translate(4 277)">
<title>XBot::IXBotInit</title>
<!-- Node1 -->
<g id="node1" class="node"><title>Node1</title>
<polygon fill="#bfbfbf" stroke="black" points="82.5,-215.5 82.5,-272.5 165.5,-272.5 165.5,-215.5 82.5,-215.5"/>
<text text-anchor="middle" x="124" y="-260.5" font-family="Helvetica,sans-Serif" font-size="10.00">XBot::IXBotInit</text>
<polyline fill="none" stroke="black" points="82.5,-253.5 165.5,-253.5 "/>
<text text-anchor="middle" x="124" y="-241.5" font-family="Helvetica,sans-Serif" font-size="10.00"> </text>
<polyline fill="none" stroke="black" points="82.5,-234.5 165.5,-234.5 "/>
<text text-anchor="start" x="90.5" y="-222.5" font-family="Helvetica,sans-Serif" font-size="10.00">+ init()</text>
</g>
<!-- Node2 -->
<g id="node2" class="node"><title>Node2</title>
<g id="a_node2"><a xlink:href="classXBot_1_1dev_1_1XBotFT.html" target="_top" xlink:title="YARP F&#45;T for XBot : a DeviceDriver representing a kinematic chain of the robot. ">
<polygon fill="none" stroke="black" points="0,-0.5 0,-178.5 104,-178.5 104,-0.5 0,-0.5"/>
<text text-anchor="middle" x="52" y="-166.5" font-family="Helvetica,sans-Serif" font-size="10.00">XBot::dev::XBotFT</text>
<polyline fill="none" stroke="black" points="0,-159.5 104,-159.5 "/>
<text text-anchor="middle" x="52" y="-147.5" font-family="Helvetica,sans-Serif" font-size="10.00"> </text>
<polyline fill="none" stroke="black" points="0,-140.5 104,-140.5 "/>
<text text-anchor="start" x="8" y="-128.5" font-family="Helvetica,sans-Serif" font-size="10.00">+ XBotFT()</text>
<text text-anchor="start" x="8" y="-117.5" font-family="Helvetica,sans-Serif" font-size="10.00">+ ~XBotFT()</text>
<text text-anchor="start" x="8" y="-106.5" font-family="Helvetica,sans-Serif" font-size="10.00">+ init()</text>
<text text-anchor="start" x="8" y="-95.5" font-family="Helvetica,sans-Serif" font-size="10.00">+ open()</text>
<text text-anchor="start" x="8" y="-84.5" font-family="Helvetica,sans-Serif" font-size="10.00">+ close()</text>
<text text-anchor="start" x="8" y="-73.5" font-family="Helvetica,sans-Serif" font-size="10.00">+ read()</text>
<text text-anchor="start" x="8" y="-62.5" font-family="Helvetica,sans-Serif" font-size="10.00">+ getState()</text>
<text text-anchor="start" x="8" y="-51.5" font-family="Helvetica,sans-Serif" font-size="10.00">+ getChannels()</text>
<text text-anchor="start" x="8" y="-40.5" font-family="Helvetica,sans-Serif" font-size="10.00">+ calibrateSensor()</text>
<text text-anchor="start" x="8" y="-29.5" font-family="Helvetica,sans-Serif" font-size="10.00">+ calibrateSensor()</text>
<text text-anchor="start" x="8" y="-18.5" font-family="Helvetica,sans-Serif" font-size="10.00">+ calibrateChannel()</text>
<text text-anchor="start" x="8" y="-7.5" font-family="Helvetica,sans-Serif" font-size="10.00">+ calibrateChannel()</text>
</a>
</g>
</g>
<!-- Node1&#45;&gt;Node2 -->
<g id="edge1" class="edge"><title>Node1&#45;&gt;Node2</title>
<path fill="none" stroke="midnightblue" d="M106.626,-206.2C102.611,-197.696 98.169,-188.288 93.6041,-178.62"/>
<polygon fill="none" stroke="midnightblue" points="103.527,-207.835 110.961,-215.383 109.857,-204.846 103.527,-207.835"/>
</g>
<!-- Node3 -->
<g id="node3" class="node"><title>Node3</title>
<g id="a_node3"><a xlink:href="classXBot_1_1dev_1_1XBotMotionControl.html" target="_top" xlink:title="YARP Motion Control for XBOt : a DeviceDriver representing a kinematic chain of the robot...">
<polygon fill="none" stroke="black" points="122.5,-6 122.5,-173 271.5,-173 271.5,-6 122.5,-6"/>
<text text-anchor="middle" x="197" y="-161" font-family="Helvetica,sans-Serif" font-size="10.00">XBot::dev::XBotMotionControl</text>
<polyline fill="none" stroke="black" points="122.5,-154 271.5,-154 "/>
<text text-anchor="middle" x="197" y="-142" font-family="Helvetica,sans-Serif" font-size="10.00"> </text>
<polyline fill="none" stroke="black" points="122.5,-135 271.5,-135 "/>
<text text-anchor="start" x="130.5" y="-123" font-family="Helvetica,sans-Serif" font-size="10.00">+ XBotMotionControl()</text>
<text text-anchor="start" x="130.5" y="-112" font-family="Helvetica,sans-Serif" font-size="10.00">+ ~XBotMotionControl()</text>
<text text-anchor="start" x="130.5" y="-101" font-family="Helvetica,sans-Serif" font-size="10.00">+ init()</text>
<text text-anchor="start" x="130.5" y="-90" font-family="Helvetica,sans-Serif" font-size="10.00">+ open()</text>
<text text-anchor="start" x="130.5" y="-79" font-family="Helvetica,sans-Serif" font-size="10.00">+ close()</text>
<text text-anchor="start" x="130.5" y="-68" font-family="Helvetica,sans-Serif" font-size="10.00">+ getAxisName()</text>
<text text-anchor="start" x="130.5" y="-57" font-family="Helvetica,sans-Serif" font-size="10.00">+ getJointType()</text>
<text text-anchor="start" x="130.5" y="-46" font-family="Helvetica,sans-Serif" font-size="10.00">+ setPositionMode()</text>
<text text-anchor="start" x="130.5" y="-35" font-family="Helvetica,sans-Serif" font-size="10.00">+ positionMove()</text>
<text text-anchor="start" x="130.5" y="-24" font-family="Helvetica,sans-Serif" font-size="10.00">+ positionMove()</text>
<text text-anchor="start" x="130.5" y="-13" font-family="Helvetica,sans-Serif" font-size="10.00">and 117 more...</text>
</a>
</g>
</g>
<!-- Node1&#45;&gt;Node3 -->
<g id="edge2" class="edge"><title>Node1&#45;&gt;Node3</title>
<path fill="none" stroke="midnightblue" d="M141.648,-206.132C146.479,-196.04 151.917,-184.68 157.449,-173.123"/>
<polygon fill="none" stroke="midnightblue" points="138.381,-204.852 137.22,-215.383 144.694,-207.875 138.381,-204.852"/>
</g>
</g>
</svg>
