<?xml version="1.0" encoding="UTF-8" standalone="no"?>
<!DOCTYPE svg PUBLIC "-//W3C//DTD SVG 1.1//EN"
 "http://www.w3.org/Graphics/SVG/1.1/DTD/svg11.dtd">
<!-- Generated by graphviz version 2.38.0 (20140413.2041)
 -->
<!-- Title: XBot::PublisherNRT&lt; DataType &gt; Pages: 1 -->
<svg width="154pt" height="449pt"
 viewBox="0.00 0.00 154.00 449.00" xmlns="http://www.w3.org/2000/svg" xmlns:xlink="http://www.w3.org/1999/xlink">
<g id="graph0" class="graph" transform="scale(1 1) rotate(0) translate(4 445)">
<title>XBot::PublisherNRT&lt; DataType &gt;</title>
<!-- Node1 -->
<g id="node1" class="node"><title>Node1</title>
<polygon fill="#bfbfbf" stroke="black" points="20,-0.5 20,-101.5 126,-101.5 126,-0.5 20,-0.5"/>
<text text-anchor="start" x="28" y="-89.5" font-family="Helvetica,sans-Serif" font-size="10.00">XBot::PublisherNRT</text>
<text text-anchor="middle" x="73" y="-78.5" font-family="Helvetica,sans-Serif" font-size="10.00">&lt; DataType &gt;</text>
<polyline fill="none" stroke="black" points="20,-71.5 126,-71.5 "/>
<text text-anchor="middle" x="73" y="-59.5" font-family="Helvetica,sans-Serif" font-size="10.00"> </text>
<polyline fill="none" stroke="black" points="20,-52.5 126,-52.5 "/>
<text text-anchor="start" x="28" y="-40.5" font-family="Helvetica,sans-Serif" font-size="10.00">+ PublisherNRT()</text>
<text text-anchor="start" x="28" y="-29.5" font-family="Helvetica,sans-Serif" font-size="10.00">+ PublisherNRT()</text>
<text text-anchor="start" x="28" y="-18.5" font-family="Helvetica,sans-Serif" font-size="10.00">+ init()</text>
<text text-anchor="start" x="28" y="-7.5" font-family="Helvetica,sans-Serif" font-size="10.00">+ write()</text>
</g>
<!-- Node2 -->
<g id="node2" class="node"><title>Node2</title>
<g id="a_node2"><a xlink:href="classXBot_1_1Publisher.html" target="_top" xlink:title="{XBot::Publisher\&lt; DataType \&gt;\n||+ Publisher()\l+ Publisher()\l+ init()\l+ write()\l}">
<polygon fill="none" stroke="black" points="0,-139.5 0,-229.5 146,-229.5 146,-139.5 0,-139.5"/>
<text text-anchor="middle" x="73" y="-217.5" font-family="Helvetica,sans-Serif" font-size="10.00">XBot::Publisher&lt; DataType &gt;</text>
<polyline fill="none" stroke="black" points="0,-210.5 146,-210.5 "/>
<text text-anchor="middle" x="73" y="-198.5" font-family="Helvetica,sans-Serif" font-size="10.00"> </text>
<polyline fill="none" stroke="black" points="0,-191.5 146,-191.5 "/>
<text text-anchor="start" x="8" y="-179.5" font-family="Helvetica,sans-Serif" font-size="10.00">+ Publisher()</text>
<text text-anchor="start" x="8" y="-168.5" font-family="Helvetica,sans-Serif" font-size="10.00">+ Publisher()</text>
<text text-anchor="start" x="8" y="-157.5" font-family="Helvetica,sans-Serif" font-size="10.00">+ init()</text>
<text text-anchor="start" x="8" y="-146.5" font-family="Helvetica,sans-Serif" font-size="10.00">+ write()</text>
</a>
</g>
</g>
<!-- Node2&#45;&gt;Node1 -->
<g id="edge1" class="edge"><title>Node2&#45;&gt;Node1</title>
<path fill="none" stroke="midnightblue" d="M73,-129.224C73,-120.11 73,-110.693 73,-101.701"/>
<polygon fill="none" stroke="midnightblue" points="69.5001,-129.347 73,-139.347 76.5001,-129.347 69.5001,-129.347"/>
</g>
<!-- Node3 -->
<g id="node3" class="node"><title>Node3</title>
<g id="a_node3"><a xlink:title="STL class. ">
<polygon fill="none" stroke="#bfbfbf" points="43,-277.5 43,-334.5 103,-334.5 103,-277.5 43,-277.5"/>
<text text-anchor="middle" x="73" y="-322.5" font-family="Helvetica,sans-Serif" font-size="10.00">std::string</text>
<polyline fill="none" stroke="#bfbfbf" points="43,-315.5 103,-315.5 "/>
<text text-anchor="middle" x="73" y="-303.5" font-family="Helvetica,sans-Serif" font-size="10.00"> </text>
<polyline fill="none" stroke="#bfbfbf" points="43,-296.5 103,-296.5 "/>
<text text-anchor="middle" x="73" y="-284.5" font-family="Helvetica,sans-Serif" font-size="10.00"> </text>
</a>
</g>
</g>
<!-- Node3&#45;&gt;Node2 -->
<g id="edge2" class="edge"><title>Node3&#45;&gt;Node2</title>
<path fill="none" stroke="#404040" d="M73,-277.284C73,-266.735 73,-254.294 73,-242.035"/>
<polygon fill="none" stroke="#404040" points="73.0001,-241.912 69,-235.912 73,-229.912 77,-235.912 73.0001,-241.912"/>
<text text-anchor="middle" x="92" y="-251" font-family="Helvetica,sans-Serif" font-size="10.00"> #_name</text>
</g>
<!-- Node4 -->
<g id="node4" class="node"><title>Node4</title>
<g id="a_node4"><a xlink:title="STL class. ">
<polygon fill="none" stroke="#bfbfbf" points="25.5,-372.5 25.5,-440.5 120.5,-440.5 120.5,-372.5 25.5,-372.5"/>
<text text-anchor="start" x="33.5" y="-428.5" font-family="Helvetica,sans-Serif" font-size="10.00">std::basic_string&lt;</text>
<text text-anchor="middle" x="73" y="-417.5" font-family="Helvetica,sans-Serif" font-size="10.00"> char &gt;</text>
<polyline fill="none" stroke="#bfbfbf" points="25.5,-410.5 120.5,-410.5 "/>
<text text-anchor="middle" x="73" y="-398.5" font-family="Helvetica,sans-Serif" font-size="10.00"> </text>
<polyline fill="none" stroke="#bfbfbf" points="25.5,-391.5 120.5,-391.5 "/>
<text text-anchor="middle" x="73" y="-379.5" font-family="Helvetica,sans-Serif" font-size="10.00"> </text>
</a>
</g>
</g>
<!-- Node4&#45;&gt;Node3 -->
<g id="edge3" class="edge"><title>Node4&#45;&gt;Node3</title>
<path fill="none" stroke="midnightblue" d="M73,-362.375C73,-352.94 73,-343.201 73,-334.571"/>
<polygon fill="none" stroke="midnightblue" points="69.5001,-362.427 73,-372.427 76.5001,-362.427 69.5001,-362.427"/>
</g>
</g>
</svg>
