<?xml version="1.0" encoding="UTF-8" standalone="no"?>
<!DOCTYPE svg PUBLIC "-//W3C//DTD SVG 1.1//EN"
 "http://www.w3.org/Graphics/SVG/1.1/DTD/svg11.dtd">
<!-- Generated by graphviz version 2.38.0 (20140413.2041)
 -->
<!-- Title: XBot::IXBotIMU Pages: 1 -->
<svg width="128pt" height="303pt"
 viewBox="0.00 0.00 128.00 303.00" xmlns="http://www.w3.org/2000/svg" xmlns:xlink="http://www.w3.org/1999/xlink">
<g id="graph0" class="graph" transform="scale(1 1) rotate(0) translate(4 299)">
<title>XBot::IXBotIMU</title>
<!-- Node1 -->
<g id="node1" class="node"><title>Node1</title>
<polygon fill="#bfbfbf" stroke="black" points="15,-204.5 15,-294.5 105,-294.5 105,-204.5 15,-204.5"/>
<text text-anchor="middle" x="60" y="-282.5" font-family="Helvetica,sans-Serif" font-size="10.00">XBot::IXBotIMU</text>
<polyline fill="none" stroke="black" points="15,-275.5 105,-275.5 "/>
<text text-anchor="middle" x="60" y="-263.5" font-family="Helvetica,sans-Serif" font-size="10.00"> </text>
<polyline fill="none" stroke="black" points="15,-256.5 105,-256.5 "/>
<text text-anchor="start" x="23" y="-244.5" font-family="Helvetica,sans-Serif" font-size="10.00">+ get_imu()</text>
<text text-anchor="start" x="23" y="-233.5" font-family="Helvetica,sans-Serif" font-size="10.00">+ get_imu_fault()</text>
<text text-anchor="start" x="23" y="-222.5" font-family="Helvetica,sans-Serif" font-size="10.00">+ get_imu_rtt()</text>
<text text-anchor="start" x="23" y="-211.5" font-family="Helvetica,sans-Serif" font-size="10.00">+ ~IXBotIMU()</text>
</g>
<!-- Node2 -->
<g id="node2" class="node"><title>Node2</title>
<g id="a_node2"><a xlink:href="classXBot_1_1XBotXDDP.html" target="_top" xlink:title="XBotCore XDDP component: ready to use non&#45;RT XBotCore Interfaces implementation (using XDDP Pipes) ...">
<polygon fill="none" stroke="black" points="-7.10543e-15,-0.5 -7.10543e-15,-167.5 120,-167.5 120,-0.5 -7.10543e-15,-0.5"/>
<text text-anchor="middle" x="60" y="-155.5" font-family="Helvetica,sans-Serif" font-size="10.00">XBot::XBotXDDP</text>
<polyline fill="none" stroke="black" points="-7.10543e-15,-148.5 120,-148.5 "/>
<text text-anchor="middle" x="60" y="-136.5" font-family="Helvetica,sans-Serif" font-size="10.00"> </text>
<polyline fill="none" stroke="black" points="-7.10543e-15,-129.5 120,-129.5 "/>
<text text-anchor="start" x="8" y="-117.5" font-family="Helvetica,sans-Serif" font-size="10.00">+ XBotXDDP()</text>
<text text-anchor="start" x="8" y="-106.5" font-family="Helvetica,sans-Serif" font-size="10.00">+ ~XBotXDDP()</text>
<text text-anchor="start" x="8" y="-95.5" font-family="Helvetica,sans-Serif" font-size="10.00">+ get_robot_map()</text>
<text text-anchor="start" x="8" y="-84.5" font-family="Helvetica,sans-Serif" font-size="10.00">+ get_ft_sensors_map()</text>
<text text-anchor="start" x="8" y="-73.5" font-family="Helvetica,sans-Serif" font-size="10.00">+ get_robot_model()</text>
<text text-anchor="start" x="8" y="-62.5" font-family="Helvetica,sans-Serif" font-size="10.00">+ init()</text>
<text text-anchor="start" x="8" y="-51.5" font-family="Helvetica,sans-Serif" font-size="10.00">+ update()</text>
<text text-anchor="start" x="8" y="-40.5" font-family="Helvetica,sans-Serif" font-size="10.00">+ get_link_pos()</text>
<text text-anchor="start" x="8" y="-29.5" font-family="Helvetica,sans-Serif" font-size="10.00">+ get_motor_pos()</text>
<text text-anchor="start" x="8" y="-18.5" font-family="Helvetica,sans-Serif" font-size="10.00">+ get_link_vel()</text>
<text text-anchor="start" x="8" y="-7.5" font-family="Helvetica,sans-Serif" font-size="10.00">and 28 more...</text>
</a>
</g>
</g>
<!-- Node1&#45;&gt;Node2 -->
<g id="edge1" class="edge"><title>Node1&#45;&gt;Node2</title>
<path fill="none" stroke="midnightblue" d="M60,-194.133C60,-185.631 60,-176.681 60,-167.715"/>
<polygon fill="none" stroke="midnightblue" points="56.5001,-194.255 60,-204.255 63.5001,-194.255 56.5001,-194.255"/>
</g>
</g>
</svg>
