<?xml version="1.0" encoding="UTF-8" standalone="no"?>
<!DOCTYPE svg PUBLIC "-//W3C//DTD SVG 1.1//EN"
 "http://www.w3.org/Graphics/SVG/1.1/DTD/svg11.dtd">
<!-- Generated by graphviz version 2.38.0 (20140413.2041)
 -->
<!-- Title: XBot::NRT_ROS_Subscriber Pages: 1 -->
<svg width="152pt" height="237pt"
 viewBox="0.00 0.00 152.00 237.00" xmlns="http://www.w3.org/2000/svg" xmlns:xlink="http://www.w3.org/1999/xlink">
<g id="graph0" class="graph" transform="scale(1 1) rotate(0) translate(4 233)">
<title>XBot::NRT_ROS_Subscriber</title>
<!-- Node1 -->
<g id="node1" class="node"><title>Node1</title>
<polygon fill="#bfbfbf" stroke="black" points="0,-0.5 0,-90.5 144,-90.5 144,-0.5 0,-0.5"/>
<text text-anchor="middle" x="72" y="-78.5" font-family="Helvetica,sans-Serif" font-size="10.00">XBot::NRT_ROS_Subscriber</text>
<polyline fill="none" stroke="black" points="0,-71.5 144,-71.5 "/>
<text text-anchor="middle" x="72" y="-59.5" font-family="Helvetica,sans-Serif" font-size="10.00"> </text>
<polyline fill="none" stroke="black" points="0,-52.5 144,-52.5 "/>
<text text-anchor="start" x="8" y="-40.5" font-family="Helvetica,sans-Serif" font-size="10.00">+ NRT_ROS_Subscriber()</text>
<text text-anchor="start" x="8" y="-29.5" font-family="Helvetica,sans-Serif" font-size="10.00">+ NRT_ROS_Subscriber()</text>
<text text-anchor="start" x="8" y="-18.5" font-family="Helvetica,sans-Serif" font-size="10.00">+ init()</text>
<text text-anchor="start" x="8" y="-7.5" font-family="Helvetica,sans-Serif" font-size="10.00">+ read()</text>
</g>
<!-- Node2 -->
<g id="node2" class="node"><title>Node2</title>
<g id="a_node2"><a xlink:href="classXBot_1_1Subscriber.html" target="_top" xlink:title="{XBot::Subscriber\&lt; XBot\l::Command \&gt;\n|# _name\l|+ Subscriber()\l+ Subscriber()\l+ init()\l+ read()\l}">
<polygon fill="none" stroke="black" points="11,-127.5 11,-228.5 133,-228.5 133,-127.5 11,-127.5"/>
<text text-anchor="start" x="19" y="-216.5" font-family="Helvetica,sans-Serif" font-size="10.00">XBot::Subscriber&lt; XBot</text>
<text text-anchor="middle" x="72" y="-205.5" font-family="Helvetica,sans-Serif" font-size="10.00">::Command &gt;</text>
<polyline fill="none" stroke="black" points="11,-198.5 133,-198.5 "/>
<text text-anchor="start" x="19" y="-186.5" font-family="Helvetica,sans-Serif" font-size="10.00"># _name</text>
<polyline fill="none" stroke="black" points="11,-179.5 133,-179.5 "/>
<text text-anchor="start" x="19" y="-167.5" font-family="Helvetica,sans-Serif" font-size="10.00">+ Subscriber()</text>
<text text-anchor="start" x="19" y="-156.5" font-family="Helvetica,sans-Serif" font-size="10.00">+ Subscriber()</text>
<text text-anchor="start" x="19" y="-145.5" font-family="Helvetica,sans-Serif" font-size="10.00">+ init()</text>
<text text-anchor="start" x="19" y="-134.5" font-family="Helvetica,sans-Serif" font-size="10.00">+ read()</text>
</a>
</g>
</g>
<!-- Node2&#45;&gt;Node1 -->
<g id="edge1" class="edge"><title>Node2&#45;&gt;Node1</title>
<path fill="none" stroke="midnightblue" d="M72,-117.232C72,-108.236 72,-99.1012 72,-90.5165"/>
<polygon fill="none" stroke="midnightblue" points="68.5001,-117.291 72,-127.291 75.5001,-117.291 68.5001,-117.291"/>
</g>
</g>
</svg>
