<?xml version="1.0" encoding="UTF-8" standalone="no"?>
<!DOCTYPE svg PUBLIC "-//W3C//DTD SVG 1.1//EN"
 "http://www.w3.org/Graphics/SVG/1.1/DTD/svg11.dtd">
<!-- Generated by graphviz version 2.38.0 (20140413.2041)
 -->
<!-- Title: XBot::NRT_ROS_Subscriber Pages: 1 -->
<svg width="152pt" height="449pt"
 viewBox="0.00 0.00 152.00 449.00" xmlns="http://www.w3.org/2000/svg" xmlns:xlink="http://www.w3.org/1999/xlink">
<g id="graph0" class="graph" transform="scale(1 1) rotate(0) translate(4 445)">
<title>XBot::NRT_ROS_Subscriber</title>
<!-- Node1 -->
<g id="node1" class="node"><title>Node1</title>
<polygon fill="#bfbfbf" stroke="black" points="0,-0.5 0,-90.5 144,-90.5 144,-0.5 0,-0.5"/>
<text text-anchor="middle" x="72" y="-78.5" font-family="Helvetica,sans-Serif" font-size="10.00">XBot::NRT_ROS_Subscriber</text>
<polyline fill="none" stroke="black" points="0,-71.5 144,-71.5 "/>
<text text-anchor="middle" x="72" y="-59.5" font-family="Helvetica,sans-Serif" font-size="10.00"> </text>
<polyline fill="none" stroke="black" points="0,-52.5 144,-52.5 "/>
<text text-anchor="start" x="8" y="-40.5" font-family="Helvetica,sans-Serif" font-size="10.00">+ NRT_ROS_Subscriber()</text>
<text text-anchor="start" x="8" y="-29.5" font-family="Helvetica,sans-Serif" font-size="10.00">+ NRT_ROS_Subscriber()</text>
<text text-anchor="start" x="8" y="-18.5" font-family="Helvetica,sans-Serif" font-size="10.00">+ init()</text>
<text text-anchor="start" x="8" y="-7.5" font-family="Helvetica,sans-Serif" font-size="10.00">+ read()</text>
</g>
<!-- Node2 -->
<g id="node2" class="node"><title>Node2</title>
<g id="a_node2"><a xlink:href="classXBot_1_1Subscriber.html" target="_top" xlink:title="{XBot::Subscriber\&lt; XBot\l::Command \&gt;\n||+ Subscriber()\l+ Subscriber()\l+ init()\l+ read()\l}">
<polygon fill="none" stroke="black" points="11,-128.5 11,-229.5 133,-229.5 133,-128.5 11,-128.5"/>
<text text-anchor="start" x="19" y="-217.5" font-family="Helvetica,sans-Serif" font-size="10.00">XBot::Subscriber&lt; XBot</text>
<text text-anchor="middle" x="72" y="-206.5" font-family="Helvetica,sans-Serif" font-size="10.00">::Command &gt;</text>
<polyline fill="none" stroke="black" points="11,-199.5 133,-199.5 "/>
<text text-anchor="middle" x="72" y="-187.5" font-family="Helvetica,sans-Serif" font-size="10.00"> </text>
<polyline fill="none" stroke="black" points="11,-180.5 133,-180.5 "/>
<text text-anchor="start" x="19" y="-168.5" font-family="Helvetica,sans-Serif" font-size="10.00">+ Subscriber()</text>
<text text-anchor="start" x="19" y="-157.5" font-family="Helvetica,sans-Serif" font-size="10.00">+ Subscriber()</text>
<text text-anchor="start" x="19" y="-146.5" font-family="Helvetica,sans-Serif" font-size="10.00">+ init()</text>
<text text-anchor="start" x="19" y="-135.5" font-family="Helvetica,sans-Serif" font-size="10.00">+ read()</text>
</a>
</g>
</g>
<!-- Node2&#45;&gt;Node1 -->
<g id="edge1" class="edge"><title>Node2&#45;&gt;Node1</title>
<path fill="none" stroke="midnightblue" d="M72,-118.001C72,-108.8 72,-99.4486 72,-90.6734"/>
<polygon fill="none" stroke="midnightblue" points="68.5001,-118.285 72,-128.285 75.5001,-118.286 68.5001,-118.285"/>
</g>
<!-- Node3 -->
<g id="node3" class="node"><title>Node3</title>
<g id="a_node3"><a xlink:title="STL class. ">
<polygon fill="none" stroke="#bfbfbf" points="42,-277.5 42,-334.5 102,-334.5 102,-277.5 42,-277.5"/>
<text text-anchor="middle" x="72" y="-322.5" font-family="Helvetica,sans-Serif" font-size="10.00">std::string</text>
<polyline fill="none" stroke="#bfbfbf" points="42,-315.5 102,-315.5 "/>
<text text-anchor="middle" x="72" y="-303.5" font-family="Helvetica,sans-Serif" font-size="10.00"> </text>
<polyline fill="none" stroke="#bfbfbf" points="42,-296.5 102,-296.5 "/>
<text text-anchor="middle" x="72" y="-284.5" font-family="Helvetica,sans-Serif" font-size="10.00"> </text>
</a>
</g>
</g>
<!-- Node3&#45;&gt;Node2 -->
<g id="edge2" class="edge"><title>Node3&#45;&gt;Node2</title>
<path fill="none" stroke="#404040" d="M72,-277.258C72,-266.793 72,-254.422 72,-242.072"/>
<polygon fill="none" stroke="#404040" points="72.0001,-241.802 68,-235.802 72,-229.802 76,-235.802 72.0001,-241.802"/>
<text text-anchor="middle" x="91" y="-251" font-family="Helvetica,sans-Serif" font-size="10.00"> #_name</text>
</g>
<!-- Node4 -->
<g id="node4" class="node"><title>Node4</title>
<g id="a_node4"><a xlink:title="STL class. ">
<polygon fill="none" stroke="#bfbfbf" points="24.5,-372.5 24.5,-440.5 119.5,-440.5 119.5,-372.5 24.5,-372.5"/>
<text text-anchor="start" x="32.5" y="-428.5" font-family="Helvetica,sans-Serif" font-size="10.00">std::basic_string&lt;</text>
<text text-anchor="middle" x="72" y="-417.5" font-family="Helvetica,sans-Serif" font-size="10.00"> char &gt;</text>
<polyline fill="none" stroke="#bfbfbf" points="24.5,-410.5 119.5,-410.5 "/>
<text text-anchor="middle" x="72" y="-398.5" font-family="Helvetica,sans-Serif" font-size="10.00"> </text>
<polyline fill="none" stroke="#bfbfbf" points="24.5,-391.5 119.5,-391.5 "/>
<text text-anchor="middle" x="72" y="-379.5" font-family="Helvetica,sans-Serif" font-size="10.00"> </text>
</a>
</g>
</g>
<!-- Node4&#45;&gt;Node3 -->
<g id="edge3" class="edge"><title>Node4&#45;&gt;Node3</title>
<path fill="none" stroke="midnightblue" d="M72,-362.375C72,-352.94 72,-343.201 72,-334.571"/>
<polygon fill="none" stroke="midnightblue" points="68.5001,-362.427 72,-372.427 75.5001,-362.427 68.5001,-362.427"/>
</g>
</g>
</svg>
