<?xml version="1.0" encoding="UTF-8" standalone="no"?>
<!DOCTYPE svg PUBLIC "-//W3C//DTD SVG 1.1//EN"
 "http://www.w3.org/Graphics/SVG/1.1/DTD/svg11.dtd">
<!-- Generated by graphviz version 2.38.0 (20140413.2041)
 -->
<!-- Title: XBot::XDDP_pipe Pages: 1 -->
<svg width="112pt" height="376pt"
 viewBox="0.00 0.00 112.00 376.00" xmlns="http://www.w3.org/2000/svg" xmlns:xlink="http://www.w3.org/1999/xlink">
<g id="graph0" class="graph" transform="scale(1 1) rotate(0) translate(4 372)">
<title>XBot::XDDP_pipe</title>
<!-- Node1 -->
<g id="node1" class="node"><title>Node1</title>
<polygon fill="#bfbfbf" stroke="black" points="0,-0.5 0,-156.5 96,-156.5 96,-0.5 0,-0.5"/>
<text text-anchor="middle" x="48" y="-144.5" font-family="Helvetica,sans-Serif" font-size="10.00">XBot::XDDP_pipe</text>
<polyline fill="none" stroke="black" points="0,-137.5 96,-137.5 "/>
<text text-anchor="middle" x="48" y="-125.5" font-family="Helvetica,sans-Serif" font-size="10.00"> </text>
<polyline fill="none" stroke="black" points="0,-118.5 96,-118.5 "/>
<text text-anchor="start" x="8" y="-106.5" font-family="Helvetica,sans-Serif" font-size="10.00">+ XDDP_pipe()</text>
<text text-anchor="start" x="8" y="-95.5" font-family="Helvetica,sans-Serif" font-size="10.00">+ get_fd()</text>
<text text-anchor="start" x="8" y="-84.5" font-family="Helvetica,sans-Serif" font-size="10.00">+ init()</text>
<text text-anchor="start" x="8" y="-73.5" font-family="Helvetica,sans-Serif" font-size="10.00">+ ~XDDP_pipe()</text>
<text text-anchor="start" x="8" y="-62.5" font-family="Helvetica,sans-Serif" font-size="10.00">+ xddp_write()</text>
<text text-anchor="start" x="8" y="-51.5" font-family="Helvetica,sans-Serif" font-size="10.00">+ xddp_write()</text>
<text text-anchor="start" x="8" y="-40.5" font-family="Helvetica,sans-Serif" font-size="10.00">+ xddp_read()</text>
<text text-anchor="start" x="8" y="-29.5" font-family="Helvetica,sans-Serif" font-size="10.00">+ xddp_read()</text>
<text text-anchor="start" x="8" y="-18.5" font-family="Helvetica,sans-Serif" font-size="10.00">+ operator=()</text>
<text text-anchor="start" x="8" y="-7.5" font-family="Helvetica,sans-Serif" font-size="10.00">+ XDDP_pipe()</text>
</g>
<!-- Node2 -->
<g id="node2" class="node"><title>Node2</title>
<g id="a_node2"><a xlink:title="STL class. ">
<polygon fill="none" stroke="#bfbfbf" points="18,-204.5 18,-261.5 78,-261.5 78,-204.5 18,-204.5"/>
<text text-anchor="middle" x="48" y="-249.5" font-family="Helvetica,sans-Serif" font-size="10.00">std::string</text>
<polyline fill="none" stroke="#bfbfbf" points="18,-242.5 78,-242.5 "/>
<text text-anchor="middle" x="48" y="-230.5" font-family="Helvetica,sans-Serif" font-size="10.00"> </text>
<polyline fill="none" stroke="#bfbfbf" points="18,-223.5 78,-223.5 "/>
<text text-anchor="middle" x="48" y="-211.5" font-family="Helvetica,sans-Serif" font-size="10.00"> </text>
</a>
</g>
</g>
<!-- Node2&#45;&gt;Node1 -->
<g id="edge1" class="edge"><title>Node2&#45;&gt;Node1</title>
<path fill="none" stroke="#404040" d="M48,-204.383C48,-194.106 48,-181.806 48,-168.991"/>
<polygon fill="none" stroke="#404040" points="48.0001,-168.596 44,-162.596 48,-156.596 52,-162.596 48.0001,-168.596"/>
<text text-anchor="middle" x="76" y="-178" font-family="Helvetica,sans-Serif" font-size="10.00"> #pipe_name</text>
</g>
<!-- Node3 -->
<g id="node3" class="node"><title>Node3</title>
<g id="a_node3"><a xlink:title="STL class. ">
<polygon fill="none" stroke="#bfbfbf" points="0.5,-299.5 0.5,-367.5 95.5,-367.5 95.5,-299.5 0.5,-299.5"/>
<text text-anchor="start" x="8.5" y="-355.5" font-family="Helvetica,sans-Serif" font-size="10.00">std::basic_string&lt;</text>
<text text-anchor="middle" x="48" y="-344.5" font-family="Helvetica,sans-Serif" font-size="10.00"> char &gt;</text>
<polyline fill="none" stroke="#bfbfbf" points="0.5,-337.5 95.5,-337.5 "/>
<text text-anchor="middle" x="48" y="-325.5" font-family="Helvetica,sans-Serif" font-size="10.00"> </text>
<polyline fill="none" stroke="#bfbfbf" points="0.5,-318.5 95.5,-318.5 "/>
<text text-anchor="middle" x="48" y="-306.5" font-family="Helvetica,sans-Serif" font-size="10.00"> </text>
</a>
</g>
</g>
<!-- Node3&#45;&gt;Node2 -->
<g id="edge2" class="edge"><title>Node3&#45;&gt;Node2</title>
<path fill="none" stroke="midnightblue" d="M48,-289.375C48,-279.94 48,-270.201 48,-261.571"/>
<polygon fill="none" stroke="midnightblue" points="44.5001,-289.427 48,-299.427 51.5001,-289.427 44.5001,-289.427"/>
</g>
</g>
</svg>
