<?xml version="1.0" encoding="UTF-8" standalone="no"?>
<!DOCTYPE svg PUBLIC "-//W3C//DTD SVG 1.1//EN"
 "http://www.w3.org/Graphics/SVG/1.1/DTD/svg11.dtd">
<!-- Generated by graphviz version 2.38.0 (20140413.2041)
 -->
<!-- Title: /home/lucamuratore/advr&#45;superbuild/external/XCM/src/XBotYARP/CommunicationInterfaceYARP.cpp Pages: 1 -->
<svg width="496pt" height="251pt"
 viewBox="0.00 0.00 496.00 251.00" xmlns="http://www.w3.org/2000/svg" xmlns:xlink="http://www.w3.org/1999/xlink">
<g id="graph0" class="graph" transform="scale(1 1) rotate(0) translate(4 247)">
<title>/home/lucamuratore/advr&#45;superbuild/external/XCM/src/XBotYARP/CommunicationInterfaceYARP.cpp</title>
<!-- Node1 -->
<g id="node1" class="node"><title>Node1</title>
<polygon fill="#bfbfbf" stroke="black" points="215.5,-190.5 215.5,-242.5 397.5,-242.5 397.5,-190.5 215.5,-190.5"/>
<text text-anchor="start" x="223.5" y="-230.5" font-family="Helvetica,sans-Serif" font-size="10.00">/home/lucamuratore</text>
<text text-anchor="start" x="223.5" y="-219.5" font-family="Helvetica,sans-Serif" font-size="10.00">/advr&#45;superbuild/external</text>
<text text-anchor="start" x="223.5" y="-208.5" font-family="Helvetica,sans-Serif" font-size="10.00">/XCM/src/XBotYARP/Communication</text>
<text text-anchor="middle" x="306.5" y="-197.5" font-family="Helvetica,sans-Serif" font-size="10.00">InterfaceYARP.cpp</text>
</g>
<!-- Node2 -->
<g id="node2" class="node"><title>Node2</title>
<g id="a_node2"><a xlink:href="CommunicationInterfaceYARP_8h.html" target="_top" xlink:title="XCM/XBotYARP/Communication\lInterfaceYARP.h">
<polygon fill="none" stroke="black" points="225,-123.5 225,-153.5 388,-153.5 388,-123.5 225,-123.5"/>
<text text-anchor="start" x="233" y="-141.5" font-family="Helvetica,sans-Serif" font-size="10.00">XCM/XBotYARP/Communication</text>
<text text-anchor="middle" x="306.5" y="-130.5" font-family="Helvetica,sans-Serif" font-size="10.00">InterfaceYARP.h</text>
</a>
</g>
</g>
<!-- Node1&#45;&gt;Node2 -->
<g id="edge1" class="edge"><title>Node1&#45;&gt;Node2</title>
<path fill="none" stroke="midnightblue" d="M306.5,-190.193C306.5,-181.786 306.5,-172.443 306.5,-164.091"/>
<polygon fill="midnightblue" stroke="midnightblue" points="310,-163.845 306.5,-153.845 303,-163.845 310,-163.845"/>
</g>
<!-- Node3 -->
<g id="node3" class="node"><title>Node3</title>
<g id="a_node3"><a xlink:href="XBotCommunicationInterface_8h.html" target="_top" xlink:title="XCM/XBotCommunicationInterface.h">
<polygon fill="none" stroke="black" points="0,-62 0,-81 179,-81 179,-62 0,-62"/>
<text text-anchor="middle" x="89.5" y="-69" font-family="Helvetica,sans-Serif" font-size="10.00">XCM/XBotCommunicationInterface.h</text>
</a>
</g>
</g>
<!-- Node2&#45;&gt;Node3 -->
<g id="edge2" class="edge"><title>Node2&#45;&gt;Node3</title>
<path fill="none" stroke="midnightblue" d="M259.681,-123.476C220.277,-111.673 164.618,-95.0009 127.822,-83.9789"/>
<polygon fill="midnightblue" stroke="midnightblue" points="128.556,-80.5453 117.973,-81.0287 126.548,-87.251 128.556,-80.5453"/>
</g>
<!-- Node5 -->
<g id="node5" class="node"><title>Node5</title>
<g id="a_node5"><a xlink:href="IXBotInit_8h.html" target="_top" xlink:title="XBotCore&#45;interfaces\l/IXBotInit.h">
<polygon fill="none" stroke="black" points="201,-56.5 201,-86.5 306,-86.5 306,-56.5 201,-56.5"/>
<text text-anchor="start" x="209" y="-74.5" font-family="Helvetica,sans-Serif" font-size="10.00">XBotCore&#45;interfaces</text>
<text text-anchor="middle" x="253.5" y="-63.5" font-family="Helvetica,sans-Serif" font-size="10.00">/IXBotInit.h</text>
</a>
</g>
</g>
<!-- Node2&#45;&gt;Node5 -->
<g id="edge4" class="edge"><title>Node2&#45;&gt;Node5</title>
<path fill="none" stroke="midnightblue" d="M295,-123.396C288.124,-114.963 279.239,-104.067 271.456,-94.5216"/>
<polygon fill="midnightblue" stroke="midnightblue" points="274.01,-92.1149 264.978,-86.5765 268.585,-96.5385 274.01,-92.1149"/>
</g>
<!-- Node7 -->
<g id="node7" class="node"><title>Node7</title>
<polygon fill="none" stroke="#bfbfbf" points="324.5,-62 324.5,-81 394.5,-81 394.5,-62 324.5,-62"/>
<text text-anchor="middle" x="359.5" y="-69" font-family="Helvetica,sans-Serif" font-size="10.00">yarp/os/all.h</text>
</g>
<!-- Node2&#45;&gt;Node7 -->
<g id="edge6" class="edge"><title>Node2&#45;&gt;Node7</title>
<path fill="none" stroke="midnightblue" d="M318,-123.396C326.182,-113.361 337.209,-99.8382 345.839,-89.2535"/>
<polygon fill="midnightblue" stroke="midnightblue" points="348.804,-91.1565 352.411,-81.1945 343.379,-86.7329 348.804,-91.1565"/>
</g>
<!-- Node8 -->
<g id="node8" class="node"><title>Node8</title>
<polygon fill="none" stroke="#bfbfbf" points="413,-62 413,-81 488,-81 488,-62 413,-62"/>
<text text-anchor="middle" x="450.5" y="-69" font-family="Helvetica,sans-Serif" font-size="10.00">yarp/dev/all.h</text>
</g>
<!-- Node2&#45;&gt;Node8 -->
<g id="edge7" class="edge"><title>Node2&#45;&gt;Node8</title>
<path fill="none" stroke="midnightblue" d="M337.746,-123.396C362.9,-112.041 397.951,-96.2201 422.268,-85.2437"/>
<polygon fill="midnightblue" stroke="midnightblue" points="423.979,-88.3113 431.654,-81.007 421.099,-81.9312 423.979,-88.3113"/>
</g>
<!-- Node4 -->
<g id="node4" class="node"><title>Node4</title>
<polygon fill="none" stroke="#bfbfbf" points="11.5,-0.5 11.5,-19.5 163.5,-19.5 163.5,-0.5 11.5,-0.5"/>
<text text-anchor="middle" x="87.5" y="-7.5" font-family="Helvetica,sans-Serif" font-size="10.00">XBotInterface/RobotInterface.h</text>
</g>
<!-- Node3&#45;&gt;Node4 -->
<g id="edge3" class="edge"><title>Node3&#45;&gt;Node4</title>
<path fill="none" stroke="midnightblue" d="M89.2134,-61.9751C88.9313,-53.5803 88.4909,-40.4806 88.1273,-29.6631"/>
<polygon fill="midnightblue" stroke="midnightblue" points="91.6201,-29.3858 87.786,-19.5091 84.624,-29.6211 91.6201,-29.3858"/>
</g>
<!-- Node6 -->
<g id="node6" class="node"><title>Node6</title>
<polygon fill="none" stroke="#bfbfbf" points="181.5,-0.5 181.5,-19.5 329.5,-19.5 329.5,-0.5 181.5,-0.5"/>
<text text-anchor="middle" x="255.5" y="-7.5" font-family="Helvetica,sans-Serif" font-size="10.00">XBotInterface/XBotInterface.h</text>
</g>
<!-- Node5&#45;&gt;Node6 -->
<g id="edge5" class="edge"><title>Node5&#45;&gt;Node6</title>
<path fill="none" stroke="midnightblue" d="M253.974,-56.3993C254.241,-48.4664 254.577,-38.458 254.866,-29.8583"/>
<polygon fill="midnightblue" stroke="midnightblue" points="258.371,-29.7697 255.209,-19.6578 251.375,-29.5345 258.371,-29.7697"/>
</g>
</g>
</svg>
