<?xml version="1.0" encoding="UTF-8" standalone="no"?>
<!DOCTYPE svg PUBLIC "-//W3C//DTD SVG 1.1//EN"
 "http://www.w3.org/Graphics/SVG/1.1/DTD/svg11.dtd">
<!-- Generated by graphviz version 2.38.0 (20140413.2041)
 -->
<!-- Title: /home/lucamuratore/advr&#45;superbuild/external/XCM/include/XCM/CommunicationInterfaceROS.h Pages: 1 -->
<svg width="1189pt" height="173pt"
 viewBox="0.00 0.00 1188.50 173.00" xmlns="http://www.w3.org/2000/svg" xmlns:xlink="http://www.w3.org/1999/xlink">
<g id="graph0" class="graph" transform="scale(1 1) rotate(0) translate(4 169)">
<title>/home/lucamuratore/advr&#45;superbuild/external/XCM/include/XCM/CommunicationInterfaceROS.h</title>
<!-- Node1 -->
<g id="node1" class="node"><title>Node1</title>
<polygon fill="#bfbfbf" stroke="black" points="436,-123.5 436,-164.5 677,-164.5 677,-123.5 436,-123.5"/>
<text text-anchor="start" x="444" y="-152.5" font-family="Helvetica,sans-Serif" font-size="10.00">/home/lucamuratore</text>
<text text-anchor="start" x="444" y="-141.5" font-family="Helvetica,sans-Serif" font-size="10.00">/advr&#45;superbuild/external</text>
<text text-anchor="middle" x="556.5" y="-130.5" font-family="Helvetica,sans-Serif" font-size="10.00">/XCM/include/XCM/CommunicationInterfaceROS.h</text>
</g>
<!-- Node2 -->
<g id="node2" class="node"><title>Node2</title>
<g id="a_node2"><a xlink:href="XBotCommunicationInterface_8h.html" target="_top" xlink:title="XCM/XBotCommunicationInterface.h">
<polygon fill="none" stroke="black" points="0,-62 0,-81 179,-81 179,-62 0,-62"/>
<text text-anchor="middle" x="89.5" y="-69" font-family="Helvetica,sans-Serif" font-size="10.00">XCM/XBotCommunicationInterface.h</text>
</a>
</g>
</g>
<!-- Node1&#45;&gt;Node2 -->
<g id="edge1" class="edge"><title>Node1&#45;&gt;Node2</title>
<path fill="none" stroke="midnightblue" d="M435.932,-124.799C346.754,-111.336 228.628,-93.5033 155.909,-82.5253"/>
<polygon fill="midnightblue" stroke="midnightblue" points="156.368,-79.055 145.957,-81.023 155.323,-85.9766 156.368,-79.055"/>
</g>
<!-- Node4 -->
<g id="node4" class="node"><title>Node4</title>
<polygon fill="none" stroke="#bfbfbf" points="197,-62 197,-81 252,-81 252,-62 197,-62"/>
<text text-anchor="middle" x="224.5" y="-69" font-family="Helvetica,sans-Serif" font-size="10.00">ros/ros.h</text>
</g>
<!-- Node1&#45;&gt;Node4 -->
<g id="edge3" class="edge"><title>Node1&#45;&gt;Node4</title>
<path fill="none" stroke="midnightblue" d="M435.818,-125.307C381.931,-116.076 317.979,-103.274 261.5,-87 258.917,-86.2556 256.262,-85.4018 253.619,-84.4892"/>
<polygon fill="midnightblue" stroke="midnightblue" points="254.829,-81.2053 244.236,-81.0169 252.4,-87.7702 254.829,-81.2053"/>
</g>
<!-- Node5 -->
<g id="node5" class="node"><title>Node5</title>
<polygon fill="none" stroke="#bfbfbf" points="270.5,-62 270.5,-81 370.5,-81 370.5,-62 270.5,-62"/>
<text text-anchor="middle" x="320.5" y="-69" font-family="Helvetica,sans-Serif" font-size="10.00">std_srvs/SetBool.h</text>
</g>
<!-- Node1&#45;&gt;Node5 -->
<g id="edge4" class="edge"><title>Node1&#45;&gt;Node5</title>
<path fill="none" stroke="midnightblue" d="M491.074,-123.455C448.613,-110.771 394.735,-94.676 359.016,-84.0058"/>
<polygon fill="midnightblue" stroke="midnightblue" points="359.581,-80.5218 348.997,-81.013 357.577,-87.2289 359.581,-80.5218"/>
</g>
<!-- Node6 -->
<g id="node6" class="node"><title>Node6</title>
<polygon fill="none" stroke="#bfbfbf" points="388.5,-62 388.5,-81 468.5,-81 468.5,-62 388.5,-62"/>
<text text-anchor="middle" x="428.5" y="-69" font-family="Helvetica,sans-Serif" font-size="10.00">boost/bind.hpp</text>
</g>
<!-- Node1&#45;&gt;Node6 -->
<g id="edge5" class="edge"><title>Node1&#45;&gt;Node6</title>
<path fill="none" stroke="midnightblue" d="M520.845,-123.362C499.329,-111.511 472.457,-96.7109 453.258,-86.1365"/>
<polygon fill="midnightblue" stroke="midnightblue" points="454.695,-82.9321 444.247,-81.1734 451.318,-89.0636 454.695,-82.9321"/>
</g>
<!-- Node7 -->
<g id="node7" class="node"><title>Node7</title>
<polygon fill="none" stroke="#bfbfbf" points="486.5,-56.5 486.5,-86.5 626.5,-86.5 626.5,-56.5 486.5,-56.5"/>
<text text-anchor="start" x="494.5" y="-74.5" font-family="Helvetica,sans-Serif" font-size="10.00">RobotInterfaceROS/Generic</text>
<text text-anchor="middle" x="556.5" y="-63.5" font-family="Helvetica,sans-Serif" font-size="10.00">ControlMessage.h</text>
</g>
<!-- Node1&#45;&gt;Node7 -->
<g id="edge6" class="edge"><title>Node1&#45;&gt;Node7</title>
<path fill="none" stroke="midnightblue" d="M556.5,-123.362C556.5,-115.226 556.5,-105.7 556.5,-97.105"/>
<polygon fill="midnightblue" stroke="midnightblue" points="560,-96.8916 556.5,-86.8916 553,-96.8916 560,-96.8916"/>
</g>
<!-- Node8 -->
<g id="node8" class="node"><title>Node8</title>
<polygon fill="none" stroke="#bfbfbf" points="644.5,-56.5 644.5,-86.5 784.5,-86.5 784.5,-56.5 644.5,-56.5"/>
<text text-anchor="start" x="652.5" y="-74.5" font-family="Helvetica,sans-Serif" font-size="10.00">RobotInterfaceROS/Generic</text>
<text text-anchor="middle" x="714.5" y="-63.5" font-family="Helvetica,sans-Serif" font-size="10.00">JointStateMessage.h</text>
</g>
<!-- Node1&#45;&gt;Node8 -->
<g id="edge7" class="edge"><title>Node1&#45;&gt;Node8</title>
<path fill="none" stroke="midnightblue" d="M600.512,-123.362C623.362,-113.166 651.107,-100.786 673.502,-90.7933"/>
<polygon fill="midnightblue" stroke="midnightblue" points="675.037,-93.9411 682.743,-86.67 672.185,-87.5486 675.037,-93.9411"/>
</g>
<!-- Node9 -->
<g id="node9" class="node"><title>Node9</title>
<polygon fill="none" stroke="#bfbfbf" points="803,-56.5 803,-86.5 924,-86.5 924,-56.5 803,-56.5"/>
<text text-anchor="start" x="811" y="-74.5" font-family="Helvetica,sans-Serif" font-size="10.00">robot_state_publisher</text>
<text text-anchor="middle" x="863.5" y="-63.5" font-family="Helvetica,sans-Serif" font-size="10.00">/robot_state_publisher.h</text>
</g>
<!-- Node1&#45;&gt;Node9 -->
<g id="edge8" class="edge"><title>Node1&#45;&gt;Node9</title>
<path fill="none" stroke="midnightblue" d="M641.609,-123.455C689.122,-112.545 747.623,-99.1103 792.626,-88.7757"/>
<polygon fill="midnightblue" stroke="midnightblue" points="793.631,-92.1359 802.594,-86.4865 792.065,-85.3135 793.631,-92.1359"/>
</g>
<!-- Node10 -->
<g id="node10" class="node"><title>Node10</title>
<polygon fill="none" stroke="#bfbfbf" points="942.5,-62 942.5,-81 1048.5,-81 1048.5,-62 942.5,-62"/>
<text text-anchor="middle" x="995.5" y="-69" font-family="Helvetica,sans-Serif" font-size="10.00">XCM/cmd_service.h</text>
</g>
<!-- Node1&#45;&gt;Node10 -->
<g id="edge9" class="edge"><title>Node1&#45;&gt;Node10</title>
<path fill="none" stroke="midnightblue" d="M677.05,-127.666C751.262,-117.589 848.193,-103.283 933.5,-87 939.274,-85.898 945.323,-84.6282 951.286,-83.3079"/>
<polygon fill="midnightblue" stroke="midnightblue" points="952.199,-86.6898 961.173,-81.059 950.646,-79.8642 952.199,-86.6898"/>
</g>
<!-- Node11 -->
<g id="node11" class="node"><title>Node11</title>
<polygon fill="none" stroke="#bfbfbf" points="1066.5,-62 1066.5,-81 1180.5,-81 1180.5,-62 1066.5,-62"/>
<text text-anchor="middle" x="1123.5" y="-69" font-family="Helvetica,sans-Serif" font-size="10.00">XCM/status_service.h</text>
</g>
<!-- Node1&#45;&gt;Node11 -->
<g id="edge10" class="edge"><title>Node1&#45;&gt;Node11</title>
<path fill="none" stroke="midnightblue" d="M677.198,-133.089C778.982,-123.875 928.3,-108.353 1057.5,-87 1064.19,-85.8947 1071.22,-84.5497 1078.1,-83.1294"/>
<polygon fill="midnightblue" stroke="midnightblue" points="1078.96,-86.5243 1088.01,-81.0139 1077.5,-79.6785 1078.96,-86.5243"/>
</g>
<!-- Node3 -->
<g id="node3" class="node"><title>Node3</title>
<polygon fill="none" stroke="#bfbfbf" points="13.5,-0.5 13.5,-19.5 165.5,-19.5 165.5,-0.5 13.5,-0.5"/>
<text text-anchor="middle" x="89.5" y="-7.5" font-family="Helvetica,sans-Serif" font-size="10.00">XBotInterface/RobotInterface.h</text>
</g>
<!-- Node2&#45;&gt;Node3 -->
<g id="edge2" class="edge"><title>Node2&#45;&gt;Node3</title>
<path fill="none" stroke="midnightblue" d="M89.5,-61.9751C89.5,-53.5803 89.5,-40.4806 89.5,-29.6631"/>
<polygon fill="midnightblue" stroke="midnightblue" points="93.0001,-29.5091 89.5,-19.5091 86.0001,-29.5091 93.0001,-29.5091"/>
</g>
</g>
</svg>
