<?xml version="1.0" encoding="UTF-8" standalone="no"?>
<!DOCTYPE svg PUBLIC "-//W3C//DTD SVG 1.1//EN"
 "http://www.w3.org/Graphics/SVG/1.1/DTD/svg11.dtd">
<!-- Generated by graphviz version 2.38.0 (20140413.2041)
 -->
<!-- Title: /home/lucamuratore/advr&#45;superbuild/external/XCM/include/XCM/XBotYARP/CommunicationInterfaceYARP.h Pages: 1 -->
<svg width="496pt" height="184pt"
 viewBox="0.00 0.00 496.00 184.00" xmlns="http://www.w3.org/2000/svg" xmlns:xlink="http://www.w3.org/1999/xlink">
<g id="graph0" class="graph" transform="scale(1 1) rotate(0) translate(4 180)">
<title>/home/lucamuratore/advr&#45;superbuild/external/XCM/include/XCM/XBotYARP/CommunicationInterfaceYARP.h</title>
<!-- Node1 -->
<g id="node1" class="node"><title>Node1</title>
<polygon fill="#bfbfbf" stroke="black" points="225.5,-123.5 225.5,-175.5 387.5,-175.5 387.5,-123.5 225.5,-123.5"/>
<text text-anchor="start" x="233.5" y="-163.5" font-family="Helvetica,sans-Serif" font-size="10.00">/home/lucamuratore</text>
<text text-anchor="start" x="233.5" y="-152.5" font-family="Helvetica,sans-Serif" font-size="10.00">/advr&#45;superbuild/external</text>
<text text-anchor="start" x="233.5" y="-141.5" font-family="Helvetica,sans-Serif" font-size="10.00">/XCM/include/XCM/XBotYARP</text>
<text text-anchor="middle" x="306.5" y="-130.5" font-family="Helvetica,sans-Serif" font-size="10.00">/CommunicationInterfaceYARP.h</text>
</g>
<!-- Node2 -->
<g id="node2" class="node"><title>Node2</title>
<g id="a_node2"><a xlink:href="XBotCommunicationInterface_8h.html" target="_top" xlink:title="XCM/XBotCommunicationInterface.h">
<polygon fill="none" stroke="black" points="0,-62 0,-81 179,-81 179,-62 0,-62"/>
<text text-anchor="middle" x="89.5" y="-69" font-family="Helvetica,sans-Serif" font-size="10.00">XCM/XBotCommunicationInterface.h</text>
</a>
</g>
</g>
<!-- Node1&#45;&gt;Node2 -->
<g id="edge1" class="edge"><title>Node1&#45;&gt;Node2</title>
<path fill="none" stroke="midnightblue" d="M234.845,-123.404C197.356,-110.274 153.208,-94.8124 123.488,-84.4035"/>
<polygon fill="midnightblue" stroke="midnightblue" points="124.587,-81.0801 113.992,-81.0779 122.273,-87.6867 124.587,-81.0801"/>
</g>
<!-- Node4 -->
<g id="node4" class="node"><title>Node4</title>
<g id="a_node4"><a xlink:href="IXBotInit_8h.html" target="_top" xlink:title="XBotCore&#45;interfaces\l/IXBotInit.h">
<polygon fill="none" stroke="black" points="201,-56.5 201,-86.5 306,-86.5 306,-56.5 201,-56.5"/>
<text text-anchor="start" x="209" y="-74.5" font-family="Helvetica,sans-Serif" font-size="10.00">XBotCore&#45;interfaces</text>
<text text-anchor="middle" x="253.5" y="-63.5" font-family="Helvetica,sans-Serif" font-size="10.00">/IXBotInit.h</text>
</a>
</g>
</g>
<!-- Node1&#45;&gt;Node4 -->
<g id="edge3" class="edge"><title>Node1&#45;&gt;Node4</title>
<path fill="none" stroke="midnightblue" d="M288.852,-123.193C282.528,-114.125 275.445,-103.968 269.288,-95.1401"/>
<polygon fill="midnightblue" stroke="midnightblue" points="272.095,-93.0457 263.504,-86.8453 266.353,-97.0498 272.095,-93.0457"/>
</g>
<!-- Node6 -->
<g id="node6" class="node"><title>Node6</title>
<polygon fill="none" stroke="#bfbfbf" points="324.5,-62 324.5,-81 394.5,-81 394.5,-62 324.5,-62"/>
<text text-anchor="middle" x="359.5" y="-69" font-family="Helvetica,sans-Serif" font-size="10.00">yarp/os/all.h</text>
</g>
<!-- Node1&#45;&gt;Node6 -->
<g id="edge5" class="edge"><title>Node1&#45;&gt;Node6</title>
<path fill="none" stroke="midnightblue" d="M324.148,-123.193C331.816,-112.198 340.6,-99.6017 347.494,-89.7158"/>
<polygon fill="midnightblue" stroke="midnightblue" points="350.577,-91.4134 353.427,-81.2089 344.836,-87.4093 350.577,-91.4134"/>
</g>
<!-- Node7 -->
<g id="node7" class="node"><title>Node7</title>
<polygon fill="none" stroke="#bfbfbf" points="413,-62 413,-81 488,-81 488,-62 413,-62"/>
<text text-anchor="middle" x="450.5" y="-69" font-family="Helvetica,sans-Serif" font-size="10.00">yarp/dev/all.h</text>
</g>
<!-- Node1&#45;&gt;Node7 -->
<g id="edge6" class="edge"><title>Node1&#45;&gt;Node7</title>
<path fill="none" stroke="midnightblue" d="M354.05,-123.404C377.846,-110.845 405.685,-96.1525 425.32,-85.7892"/>
<polygon fill="midnightblue" stroke="midnightblue" points="427.037,-88.8409 434.247,-81.0779 423.77,-82.6502 427.037,-88.8409"/>
</g>
<!-- Node3 -->
<g id="node3" class="node"><title>Node3</title>
<polygon fill="none" stroke="#bfbfbf" points="11.5,-0.5 11.5,-19.5 163.5,-19.5 163.5,-0.5 11.5,-0.5"/>
<text text-anchor="middle" x="87.5" y="-7.5" font-family="Helvetica,sans-Serif" font-size="10.00">XBotInterface/RobotInterface.h</text>
</g>
<!-- Node2&#45;&gt;Node3 -->
<g id="edge2" class="edge"><title>Node2&#45;&gt;Node3</title>
<path fill="none" stroke="midnightblue" d="M89.2134,-61.9751C88.9313,-53.5803 88.4909,-40.4806 88.1273,-29.6631"/>
<polygon fill="midnightblue" stroke="midnightblue" points="91.6201,-29.3858 87.786,-19.5091 84.624,-29.6211 91.6201,-29.3858"/>
</g>
<!-- Node5 -->
<g id="node5" class="node"><title>Node5</title>
<polygon fill="none" stroke="#bfbfbf" points="181.5,-0.5 181.5,-19.5 329.5,-19.5 329.5,-0.5 181.5,-0.5"/>
<text text-anchor="middle" x="255.5" y="-7.5" font-family="Helvetica,sans-Serif" font-size="10.00">XBotInterface/XBotInterface.h</text>
</g>
<!-- Node4&#45;&gt;Node5 -->
<g id="edge4" class="edge"><title>Node4&#45;&gt;Node5</title>
<path fill="none" stroke="midnightblue" d="M253.974,-56.3993C254.241,-48.4664 254.577,-38.458 254.866,-29.8583"/>
<polygon fill="midnightblue" stroke="midnightblue" points="258.371,-29.7697 255.209,-19.6578 251.375,-29.5345 258.371,-29.7697"/>
</g>
</g>
</svg>
