<?xml version="1.0" encoding="UTF-8" standalone="no"?>
<!DOCTYPE svg PUBLIC "-//W3C//DTD SVG 1.1//EN"
 "http://www.w3.org/Graphics/SVG/1.1/DTD/svg11.dtd">
<!-- Generated by graphviz version 2.38.0 (20140413.2041)
 -->
<!-- Title: /home/lucamuratore/advr&#45;superbuild/external/XCM/include/XCM/CommunicationInterfaceROS.h Pages: 1 -->
<svg width="1547pt" height="484pt"
 viewBox="0.00 0.00 1547.00 484.00" xmlns="http://www.w3.org/2000/svg" xmlns:xlink="http://www.w3.org/1999/xlink">
<g id="graph0" class="graph" transform="scale(1 1) rotate(0) translate(4 480)">
<title>/home/lucamuratore/advr&#45;superbuild/external/XCM/include/XCM/CommunicationInterfaceROS.h</title>
<!-- Node1 -->
<g id="node1" class="node"><title>Node1</title>
<polygon fill="#bfbfbf" stroke="black" points="874,-434.5 874,-475.5 1115,-475.5 1115,-434.5 874,-434.5"/>
<text text-anchor="start" x="882" y="-463.5" font-family="Helvetica,sans-Serif" font-size="10.00">/home/lucamuratore</text>
<text text-anchor="start" x="882" y="-452.5" font-family="Helvetica,sans-Serif" font-size="10.00">/advr&#45;superbuild/external</text>
<text text-anchor="middle" x="994.5" y="-441.5" font-family="Helvetica,sans-Serif" font-size="10.00">/XCM/include/XCM/CommunicationInterfaceROS.h</text>
</g>
<!-- Node2 -->
<g id="node2" class="node"><title>Node2</title>
<g id="a_node2"><a xlink:href="XDomainCommunication_8h.html" target="_top" xlink:title="/home/lucamuratore\l/advr&#45;superbuild/external\l/XCM/include/XBotCore&#45;interfaces\l/XDomainCommunication.h">
<polygon fill="none" stroke="black" points="819,-345.5 819,-397.5 986,-397.5 986,-345.5 819,-345.5"/>
<text text-anchor="start" x="827" y="-385.5" font-family="Helvetica,sans-Serif" font-size="10.00">/home/lucamuratore</text>
<text text-anchor="start" x="827" y="-374.5" font-family="Helvetica,sans-Serif" font-size="10.00">/advr&#45;superbuild/external</text>
<text text-anchor="start" x="827" y="-363.5" font-family="Helvetica,sans-Serif" font-size="10.00">/XCM/include/XBotCore&#45;interfaces</text>
<text text-anchor="middle" x="902.5" y="-352.5" font-family="Helvetica,sans-Serif" font-size="10.00">/XDomainCommunication.h</text>
</a>
</g>
</g>
<!-- Node1&#45;&gt;Node2 -->
<g id="edge1" class="edge"><title>Node1&#45;&gt;Node2</title>
<path fill="none" stroke="midnightblue" d="M964.614,-427.525C953.767,-417.916 941.552,-407.095 930.842,-397.607"/>
<polygon fill="midnightblue" stroke="midnightblue" points="962.423,-430.26 972.229,-434.271 967.065,-425.02 962.423,-430.26"/>
</g>
<!-- Node24 -->
<g id="node24" class="node"><title>Node24</title>
<g id="a_node24"><a xlink:href="CommunicationInterfaceROS_8cpp.html" target="_top" xlink:title="/home/lucamuratore\l/advr&#45;superbuild/external\l/XCM/src/CommunicationInterface\lROS.cpp">
<polygon fill="none" stroke="black" points="1003.5,-345.5 1003.5,-397.5 1171.5,-397.5 1171.5,-345.5 1003.5,-345.5"/>
<text text-anchor="start" x="1011.5" y="-385.5" font-family="Helvetica,sans-Serif" font-size="10.00">/home/lucamuratore</text>
<text text-anchor="start" x="1011.5" y="-374.5" font-family="Helvetica,sans-Serif" font-size="10.00">/advr&#45;superbuild/external</text>
<text text-anchor="start" x="1011.5" y="-363.5" font-family="Helvetica,sans-Serif" font-size="10.00">/XCM/src/CommunicationInterface</text>
<text text-anchor="middle" x="1087.5" y="-352.5" font-family="Helvetica,sans-Serif" font-size="10.00">ROS.cpp</text>
</a>
</g>
</g>
<!-- Node1&#45;&gt;Node24 -->
<g id="edge28" class="edge"><title>Node1&#45;&gt;Node24</title>
<path fill="none" stroke="midnightblue" d="M1024.71,-427.525C1035.68,-417.916 1048.02,-407.095 1058.85,-397.607"/>
<polygon fill="midnightblue" stroke="midnightblue" points="1022.23,-425.048 1017.01,-434.271 1026.84,-430.313 1022.23,-425.048"/>
</g>
<!-- Node3 -->
<g id="node3" class="node"><title>Node3</title>
<g id="a_node3"><a xlink:href="All_8h.html" target="_top" xlink:title="/home/lucamuratore\l/advr&#45;superbuild/external\l/XCM/include/XBotCore&#45;interfaces/All.h">
<polygon fill="none" stroke="black" points="365.5,-267.5 365.5,-308.5 555.5,-308.5 555.5,-267.5 365.5,-267.5"/>
<text text-anchor="start" x="373.5" y="-296.5" font-family="Helvetica,sans-Serif" font-size="10.00">/home/lucamuratore</text>
<text text-anchor="start" x="373.5" y="-285.5" font-family="Helvetica,sans-Serif" font-size="10.00">/advr&#45;superbuild/external</text>
<text text-anchor="middle" x="460.5" y="-274.5" font-family="Helvetica,sans-Serif" font-size="10.00">/XCM/include/XBotCore&#45;interfaces/All.h</text>
</a>
</g>
</g>
<!-- Node2&#45;&gt;Node3 -->
<g id="edge2" class="edge"><title>Node2&#45;&gt;Node3</title>
<path fill="none" stroke="midnightblue" d="M808.993,-353.258C734.502,-339.523 630.641,-320.372 555.708,-306.555"/>
<polygon fill="midnightblue" stroke="midnightblue" points="808.375,-356.703 818.844,-355.075 809.644,-349.819 808.375,-356.703"/>
</g>
<!-- Node5 -->
<g id="node5" class="node"><title>Node5</title>
<g id="a_node5"><a xlink:href="NRTDeployer_8h.html" target="_top" xlink:title="/home/lucamuratore\l/advr&#45;superbuild/external\l/XCM/include/XCM/NRTDeployer.h">
<polygon fill="none" stroke="black" points="78,-95 78,-136 251,-136 251,-95 78,-95"/>
<text text-anchor="start" x="86" y="-124" font-family="Helvetica,sans-Serif" font-size="10.00">/home/lucamuratore</text>
<text text-anchor="start" x="86" y="-113" font-family="Helvetica,sans-Serif" font-size="10.00">/advr&#45;superbuild/external</text>
<text text-anchor="middle" x="164.5" y="-102" font-family="Helvetica,sans-Serif" font-size="10.00">/XCM/include/XCM/NRTDeployer.h</text>
</a>
</g>
</g>
<!-- Node2&#45;&gt;Node5 -->
<g id="edge11" class="edge"><title>Node2&#45;&gt;Node5</title>
<path fill="none" stroke="midnightblue" d="M808.65,-367.383C674.12,-361.664 434.113,-346.437 356.5,-309 272.747,-268.601 204.197,-176.384 177.048,-136.024"/>
<polygon fill="midnightblue" stroke="midnightblue" points="808.808,-370.893 818.945,-367.811 809.099,-363.899 808.808,-370.893"/>
</g>
<!-- Node10 -->
<g id="node10" class="node"><title>Node10</title>
<g id="a_node10"><a xlink:href="XBotCommunicationPlugin_8h.html" target="_top" xlink:title="/home/lucamuratore\l/advr&#45;superbuild/external\l/XCM/include/XBotPlugin\l/XBotCommunicationPlugin.h">
<polygon fill="none" stroke="black" points="792,-89.5 792,-141.5 937,-141.5 937,-89.5 792,-89.5"/>
<text text-anchor="start" x="800" y="-129.5" font-family="Helvetica,sans-Serif" font-size="10.00">/home/lucamuratore</text>
<text text-anchor="start" x="800" y="-118.5" font-family="Helvetica,sans-Serif" font-size="10.00">/advr&#45;superbuild/external</text>
<text text-anchor="start" x="800" y="-107.5" font-family="Helvetica,sans-Serif" font-size="10.00">/XCM/include/XBotPlugin</text>
<text text-anchor="middle" x="864.5" y="-96.5" font-family="Helvetica,sans-Serif" font-size="10.00">/XBotCommunicationPlugin.h</text>
</a>
</g>
</g>
<!-- Node2&#45;&gt;Node10 -->
<g id="edge9" class="edge"><title>Node2&#45;&gt;Node10</title>
<path fill="none" stroke="midnightblue" d="M897.206,-335.116C889.421,-283.074 875.07,-187.154 868.267,-141.681"/>
<polygon fill="midnightblue" stroke="midnightblue" points="893.776,-335.845 898.717,-345.217 900.699,-334.809 893.776,-335.845"/>
</g>
<!-- Node12 -->
<g id="node12" class="node"><title>Node12</title>
<g id="a_node12"><a xlink:href="XBotCommunicationHandler_8h.html" target="_top" xlink:title="/home/lucamuratore\l/advr&#45;superbuild/external\l/XCM/include/XCM/XBotCommunication\lHandler.h">
<polygon fill="none" stroke="black" points="911.5,-178.5 911.5,-230.5 1105.5,-230.5 1105.5,-178.5 911.5,-178.5"/>
<text text-anchor="start" x="919.5" y="-218.5" font-family="Helvetica,sans-Serif" font-size="10.00">/home/lucamuratore</text>
<text text-anchor="start" x="919.5" y="-207.5" font-family="Helvetica,sans-Serif" font-size="10.00">/advr&#45;superbuild/external</text>
<text text-anchor="start" x="919.5" y="-196.5" font-family="Helvetica,sans-Serif" font-size="10.00">/XCM/include/XCM/XBotCommunication</text>
<text text-anchor="middle" x="1008.5" y="-185.5" font-family="Helvetica,sans-Serif" font-size="10.00">Handler.h</text>
</a>
</g>
</g>
<!-- Node2&#45;&gt;Node12 -->
<g id="edge12" class="edge"><title>Node2&#45;&gt;Node12</title>
<path fill="none" stroke="midnightblue" d="M910.85,-335.254C916.905,-314.247 926.512,-287.725 940.5,-267 949.672,-253.411 962.471,-240.801 974.494,-230.582"/>
<polygon fill="midnightblue" stroke="midnightblue" points="907.427,-334.505 908.16,-345.074 914.178,-336.355 907.427,-334.505"/>
</g>
<!-- Node15 -->
<g id="node15" class="node"><title>Node15</title>
<g id="a_node15"><a xlink:href="XBotControlPlugin_8h.html" target="_top" xlink:title="/home/lucamuratore\l/advr&#45;superbuild/external\l/XCM/include/XCM/XBotControlPlugin.h">
<polygon fill="none" stroke="black" points="640,-267.5 640,-308.5 833,-308.5 833,-267.5 640,-267.5"/>
<text text-anchor="start" x="648" y="-296.5" font-family="Helvetica,sans-Serif" font-size="10.00">/home/lucamuratore</text>
<text text-anchor="start" x="648" y="-285.5" font-family="Helvetica,sans-Serif" font-size="10.00">/advr&#45;superbuild/external</text>
<text text-anchor="middle" x="736.5" y="-274.5" font-family="Helvetica,sans-Serif" font-size="10.00">/XCM/include/XCM/XBotControlPlugin.h</text>
</a>
</g>
</g>
<!-- Node2&#45;&gt;Node15 -->
<g id="edge16" class="edge"><title>Node2&#45;&gt;Node15</title>
<path fill="none" stroke="midnightblue" d="M842.124,-340.857C820.249,-330.118 796.104,-318.263 776.427,-308.603"/>
<polygon fill="midnightblue" stroke="midnightblue" points="840.821,-344.117 851.34,-345.382 843.906,-337.833 840.821,-344.117"/>
</g>
<!-- Node19 -->
<g id="node19" class="node"><title>Node19</title>
<g id="a_node19"><a xlink:href="XBotModuleHandler_8h.html" target="_top" xlink:title="/home/lucamuratore\l/advr&#45;superbuild/external\l/XCM/include/XCM/XBotModuleHandler.h">
<polygon fill="none" stroke="black" points="1131.5,-267.5 1131.5,-308.5 1331.5,-308.5 1331.5,-267.5 1131.5,-267.5"/>
<text text-anchor="start" x="1139.5" y="-296.5" font-family="Helvetica,sans-Serif" font-size="10.00">/home/lucamuratore</text>
<text text-anchor="start" x="1139.5" y="-285.5" font-family="Helvetica,sans-Serif" font-size="10.00">/advr&#45;superbuild/external</text>
<text text-anchor="middle" x="1231.5" y="-274.5" font-family="Helvetica,sans-Serif" font-size="10.00">/XCM/include/XCM/XBotModuleHandler.h</text>
</a>
</g>
</g>
<!-- Node2&#45;&gt;Node19 -->
<g id="edge22" class="edge"><title>Node2&#45;&gt;Node19</title>
<path fill="none" stroke="midnightblue" d="M996.043,-344.634C1050.56,-330.738 1102.72,-318.379 1145.19,-308.557"/>
<polygon fill="midnightblue" stroke="midnightblue" points="995.02,-341.283 986.2,-347.154 996.756,-348.065 995.02,-341.283"/>
</g>
<!-- Node21 -->
<g id="node21" class="node"><title>Node21</title>
<g id="a_node21"><a xlink:href="XBotXDDP_8h.html" target="_top" xlink:title="/home/lucamuratore\l/advr&#45;superbuild/external\l/XCM/include/XCM/XBotXDDP.h">
<polygon fill="none" stroke="black" points="950,-267.5 950,-308.5 1113,-308.5 1113,-267.5 950,-267.5"/>
<text text-anchor="start" x="958" y="-296.5" font-family="Helvetica,sans-Serif" font-size="10.00">/home/lucamuratore</text>
<text text-anchor="start" x="958" y="-285.5" font-family="Helvetica,sans-Serif" font-size="10.00">/advr&#45;superbuild/external</text>
<text text-anchor="middle" x="1031.5" y="-274.5" font-family="Helvetica,sans-Serif" font-size="10.00">/XCM/include/XCM/XBotXDDP.h</text>
</a>
</g>
</g>
<!-- Node2&#45;&gt;Node21 -->
<g id="edge24" class="edge"><title>Node2&#45;&gt;Node21</title>
<path fill="none" stroke="midnightblue" d="M950.754,-340.014C967.319,-329.549 985.412,-318.118 1000.26,-308.734"/>
<polygon fill="midnightblue" stroke="midnightblue" points="948.842,-337.082 942.257,-345.382 952.58,-343 948.842,-337.082"/>
</g>
<!-- Node23 -->
<g id="node23" class="node"><title>Node23</title>
<g id="a_node23"><a xlink:href="XDomainCommunication_8cpp.html" target="_top" xlink:title="/home/lucamuratore\l/advr&#45;superbuild/external\l/XCM/src/XDomainCommunication.cpp">
<polygon fill="none" stroke="black" points="1350,-267.5 1350,-308.5 1539,-308.5 1539,-267.5 1350,-267.5"/>
<text text-anchor="start" x="1358" y="-296.5" font-family="Helvetica,sans-Serif" font-size="10.00">/home/lucamuratore</text>
<text text-anchor="start" x="1358" y="-285.5" font-family="Helvetica,sans-Serif" font-size="10.00">/advr&#45;superbuild/external</text>
<text text-anchor="middle" x="1444.5" y="-274.5" font-family="Helvetica,sans-Serif" font-size="10.00">/XCM/src/XDomainCommunication.cpp</text>
</a>
</g>
</g>
<!-- Node2&#45;&gt;Node23 -->
<g id="edge27" class="edge"><title>Node2&#45;&gt;Node23</title>
<path fill="none" stroke="midnightblue" d="M996.268,-344.793C1148.23,-316.895 1190.84,-331.134 1340.5,-309 1343.59,-308.543 1346.73,-308.058 1349.9,-307.551"/>
<polygon fill="midnightblue" stroke="midnightblue" points="995.285,-341.416 986.098,-346.692 996.57,-348.297 995.285,-341.416"/>
</g>
<!-- Node4 -->
<g id="node4" class="node"><title>Node4</title>
<g id="a_node4"><a xlink:href="XBotPluginHandler_8h.html" target="_top" xlink:title="/home/lucamuratore\l/advr&#45;superbuild/external\l/XCM/include/XCM/XBotPluginHandler.h">
<polygon fill="none" stroke="black" points="296,-184 296,-225 491,-225 491,-184 296,-184"/>
<text text-anchor="start" x="304" y="-213" font-family="Helvetica,sans-Serif" font-size="10.00">/home/lucamuratore</text>
<text text-anchor="start" x="304" y="-202" font-family="Helvetica,sans-Serif" font-size="10.00">/advr&#45;superbuild/external</text>
<text text-anchor="middle" x="393.5" y="-191" font-family="Helvetica,sans-Serif" font-size="10.00">/XCM/include/XCM/XBotPluginHandler.h</text>
</a>
</g>
</g>
<!-- Node3&#45;&gt;Node4 -->
<g id="edge3" class="edge"><title>Node3&#45;&gt;Node4</title>
<path fill="none" stroke="midnightblue" d="M437.797,-259.383C428.527,-248.107 418.022,-235.329 409.569,-225.047"/>
<polygon fill="midnightblue" stroke="midnightblue" points="435.227,-261.769 444.281,-267.271 440.634,-257.324 435.227,-261.769"/>
</g>
<!-- Node4&#45;&gt;Node5 -->
<g id="edge4" class="edge"><title>Node4&#45;&gt;Node5</title>
<path fill="none" stroke="midnightblue" d="M332.607,-180.366C296.284,-166.566 250.664,-149.235 216.116,-136.11"/>
<polygon fill="midnightblue" stroke="midnightblue" points="331.517,-183.696 342.108,-183.976 334.003,-177.152 331.517,-183.696"/>
</g>
<!-- Node8 -->
<g id="node8" class="node"><title>Node8</title>
<g id="a_node8"><a xlink:href="DummyMain_8cpp.html" target="_top" xlink:title="/home/lucamuratore\l/advr&#45;superbuild/external\l/XCM/src/DummyMain.cpp">
<polygon fill="none" stroke="black" points="450.5,-95 450.5,-136 586.5,-136 586.5,-95 450.5,-95"/>
<text text-anchor="start" x="458.5" y="-124" font-family="Helvetica,sans-Serif" font-size="10.00">/home/lucamuratore</text>
<text text-anchor="start" x="458.5" y="-113" font-family="Helvetica,sans-Serif" font-size="10.00">/advr&#45;superbuild/external</text>
<text text-anchor="middle" x="518.5" y="-102" font-family="Helvetica,sans-Serif" font-size="10.00">/XCM/src/DummyMain.cpp</text>
</a>
</g>
</g>
<!-- Node4&#45;&gt;Node8 -->
<g id="edge7" class="edge"><title>Node4&#45;&gt;Node8</title>
<path fill="none" stroke="midnightblue" d="M429.784,-178.246C448.991,-164.878 472.233,-148.702 490.109,-136.26"/>
<polygon fill="midnightblue" stroke="midnightblue" points="427.761,-175.39 421.552,-183.976 431.76,-181.136 427.761,-175.39"/>
</g>
<!-- Node9 -->
<g id="node9" class="node"><title>Node9</title>
<g id="a_node9"><a xlink:href="XBotPluginHandler_8cpp.html" target="_top" xlink:title="/home/lucamuratore\l/advr&#45;superbuild/external\l/XCM/src/XBotPluginHandler.cpp">
<polygon fill="none" stroke="black" points="269,-95 269,-136 432,-136 432,-95 269,-95"/>
<text text-anchor="start" x="277" y="-124" font-family="Helvetica,sans-Serif" font-size="10.00">/home/lucamuratore</text>
<text text-anchor="start" x="277" y="-113" font-family="Helvetica,sans-Serif" font-size="10.00">/advr&#45;superbuild/external</text>
<text text-anchor="middle" x="350.5" y="-102" font-family="Helvetica,sans-Serif" font-size="10.00">/XCM/src/XBotPluginHandler.cpp</text>
</a>
</g>
</g>
<!-- Node4&#45;&gt;Node9 -->
<g id="edge8" class="edge"><title>Node4&#45;&gt;Node9</title>
<path fill="none" stroke="midnightblue" d="M379.195,-174.558C372.963,-161.949 365.819,-147.495 360.219,-136.164"/>
<polygon fill="midnightblue" stroke="midnightblue" points="376.174,-176.344 383.743,-183.758 382.449,-173.243 376.174,-176.344"/>
</g>
<!-- Node6 -->
<g id="node6" class="node"><title>Node6</title>
<g id="a_node6"><a xlink:href="NRTDeployer_8cpp.html" target="_top" xlink:title="/home/lucamuratore\l/advr&#45;superbuild/external\l/XCM/src/NRTDeployer.cpp">
<polygon fill="none" stroke="black" points="179.5,-6 179.5,-47 319.5,-47 319.5,-6 179.5,-6"/>
<text text-anchor="start" x="187.5" y="-35" font-family="Helvetica,sans-Serif" font-size="10.00">/home/lucamuratore</text>
<text text-anchor="start" x="187.5" y="-24" font-family="Helvetica,sans-Serif" font-size="10.00">/advr&#45;superbuild/external</text>
<text text-anchor="middle" x="249.5" y="-13" font-family="Helvetica,sans-Serif" font-size="10.00">/XCM/src/NRTDeployer.cpp</text>
</a>
</g>
</g>
<!-- Node5&#45;&gt;Node6 -->
<g id="edge5" class="edge"><title>Node5&#45;&gt;Node6</title>
<path fill="none" stroke="midnightblue" d="M190.979,-87.3983C203.704,-74.3734 218.675,-59.0506 230.289,-47.1635"/>
<polygon fill="midnightblue" stroke="midnightblue" points="188.273,-85.1596 183.788,-94.7584 193.28,-90.0515 188.273,-85.1596"/>
</g>
<!-- Node7 -->
<g id="node7" class="node"><title>Node7</title>
<g id="a_node7"><a xlink:href="NRTDeployerMain_8cpp.html" target="_top" xlink:title="/home/lucamuratore\l/advr&#45;superbuild/external\l/XCM/src/NRTDeployerMain.cpp">
<polygon fill="none" stroke="black" points="0,-6 0,-47 161,-47 161,-6 0,-6"/>
<text text-anchor="start" x="8" y="-35" font-family="Helvetica,sans-Serif" font-size="10.00">/home/lucamuratore</text>
<text text-anchor="start" x="8" y="-24" font-family="Helvetica,sans-Serif" font-size="10.00">/advr&#45;superbuild/external</text>
<text text-anchor="middle" x="80.5" y="-13" font-family="Helvetica,sans-Serif" font-size="10.00">/XCM/src/NRTDeployerMain.cpp</text>
</a>
</g>
</g>
<!-- Node5&#45;&gt;Node7 -->
<g id="edge6" class="edge"><title>Node5&#45;&gt;Node7</title>
<path fill="none" stroke="midnightblue" d="M138.333,-87.3983C125.757,-74.3734 110.963,-59.0506 99.4855,-47.1635"/>
<polygon fill="midnightblue" stroke="midnightblue" points="135.975,-89.9954 145.439,-94.7584 141.011,-85.1332 135.975,-89.9954"/>
</g>
<!-- Node11 -->
<g id="node11" class="node"><title>Node11</title>
<g id="a_node11"><a xlink:href="XBotCommunicationPlugin_8cpp.html" target="_top" xlink:title="/home/lucamuratore\l/advr&#45;superbuild/external\l/XCM/src/XBotPlugin/XBotCommunication\lPlugin.cpp">
<polygon fill="none" stroke="black" points="763,-0.5 763,-52.5 966,-52.5 966,-0.5 763,-0.5"/>
<text text-anchor="start" x="771" y="-40.5" font-family="Helvetica,sans-Serif" font-size="10.00">/home/lucamuratore</text>
<text text-anchor="start" x="771" y="-29.5" font-family="Helvetica,sans-Serif" font-size="10.00">/advr&#45;superbuild/external</text>
<text text-anchor="start" x="771" y="-18.5" font-family="Helvetica,sans-Serif" font-size="10.00">/XCM/src/XBotPlugin/XBotCommunication</text>
<text text-anchor="middle" x="864.5" y="-7.5" font-family="Helvetica,sans-Serif" font-size="10.00">Plugin.cpp</text>
</a>
</g>
</g>
<!-- Node10&#45;&gt;Node11 -->
<g id="edge10" class="edge"><title>Node10&#45;&gt;Node11</title>
<path fill="none" stroke="midnightblue" d="M864.5,-79.1908C864.5,-70.2824 864.5,-60.8986 864.5,-52.6075"/>
<polygon fill="midnightblue" stroke="midnightblue" points="861,-79.336 864.5,-89.336 868,-79.336 861,-79.336"/>
</g>
<!-- Node12&#45;&gt;Node10 -->
<g id="edge13" class="edge"><title>Node12&#45;&gt;Node10</title>
<path fill="none" stroke="midnightblue" d="M958.134,-173.07C941.114,-162.788 922.316,-151.431 906.057,-141.607"/>
<polygon fill="midnightblue" stroke="midnightblue" points="956.48,-176.161 966.849,-178.336 960.1,-170.169 956.48,-176.161"/>
</g>
<!-- Node13 -->
<g id="node13" class="node"><title>Node13</title>
<g id="a_node13"><a xlink:href="XBotCommunicationHandler_8cpp.html" target="_top" xlink:title="/home/lucamuratore\l/advr&#45;superbuild/external\l/XCM/src/XBotCommunicationHandler.cpp">
<polygon fill="none" stroke="black" points="1164.5,-95 1164.5,-136 1368.5,-136 1368.5,-95 1164.5,-95"/>
<text text-anchor="start" x="1172.5" y="-124" font-family="Helvetica,sans-Serif" font-size="10.00">/home/lucamuratore</text>
<text text-anchor="start" x="1172.5" y="-113" font-family="Helvetica,sans-Serif" font-size="10.00">/advr&#45;superbuild/external</text>
<text text-anchor="middle" x="1266.5" y="-102" font-family="Helvetica,sans-Serif" font-size="10.00">/XCM/src/XBotCommunicationHandler.cpp</text>
</a>
</g>
</g>
<!-- Node12&#45;&gt;Node13 -->
<g id="edge14" class="edge"><title>Node12&#45;&gt;Node13</title>
<path fill="none" stroke="midnightblue" d="M1092.28,-175.25C1130.18,-162.469 1174.04,-147.678 1208.28,-136.134"/>
<polygon fill="midnightblue" stroke="midnightblue" points="1091.14,-171.941 1082.78,-178.453 1093.37,-178.574 1091.14,-171.941"/>
</g>
<!-- Node14 -->
<g id="node14" class="node"><title>Node14</title>
<g id="a_node14"><a xlink:href="XBotCommunicationMain_8cpp.html" target="_top" xlink:title="/home/lucamuratore\l/advr&#45;superbuild/external\l/XCM/src/XBotCommunicationMain.cpp">
<polygon fill="none" stroke="black" points="955,-95 955,-136 1146,-136 1146,-95 955,-95"/>
<text text-anchor="start" x="963" y="-124" font-family="Helvetica,sans-Serif" font-size="10.00">/home/lucamuratore</text>
<text text-anchor="start" x="963" y="-113" font-family="Helvetica,sans-Serif" font-size="10.00">/advr&#45;superbuild/external</text>
<text text-anchor="middle" x="1050.5" y="-102" font-family="Helvetica,sans-Serif" font-size="10.00">/XCM/src/XBotCommunicationMain.cpp</text>
</a>
</g>
</g>
<!-- Node12&#45;&gt;Node14 -->
<g id="edge15" class="edge"><title>Node12&#45;&gt;Node14</title>
<path fill="none" stroke="midnightblue" d="M1025.07,-169.169C1030.5,-157.933 1036.33,-145.842 1041.05,-136.082"/>
<polygon fill="midnightblue" stroke="midnightblue" points="1021.84,-167.809 1020.65,-178.336 1028.15,-170.852 1021.84,-167.809"/>
</g>
<!-- Node15&#45;&gt;Node4 -->
<g id="edge20" class="edge"><title>Node15&#45;&gt;Node4</title>
<path fill="none" stroke="midnightblue" d="M644.031,-265.08C600.48,-254.751 547.819,-242.253 500.5,-231 492.418,-229.078 483.994,-227.073 475.576,-225.069"/>
<polygon fill="midnightblue" stroke="midnightblue" points="643.498,-268.551 654.035,-267.453 645.113,-261.74 643.498,-268.551"/>
</g>
<!-- Node15&#45;&gt;Node10 -->
<g id="edge17" class="edge"><title>Node15&#45;&gt;Node10</title>
<path fill="none" stroke="midnightblue" d="M788.797,-262.286C802.235,-253.909 815.658,-243.455 825.5,-231 846.332,-204.637 856.358,-166.501 860.948,-141.607"/>
<polygon fill="midnightblue" stroke="midnightblue" points="786.826,-259.385 780.003,-267.49 790.391,-265.409 786.826,-259.385"/>
</g>
<!-- Node16 -->
<g id="node16" class="node"><title>Node16</title>
<g id="a_node16"><a xlink:href="XBotLoggingPlugin_8h.html" target="_top" xlink:title="/home/lucamuratore\l/advr&#45;superbuild/external\l/XCM/include/XBotPlugin\l/XBotLoggingPlugin.h">
<polygon fill="none" stroke="black" points="509.5,-178.5 509.5,-230.5 637.5,-230.5 637.5,-178.5 509.5,-178.5"/>
<text text-anchor="start" x="517.5" y="-218.5" font-family="Helvetica,sans-Serif" font-size="10.00">/home/lucamuratore</text>
<text text-anchor="start" x="517.5" y="-207.5" font-family="Helvetica,sans-Serif" font-size="10.00">/advr&#45;superbuild/external</text>
<text text-anchor="start" x="517.5" y="-196.5" font-family="Helvetica,sans-Serif" font-size="10.00">/XCM/include/XBotPlugin</text>
<text text-anchor="middle" x="573.5" y="-185.5" font-family="Helvetica,sans-Serif" font-size="10.00">/XBotLoggingPlugin.h</text>
</a>
</g>
</g>
<!-- Node15&#45;&gt;Node16 -->
<g id="edge18" class="edge"><title>Node15&#45;&gt;Node16</title>
<path fill="none" stroke="midnightblue" d="M688.355,-262.928C667.979,-252.74 644.242,-240.871 623.653,-230.576"/>
<polygon fill="midnightblue" stroke="midnightblue" points="686.948,-266.137 697.457,-267.479 690.078,-259.876 686.948,-266.137"/>
</g>
<!-- Node18 -->
<g id="node18" class="node"><title>Node18</title>
<g id="a_node18"><a xlink:href="XBotControlPlugin_8cpp.html" target="_top" xlink:title="/home/lucamuratore\l/advr&#45;superbuild/external\l/XCM/src/XBotControlPlugin.cpp">
<polygon fill="none" stroke="black" points="656,-184 656,-225 817,-225 817,-184 656,-184"/>
<text text-anchor="start" x="664" y="-213" font-family="Helvetica,sans-Serif" font-size="10.00">/home/lucamuratore</text>
<text text-anchor="start" x="664" y="-202" font-family="Helvetica,sans-Serif" font-size="10.00">/advr&#45;superbuild/external</text>
<text text-anchor="middle" x="736.5" y="-191" font-family="Helvetica,sans-Serif" font-size="10.00">/XCM/src/XBotControlPlugin.cpp</text>
</a>
</g>
</g>
<!-- Node15&#45;&gt;Node18 -->
<g id="edge21" class="edge"><title>Node15&#45;&gt;Node18</title>
<path fill="none" stroke="midnightblue" d="M736.5,-257.065C736.5,-246.382 736.5,-234.63 736.5,-225.047"/>
<polygon fill="midnightblue" stroke="midnightblue" points="733,-257.271 736.5,-267.271 740,-257.271 733,-257.271"/>
</g>
<!-- Node17 -->
<g id="node17" class="node"><title>Node17</title>
<g id="a_node17"><a xlink:href="XBotLoggingPlugin_8cpp.html" target="_top" xlink:title="/home/lucamuratore\l/advr&#45;superbuild/external\l/XCM/src/XBotPlugin/XBotLogging\lPlugin.cpp">
<polygon fill="none" stroke="black" points="605,-89.5 605,-141.5 774,-141.5 774,-89.5 605,-89.5"/>
<text text-anchor="start" x="613" y="-129.5" font-family="Helvetica,sans-Serif" font-size="10.00">/home/lucamuratore</text>
<text text-anchor="start" x="613" y="-118.5" font-family="Helvetica,sans-Serif" font-size="10.00">/advr&#45;superbuild/external</text>
<text text-anchor="start" x="613" y="-107.5" font-family="Helvetica,sans-Serif" font-size="10.00">/XCM/src/XBotPlugin/XBotLogging</text>
<text text-anchor="middle" x="689.5" y="-96.5" font-family="Helvetica,sans-Serif" font-size="10.00">Plugin.cpp</text>
</a>
</g>
</g>
<!-- Node16&#45;&gt;Node17 -->
<g id="edge19" class="edge"><title>Node16&#45;&gt;Node17</title>
<path fill="none" stroke="midnightblue" d="M615.208,-172.219C628.615,-162.164 643.286,-151.16 656.023,-141.607"/>
<polygon fill="midnightblue" stroke="midnightblue" points="612.952,-169.536 607.052,-178.336 617.152,-175.136 612.952,-169.536"/>
</g>
<!-- Node20 -->
<g id="node20" class="node"><title>Node20</title>
<g id="a_node20"><a xlink:href="XBotModuleHandler_8cpp.html" target="_top" xlink:title="/home/lucamuratore\l/advr&#45;superbuild/external\l/XCM/src/XBotModuleHandler.cpp">
<polygon fill="none" stroke="black" points="1273,-184 1273,-225 1440,-225 1440,-184 1273,-184"/>
<text text-anchor="start" x="1281" y="-213" font-family="Helvetica,sans-Serif" font-size="10.00">/home/lucamuratore</text>
<text text-anchor="start" x="1281" y="-202" font-family="Helvetica,sans-Serif" font-size="10.00">/advr&#45;superbuild/external</text>
<text text-anchor="middle" x="1356.5" y="-191" font-family="Helvetica,sans-Serif" font-size="10.00">/XCM/src/XBotModuleHandler.cpp</text>
</a>
</g>
</g>
<!-- Node19&#45;&gt;Node20 -->
<g id="edge23" class="edge"><title>Node19&#45;&gt;Node20</title>
<path fill="none" stroke="midnightblue" d="M1270.05,-261.866C1288.17,-250.052 1309.45,-236.173 1326.37,-225.144"/>
<polygon fill="midnightblue" stroke="midnightblue" points="1267.91,-259.085 1261.44,-267.479 1271.73,-264.949 1267.91,-259.085"/>
</g>
<!-- Node21&#45;&gt;Node12 -->
<g id="edge25" class="edge"><title>Node21&#45;&gt;Node12</title>
<path fill="none" stroke="midnightblue" d="M1023.15,-257.408C1020.67,-248.62 1017.98,-239.082 1015.59,-230.607"/>
<polygon fill="midnightblue" stroke="midnightblue" points="1019.85,-258.598 1025.93,-267.271 1026.58,-256.696 1019.85,-258.598"/>
</g>
<!-- Node22 -->
<g id="node22" class="node"><title>Node22</title>
<g id="a_node22"><a xlink:href="XBotXDDP_8cpp.html" target="_top" xlink:title="/home/lucamuratore\l/advr&#45;superbuild/external\l/XCM/src/XBotXDDP.cpp">
<polygon fill="none" stroke="black" points="1124,-184 1124,-225 1255,-225 1255,-184 1124,-184"/>
<text text-anchor="start" x="1132" y="-213" font-family="Helvetica,sans-Serif" font-size="10.00">/home/lucamuratore</text>
<text text-anchor="start" x="1132" y="-202" font-family="Helvetica,sans-Serif" font-size="10.00">/advr&#45;superbuild/external</text>
<text text-anchor="middle" x="1189.5" y="-191" font-family="Helvetica,sans-Serif" font-size="10.00">/XCM/src/XBotXDDP.cpp</text>
</a>
</g>
</g>
<!-- Node21&#45;&gt;Node22 -->
<g id="edge26" class="edge"><title>Node21&#45;&gt;Node22</title>
<path fill="none" stroke="midnightblue" d="M1078.4,-262.81C1101.78,-250.747 1129.69,-236.349 1151.69,-225.003"/>
<polygon fill="midnightblue" stroke="midnightblue" points="1076.63,-259.784 1069.34,-267.479 1079.84,-266.005 1076.63,-259.784"/>
</g>
</g>
</svg>
