<?xml version="1.0" encoding="UTF-8" standalone="no"?>
<!DOCTYPE svg PUBLIC "-//W3C//DTD SVG 1.1//EN"
 "http://www.w3.org/Graphics/SVG/1.1/DTD/svg11.dtd">
<!-- Generated by graphviz version 2.38.0 (20140413.2041)
 -->
<!-- Title: /home/lucamuratore/advr&#45;superbuild/external/XCM/src/CommunicationInterfaceROS.cpp Pages: 1 -->
<svg width="2596pt" height="262pt"
 viewBox="0.00 0.00 2595.50 262.00" xmlns="http://www.w3.org/2000/svg" xmlns:xlink="http://www.w3.org/1999/xlink">
<g id="graph0" class="graph" transform="scale(1 1) rotate(0) translate(4 258)">
<title>/home/lucamuratore/advr&#45;superbuild/external/XCM/src/CommunicationInterfaceROS.cpp</title>
<!-- Node1 -->
<g id="node1" class="node"><title>Node1</title>
<polygon fill="#bfbfbf" stroke="black" points="1100.5,-201.5 1100.5,-253.5 1268.5,-253.5 1268.5,-201.5 1100.5,-201.5"/>
<text text-anchor="start" x="1108.5" y="-241.5" font-family="Helvetica,sans-Serif" font-size="10.00">/home/lucamuratore</text>
<text text-anchor="start" x="1108.5" y="-230.5" font-family="Helvetica,sans-Serif" font-size="10.00">/advr&#45;superbuild/external</text>
<text text-anchor="start" x="1108.5" y="-219.5" font-family="Helvetica,sans-Serif" font-size="10.00">/XCM/src/CommunicationInterface</text>
<text text-anchor="middle" x="1184.5" y="-208.5" font-family="Helvetica,sans-Serif" font-size="10.00">ROS.cpp</text>
</g>
<!-- Node2 -->
<g id="node2" class="node"><title>Node2</title>
<g id="a_node2"><a xlink:href="CommunicationInterfaceROS_8h.html" target="_top" xlink:title="XCM/CommunicationInterface\lROS.h">
<polygon fill="none" stroke="black" points="561,-134.5 561,-164.5 710,-164.5 710,-134.5 561,-134.5"/>
<text text-anchor="start" x="569" y="-152.5" font-family="Helvetica,sans-Serif" font-size="10.00">XCM/CommunicationInterface</text>
<text text-anchor="middle" x="635.5" y="-141.5" font-family="Helvetica,sans-Serif" font-size="10.00">ROS.h</text>
</a>
</g>
</g>
<!-- Node1&#45;&gt;Node2 -->
<g id="edge1" class="edge"><title>Node1&#45;&gt;Node2</title>
<path fill="none" stroke="midnightblue" d="M1100.22,-214.833C997.101,-200.558 823.519,-176.528 720.205,-162.226"/>
<polygon fill="midnightblue" stroke="midnightblue" points="720.508,-158.735 710.123,-160.83 719.548,-165.669 720.508,-158.735"/>
</g>
<!-- Node13 -->
<g id="node13" class="node"><title>Node13</title>
<polygon fill="none" stroke="#bfbfbf" points="1056,-140 1056,-159 1159,-159 1159,-140 1056,-140"/>
<text text-anchor="middle" x="1107.5" y="-147" font-family="Helvetica,sans-Serif" font-size="10.00">sensor_msgs/Imu.h</text>
</g>
<!-- Node1&#45;&gt;Node13 -->
<g id="edge12" class="edge"><title>Node1&#45;&gt;Node13</title>
<path fill="none" stroke="midnightblue" d="M1158.86,-201.193C1147.26,-189.745 1133.9,-176.56 1123.72,-166.507"/>
<polygon fill="midnightblue" stroke="midnightblue" points="1125.9,-163.743 1116.32,-159.209 1120.98,-168.725 1125.9,-163.743"/>
</g>
<!-- Node14 -->
<g id="node14" class="node"><title>Node14</title>
<polygon fill="none" stroke="#bfbfbf" points="1177.5,-140 1177.5,-159 1347.5,-159 1347.5,-140 1177.5,-140"/>
<text text-anchor="middle" x="1262.5" y="-147" font-family="Helvetica,sans-Serif" font-size="10.00">geometry_msgs/WrenchStamped.h</text>
</g>
<!-- Node1&#45;&gt;Node14 -->
<g id="edge13" class="edge"><title>Node1&#45;&gt;Node14</title>
<path fill="none" stroke="midnightblue" d="M1210.47,-201.193C1222.34,-189.632 1236.02,-176.299 1246.38,-166.209"/>
<polygon fill="midnightblue" stroke="midnightblue" points="1248.84,-168.694 1253.56,-159.209 1243.96,-163.681 1248.84,-168.694"/>
</g>
<!-- Node15 -->
<g id="node15" class="node"><title>Node15</title>
<g id="a_node15"><a xlink:href="XBotUtils_8h.html" target="_top" xlink:title="XCM/XBotUtils.h">
<polygon fill="none" stroke="black" points="1676.5,-140 1676.5,-159 1768.5,-159 1768.5,-140 1676.5,-140"/>
<text text-anchor="middle" x="1722.5" y="-147" font-family="Helvetica,sans-Serif" font-size="10.00">XCM/XBotUtils.h</text>
</a>
</g>
</g>
<!-- Node1&#45;&gt;Node15 -->
<g id="edge14" class="edge"><title>Node1&#45;&gt;Node15</title>
<path fill="none" stroke="midnightblue" d="M1268.56,-214.625C1379.48,-198.956 1571.71,-171.801 1666.44,-158.419"/>
<polygon fill="midnightblue" stroke="midnightblue" points="1666.99,-161.877 1676.4,-157.013 1666.01,-154.946 1666.99,-161.877"/>
</g>
<!-- Node3 -->
<g id="node3" class="node"><title>Node3</title>
<g id="a_node3"><a xlink:href="XBotCommunicationInterface_8h.html" target="_top" xlink:title="XCM/XBotCommunicationInterface.h">
<polygon fill="none" stroke="black" points="0,-67.5 0,-86.5 179,-86.5 179,-67.5 0,-67.5"/>
<text text-anchor="middle" x="89.5" y="-74.5" font-family="Helvetica,sans-Serif" font-size="10.00">XCM/XBotCommunicationInterface.h</text>
</a>
</g>
</g>
<!-- Node2&#45;&gt;Node3 -->
<g id="edge2" class="edge"><title>Node2&#45;&gt;Node3</title>
<path fill="none" stroke="midnightblue" d="M560.714,-142.123C471.545,-134.046 318.154,-118.654 187.5,-98 171.179,-95.42 153.451,-91.9947 137.617,-88.709"/>
<polygon fill="midnightblue" stroke="midnightblue" points="138.026,-85.2184 127.52,-86.5802 136.582,-92.0678 138.026,-85.2184"/>
</g>
<!-- Node5 -->
<g id="node5" class="node"><title>Node5</title>
<polygon fill="none" stroke="#bfbfbf" points="197,-67.5 197,-86.5 252,-86.5 252,-67.5 197,-67.5"/>
<text text-anchor="middle" x="224.5" y="-74.5" font-family="Helvetica,sans-Serif" font-size="10.00">ros/ros.h</text>
</g>
<!-- Node2&#45;&gt;Node5 -->
<g id="edge4" class="edge"><title>Node2&#45;&gt;Node5</title>
<path fill="none" stroke="midnightblue" d="M560.651,-146.295C483.867,-142.221 361.8,-130.67 261.5,-98 256.553,-96.3887 251.494,-94.1251 246.768,-91.697"/>
<polygon fill="midnightblue" stroke="midnightblue" points="248.118,-88.443 237.678,-86.6386 244.714,-94.5597 248.118,-88.443"/>
</g>
<!-- Node6 -->
<g id="node6" class="node"><title>Node6</title>
<polygon fill="none" stroke="#bfbfbf" points="270.5,-67.5 270.5,-86.5 370.5,-86.5 370.5,-67.5 270.5,-67.5"/>
<text text-anchor="middle" x="320.5" y="-74.5" font-family="Helvetica,sans-Serif" font-size="10.00">std_srvs/SetBool.h</text>
</g>
<!-- Node2&#45;&gt;Node6 -->
<g id="edge5" class="edge"><title>Node2&#45;&gt;Node6</title>
<path fill="none" stroke="midnightblue" d="M560.969,-136.477C509.573,-127.535 439.901,-114.12 379.5,-98 370.863,-95.6949 361.652,-92.7933 353.139,-89.9208"/>
<polygon fill="midnightblue" stroke="midnightblue" points="354.137,-86.5625 343.542,-86.5995 351.847,-93.1775 354.137,-86.5625"/>
</g>
<!-- Node7 -->
<g id="node7" class="node"><title>Node7</title>
<polygon fill="none" stroke="#bfbfbf" points="388.5,-67.5 388.5,-86.5 468.5,-86.5 468.5,-67.5 388.5,-67.5"/>
<text text-anchor="middle" x="428.5" y="-74.5" font-family="Helvetica,sans-Serif" font-size="10.00">boost/bind.hpp</text>
</g>
<!-- Node2&#45;&gt;Node7 -->
<g id="edge6" class="edge"><title>Node2&#45;&gt;Node7</title>
<path fill="none" stroke="midnightblue" d="M588.162,-134.429C556.602,-124.789 514.311,-111.372 477.5,-98 471.152,-95.6942 464.411,-93.0638 458.024,-90.4852"/>
<polygon fill="midnightblue" stroke="midnightblue" points="458.969,-87.0895 448.389,-86.53 456.31,-93.5652 458.969,-87.0895"/>
</g>
<!-- Node8 -->
<g id="node8" class="node"><title>Node8</title>
<polygon fill="none" stroke="#bfbfbf" points="486.5,-62 486.5,-92 626.5,-92 626.5,-62 486.5,-62"/>
<text text-anchor="start" x="494.5" y="-80" font-family="Helvetica,sans-Serif" font-size="10.00">RobotInterfaceROS/Generic</text>
<text text-anchor="middle" x="556.5" y="-69" font-family="Helvetica,sans-Serif" font-size="10.00">ControlMessage.h</text>
</g>
<!-- Node2&#45;&gt;Node8 -->
<g id="edge7" class="edge"><title>Node2&#45;&gt;Node8</title>
<path fill="none" stroke="midnightblue" d="M619.513,-134.233C608.088,-124.037 592.537,-110.159 579.742,-98.7413"/>
<polygon fill="midnightblue" stroke="midnightblue" points="581.985,-96.0518 572.193,-92.0049 577.324,-101.275 581.985,-96.0518"/>
</g>
<!-- Node9 -->
<g id="node9" class="node"><title>Node9</title>
<polygon fill="none" stroke="#bfbfbf" points="644.5,-62 644.5,-92 784.5,-92 784.5,-62 644.5,-62"/>
<text text-anchor="start" x="652.5" y="-80" font-family="Helvetica,sans-Serif" font-size="10.00">RobotInterfaceROS/Generic</text>
<text text-anchor="middle" x="714.5" y="-69" font-family="Helvetica,sans-Serif" font-size="10.00">JointStateMessage.h</text>
</g>
<!-- Node2&#45;&gt;Node9 -->
<g id="edge8" class="edge"><title>Node2&#45;&gt;Node9</title>
<path fill="none" stroke="midnightblue" d="M651.487,-134.233C662.912,-124.037 678.463,-110.159 691.258,-98.7413"/>
<polygon fill="midnightblue" stroke="midnightblue" points="693.676,-101.275 698.807,-92.0049 689.015,-96.0518 693.676,-101.275"/>
</g>
<!-- Node10 -->
<g id="node10" class="node"><title>Node10</title>
<polygon fill="none" stroke="#bfbfbf" points="803,-62 803,-92 924,-92 924,-62 803,-62"/>
<text text-anchor="start" x="811" y="-80" font-family="Helvetica,sans-Serif" font-size="10.00">robot_state_publisher</text>
<text text-anchor="middle" x="863.5" y="-69" font-family="Helvetica,sans-Serif" font-size="10.00">/robot_state_publisher.h</text>
</g>
<!-- Node2&#45;&gt;Node10 -->
<g id="edge9" class="edge"><title>Node2&#45;&gt;Node10</title>
<path fill="none" stroke="midnightblue" d="M680.818,-134.487C717.453,-123.159 769.174,-107.167 808.236,-95.0881"/>
<polygon fill="midnightblue" stroke="midnightblue" points="809.358,-98.4048 817.878,-92.1069 807.29,-91.7172 809.358,-98.4048"/>
</g>
<!-- Node11 -->
<g id="node11" class="node"><title>Node11</title>
<polygon fill="none" stroke="#bfbfbf" points="942.5,-67.5 942.5,-86.5 1048.5,-86.5 1048.5,-67.5 942.5,-67.5"/>
<text text-anchor="middle" x="995.5" y="-74.5" font-family="Helvetica,sans-Serif" font-size="10.00">XCM/cmd_service.h</text>
</g>
<!-- Node2&#45;&gt;Node11 -->
<g id="edge10" class="edge"><title>Node2&#45;&gt;Node11</title>
<path fill="none" stroke="midnightblue" d="M710.233,-138.729C770.648,-130.129 857.654,-116.15 932.5,-98 942,-95.6962 952.154,-92.711 961.474,-89.753"/>
<polygon fill="midnightblue" stroke="midnightblue" points="962.766,-93.0131 971.19,-86.5874 960.598,-86.3575 962.766,-93.0131"/>
</g>
<!-- Node12 -->
<g id="node12" class="node"><title>Node12</title>
<polygon fill="none" stroke="#bfbfbf" points="1066.5,-67.5 1066.5,-86.5 1180.5,-86.5 1180.5,-67.5 1066.5,-67.5"/>
<text text-anchor="middle" x="1123.5" y="-74.5" font-family="Helvetica,sans-Serif" font-size="10.00">XCM/status_service.h</text>
</g>
<!-- Node2&#45;&gt;Node12 -->
<g id="edge11" class="edge"><title>Node2&#45;&gt;Node12</title>
<path fill="none" stroke="midnightblue" d="M710.084,-143.542C794.916,-136.989 937.26,-123.21 1057.5,-98 1067.96,-95.8073 1079.15,-92.7126 1089.28,-89.6113"/>
<polygon fill="midnightblue" stroke="midnightblue" points="1090.52,-92.8901 1099.01,-86.541 1088.42,-86.2151 1090.52,-92.8901"/>
</g>
<!-- Node4 -->
<g id="node4" class="node"><title>Node4</title>
<polygon fill="none" stroke="#bfbfbf" points="13.5,-0.5 13.5,-19.5 165.5,-19.5 165.5,-0.5 13.5,-0.5"/>
<text text-anchor="middle" x="89.5" y="-7.5" font-family="Helvetica,sans-Serif" font-size="10.00">XBotInterface/RobotInterface.h</text>
</g>
<!-- Node3&#45;&gt;Node4 -->
<g id="edge3" class="edge"><title>Node3&#45;&gt;Node4</title>
<path fill="none" stroke="midnightblue" d="M89.5,-67.2338C89.5,-57.6826 89.5,-42.1183 89.5,-29.7829"/>
<polygon fill="midnightblue" stroke="midnightblue" points="93.0001,-29.6273 89.5,-19.6273 86.0001,-29.6273 93.0001,-29.6273"/>
</g>
<!-- Node16 -->
<g id="node16" class="node"><title>Node16</title>
<polygon fill="none" stroke="#bfbfbf" points="1199,-67.5 1199,-86.5 1248,-86.5 1248,-67.5 1199,-67.5"/>
<text text-anchor="middle" x="1223.5" y="-74.5" font-family="Helvetica,sans-Serif" font-size="10.00">stdint.h</text>
</g>
<!-- Node15&#45;&gt;Node16 -->
<g id="edge15" class="edge"><title>Node15&#45;&gt;Node16</title>
<path fill="none" stroke="midnightblue" d="M1676.17,-145.952C1574.44,-139.955 1334.49,-123.508 1257.5,-98 1252.91,-96.4808 1248.28,-94.2806 1243.96,-91.8899"/>
<polygon fill="midnightblue" stroke="midnightblue" points="1245.54,-88.7528 1235.18,-86.5427 1241.9,-94.7321 1245.54,-88.7528"/>
</g>
<!-- Node17 -->
<g id="node17" class="node"><title>Node17</title>
<polygon fill="none" stroke="#bfbfbf" points="1266.5,-67.5 1266.5,-86.5 1312.5,-86.5 1312.5,-67.5 1266.5,-67.5"/>
<text text-anchor="middle" x="1289.5" y="-74.5" font-family="Helvetica,sans-Serif" font-size="10.00">stdio.h</text>
</g>
<!-- Node15&#45;&gt;Node17 -->
<g id="edge16" class="edge"><title>Node15&#45;&gt;Node17</title>
<path fill="none" stroke="midnightblue" d="M1676.22,-149.052C1600.01,-148.573 1444.29,-141.704 1321.5,-98 1317.33,-96.5172 1313.14,-94.4259 1309.22,-92.15"/>
<polygon fill="midnightblue" stroke="midnightblue" points="1311.03,-89.1543 1300.73,-86.7043 1307.26,-95.0476 1311.03,-89.1543"/>
</g>
<!-- Node18 -->
<g id="node18" class="node"><title>Node18</title>
<polygon fill="none" stroke="#bfbfbf" points="1330.5,-67.5 1330.5,-86.5 1380.5,-86.5 1380.5,-67.5 1330.5,-67.5"/>
<text text-anchor="middle" x="1355.5" y="-74.5" font-family="Helvetica,sans-Serif" font-size="10.00">fstream</text>
</g>
<!-- Node15&#45;&gt;Node18 -->
<g id="edge17" class="edge"><title>Node15&#45;&gt;Node18</title>
<path fill="none" stroke="midnightblue" d="M1676.47,-147.018C1610.95,-143.693 1487.86,-132.917 1389.5,-98 1385.02,-96.4106 1380.48,-94.2139 1376.22,-91.8557"/>
<polygon fill="midnightblue" stroke="midnightblue" points="1377.9,-88.7816 1367.53,-86.6086 1374.29,-94.7739 1377.9,-88.7816"/>
</g>
<!-- Node19 -->
<g id="node19" class="node"><title>Node19</title>
<polygon fill="none" stroke="#bfbfbf" points="1398.5,-67.5 1398.5,-86.5 1450.5,-86.5 1450.5,-67.5 1398.5,-67.5"/>
<text text-anchor="middle" x="1424.5" y="-74.5" font-family="Helvetica,sans-Serif" font-size="10.00">sstream</text>
</g>
<!-- Node15&#45;&gt;Node19 -->
<g id="edge18" class="edge"><title>Node15&#45;&gt;Node19</title>
<path fill="none" stroke="midnightblue" d="M1676.12,-144.257C1622.59,-138.306 1532.54,-125.027 1459.5,-98 1455.02,-96.3431 1450.45,-94.149 1446.14,-91.8217"/>
<polygon fill="midnightblue" stroke="midnightblue" points="1447.7,-88.6782 1437.29,-86.671 1444.18,-94.7274 1447.7,-88.6782"/>
</g>
<!-- Node20 -->
<g id="node20" class="node"><title>Node20</title>
<polygon fill="none" stroke="#bfbfbf" points="1468.5,-67.5 1468.5,-86.5 1592.5,-86.5 1592.5,-67.5 1468.5,-67.5"/>
<text text-anchor="middle" x="1530.5" y="-74.5" font-family="Helvetica,sans-Serif" font-size="10.00">boost/circular_buffer.hpp</text>
</g>
<!-- Node15&#45;&gt;Node20 -->
<g id="edge19" class="edge"><title>Node15&#45;&gt;Node20</title>
<path fill="none" stroke="midnightblue" d="M1699.34,-139.996C1665.46,-127.557 1602.23,-104.339 1563.5,-90.1172"/>
<polygon fill="midnightblue" stroke="midnightblue" points="1564.34,-86.6955 1553.74,-86.5341 1561.92,-93.2665 1564.34,-86.6955"/>
</g>
<!-- Node21 -->
<g id="node21" class="node"><title>Node21</title>
<polygon fill="none" stroke="#bfbfbf" points="1610.5,-62 1610.5,-92 1712.5,-92 1712.5,-62 1610.5,-62"/>
<text text-anchor="start" x="1618.5" y="-80" font-family="Helvetica,sans-Serif" font-size="10.00">boost/accumulators</text>
<text text-anchor="middle" x="1661.5" y="-69" font-family="Helvetica,sans-Serif" font-size="10.00">/accumulators.hpp</text>
</g>
<!-- Node15&#45;&gt;Node21 -->
<g id="edge20" class="edge"><title>Node15&#45;&gt;Node21</title>
<path fill="none" stroke="midnightblue" d="M1715.02,-139.855C1706.48,-129.99 1692.2,-113.477 1680.53,-99.9937"/>
<polygon fill="midnightblue" stroke="midnightblue" points="1682.87,-97.3483 1673.68,-92.0762 1677.58,-101.928 1682.87,-97.3483"/>
</g>
<!-- Node22 -->
<g id="node22" class="node"><title>Node22</title>
<polygon fill="none" stroke="#bfbfbf" points="1731,-62 1731,-92 1836,-92 1836,-62 1731,-62"/>
<text text-anchor="start" x="1739" y="-80" font-family="Helvetica,sans-Serif" font-size="10.00">boost/accumulators</text>
<text text-anchor="middle" x="1783.5" y="-69" font-family="Helvetica,sans-Serif" font-size="10.00">/statistics/count.hpp</text>
</g>
<!-- Node15&#45;&gt;Node22 -->
<g id="edge21" class="edge"><title>Node15&#45;&gt;Node22</title>
<path fill="none" stroke="midnightblue" d="M1729.98,-139.855C1738.52,-129.99 1752.8,-113.477 1764.47,-99.9937"/>
<polygon fill="midnightblue" stroke="midnightblue" points="1767.42,-101.928 1771.32,-92.0762 1762.13,-97.3483 1767.42,-101.928"/>
</g>
<!-- Node23 -->
<g id="node23" class="node"><title>Node23</title>
<polygon fill="none" stroke="#bfbfbf" points="1854,-62 1854,-92 1959,-92 1959,-62 1854,-62"/>
<text text-anchor="start" x="1862" y="-80" font-family="Helvetica,sans-Serif" font-size="10.00">boost/accumulators</text>
<text text-anchor="middle" x="1906.5" y="-69" font-family="Helvetica,sans-Serif" font-size="10.00">/statistics/mean.hpp</text>
</g>
<!-- Node15&#45;&gt;Node23 -->
<g id="edge22" class="edge"><title>Node15&#45;&gt;Node23</title>
<path fill="none" stroke="midnightblue" d="M1744.69,-139.996C1773.21,-129.07 1823.43,-109.827 1860.38,-95.6699"/>
<polygon fill="midnightblue" stroke="midnightblue" points="1861.86,-98.8522 1869.95,-92.0059 1859.36,-92.3155 1861.86,-98.8522"/>
</g>
<!-- Node24 -->
<g id="node24" class="node"><title>Node24</title>
<polygon fill="none" stroke="#bfbfbf" points="1977.5,-62 1977.5,-92 2079.5,-92 2079.5,-62 1977.5,-62"/>
<text text-anchor="start" x="1985.5" y="-80" font-family="Helvetica,sans-Serif" font-size="10.00">boost/accumulators</text>
<text text-anchor="middle" x="2028.5" y="-69" font-family="Helvetica,sans-Serif" font-size="10.00">/statistics/min.hpp</text>
</g>
<!-- Node15&#45;&gt;Node24 -->
<g id="edge23" class="edge"><title>Node15&#45;&gt;Node24</title>
<path fill="none" stroke="midnightblue" d="M1768.68,-140.72C1818.4,-131.947 1899.65,-116.471 1968.5,-98 1971.89,-97.0904 1975.37,-96.0961 1978.86,-95.0525"/>
<polygon fill="midnightblue" stroke="midnightblue" points="1980.17,-98.3131 1988.68,-92.0098 1978.09,-91.6268 1980.17,-98.3131"/>
</g>
<!-- Node25 -->
<g id="node25" class="node"><title>Node25</title>
<polygon fill="none" stroke="#bfbfbf" points="2097.5,-62 2097.5,-92 2199.5,-92 2199.5,-62 2097.5,-62"/>
<text text-anchor="start" x="2105.5" y="-80" font-family="Helvetica,sans-Serif" font-size="10.00">boost/accumulators</text>
<text text-anchor="middle" x="2148.5" y="-69" font-family="Helvetica,sans-Serif" font-size="10.00">/statistics/max.hpp</text>
</g>
<!-- Node15&#45;&gt;Node25 -->
<g id="edge24" class="edge"><title>Node15&#45;&gt;Node25</title>
<path fill="none" stroke="midnightblue" d="M1768.64,-144.886C1838.54,-138.795 1975.13,-124.477 2088.5,-98 2092.3,-97.1123 2096.2,-96.0856 2100.1,-94.9755"/>
<polygon fill="midnightblue" stroke="midnightblue" points="2101.18,-98.3077 2109.75,-92.0761 2099.16,-91.6042 2101.18,-98.3077"/>
</g>
<!-- Node26 -->
<g id="node26" class="node"><title>Node26</title>
<polygon fill="none" stroke="#bfbfbf" points="2217.5,-62 2217.5,-92 2335.5,-92 2335.5,-62 2217.5,-62"/>
<text text-anchor="start" x="2225.5" y="-80" font-family="Helvetica,sans-Serif" font-size="10.00">boost/accumulators</text>
<text text-anchor="middle" x="2276.5" y="-69" font-family="Helvetica,sans-Serif" font-size="10.00">/statistics/variance.hpp</text>
</g>
<!-- Node15&#45;&gt;Node26 -->
<g id="edge25" class="edge"><title>Node15&#45;&gt;Node26</title>
<path fill="none" stroke="midnightblue" d="M1768.82,-146.504C1855.73,-142.136 2048.92,-129.485 2208.5,-98 2213.23,-97.0666 2218.11,-95.9503 2222.97,-94.729"/>
<polygon fill="midnightblue" stroke="midnightblue" points="2224.13,-98.0442 2232.9,-92.0995 2222.33,-91.2777 2224.13,-98.0442"/>
</g>
<!-- Node27 -->
<g id="node27" class="node"><title>Node27</title>
<polygon fill="none" stroke="#bfbfbf" points="2353.5,-62 2353.5,-92 2467.5,-92 2467.5,-62 2353.5,-62"/>
<text text-anchor="start" x="2361.5" y="-80" font-family="Helvetica,sans-Serif" font-size="10.00">boost/accumulators</text>
<text text-anchor="middle" x="2410.5" y="-69" font-family="Helvetica,sans-Serif" font-size="10.00">/statistics/error_of.hpp</text>
</g>
<!-- Node15&#45;&gt;Node27 -->
<g id="edge26" class="edge"><title>Node15&#45;&gt;Node27</title>
<path fill="none" stroke="midnightblue" d="M1768.6,-148.104C1872.38,-146.485 2131.89,-138.366 2344.5,-98 2349.25,-97.0983 2354.14,-95.9836 2359.02,-94.7454"/>
<polygon fill="midnightblue" stroke="midnightblue" points="2360.2,-98.0508 2368.94,-92.0593 2358.37,-91.2941 2360.2,-98.0508"/>
</g>
<!-- Node28 -->
<g id="node28" class="node"><title>Node28</title>
<polygon fill="none" stroke="#bfbfbf" points="2485.5,-56.5 2485.5,-97.5 2587.5,-97.5 2587.5,-56.5 2485.5,-56.5"/>
<text text-anchor="start" x="2493.5" y="-85.5" font-family="Helvetica,sans-Serif" font-size="10.00">boost/accumulators</text>
<text text-anchor="start" x="2493.5" y="-74.5" font-family="Helvetica,sans-Serif" font-size="10.00">/statistics/error_of</text>
<text text-anchor="middle" x="2536.5" y="-63.5" font-family="Helvetica,sans-Serif" font-size="10.00">_mean.hpp</text>
</g>
<!-- Node15&#45;&gt;Node28 -->
<g id="edge27" class="edge"><title>Node15&#45;&gt;Node28</title>
<path fill="none" stroke="midnightblue" d="M1768.57,-146.953C1907.3,-142.056 2320.59,-125.675 2475.11,-97.9354"/>
<polygon fill="midnightblue" stroke="midnightblue" points="2476.17,-101.298 2485.34,-96.0053 2474.87,-94.4192 2476.17,-101.298"/>
</g>
</g>
</svg>
