<?xml version="1.0" encoding="UTF-8" standalone="no"?>
<!DOCTYPE svg PUBLIC "-//W3C//DTD SVG 1.1//EN"
 "http://www.w3.org/Graphics/SVG/1.1/DTD/svg11.dtd">
<!-- Generated by graphviz version 2.38.0 (20140413.2041)
 -->
<!-- Title: /home/lucamuratore/advr&#45;superbuild/external/XCM/include Pages: 1 -->
<svg width="178pt" height="220pt"
 viewBox="0.00 0.00 178.00 220.00" xmlns="http://www.w3.org/2000/svg" xmlns:xlink="http://www.w3.org/1999/xlink">
<g id="graph0" class="graph" transform="scale(1 1) rotate(0) translate(4 216)">
<title>/home/lucamuratore/advr&#45;superbuild/external/XCM/include</title>
<g id="clust1" class="cluster"><title>clusterdir_d44c64559bbebec7f509842c48db8b23</title>
<g id="a_clust1"><a xlink:href="dir_d44c64559bbebec7f509842c48db8b23.html" target="_top">
<polygon fill="#eeeeff" stroke="black" points="8,-8 8,-204 162,-204 162,-8 8,-8"/>
</a>
</g>
</g>
<!-- dir_d44c64559bbebec7f509842c48db8b23 -->
<g id="node1" class="node"><title>dir_d44c64559bbebec7f509842c48db8b23</title>
<text text-anchor="middle" x="127" y="-175.5" font-family="Helvetica,sans-Serif" font-size="10.00">include</text>
</g>
<!-- dir_a6af9e8bed53bcccf173375945c48c9e -->
<g id="node2" class="node"><title>dir_a6af9e8bed53bcccf173375945c48c9e</title>
<g id="a_node2"><a xlink:href="dir_a6af9e8bed53bcccf173375945c48c9e.html" target="_top" xlink:title="XBotCore&#45;interfaces">
<polygon fill="white" stroke="black" points="121.5,-124 16.5,-124 16.5,-88 121.5,-88 121.5,-124"/>
<text text-anchor="middle" x="69" y="-103.5" font-family="Helvetica,sans-Serif" font-size="10.00">XBotCore&#45;interfaces</text>
</a>
</g>
</g>
<!-- dir_a7afd0c1af0c092e3ba7426536eca864 -->
<g id="node4" class="node"><title>dir_a7afd0c1af0c092e3ba7426536eca864</title>
<g id="a_node4"><a xlink:href="dir_a7afd0c1af0c092e3ba7426536eca864.html" target="_top" xlink:title="XCM">
<polygon fill="white" stroke="red" points="96,-52 42,-52 42,-16 96,-16 96,-52"/>
<text text-anchor="middle" x="69" y="-31.5" font-family="Helvetica,sans-Serif" font-size="10.00">XCM</text>
</a>
</g>
</g>
<!-- dir_a6af9e8bed53bcccf173375945c48c9e&#45;&gt;dir_a7afd0c1af0c092e3ba7426536eca864 -->
<g id="edge4" class="edge"><title>dir_a6af9e8bed53bcccf173375945c48c9e&#45;&gt;dir_a7afd0c1af0c092e3ba7426536eca864</title>
<path fill="none" stroke="black" d="M63.0843,-87.6966C62.2886,-79.9827 62.0621,-70.7125 62.4047,-62.1124"/>
<polygon fill="black" stroke="black" points="65.8984,-62.3243 63.105,-52.1043 58.9154,-61.8356 65.8984,-62.3243"/>
<g id="a_edge4&#45;headlabel"><a xlink:href="dir_000001_000003.html" target="_top" xlink:title="2">
<text text-anchor="middle" x="68.4799" y="-63.6083" font-family="Helvetica,sans-Serif" font-size="10.00">2</text>
</a>
</g>
</g>
<!-- dir_399549b43dc26effdcd984667f85011d -->
<g id="node3" class="node"><title>dir_399549b43dc26effdcd984667f85011d</title>
<g id="a_node3"><a xlink:href="dir_399549b43dc26effdcd984667f85011d.html" target="_top" xlink:title="XBotPlugin">
<polygon fill="white" stroke="black" points="81.5,-196 16.5,-196 16.5,-160 81.5,-160 81.5,-196"/>
<text text-anchor="middle" x="49" y="-175.5" font-family="Helvetica,sans-Serif" font-size="10.00">XBotPlugin</text>
</a>
</g>
</g>
<!-- dir_399549b43dc26effdcd984667f85011d&#45;&gt;dir_a6af9e8bed53bcccf173375945c48c9e -->
<g id="edge2" class="edge"><title>dir_399549b43dc26effdcd984667f85011d&#45;&gt;dir_a6af9e8bed53bcccf173375945c48c9e</title>
<path fill="none" stroke="black" d="M53.9438,-159.697C56.172,-151.898 58.8547,-142.509 61.3345,-133.829"/>
<polygon fill="black" stroke="black" points="64.7311,-134.681 64.113,-124.104 58.0004,-132.758 64.7311,-134.681"/>
<g id="a_edge2&#45;headlabel"><a xlink:href="dir_000002_000001.html" target="_top" xlink:title="2">
<text text-anchor="middle" x="66.4737" y="-136.417" font-family="Helvetica,sans-Serif" font-size="10.00">2</text>
</a>
</g>
</g>
<!-- dir_399549b43dc26effdcd984667f85011d&#45;&gt;dir_a7afd0c1af0c092e3ba7426536eca864 -->
<g id="edge1" class="edge"><title>dir_399549b43dc26effdcd984667f85011d&#45;&gt;dir_a7afd0c1af0c092e3ba7426536eca864</title>
<path fill="none" stroke="black" d="M81.6408,-160.147C102.017,-148.871 125.408,-134.273 131,-124 138.65,-109.947 137.695,-102.532 131,-88 125.239,-75.4964 114.912,-64.846 104.318,-56.4445"/>
<polygon fill="black" stroke="black" points="106.357,-53.5988 96.2358,-50.4647 102.193,-59.2261 106.357,-53.5988"/>
<g id="a_edge1&#45;headlabel"><a xlink:href="dir_000002_000003.html" target="_top" xlink:title="4">
<text text-anchor="middle" x="110.935" y="-50.9543" font-family="Helvetica,sans-Serif" font-size="10.00">4</text>
</a>
</g>
</g>
<!-- dir_a7afd0c1af0c092e3ba7426536eca864&#45;&gt;dir_a6af9e8bed53bcccf173375945c48c9e -->
<g id="edge3" class="edge"><title>dir_a7afd0c1af0c092e3ba7426536eca864&#45;&gt;dir_a6af9e8bed53bcccf173375945c48c9e</title>
<path fill="none" stroke="black" d="M74.895,-52.1043C75.7005,-59.7913 75.9369,-69.0537 75.604,-77.6651"/>
<polygon fill="black" stroke="black" points="72.1085,-77.4805 74.9157,-87.6966 79.0921,-77.9597 72.1085,-77.4805"/>
<g id="a_edge3&#45;headlabel"><a xlink:href="dir_000003_000001.html" target="_top" xlink:title="16">
<text text-anchor="middle" x="69.5219" y="-71.2" font-family="Helvetica,sans-Serif" font-size="10.00">16</text>
</a>
</g>
</g>
</g>
</svg>
