<?xml version="1.0" encoding="UTF-8" standalone="no"?>
<!DOCTYPE svg PUBLIC "-//W3C//DTD SVG 1.1//EN"
 "http://www.w3.org/Graphics/SVG/1.1/DTD/svg11.dtd">
<!-- Generated by graphviz version 2.38.0 (20140413.2041)
 -->
<!-- Title: /home/lucamuratore/advr&#45;superbuild/external/XCM/include/XCM Pages: 1 -->
<svg width="312pt" height="159pt"
 viewBox="0.00 0.00 312.00 159.00" xmlns="http://www.w3.org/2000/svg" xmlns:xlink="http://www.w3.org/1999/xlink">
<g id="graph0" class="graph" transform="scale(1 1) rotate(0) translate(4 155)">
<title>/home/lucamuratore/advr&#45;superbuild/external/XCM/include/XCM</title>
<g id="clust1" class="cluster"><title>clusterdir_d44c64559bbebec7f509842c48db8b23</title>
<g id="a_clust1"><a xlink:href="dir_d44c64559bbebec7f509842c48db8b23.html" target="_top" xlink:title="include">
<polygon fill="#ddddee" stroke="black" points="8,-56 8,-143 296,-143 296,-56 8,-56"/>
<text text-anchor="middle" x="152" y="-131" font-family="Helvetica,sans-Serif" font-size="10.00">include</text>
</a>
</g>
</g>
<g id="clust2" class="cluster"><title>clusterdir_a7afd0c1af0c092e3ba7426536eca864</title>
<g id="a_clust2"><a xlink:href="dir_a7afd0c1af0c092e3ba7426536eca864.html" target="_top">
<polygon fill="#eeeeff" stroke="black" points="16,-64 16,-116 288,-116 288,-64 16,-64"/>
</a>
</g>
</g>
<!-- dir_a7afd0c1af0c092e3ba7426536eca864 -->
<g id="node1" class="node"><title>dir_a7afd0c1af0c092e3ba7426536eca864</title>
<text text-anchor="middle" x="253" y="-87.5" font-family="Helvetica,sans-Serif" font-size="10.00">XCM</text>
</g>
<!-- dir_c89d1291c9964829a539107713640765 -->
<g id="node2" class="node"><title>dir_c89d1291c9964829a539107713640765</title>
<g id="a_node2"><a xlink:href="dir_c89d1291c9964829a539107713640765.html" target="_top" xlink:title="MessageInterfaces">
<polygon fill="white" stroke="black" points="208,-108 108,-108 108,-72 208,-72 208,-108"/>
<text text-anchor="middle" x="158" y="-87.5" font-family="Helvetica,sans-Serif" font-size="10.00">MessageInterfaces</text>
</a>
</g>
</g>
<!-- dir_d7296de32a5734afe4f6f88cd156972e -->
<g id="node3" class="node"><title>dir_d7296de32a5734afe4f6f88cd156972e</title>
<g id="a_node3"><a xlink:href="dir_d7296de32a5734afe4f6f88cd156972e.html" target="_top" xlink:title="XBotYARP">
<polygon fill="white" stroke="black" points="90,-108 24,-108 24,-72 90,-72 90,-108"/>
<text text-anchor="middle" x="57" y="-87.5" font-family="Helvetica,sans-Serif" font-size="10.00">XBotYARP</text>
</a>
</g>
</g>
<!-- dir_a6af9e8bed53bcccf173375945c48c9e -->
<g id="node4" class="node"><title>dir_a6af9e8bed53bcccf173375945c48c9e</title>
<g id="a_node4"><a xlink:href="dir_a6af9e8bed53bcccf173375945c48c9e.html" target="_top" xlink:title="XBotCore&#45;interfaces">
<polygon fill="none" stroke="black" points="207.5,-36 102.5,-36 102.5,-0 207.5,-0 207.5,-36"/>
<text text-anchor="middle" x="155" y="-15.5" font-family="Helvetica,sans-Serif" font-size="10.00">XBotCore&#45;interfaces</text>
</a>
</g>
</g>
<!-- dir_d7296de32a5734afe4f6f88cd156972e&#45;&gt;dir_a6af9e8bed53bcccf173375945c48c9e -->
<g id="edge1" class="edge"><title>dir_d7296de32a5734afe4f6f88cd156972e&#45;&gt;dir_a6af9e8bed53bcccf173375945c48c9e</title>
<path fill="none" stroke="black" d="M78.1071,-71.8676C84.7107,-66.6568 92.081,-60.9911 99,-56 105.578,-51.2546 112.72,-46.3542 119.631,-41.734"/>
<polygon fill="black" stroke="black" points="121.794,-44.5001 128.204,-36.0643 117.932,-38.6616 121.794,-44.5001"/>
<g id="a_edge1&#45;headlabel"><a xlink:href="dir_000005_000001.html" target="_top" xlink:title="3">
<text text-anchor="middle" x="120.362" y="-46.3512" font-family="Helvetica,sans-Serif" font-size="10.00">3</text>
</a>
</g>
</g>
<!-- dir_a6af9e8bed53bcccf173375945c48c9e&#45;&gt;dir_a7afd0c1af0c092e3ba7426536eca864 -->
<g id="edge2" class="edge"><title>dir_a6af9e8bed53bcccf173375945c48c9e&#45;&gt;dir_a7afd0c1af0c092e3ba7426536eca864</title>
<path fill="none" stroke="black" d="M186.389,-36.0575C196.448,-41.9598 207.448,-48.8885 217,-56 220.696,-58.7516 224.445,-61.8221 228.058,-64.952"/>
<polygon fill="black" stroke="black" points="225.899,-67.7178 235.677,-71.7983 230.578,-62.511 225.899,-67.7178"/>
<g id="a_edge2&#45;headlabel"><a xlink:href="dir_000001_000003.html" target="_top" xlink:title="2">
<text text-anchor="middle" x="221.328" y="-64.9271" font-family="Helvetica,sans-Serif" font-size="10.00">2</text>
</a>
</g>
</g>
</g>
</svg>
