<?xml version="1.0" encoding="UTF-8" standalone="no"?>
<!DOCTYPE svg PUBLIC "-//W3C//DTD SVG 1.1//EN"
 "http://www.w3.org/Graphics/SVG/1.1/DTD/svg11.dtd">
<!-- Generated by graphviz version 2.38.0 (20140413.2041)
 -->
<!-- Title: /home/lucamuratore/advr&#45;superbuild/external/XCM/include/XBotPlugin Pages: 1 -->
<svg width="137pt" height="223pt"
 viewBox="0.00 0.00 136.50 223.00" xmlns="http://www.w3.org/2000/svg" xmlns:xlink="http://www.w3.org/1999/xlink">
<g id="graph0" class="graph" transform="scale(1 1) rotate(0) translate(4 219)">
<title>/home/lucamuratore/advr&#45;superbuild/external/XCM/include/XBotPlugin</title>
<g id="clust1" class="cluster"><title>clusterdir_d44c64559bbebec7f509842c48db8b23</title>
<g id="a_clust1"><a xlink:href="dir_d44c64559bbebec7f509842c48db8b23.html" target="_top" xlink:title="include">
<polygon fill="#ddddee" stroke="black" points="38.5,-136 38.5,-207 120.5,-207 120.5,-136 38.5,-136"/>
<text text-anchor="middle" x="79.5" y="-195" font-family="Helvetica,sans-Serif" font-size="10.00">include</text>
</a>
</g>
</g>
<!-- dir_399549b43dc26effdcd984667f85011d -->
<g id="node1" class="node"><title>dir_399549b43dc26effdcd984667f85011d</title>
<g id="a_node1"><a xlink:href="dir_399549b43dc26effdcd984667f85011d.html" target="_top" xlink:title="XBotPlugin">
<polygon fill="#eeeeff" stroke="black" points="112,-180 47,-180 47,-144 112,-144 112,-180"/>
<text text-anchor="middle" x="79.5" y="-159.5" font-family="Helvetica,sans-Serif" font-size="10.00">XBotPlugin</text>
</a>
</g>
</g>
<!-- dir_a7afd0c1af0c092e3ba7426536eca864 -->
<g id="node2" class="node"><title>dir_a7afd0c1af0c092e3ba7426536eca864</title>
<g id="a_node2"><a xlink:href="dir_a7afd0c1af0c092e3ba7426536eca864.html" target="_top" xlink:title="XCM">
<polygon fill="none" stroke="red" points="79.5,-108 25.5,-108 25.5,-72 79.5,-72 79.5,-108"/>
<text text-anchor="middle" x="52.5" y="-87.5" font-family="Helvetica,sans-Serif" font-size="10.00">XCM</text>
</a>
</g>
</g>
<!-- dir_399549b43dc26effdcd984667f85011d&#45;&gt;dir_a7afd0c1af0c092e3ba7426536eca864 -->
<g id="edge1" class="edge"><title>dir_399549b43dc26effdcd984667f85011d&#45;&gt;dir_a7afd0c1af0c092e3ba7426536eca864</title>
<path fill="none" stroke="black" d="M72.8258,-143.697C69.7851,-135.813 66.1173,-126.304 62.7393,-117.546"/>
<polygon fill="black" stroke="black" points="65.9617,-116.175 59.0974,-108.104 59.4307,-118.694 65.9617,-116.175"/>
<g id="a_edge1&#45;headlabel"><a xlink:href="dir_000002_000003.html" target="_top" xlink:title="4">
<text text-anchor="middle" x="69.9043" y="-116.007" font-family="Helvetica,sans-Serif" font-size="10.00">4</text>
</a>
</g>
</g>
<!-- dir_a6af9e8bed53bcccf173375945c48c9e -->
<g id="node3" class="node"><title>dir_a6af9e8bed53bcccf173375945c48c9e</title>
<g id="a_node3"><a xlink:href="dir_a6af9e8bed53bcccf173375945c48c9e.html" target="_top" xlink:title="XBotCore&#45;interfaces">
<polygon fill="none" stroke="black" points="105,-36 0,-36 0,-0 105,-0 105,-36"/>
<text text-anchor="middle" x="52.5" y="-15.5" font-family="Helvetica,sans-Serif" font-size="10.00">XBotCore&#45;interfaces</text>
</a>
</g>
</g>
<!-- dir_399549b43dc26effdcd984667f85011d&#45;&gt;dir_a6af9e8bed53bcccf173375945c48c9e -->
<g id="edge2" class="edge"><title>dir_399549b43dc26effdcd984667f85011d&#45;&gt;dir_a6af9e8bed53bcccf173375945c48c9e</title>
<path fill="none" stroke="black" d="M85.1461,-143.877C90.2573,-125.661 95.9405,-96.196 88.5,-72 85.4911,-62.2153 79.993,-52.6161 74.1843,-44.3336"/>
<polygon fill="black" stroke="black" points="76.9072,-42.1306 68.1099,-36.2264 71.3052,-46.3279 76.9072,-42.1306"/>
<g id="a_edge2&#45;headlabel"><a xlink:href="dir_000002_000001.html" target="_top" xlink:title="2">
<text text-anchor="middle" x="81.3348" y="-40.8048" font-family="Helvetica,sans-Serif" font-size="10.00">2</text>
</a>
</g>
</g>
<!-- dir_a7afd0c1af0c092e3ba7426536eca864&#45;&gt;dir_a6af9e8bed53bcccf173375945c48c9e -->
<g id="edge3" class="edge"><title>dir_a7afd0c1af0c092e3ba7426536eca864&#45;&gt;dir_a6af9e8bed53bcccf173375945c48c9e</title>
<path fill="none" stroke="black" d="M46.5843,-71.6966C45.7886,-63.9827 45.5621,-54.7125 45.9047,-46.1124"/>
<polygon fill="black" stroke="black" points="49.3984,-46.3243 46.605,-36.1043 42.4154,-45.8356 49.3984,-46.3243"/>
<g id="a_edge3&#45;headlabel"><a xlink:href="dir_000003_000001.html" target="_top" xlink:title="16">
<text text-anchor="middle" x="51.9799" y="-47.6083" font-family="Helvetica,sans-Serif" font-size="10.00">16</text>
</a>
</g>
</g>
<!-- dir_a6af9e8bed53bcccf173375945c48c9e&#45;&gt;dir_a7afd0c1af0c092e3ba7426536eca864 -->
<g id="edge4" class="edge"><title>dir_a6af9e8bed53bcccf173375945c48c9e&#45;&gt;dir_a7afd0c1af0c092e3ba7426536eca864</title>
<path fill="none" stroke="black" d="M58.395,-36.1043C59.2005,-43.7913 59.4369,-53.0537 59.104,-61.6651"/>
<polygon fill="black" stroke="black" points="55.6085,-61.4805 58.4157,-71.6966 62.5921,-61.9597 55.6085,-61.4805"/>
<g id="a_edge4&#45;headlabel"><a xlink:href="dir_000001_000003.html" target="_top" xlink:title="2">
<text text-anchor="middle" x="53.0219" y="-55.2" font-family="Helvetica,sans-Serif" font-size="10.00">2</text>
</a>
</g>
</g>
</g>
</svg>
