<?xml version="1.0" encoding="UTF-8" standalone="no"?>
<!DOCTYPE svg PUBLIC "-//W3C//DTD SVG 1.1//EN"
 "http://www.w3.org/Graphics/SVG/1.1/DTD/svg11.dtd">
<!-- Generated by graphviz version 2.38.0 (20140413.2041)
 -->
<!-- Title: /home/lucamuratore/advr&#45;superbuild/external/XCM/src/DummyMain.cpp Pages: 1 -->
<svg width="2692pt" height="430pt"
 viewBox="0.00 0.00 2691.77 430.00" xmlns="http://www.w3.org/2000/svg" xmlns:xlink="http://www.w3.org/1999/xlink">
<g id="graph0" class="graph" transform="scale(1 1) rotate(0) translate(4 426)">
<title>/home/lucamuratore/advr&#45;superbuild/external/XCM/src/DummyMain.cpp</title>
<!-- Node1 -->
<g id="node1" class="node"><title>Node1</title>
<polygon fill="#bfbfbf" stroke="black" points="700,-380.5 700,-421.5 836,-421.5 836,-380.5 700,-380.5"/>
<text text-anchor="start" x="708" y="-409.5" font-family="Helvetica,sans-Serif" font-size="10.00">/home/lucamuratore</text>
<text text-anchor="start" x="708" y="-398.5" font-family="Helvetica,sans-Serif" font-size="10.00">/advr&#45;superbuild/external</text>
<text text-anchor="middle" x="768" y="-387.5" font-family="Helvetica,sans-Serif" font-size="10.00">/XCM/src/DummyMain.cpp</text>
</g>
<!-- Node2 -->
<g id="node2" class="node"><title>Node2</title>
<polygon fill="none" stroke="#bfbfbf" points="0,-0.5 0,-19.5 46,-19.5 46,-0.5 0,-0.5"/>
<text text-anchor="middle" x="23" y="-7.5" font-family="Helvetica,sans-Serif" font-size="10.00">stdio.h</text>
</g>
<!-- Node1&#45;&gt;Node2 -->
<g id="edge1" class="edge"><title>Node1&#45;&gt;Node2</title>
<path fill="none" stroke="midnightblue" d="M699.969,-395.618C515.579,-382.839 20,-342.11 20,-273.5 20,-273.5 20,-273.5 20,-137.5 20,-99.1916 21.392,-54.376 22.2796,-29.6938"/>
<polygon fill="midnightblue" stroke="midnightblue" points="25.7813,-29.7111 22.6559,-19.5878 18.7862,-29.4506 25.7813,-29.7111"/>
</g>
<!-- Node3 -->
<g id="node3" class="node"><title>Node3</title>
<polygon fill="none" stroke="#bfbfbf" points="607.5,-324.5 607.5,-343.5 654.5,-343.5 654.5,-324.5 607.5,-324.5"/>
<text text-anchor="middle" x="631" y="-331.5" font-family="Helvetica,sans-Serif" font-size="10.00">errno.h</text>
</g>
<!-- Node1&#45;&gt;Node3 -->
<g id="edge2" class="edge"><title>Node1&#45;&gt;Node3</title>
<path fill="none" stroke="midnightblue" d="M726.895,-380.498C704.78,-370.005 678.103,-357.348 658.507,-348.051"/>
<polygon fill="midnightblue" stroke="midnightblue" points="659.772,-344.777 649.237,-343.652 656.771,-351.101 659.772,-344.777"/>
</g>
<!-- Node4 -->
<g id="node4" class="node"><title>Node4</title>
<polygon fill="none" stroke="#bfbfbf" points="673,-324.5 673,-343.5 725,-343.5 725,-324.5 673,-324.5"/>
<text text-anchor="middle" x="699" y="-331.5" font-family="Helvetica,sans-Serif" font-size="10.00">assert.h</text>
</g>
<!-- Node1&#45;&gt;Node4 -->
<g id="edge3" class="edge"><title>Node1&#45;&gt;Node4</title>
<path fill="none" stroke="midnightblue" d="M747.298,-380.498C737.126,-370.915 725.038,-359.528 715.499,-350.543"/>
<polygon fill="midnightblue" stroke="midnightblue" points="717.864,-347.962 708.185,-343.652 713.064,-353.057 717.864,-347.962"/>
</g>
<!-- Node5 -->
<g id="node5" class="node"><title>Node5</title>
<polygon fill="none" stroke="#bfbfbf" points="743,-324.5 743,-343.5 793,-343.5 793,-324.5 743,-324.5"/>
<text text-anchor="middle" x="768" y="-331.5" font-family="Helvetica,sans-Serif" font-size="10.00">signal.h</text>
</g>
<!-- Node1&#45;&gt;Node5 -->
<g id="edge4" class="edge"><title>Node1&#45;&gt;Node5</title>
<path fill="none" stroke="midnightblue" d="M768,-380.498C768,-372.065 768,-362.235 768,-353.874"/>
<polygon fill="midnightblue" stroke="midnightblue" points="771.5,-353.652 768,-343.652 764.5,-353.653 771.5,-353.652"/>
</g>
<!-- Node6 -->
<g id="node6" class="node"><title>Node6</title>
<polygon fill="none" stroke="#bfbfbf" points="811.5,-324.5 811.5,-343.5 852.5,-343.5 852.5,-324.5 811.5,-324.5"/>
<text text-anchor="middle" x="832" y="-331.5" font-family="Helvetica,sans-Serif" font-size="10.00">ctime</text>
</g>
<!-- Node1&#45;&gt;Node6 -->
<g id="edge5" class="edge"><title>Node1&#45;&gt;Node6</title>
<path fill="none" stroke="midnightblue" d="M787.202,-380.498C796.543,-371.011 807.625,-359.756 816.43,-350.813"/>
<polygon fill="midnightblue" stroke="midnightblue" points="818.959,-353.234 823.481,-343.652 813.971,-348.323 818.959,-353.234"/>
</g>
<!-- Node7 -->
<g id="node7" class="node"><title>Node7</title>
<polygon fill="none" stroke="#bfbfbf" points="870.5,-324.5 870.5,-343.5 929.5,-343.5 929.5,-324.5 870.5,-324.5"/>
<text text-anchor="middle" x="900" y="-331.5" font-family="Helvetica,sans-Serif" font-size="10.00">exception</text>
</g>
<!-- Node1&#45;&gt;Node7 -->
<g id="edge6" class="edge"><title>Node1&#45;&gt;Node7</title>
<path fill="none" stroke="midnightblue" d="M807.604,-380.498C828.815,-370.053 854.381,-357.464 873.238,-348.178"/>
<polygon fill="midnightblue" stroke="midnightblue" points="875.004,-351.21 882.429,-343.652 871.911,-344.93 875.004,-351.21"/>
</g>
<!-- Node8 -->
<g id="node8" class="node"><title>Node8</title>
<g id="a_node8"><a xlink:href="XBotPluginHandler_8h.html" target="_top" xlink:title="XCM/XBotPluginHandler.h">
<polygon fill="none" stroke="black" points="1514.5,-324.5 1514.5,-343.5 1647.5,-343.5 1647.5,-324.5 1514.5,-324.5"/>
<text text-anchor="middle" x="1581" y="-331.5" font-family="Helvetica,sans-Serif" font-size="10.00">XCM/XBotPluginHandler.h</text>
</a>
</g>
</g>
<!-- Node1&#45;&gt;Node8 -->
<g id="edge7" class="edge"><title>Node1&#45;&gt;Node8</title>
<path fill="none" stroke="midnightblue" d="M836.266,-394.542C986.807,-382.506 1346.43,-353.754 1504.38,-341.126"/>
<polygon fill="midnightblue" stroke="midnightblue" points="1504.8,-344.603 1514.49,-340.318 1504.24,-337.626 1504.8,-344.603"/>
</g>
<!-- Node9 -->
<g id="node9" class="node"><title>Node9</title>
<g id="a_node9"><a xlink:href="All_8h.html" target="_top" xlink:title="XBotCore&#45;interfaces\l/All.h">
<polygon fill="none" stroke="black" points="2059.5,-257.5 2059.5,-287.5 2164.5,-287.5 2164.5,-257.5 2059.5,-257.5"/>
<text text-anchor="start" x="2067.5" y="-275.5" font-family="Helvetica,sans-Serif" font-size="10.00">XBotCore&#45;interfaces</text>
<text text-anchor="middle" x="2112" y="-264.5" font-family="Helvetica,sans-Serif" font-size="10.00">/All.h</text>
</a>
</g>
</g>
<!-- Node8&#45;&gt;Node9 -->
<g id="edge8" class="edge"><title>Node8&#45;&gt;Node9</title>
<path fill="none" stroke="midnightblue" d="M1647.71,-325.525C1750.99,-313.952 1948.16,-291.859 2049.08,-280.55"/>
<polygon fill="midnightblue" stroke="midnightblue" points="2049.58,-284.016 2059.13,-279.424 2048.8,-277.06 2049.58,-284.016"/>
</g>
<!-- Node46 -->
<g id="node46" class="node"><title>Node46</title>
<g id="a_node46"><a xlink:href="XBotControlPlugin_8h.html" target="_top" xlink:title="XCM/XBotControlPlugin.h">
<polygon fill="none" stroke="black" points="1515.5,-263 1515.5,-282 1646.5,-282 1646.5,-263 1515.5,-263"/>
<text text-anchor="middle" x="1581" y="-270" font-family="Helvetica,sans-Serif" font-size="10.00">XCM/XBotControlPlugin.h</text>
</a>
</g>
</g>
<!-- Node8&#45;&gt;Node46 -->
<g id="edge70" class="edge"><title>Node8&#45;&gt;Node46</title>
<path fill="none" stroke="midnightblue" d="M1581,-324.475C1581,-316.08 1581,-302.981 1581,-292.163"/>
<polygon fill="midnightblue" stroke="midnightblue" points="1584.5,-292.009 1581,-282.009 1577.5,-292.009 1584.5,-292.009"/>
</g>
<!-- Node47 -->
<g id="node47" class="node"><title>Node47</title>
<g id="a_node47"><a xlink:href="TimeProvider_8h.html" target="_top" xlink:title="XCM/TimeProvider.h">
<polygon fill="none" stroke="black" points="1433,-196 1433,-215 1541,-215 1541,-196 1433,-196"/>
<text text-anchor="middle" x="1487" y="-203" font-family="Helvetica,sans-Serif" font-size="10.00">XCM/TimeProvider.h</text>
</a>
</g>
</g>
<!-- Node8&#45;&gt;Node47 -->
<g id="edge74" class="edge"><title>Node8&#45;&gt;Node47</title>
<path fill="none" stroke="midnightblue" d="M1556.83,-324.392C1540.08,-317.198 1518.61,-305.304 1506,-288 1492.52,-269.506 1488.44,-242.92 1487.29,-225.198"/>
<polygon fill="midnightblue" stroke="midnightblue" points="1490.78,-224.862 1486.89,-215.007 1483.78,-225.137 1490.78,-224.862"/>
</g>
<!-- Node48 -->
<g id="node48" class="node"><title>Node48</title>
<g id="a_node48"><a xlink:href="XBotESCUtils_8h.html" target="_top" xlink:title="XCM/XBotESCUtils.h">
<polygon fill="none" stroke="black" points="48.5,-196 48.5,-215 161.5,-215 161.5,-196 48.5,-196"/>
<text text-anchor="middle" x="105" y="-203" font-family="Helvetica,sans-Serif" font-size="10.00">XCM/XBotESCUtils.h</text>
</a>
</g>
</g>
<!-- Node8&#45;&gt;Node48 -->
<g id="edge76" class="edge"><title>Node8&#45;&gt;Node48</title>
<path fill="none" stroke="midnightblue" d="M1514.49,-330.58C1312.41,-322.609 688.132,-293.432 176,-221 168.292,-219.91 160.163,-218.5 152.266,-216.988"/>
<polygon fill="midnightblue" stroke="midnightblue" points="152.926,-213.551 142.436,-215.035 151.562,-220.416 152.926,-213.551"/>
</g>
<!-- Node49 -->
<g id="node49" class="node"><title>Node49</title>
<polygon fill="none" stroke="#bfbfbf" points="1664.5,-263 1664.5,-282 1807.5,-282 1807.5,-263 1664.5,-263"/>
<text text-anchor="middle" x="1736" y="-270" font-family="Helvetica,sans-Serif" font-size="10.00">SharedLibraryClassFactory.h</text>
</g>
<!-- Node8&#45;&gt;Node49 -->
<g id="edge79" class="edge"><title>Node8&#45;&gt;Node49</title>
<path fill="none" stroke="midnightblue" d="M1603.21,-324.475C1629.68,-314.313 1674.11,-297.256 1704.22,-285.7"/>
<polygon fill="midnightblue" stroke="midnightblue" points="1705.75,-288.86 1713.83,-282.009 1703.24,-282.325 1705.75,-288.86"/>
</g>
<!-- Node50 -->
<g id="node50" class="node"><title>Node50</title>
<polygon fill="none" stroke="#bfbfbf" points="1826,-263 1826,-282 1936,-282 1936,-263 1826,-263"/>
<text text-anchor="middle" x="1881" y="-270" font-family="Helvetica,sans-Serif" font-size="10.00">SharedLibraryClass.h</text>
</g>
<!-- Node8&#45;&gt;Node50 -->
<g id="edge80" class="edge"><title>Node8&#45;&gt;Node50</title>
<path fill="none" stroke="midnightblue" d="M1627.9,-324.452C1675.39,-315.693 1750.92,-301.487 1816,-288 1821.73,-286.813 1827.73,-285.528 1833.68,-284.231"/>
<polygon fill="midnightblue" stroke="midnightblue" points="1834.56,-287.621 1843.58,-282.052 1833.06,-280.785 1834.56,-287.621"/>
</g>
<!-- Node10 -->
<g id="node10" class="node"><title>Node10</title>
<g id="a_node10"><a xlink:href="IXBotModel_8h.html" target="_top" xlink:title="XBotCore&#45;interfaces\l/IXBotModel.h">
<polygon fill="none" stroke="black" points="2140.5,-123.5 2140.5,-153.5 2245.5,-153.5 2245.5,-123.5 2140.5,-123.5"/>
<text text-anchor="start" x="2148.5" y="-141.5" font-family="Helvetica,sans-Serif" font-size="10.00">XBotCore&#45;interfaces</text>
<text text-anchor="middle" x="2193" y="-130.5" font-family="Helvetica,sans-Serif" font-size="10.00">/IXBotModel.h</text>
</a>
</g>
</g>
<!-- Node9&#45;&gt;Node10 -->
<g id="edge9" class="edge"><title>Node9&#45;&gt;Node10</title>
<path fill="none" stroke="midnightblue" d="M2135.49,-257.433C2148.4,-248.535 2163.65,-235.91 2173,-221 2183.86,-203.685 2188.82,-180.875 2191.09,-163.791"/>
<polygon fill="midnightblue" stroke="midnightblue" points="2194.61,-163.831 2192.23,-153.507 2187.65,-163.062 2194.61,-163.831"/>
</g>
<!-- Node14 -->
<g id="node14" class="node"><title>Node14</title>
<g id="a_node14"><a xlink:href="IXBotJoint_8h.html" target="_top" xlink:title="XBotCore&#45;interfaces\l/IXBotJoint.h">
<polygon fill="none" stroke="black" points="1978.5,-123.5 1978.5,-153.5 2083.5,-153.5 2083.5,-123.5 1978.5,-123.5"/>
<text text-anchor="start" x="1986.5" y="-141.5" font-family="Helvetica,sans-Serif" font-size="10.00">XBotCore&#45;interfaces</text>
<text text-anchor="middle" x="2031" y="-130.5" font-family="Helvetica,sans-Serif" font-size="10.00">/IXBotJoint.h</text>
</a>
</g>
</g>
<!-- Node9&#45;&gt;Node14 -->
<g id="edge13" class="edge"><title>Node9&#45;&gt;Node14</title>
<path fill="none" stroke="midnightblue" d="M2087.75,-257.346C2074.67,-248.501 2059.34,-235.955 2050,-221 2039.21,-203.713 2034.54,-180.901 2032.52,-163.809"/>
<polygon fill="midnightblue" stroke="midnightblue" points="2035.97,-163.142 2031.54,-153.518 2029,-163.805 2035.97,-163.142"/>
</g>
<!-- Node16 -->
<g id="node16" class="node"><title>Node16</title>
<g id="a_node16"><a xlink:href="IXBotFT_8h.html" target="_top" xlink:title="XBotCore&#45;interfaces\l/IXBotFT.h">
<polygon fill="none" stroke="black" points="2425.5,-123.5 2425.5,-153.5 2530.5,-153.5 2530.5,-123.5 2425.5,-123.5"/>
<text text-anchor="start" x="2433.5" y="-141.5" font-family="Helvetica,sans-Serif" font-size="10.00">XBotCore&#45;interfaces</text>
<text text-anchor="middle" x="2478" y="-130.5" font-family="Helvetica,sans-Serif" font-size="10.00">/IXBotFT.h</text>
</a>
</g>
</g>
<!-- Node9&#45;&gt;Node16 -->
<g id="edge18" class="edge"><title>Node9&#45;&gt;Node16</title>
<path fill="none" stroke="midnightblue" d="M2150.82,-257.499C2218.08,-233.242 2356.1,-183.464 2429.54,-156.979"/>
<polygon fill="midnightblue" stroke="midnightblue" points="2430.81,-160.242 2439.03,-153.556 2428.43,-153.657 2430.81,-160.242"/>
</g>
<!-- Node17 -->
<g id="node17" class="node"><title>Node17</title>
<g id="a_node17"><a xlink:href="IXBotIMU_8h.html" target="_top" xlink:title="XBotCore&#45;interfaces\l/IXBotIMU.h">
<polygon fill="none" stroke="black" points="2302.5,-123.5 2302.5,-153.5 2407.5,-153.5 2407.5,-123.5 2302.5,-123.5"/>
<text text-anchor="start" x="2310.5" y="-141.5" font-family="Helvetica,sans-Serif" font-size="10.00">XBotCore&#45;interfaces</text>
<text text-anchor="middle" x="2355" y="-130.5" font-family="Helvetica,sans-Serif" font-size="10.00">/IXBotIMU.h</text>
</a>
</g>
</g>
<!-- Node9&#45;&gt;Node17 -->
<g id="edge19" class="edge"><title>Node9&#45;&gt;Node17</title>
<path fill="none" stroke="midnightblue" d="M2138.01,-257.374C2181.94,-233.506 2270.89,-185.187 2320.17,-158.419"/>
<polygon fill="midnightblue" stroke="midnightblue" points="2322.07,-161.374 2329.18,-153.525 2318.72,-155.223 2322.07,-161.374"/>
</g>
<!-- Node18 -->
<g id="node18" class="node"><title>Node18</title>
<g id="a_node18"><a xlink:href="XBotPlugin_8h.html" target="_top" xlink:title="XBotCore&#45;interfaces\l/XBotPlugin.h">
<polygon fill="none" stroke="black" points="2059.5,-190.5 2059.5,-220.5 2164.5,-220.5 2164.5,-190.5 2059.5,-190.5"/>
<text text-anchor="start" x="2067.5" y="-208.5" font-family="Helvetica,sans-Serif" font-size="10.00">XBotCore&#45;interfaces</text>
<text text-anchor="middle" x="2112" y="-197.5" font-family="Helvetica,sans-Serif" font-size="10.00">/XBotPlugin.h</text>
</a>
</g>
</g>
<!-- Node9&#45;&gt;Node18 -->
<g id="edge21" class="edge"><title>Node9&#45;&gt;Node18</title>
<path fill="none" stroke="midnightblue" d="M2112,-257.396C2112,-249.645 2112,-239.812 2112,-230.86"/>
<polygon fill="midnightblue" stroke="midnightblue" points="2115.5,-230.576 2112,-220.577 2108.5,-230.577 2115.5,-230.576"/>
</g>
<!-- Node19 -->
<g id="node19" class="node"><title>Node19</title>
<g id="a_node19"><a xlink:href="XBotSharedMemory_8h.html" target="_top" xlink:title="XBotCore&#45;interfaces\l/XBotSharedMemory.h">
<polygon fill="none" stroke="black" points="2549,-123.5 2549,-153.5 2665,-153.5 2665,-123.5 2549,-123.5"/>
<text text-anchor="start" x="2557" y="-141.5" font-family="Helvetica,sans-Serif" font-size="10.00">XBotCore&#45;interfaces</text>
<text text-anchor="middle" x="2607" y="-130.5" font-family="Helvetica,sans-Serif" font-size="10.00">/XBotSharedMemory.h</text>
</a>
</g>
</g>
<!-- Node9&#45;&gt;Node19 -->
<g id="edge38" class="edge"><title>Node9&#45;&gt;Node19</title>
<path fill="none" stroke="midnightblue" d="M2164.74,-258.225C2204.44,-248.171 2260.19,-233.929 2309,-221 2391.63,-199.11 2486.88,-172.888 2547.01,-156.211"/>
<polygon fill="midnightblue" stroke="midnightblue" points="2548.01,-159.564 2556.71,-153.517 2546.14,-152.819 2548.01,-159.564"/>
</g>
<!-- Node20 -->
<g id="node20" class="node"><title>Node20</title>
<g id="a_node20"><a xlink:href="XBotSharedObject_8h.html" target="_top" xlink:title="XBotCore&#45;interfaces\l/XBotSharedObject.h">
<polygon fill="none" stroke="black" points="2412.5,-56.5 2412.5,-86.5 2521.5,-86.5 2521.5,-56.5 2412.5,-56.5"/>
<text text-anchor="start" x="2420.5" y="-74.5" font-family="Helvetica,sans-Serif" font-size="10.00">XBotCore&#45;interfaces</text>
<text text-anchor="middle" x="2467" y="-63.5" font-family="Helvetica,sans-Serif" font-size="10.00">/XBotSharedObject.h</text>
</a>
</g>
</g>
<!-- Node9&#45;&gt;Node20 -->
<g id="edge39" class="edge"><title>Node9&#45;&gt;Node20</title>
<path fill="none" stroke="midnightblue" d="M2164.77,-268.737C2292.16,-260.845 2610.7,-233.406 2674,-154 2715.5,-101.936 2607.24,-83.0339 2532.1,-76.2409"/>
<polygon fill="midnightblue" stroke="midnightblue" points="2531.99,-72.7196 2521.73,-75.3606 2531.4,-79.6945 2531.99,-72.7196"/>
</g>
<!-- Node24 -->
<g id="node24" class="node"><title>Node24</title>
<g id="a_node24"><a xlink:href="XBotESC_8h.html" target="_top" xlink:title="XBotCore&#45;interfaces\l/XBotESC.h">
<polygon fill="none" stroke="black" points="478.5,-123.5 478.5,-153.5 583.5,-153.5 583.5,-123.5 478.5,-123.5"/>
<text text-anchor="start" x="486.5" y="-141.5" font-family="Helvetica,sans-Serif" font-size="10.00">XBotCore&#45;interfaces</text>
<text text-anchor="middle" x="531" y="-130.5" font-family="Helvetica,sans-Serif" font-size="10.00">/XBotESC.h</text>
</a>
</g>
</g>
<!-- Node9&#45;&gt;Node24 -->
<g id="edge69" class="edge"><title>Node9&#45;&gt;Node24</title>
<path fill="none" stroke="midnightblue" d="M2059.19,-266.816C1928.33,-255.158 1598.83,-225.454 1588,-221 1567.84,-212.71 1570.35,-197.799 1550,-190 1471.37,-159.871 877.095,-158.327 793,-154 724.97,-150.5 647.024,-146.142 593.957,-143.122"/>
<polygon fill="midnightblue" stroke="midnightblue" points="593.869,-139.611 583.686,-142.536 593.47,-146.6 593.869,-139.611"/>
</g>
<!-- Node26 -->
<g id="node26" class="node"><title>Node26</title>
<g id="a_node26"><a xlink:href="XDomainCommunication_8h.html" target="_top" xlink:title="XBotCore&#45;interfaces\l/XDomainCommunication.h">
<polygon fill="none" stroke="black" points="1597.5,-190.5 1597.5,-220.5 1734.5,-220.5 1734.5,-190.5 1597.5,-190.5"/>
<text text-anchor="start" x="1605.5" y="-208.5" font-family="Helvetica,sans-Serif" font-size="10.00">XBotCore&#45;interfaces</text>
<text text-anchor="middle" x="1666" y="-197.5" font-family="Helvetica,sans-Serif" font-size="10.00">/XDomainCommunication.h</text>
</a>
</g>
</g>
<!-- Node9&#45;&gt;Node26 -->
<g id="edge40" class="edge"><title>Node9&#45;&gt;Node26</title>
<path fill="none" stroke="midnightblue" d="M2059.37,-263.962C1991.04,-254.159 1868.09,-236.458 1763,-221 1757.12,-220.135 1751.04,-219.236 1744.92,-218.329"/>
<polygon fill="midnightblue" stroke="midnightblue" points="1745.02,-214.806 1734.62,-216.798 1744,-221.73 1745.02,-214.806"/>
</g>
<!-- Node27 -->
<g id="node27" class="node"><title>Node27</title>
<g id="a_node27"><a xlink:href="XBotPipes_8h.html" target="_top" xlink:title="XBotCore&#45;interfaces\l/XBotPipes.h">
<polygon fill="none" stroke="black" points="1702.5,-123.5 1702.5,-153.5 1807.5,-153.5 1807.5,-123.5 1702.5,-123.5"/>
<text text-anchor="start" x="1710.5" y="-141.5" font-family="Helvetica,sans-Serif" font-size="10.00">XBotCore&#45;interfaces</text>
<text text-anchor="middle" x="1755" y="-130.5" font-family="Helvetica,sans-Serif" font-size="10.00">/XBotPipes.h</text>
</a>
</g>
</g>
<!-- Node9&#45;&gt;Node27 -->
<g id="edge68" class="edge"><title>Node9&#45;&gt;Node27</title>
<path fill="none" stroke="midnightblue" d="M2074.13,-257.499C2008.66,-233.291 1874.45,-183.667 1802.71,-157.141"/>
<polygon fill="midnightblue" stroke="midnightblue" points="1803.61,-153.742 1793.02,-153.556 1801.18,-160.307 1803.61,-153.742"/>
</g>
<!-- Node11 -->
<g id="node11" class="node"><title>Node11</title>
<polygon fill="none" stroke="#bfbfbf" points="2101.5,-62 2101.5,-81 2136.5,-81 2136.5,-62 2101.5,-62"/>
<text text-anchor="middle" x="2119" y="-69" font-family="Helvetica,sans-Serif" font-size="10.00">map</text>
</g>
<!-- Node10&#45;&gt;Node11 -->
<g id="edge10" class="edge"><title>Node10&#45;&gt;Node11</title>
<path fill="none" stroke="midnightblue" d="M2176.94,-123.396C2165.06,-112.96 2148.89,-98.7507 2136.64,-87.9978"/>
<polygon fill="midnightblue" stroke="midnightblue" points="2138.72,-85.1644 2128.9,-81.1945 2134.1,-90.4236 2138.72,-85.1644"/>
</g>
<!-- Node12 -->
<g id="node12" class="node"><title>Node12</title>
<polygon fill="none" stroke="#bfbfbf" points="2003.5,-62 2003.5,-81 2044.5,-81 2044.5,-62 2003.5,-62"/>
<text text-anchor="middle" x="2024" y="-69" font-family="Helvetica,sans-Serif" font-size="10.00">string</text>
</g>
<!-- Node10&#45;&gt;Node12 -->
<g id="edge11" class="edge"><title>Node10&#45;&gt;Node12</title>
<path fill="none" stroke="midnightblue" d="M2156.33,-123.396C2125.76,-111.639 2082.74,-95.0935 2054.15,-84.0957"/>
<polygon fill="midnightblue" stroke="midnightblue" points="2055.27,-80.7772 2044.68,-80.454 2052.76,-87.3106 2055.27,-80.7772"/>
</g>
<!-- Node13 -->
<g id="node13" class="node"><title>Node13</title>
<polygon fill="none" stroke="#bfbfbf" points="2211,-62 2211,-81 2255,-81 2255,-62 2211,-62"/>
<text text-anchor="middle" x="2233" y="-69" font-family="Helvetica,sans-Serif" font-size="10.00">vector</text>
</g>
<!-- Node10&#45;&gt;Node13 -->
<g id="edge12" class="edge"><title>Node10&#45;&gt;Node13</title>
<path fill="none" stroke="midnightblue" d="M2201.68,-123.396C2207.73,-113.562 2215.84,-100.378 2222.3,-89.892"/>
<polygon fill="midnightblue" stroke="midnightblue" points="2225.39,-91.5455 2227.65,-81.1945 2219.43,-87.8768 2225.39,-91.5455"/>
</g>
<!-- Node14&#45;&gt;Node11 -->
<g id="edge14" class="edge"><title>Node14&#45;&gt;Node11</title>
<path fill="none" stroke="midnightblue" d="M2050.09,-123.396C2064.58,-112.697 2084.43,-98.0334 2099.11,-87.193"/>
<polygon fill="midnightblue" stroke="midnightblue" points="2101.52,-89.7637 2107.48,-81.007 2097.36,-84.1331 2101.52,-89.7637"/>
</g>
<!-- Node14&#45;&gt;Node12 -->
<g id="edge17" class="edge"><title>Node14&#45;&gt;Node12</title>
<path fill="none" stroke="midnightblue" d="M2029.48,-123.396C2028.47,-113.963 2027.12,-101.448 2026.01,-91.1891"/>
<polygon fill="midnightblue" stroke="midnightblue" points="2029.49,-90.7623 2024.94,-81.1945 2022.53,-91.5118 2029.49,-90.7623"/>
</g>
<!-- Node14&#45;&gt;Node13 -->
<g id="edge15" class="edge"><title>Node14&#45;&gt;Node13</title>
<path fill="none" stroke="midnightblue" d="M2074.83,-123.396C2112.79,-111.181 2166.82,-93.7955 2200.88,-82.8348"/>
<polygon fill="midnightblue" stroke="midnightblue" points="2202.33,-86.0473 2210.77,-79.6523 2200.18,-79.3837 2202.33,-86.0473"/>
</g>
<!-- Node15 -->
<g id="node15" class="node"><title>Node15</title>
<polygon fill="none" stroke="#bfbfbf" points="1894,-0.5 1894,-19.5 1946,-19.5 1946,-0.5 1894,-0.5"/>
<text text-anchor="middle" x="1920" y="-7.5" font-family="Helvetica,sans-Serif" font-size="10.00">memory</text>
</g>
<!-- Node14&#45;&gt;Node15 -->
<g id="edge16" class="edge"><title>Node14&#45;&gt;Node15</title>
<path fill="none" stroke="midnightblue" d="M2041.5,-123.247C2052.88,-105.887 2067.61,-76.3638 2053,-56 2047.14,-47.8302 1993.59,-31.4998 1956.26,-20.9209"/>
<polygon fill="midnightblue" stroke="midnightblue" points="1956.78,-17.4336 1946.21,-18.1012 1954.89,-24.1732 1956.78,-17.4336"/>
</g>
<!-- Node17&#45;&gt;Node13 -->
<g id="edge20" class="edge"><title>Node17&#45;&gt;Node13</title>
<path fill="none" stroke="midnightblue" d="M2328.53,-123.396C2307.6,-112.243 2278.57,-96.7812 2258.03,-85.8336"/>
<polygon fill="midnightblue" stroke="midnightblue" points="2259.44,-82.6202 2248.97,-81.007 2256.15,-88.7981 2259.44,-82.6202"/>
</g>
<!-- Node18&#45;&gt;Node10 -->
<g id="edge23" class="edge"><title>Node18&#45;&gt;Node10</title>
<path fill="none" stroke="midnightblue" d="M2129.58,-190.396C2140.61,-181.538 2155.04,-169.96 2167.35,-160.086"/>
<polygon fill="midnightblue" stroke="midnightblue" points="2169.85,-162.565 2175.46,-153.577 2165.47,-157.105 2169.85,-162.565"/>
</g>
<!-- Node18&#45;&gt;Node11 -->
<g id="edge34" class="edge"><title>Node18&#45;&gt;Node11</title>
<path fill="none" stroke="midnightblue" d="M2112.75,-190.374C2114.01,-166.504 2116.58,-118.181 2118,-91.4149"/>
<polygon fill="midnightblue" stroke="midnightblue" points="2121.51,-91.2686 2118.54,-81.0973 2114.52,-90.8979 2121.51,-91.2686"/>
</g>
<!-- Node18&#45;&gt;Node12 -->
<g id="edge37" class="edge"><title>Node18&#45;&gt;Node12</title>
<path fill="none" stroke="midnightblue" d="M2059.41,-200.649C2027.6,-195.289 1989.37,-182.803 1969,-154 1952.64,-130.871 1980.61,-103.476 2002.31,-87.0684"/>
<polygon fill="midnightblue" stroke="midnightblue" points="2004.44,-89.8442 2010.5,-81.1507 2000.34,-84.1702 2004.44,-89.8442"/>
</g>
<!-- Node18&#45;&gt;Node13 -->
<g id="edge35" class="edge"><title>Node18&#45;&gt;Node13</title>
<path fill="none" stroke="midnightblue" d="M2164.59,-200.481C2196.11,-195.046 2233.86,-182.539 2254,-154 2267.58,-134.761 2255.74,-107.447 2245.1,-89.8487"/>
<polygon fill="midnightblue" stroke="midnightblue" points="2247.86,-87.6721 2239.49,-81.1844 2241.99,-91.4796 2247.86,-87.6721"/>
</g>
<!-- Node18&#45;&gt;Node14 -->
<g id="edge22" class="edge"><title>Node18&#45;&gt;Node14</title>
<path fill="none" stroke="midnightblue" d="M2094.42,-190.396C2083.39,-181.538 2068.96,-169.96 2056.65,-160.086"/>
<polygon fill="midnightblue" stroke="midnightblue" points="2058.53,-157.105 2048.54,-153.577 2054.15,-162.565 2058.53,-157.105"/>
</g>
<!-- Node18&#45;&gt;Node15 -->
<g id="edge36" class="edge"><title>Node18&#45;&gt;Node15</title>
<path fill="none" stroke="midnightblue" d="M2059.26,-199.254C2026.79,-193.338 1986.62,-180.756 1961,-154 1927.9,-119.427 1921.24,-59.9694 1920.08,-29.7745"/>
<polygon fill="midnightblue" stroke="midnightblue" points="1923.58,-29.6695 1919.86,-19.7477 1916.58,-29.8211 1923.58,-29.6695"/>
</g>
<!-- Node18&#45;&gt;Node16 -->
<g id="edge24" class="edge"><title>Node18&#45;&gt;Node16</title>
<path fill="none" stroke="midnightblue" d="M2164.64,-196.82C2223.33,-188.02 2321.27,-172.627 2415.32,-154.058"/>
<polygon fill="midnightblue" stroke="midnightblue" points="2416.16,-157.459 2425.29,-152.075 2414.79,-150.593 2416.16,-157.459"/>
</g>
<!-- Node18&#45;&gt;Node17 -->
<g id="edge25" class="edge"><title>Node18&#45;&gt;Node17</title>
<path fill="none" stroke="midnightblue" d="M2164.43,-190.476C2201.99,-180.43 2252.73,-166.856 2292.41,-156.242"/>
<polygon fill="midnightblue" stroke="midnightblue" points="2293.49,-159.576 2302.25,-153.611 2291.68,-152.814 2293.49,-159.576"/>
</g>
<!-- Node18&#45;&gt;Node19 -->
<g id="edge26" class="edge"><title>Node18&#45;&gt;Node19</title>
<path fill="none" stroke="midnightblue" d="M2164.81,-199.838C2243.79,-192.516 2397.54,-176.922 2538.69,-153.941"/>
<polygon fill="midnightblue" stroke="midnightblue" points="2539.53,-157.35 2548.83,-152.274 2538.39,-150.443 2539.53,-157.35"/>
</g>
<!-- Node18&#45;&gt;Node24 -->
<g id="edge32" class="edge"><title>Node18&#45;&gt;Node24</title>
<path fill="none" stroke="midnightblue" d="M2059.45,-202.412C1987.88,-199.573 1855.75,-194.352 1743,-190 1320.79,-173.705 1215.07,-173.675 793,-154 724.954,-150.828 647.011,-146.414 593.949,-143.292"/>
<polygon fill="midnightblue" stroke="midnightblue" points="593.867,-139.781 583.678,-142.685 593.454,-146.769 593.867,-139.781"/>
</g>
<!-- Node19&#45;&gt;Node20 -->
<g id="edge27" class="edge"><title>Node19&#45;&gt;Node20</title>
<path fill="none" stroke="midnightblue" d="M2576.62,-123.396C2556.07,-113.856 2528.74,-101.163 2506.5,-90.8397"/>
<polygon fill="midnightblue" stroke="midnightblue" points="2507.86,-87.6131 2497.32,-86.5765 2504.91,-93.9622 2507.86,-87.6131"/>
</g>
<!-- Node20&#45;&gt;Node15 -->
<g id="edge30" class="edge"><title>Node20&#45;&gt;Node15</title>
<path fill="none" stroke="midnightblue" d="M2412.19,-66.1651C2302.55,-57.3244 2058.66,-36.7638 1956.31,-19.938"/>
<polygon fill="midnightblue" stroke="midnightblue" points="1956.73,-16.4581 1946.28,-18.2183 1955.54,-23.3575 1956.73,-16.4581"/>
</g>
<!-- Node21 -->
<g id="node21" class="node"><title>Node21</title>
<polygon fill="none" stroke="#bfbfbf" points="2477,-0.5 2477,-19.5 2555,-19.5 2555,-0.5 2477,-0.5"/>
<text text-anchor="middle" x="2516" y="-7.5" font-family="Helvetica,sans-Serif" font-size="10.00">boost/any.hpp</text>
</g>
<!-- Node20&#45;&gt;Node21 -->
<g id="edge28" class="edge"><title>Node20&#45;&gt;Node21</title>
<path fill="none" stroke="midnightblue" d="M2478.61,-56.3993C2485.73,-47.7533 2494.88,-36.642 2502.35,-27.576"/>
<polygon fill="midnightblue" stroke="midnightblue" points="2505.21,-29.6021 2508.87,-19.6578 2499.81,-25.1521 2505.21,-29.6021"/>
</g>
<!-- Node22 -->
<g id="node22" class="node"><title>Node22</title>
<polygon fill="none" stroke="#bfbfbf" points="2375.5,-0.5 2375.5,-19.5 2458.5,-19.5 2458.5,-0.5 2375.5,-0.5"/>
<text text-anchor="middle" x="2417" y="-7.5" font-family="Helvetica,sans-Serif" font-size="10.00">unordered_map</text>
</g>
<!-- Node20&#45;&gt;Node22 -->
<g id="edge29" class="edge"><title>Node20&#45;&gt;Node22</title>
<path fill="none" stroke="midnightblue" d="M2455.15,-56.3993C2447.89,-47.7533 2438.55,-36.642 2430.93,-27.576"/>
<polygon fill="midnightblue" stroke="midnightblue" points="2433.39,-25.0619 2424.28,-19.6578 2428.03,-29.5653 2433.39,-25.0619"/>
</g>
<!-- Node23 -->
<g id="node23" class="node"><title>Node23</title>
<polygon fill="none" stroke="#bfbfbf" points="1964,-0.5 1964,-19.5 2018,-19.5 2018,-0.5 1964,-0.5"/>
<text text-anchor="middle" x="1991" y="-7.5" font-family="Helvetica,sans-Serif" font-size="10.00">iostream</text>
</g>
<!-- Node20&#45;&gt;Node23 -->
<g id="edge31" class="edge"><title>Node20&#45;&gt;Node23</title>
<path fill="none" stroke="midnightblue" d="M2412.4,-63.6746C2314.51,-51.4385 2111.6,-26.0745 2028.11,-15.6391"/>
<polygon fill="midnightblue" stroke="midnightblue" points="2028.43,-12.1518 2018.07,-14.3843 2027.56,-19.0977 2028.43,-12.1518"/>
</g>
<!-- Node25 -->
<g id="node25" class="node"><title>Node25</title>
<polygon fill="none" stroke="#bfbfbf" points="855.5,-0.5 855.5,-19.5 904.5,-19.5 904.5,-0.5 855.5,-0.5"/>
<text text-anchor="middle" x="880" y="-7.5" font-family="Helvetica,sans-Serif" font-size="10.00">stdint.h</text>
</g>
<!-- Node24&#45;&gt;Node25 -->
<g id="edge33" class="edge"><title>Node24&#45;&gt;Node25</title>
<path fill="none" stroke="midnightblue" d="M478.137,-125.985C428.506,-112.858 366.034,-88.8818 396,-56 426.157,-22.9088 738.903,-13.7574 845.01,-11.5949"/>
<polygon fill="midnightblue" stroke="midnightblue" points="845.261,-15.0907 855.191,-11.3961 845.125,-8.09205 845.261,-15.0907"/>
</g>
<!-- Node26&#45;&gt;Node23 -->
<g id="edge67" class="edge"><title>Node26&#45;&gt;Node23</title>
<path fill="none" stroke="midnightblue" d="M1717.93,-190.482C1747.39,-181.679 1784.55,-169.133 1816,-154 1865.55,-130.157 1877.8,-122.247 1920,-87 1941.98,-68.6393 1963.98,-43.8528 1977.54,-27.6532"/>
<polygon fill="midnightblue" stroke="midnightblue" points="1980.49,-29.5756 1984.15,-19.6321 1975.09,-25.1244 1980.49,-29.5756"/>
</g>
<!-- Node26&#45;&gt;Node27 -->
<g id="edge41" class="edge"><title>Node26&#45;&gt;Node27</title>
<path fill="none" stroke="midnightblue" d="M1685.31,-190.396C1697.67,-181.367 1713.9,-169.514 1727.59,-159.518"/>
<polygon fill="midnightblue" stroke="midnightblue" points="1729.71,-162.301 1735.73,-153.577 1725.59,-156.648 1729.71,-162.301"/>
</g>
<!-- Node29 -->
<g id="node29" class="node"><title>Node29</title>
<polygon fill="none" stroke="#bfbfbf" points="1555,-62 1555,-81 1615,-81 1615,-62 1555,-62"/>
<text text-anchor="middle" x="1585" y="-69" font-family="Helvetica,sans-Serif" font-size="10.00">sys/stat.h</text>
</g>
<!-- Node26&#45;&gt;Node29 -->
<g id="edge65" class="edge"><title>Node26&#45;&gt;Node29</title>
<path fill="none" stroke="midnightblue" d="M1657.33,-190.374C1642.36,-165.969 1611.69,-116.002 1595.52,-89.6475"/>
<polygon fill="midnightblue" stroke="midnightblue" points="1598.49,-87.7899 1590.28,-81.0973 1592.52,-91.4511 1598.49,-87.7899"/>
</g>
<!-- Node30 -->
<g id="node30" class="node"><title>Node30</title>
<polygon fill="none" stroke="#bfbfbf" points="1633,-62 1633,-81 1677,-81 1677,-62 1633,-62"/>
<text text-anchor="middle" x="1655" y="-69" font-family="Helvetica,sans-Serif" font-size="10.00">fcntl.h</text>
</g>
<!-- Node26&#45;&gt;Node30 -->
<g id="edge66" class="edge"><title>Node26&#45;&gt;Node30</title>
<path fill="none" stroke="midnightblue" d="M1664.82,-190.374C1662.83,-166.504 1658.81,-118.181 1656.58,-91.4149"/>
<polygon fill="midnightblue" stroke="midnightblue" points="1660.03,-90.772 1655.72,-81.0973 1653.06,-91.3534 1660.03,-90.772"/>
</g>
<!-- Node35 -->
<g id="node35" class="node"><title>Node35</title>
<g id="a_node35"><a xlink:href="CommunicationInterfaceROS_8h.html" target="_top" xlink:title="XCM/CommunicationInterface\lROS.h">
<polygon fill="none" stroke="black" points="802.5,-123.5 802.5,-153.5 951.5,-153.5 951.5,-123.5 802.5,-123.5"/>
<text text-anchor="start" x="810.5" y="-141.5" font-family="Helvetica,sans-Serif" font-size="10.00">XCM/CommunicationInterface</text>
<text text-anchor="middle" x="877" y="-130.5" font-family="Helvetica,sans-Serif" font-size="10.00">ROS.h</text>
</a>
</g>
</g>
<!-- Node26&#45;&gt;Node35 -->
<g id="edge54" class="edge"><title>Node26&#45;&gt;Node35</title>
<path fill="none" stroke="midnightblue" d="M1597.24,-191.933C1592.43,-191.225 1587.65,-190.57 1583,-190 1359.67,-162.577 1094.64,-148.548 961.807,-142.782"/>
<polygon fill="midnightblue" stroke="midnightblue" points="961.839,-139.28 951.698,-142.348 961.539,-146.273 961.839,-139.28"/>
</g>
<!-- Node27&#45;&gt;Node12 -->
<g id="edge42" class="edge"><title>Node27&#45;&gt;Node12</title>
<path fill="none" stroke="midnightblue" d="M1807.5,-124.813C1862.97,-111.411 1948.51,-90.7408 1993.67,-79.8282"/>
<polygon fill="midnightblue" stroke="midnightblue" points="1994.56,-83.2147 2003.46,-77.4638 1992.92,-76.4105 1994.56,-83.2147"/>
</g>
<!-- Node27&#45;&gt;Node15 -->
<g id="edge43" class="edge"><title>Node27&#45;&gt;Node15</title>
<path fill="none" stroke="midnightblue" d="M1741.68,-123.209C1727.12,-105.811 1707.87,-76.2492 1724,-56 1743.59,-31.4082 1832.61,-19.1462 1883.69,-14.0366"/>
<polygon fill="midnightblue" stroke="midnightblue" points="1884.05,-17.5183 1893.67,-13.0807 1883.38,-10.5502 1884.05,-17.5183"/>
</g>
<!-- Node27&#45;&gt;Node23 -->
<g id="edge44" class="edge"><title>Node27&#45;&gt;Node23</title>
<path fill="none" stroke="midnightblue" d="M1796.26,-123.396C1821.12,-114.274 1853.08,-101.433 1880,-87 1914.19,-68.6677 1950.75,-42.1269 1972.2,-25.749"/>
<polygon fill="midnightblue" stroke="midnightblue" points="1974.38,-28.4856 1980.16,-19.6062 1970.11,-22.9432 1974.38,-28.4856"/>
</g>
<!-- Node28 -->
<g id="node28" class="node"><title>Node28</title>
<polygon fill="none" stroke="#bfbfbf" points="1803,-62 1803,-81 1871,-81 1871,-62 1803,-62"/>
<text text-anchor="middle" x="1837" y="-69" font-family="Helvetica,sans-Serif" font-size="10.00">sys/types.h</text>
</g>
<!-- Node27&#45;&gt;Node28 -->
<g id="edge45" class="edge"><title>Node27&#45;&gt;Node28</title>
<path fill="none" stroke="midnightblue" d="M1772.79,-123.396C1786.08,-112.86 1804.23,-98.4771 1817.84,-87.6886"/>
<polygon fill="midnightblue" stroke="midnightblue" points="1820.37,-90.1493 1826.03,-81.1945 1816.02,-84.6637 1820.37,-90.1493"/>
</g>
<!-- Node27&#45;&gt;Node29 -->
<g id="edge46" class="edge"><title>Node27&#45;&gt;Node29</title>
<path fill="none" stroke="midnightblue" d="M1718.11,-123.396C1687.89,-111.84 1645.56,-95.6562 1616.81,-84.6629"/>
<polygon fill="midnightblue" stroke="midnightblue" points="1617.84,-81.3093 1607.25,-81.007 1615.34,-87.8476 1617.84,-81.3093"/>
</g>
<!-- Node27&#45;&gt;Node30 -->
<g id="edge47" class="edge"><title>Node27&#45;&gt;Node30</title>
<path fill="none" stroke="midnightblue" d="M1733.3,-123.396C1716.53,-112.496 1693.43,-97.4787 1676.67,-86.5835"/>
<polygon fill="midnightblue" stroke="midnightblue" points="1678.38,-83.5224 1668.09,-81.007 1674.56,-89.3915 1678.38,-83.5224"/>
</g>
<!-- Node31 -->
<g id="node31" class="node"><title>Node31</title>
<polygon fill="none" stroke="#bfbfbf" points="1733.5,-62 1733.5,-81 1784.5,-81 1784.5,-62 1733.5,-62"/>
<text text-anchor="middle" x="1759" y="-69" font-family="Helvetica,sans-Serif" font-size="10.00">unistd.h</text>
</g>
<!-- Node27&#45;&gt;Node31 -->
<g id="edge48" class="edge"><title>Node27&#45;&gt;Node31</title>
<path fill="none" stroke="midnightblue" d="M1755.87,-123.396C1756.45,-113.963 1757.22,-101.448 1757.85,-91.1891"/>
<polygon fill="midnightblue" stroke="midnightblue" points="1761.34,-91.3907 1758.46,-81.1945 1754.36,-90.9606 1761.34,-91.3907"/>
</g>
<!-- Node32 -->
<g id="node32" class="node"><title>Node32</title>
<g id="a_node32"><a xlink:href="XBotUtils_8h.html" target="_top" xlink:title="XCM/XBotUtils.h">
<polygon fill="none" stroke="red" points="1407,-62 1407,-81 1499,-81 1499,-62 1407,-62"/>
<text text-anchor="middle" x="1453" y="-69" font-family="Helvetica,sans-Serif" font-size="10.00">XCM/XBotUtils.h</text>
</a>
</g>
</g>
<!-- Node27&#45;&gt;Node32 -->
<g id="edge49" class="edge"><title>Node27&#45;&gt;Node32</title>
<path fill="none" stroke="midnightblue" d="M1702.4,-126.178C1646.08,-114.056 1557.41,-94.9731 1502.37,-83.1263"/>
<polygon fill="midnightblue" stroke="midnightblue" points="1503.01,-79.6844 1492.5,-81.0018 1501.54,-86.5276 1503.01,-79.6844"/>
</g>
<!-- Node32&#45;&gt;Node2 -->
<g id="edge51" class="edge"><title>Node32&#45;&gt;Node2</title>
<path fill="none" stroke="midnightblue" d="M1425.56,-61.9345C1416.84,-59.5721 1407.09,-57.3024 1398,-56 810.688,28.1403 648.087,-105.602 56.3546,-19.5715"/>
<polygon fill="midnightblue" stroke="midnightblue" points="56.6914,-16.0835 46.2889,-18.093 55.6741,-23.0092 56.6914,-16.0835"/>
</g>
<!-- Node32&#45;&gt;Node25 -->
<g id="edge50" class="edge"><title>Node32&#45;&gt;Node25</title>
<path fill="none" stroke="midnightblue" d="M1424.37,-61.9618C1415.94,-59.7175 1406.66,-57.506 1398,-56 1218.02,-24.6943 998.874,-14.7625 914.968,-11.9754"/>
<polygon fill="midnightblue" stroke="midnightblue" points="914.836,-8.46944 904.729,-11.6488 914.612,-15.4659 914.836,-8.46944"/>
</g>
<!-- Node33 -->
<g id="node33" class="node"><title>Node33</title>
<polygon fill="none" stroke="#bfbfbf" points="1462,-0.5 1462,-19.5 1512,-19.5 1512,-0.5 1462,-0.5"/>
<text text-anchor="middle" x="1487" y="-7.5" font-family="Helvetica,sans-Serif" font-size="10.00">fstream</text>
</g>
<!-- Node32&#45;&gt;Node33 -->
<g id="edge52" class="edge"><title>Node32&#45;&gt;Node33</title>
<path fill="none" stroke="midnightblue" d="M1457.87,-61.9751C1462.87,-53.2268 1470.79,-39.3691 1477.11,-28.3093"/>
<polygon fill="midnightblue" stroke="midnightblue" points="1480.22,-29.928 1482.14,-19.5091 1474.14,-26.455 1480.22,-29.928"/>
</g>
<!-- Node34 -->
<g id="node34" class="node"><title>Node34</title>
<polygon fill="none" stroke="#bfbfbf" points="1392,-0.5 1392,-19.5 1444,-19.5 1444,-0.5 1392,-0.5"/>
<text text-anchor="middle" x="1418" y="-7.5" font-family="Helvetica,sans-Serif" font-size="10.00">sstream</text>
</g>
<!-- Node32&#45;&gt;Node34 -->
<g id="edge53" class="edge"><title>Node32&#45;&gt;Node34</title>
<path fill="none" stroke="midnightblue" d="M1447.99,-61.9751C1442.84,-53.2268 1434.69,-39.3691 1428.18,-28.3093"/>
<polygon fill="midnightblue" stroke="midnightblue" points="1431.09,-26.3539 1423.01,-19.5091 1425.06,-29.903 1431.09,-26.3539"/>
</g>
<!-- Node36 -->
<g id="node36" class="node"><title>Node36</title>
<g id="a_node36"><a xlink:href="XBotCommunicationInterface_8h.html" target="_top" xlink:title="XCM/XBotCommunicationInterface.h">
<polygon fill="none" stroke="black" points="169.5,-62 169.5,-81 348.5,-81 348.5,-62 169.5,-62"/>
<text text-anchor="middle" x="259" y="-69" font-family="Helvetica,sans-Serif" font-size="10.00">XCM/XBotCommunicationInterface.h</text>
</a>
</g>
</g>
<!-- Node35&#45;&gt;Node36 -->
<g id="edge55" class="edge"><title>Node35&#45;&gt;Node36</title>
<path fill="none" stroke="midnightblue" d="M802.426,-129.69C707.873,-119.783 539.834,-102.162 396,-87 380.976,-85.4162 365.026,-83.7313 349.52,-82.0915"/>
<polygon fill="midnightblue" stroke="midnightblue" points="349.723,-78.5935 339.41,-81.022 348.986,-85.5546 349.723,-78.5935"/>
</g>
<!-- Node38 -->
<g id="node38" class="node"><title>Node38</title>
<polygon fill="none" stroke="#bfbfbf" points="801.5,-62 801.5,-81 856.5,-81 856.5,-62 801.5,-62"/>
<text text-anchor="middle" x="829" y="-69" font-family="Helvetica,sans-Serif" font-size="10.00">ros/ros.h</text>
</g>
<!-- Node35&#45;&gt;Node38 -->
<g id="edge57" class="edge"><title>Node35&#45;&gt;Node38</title>
<path fill="none" stroke="midnightblue" d="M866.585,-123.396C859.175,-113.361 849.188,-99.8382 841.372,-89.2535"/>
<polygon fill="midnightblue" stroke="midnightblue" points="844.177,-87.1597 835.421,-81.1945 838.546,-91.3181 844.177,-87.1597"/>
</g>
<!-- Node39 -->
<g id="node39" class="node"><title>Node39</title>
<polygon fill="none" stroke="#bfbfbf" points="875,-62 875,-81 975,-81 975,-62 875,-62"/>
<text text-anchor="middle" x="925" y="-69" font-family="Helvetica,sans-Serif" font-size="10.00">std_srvs/SetBool.h</text>
</g>
<!-- Node35&#45;&gt;Node39 -->
<g id="edge58" class="edge"><title>Node35&#45;&gt;Node39</title>
<path fill="none" stroke="midnightblue" d="M887.415,-123.396C894.825,-113.361 904.812,-99.8382 912.628,-89.2535"/>
<polygon fill="midnightblue" stroke="midnightblue" points="915.454,-91.3181 918.579,-81.1945 909.823,-87.1597 915.454,-91.3181"/>
</g>
<!-- Node40 -->
<g id="node40" class="node"><title>Node40</title>
<polygon fill="none" stroke="#bfbfbf" points="993,-62 993,-81 1073,-81 1073,-62 993,-62"/>
<text text-anchor="middle" x="1033" y="-69" font-family="Helvetica,sans-Serif" font-size="10.00">boost/bind.hpp</text>
</g>
<!-- Node35&#45;&gt;Node40 -->
<g id="edge59" class="edge"><title>Node35&#45;&gt;Node40</title>
<path fill="none" stroke="midnightblue" d="M910.85,-123.396C938.343,-111.941 976.748,-95.9385 1003.11,-84.9521"/>
<polygon fill="midnightblue" stroke="midnightblue" points="1004.7,-88.084 1012.58,-81.007 1002.01,-81.6224 1004.7,-88.084"/>
</g>
<!-- Node41 -->
<g id="node41" class="node"><title>Node41</title>
<polygon fill="none" stroke="#bfbfbf" points="1091,-56.5 1091,-86.5 1231,-86.5 1231,-56.5 1091,-56.5"/>
<text text-anchor="start" x="1099" y="-74.5" font-family="Helvetica,sans-Serif" font-size="10.00">RobotInterfaceROS/Generic</text>
<text text-anchor="middle" x="1161" y="-63.5" font-family="Helvetica,sans-Serif" font-size="10.00">ControlMessage.h</text>
</g>
<!-- Node35&#45;&gt;Node41 -->
<g id="edge60" class="edge"><title>Node35&#45;&gt;Node41</title>
<path fill="none" stroke="midnightblue" d="M938.274,-123.476C982.634,-113.323 1042.73,-99.5685 1089.32,-88.9055"/>
<polygon fill="midnightblue" stroke="midnightblue" points="1090.38,-92.2538 1099.35,-86.6109 1088.82,-85.4303 1090.38,-92.2538"/>
</g>
<!-- Node42 -->
<g id="node42" class="node"><title>Node42</title>
<polygon fill="none" stroke="#bfbfbf" points="1249,-56.5 1249,-86.5 1389,-86.5 1389,-56.5 1249,-56.5"/>
<text text-anchor="start" x="1257" y="-74.5" font-family="Helvetica,sans-Serif" font-size="10.00">RobotInterfaceROS/Generic</text>
<text text-anchor="middle" x="1319" y="-63.5" font-family="Helvetica,sans-Serif" font-size="10.00">JointStateMessage.h</text>
</g>
<!-- Node35&#45;&gt;Node42 -->
<g id="edge61" class="edge"><title>Node35&#45;&gt;Node42</title>
<path fill="none" stroke="midnightblue" d="M951.529,-128.091C1022.71,-118.885 1133.26,-104.02 1238.64,-87.1805"/>
<polygon fill="midnightblue" stroke="midnightblue" points="1239.5,-90.587 1248.82,-85.5448 1238.39,-83.6756 1239.5,-90.587"/>
</g>
<!-- Node43 -->
<g id="node43" class="node"><title>Node43</title>
<polygon fill="none" stroke="#bfbfbf" points="405.5,-56.5 405.5,-86.5 526.5,-86.5 526.5,-56.5 405.5,-56.5"/>
<text text-anchor="start" x="413.5" y="-74.5" font-family="Helvetica,sans-Serif" font-size="10.00">robot_state_publisher</text>
<text text-anchor="middle" x="466" y="-63.5" font-family="Helvetica,sans-Serif" font-size="10.00">/robot_state_publisher.h</text>
</g>
<!-- Node35&#45;&gt;Node43 -->
<g id="edge62" class="edge"><title>Node35&#45;&gt;Node43</title>
<path fill="none" stroke="midnightblue" d="M802.298,-127.69C735.376,-118.615 634.317,-104.205 536.708,-87.0635"/>
<polygon fill="midnightblue" stroke="midnightblue" points="537.122,-83.5825 526.665,-85.2878 535.903,-90.4755 537.122,-83.5825"/>
</g>
<!-- Node44 -->
<g id="node44" class="node"><title>Node44</title>
<polygon fill="none" stroke="#bfbfbf" points="545,-62 545,-81 651,-81 651,-62 545,-62"/>
<text text-anchor="middle" x="598" y="-69" font-family="Helvetica,sans-Serif" font-size="10.00">XCM/cmd_service.h</text>
</g>
<!-- Node35&#45;&gt;Node44 -->
<g id="edge63" class="edge"><title>Node35&#45;&gt;Node44</title>
<path fill="none" stroke="midnightblue" d="M816.662,-123.477C773.119,-113.353 712.925,-99.3471 660,-87 654.949,-85.8216 649.666,-84.588 644.407,-83.3591"/>
<polygon fill="midnightblue" stroke="midnightblue" points="644.923,-79.8854 634.389,-81.0173 643.33,-86.7017 644.923,-79.8854"/>
</g>
<!-- Node45 -->
<g id="node45" class="node"><title>Node45</title>
<polygon fill="none" stroke="#bfbfbf" points="669,-62 669,-81 783,-81 783,-62 669,-62"/>
<text text-anchor="middle" x="726" y="-69" font-family="Helvetica,sans-Serif" font-size="10.00">XCM/status_service.h</text>
</g>
<!-- Node35&#45;&gt;Node45 -->
<g id="edge64" class="edge"><title>Node35&#45;&gt;Node45</title>
<path fill="none" stroke="midnightblue" d="M844.235,-123.396C817.741,-111.991 780.777,-96.0794 755.265,-85.0976"/>
<polygon fill="midnightblue" stroke="midnightblue" points="756.331,-81.7461 745.762,-81.007 753.564,-88.1757 756.331,-81.7461"/>
</g>
<!-- Node37 -->
<g id="node37" class="node"><title>Node37</title>
<polygon fill="none" stroke="#bfbfbf" points="65,-0.5 65,-19.5 217,-19.5 217,-0.5 65,-0.5"/>
<text text-anchor="middle" x="141" y="-7.5" font-family="Helvetica,sans-Serif" font-size="10.00">XBotInterface/RobotInterface.h</text>
</g>
<!-- Node36&#45;&gt;Node37 -->
<g id="edge56" class="edge"><title>Node36&#45;&gt;Node37</title>
<path fill="none" stroke="midnightblue" d="M242.093,-61.9751C222.466,-52.078 189.869,-35.6416 167.01,-24.1151"/>
<polygon fill="midnightblue" stroke="midnightblue" points="168.38,-20.8863 157.875,-19.5091 165.228,-27.1367 168.38,-20.8863"/>
</g>
<!-- Node46&#45;&gt;Node18 -->
<g id="edge72" class="edge"><title>Node46&#45;&gt;Node18</title>
<path fill="none" stroke="midnightblue" d="M1621.22,-262.986C1632.15,-260.846 1644,-258.682 1655,-257 1795.23,-235.552 1960.99,-219.546 2049.27,-211.762"/>
<polygon fill="midnightblue" stroke="midnightblue" points="2049.72,-215.236 2059.38,-210.877 2049.11,-208.262 2049.72,-215.236"/>
</g>
<!-- Node46&#45;&gt;Node26 -->
<g id="edge73" class="edge"><title>Node46&#45;&gt;Node26</title>
<path fill="none" stroke="midnightblue" d="M1592.46,-262.734C1604.39,-253.611 1623.5,-239.004 1639.24,-226.963"/>
<polygon fill="midnightblue" stroke="midnightblue" points="1641.76,-229.444 1647.58,-220.589 1637.51,-223.883 1641.76,-229.444"/>
</g>
<!-- Node46&#45;&gt;Node37 -->
<g id="edge71" class="edge"><title>Node46&#45;&gt;Node37</title>
<path fill="none" stroke="midnightblue" d="M1515.5,-267.068C1343.28,-254.879 863.839,-217.475 469,-154 330.257,-131.695 260.916,-184.791 160,-87 144.697,-72.1709 141.009,-47.0254 140.45,-29.746"/>
<polygon fill="midnightblue" stroke="midnightblue" points="143.95,-29.7125 140.445,-19.7145 136.95,-29.7165 143.95,-29.7125"/>
</g>
<!-- Node47&#45;&gt;Node15 -->
<g id="edge75" class="edge"><title>Node47&#45;&gt;Node15</title>
<path fill="none" stroke="midnightblue" d="M1487.53,-195.658C1489.61,-169.436 1499.62,-91.7117 1546,-56 1598.3,-15.7282 1800.67,-10.9875 1883.92,-10.7833"/>
<polygon fill="midnightblue" stroke="midnightblue" points="1883.93,-14.2834 1893.92,-10.7795 1883.92,-7.28337 1883.93,-14.2834"/>
</g>
<!-- Node48&#45;&gt;Node24 -->
<g id="edge77" class="edge"><title>Node48&#45;&gt;Node24</title>
<path fill="none" stroke="midnightblue" d="M161.13,-195.936C240.619,-183.807 385.513,-161.699 468.391,-149.053"/>
<polygon fill="midnightblue" stroke="midnightblue" points="469.071,-152.49 478.428,-147.522 468.015,-145.57 469.071,-152.49"/>
</g>
<!-- Node48&#45;&gt;Node37 -->
<g id="edge78" class="edge"><title>Node48&#45;&gt;Node37</title>
<path fill="none" stroke="midnightblue" d="M105.823,-195.709C108.089,-172.604 115.056,-108.344 127,-56 129.05,-47.0149 132.007,-37.2246 134.675,-29.0773"/>
<polygon fill="midnightblue" stroke="midnightblue" points="138.019,-30.1135 137.916,-19.5191 131.39,-27.8654 138.019,-30.1135"/>
</g>
</g>
</svg>
