<?xml version="1.0" encoding="UTF-8" standalone="no"?>
<!DOCTYPE svg PUBLIC "-//W3C//DTD SVG 1.1//EN"
 "http://www.w3.org/Graphics/SVG/1.1/DTD/svg11.dtd">
<!-- Generated by graphviz version 2.38.0 (20140413.2041)
 -->
<!-- Title: Graphical Class Hierarchy Pages: 1 -->
<svg width="296pt" height="88pt"
 viewBox="0.00 0.00 296.00 88.00" xmlns="http://www.w3.org/2000/svg" xmlns:xlink="http://www.w3.org/1999/xlink">
<g id="graph0" class="graph" transform="scale(1 1) rotate(0) translate(4 84)">
<title>Graphical Class Hierarchy</title>
<!-- Node1 -->
<g id="node1" class="node"><title>Node1</title>
<g id="a_node1"><a xlink:href="classXBot_1_1Publisher.html" target="_top" xlink:title="XBot::Publisher\&lt; DataType \&gt;">
<polygon fill="none" stroke="black" points="0,-30 0,-49 146,-49 146,-30 0,-30"/>
<text text-anchor="middle" x="73" y="-37" font-family="Helvetica,sans-Serif" font-size="10.00">XBot::Publisher&lt; DataType &gt;</text>
</a>
</g>
</g>
<!-- Node2 -->
<g id="node2" class="node"><title>Node2</title>
<g id="a_node2"><a xlink:href="classXBot_1_1PublisherNRT.html" target="_top" xlink:title="XBot::PublisherNRT\l\&lt; DataType \&gt;">
<polygon fill="none" stroke="black" points="182,-49.5 182,-79.5 288,-79.5 288,-49.5 182,-49.5"/>
<text text-anchor="start" x="190" y="-67.5" font-family="Helvetica,sans-Serif" font-size="10.00">XBot::PublisherNRT</text>
<text text-anchor="middle" x="235" y="-56.5" font-family="Helvetica,sans-Serif" font-size="10.00">&lt; DataType &gt;</text>
</a>
</g>
</g>
<!-- Node1&#45;&gt;Node2 -->
<g id="edge1" class="edge"><title>Node1&#45;&gt;Node2</title>
<path fill="none" stroke="midnightblue" d="M144.837,-50.5682C157.279,-52.5123 170.021,-54.5033 181.837,-56.3496"/>
<polygon fill="midnightblue" stroke="midnightblue" points="145.366,-47.1086 134.946,-49.0227 144.285,-54.0246 145.366,-47.1086"/>
</g>
<!-- Node3 -->
<g id="node3" class="node"><title>Node3</title>
<g id="a_node3"><a xlink:href="classXBot_1_1PublisherRT.html" target="_top" xlink:title="XBot::PublisherRT\&lt;\l DataType \&gt;">
<polygon fill="none" stroke="black" points="183,-0.5 183,-30.5 287,-30.5 287,-0.5 183,-0.5"/>
<text text-anchor="start" x="191" y="-18.5" font-family="Helvetica,sans-Serif" font-size="10.00">XBot::PublisherRT&lt;</text>
<text text-anchor="middle" x="235" y="-7.5" font-family="Helvetica,sans-Serif" font-size="10.00"> DataType &gt;</text>
</a>
</g>
</g>
<!-- Node1&#45;&gt;Node3 -->
<g id="edge2" class="edge"><title>Node1&#45;&gt;Node3</title>
<path fill="none" stroke="midnightblue" d="M147.624,-28.4564C159.523,-26.6715 171.612,-24.8582 182.828,-23.1757"/>
<polygon fill="midnightblue" stroke="midnightblue" points="147.066,-25.0008 137.696,-29.9456 148.105,-31.9234 147.066,-25.0008"/>
</g>
</g>
</svg>
