<?xml version="1.0" encoding="UTF-8" standalone="no"?>
<!DOCTYPE svg PUBLIC "-//W3C//DTD SVG 1.1//EN"
 "http://www.w3.org/Graphics/SVG/1.1/DTD/svg11.dtd">
<!-- Generated by graphviz version 2.38.0 (20140413.2041)
 -->
<!-- Title: Graphical Class Hierarchy Pages: 1 -->
<svg width="308pt" height="88pt"
 viewBox="0.00 0.00 308.00 88.00" xmlns="http://www.w3.org/2000/svg" xmlns:xlink="http://www.w3.org/1999/xlink">
<g id="graph0" class="graph" transform="scale(1 1) rotate(0) translate(4 84)">
<title>Graphical Class Hierarchy</title>
<!-- Node1 -->
<g id="node1" class="node"><title>Node1</title>
<g id="a_node1"><a xlink:href="classXBot_1_1Subscriber.html" target="_top" xlink:title="XBot::Subscriber\&lt; DataType \&gt;">
<polygon fill="none" stroke="black" points="0,-30 0,-49 152,-49 152,-30 0,-30"/>
<text text-anchor="middle" x="76" y="-37" font-family="Helvetica,sans-Serif" font-size="10.00">XBot::Subscriber&lt; DataType &gt;</text>
</a>
</g>
</g>
<!-- Node2 -->
<g id="node2" class="node"><title>Node2</title>
<g id="a_node2"><a xlink:href="classXBot_1_1SubscriberNRT.html" target="_top" xlink:title="XBot::SubscriberNRT\l\&lt; DataType \&gt;">
<polygon fill="none" stroke="black" points="188,-49.5 188,-79.5 300,-79.5 300,-49.5 188,-49.5"/>
<text text-anchor="start" x="196" y="-67.5" font-family="Helvetica,sans-Serif" font-size="10.00">XBot::SubscriberNRT</text>
<text text-anchor="middle" x="244" y="-56.5" font-family="Helvetica,sans-Serif" font-size="10.00">&lt; DataType &gt;</text>
</a>
</g>
</g>
<!-- Node1&#45;&gt;Node2 -->
<g id="edge1" class="edge"><title>Node1&#45;&gt;Node2</title>
<path fill="none" stroke="midnightblue" d="M150.256,-50.5326C162.867,-52.4317 175.781,-54.3767 187.814,-56.1888"/>
<polygon fill="midnightblue" stroke="midnightblue" points="150.641,-47.0511 140.231,-49.0227 149.598,-53.973 150.641,-47.0511"/>
</g>
<!-- Node3 -->
<g id="node3" class="node"><title>Node3</title>
<g id="a_node3"><a xlink:href="classXBot_1_1SubscriberRT.html" target="_top" xlink:title="XBot::SubscriberRT\l\&lt; DataType \&gt;">
<polygon fill="none" stroke="black" points="192,-0.5 192,-30.5 296,-30.5 296,-0.5 192,-0.5"/>
<text text-anchor="start" x="200" y="-18.5" font-family="Helvetica,sans-Serif" font-size="10.00">XBot::SubscriberRT</text>
<text text-anchor="middle" x="244" y="-7.5" font-family="Helvetica,sans-Serif" font-size="10.00">&lt; DataType &gt;</text>
</a>
</g>
</g>
<!-- Node1&#45;&gt;Node3 -->
<g id="edge2" class="edge"><title>Node1&#45;&gt;Node3</title>
<path fill="none" stroke="midnightblue" d="M153.092,-28.4988C166.267,-26.5939 179.676,-24.6553 191.978,-22.8767"/>
<polygon fill="midnightblue" stroke="midnightblue" points="152.481,-25.0506 143.085,-29.9456 153.483,-31.9786 152.481,-25.0506"/>
</g>
</g>
</svg>
