<?xml version="1.0" encoding="UTF-8" standalone="no"?>
<!DOCTYPE svg PUBLIC "-//W3C//DTD SVG 1.1//EN"
 "http://www.w3.org/Graphics/SVG/1.1/DTD/svg11.dtd">
<!-- Generated by graphviz version 2.38.0 (20140413.2041)
 -->
<!-- Title: Graphical Class Hierarchy Pages: 1 -->
<svg width="263pt" height="66pt"
 viewBox="0.00 0.00 263.00 66.00" xmlns="http://www.w3.org/2000/svg" xmlns:xlink="http://www.w3.org/1999/xlink">
<g id="graph0" class="graph" transform="scale(1 1) rotate(0) translate(4 62)">
<title>Graphical Class Hierarchy</title>
<!-- Node1 -->
<g id="node1" class="node"><title>Node1</title>
<g id="a_node1"><a xlink:href="classThread__hook.html" target="_top" xlink:title="Thread_hook">
<polygon fill="none" stroke="black" points="0,-19.5 0,-38.5 73,-38.5 73,-19.5 0,-19.5"/>
<text text-anchor="middle" x="36.5" y="-26.5" font-family="Helvetica,sans-Serif" font-size="10.00">Thread_hook</text>
</a>
</g>
</g>
<!-- Node2 -->
<g id="node2" class="node"><title>Node2</title>
<g id="a_node2"><a xlink:href="classXBot_1_1CommunicationHandler.html" target="_top" xlink:title="XBot::CommunicationHandler">
<polygon fill="none" stroke="black" points="109,-38.5 109,-57.5 255,-57.5 255,-38.5 109,-38.5"/>
<text text-anchor="middle" x="182" y="-45.5" font-family="Helvetica,sans-Serif" font-size="10.00">XBot::CommunicationHandler</text>
</a>
</g>
</g>
<!-- Node1&#45;&gt;Node2 -->
<g id="edge1" class="edge"><title>Node1&#45;&gt;Node2</title>
<path fill="none" stroke="midnightblue" d="M83.4591,-35.0852C91.6993,-36.1762 100.463,-37.3366 109.227,-38.497"/>
<polygon fill="midnightblue" stroke="midnightblue" points="83.7139,-31.5884 73.3409,-33.7455 82.795,-38.5279 83.7139,-31.5884"/>
</g>
<!-- Node3 -->
<g id="node3" class="node"><title>Node3</title>
<g id="a_node3"><a xlink:href="classXBot_1_1NRTDeployer.html" target="_top" xlink:title="XBot::NRTDeployer">
<polygon fill="none" stroke="black" points="130,-0.5 130,-19.5 234,-19.5 234,-0.5 130,-0.5"/>
<text text-anchor="middle" x="182" y="-7.5" font-family="Helvetica,sans-Serif" font-size="10.00">XBot::NRTDeployer</text>
</a>
</g>
</g>
<!-- Node1&#45;&gt;Node3 -->
<g id="edge2" class="edge"><title>Node1&#45;&gt;Node3</title>
<path fill="none" stroke="midnightblue" d="M83.3094,-22.9347C98.1579,-20.9686 114.719,-18.7759 129.926,-16.7624"/>
<polygon fill="midnightblue" stroke="midnightblue" points="82.795,-19.4721 73.3409,-24.2545 83.7139,-26.4116 82.795,-19.4721"/>
</g>
</g>
</svg>
