<?xml version="1.0" encoding="UTF-8" standalone="no"?>
<!DOCTYPE svg PUBLIC "-//W3C//DTD SVG 1.1//EN"
 "http://www.w3.org/Graphics/SVG/1.1/DTD/svg11.dtd">
<!-- Generated by graphviz version 2.38.0 (20140413.2041)
 -->
<!-- Title: Graphical Class Hierarchy Pages: 1 -->
<svg width="286pt" height="78pt"
 viewBox="0.00 0.00 286.00 77.50" xmlns="http://www.w3.org/2000/svg" xmlns:xlink="http://www.w3.org/1999/xlink">
<g id="graph0" class="graph" transform="scale(1 1) rotate(0) translate(4 73.5)">
<title>Graphical Class Hierarchy</title>
<!-- Node1 -->
<g id="node1" class="node"><title>Node1</title>
<g id="a_node1"><a xlink:href="classXBot_1_1TimeProvider.html" target="_top" xlink:title="XBot::TimeProvider">
<polygon fill="none" stroke="black" points="0,-28 0,-47 102,-47 102,-28 0,-28"/>
<text text-anchor="middle" x="51" y="-35" font-family="Helvetica,sans-Serif" font-size="10.00">XBot::TimeProvider</text>
</a>
</g>
</g>
<!-- Node2 -->
<g id="node2" class="node"><title>Node2</title>
<g id="a_node2"><a xlink:href="classXBot_1_1SimpleTimeProvider.html" target="_top" xlink:title="XBot::SimpleTimeProvider">
<polygon fill="none" stroke="black" points="142,-50 142,-69 274,-69 274,-50 142,-50"/>
<text text-anchor="middle" x="208" y="-57" font-family="Helvetica,sans-Serif" font-size="10.00">XBot::SimpleTimeProvider</text>
</a>
</g>
</g>
<!-- Node1&#45;&gt;Node2 -->
<g id="edge1" class="edge"><title>Node1&#45;&gt;Node2</title>
<path fill="none" stroke="midnightblue" d="M112.294,-46.0578C122.019,-47.4382 132.125,-48.8726 141.956,-50.268"/>
<polygon fill="midnightblue" stroke="midnightblue" points="112.717,-42.5829 102.324,-44.6428 111.733,-49.5134 112.717,-42.5829"/>
</g>
<!-- Node3 -->
<g id="node3" class="node"><title>Node3</title>
<g id="a_node3"><a xlink:href="classXBot_1_1TimeProviderFunction.html" target="_top" xlink:title="XBot::TimeProviderFunction\l\&lt; Callable \&gt;">
<polygon fill="none" stroke="black" points="138,-0.5 138,-30.5 278,-30.5 278,-0.5 138,-0.5"/>
<text text-anchor="start" x="146" y="-18.5" font-family="Helvetica,sans-Serif" font-size="10.00">XBot::TimeProviderFunction</text>
<text text-anchor="middle" x="208" y="-7.5" font-family="Helvetica,sans-Serif" font-size="10.00">&lt; Callable &gt;</text>
</a>
</g>
</g>
<!-- Node1&#45;&gt;Node3 -->
<g id="edge2" class="edge"><title>Node1&#45;&gt;Node3</title>
<path fill="none" stroke="midnightblue" d="M112.33,-28.937C120.67,-27.7533 129.288,-26.53 137.773,-25.3257"/>
<polygon fill="midnightblue" stroke="midnightblue" points="111.733,-25.4866 102.324,-30.3572 112.717,-32.4171 111.733,-25.4866"/>
</g>
</g>
</svg>
