<?xml version="1.0" encoding="UTF-8" standalone="no"?>
<!DOCTYPE svg PUBLIC "-//W3C//DTD SVG 1.1//EN"
 "http://www.w3.org/Graphics/SVG/1.1/DTD/svg11.dtd">
<!-- Generated by graphviz version 2.38.0 (20140413.2041)
 -->
<!-- Title: Graphical Class Hierarchy Pages: 1 -->
<svg width="459pt" height="66pt"
 viewBox="0.00 0.00 459.00 66.00" xmlns="http://www.w3.org/2000/svg" xmlns:xlink="http://www.w3.org/1999/xlink">
<g id="graph0" class="graph" transform="scale(1 1) rotate(0) translate(4 62)">
<title>Graphical Class Hierarchy</title>
<!-- Node1 -->
<g id="node1" class="node"><title>Node1</title>
<g id="a_node1"><a xlink:href="classXBot_1_1XBotPlugin.html" target="_top" xlink:title="XBotCore Plugin Interface. ">
<polygon fill="none" stroke="black" points="0,-19.5 0,-38.5 93,-38.5 93,-19.5 0,-19.5"/>
<text text-anchor="middle" x="46.5" y="-26.5" font-family="Helvetica,sans-Serif" font-size="10.00">XBot::XBotPlugin</text>
</a>
</g>
</g>
<!-- Node2 -->
<g id="node2" class="node"><title>Node2</title>
<g id="a_node2"><a xlink:href="classXBot_1_1XBotControlPlugin.html" target="_top" xlink:title="XBot::XBotControlPlugin">
<polygon fill="none" stroke="black" points="129,-19.5 129,-38.5 254,-38.5 254,-19.5 129,-19.5"/>
<text text-anchor="middle" x="191.5" y="-26.5" font-family="Helvetica,sans-Serif" font-size="10.00">XBot::XBotControlPlugin</text>
</a>
</g>
</g>
<!-- Node1&#45;&gt;Node2 -->
<g id="edge1" class="edge"><title>Node1&#45;&gt;Node2</title>
<path fill="none" stroke="midnightblue" d="M103.211,-29C111.62,-29 120.336,-29 128.861,-29"/>
<polygon fill="midnightblue" stroke="midnightblue" points="103.139,-25.5001 93.1393,-29 103.139,-32.5001 103.139,-25.5001"/>
</g>
<!-- Node3 -->
<g id="node3" class="node"><title>Node3</title>
<g id="a_node3"><a xlink:href="classXBot_1_1XBotCommunicationPlugin.html" target="_top" xlink:title="XBotCore RT plugin that communicates wit the non&#45;RT enviroment using XDDP pipes. ">
<polygon fill="none" stroke="black" points="290,-38.5 290,-57.5 451,-57.5 451,-38.5 290,-38.5"/>
<text text-anchor="middle" x="370.5" y="-45.5" font-family="Helvetica,sans-Serif" font-size="10.00">XBot::XBotCommunicationPlugin</text>
</a>
</g>
</g>
<!-- Node2&#45;&gt;Node3 -->
<g id="edge2" class="edge"><title>Node2&#45;&gt;Node3</title>
<path fill="none" stroke="midnightblue" d="M264.491,-36.7279C272.86,-37.6262 281.432,-38.5464 289.895,-39.4549"/>
<polygon fill="midnightblue" stroke="midnightblue" points="264.722,-33.2327 254.406,-35.6453 263.975,-40.1927 264.722,-33.2327"/>
</g>
<!-- Node4 -->
<g id="node4" class="node"><title>Node4</title>
<g id="a_node4"><a xlink:href="classXBot_1_1XBotLoggingPlugin.html" target="_top" xlink:title="XBotCore RT plugin that communicates wit the non&#45;RT enviroment using XDDP pipes. ">
<polygon fill="none" stroke="black" points="307,-0.5 307,-19.5 434,-19.5 434,-0.5 307,-0.5"/>
<text text-anchor="middle" x="370.5" y="-7.5" font-family="Helvetica,sans-Serif" font-size="10.00">XBot::XBotLoggingPlugin</text>
</a>
</g>
</g>
<!-- Node2&#45;&gt;Node4 -->
<g id="edge3" class="edge"><title>Node2&#45;&gt;Node4</title>
<path fill="none" stroke="midnightblue" d="M264.479,-21.2734C278.481,-19.7704 293.055,-18.206 306.731,-16.738"/>
<polygon fill="midnightblue" stroke="midnightblue" points="263.975,-17.8073 254.406,-22.3547 264.722,-24.7673 263.975,-17.8073"/>
</g>
</g>
</svg>
