<?xml version="1.0" encoding="UTF-8" standalone="no"?>
<!DOCTYPE svg PUBLIC "-//W3C//DTD SVG 1.1//EN"
 "http://www.w3.org/Graphics/SVG/1.1/DTD/svg11.dtd">
<!-- Generated by graphviz version 2.38.0 (20140413.2041)
 -->
<!-- Title: Graphical Class Hierarchy Pages: 1 -->
<svg width="229pt" height="104pt"
 viewBox="0.00 0.00 229.00 104.00" xmlns="http://www.w3.org/2000/svg" xmlns:xlink="http://www.w3.org/1999/xlink">
<g id="graph0" class="graph" transform="scale(1 1) rotate(0) translate(4 100)">
<title>Graphical Class Hierarchy</title>
<!-- Node1 -->
<g id="node1" class="node"><title>Node1</title>
<g id="a_node1"><a xlink:href="classXBot_1_1IXBotFT.html" target="_top" xlink:title="XBotCore F&#45;T Force Torque Interface. ">
<polygon fill="none" stroke="black" points="4.5,-76.5 4.5,-95.5 85.5,-95.5 85.5,-76.5 4.5,-76.5"/>
<text text-anchor="middle" x="45" y="-83.5" font-family="Helvetica,sans-Serif" font-size="10.00">XBot::IXBotFT</text>
</a>
</g>
</g>
<!-- Node2 -->
<g id="node2" class="node"><title>Node2</title>
<g id="a_node2"><a xlink:href="classXBot_1_1XBotXDDP.html" target="_top" xlink:title="XBotCore XDDP component: ready to use non&#45;RT XBotCore Interfaces implementation (using XDDP Pipes) ...">
<polygon fill="none" stroke="black" points="126,-38.5 126,-57.5 221,-57.5 221,-38.5 126,-38.5"/>
<text text-anchor="middle" x="173.5" y="-45.5" font-family="Helvetica,sans-Serif" font-size="10.00">XBot::XBotXDDP</text>
</a>
</g>
</g>
<!-- Node1&#45;&gt;Node2 -->
<g id="edge1" class="edge"><title>Node1&#45;&gt;Node2</title>
<path fill="none" stroke="midnightblue" d="M87.7294,-73.4647C104.938,-68.2952 124.56,-62.4009 140.589,-57.5859"/>
<polygon fill="midnightblue" stroke="midnightblue" points="86.4916,-70.1819 77.9213,-76.411 88.5055,-76.886 86.4916,-70.1819"/>
</g>
<!-- Node3 -->
<g id="node3" class="node"><title>Node3</title>
<g id="a_node3"><a xlink:href="classXBot_1_1IXBotIMU.html" target="_top" xlink:title="XBotCore IMU Interface. ">
<polygon fill="none" stroke="black" points="1,-38.5 1,-57.5 89,-57.5 89,-38.5 1,-38.5"/>
<text text-anchor="middle" x="45" y="-45.5" font-family="Helvetica,sans-Serif" font-size="10.00">XBot::IXBotIMU</text>
</a>
</g>
</g>
<!-- Node3&#45;&gt;Node2 -->
<g id="edge2" class="edge"><title>Node3&#45;&gt;Node2</title>
<path fill="none" stroke="midnightblue" d="M99.2871,-48C108.034,-48 117.042,-48 125.618,-48"/>
<polygon fill="midnightblue" stroke="midnightblue" points="99.1804,-44.5001 89.1803,-48 99.1803,-51.5001 99.1804,-44.5001"/>
</g>
<!-- Node4 -->
<g id="node4" class="node"><title>Node4</title>
<g id="a_node4"><a xlink:href="classXBot_1_1IXBotJoint.html" target="_top" xlink:title="XBotCore Joint Interface. ">
<polygon fill="none" stroke="black" points="0,-0.5 0,-19.5 90,-19.5 90,-0.5 0,-0.5"/>
<text text-anchor="middle" x="45" y="-7.5" font-family="Helvetica,sans-Serif" font-size="10.00">XBot::IXBotJoint</text>
</a>
</g>
</g>
<!-- Node4&#45;&gt;Node2 -->
<g id="edge3" class="edge"><title>Node4&#45;&gt;Node2</title>
<path fill="none" stroke="midnightblue" d="M87.7294,-22.5353C104.938,-27.7048 124.56,-33.5991 140.589,-38.4141"/>
<polygon fill="midnightblue" stroke="midnightblue" points="88.5055,-19.114 77.9213,-19.589 86.4916,-25.8181 88.5055,-19.114"/>
</g>
</g>
</svg>
