<?xml version="1.0" encoding="UTF-8" standalone="no"?>
<!DOCTYPE svg PUBLIC "-//W3C//DTD SVG 1.1//EN"
 "http://www.w3.org/Graphics/SVG/1.1/DTD/svg11.dtd">
<!-- Generated by graphviz version 2.38.0 (20140413.2041)
 -->
<!-- Title: Graphical Class Hierarchy Pages: 1 -->
<svg width="285pt" height="522pt"
 viewBox="0.00 0.00 285.00 522.00" xmlns="http://www.w3.org/2000/svg" xmlns:xlink="http://www.w3.org/1999/xlink">
<g id="graph0" class="graph" transform="scale(1 1) rotate(0) translate(4 518)">
<title>Graphical Class Hierarchy</title>
<!-- Node1 -->
<g id="node1" class="node"><title>Node1</title>
<polygon fill="none" stroke="#bfbfbf" points="9,-494.5 9,-513.5 83,-513.5 83,-494.5 9,-494.5"/>
<text text-anchor="middle" x="46" y="-501.5" font-family="Helvetica,sans-Serif" font-size="10.00">DeviceDriver</text>
</g>
<!-- Node2 -->
<g id="node2" class="node"><title>Node2</title>
<g id="a_node2"><a xlink:href="classXBot_1_1dev_1_1XBotMotionControl.html" target="_top" xlink:title="YARP Motion Control for XBOt : a DeviceDriver representing a kinematic chain of the robot...">
<polygon fill="none" stroke="black" points="128,-285.5 128,-304.5 277,-304.5 277,-285.5 128,-285.5"/>
<text text-anchor="middle" x="202.5" y="-292.5" font-family="Helvetica,sans-Serif" font-size="10.00">XBot::dev::XBotMotionControl</text>
</a>
</g>
</g>
<!-- Node1&#45;&gt;Node2 -->
<g id="edge1" class="edge"><title>Node1&#45;&gt;Node2</title>
<path fill="none" stroke="midnightblue" d="M86.35,-489.32C88.344,-487.989 90.2445,-486.551 92,-485 152.766,-431.3 188.218,-335.428 198.413,-304.736"/>
<polygon fill="midnightblue" stroke="midnightblue" points="84.1672,-486.532 77.1704,-494.488 87.6014,-492.632 84.1672,-486.532"/>
</g>
<!-- Node3 -->
<g id="node3" class="node"><title>Node3</title>
<polygon fill="none" stroke="#bfbfbf" points="9,-38.5 9,-57.5 83,-57.5 83,-38.5 9,-38.5"/>
<text text-anchor="middle" x="46" y="-45.5" font-family="Helvetica,sans-Serif" font-size="10.00">DeviceDriver</text>
</g>
<!-- Node4 -->
<g id="node4" class="node"><title>Node4</title>
<g id="a_node4"><a xlink:href="classXBot_1_1dev_1_1XBotFT.html" target="_top" xlink:title="YARP F&#45;T for XBot : a DeviceDriver representing a kinematic chain of the robot. ">
<polygon fill="none" stroke="black" points="152.5,-38.5 152.5,-57.5 252.5,-57.5 252.5,-38.5 152.5,-38.5"/>
<text text-anchor="middle" x="202.5" y="-45.5" font-family="Helvetica,sans-Serif" font-size="10.00">XBot::dev::XBotFT</text>
</a>
</g>
</g>
<!-- Node3&#45;&gt;Node4 -->
<g id="edge2" class="edge"><title>Node3&#45;&gt;Node4</title>
<path fill="none" stroke="midnightblue" d="M93.2479,-48C111.89,-48 133.419,-48 152.344,-48"/>
<polygon fill="midnightblue" stroke="midnightblue" points="93.2234,-44.5001 83.2234,-48 93.2234,-51.5001 93.2234,-44.5001"/>
</g>
<!-- Node5 -->
<g id="node5" class="node"><title>Node5</title>
<polygon fill="none" stroke="#bfbfbf" points="6,-0.5 6,-19.5 86,-19.5 86,-0.5 6,-0.5"/>
<text text-anchor="middle" x="46" y="-7.5" font-family="Helvetica,sans-Serif" font-size="10.00">IAnalogSensor</text>
</g>
<!-- Node5&#45;&gt;Node4 -->
<g id="edge3" class="edge"><title>Node5&#45;&gt;Node4</title>
<path fill="none" stroke="midnightblue" d="M95.9521,-22.04C117.536,-27.3488 142.541,-33.4988 162.793,-38.4799"/>
<polygon fill="midnightblue" stroke="midnightblue" points="96.5334,-18.5787 85.9869,-19.589 94.8615,-25.3762 96.5334,-18.5787"/>
</g>
<!-- Node6 -->
<g id="node6" class="node"><title>Node6</title>
<polygon fill="none" stroke="#bfbfbf" points="18,-456.5 18,-475.5 74,-475.5 74,-456.5 18,-456.5"/>
<text text-anchor="middle" x="46" y="-463.5" font-family="Helvetica,sans-Serif" font-size="10.00">IAxisInfo</text>
</g>
<!-- Node6&#45;&gt;Node2 -->
<g id="edge4" class="edge"><title>Node6&#45;&gt;Node2</title>
<path fill="none" stroke="midnightblue" d="M83.0968,-452.924C86.2424,-451.152 89.2646,-449.181 92,-447 144.898,-404.832 184.124,-330.843 196.974,-304.58"/>
<polygon fill="midnightblue" stroke="midnightblue" points="81.4527,-449.833 74.0408,-457.403 84.556,-456.107 81.4527,-449.833"/>
</g>
<!-- Node7 -->
<g id="node7" class="node"><title>Node7</title>
<polygon fill="none" stroke="#bfbfbf" points="4.5,-418.5 4.5,-437.5 87.5,-437.5 87.5,-418.5 4.5,-418.5"/>
<text text-anchor="middle" x="46" y="-425.5" font-family="Helvetica,sans-Serif" font-size="10.00">IControlLimits2</text>
</g>
<!-- Node7&#45;&gt;Node2 -->
<g id="edge5" class="edge"><title>Node7&#45;&gt;Node2</title>
<path fill="none" stroke="midnightblue" d="M83.8194,-413.957C86.665,-412.422 89.4279,-410.769 92,-409 137.221,-377.895 178.618,-325.812 194.565,-304.513"/>
<polygon fill="midnightblue" stroke="midnightblue" points="82.0449,-410.927 74.5809,-418.447 85.1049,-417.223 82.0449,-410.927"/>
</g>
<!-- Node8 -->
<g id="node8" class="node"><title>Node8</title>
<polygon fill="none" stroke="#bfbfbf" points="6,-380.5 6,-399.5 86,-399.5 86,-380.5 6,-380.5"/>
<text text-anchor="middle" x="46" y="-387.5" font-family="Helvetica,sans-Serif" font-size="10.00">IControlMode2</text>
</g>
<!-- Node8&#45;&gt;Node2 -->
<g id="edge6" class="edge"><title>Node8&#45;&gt;Node2</title>
<path fill="none" stroke="midnightblue" d="M81.5937,-376.263C85.1577,-374.591 88.6846,-372.825 92,-371 129.505,-350.358 169.988,-319.861 189.559,-304.532"/>
<polygon fill="midnightblue" stroke="midnightblue" points="79.9064,-373.183 72.1931,-380.446 82.7523,-379.578 79.9064,-373.183"/>
</g>
<!-- Node9 -->
<g id="node9" class="node"><title>Node9</title>
<polygon fill="none" stroke="#bfbfbf" points="2,-342.5 2,-361.5 90,-361.5 90,-342.5 2,-342.5"/>
<text text-anchor="middle" x="46" y="-349.5" font-family="Helvetica,sans-Serif" font-size="10.00">IEncodersTimed</text>
</g>
<!-- Node9&#45;&gt;Node2 -->
<g id="edge7" class="edge"><title>Node9&#45;&gt;Node2</title>
<path fill="none" stroke="midnightblue" d="M82.4143,-338.935C110.813,-328.457 150.014,-313.995 175.556,-304.572"/>
<polygon fill="midnightblue" stroke="midnightblue" points="81.0302,-335.714 72.8598,-342.459 83.4532,-342.282 81.0302,-335.714"/>
</g>
<!-- Node10 -->
<g id="node10" class="node"><title>Node10</title>
<polygon fill="none" stroke="#bfbfbf" points="1.5,-304.5 1.5,-323.5 90.5,-323.5 90.5,-304.5 1.5,-304.5"/>
<text text-anchor="middle" x="46" y="-311.5" font-family="Helvetica,sans-Serif" font-size="10.00">IInteractionMode</text>
</g>
<!-- Node10&#45;&gt;Node2 -->
<g id="edge8" class="edge"><title>Node10&#45;&gt;Node2</title>
<path fill="none" stroke="midnightblue" d="M100.831,-307.38C109.521,-306.311 118.648,-305.189 127.711,-304.074"/>
<polygon fill="midnightblue" stroke="midnightblue" points="100.358,-303.912 90.8602,-308.606 101.213,-310.859 100.358,-303.912"/>
</g>
<!-- Node11 -->
<g id="node11" class="node"><title>Node11</title>
<polygon fill="none" stroke="#bfbfbf" points="3,-266.5 3,-285.5 89,-285.5 89,-266.5 3,-266.5"/>
<text text-anchor="middle" x="46" y="-273.5" font-family="Helvetica,sans-Serif" font-size="10.00">IMotorEncoders</text>
</g>
<!-- Node11&#45;&gt;Node2 -->
<g id="edge9" class="edge"><title>Node11&#45;&gt;Node2</title>
<path fill="none" stroke="midnightblue" d="M99.3262,-282.435C108.506,-283.564 118.211,-284.757 127.842,-285.942"/>
<polygon fill="midnightblue" stroke="midnightblue" points="99.5703,-278.939 89.2178,-281.192 98.7158,-285.886 99.5703,-278.939"/>
</g>
<!-- Node12 -->
<g id="node12" class="node"><title>Node12</title>
<polygon fill="none" stroke="#bfbfbf" points="0,-228.5 0,-247.5 92,-247.5 92,-228.5 0,-228.5"/>
<text text-anchor="middle" x="46" y="-235.5" font-family="Helvetica,sans-Serif" font-size="10.00">IPositionControl2</text>
</g>
<!-- Node12&#45;&gt;Node2 -->
<g id="edge10" class="edge"><title>Node12&#45;&gt;Node2</title>
<path fill="none" stroke="midnightblue" d="M82.4143,-251.065C110.813,-261.543 150.014,-276.005 175.556,-285.428"/>
<polygon fill="midnightblue" stroke="midnightblue" points="83.4532,-247.718 72.8598,-247.541 81.0302,-254.286 83.4532,-247.718"/>
</g>
<!-- Node13 -->
<g id="node13" class="node"><title>Node13</title>
<polygon fill="none" stroke="#bfbfbf" points="5.5,-190.5 5.5,-209.5 86.5,-209.5 86.5,-190.5 5.5,-190.5"/>
<text text-anchor="middle" x="46" y="-197.5" font-family="Helvetica,sans-Serif" font-size="10.00">IPositionDirect</text>
</g>
<!-- Node13&#45;&gt;Node2 -->
<g id="edge11" class="edge"><title>Node13&#45;&gt;Node2</title>
<path fill="none" stroke="midnightblue" d="M81.5937,-213.737C85.1577,-215.409 88.6846,-217.175 92,-219 129.505,-239.642 169.988,-270.139 189.559,-285.468"/>
<polygon fill="midnightblue" stroke="midnightblue" points="82.7523,-210.422 72.1931,-209.554 79.9064,-216.817 82.7523,-210.422"/>
</g>
<!-- Node14 -->
<g id="node14" class="node"><title>Node14</title>
<polygon fill="none" stroke="#bfbfbf" points="5.5,-152.5 5.5,-171.5 86.5,-171.5 86.5,-152.5 5.5,-152.5"/>
<text text-anchor="middle" x="46" y="-159.5" font-family="Helvetica,sans-Serif" font-size="10.00">ITorqueControl</text>
</g>
<!-- Node14&#45;&gt;Node2 -->
<g id="edge12" class="edge"><title>Node14&#45;&gt;Node2</title>
<path fill="none" stroke="midnightblue" d="M83.8194,-176.043C86.665,-177.578 89.4279,-179.231 92,-181 137.221,-212.105 178.618,-264.188 194.565,-285.487"/>
<polygon fill="midnightblue" stroke="midnightblue" points="85.1049,-172.777 74.5809,-171.553 82.0449,-179.073 85.1049,-172.777"/>
</g>
<!-- Node15 -->
<g id="node15" class="node"><title>Node15</title>
<polygon fill="none" stroke="#bfbfbf" points="0,-114.5 0,-133.5 92,-133.5 92,-114.5 0,-114.5"/>
<text text-anchor="middle" x="46" y="-121.5" font-family="Helvetica,sans-Serif" font-size="10.00">IVelocityControl2</text>
</g>
<!-- Node15&#45;&gt;Node2 -->
<g id="edge13" class="edge"><title>Node15&#45;&gt;Node2</title>
<path fill="none" stroke="midnightblue" d="M85.5002,-138.485C87.7803,-139.878 89.9692,-141.381 92,-143 144.898,-185.168 184.124,-259.157 196.974,-285.42"/>
<polygon fill="midnightblue" stroke="midnightblue" points="86.8693,-135.25 76.3952,-133.655 83.5889,-141.433 86.8693,-135.25"/>
</g>
<!-- Node16 -->
<g id="node16" class="node"><title>Node16</title>
<g id="a_node16"><a xlink:href="classXBot_1_1IXBotInit.html" target="_top" xlink:title="XBotCore initialize. ">
<polygon fill="none" stroke="black" points="4.5,-76.5 4.5,-95.5 87.5,-95.5 87.5,-76.5 4.5,-76.5"/>
<text text-anchor="middle" x="46" y="-83.5" font-family="Helvetica,sans-Serif" font-size="10.00">XBot::IXBotInit</text>
</a>
</g>
</g>
<!-- Node16&#45;&gt;Node2 -->
<g id="edge15" class="edge"><title>Node16&#45;&gt;Node2</title>
<path fill="none" stroke="midnightblue" d="M86.35,-100.68C88.344,-102.011 90.2445,-103.449 92,-105 152.766,-158.7 188.218,-254.572 198.413,-285.264"/>
<polygon fill="midnightblue" stroke="midnightblue" points="87.6014,-97.3683 77.1704,-95.5122 84.1672,-103.468 87.6014,-97.3683"/>
</g>
<!-- Node16&#45;&gt;Node4 -->
<g id="edge14" class="edge"><title>Node16&#45;&gt;Node4</title>
<path fill="none" stroke="midnightblue" d="M95.9521,-73.96C117.536,-68.6512 142.541,-62.5012 162.793,-57.5201"/>
<polygon fill="midnightblue" stroke="midnightblue" points="94.8615,-70.6238 85.9869,-76.411 96.5334,-77.4213 94.8615,-70.6238"/>
</g>
</g>
</svg>
