<?xml version="1.0" encoding="UTF-8" standalone="no"?>
<!DOCTYPE svg PUBLIC "-//W3C//DTD SVG 1.1//EN"
 "http://www.w3.org/Graphics/SVG/1.1/DTD/svg11.dtd">
<!-- Generated by graphviz version 2.38.0 (20140413.2041)
 -->
<!-- Title: Graphical Class Hierarchy Pages: 1 -->
<svg width="374pt" height="66pt"
 viewBox="0.00 0.00 374.00 66.00" xmlns="http://www.w3.org/2000/svg" xmlns:xlink="http://www.w3.org/1999/xlink">
<g id="graph0" class="graph" transform="scale(1 1) rotate(0) translate(4 62)">
<title>Graphical Class Hierarchy</title>
<!-- Node1 -->
<g id="node1" class="node"><title>Node1</title>
<g id="a_node1"><a xlink:href="classXBot_1_1CommunicationInterface.html" target="_top" xlink:title="XBot::CommunicationInterface">
<polygon fill="none" stroke="black" points="0,-19.5 0,-38.5 151,-38.5 151,-19.5 0,-19.5"/>
<text text-anchor="middle" x="75.5" y="-26.5" font-family="Helvetica,sans-Serif" font-size="10.00">XBot::CommunicationInterface</text>
</a>
</g>
</g>
<!-- Node2 -->
<g id="node2" class="node"><title>Node2</title>
<g id="a_node2"><a xlink:href="classXBot_1_1CommunicationInterfaceROS.html" target="_top" xlink:title="XBot::CommunicationInterfaceROS">
<polygon fill="none" stroke="black" points="190,-38.5 190,-57.5 363,-57.5 363,-38.5 190,-38.5"/>
<text text-anchor="middle" x="276.5" y="-45.5" font-family="Helvetica,sans-Serif" font-size="10.00">XBot::CommunicationInterfaceROS</text>
</a>
</g>
</g>
<!-- Node1&#45;&gt;Node2 -->
<g id="edge1" class="edge"><title>Node1&#45;&gt;Node2</title>
<path fill="none" stroke="midnightblue" d="M161.289,-37.0954C170.697,-37.9937 180.285,-38.9091 189.705,-39.8085"/>
<polygon fill="midnightblue" stroke="midnightblue" points="161.454,-33.5953 151.166,-36.129 160.788,-40.5637 161.454,-33.5953"/>
</g>
<!-- Node3 -->
<g id="node3" class="node"><title>Node3</title>
<g id="a_node3"><a xlink:href="classXBot_1_1CommunicationInterfaceYARP.html" target="_top" xlink:title="XBot::CommunicationInterfaceYARP">
<polygon fill="none" stroke="black" points="187,-0.5 187,-19.5 366,-19.5 366,-0.5 187,-0.5"/>
<text text-anchor="middle" x="276.5" y="-7.5" font-family="Helvetica,sans-Serif" font-size="10.00">XBot::CommunicationInterfaceYARP</text>
</a>
</g>
</g>
<!-- Node1&#45;&gt;Node3 -->
<g id="edge2" class="edge"><title>Node1&#45;&gt;Node3</title>
<path fill="none" stroke="midnightblue" d="M161.312,-20.9023C169.701,-20.1014 178.233,-19.2868 186.662,-18.4821"/>
<polygon fill="midnightblue" stroke="midnightblue" points="160.788,-17.4363 151.166,-21.871 161.454,-24.4047 160.788,-17.4363"/>
</g>
</g>
</svg>
