<?xml version="1.0" encoding="UTF-8" standalone="no"?>
<!DOCTYPE svg PUBLIC "-//W3C//DTD SVG 1.1//EN"
 "http://www.w3.org/Graphics/SVG/1.1/DTD/svg11.dtd">
<!-- Generated by graphviz version 2.38.0 (20140413.2041)
 -->
<!-- Title: /home/lucamuratore/advr&#45;superbuild/external/XCM/include/XCM/IOPlugin.h Pages: 1 -->
<svg width="505pt" height="106pt"
 viewBox="0.00 0.00 504.50 106.00" xmlns="http://www.w3.org/2000/svg" xmlns:xlink="http://www.w3.org/1999/xlink">
<g id="graph0" class="graph" transform="scale(1 1) rotate(0) translate(4 102)">
<title>/home/lucamuratore/advr&#45;superbuild/external/XCM/include/XCM/IOPlugin.h</title>
<!-- Node1 -->
<g id="node1" class="node"><title>Node1</title>
<polygon fill="#bfbfbf" stroke="black" points="127.5,-56.5 127.5,-97.5 277.5,-97.5 277.5,-56.5 127.5,-56.5"/>
<text text-anchor="start" x="135.5" y="-85.5" font-family="Helvetica,sans-Serif" font-size="10.00">/home/lucamuratore</text>
<text text-anchor="start" x="135.5" y="-74.5" font-family="Helvetica,sans-Serif" font-size="10.00">/advr&#45;superbuild/external</text>
<text text-anchor="middle" x="202.5" y="-63.5" font-family="Helvetica,sans-Serif" font-size="10.00">/XCM/include/XCM/IOPlugin.h</text>
</g>
<!-- Node2 -->
<g id="node2" class="node"><title>Node2</title>
<polygon fill="none" stroke="#bfbfbf" points="0,-0.5 0,-19.5 41,-19.5 41,-0.5 0,-0.5"/>
<text text-anchor="middle" x="20.5" y="-7.5" font-family="Helvetica,sans-Serif" font-size="10.00">string</text>
</g>
<!-- Node1&#45;&gt;Node2 -->
<g id="edge1" class="edge"><title>Node1&#45;&gt;Node2</title>
<path fill="none" stroke="midnightblue" d="M147.894,-56.4979C115.956,-45.0913 76.8561,-31.1272 50.4642,-21.7015"/>
<polygon fill="midnightblue" stroke="midnightblue" points="51.6075,-18.3934 41.0129,-18.326 49.2531,-24.9856 51.6075,-18.3934"/>
</g>
<!-- Node3 -->
<g id="node3" class="node"><title>Node3</title>
<polygon fill="none" stroke="#bfbfbf" points="59,-0.5 59,-19.5 202,-19.5 202,-0.5 59,-0.5"/>
<text text-anchor="middle" x="130.5" y="-7.5" font-family="Helvetica,sans-Serif" font-size="10.00">SharedLibraryClassFactory.h</text>
</g>
<!-- Node1&#45;&gt;Node3 -->
<g id="edge2" class="edge"><title>Node1&#45;&gt;Node3</title>
<path fill="none" stroke="midnightblue" d="M180.898,-56.4979C170.283,-46.9154 157.67,-35.5281 147.717,-26.5428"/>
<polygon fill="midnightblue" stroke="midnightblue" points="149.852,-23.7556 140.084,-19.6525 145.162,-28.9515 149.852,-23.7556"/>
</g>
<!-- Node4 -->
<g id="node4" class="node"><title>Node4</title>
<polygon fill="none" stroke="#bfbfbf" points="220.5,-0.5 220.5,-19.5 330.5,-19.5 330.5,-0.5 220.5,-0.5"/>
<text text-anchor="middle" x="275.5" y="-7.5" font-family="Helvetica,sans-Serif" font-size="10.00">SharedLibraryClass.h</text>
</g>
<!-- Node1&#45;&gt;Node4 -->
<g id="edge3" class="edge"><title>Node1&#45;&gt;Node4</title>
<path fill="none" stroke="midnightblue" d="M224.402,-56.4979C235.164,-46.9154 247.953,-35.5281 258.044,-26.5428"/>
<polygon fill="midnightblue" stroke="midnightblue" points="260.642,-28.9165 265.783,-19.6525 255.987,-23.6885 260.642,-28.9165"/>
</g>
<!-- Node5 -->
<g id="node5" class="node"><title>Node5</title>
<polygon fill="none" stroke="#bfbfbf" points="348.5,-0.5 348.5,-19.5 496.5,-19.5 496.5,-0.5 348.5,-0.5"/>
<text text-anchor="middle" x="422.5" y="-7.5" font-family="Helvetica,sans-Serif" font-size="10.00">XBotInterface/XBotInterface.h</text>
</g>
<!-- Node1&#45;&gt;Node5 -->
<g id="edge4" class="edge"><title>Node1&#45;&gt;Node5</title>
<path fill="none" stroke="midnightblue" d="M268.507,-56.4979C306.081,-45.3964 351.855,-31.8725 383.687,-22.4676"/>
<polygon fill="midnightblue" stroke="midnightblue" points="384.905,-25.7572 393.504,-19.5671 382.922,-19.044 384.905,-25.7572"/>
</g>
</g>
</svg>
