<?xml version="1.0" encoding="UTF-8" standalone="no"?>
<!DOCTYPE svg PUBLIC "-//W3C//DTD SVG 1.1//EN"
 "http://www.w3.org/Graphics/SVG/1.1/DTD/svg11.dtd">
<!-- Generated by graphviz version 2.38.0 (20140413.2041)
 -->
<!-- Title: /home/lucamuratore/advr&#45;superbuild/external/XCM/include/XBotCore&#45;interfaces/IXBotJoint.h Pages: 1 -->
<svg width="1755pt" height="495pt"
 viewBox="0.00 0.00 1754.50 495.00" xmlns="http://www.w3.org/2000/svg" xmlns:xlink="http://www.w3.org/1999/xlink">
<g id="graph0" class="graph" transform="scale(1 1) rotate(0) translate(4 491)">
<title>/home/lucamuratore/advr&#45;superbuild/external/XCM/include/XBotCore&#45;interfaces/IXBotJoint.h</title>
<!-- Node1 -->
<g id="node1" class="node"><title>Node1</title>
<polygon fill="#bfbfbf" stroke="black" points="511.5,-434.5 511.5,-486.5 678.5,-486.5 678.5,-434.5 511.5,-434.5"/>
<text text-anchor="start" x="519.5" y="-474.5" font-family="Helvetica,sans-Serif" font-size="10.00">/home/lucamuratore</text>
<text text-anchor="start" x="519.5" y="-463.5" font-family="Helvetica,sans-Serif" font-size="10.00">/advr&#45;superbuild/external</text>
<text text-anchor="start" x="519.5" y="-452.5" font-family="Helvetica,sans-Serif" font-size="10.00">/XCM/include/XBotCore&#45;interfaces</text>
<text text-anchor="middle" x="595" y="-441.5" font-family="Helvetica,sans-Serif" font-size="10.00">/IXBotJoint.h</text>
</g>
<!-- Node2 -->
<g id="node2" class="node"><title>Node2</title>
<g id="a_node2"><a xlink:href="All_8h.html" target="_top" xlink:title="/home/lucamuratore\l/advr&#45;superbuild/external\l/XCM/include/XBotCore&#45;interfaces/All.h">
<polygon fill="none" stroke="black" points="233,-262 233,-303 423,-303 423,-262 233,-262"/>
<text text-anchor="start" x="241" y="-291" font-family="Helvetica,sans-Serif" font-size="10.00">/home/lucamuratore</text>
<text text-anchor="start" x="241" y="-280" font-family="Helvetica,sans-Serif" font-size="10.00">/advr&#45;superbuild/external</text>
<text text-anchor="middle" x="328" y="-269" font-family="Helvetica,sans-Serif" font-size="10.00">/XCM/include/XBotCore&#45;interfaces/All.h</text>
</a>
</g>
</g>
<!-- Node1&#45;&gt;Node2 -->
<g id="edge1" class="edge"><title>Node1&#45;&gt;Node2</title>
<path fill="none" stroke="midnightblue" d="M548.525,-428.865C493.599,-392.659 403.843,-333.494 357.601,-303.012"/>
<polygon fill="midnightblue" stroke="midnightblue" points="546.753,-431.889 557.029,-434.47 550.606,-426.044 546.753,-431.889"/>
</g>
<!-- Node9 -->
<g id="node9" class="node"><title>Node9</title>
<g id="a_node9"><a xlink:href="XBotPlugin_8h.html" target="_top" xlink:title="/home/lucamuratore\l/advr&#45;superbuild/external\l/XCM/include/XBotCore&#45;interfaces\l/XBotPlugin.h">
<polygon fill="none" stroke="black" points="511.5,-345.5 511.5,-397.5 678.5,-397.5 678.5,-345.5 511.5,-345.5"/>
<text text-anchor="start" x="519.5" y="-385.5" font-family="Helvetica,sans-Serif" font-size="10.00">/home/lucamuratore</text>
<text text-anchor="start" x="519.5" y="-374.5" font-family="Helvetica,sans-Serif" font-size="10.00">/advr&#45;superbuild/external</text>
<text text-anchor="start" x="519.5" y="-363.5" font-family="Helvetica,sans-Serif" font-size="10.00">/XCM/include/XBotCore&#45;interfaces</text>
<text text-anchor="middle" x="595" y="-352.5" font-family="Helvetica,sans-Serif" font-size="10.00">/XBotPlugin.h</text>
</a>
</g>
</g>
<!-- Node1&#45;&gt;Node9 -->
<g id="edge8" class="edge"><title>Node1&#45;&gt;Node9</title>
<path fill="none" stroke="midnightblue" d="M595,-424.191C595,-415.282 595,-405.899 595,-397.607"/>
<polygon fill="midnightblue" stroke="midnightblue" points="591.5,-424.336 595,-434.336 598.5,-424.336 591.5,-424.336"/>
</g>
<!-- Node21 -->
<g id="node21" class="node"><title>Node21</title>
<g id="a_node21"><a xlink:href="XBotXDDP_8h.html" target="_top" xlink:title="/home/lucamuratore\l/advr&#45;superbuild/external\l/XCM/include/XCM/XBotXDDP.h">
<polygon fill="none" stroke="black" points="1256.5,-351 1256.5,-392 1419.5,-392 1419.5,-351 1256.5,-351"/>
<text text-anchor="start" x="1264.5" y="-380" font-family="Helvetica,sans-Serif" font-size="10.00">/home/lucamuratore</text>
<text text-anchor="start" x="1264.5" y="-369" font-family="Helvetica,sans-Serif" font-size="10.00">/advr&#45;superbuild/external</text>
<text text-anchor="middle" x="1338" y="-358" font-family="Helvetica,sans-Serif" font-size="10.00">/XCM/include/XCM/XBotXDDP.h</text>
</a>
</g>
</g>
<!-- Node1&#45;&gt;Node21 -->
<g id="edge22" class="edge"><title>Node1&#45;&gt;Node21</title>
<path fill="none" stroke="midnightblue" d="M689.134,-448.478C836.126,-431.266 1117.68,-398.298 1256.5,-382.043"/>
<polygon fill="midnightblue" stroke="midnightblue" points="688.312,-445.05 678.787,-449.689 689.126,-452.002 688.312,-445.05"/>
</g>
<!-- Node3 -->
<g id="node3" class="node"><title>Node3</title>
<g id="a_node3"><a xlink:href="XBotPluginHandler_8h.html" target="_top" xlink:title="/home/lucamuratore\l/advr&#45;superbuild/external\l/XCM/include/XCM/XBotPluginHandler.h">
<polygon fill="none" stroke="black" points="229.5,-173 229.5,-214 424.5,-214 424.5,-173 229.5,-173"/>
<text text-anchor="start" x="237.5" y="-202" font-family="Helvetica,sans-Serif" font-size="10.00">/home/lucamuratore</text>
<text text-anchor="start" x="237.5" y="-191" font-family="Helvetica,sans-Serif" font-size="10.00">/advr&#45;superbuild/external</text>
<text text-anchor="middle" x="327" y="-180" font-family="Helvetica,sans-Serif" font-size="10.00">/XCM/include/XCM/XBotPluginHandler.h</text>
</a>
</g>
</g>
<!-- Node2&#45;&gt;Node3 -->
<g id="edge2" class="edge"><title>Node2&#45;&gt;Node3</title>
<path fill="none" stroke="midnightblue" d="M327.654,-251.441C327.513,-239.101 327.352,-225.162 327.226,-214.164"/>
<polygon fill="midnightblue" stroke="midnightblue" points="324.158,-251.799 327.773,-261.758 331.158,-251.719 324.158,-251.799"/>
</g>
<!-- Node4 -->
<g id="node4" class="node"><title>Node4</title>
<g id="a_node4"><a xlink:href="NRTDeployer_8h.html" target="_top" xlink:title="/home/lucamuratore\l/advr&#45;superbuild/external\l/XCM/include/XCM/NRTDeployer.h">
<polygon fill="none" stroke="black" points="67.5,-84 67.5,-125 240.5,-125 240.5,-84 67.5,-84"/>
<text text-anchor="start" x="75.5" y="-113" font-family="Helvetica,sans-Serif" font-size="10.00">/home/lucamuratore</text>
<text text-anchor="start" x="75.5" y="-102" font-family="Helvetica,sans-Serif" font-size="10.00">/advr&#45;superbuild/external</text>
<text text-anchor="middle" x="154" y="-91" font-family="Helvetica,sans-Serif" font-size="10.00">/XCM/include/XCM/NRTDeployer.h</text>
</a>
</g>
</g>
<!-- Node3&#45;&gt;Node4 -->
<g id="edge3" class="edge"><title>Node3&#45;&gt;Node4</title>
<path fill="none" stroke="midnightblue" d="M279.237,-168.481C252.094,-154.831 218.538,-137.955 192.994,-125.11"/>
<polygon fill="midnightblue" stroke="midnightblue" points="277.669,-171.61 288.175,-172.976 280.814,-165.356 277.669,-171.61"/>
</g>
<!-- Node7 -->
<g id="node7" class="node"><title>Node7</title>
<g id="a_node7"><a xlink:href="DummyMain_8cpp.html" target="_top" xlink:title="/home/lucamuratore\l/advr&#45;superbuild/external\l/XCM/src/DummyMain.cpp">
<polygon fill="none" stroke="black" points="259,-84 259,-125 395,-125 395,-84 259,-84"/>
<text text-anchor="start" x="267" y="-113" font-family="Helvetica,sans-Serif" font-size="10.00">/home/lucamuratore</text>
<text text-anchor="start" x="267" y="-102" font-family="Helvetica,sans-Serif" font-size="10.00">/advr&#45;superbuild/external</text>
<text text-anchor="middle" x="327" y="-91" font-family="Helvetica,sans-Serif" font-size="10.00">/XCM/src/DummyMain.cpp</text>
</a>
</g>
</g>
<!-- Node3&#45;&gt;Node7 -->
<g id="edge6" class="edge"><title>Node3&#45;&gt;Node7</title>
<path fill="none" stroke="midnightblue" d="M327,-162.441C327,-150.101 327,-136.162 327,-125.164"/>
<polygon fill="midnightblue" stroke="midnightblue" points="323.5,-162.758 327,-172.758 330.5,-162.758 323.5,-162.758"/>
</g>
<!-- Node8 -->
<g id="node8" class="node"><title>Node8</title>
<g id="a_node8"><a xlink:href="XBotPluginHandler_8cpp.html" target="_top" xlink:title="/home/lucamuratore\l/advr&#45;superbuild/external\l/XCM/src/XBotPluginHandler.cpp">
<polygon fill="none" stroke="black" points="413.5,-84 413.5,-125 576.5,-125 576.5,-84 413.5,-84"/>
<text text-anchor="start" x="421.5" y="-113" font-family="Helvetica,sans-Serif" font-size="10.00">/home/lucamuratore</text>
<text text-anchor="start" x="421.5" y="-102" font-family="Helvetica,sans-Serif" font-size="10.00">/advr&#45;superbuild/external</text>
<text text-anchor="middle" x="495" y="-91" font-family="Helvetica,sans-Serif" font-size="10.00">/XCM/src/XBotPluginHandler.cpp</text>
</a>
</g>
</g>
<!-- Node3&#45;&gt;Node8 -->
<g id="edge7" class="edge"><title>Node3&#45;&gt;Node8</title>
<path fill="none" stroke="midnightblue" d="M373.727,-168.302C400.024,-154.684 432.435,-137.9 457.133,-125.11"/>
<polygon fill="midnightblue" stroke="midnightblue" points="371.973,-165.269 364.702,-172.976 375.192,-171.485 371.973,-165.269"/>
</g>
<!-- Node5 -->
<g id="node5" class="node"><title>Node5</title>
<g id="a_node5"><a xlink:href="NRTDeployer_8cpp.html" target="_top" xlink:title="/home/lucamuratore\l/advr&#45;superbuild/external\l/XCM/src/NRTDeployer.cpp">
<polygon fill="none" stroke="black" points="0,-0.5 0,-41.5 140,-41.5 140,-0.5 0,-0.5"/>
<text text-anchor="start" x="8" y="-29.5" font-family="Helvetica,sans-Serif" font-size="10.00">/home/lucamuratore</text>
<text text-anchor="start" x="8" y="-18.5" font-family="Helvetica,sans-Serif" font-size="10.00">/advr&#45;superbuild/external</text>
<text text-anchor="middle" x="70" y="-7.5" font-family="Helvetica,sans-Serif" font-size="10.00">/XCM/src/NRTDeployer.cpp</text>
</a>
</g>
</g>
<!-- Node4&#45;&gt;Node5 -->
<g id="edge4" class="edge"><title>Node4&#45;&gt;Node5</title>
<path fill="none" stroke="midnightblue" d="M126.211,-76.5383C114.427,-65.1044 100.95,-52.0287 90.1468,-41.5472"/>
<polygon fill="midnightblue" stroke="midnightblue" points="124.052,-79.3196 133.666,-83.7711 128.926,-74.2957 124.052,-79.3196"/>
</g>
<!-- Node6 -->
<g id="node6" class="node"><title>Node6</title>
<g id="a_node6"><a xlink:href="NRTDeployerMain_8cpp.html" target="_top" xlink:title="/home/lucamuratore\l/advr&#45;superbuild/external\l/XCM/src/NRTDeployerMain.cpp">
<polygon fill="none" stroke="black" points="158.5,-0.5 158.5,-41.5 319.5,-41.5 319.5,-0.5 158.5,-0.5"/>
<text text-anchor="start" x="166.5" y="-29.5" font-family="Helvetica,sans-Serif" font-size="10.00">/home/lucamuratore</text>
<text text-anchor="start" x="166.5" y="-18.5" font-family="Helvetica,sans-Serif" font-size="10.00">/advr&#45;superbuild/external</text>
<text text-anchor="middle" x="239" y="-7.5" font-family="Helvetica,sans-Serif" font-size="10.00">/XCM/src/NRTDeployerMain.cpp</text>
</a>
</g>
</g>
<!-- Node4&#45;&gt;Node6 -->
<g id="edge5" class="edge"><title>Node4&#45;&gt;Node6</title>
<path fill="none" stroke="midnightblue" d="M182.12,-76.5383C194.044,-65.1044 207.682,-52.0287 218.613,-41.5472"/>
<polygon fill="midnightblue" stroke="midnightblue" points="179.372,-74.3238 174.576,-83.7711 184.217,-79.3765 179.372,-74.3238"/>
</g>
<!-- Node9&#45;&gt;Node2 -->
<g id="edge9" class="edge"><title>Node9&#45;&gt;Node2</title>
<path fill="none" stroke="midnightblue" d="M508.301,-342.25C469.078,-329.469 423.683,-314.678 388.256,-303.134"/>
<polygon fill="midnightblue" stroke="midnightblue" points="507.538,-345.682 518.131,-345.453 509.707,-339.027 507.538,-345.682"/>
</g>
<!-- Node10 -->
<g id="node10" class="node"><title>Node10</title>
<g id="a_node10"><a xlink:href="XBotControlModule_8h.html" target="_top" xlink:title="/home/lucamuratore\l/advr&#45;superbuild/external\l/XCM/include/XCM/XBotControlModule.h">
<polygon fill="none" stroke="black" points="799.5,-262 799.5,-303 996.5,-303 996.5,-262 799.5,-262"/>
<text text-anchor="start" x="807.5" y="-291" font-family="Helvetica,sans-Serif" font-size="10.00">/home/lucamuratore</text>
<text text-anchor="start" x="807.5" y="-280" font-family="Helvetica,sans-Serif" font-size="10.00">/advr&#45;superbuild/external</text>
<text text-anchor="middle" x="898" y="-269" font-family="Helvetica,sans-Serif" font-size="10.00">/XCM/include/XCM/XBotControlModule.h</text>
</a>
</g>
</g>
<!-- Node9&#45;&gt;Node10 -->
<g id="edge10" class="edge"><title>Node9&#45;&gt;Node10</title>
<path fill="none" stroke="midnightblue" d="M688.232,-343.73C734.01,-330.586 788.161,-315.038 829.977,-303.031"/>
<polygon fill="midnightblue" stroke="midnightblue" points="687.244,-340.373 678.598,-346.497 689.176,-347.101 687.244,-340.373"/>
</g>
<!-- Node14 -->
<g id="node14" class="node"><title>Node14</title>
<g id="a_node14"><a xlink:href="XBotControlPlugin_8h.html" target="_top" xlink:title="/home/lucamuratore\l/advr&#45;superbuild/external\l/XCM/include/XCM/XBotControlPlugin.h">
<polygon fill="none" stroke="black" points="588.5,-262 588.5,-303 781.5,-303 781.5,-262 588.5,-262"/>
<text text-anchor="start" x="596.5" y="-291" font-family="Helvetica,sans-Serif" font-size="10.00">/home/lucamuratore</text>
<text text-anchor="start" x="596.5" y="-280" font-family="Helvetica,sans-Serif" font-size="10.00">/advr&#45;superbuild/external</text>
<text text-anchor="middle" x="685" y="-269" font-family="Helvetica,sans-Serif" font-size="10.00">/XCM/include/XCM/XBotControlPlugin.h</text>
</a>
</g>
</g>
<!-- Node9&#45;&gt;Node14 -->
<g id="edge14" class="edge"><title>Node9&#45;&gt;Node14</title>
<path fill="none" stroke="midnightblue" d="M628.433,-338.181C640.629,-326.392 654.04,-313.428 664.743,-303.082"/>
<polygon fill="midnightblue" stroke="midnightblue" points="625.789,-335.869 621.032,-345.336 630.654,-340.902 625.789,-335.869"/>
</g>
<!-- Node20 -->
<g id="node20" class="node"><title>Node20</title>
<g id="a_node20"><a xlink:href="XBotPlugin_8cpp.html" target="_top" xlink:title="/home/lucamuratore\l/advr&#45;superbuild/external\l/XCM/src/XBotPlugin.cpp">
<polygon fill="none" stroke="black" points="441.5,-262 441.5,-303 570.5,-303 570.5,-262 441.5,-262"/>
<text text-anchor="start" x="449.5" y="-291" font-family="Helvetica,sans-Serif" font-size="10.00">/home/lucamuratore</text>
<text text-anchor="start" x="449.5" y="-280" font-family="Helvetica,sans-Serif" font-size="10.00">/advr&#45;superbuild/external</text>
<text text-anchor="middle" x="506" y="-269" font-family="Helvetica,sans-Serif" font-size="10.00">/XCM/src/XBotPlugin.cpp</text>
</a>
</g>
</g>
<!-- Node9&#45;&gt;Node20 -->
<g id="edge21" class="edge"><title>Node9&#45;&gt;Node20</title>
<path fill="none" stroke="midnightblue" d="M561.938,-338.181C549.878,-326.392 536.616,-313.428 526.032,-303.082"/>
<polygon fill="midnightblue" stroke="midnightblue" points="559.66,-340.849 569.258,-345.336 564.553,-335.843 559.66,-340.849"/>
</g>
<!-- Node11 -->
<g id="node11" class="node"><title>Node11</title>
<g id="a_node11"><a xlink:href="XBotModuleHandler_8h.html" target="_top" xlink:title="/home/lucamuratore\l/advr&#45;superbuild/external\l/XCM/include/XCM/XBotModuleHandler.h">
<polygon fill="none" stroke="black" points="768,-173 768,-214 968,-214 968,-173 768,-173"/>
<text text-anchor="start" x="776" y="-202" font-family="Helvetica,sans-Serif" font-size="10.00">/home/lucamuratore</text>
<text text-anchor="start" x="776" y="-191" font-family="Helvetica,sans-Serif" font-size="10.00">/advr&#45;superbuild/external</text>
<text text-anchor="middle" x="868" y="-180" font-family="Helvetica,sans-Serif" font-size="10.00">/XCM/include/XCM/XBotModuleHandler.h</text>
</a>
</g>
</g>
<!-- Node10&#45;&gt;Node11 -->
<g id="edge11" class="edge"><title>Node10&#45;&gt;Node11</title>
<path fill="none" stroke="midnightblue" d="M887.892,-252.187C883.574,-239.666 878.65,-225.384 874.781,-214.164"/>
<polygon fill="midnightblue" stroke="midnightblue" points="884.624,-253.446 891.193,-261.758 891.241,-251.164 884.624,-253.446"/>
</g>
<!-- Node13 -->
<g id="node13" class="node"><title>Node13</title>
<g id="a_node13"><a xlink:href="XBotControlModule_8cpp.html" target="_top" xlink:title="/home/lucamuratore\l/advr&#45;superbuild/external\l/XCM/src/XBotControlModule.cpp">
<polygon fill="none" stroke="black" points="986.5,-173 986.5,-214 1151.5,-214 1151.5,-173 986.5,-173"/>
<text text-anchor="start" x="994.5" y="-202" font-family="Helvetica,sans-Serif" font-size="10.00">/home/lucamuratore</text>
<text text-anchor="start" x="994.5" y="-191" font-family="Helvetica,sans-Serif" font-size="10.00">/advr&#45;superbuild/external</text>
<text text-anchor="middle" x="1069" y="-180" font-family="Helvetica,sans-Serif" font-size="10.00">/XCM/src/XBotControlModule.cpp</text>
</a>
</g>
</g>
<!-- Node10&#45;&gt;Node13 -->
<g id="edge13" class="edge"><title>Node10&#45;&gt;Node13</title>
<path fill="none" stroke="midnightblue" d="M945.561,-257.302C972.328,-243.684 1005.32,-226.9 1030.46,-214.11"/>
<polygon fill="midnightblue" stroke="midnightblue" points="943.701,-254.321 936.376,-261.976 946.876,-260.56 943.701,-254.321"/>
</g>
<!-- Node12 -->
<g id="node12" class="node"><title>Node12</title>
<g id="a_node12"><a xlink:href="XBotModuleHandler_8cpp.html" target="_top" xlink:title="/home/lucamuratore\l/advr&#45;superbuild/external\l/XCM/src/XBotModuleHandler.cpp">
<polygon fill="none" stroke="black" points="786.5,-84 786.5,-125 953.5,-125 953.5,-84 786.5,-84"/>
<text text-anchor="start" x="794.5" y="-113" font-family="Helvetica,sans-Serif" font-size="10.00">/home/lucamuratore</text>
<text text-anchor="start" x="794.5" y="-102" font-family="Helvetica,sans-Serif" font-size="10.00">/advr&#45;superbuild/external</text>
<text text-anchor="middle" x="870" y="-91" font-family="Helvetica,sans-Serif" font-size="10.00">/XCM/src/XBotModuleHandler.cpp</text>
</a>
</g>
</g>
<!-- Node11&#45;&gt;Node12 -->
<g id="edge12" class="edge"><title>Node11&#45;&gt;Node12</title>
<path fill="none" stroke="midnightblue" d="M868.691,-162.441C868.975,-150.101 869.295,-136.162 869.548,-125.164"/>
<polygon fill="midnightblue" stroke="midnightblue" points="865.185,-162.681 868.454,-172.758 872.183,-162.841 865.185,-162.681"/>
</g>
<!-- Node14&#45;&gt;Node3 -->
<g id="edge19" class="edge"><title>Node14&#45;&gt;Node3</title>
<path fill="none" stroke="midnightblue" d="M594.823,-259.585C537.162,-245.573 463.03,-227.558 407.383,-214.034"/>
<polygon fill="midnightblue" stroke="midnightblue" points="594.114,-263.015 604.658,-261.976 595.767,-256.213 594.114,-263.015"/>
</g>
<!-- Node15 -->
<g id="node15" class="node"><title>Node15</title>
<g id="a_node15"><a xlink:href="XBotCommunicationPlugin_8h.html" target="_top" xlink:title="/home/lucamuratore\l/advr&#45;superbuild/external\l/XCM/include/XBotPlugin\l/XBotCommunicationPlugin.h">
<polygon fill="none" stroke="black" points="1169.5,-167.5 1169.5,-219.5 1314.5,-219.5 1314.5,-167.5 1169.5,-167.5"/>
<text text-anchor="start" x="1177.5" y="-207.5" font-family="Helvetica,sans-Serif" font-size="10.00">/home/lucamuratore</text>
<text text-anchor="start" x="1177.5" y="-196.5" font-family="Helvetica,sans-Serif" font-size="10.00">/advr&#45;superbuild/external</text>
<text text-anchor="start" x="1177.5" y="-185.5" font-family="Helvetica,sans-Serif" font-size="10.00">/XCM/include/XBotPlugin</text>
<text text-anchor="middle" x="1242" y="-174.5" font-family="Helvetica,sans-Serif" font-size="10.00">/XBotCommunicationPlugin.h</text>
</a>
</g>
</g>
<!-- Node14&#45;&gt;Node15 -->
<g id="edge15" class="edge"><title>Node14&#45;&gt;Node15</title>
<path fill="none" stroke="midnightblue" d="M769.826,-259.821C776.628,-258.412 783.414,-257.114 790,-256 952.905,-228.435 998.048,-252.702 1160,-220 1163.07,-219.38 1166.19,-218.691 1169.32,-217.947"/>
<polygon fill="midnightblue" stroke="midnightblue" points="768.914,-256.437 759.87,-261.955 770.381,-263.281 768.914,-256.437"/>
</g>
<!-- Node17 -->
<g id="node17" class="node"><title>Node17</title>
<g id="a_node17"><a xlink:href="XBotLoggingPlugin_8h.html" target="_top" xlink:title="/home/lucamuratore\l/advr&#45;superbuild/external\l/XCM/include/XBotPlugin\l/XBotLoggingPlugin.h">
<polygon fill="none" stroke="black" points="622,-167.5 622,-219.5 750,-219.5 750,-167.5 622,-167.5"/>
<text text-anchor="start" x="630" y="-207.5" font-family="Helvetica,sans-Serif" font-size="10.00">/home/lucamuratore</text>
<text text-anchor="start" x="630" y="-196.5" font-family="Helvetica,sans-Serif" font-size="10.00">/advr&#45;superbuild/external</text>
<text text-anchor="start" x="630" y="-185.5" font-family="Helvetica,sans-Serif" font-size="10.00">/XCM/include/XBotPlugin</text>
<text text-anchor="middle" x="686" y="-174.5" font-family="Helvetica,sans-Serif" font-size="10.00">/XBotLoggingPlugin.h</text>
</a>
</g>
</g>
<!-- Node14&#45;&gt;Node17 -->
<g id="edge17" class="edge"><title>Node14&#45;&gt;Node17</title>
<path fill="none" stroke="midnightblue" d="M685.345,-251.509C685.464,-241.174 685.595,-229.71 685.709,-219.788"/>
<polygon fill="midnightblue" stroke="midnightblue" points="681.842,-251.719 685.227,-261.758 688.842,-251.799 681.842,-251.719"/>
</g>
<!-- Node19 -->
<g id="node19" class="node"><title>Node19</title>
<g id="a_node19"><a xlink:href="XBotControlPlugin_8cpp.html" target="_top" xlink:title="/home/lucamuratore\l/advr&#45;superbuild/external\l/XCM/src/XBotControlPlugin.cpp">
<polygon fill="none" stroke="black" points="442.5,-173 442.5,-214 603.5,-214 603.5,-173 442.5,-173"/>
<text text-anchor="start" x="450.5" y="-202" font-family="Helvetica,sans-Serif" font-size="10.00">/home/lucamuratore</text>
<text text-anchor="start" x="450.5" y="-191" font-family="Helvetica,sans-Serif" font-size="10.00">/advr&#45;superbuild/external</text>
<text text-anchor="middle" x="523" y="-180" font-family="Helvetica,sans-Serif" font-size="10.00">/XCM/src/XBotControlPlugin.cpp</text>
</a>
</g>
</g>
<!-- Node14&#45;&gt;Node19 -->
<g id="edge20" class="edge"><title>Node14&#45;&gt;Node19</title>
<path fill="none" stroke="midnightblue" d="M639.61,-257.124C614.311,-243.537 583.226,-226.844 559.515,-214.11"/>
<polygon fill="midnightblue" stroke="midnightblue" points="638.178,-260.328 648.644,-261.976 641.49,-254.161 638.178,-260.328"/>
</g>
<!-- Node16 -->
<g id="node16" class="node"><title>Node16</title>
<g id="a_node16"><a xlink:href="XBotCommunicationPlugin_8cpp.html" target="_top" xlink:title="/home/lucamuratore\l/advr&#45;superbuild/external\l/XCM/src/XBotPlugin/XBotCommunication\lPlugin.cpp">
<polygon fill="none" stroke="black" points="1140.5,-78.5 1140.5,-130.5 1343.5,-130.5 1343.5,-78.5 1140.5,-78.5"/>
<text text-anchor="start" x="1148.5" y="-118.5" font-family="Helvetica,sans-Serif" font-size="10.00">/home/lucamuratore</text>
<text text-anchor="start" x="1148.5" y="-107.5" font-family="Helvetica,sans-Serif" font-size="10.00">/advr&#45;superbuild/external</text>
<text text-anchor="start" x="1148.5" y="-96.5" font-family="Helvetica,sans-Serif" font-size="10.00">/XCM/src/XBotPlugin/XBotCommunication</text>
<text text-anchor="middle" x="1242" y="-85.5" font-family="Helvetica,sans-Serif" font-size="10.00">Plugin.cpp</text>
</a>
</g>
</g>
<!-- Node15&#45;&gt;Node16 -->
<g id="edge16" class="edge"><title>Node15&#45;&gt;Node16</title>
<path fill="none" stroke="midnightblue" d="M1242,-157.191C1242,-148.282 1242,-138.899 1242,-130.607"/>
<polygon fill="midnightblue" stroke="midnightblue" points="1238.5,-157.336 1242,-167.336 1245.5,-157.336 1238.5,-157.336"/>
</g>
<!-- Node18 -->
<g id="node18" class="node"><title>Node18</title>
<g id="a_node18"><a xlink:href="XBotLoggingPlugin_8cpp.html" target="_top" xlink:title="/home/lucamuratore\l/advr&#45;superbuild/external\l/XCM/src/XBotPlugin/XBotLogging\lPlugin.cpp">
<polygon fill="none" stroke="black" points="599.5,-78.5 599.5,-130.5 768.5,-130.5 768.5,-78.5 599.5,-78.5"/>
<text text-anchor="start" x="607.5" y="-118.5" font-family="Helvetica,sans-Serif" font-size="10.00">/home/lucamuratore</text>
<text text-anchor="start" x="607.5" y="-107.5" font-family="Helvetica,sans-Serif" font-size="10.00">/advr&#45;superbuild/external</text>
<text text-anchor="start" x="607.5" y="-96.5" font-family="Helvetica,sans-Serif" font-size="10.00">/XCM/src/XBotPlugin/XBotLogging</text>
<text text-anchor="middle" x="684" y="-85.5" font-family="Helvetica,sans-Serif" font-size="10.00">Plugin.cpp</text>
</a>
</g>
</g>
<!-- Node17&#45;&gt;Node18 -->
<g id="edge18" class="edge"><title>Node17&#45;&gt;Node18</title>
<path fill="none" stroke="midnightblue" d="M685.188,-157.191C684.984,-148.282 684.768,-138.899 684.577,-130.607"/>
<polygon fill="midnightblue" stroke="midnightblue" points="681.693,-157.419 685.422,-167.336 688.691,-157.258 681.693,-157.419"/>
</g>
<!-- Node22 -->
<g id="node22" class="node"><title>Node22</title>
<g id="a_node22"><a xlink:href="XBotCommunicationHandler_8h.html" target="_top" xlink:title="/home/lucamuratore\l/advr&#45;superbuild/external\l/XCM/include/XCM/XBotCommunication\lHandler.h">
<polygon fill="none" stroke="black" points="1241,-256.5 1241,-308.5 1435,-308.5 1435,-256.5 1241,-256.5"/>
<text text-anchor="start" x="1249" y="-296.5" font-family="Helvetica,sans-Serif" font-size="10.00">/home/lucamuratore</text>
<text text-anchor="start" x="1249" y="-285.5" font-family="Helvetica,sans-Serif" font-size="10.00">/advr&#45;superbuild/external</text>
<text text-anchor="start" x="1249" y="-274.5" font-family="Helvetica,sans-Serif" font-size="10.00">/XCM/include/XCM/XBotCommunication</text>
<text text-anchor="middle" x="1338" y="-263.5" font-family="Helvetica,sans-Serif" font-size="10.00">Handler.h</text>
</a>
</g>
</g>
<!-- Node21&#45;&gt;Node22 -->
<g id="edge23" class="edge"><title>Node21&#45;&gt;Node22</title>
<path fill="none" stroke="midnightblue" d="M1338,-340.509C1338,-330.174 1338,-318.71 1338,-308.788"/>
<polygon fill="midnightblue" stroke="midnightblue" points="1334.5,-340.758 1338,-350.758 1341.5,-340.758 1334.5,-340.758"/>
</g>
<!-- Node25 -->
<g id="node25" class="node"><title>Node25</title>
<g id="a_node25"><a xlink:href="XBotXDDP_8cpp.html" target="_top" xlink:title="/home/lucamuratore\l/advr&#45;superbuild/external\l/XCM/src/XBotXDDP.cpp">
<polygon fill="none" stroke="black" points="1453.5,-262 1453.5,-303 1584.5,-303 1584.5,-262 1453.5,-262"/>
<text text-anchor="start" x="1461.5" y="-291" font-family="Helvetica,sans-Serif" font-size="10.00">/home/lucamuratore</text>
<text text-anchor="start" x="1461.5" y="-280" font-family="Helvetica,sans-Serif" font-size="10.00">/advr&#45;superbuild/external</text>
<text text-anchor="middle" x="1519" y="-269" font-family="Helvetica,sans-Serif" font-size="10.00">/XCM/src/XBotXDDP.cpp</text>
</a>
</g>
</g>
<!-- Node21&#45;&gt;Node25 -->
<g id="edge27" class="edge"><title>Node21&#45;&gt;Node25</title>
<path fill="none" stroke="midnightblue" d="M1387.97,-346.481C1416.37,-332.831 1451.48,-315.955 1478.2,-303.11"/>
<polygon fill="midnightblue" stroke="midnightblue" points="1386.12,-343.489 1378.62,-350.976 1389.15,-349.798 1386.12,-343.489"/>
</g>
<!-- Node22&#45;&gt;Node15 -->
<g id="edge24" class="edge"><title>Node22&#45;&gt;Node15</title>
<path fill="none" stroke="midnightblue" d="M1302.54,-249.363C1291.7,-239.542 1279.95,-228.89 1269.7,-219.607"/>
<polygon fill="midnightblue" stroke="midnightblue" points="1300.47,-252.214 1310.23,-256.336 1305.17,-247.027 1300.47,-252.214"/>
</g>
<!-- Node23 -->
<g id="node23" class="node"><title>Node23</title>
<g id="a_node23"><a xlink:href="XBotCommunicationHandler_8cpp.html" target="_top" xlink:title="/home/lucamuratore\l/advr&#45;superbuild/external\l/XCM/src/XBotCommunicationHandler.cpp">
<polygon fill="none" stroke="black" points="1333,-173 1333,-214 1537,-214 1537,-173 1333,-173"/>
<text text-anchor="start" x="1341" y="-202" font-family="Helvetica,sans-Serif" font-size="10.00">/home/lucamuratore</text>
<text text-anchor="start" x="1341" y="-191" font-family="Helvetica,sans-Serif" font-size="10.00">/advr&#45;superbuild/external</text>
<text text-anchor="middle" x="1435" y="-180" font-family="Helvetica,sans-Serif" font-size="10.00">/XCM/src/XBotCommunicationHandler.cpp</text>
</a>
</g>
</g>
<!-- Node22&#45;&gt;Node23 -->
<g id="edge25" class="edge"><title>Node22&#45;&gt;Node23</title>
<path fill="none" stroke="midnightblue" d="M1373.66,-249.515C1386.9,-237.637 1401.52,-224.525 1413.17,-214.082"/>
<polygon fill="midnightblue" stroke="midnightblue" points="1371.16,-247.054 1366.06,-256.336 1375.84,-252.265 1371.16,-247.054"/>
</g>
<!-- Node24 -->
<g id="node24" class="node"><title>Node24</title>
<g id="a_node24"><a xlink:href="XBotCommunicationMain_8cpp.html" target="_top" xlink:title="/home/lucamuratore\l/advr&#45;superbuild/external\l/XCM/src/XBotCommunicationMain.cpp">
<polygon fill="none" stroke="black" points="1555.5,-173 1555.5,-214 1746.5,-214 1746.5,-173 1555.5,-173"/>
<text text-anchor="start" x="1563.5" y="-202" font-family="Helvetica,sans-Serif" font-size="10.00">/home/lucamuratore</text>
<text text-anchor="start" x="1563.5" y="-191" font-family="Helvetica,sans-Serif" font-size="10.00">/advr&#45;superbuild/external</text>
<text text-anchor="middle" x="1651" y="-180" font-family="Helvetica,sans-Serif" font-size="10.00">/XCM/src/XBotCommunicationMain.cpp</text>
</a>
</g>
</g>
<!-- Node22&#45;&gt;Node24 -->
<g id="edge26" class="edge"><title>Node22&#45;&gt;Node24</title>
<path fill="none" stroke="midnightblue" d="M1437.9,-253.731C1484.37,-240.816 1538.53,-225.763 1580.62,-214.064"/>
<polygon fill="midnightblue" stroke="midnightblue" points="1436.81,-250.402 1428.11,-256.453 1438.68,-257.147 1436.81,-250.402"/>
</g>
</g>
</svg>
