<?xml version="1.0" encoding="UTF-8" standalone="no"?>
<!DOCTYPE svg PUBLIC "-//W3C//DTD SVG 1.1//EN"
 "http://www.w3.org/Graphics/SVG/1.1/DTD/svg11.dtd">
<!-- Generated by graphviz version 2.38.0 (20140413.2041)
 -->
<!-- Title: /home/lucamuratore/advr&#45;superbuild/external/XCM/include/XBotCore&#45;interfaces/IXBotModel.h Pages: 1 -->
<svg width="175pt" height="117pt"
 viewBox="0.00 0.00 175.00 117.00" xmlns="http://www.w3.org/2000/svg" xmlns:xlink="http://www.w3.org/1999/xlink">
<g id="graph0" class="graph" transform="scale(1 1) rotate(0) translate(4 113)">
<title>/home/lucamuratore/advr&#45;superbuild/external/XCM/include/XBotCore&#45;interfaces/IXBotModel.h</title>
<!-- Node1 -->
<g id="node1" class="node"><title>Node1</title>
<polygon fill="#bfbfbf" stroke="black" points="-1.42109e-14,-56.5 -1.42109e-14,-108.5 167,-108.5 167,-56.5 -1.42109e-14,-56.5"/>
<text text-anchor="start" x="8" y="-96.5" font-family="Helvetica,sans-Serif" font-size="10.00">/home/lucamuratore</text>
<text text-anchor="start" x="8" y="-85.5" font-family="Helvetica,sans-Serif" font-size="10.00">/advr&#45;superbuild/external</text>
<text text-anchor="start" x="8" y="-74.5" font-family="Helvetica,sans-Serif" font-size="10.00">/XCM/include/XBotCore&#45;interfaces</text>
<text text-anchor="middle" x="83.5" y="-63.5" font-family="Helvetica,sans-Serif" font-size="10.00">/IXBotModel.h</text>
</g>
<!-- Node2 -->
<g id="node2" class="node"><title>Node2</title>
<polygon fill="none" stroke="#bfbfbf" points="10,-0.5 10,-19.5 45,-19.5 45,-0.5 10,-0.5"/>
<text text-anchor="middle" x="27.5" y="-7.5" font-family="Helvetica,sans-Serif" font-size="10.00">map</text>
</g>
<!-- Node1&#45;&gt;Node2 -->
<g id="edge1" class="edge"><title>Node1&#45;&gt;Node2</title>
<path fill="none" stroke="midnightblue" d="M63.5988,-56.4458C56.0391,-46.9287 47.6176,-36.3266 40.8113,-27.758"/>
<polygon fill="midnightblue" stroke="midnightblue" points="43.3675,-25.3489 34.4071,-19.6955 37.8863,-29.7028 43.3675,-25.3489"/>
</g>
<!-- Node3 -->
<g id="node3" class="node"><title>Node3</title>
<polygon fill="none" stroke="#bfbfbf" points="63,-0.5 63,-19.5 104,-19.5 104,-0.5 63,-0.5"/>
<text text-anchor="middle" x="83.5" y="-7.5" font-family="Helvetica,sans-Serif" font-size="10.00">string</text>
</g>
<!-- Node1&#45;&gt;Node3 -->
<g id="edge2" class="edge"><title>Node1&#45;&gt;Node3</title>
<path fill="none" stroke="midnightblue" d="M83.5,-56.4458C83.5,-47.7301 83.5,-38.1045 83.5,-29.9641"/>
<polygon fill="midnightblue" stroke="midnightblue" points="87.0001,-29.6954 83.5,-19.6955 80.0001,-29.6955 87.0001,-29.6954"/>
</g>
<!-- Node4 -->
<g id="node4" class="node"><title>Node4</title>
<polygon fill="none" stroke="#bfbfbf" points="122.5,-0.5 122.5,-19.5 166.5,-19.5 166.5,-0.5 122.5,-0.5"/>
<text text-anchor="middle" x="144.5" y="-7.5" font-family="Helvetica,sans-Serif" font-size="10.00">vector</text>
</g>
<!-- Node1&#45;&gt;Node4 -->
<g id="edge3" class="edge"><title>Node1&#45;&gt;Node4</title>
<path fill="none" stroke="midnightblue" d="M105.178,-56.4458C113.499,-46.8285 122.779,-36.1032 130.234,-27.4881"/>
<polygon fill="midnightblue" stroke="midnightblue" points="133.08,-29.5478 136.976,-19.6955 127.786,-24.9676 133.08,-29.5478"/>
</g>
</g>
</svg>
