<?xml version="1.0" encoding="UTF-8" standalone="no"?>
<!DOCTYPE svg PUBLIC "-//W3C//DTD SVG 1.1//EN"
 "http://www.w3.org/Graphics/SVG/1.1/DTD/svg11.dtd">
<!-- Generated by graphviz version 2.38.0 (20140413.2041)
 -->
<!-- Title: /home/lucamuratore/advr&#45;superbuild/external/XCM/include/XBotCore&#45;interfaces/IXBotInit.h Pages: 1 -->
<svg width="572pt" height="239pt"
 viewBox="0.00 0.00 571.50 239.00" xmlns="http://www.w3.org/2000/svg" xmlns:xlink="http://www.w3.org/1999/xlink">
<g id="graph0" class="graph" transform="scale(1 1) rotate(0) translate(4 235)">
<title>/home/lucamuratore/advr&#45;superbuild/external/XCM/include/XBotCore&#45;interfaces/IXBotInit.h</title>
<!-- Node1 -->
<g id="node1" class="node"><title>Node1</title>
<polygon fill="#bfbfbf" stroke="black" points="190.5,-178.5 190.5,-230.5 357.5,-230.5 357.5,-178.5 190.5,-178.5"/>
<text text-anchor="start" x="198.5" y="-218.5" font-family="Helvetica,sans-Serif" font-size="10.00">/home/lucamuratore</text>
<text text-anchor="start" x="198.5" y="-207.5" font-family="Helvetica,sans-Serif" font-size="10.00">/advr&#45;superbuild/external</text>
<text text-anchor="start" x="198.5" y="-196.5" font-family="Helvetica,sans-Serif" font-size="10.00">/XCM/include/XBotCore&#45;interfaces</text>
<text text-anchor="middle" x="274" y="-185.5" font-family="Helvetica,sans-Serif" font-size="10.00">/IXBotInit.h</text>
</g>
<!-- Node2 -->
<g id="node2" class="node"><title>Node2</title>
<g id="a_node2"><a xlink:href="CommunicationInterfaceYARP_8h.html" target="_top" xlink:title="/home/lucamuratore\l/advr&#45;superbuild/external\l/XCM/include/XCM/XBotYARP\l/CommunicationInterfaceYARP.h">
<polygon fill="none" stroke="black" points="13,-89.5 13,-141.5 175,-141.5 175,-89.5 13,-89.5"/>
<text text-anchor="start" x="21" y="-129.5" font-family="Helvetica,sans-Serif" font-size="10.00">/home/lucamuratore</text>
<text text-anchor="start" x="21" y="-118.5" font-family="Helvetica,sans-Serif" font-size="10.00">/advr&#45;superbuild/external</text>
<text text-anchor="start" x="21" y="-107.5" font-family="Helvetica,sans-Serif" font-size="10.00">/XCM/include/XCM/XBotYARP</text>
<text text-anchor="middle" x="94" y="-96.5" font-family="Helvetica,sans-Serif" font-size="10.00">/CommunicationInterfaceYARP.h</text>
</a>
</g>
</g>
<!-- Node1&#45;&gt;Node2 -->
<g id="edge1" class="edge"><title>Node1&#45;&gt;Node2</title>
<path fill="none" stroke="midnightblue" d="M212.794,-173.917C191.063,-163.414 166.83,-151.701 145.946,-141.607"/>
<polygon fill="midnightblue" stroke="midnightblue" points="211.41,-177.135 221.937,-178.336 214.456,-170.833 211.41,-177.135"/>
</g>
<!-- Node4 -->
<g id="node4" class="node"><title>Node4</title>
<g id="a_node4"><a xlink:href="XBotFT_8h.html" target="_top" xlink:title="/home/lucamuratore\l/advr&#45;superbuild/external\l/XCM/include/XCM/XBotYARP\l/XBotFT.h">
<polygon fill="none" stroke="black" points="197,-89.5 197,-141.5 351,-141.5 351,-89.5 197,-89.5"/>
<text text-anchor="start" x="205" y="-129.5" font-family="Helvetica,sans-Serif" font-size="10.00">/home/lucamuratore</text>
<text text-anchor="start" x="205" y="-118.5" font-family="Helvetica,sans-Serif" font-size="10.00">/advr&#45;superbuild/external</text>
<text text-anchor="start" x="205" y="-107.5" font-family="Helvetica,sans-Serif" font-size="10.00">/XCM/include/XCM/XBotYARP</text>
<text text-anchor="middle" x="274" y="-96.5" font-family="Helvetica,sans-Serif" font-size="10.00">/XBotFT.h</text>
</a>
</g>
</g>
<!-- Node1&#45;&gt;Node4 -->
<g id="edge3" class="edge"><title>Node1&#45;&gt;Node4</title>
<path fill="none" stroke="midnightblue" d="M274,-168.191C274,-159.282 274,-149.899 274,-141.607"/>
<polygon fill="midnightblue" stroke="midnightblue" points="270.5,-168.336 274,-178.336 277.5,-168.336 270.5,-168.336"/>
</g>
<!-- Node6 -->
<g id="node6" class="node"><title>Node6</title>
<g id="a_node6"><a xlink:href="XBotMotionControl_8h.html" target="_top" xlink:title="/home/lucamuratore\l/advr&#45;superbuild/external\l/XCM/include/XCM/XBotYARP\l/XBotMotionControl.h">
<polygon fill="none" stroke="black" points="378,-89.5 378,-141.5 532,-141.5 532,-89.5 378,-89.5"/>
<text text-anchor="start" x="386" y="-129.5" font-family="Helvetica,sans-Serif" font-size="10.00">/home/lucamuratore</text>
<text text-anchor="start" x="386" y="-118.5" font-family="Helvetica,sans-Serif" font-size="10.00">/advr&#45;superbuild/external</text>
<text text-anchor="start" x="386" y="-107.5" font-family="Helvetica,sans-Serif" font-size="10.00">/XCM/include/XCM/XBotYARP</text>
<text text-anchor="middle" x="455" y="-96.5" font-family="Helvetica,sans-Serif" font-size="10.00">/XBotMotionControl.h</text>
</a>
</g>
</g>
<!-- Node1&#45;&gt;Node6 -->
<g id="edge5" class="edge"><title>Node1&#45;&gt;Node6</title>
<path fill="none" stroke="midnightblue" d="M335.546,-173.917C357.397,-163.414 381.766,-151.701 402.765,-141.607"/>
<polygon fill="midnightblue" stroke="midnightblue" points="333.849,-170.849 326.353,-178.336 336.882,-177.158 333.849,-170.849"/>
</g>
<!-- Node3 -->
<g id="node3" class="node"><title>Node3</title>
<g id="a_node3"><a xlink:href="CommunicationInterfaceYARP_8cpp.html" target="_top" xlink:title="/home/lucamuratore\l/advr&#45;superbuild/external\l/XCM/src/XBotYARP/Communication\lInterfaceYARP.cpp">
<polygon fill="none" stroke="black" points="0,-0.5 0,-52.5 182,-52.5 182,-0.5 0,-0.5"/>
<text text-anchor="start" x="8" y="-40.5" font-family="Helvetica,sans-Serif" font-size="10.00">/home/lucamuratore</text>
<text text-anchor="start" x="8" y="-29.5" font-family="Helvetica,sans-Serif" font-size="10.00">/advr&#45;superbuild/external</text>
<text text-anchor="start" x="8" y="-18.5" font-family="Helvetica,sans-Serif" font-size="10.00">/XCM/src/XBotYARP/Communication</text>
<text text-anchor="middle" x="91" y="-7.5" font-family="Helvetica,sans-Serif" font-size="10.00">InterfaceYARP.cpp</text>
</a>
</g>
</g>
<!-- Node2&#45;&gt;Node3 -->
<g id="edge2" class="edge"><title>Node2&#45;&gt;Node3</title>
<path fill="none" stroke="midnightblue" d="M92.7824,-79.1908C92.4753,-70.2824 92.1517,-60.8986 91.8658,-52.6075"/>
<polygon fill="midnightblue" stroke="midnightblue" points="89.2896,-79.4626 93.1323,-89.336 96.2855,-79.2213 89.2896,-79.4626"/>
</g>
<!-- Node5 -->
<g id="node5" class="node"><title>Node5</title>
<g id="a_node5"><a xlink:href="XBotFT_8cpp.html" target="_top" xlink:title="/home/lucamuratore\l/advr&#45;superbuild/external\l/XCM/src/XBotYARP/XBotFT\l/XBotFT.cpp">
<polygon fill="none" stroke="black" points="200,-0.5 200,-52.5 348,-52.5 348,-0.5 200,-0.5"/>
<text text-anchor="start" x="208" y="-40.5" font-family="Helvetica,sans-Serif" font-size="10.00">/home/lucamuratore</text>
<text text-anchor="start" x="208" y="-29.5" font-family="Helvetica,sans-Serif" font-size="10.00">/advr&#45;superbuild/external</text>
<text text-anchor="start" x="208" y="-18.5" font-family="Helvetica,sans-Serif" font-size="10.00">/XCM/src/XBotYARP/XBotFT</text>
<text text-anchor="middle" x="274" y="-7.5" font-family="Helvetica,sans-Serif" font-size="10.00">/XBotFT.cpp</text>
</a>
</g>
</g>
<!-- Node4&#45;&gt;Node5 -->
<g id="edge4" class="edge"><title>Node4&#45;&gt;Node5</title>
<path fill="none" stroke="midnightblue" d="M274,-79.1908C274,-70.2824 274,-60.8986 274,-52.6075"/>
<polygon fill="midnightblue" stroke="midnightblue" points="270.5,-79.336 274,-89.336 277.5,-79.336 270.5,-79.336"/>
</g>
<!-- Node7 -->
<g id="node7" class="node"><title>Node7</title>
<g id="a_node7"><a xlink:href="XBotMotionControl_8cpp.html" target="_top" xlink:title="/home/lucamuratore\l/advr&#45;superbuild/external\l/XCM/src/XBotYARP/XBotMotionControl\l/XBotMotionControl.cpp">
<polygon fill="none" stroke="black" points="366.5,-0.5 366.5,-52.5 563.5,-52.5 563.5,-0.5 366.5,-0.5"/>
<text text-anchor="start" x="374.5" y="-40.5" font-family="Helvetica,sans-Serif" font-size="10.00">/home/lucamuratore</text>
<text text-anchor="start" x="374.5" y="-29.5" font-family="Helvetica,sans-Serif" font-size="10.00">/advr&#45;superbuild/external</text>
<text text-anchor="start" x="374.5" y="-18.5" font-family="Helvetica,sans-Serif" font-size="10.00">/XCM/src/XBotYARP/XBotMotionControl</text>
<text text-anchor="middle" x="465" y="-7.5" font-family="Helvetica,sans-Serif" font-size="10.00">/XBotMotionControl.cpp</text>
</a>
</g>
</g>
<!-- Node6&#45;&gt;Node7 -->
<g id="edge6" class="edge"><title>Node6&#45;&gt;Node7</title>
<path fill="none" stroke="midnightblue" d="M459.059,-79.1908C460.082,-70.2824 461.161,-60.8986 462.114,-52.6075"/>
<polygon fill="midnightblue" stroke="midnightblue" points="455.557,-79.0017 457.892,-89.336 462.512,-79.8011 455.557,-79.0017"/>
</g>
</g>
</svg>
