<?xml version="1.0" encoding="UTF-8" standalone="no"?>
<!DOCTYPE svg PUBLIC "-//W3C//DTD SVG 1.1//EN"
 "http://www.w3.org/Graphics/SVG/1.1/DTD/svg11.dtd">
<!-- Generated by graphviz version 2.38.0 (20140413.2041)
 -->
<!-- Title: /home/lucamuratore/advr&#45;superbuild/external/XCM/src/NRTDeployerMain.cpp Pages: 1 -->
<svg width="2093pt" height="508pt"
 viewBox="0.00 0.00 2093.00 508.00" xmlns="http://www.w3.org/2000/svg" xmlns:xlink="http://www.w3.org/1999/xlink">
<g id="graph0" class="graph" transform="scale(1 1) rotate(0) translate(4 504)">
<title>/home/lucamuratore/advr&#45;superbuild/external/XCM/src/NRTDeployerMain.cpp</title>
<!-- Node1 -->
<g id="node1" class="node"><title>Node1</title>
<polygon fill="#bfbfbf" stroke="black" points="96.5,-458.5 96.5,-499.5 257.5,-499.5 257.5,-458.5 96.5,-458.5"/>
<text text-anchor="start" x="104.5" y="-487.5" font-family="Helvetica,sans-Serif" font-size="10.00">/home/lucamuratore</text>
<text text-anchor="start" x="104.5" y="-476.5" font-family="Helvetica,sans-Serif" font-size="10.00">/advr&#45;superbuild/external</text>
<text text-anchor="middle" x="177" y="-465.5" font-family="Helvetica,sans-Serif" font-size="10.00">/XCM/src/NRTDeployerMain.cpp</text>
</g>
<!-- Node2 -->
<g id="node2" class="node"><title>Node2</title>
<polygon fill="none" stroke="#bfbfbf" points="0,-11.5 0,-30.5 46,-30.5 46,-11.5 0,-11.5"/>
<text text-anchor="middle" x="23" y="-18.5" font-family="Helvetica,sans-Serif" font-size="10.00">stdio.h</text>
</g>
<!-- Node1&#45;&gt;Node2 -->
<g id="edge1" class="edge"><title>Node1&#45;&gt;Node2</title>
<path fill="none" stroke="midnightblue" d="M97.4457,-458.495C77.0499,-450.168 56.7376,-438.435 42,-422 21.9066,-399.592 23,-387.098 23,-357 23,-357 23,-357 23,-159.5 23,-117.08 23,-67.2975 23,-40.8143"/>
<polygon fill="midnightblue" stroke="midnightblue" points="26.5001,-40.6871 23,-30.6871 19.5001,-40.6871 26.5001,-40.6871"/>
</g>
<!-- Node3 -->
<g id="node3" class="node"><title>Node3</title>
<polygon fill="none" stroke="#bfbfbf" points="51.5,-402.5 51.5,-421.5 98.5,-421.5 98.5,-402.5 51.5,-402.5"/>
<text text-anchor="middle" x="75" y="-409.5" font-family="Helvetica,sans-Serif" font-size="10.00">errno.h</text>
</g>
<!-- Node1&#45;&gt;Node3 -->
<g id="edge2" class="edge"><title>Node1&#45;&gt;Node3</title>
<path fill="none" stroke="midnightblue" d="M146.397,-458.498C130.608,-448.436 111.696,-436.385 97.3044,-427.214"/>
<polygon fill="midnightblue" stroke="midnightblue" points="98.8919,-424.075 88.5778,-421.652 95.13,-429.978 98.8919,-424.075"/>
</g>
<!-- Node4 -->
<g id="node4" class="node"><title>Node4</title>
<polygon fill="none" stroke="#bfbfbf" points="117,-402.5 117,-421.5 169,-421.5 169,-402.5 117,-402.5"/>
<text text-anchor="middle" x="143" y="-409.5" font-family="Helvetica,sans-Serif" font-size="10.00">assert.h</text>
</g>
<!-- Node1&#45;&gt;Node4 -->
<g id="edge3" class="edge"><title>Node1&#45;&gt;Node4</title>
<path fill="none" stroke="midnightblue" d="M166.799,-458.498C162.188,-449.682 156.777,-439.339 152.281,-430.743"/>
<polygon fill="midnightblue" stroke="midnightblue" points="155.262,-428.891 147.526,-421.652 149.06,-432.136 155.262,-428.891"/>
</g>
<!-- Node5 -->
<g id="node5" class="node"><title>Node5</title>
<polygon fill="none" stroke="#bfbfbf" points="187,-402.5 187,-421.5 237,-421.5 237,-402.5 187,-402.5"/>
<text text-anchor="middle" x="212" y="-409.5" font-family="Helvetica,sans-Serif" font-size="10.00">signal.h</text>
</g>
<!-- Node1&#45;&gt;Node5 -->
<g id="edge4" class="edge"><title>Node1&#45;&gt;Node5</title>
<path fill="none" stroke="midnightblue" d="M187.501,-458.498C192.3,-449.586 197.939,-439.113 202.597,-430.464"/>
<polygon fill="midnightblue" stroke="midnightblue" points="205.682,-432.117 207.341,-421.652 199.518,-428.798 205.682,-432.117"/>
</g>
<!-- Node6 -->
<g id="node6" class="node"><title>Node6</title>
<polygon fill="none" stroke="#bfbfbf" points="197.5,-84 197.5,-103 256.5,-103 256.5,-84 197.5,-84"/>
<text text-anchor="middle" x="227" y="-91" font-family="Helvetica,sans-Serif" font-size="10.00">exception</text>
</g>
<!-- Node1&#45;&gt;Node6 -->
<g id="edge5" class="edge"><title>Node1&#45;&gt;Node6</title>
<path fill="none" stroke="midnightblue" d="M208.855,-458.436C222.031,-448.907 236.434,-436.39 246,-422 262.663,-396.935 265,-387.098 265,-357 265,-357 265,-357 265,-226.5 265,-184.35 246.886,-137.48 235.67,-112.5"/>
<polygon fill="midnightblue" stroke="midnightblue" points="238.744,-110.809 231.359,-103.212 232.395,-113.756 238.744,-110.809"/>
</g>
<!-- Node7 -->
<g id="node7" class="node"><title>Node7</title>
<g id="a_node7"><a xlink:href="NRTDeployer_8h.html" target="_top" xlink:title="XCM/NRTDeployer.h">
<polygon fill="none" stroke="black" points="750,-402.5 750,-421.5 860,-421.5 860,-402.5 750,-402.5"/>
<text text-anchor="middle" x="805" y="-409.5" font-family="Helvetica,sans-Serif" font-size="10.00">XCM/NRTDeployer.h</text>
</a>
</g>
</g>
<!-- Node1&#45;&gt;Node7 -->
<g id="edge6" class="edge"><title>Node1&#45;&gt;Node7</title>
<path fill="none" stroke="midnightblue" d="M257.814,-469.635C383.709,-456.605 624.175,-431.716 739.773,-419.751"/>
<polygon fill="midnightblue" stroke="midnightblue" points="740.305,-423.215 749.891,-418.704 739.584,-416.252 740.305,-423.215"/>
</g>
<!-- Node8 -->
<g id="node8" class="node"><title>Node8</title>
<g id="a_node8"><a xlink:href="XBotThread_8h.html" target="_top" xlink:title="XCM/XBotThread.h">
<polygon fill="none" stroke="black" points="614,-151 614,-170 716,-170 716,-151 614,-151"/>
<text text-anchor="middle" x="665" y="-158" font-family="Helvetica,sans-Serif" font-size="10.00">XCM/XBotThread.h</text>
</a>
</g>
</g>
<!-- Node7&#45;&gt;Node8 -->
<g id="edge7" class="edge"><title>Node7&#45;&gt;Node8</title>
<path fill="none" stroke="midnightblue" d="M800.181,-402.412C780.029,-366.498 702.284,-227.945 674.741,-178.86"/>
<polygon fill="midnightblue" stroke="midnightblue" points="677.745,-177.06 669.799,-170.052 671.64,-180.486 677.745,-177.06"/>
</g>
<!-- Node31 -->
<g id="node31" class="node"><title>Node31</title>
<g id="a_node31"><a xlink:href="XBotPluginHandler_8h.html" target="_top" xlink:title="XCM/XBotPluginHandler.h">
<polygon fill="none" stroke="black" points="1091.5,-346.5 1091.5,-365.5 1224.5,-365.5 1224.5,-346.5 1091.5,-346.5"/>
<text text-anchor="middle" x="1158" y="-353.5" font-family="Helvetica,sans-Serif" font-size="10.00">XCM/XBotPluginHandler.h</text>
</a>
</g>
</g>
<!-- Node7&#45;&gt;Node31 -->
<g id="edge32" class="edge"><title>Node7&#45;&gt;Node31</title>
<path fill="none" stroke="midnightblue" d="M860.156,-402.562C922.958,-392.955 1025.49,-377.271 1092.35,-367.042"/>
<polygon fill="midnightblue" stroke="midnightblue" points="1093,-370.484 1102.36,-365.512 1091.94,-363.564 1093,-370.484"/>
</g>
<!-- Node41 -->
<g id="node41" class="node"><title>Node41</title>
<g id="a_node41"><a xlink:href="XDomainCommunication_8h.html" target="_top" xlink:title="XBotCore&#45;interfaces\l/XDomainCommunication.h">
<polygon fill="none" stroke="black" points="1142.5,-212.5 1142.5,-242.5 1279.5,-242.5 1279.5,-212.5 1142.5,-212.5"/>
<text text-anchor="start" x="1150.5" y="-230.5" font-family="Helvetica,sans-Serif" font-size="10.00">XBotCore&#45;interfaces</text>
<text text-anchor="middle" x="1211" y="-219.5" font-family="Helvetica,sans-Serif" font-size="10.00">/XDomainCommunication.h</text>
</a>
</g>
</g>
<!-- Node7&#45;&gt;Node41 -->
<g id="edge77" class="edge"><title>Node7&#45;&gt;Node41</title>
<path fill="none" stroke="midnightblue" d="M810.346,-402.46C825.84,-378.507 873.415,-310.39 932,-279 994.011,-245.774 1073.74,-233.907 1132.08,-229.906"/>
<polygon fill="midnightblue" stroke="midnightblue" points="1132.58,-233.382 1142.35,-229.268 1132.15,-226.395 1132.58,-233.382"/>
</g>
<!-- Node8&#45;&gt;Node6 -->
<g id="edge14" class="edge"><title>Node8&#45;&gt;Node6</title>
<path fill="none" stroke="midnightblue" d="M613.929,-156.801C537.37,-151.913 388.73,-139.155 266,-109 263.01,-108.265 259.934,-107.373 256.884,-106.397"/>
<polygon fill="midnightblue" stroke="midnightblue" points="257.962,-103.066 247.367,-103.078 255.657,-109.676 257.962,-103.066"/>
</g>
<!-- Node9 -->
<g id="node9" class="node"><title>Node9</title>
<polygon fill="none" stroke="#bfbfbf" points="602.5,-84 602.5,-103 659.5,-103 659.5,-84 602.5,-84"/>
<text text-anchor="middle" x="631" y="-91" font-family="Helvetica,sans-Serif" font-size="10.00">pthread.h</text>
</g>
<!-- Node8&#45;&gt;Node9 -->
<g id="edge8" class="edge"><title>Node8&#45;&gt;Node9</title>
<path fill="none" stroke="midnightblue" d="M660.415,-150.734C655.266,-140.89 646.776,-124.66 640.237,-112.159"/>
<polygon fill="midnightblue" stroke="midnightblue" points="643.249,-110.366 635.513,-103.127 637.046,-113.611 643.249,-110.366"/>
</g>
<!-- Node10 -->
<g id="node10" class="node"><title>Node10</title>
<polygon fill="none" stroke="#bfbfbf" points="275,-84 275,-103 349,-103 349,-84 275,-84"/>
<text text-anchor="middle" x="312" y="-91" font-family="Helvetica,sans-Serif" font-size="10.00">linux/sched.h</text>
</g>
<!-- Node8&#45;&gt;Node10 -->
<g id="edge9" class="edge"><title>Node8&#45;&gt;Node10</title>
<path fill="none" stroke="midnightblue" d="M613.767,-153.342C552.456,-145.452 446.925,-130.215 358,-109 354.365,-108.133 350.6,-107.127 346.86,-106.058"/>
<polygon fill="midnightblue" stroke="midnightblue" points="347.711,-102.659 337.127,-103.131 345.695,-109.363 347.711,-102.659"/>
</g>
<!-- Node11 -->
<g id="node11" class="node"><title>Node11</title>
<polygon fill="none" stroke="#bfbfbf" points="902.5,-84 902.5,-103 953.5,-103 953.5,-84 902.5,-84"/>
<text text-anchor="middle" x="928" y="-91" font-family="Helvetica,sans-Serif" font-size="10.00">unistd.h</text>
</g>
<!-- Node8&#45;&gt;Node11 -->
<g id="edge10" class="edge"><title>Node8&#45;&gt;Node11</title>
<path fill="none" stroke="midnightblue" d="M710.272,-150.977C755.63,-142.035 827.244,-126.816 888,-109 890.634,-108.228 893.346,-107.374 896.057,-106.479"/>
<polygon fill="midnightblue" stroke="midnightblue" points="897.433,-109.707 905.738,-103.128 895.144,-103.092 897.433,-109.707"/>
</g>
<!-- Node12 -->
<g id="node12" class="node"><title>Node12</title>
<polygon fill="none" stroke="#bfbfbf" points="367,-84 367,-103 415,-103 415,-84 367,-84"/>
<text text-anchor="middle" x="391" y="-91" font-family="Helvetica,sans-Serif" font-size="10.00">stdlib.h</text>
</g>
<!-- Node8&#45;&gt;Node12 -->
<g id="edge11" class="edge"><title>Node8&#45;&gt;Node12</title>
<path fill="none" stroke="midnightblue" d="M613.895,-151.955C564.56,-143.934 488.115,-129.557 424,-109 422.078,-108.384 420.117,-107.693 418.157,-106.955"/>
<polygon fill="midnightblue" stroke="midnightblue" points="419.13,-103.572 408.55,-103.016 416.475,-110.049 419.13,-103.572"/>
</g>
<!-- Node13 -->
<g id="node13" class="node"><title>Node13</title>
<polygon fill="none" stroke="#bfbfbf" points="972,-84 972,-103 1040,-103 1040,-84 972,-84"/>
<text text-anchor="middle" x="1006" y="-91" font-family="Helvetica,sans-Serif" font-size="10.00">sys/types.h</text>
</g>
<!-- Node8&#45;&gt;Node13 -->
<g id="edge12" class="edge"><title>Node8&#45;&gt;Node13</title>
<path fill="none" stroke="midnightblue" d="M716.192,-153.172C775.765,-145.261 876.848,-130.143 962,-109 965.381,-108.161 968.877,-107.19 972.353,-106.157"/>
<polygon fill="midnightblue" stroke="midnightblue" points="973.489,-109.469 981.983,-103.136 971.394,-102.79 973.489,-109.469"/>
</g>
<!-- Node14 -->
<g id="node14" class="node"><title>Node14</title>
<polygon fill="none" stroke="#bfbfbf" points="433,-84 433,-103 515,-103 515,-84 433,-84"/>
<text text-anchor="middle" x="474" y="-91" font-family="Helvetica,sans-Serif" font-size="10.00">bits/local_lim.h</text>
</g>
<!-- Node8&#45;&gt;Node14 -->
<g id="edge13" class="edge"><title>Node8&#45;&gt;Node14</title>
<path fill="none" stroke="midnightblue" d="M639.637,-150.869C606.009,-139.424 546.523,-119.181 508.739,-106.322"/>
<polygon fill="midnightblue" stroke="midnightblue" points="509.758,-102.972 499.164,-103.064 507.503,-109.599 509.758,-102.972"/>
</g>
<!-- Node15 -->
<g id="node15" class="node"><title>Node15</title>
<polygon fill="none" stroke="#bfbfbf" points="533.5,-84 533.5,-103 584.5,-103 584.5,-84 533.5,-84"/>
<text text-anchor="middle" x="559" y="-91" font-family="Helvetica,sans-Serif" font-size="10.00">typeinfo</text>
</g>
<!-- Node8&#45;&gt;Node15 -->
<g id="edge15" class="edge"><title>Node8&#45;&gt;Node15</title>
<path fill="none" stroke="midnightblue" d="M650.704,-150.734C632.983,-139.867 602.568,-121.216 581.656,-108.393"/>
<polygon fill="midnightblue" stroke="midnightblue" points="583.424,-105.371 573.069,-103.127 579.764,-111.339 583.424,-105.371"/>
</g>
<!-- Node16 -->
<g id="node16" class="node"><title>Node16</title>
<polygon fill="none" stroke="#bfbfbf" points="1407,-11.5 1407,-30.5 1461,-30.5 1461,-11.5 1407,-11.5"/>
<text text-anchor="middle" x="1434" y="-18.5" font-family="Helvetica,sans-Serif" font-size="10.00">iostream</text>
</g>
<!-- Node8&#45;&gt;Node16 -->
<g id="edge16" class="edge"><title>Node8&#45;&gt;Node16</title>
<path fill="none" stroke="midnightblue" d="M700.622,-150.96C732.225,-142.625 779.12,-128.37 817,-109 837.976,-98.2735 837.834,-85.9839 860,-78 1085.47,3.21094 1168.15,-109.828 1398,-42 1402.97,-40.5341 1408.01,-38.2965 1412.68,-35.8413"/>
<polygon fill="midnightblue" stroke="midnightblue" points="1414.71,-38.7102 1421.61,-30.6733 1411.2,-32.6509 1414.71,-38.7102"/>
</g>
<!-- Node17 -->
<g id="node17" class="node"><title>Node17</title>
<polygon fill="none" stroke="#bfbfbf" points="1548,-11.5 1548,-30.5 1600,-30.5 1600,-11.5 1548,-11.5"/>
<text text-anchor="middle" x="1574" y="-18.5" font-family="Helvetica,sans-Serif" font-size="10.00">memory</text>
</g>
<!-- Node8&#45;&gt;Node17 -->
<g id="edge17" class="edge"><title>Node8&#45;&gt;Node17</title>
<path fill="none" stroke="midnightblue" d="M716.032,-151.465C755,-144.008 809.26,-130.718 853,-109 873.145,-98.9974 871.957,-85.9403 893,-78 1013.2,-32.6453 1342.55,-58.1637 1470,-42 1492.68,-39.1239 1517.86,-34.3242 1537.76,-30.1476"/>
<polygon fill="midnightblue" stroke="midnightblue" points="1538.6,-33.5475 1547.65,-28.0338 1537.14,-26.7022 1538.6,-33.5475"/>
</g>
<!-- Node18 -->
<g id="node18" class="node"><title>Node18</title>
<g id="a_node18"><a xlink:href="XBotUtils_8h.html" target="_top" xlink:title="XCM/XBotUtils.h">
<polygon fill="none" stroke="black" points="716,-84 716,-103 808,-103 808,-84 716,-84"/>
<text text-anchor="middle" x="762" y="-91" font-family="Helvetica,sans-Serif" font-size="10.00">XCM/XBotUtils.h</text>
</a>
</g>
</g>
<!-- Node8&#45;&gt;Node18 -->
<g id="edge18" class="edge"><title>Node8&#45;&gt;Node18</title>
<path fill="none" stroke="midnightblue" d="M678.082,-150.734C694.153,-139.964 721.633,-121.55 740.75,-108.739"/>
<polygon fill="midnightblue" stroke="midnightblue" points="742.766,-111.602 749.125,-103.127 738.87,-105.787 742.766,-111.602"/>
</g>
<!-- Node18&#45;&gt;Node2 -->
<g id="edge20" class="edge"><title>Node18&#45;&gt;Node2</title>
<path fill="none" stroke="midnightblue" d="M715.736,-84.4751C700.565,-82.0815 683.599,-79.6574 668,-78 532.307,-63.5824 185.009,-83.4493 55,-42 50.6463,-40.612 46.2895,-38.4956 42.2545,-36.1508"/>
<polygon fill="midnightblue" stroke="midnightblue" points="43.8663,-33.0238 33.5764,-30.5004 40.0468,-38.8899 43.8663,-33.0238"/>
</g>
<!-- Node19 -->
<g id="node19" class="node"><title>Node19</title>
<polygon fill="none" stroke="#bfbfbf" points="64.5,-11.5 64.5,-30.5 113.5,-30.5 113.5,-11.5 64.5,-11.5"/>
<text text-anchor="middle" x="89" y="-18.5" font-family="Helvetica,sans-Serif" font-size="10.00">stdint.h</text>
</g>
<!-- Node18&#45;&gt;Node19 -->
<g id="edge19" class="edge"><title>Node18&#45;&gt;Node19</title>
<path fill="none" stroke="midnightblue" d="M731.063,-83.9297C721.784,-81.6565 711.537,-79.4376 702,-78 447.05,-39.5702 369.549,-117.433 123,-42 118.381,-40.5868 113.727,-38.4342 109.407,-36.0569"/>
<polygon fill="midnightblue" stroke="midnightblue" points="110.986,-32.9202 100.628,-30.6934 107.336,-38.8936 110.986,-32.9202"/>
</g>
<!-- Node20 -->
<g id="node20" class="node"><title>Node20</title>
<polygon fill="none" stroke="#bfbfbf" points="1339,-11.5 1339,-30.5 1389,-30.5 1389,-11.5 1339,-11.5"/>
<text text-anchor="middle" x="1364" y="-18.5" font-family="Helvetica,sans-Serif" font-size="10.00">fstream</text>
</g>
<!-- Node18&#45;&gt;Node20 -->
<g id="edge21" class="edge"><title>Node18&#45;&gt;Node20</title>
<path fill="none" stroke="midnightblue" d="M792.945,-83.9817C802.224,-81.71 812.469,-79.4788 822,-78 1045.67,-43.2954 1113.85,-109.156 1330,-42 1334.61,-40.5669 1339.26,-38.4053 1343.58,-36.0254"/>
<polygon fill="midnightblue" stroke="midnightblue" points="1345.65,-38.8632 1352.36,-30.665 1342,-32.8887 1345.65,-38.8632"/>
</g>
<!-- Node21 -->
<g id="node21" class="node"><title>Node21</title>
<polygon fill="none" stroke="#bfbfbf" points="132,-11.5 132,-30.5 184,-30.5 184,-11.5 132,-11.5"/>
<text text-anchor="middle" x="158" y="-18.5" font-family="Helvetica,sans-Serif" font-size="10.00">sstream</text>
</g>
<!-- Node18&#45;&gt;Node21 -->
<g id="edge22" class="edge"><title>Node18&#45;&gt;Node21</title>
<path fill="none" stroke="midnightblue" d="M731.056,-83.9809C721.776,-81.7091 711.531,-79.4782 702,-78 477.892,-43.2429 409.999,-107.91 193,-42 188.149,-40.5267 183.241,-38.2858 178.697,-35.8298"/>
<polygon fill="midnightblue" stroke="midnightblue" points="180.398,-32.7691 170.014,-30.663 176.818,-38.7846 180.398,-32.7691"/>
</g>
<!-- Node22 -->
<g id="node22" class="node"><title>Node22</title>
<polygon fill="none" stroke="#bfbfbf" points="202,-11.5 202,-30.5 326,-30.5 326,-11.5 202,-11.5"/>
<text text-anchor="middle" x="264" y="-18.5" font-family="Helvetica,sans-Serif" font-size="10.00">boost/circular_buffer.hpp</text>
</g>
<!-- Node18&#45;&gt;Node22 -->
<g id="edge23" class="edge"><title>Node18&#45;&gt;Node22</title>
<path fill="none" stroke="midnightblue" d="M730.409,-83.9929C721.294,-81.7763 711.299,-79.5718 702,-78 540.398,-50.684 496.062,-72.3374 335,-42 323.438,-39.8221 311.03,-36.6315 299.872,-33.4355"/>
<polygon fill="midnightblue" stroke="midnightblue" points="300.619,-30.0067 290.037,-30.5279 298.635,-36.7195 300.619,-30.0067"/>
</g>
<!-- Node23 -->
<g id="node23" class="node"><title>Node23</title>
<polygon fill="none" stroke="#bfbfbf" points="344,-6 344,-36 446,-36 446,-6 344,-6"/>
<text text-anchor="start" x="352" y="-24" font-family="Helvetica,sans-Serif" font-size="10.00">boost/accumulators</text>
<text text-anchor="middle" x="395" y="-13" font-family="Helvetica,sans-Serif" font-size="10.00">/accumulators.hpp</text>
</g>
<!-- Node18&#45;&gt;Node23 -->
<g id="edge24" class="edge"><title>Node18&#45;&gt;Node23</title>
<path fill="none" stroke="midnightblue" d="M729.11,-83.9724C720.336,-81.8566 710.838,-79.7083 702,-78 593.078,-56.9477 562.934,-67.6412 455,-42 451.203,-41.0979 447.303,-40.0607 443.403,-38.9433"/>
<polygon fill="midnightblue" stroke="midnightblue" points="444.349,-35.573 433.764,-36.0319 442.325,-42.274 444.349,-35.573"/>
</g>
<!-- Node24 -->
<g id="node24" class="node"><title>Node24</title>
<polygon fill="none" stroke="#bfbfbf" points="464.5,-6 464.5,-36 569.5,-36 569.5,-6 464.5,-6"/>
<text text-anchor="start" x="472.5" y="-24" font-family="Helvetica,sans-Serif" font-size="10.00">boost/accumulators</text>
<text text-anchor="middle" x="517" y="-13" font-family="Helvetica,sans-Serif" font-size="10.00">/statistics/count.hpp</text>
</g>
<!-- Node18&#45;&gt;Node24 -->
<g id="edge25" class="edge"><title>Node18&#45;&gt;Node24</title>
<path fill="none" stroke="midnightblue" d="M728.955,-83.9524C692.018,-74.277 630.497,-57.7998 578,-42 574.905,-41.0685 571.729,-40.0915 568.529,-39.091"/>
<polygon fill="midnightblue" stroke="midnightblue" points="569.507,-35.7296 558.917,-36.0421 567.391,-42.402 569.507,-35.7296"/>
</g>
<!-- Node25 -->
<g id="node25" class="node"><title>Node25</title>
<polygon fill="none" stroke="#bfbfbf" points="587.5,-6 587.5,-36 692.5,-36 692.5,-6 587.5,-6"/>
<text text-anchor="start" x="595.5" y="-24" font-family="Helvetica,sans-Serif" font-size="10.00">boost/accumulators</text>
<text text-anchor="middle" x="640" y="-13" font-family="Helvetica,sans-Serif" font-size="10.00">/statistics/mean.hpp</text>
</g>
<!-- Node18&#45;&gt;Node25 -->
<g id="edge26" class="edge"><title>Node18&#45;&gt;Node25</title>
<path fill="none" stroke="midnightblue" d="M747.04,-83.8553C728.76,-73.2918 697.292,-55.1073 673.192,-41.1805"/>
<polygon fill="midnightblue" stroke="midnightblue" points="674.768,-38.0492 664.359,-36.0762 671.266,-44.11 674.768,-38.0492"/>
</g>
<!-- Node26 -->
<g id="node26" class="node"><title>Node26</title>
<polygon fill="none" stroke="#bfbfbf" points="711,-6 711,-36 813,-36 813,-6 711,-6"/>
<text text-anchor="start" x="719" y="-24" font-family="Helvetica,sans-Serif" font-size="10.00">boost/accumulators</text>
<text text-anchor="middle" x="762" y="-13" font-family="Helvetica,sans-Serif" font-size="10.00">/statistics/min.hpp</text>
</g>
<!-- Node18&#45;&gt;Node26 -->
<g id="edge27" class="edge"><title>Node18&#45;&gt;Node26</title>
<path fill="none" stroke="midnightblue" d="M762,-83.8553C762,-74.5483 762,-59.3253 762,-46.3107"/>
<polygon fill="midnightblue" stroke="midnightblue" points="765.5,-46.0761 762,-36.0762 758.5,-46.0762 765.5,-46.0761"/>
</g>
<!-- Node27 -->
<g id="node27" class="node"><title>Node27</title>
<polygon fill="none" stroke="#bfbfbf" points="831,-6 831,-36 933,-36 933,-6 831,-6"/>
<text text-anchor="start" x="839" y="-24" font-family="Helvetica,sans-Serif" font-size="10.00">boost/accumulators</text>
<text text-anchor="middle" x="882" y="-13" font-family="Helvetica,sans-Serif" font-size="10.00">/statistics/max.hpp</text>
</g>
<!-- Node18&#45;&gt;Node27 -->
<g id="edge28" class="edge"><title>Node18&#45;&gt;Node27</title>
<path fill="none" stroke="midnightblue" d="M776.714,-83.8553C794.695,-73.2918 825.647,-55.1073 849.352,-41.1805"/>
<polygon fill="midnightblue" stroke="midnightblue" points="851.191,-44.1594 858.041,-36.0762 847.646,-38.1239 851.191,-44.1594"/>
</g>
<!-- Node28 -->
<g id="node28" class="node"><title>Node28</title>
<polygon fill="none" stroke="#bfbfbf" points="951,-6 951,-36 1069,-36 1069,-6 951,-6"/>
<text text-anchor="start" x="959" y="-24" font-family="Helvetica,sans-Serif" font-size="10.00">boost/accumulators</text>
<text text-anchor="middle" x="1010" y="-13" font-family="Helvetica,sans-Serif" font-size="10.00">/statistics/variance.hpp</text>
</g>
<!-- Node18&#45;&gt;Node28 -->
<g id="edge29" class="edge"><title>Node18&#45;&gt;Node28</title>
<path fill="none" stroke="midnightblue" d="M792.929,-83.9496C828.815,-73.9993 889.749,-57.0129 942,-42 945.519,-40.989 949.138,-39.9429 952.786,-38.8835"/>
<polygon fill="midnightblue" stroke="midnightblue" points="953.844,-42.221 962.466,-36.0631 951.886,-35.5005 953.844,-42.221"/>
</g>
<!-- Node29 -->
<g id="node29" class="node"><title>Node29</title>
<polygon fill="none" stroke="#bfbfbf" points="1087,-6 1087,-36 1201,-36 1201,-6 1087,-6"/>
<text text-anchor="start" x="1095" y="-24" font-family="Helvetica,sans-Serif" font-size="10.00">boost/accumulators</text>
<text text-anchor="middle" x="1144" y="-13" font-family="Helvetica,sans-Serif" font-size="10.00">/statistics/error_of.hpp</text>
</g>
<!-- Node18&#45;&gt;Node29 -->
<g id="edge30" class="edge"><title>Node18&#45;&gt;Node29</title>
<path fill="none" stroke="midnightblue" d="M794.884,-83.9423C803.658,-81.8268 813.157,-79.6861 822,-78 934.864,-56.4795 965.797,-66.7343 1078,-42 1082.33,-41.0463 1086.78,-39.9506 1091.24,-38.7737"/>
<polygon fill="midnightblue" stroke="midnightblue" points="1092.23,-42.129 1100.94,-36.0914 1090.37,-35.382 1092.23,-42.129"/>
</g>
<!-- Node30 -->
<g id="node30" class="node"><title>Node30</title>
<polygon fill="none" stroke="#bfbfbf" points="1219,-0.5 1219,-41.5 1321,-41.5 1321,-0.5 1219,-0.5"/>
<text text-anchor="start" x="1227" y="-29.5" font-family="Helvetica,sans-Serif" font-size="10.00">boost/accumulators</text>
<text text-anchor="start" x="1227" y="-18.5" font-family="Helvetica,sans-Serif" font-size="10.00">/statistics/error_of</text>
<text text-anchor="middle" x="1270" y="-7.5" font-family="Helvetica,sans-Serif" font-size="10.00">_mean.hpp</text>
</g>
<!-- Node18&#45;&gt;Node30 -->
<g id="edge31" class="edge"><title>Node18&#45;&gt;Node30</title>
<path fill="none" stroke="midnightblue" d="M793.586,-83.9613C802.7,-81.7442 812.697,-79.5473 822,-78 989.668,-50.112 1038.71,-76.5958 1209.03,-41.9474"/>
<polygon fill="midnightblue" stroke="midnightblue" points="1209.75,-45.3743 1218.83,-39.9159 1208.32,-38.5203 1209.75,-45.3743"/>
</g>
<!-- Node32 -->
<g id="node32" class="node"><title>Node32</title>
<g id="a_node32"><a xlink:href="All_8h.html" target="_top" xlink:title="XBotCore&#45;interfaces\l/All.h">
<polygon fill="none" stroke="black" points="1381.5,-279.5 1381.5,-309.5 1486.5,-309.5 1486.5,-279.5 1381.5,-279.5"/>
<text text-anchor="start" x="1389.5" y="-297.5" font-family="Helvetica,sans-Serif" font-size="10.00">XBotCore&#45;interfaces</text>
<text text-anchor="middle" x="1434" y="-286.5" font-family="Helvetica,sans-Serif" font-size="10.00">/All.h</text>
</a>
</g>
</g>
<!-- Node31&#45;&gt;Node32 -->
<g id="edge33" class="edge"><title>Node31&#45;&gt;Node32</title>
<path fill="none" stroke="midnightblue" d="M1199.68,-346.426C1242.65,-337.531 1311.58,-323.114 1371,-310 1371.21,-309.953 1371.43,-309.906 1371.64,-309.859"/>
<polygon fill="midnightblue" stroke="midnightblue" points="1372.42,-313.27 1381.42,-307.676 1370.9,-306.438 1372.42,-313.27"/>
</g>
<!-- Node46 -->
<g id="node46" class="node"><title>Node46</title>
<g id="a_node46"><a xlink:href="XBotControlPlugin_8h.html" target="_top" xlink:title="XCM/XBotControlPlugin.h">
<polygon fill="none" stroke="red" points="1231.5,-285 1231.5,-304 1362.5,-304 1362.5,-285 1231.5,-285"/>
<text text-anchor="middle" x="1297" y="-292" font-family="Helvetica,sans-Serif" font-size="10.00">XCM/XBotControlPlugin.h</text>
</a>
</g>
</g>
<!-- Node31&#45;&gt;Node46 -->
<g id="edge68" class="edge"><title>Node31&#45;&gt;Node46</title>
<path fill="none" stroke="midnightblue" d="M1177.92,-346.475C1201.45,-336.401 1240.81,-319.553 1267.79,-308.002"/>
<polygon fill="midnightblue" stroke="midnightblue" points="1269.31,-311.162 1277.12,-304.009 1266.55,-304.727 1269.31,-311.162"/>
</g>
<!-- Node47 -->
<g id="node47" class="node"><title>Node47</title>
<g id="a_node47"><a xlink:href="TimeProvider_8h.html" target="_top" xlink:title="XCM/TimeProvider.h">
<polygon fill="none" stroke="black" points="1977,-218 1977,-237 2085,-237 2085,-218 1977,-218"/>
<text text-anchor="middle" x="2031" y="-225" font-family="Helvetica,sans-Serif" font-size="10.00">XCM/TimeProvider.h</text>
</a>
</g>
</g>
<!-- Node31&#45;&gt;Node47 -->
<g id="edge71" class="edge"><title>Node31&#45;&gt;Node47</title>
<path fill="none" stroke="midnightblue" d="M1224.55,-346.476C1292.56,-337.679 1401.21,-323.391 1495,-310 1665.71,-285.626 1866.6,-254.397 1967.04,-238.609"/>
<polygon fill="midnightblue" stroke="midnightblue" points="1967.7,-242.049 1977.03,-237.038 1966.61,-235.134 1967.7,-242.049"/>
</g>
<!-- Node48 -->
<g id="node48" class="node"><title>Node48</title>
<g id="a_node48"><a xlink:href="XBotESCUtils_8h.html" target="_top" xlink:title="XCM/XBotESCUtils.h">
<polygon fill="none" stroke="red" points="808.5,-218 808.5,-237 921.5,-237 921.5,-218 808.5,-218"/>
<text text-anchor="middle" x="865" y="-225" font-family="Helvetica,sans-Serif" font-size="10.00">XCM/XBotESCUtils.h</text>
</a>
</g>
</g>
<!-- Node31&#45;&gt;Node48 -->
<g id="edge73" class="edge"><title>Node31&#45;&gt;Node48</title>
<path fill="none" stroke="midnightblue" d="M1091.45,-353.463C1044.04,-349.692 980.393,-338.984 932,-310 905.906,-294.372 885.474,-264.727 874.337,-245.825"/>
<polygon fill="midnightblue" stroke="midnightblue" points="877.346,-244.036 869.38,-237.051 871.252,-247.479 877.346,-244.036"/>
</g>
<!-- Node49 -->
<g id="node49" class="node"><title>Node49</title>
<polygon fill="none" stroke="#bfbfbf" points="941.5,-285 941.5,-304 1084.5,-304 1084.5,-285 941.5,-285"/>
<text text-anchor="middle" x="1013" y="-292" font-family="Helvetica,sans-Serif" font-size="10.00">SharedLibraryClassFactory.h</text>
</g>
<!-- Node31&#45;&gt;Node49 -->
<g id="edge75" class="edge"><title>Node31&#45;&gt;Node49</title>
<path fill="none" stroke="midnightblue" d="M1137.23,-346.475C1112.57,-336.357 1071.25,-319.405 1043.1,-307.851"/>
<polygon fill="midnightblue" stroke="midnightblue" points="1044.32,-304.567 1033.74,-304.009 1041.66,-311.043 1044.32,-304.567"/>
</g>
<!-- Node50 -->
<g id="node50" class="node"><title>Node50</title>
<polygon fill="none" stroke="#bfbfbf" points="1103,-285 1103,-304 1213,-304 1213,-285 1103,-285"/>
<text text-anchor="middle" x="1158" y="-292" font-family="Helvetica,sans-Serif" font-size="10.00">SharedLibraryClass.h</text>
</g>
<!-- Node31&#45;&gt;Node50 -->
<g id="edge76" class="edge"><title>Node31&#45;&gt;Node50</title>
<path fill="none" stroke="midnightblue" d="M1158,-346.475C1158,-338.08 1158,-324.981 1158,-314.163"/>
<polygon fill="midnightblue" stroke="midnightblue" points="1161.5,-314.009 1158,-304.009 1154.5,-314.009 1161.5,-314.009"/>
</g>
<!-- Node33 -->
<g id="node33" class="node"><title>Node33</title>
<g id="a_node33"><a xlink:href="IXBotModel_8h.html" target="_top" xlink:title="XBotCore&#45;interfaces\l/IXBotModel.h">
<polygon fill="none" stroke="red" points="1795.5,-145.5 1795.5,-175.5 1900.5,-175.5 1900.5,-145.5 1795.5,-145.5"/>
<text text-anchor="start" x="1803.5" y="-163.5" font-family="Helvetica,sans-Serif" font-size="10.00">XBotCore&#45;interfaces</text>
<text text-anchor="middle" x="1848" y="-152.5" font-family="Helvetica,sans-Serif" font-size="10.00">/IXBotModel.h</text>
</a>
</g>
</g>
<!-- Node32&#45;&gt;Node33 -->
<g id="edge34" class="edge"><title>Node32&#45;&gt;Node33</title>
<path fill="none" stroke="midnightblue" d="M1486.6,-284.763C1533.11,-276.342 1602.46,-262.072 1661,-243 1714.63,-225.528 1773.91,-198.251 1811.05,-180.131"/>
<polygon fill="midnightblue" stroke="midnightblue" points="1813.03,-183.06 1820.46,-175.507 1809.94,-176.778 1813.03,-183.06"/>
</g>
<!-- Node34 -->
<g id="node34" class="node"><title>Node34</title>
<g id="a_node34"><a xlink:href="IXBotJoint_8h.html" target="_top" xlink:title="XBotCore&#45;interfaces\l/IXBotJoint.h">
<polygon fill="none" stroke="red" points="1918.5,-145.5 1918.5,-175.5 2023.5,-175.5 2023.5,-145.5 1918.5,-145.5"/>
<text text-anchor="start" x="1926.5" y="-163.5" font-family="Helvetica,sans-Serif" font-size="10.00">XBotCore&#45;interfaces</text>
<text text-anchor="middle" x="1971" y="-152.5" font-family="Helvetica,sans-Serif" font-size="10.00">/IXBotJoint.h</text>
</a>
</g>
</g>
<!-- Node32&#45;&gt;Node34 -->
<g id="edge35" class="edge"><title>Node32&#45;&gt;Node34</title>
<path fill="none" stroke="midnightblue" d="M1486.74,-286.123C1543.54,-277.691 1636.34,-262.501 1715,-243 1788.58,-224.759 1871.91,-196.83 1922.96,-178.867"/>
<polygon fill="midnightblue" stroke="midnightblue" points="1924.16,-182.156 1932.42,-175.523 1921.82,-175.557 1924.16,-182.156"/>
</g>
<!-- Node35 -->
<g id="node35" class="node"><title>Node35</title>
<g id="a_node35"><a xlink:href="IXBotFT_8h.html" target="_top" xlink:title="XBotCore&#45;interfaces\l/IXBotFT.h">
<polygon fill="none" stroke="black" points="1510.5,-145.5 1510.5,-175.5 1615.5,-175.5 1615.5,-145.5 1510.5,-145.5"/>
<text text-anchor="start" x="1518.5" y="-163.5" font-family="Helvetica,sans-Serif" font-size="10.00">XBotCore&#45;interfaces</text>
<text text-anchor="middle" x="1563" y="-152.5" font-family="Helvetica,sans-Serif" font-size="10.00">/IXBotFT.h</text>
</a>
</g>
</g>
<!-- Node32&#45;&gt;Node35 -->
<g id="edge37" class="edge"><title>Node32&#45;&gt;Node35</title>
<path fill="none" stroke="midnightblue" d="M1444.35,-279.226C1456.89,-262.362 1479.06,-233.839 1501,-212 1511.66,-201.385 1524.41,-190.708 1535.56,-181.922"/>
<polygon fill="midnightblue" stroke="midnightblue" points="1537.96,-184.495 1543.72,-175.606 1533.67,-178.96 1537.96,-184.495"/>
</g>
<!-- Node36 -->
<g id="node36" class="node"><title>Node36</title>
<g id="a_node36"><a xlink:href="IXBotIMU_8h.html" target="_top" xlink:title="XBotCore&#45;interfaces\l/IXBotIMU.h">
<polygon fill="none" stroke="red" points="1672.5,-145.5 1672.5,-175.5 1777.5,-175.5 1777.5,-145.5 1672.5,-145.5"/>
<text text-anchor="start" x="1680.5" y="-163.5" font-family="Helvetica,sans-Serif" font-size="10.00">XBotCore&#45;interfaces</text>
<text text-anchor="middle" x="1725" y="-152.5" font-family="Helvetica,sans-Serif" font-size="10.00">/IXBotIMU.h</text>
</a>
</g>
</g>
<!-- Node32&#45;&gt;Node36 -->
<g id="edge38" class="edge"><title>Node32&#45;&gt;Node36</title>
<path fill="none" stroke="midnightblue" d="M1486.52,-285.649C1525.91,-278.339 1580.32,-265.154 1624,-243 1654.73,-227.414 1684.79,-201.365 1704.01,-182.916"/>
<polygon fill="midnightblue" stroke="midnightblue" points="1706.61,-185.266 1711.31,-175.771 1701.72,-180.263 1706.61,-185.266"/>
</g>
<!-- Node37 -->
<g id="node37" class="node"><title>Node37</title>
<g id="a_node37"><a xlink:href="XBotPlugin_8h.html" target="_top" xlink:title="XBotCore&#45;interfaces\l/XBotPlugin.h">
<polygon fill="none" stroke="red" points="1510.5,-212.5 1510.5,-242.5 1615.5,-242.5 1615.5,-212.5 1510.5,-212.5"/>
<text text-anchor="start" x="1518.5" y="-230.5" font-family="Helvetica,sans-Serif" font-size="10.00">XBotCore&#45;interfaces</text>
<text text-anchor="middle" x="1563" y="-219.5" font-family="Helvetica,sans-Serif" font-size="10.00">/XBotPlugin.h</text>
</a>
</g>
</g>
<!-- Node32&#45;&gt;Node37 -->
<g id="edge39" class="edge"><title>Node32&#45;&gt;Node37</title>
<path fill="none" stroke="midnightblue" d="M1461.99,-279.396C1480.75,-269.941 1505.67,-257.39 1526.05,-247.117"/>
<polygon fill="midnightblue" stroke="midnightblue" points="1527.71,-250.202 1535.06,-242.577 1524.56,-243.951 1527.71,-250.202"/>
</g>
<!-- Node38 -->
<g id="node38" class="node"><title>Node38</title>
<g id="a_node38"><a xlink:href="XBotSharedMemory_8h.html" target="_top" xlink:title="XBotCore&#45;interfaces\l/XBotSharedMemory.h">
<polygon fill="none" stroke="black" points="1376,-145.5 1376,-175.5 1492,-175.5 1492,-145.5 1376,-145.5"/>
<text text-anchor="start" x="1384" y="-163.5" font-family="Helvetica,sans-Serif" font-size="10.00">XBotCore&#45;interfaces</text>
<text text-anchor="middle" x="1434" y="-152.5" font-family="Helvetica,sans-Serif" font-size="10.00">/XBotSharedMemory.h</text>
</a>
</g>
</g>
<!-- Node32&#45;&gt;Node38 -->
<g id="edge51" class="edge"><title>Node32&#45;&gt;Node38</title>
<path fill="none" stroke="midnightblue" d="M1434,-279.374C1434,-257.044 1434,-213.313 1434,-185.851"/>
<polygon fill="midnightblue" stroke="midnightblue" points="1437.5,-185.525 1434,-175.525 1430.5,-185.525 1437.5,-185.525"/>
</g>
<!-- Node39 -->
<g id="node39" class="node"><title>Node39</title>
<g id="a_node39"><a xlink:href="XBotSharedObject_8h.html" target="_top" xlink:title="XBotCore&#45;interfaces\l/XBotSharedObject.h">
<polygon fill="none" stroke="red" points="1379.5,-78.5 1379.5,-108.5 1488.5,-108.5 1488.5,-78.5 1379.5,-78.5"/>
<text text-anchor="start" x="1387.5" y="-96.5" font-family="Helvetica,sans-Serif" font-size="10.00">XBotCore&#45;interfaces</text>
<text text-anchor="middle" x="1434" y="-85.5" font-family="Helvetica,sans-Serif" font-size="10.00">/XBotSharedObject.h</text>
</a>
</g>
</g>
<!-- Node32&#45;&gt;Node39 -->
<g id="edge52" class="edge"><title>Node32&#45;&gt;Node39</title>
<path fill="none" stroke="midnightblue" d="M1422.65,-279.384C1406.55,-258.349 1377.83,-216.858 1367,-176 1363.47,-162.682 1360.85,-157.331 1367,-145 1373.27,-132.43 1384.32,-122.165 1395.66,-114.252"/>
<polygon fill="midnightblue" stroke="midnightblue" points="1397.81,-117.026 1404.31,-108.66 1394.02,-111.147 1397.81,-117.026"/>
</g>
<!-- Node40 -->
<g id="node40" class="node"><title>Node40</title>
<g id="a_node40"><a xlink:href="XBotESC_8h.html" target="_top" xlink:title="XBotCore&#45;interfaces\l/XBotESC.h">
<polygon fill="none" stroke="black" points="811.5,-145.5 811.5,-175.5 916.5,-175.5 916.5,-145.5 811.5,-145.5"/>
<text text-anchor="start" x="819.5" y="-163.5" font-family="Helvetica,sans-Serif" font-size="10.00">XBotCore&#45;interfaces</text>
<text text-anchor="middle" x="864" y="-152.5" font-family="Helvetica,sans-Serif" font-size="10.00">/XBotESC.h</text>
</a>
</g>
</g>
<!-- Node32&#45;&gt;Node40 -->
<g id="edge67" class="edge"><title>Node32&#45;&gt;Node40</title>
<path fill="none" stroke="midnightblue" d="M1381.49,-280.961C1377.95,-280.255 1374.43,-279.593 1371,-279 1235.2,-255.508 1196.45,-277.435 1063,-243 1004.35,-227.865 940.105,-199.177 900.919,-180.195"/>
<polygon fill="midnightblue" stroke="midnightblue" points="902.036,-176.845 891.515,-175.593 898.958,-183.133 902.036,-176.845"/>
</g>
<!-- Node32&#45;&gt;Node41 -->
<g id="edge53" class="edge"><title>Node32&#45;&gt;Node41</title>
<path fill="none" stroke="midnightblue" d="M1385.89,-279.476C1351.71,-269.515 1305.64,-256.086 1269.37,-245.512"/>
<polygon fill="midnightblue" stroke="midnightblue" points="1269.99,-242.049 1259.41,-242.611 1268.03,-248.77 1269.99,-242.049"/>
</g>
<!-- Node42 -->
<g id="node42" class="node"><title>Node42</title>
<g id="a_node42"><a xlink:href="XBotPipes_8h.html" target="_top" xlink:title="XBotCore&#45;interfaces\l/XBotPipes.h">
<polygon fill="none" stroke="red" points="934.5,-145.5 934.5,-175.5 1039.5,-175.5 1039.5,-145.5 934.5,-145.5"/>
<text text-anchor="start" x="942.5" y="-163.5" font-family="Helvetica,sans-Serif" font-size="10.00">XBotCore&#45;interfaces</text>
<text text-anchor="middle" x="987" y="-152.5" font-family="Helvetica,sans-Serif" font-size="10.00">/XBotPipes.h</text>
</a>
</g>
</g>
<!-- Node32&#45;&gt;Node42 -->
<g id="edge66" class="edge"><title>Node32&#45;&gt;Node42</title>
<path fill="none" stroke="midnightblue" d="M1381.47,-281.095C1377.93,-280.357 1374.42,-279.651 1371,-279 1265.91,-258.988 1234.22,-277.629 1133,-243 1089.38,-228.077 1043.69,-200.304 1015.29,-181.368"/>
<polygon fill="midnightblue" stroke="midnightblue" points="1016.94,-178.261 1006.7,-175.558 1013.02,-184.059 1016.94,-178.261"/>
</g>
<!-- Node34&#45;&gt;Node17 -->
<g id="edge36" class="edge"><title>Node34&#45;&gt;Node17</title>
<path fill="none" stroke="midnightblue" d="M1930.38,-145.431C1852.05,-118.302 1681.42,-59.2057 1608.34,-33.8941"/>
<polygon fill="midnightblue" stroke="midnightblue" points="1609.29,-30.5191 1598.7,-30.5535 1607,-37.1336 1609.29,-30.5191"/>
</g>
<!-- Node37&#45;&gt;Node17 -->
<g id="edge50" class="edge"><title>Node37&#45;&gt;Node17</title>
<path fill="none" stroke="midnightblue" d="M1589.14,-212.371C1602.21,-203.757 1616.74,-191.427 1624,-176 1646.46,-128.258 1609.11,-67.7433 1587.58,-38.8465"/>
<polygon fill="midnightblue" stroke="midnightblue" points="1590.12,-36.4106 1581.24,-30.6317 1584.58,-40.6869 1590.12,-36.4106"/>
</g>
<!-- Node37&#45;&gt;Node33 -->
<g id="edge41" class="edge"><title>Node37&#45;&gt;Node33</title>
<path fill="none" stroke="midnightblue" d="M1615.74,-214.666C1658.73,-204.995 1721.3,-190.863 1785.37,-176.137"/>
<polygon fill="midnightblue" stroke="midnightblue" points="1786.28,-179.519 1795.24,-173.866 1784.71,-172.697 1786.28,-179.519"/>
</g>
<!-- Node37&#45;&gt;Node34 -->
<g id="edge40" class="edge"><title>Node37&#45;&gt;Node34</title>
<path fill="none" stroke="midnightblue" d="M1615.69,-220.222C1681.74,-212.039 1798.57,-196.53 1908.38,-176.017"/>
<polygon fill="midnightblue" stroke="midnightblue" points="1909.12,-179.438 1918.3,-174.146 1907.82,-172.56 1909.12,-179.438"/>
</g>
<!-- Node37&#45;&gt;Node35 -->
<g id="edge42" class="edge"><title>Node37&#45;&gt;Node35</title>
<path fill="none" stroke="midnightblue" d="M1563,-212.396C1563,-204.645 1563,-194.812 1563,-185.86"/>
<polygon fill="midnightblue" stroke="midnightblue" points="1566.5,-185.576 1563,-175.577 1559.5,-185.577 1566.5,-185.576"/>
</g>
<!-- Node37&#45;&gt;Node36 -->
<g id="edge43" class="edge"><title>Node37&#45;&gt;Node36</title>
<path fill="none" stroke="midnightblue" d="M1598.15,-212.396C1622.25,-202.728 1654.41,-189.823 1680.32,-179.426"/>
<polygon fill="midnightblue" stroke="midnightblue" points="1681.94,-182.549 1689.92,-175.577 1679.33,-176.052 1681.94,-182.549"/>
</g>
<!-- Node37&#45;&gt;Node38 -->
<g id="edge44" class="edge"><title>Node37&#45;&gt;Node38</title>
<path fill="none" stroke="midnightblue" d="M1535.01,-212.396C1516.25,-202.941 1491.33,-190.39 1470.95,-180.117"/>
<polygon fill="midnightblue" stroke="midnightblue" points="1472.44,-176.951 1461.94,-175.577 1469.29,-183.202 1472.44,-176.951"/>
</g>
<!-- Node37&#45;&gt;Node40 -->
<g id="edge48" class="edge"><title>Node37&#45;&gt;Node40</title>
<path fill="none" stroke="midnightblue" d="M1510.04,-223.366C1381.59,-215.599 1055.19,-194.828 926.79,-176.095"/>
<polygon fill="midnightblue" stroke="midnightblue" points="927.214,-172.62 916.802,-174.578 926.163,-179.54 927.214,-172.62"/>
</g>
<!-- Node38&#45;&gt;Node39 -->
<g id="edge45" class="edge"><title>Node38&#45;&gt;Node39</title>
<path fill="none" stroke="midnightblue" d="M1434,-145.396C1434,-137.645 1434,-127.812 1434,-118.86"/>
<polygon fill="midnightblue" stroke="midnightblue" points="1437.5,-118.576 1434,-108.577 1430.5,-118.577 1437.5,-118.576"/>
</g>
<!-- Node39&#45;&gt;Node16 -->
<g id="edge47" class="edge"><title>Node39&#45;&gt;Node16</title>
<path fill="none" stroke="midnightblue" d="M1434,-78.2333C1434,-67.5006 1434,-52.6875 1434,-40.959"/>
<polygon fill="midnightblue" stroke="midnightblue" points="1437.5,-40.8931 1434,-30.8932 1430.5,-40.8932 1437.5,-40.8931"/>
</g>
<!-- Node39&#45;&gt;Node17 -->
<g id="edge46" class="edge"><title>Node39&#45;&gt;Node17</title>
<path fill="none" stroke="midnightblue" d="M1461.99,-78.4027C1487.07,-65.774 1523.57,-47.3972 1548.01,-35.0873"/>
<polygon fill="midnightblue" stroke="midnightblue" points="1549.7,-38.1573 1557.05,-30.5336 1546.55,-31.9052 1549.7,-38.1573"/>
</g>
<!-- Node40&#45;&gt;Node19 -->
<g id="edge49" class="edge"><title>Node40&#45;&gt;Node19</title>
<path fill="none" stroke="midnightblue" d="M811.19,-147.606C779.791,-139.312 739.818,-126.564 707,-109 687.478,-98.5519 688.653,-85.9818 668,-78 441.571,9.50661 354.991,-113.469 123,-42 118.384,-40.5779 113.731,-38.4213 109.411,-36.0428"/>
<polygon fill="midnightblue" stroke="midnightblue" points="110.99,-32.9061 100.631,-30.6808 107.341,-38.8801 110.99,-32.9061"/>
</g>
<!-- Node41&#45;&gt;Node16 -->
<g id="edge65" class="edge"><title>Node41&#45;&gt;Node16</title>
<path fill="none" stroke="midnightblue" d="M1154.38,-212.43C1110.44,-198.788 1060.89,-175.667 1086,-145 1137.41,-82.2168 1188.3,-135.492 1265,-109 1320.4,-89.864 1380.29,-55.399 1411.76,-36.0895"/>
<polygon fill="midnightblue" stroke="midnightblue" points="1413.92,-38.8639 1420.58,-30.6172 1410.23,-32.9159 1413.92,-38.8639"/>
</g>
<!-- Node41&#45;&gt;Node42 -->
<g id="edge54" class="edge"><title>Node41&#45;&gt;Node42</title>
<path fill="none" stroke="midnightblue" d="M1162.67,-212.476C1128.34,-202.515 1082.07,-189.086 1045.63,-178.512"/>
<polygon fill="midnightblue" stroke="midnightblue" points="1046.21,-175.036 1035.63,-175.611 1044.26,-181.759 1046.21,-175.036"/>
</g>
<!-- Node43 -->
<g id="node43" class="node"><title>Node43</title>
<polygon fill="none" stroke="#bfbfbf" points="1196,-84 1196,-103 1256,-103 1256,-84 1196,-84"/>
<text text-anchor="middle" x="1226" y="-91" font-family="Helvetica,sans-Serif" font-size="10.00">sys/stat.h</text>
</g>
<!-- Node41&#45;&gt;Node43 -->
<g id="edge63" class="edge"><title>Node41&#45;&gt;Node43</title>
<path fill="none" stroke="midnightblue" d="M1245.69,-212.342C1260.96,-204.154 1277.37,-192.213 1286,-176 1292.47,-163.838 1291.81,-157.491 1286,-145 1278.81,-129.555 1264.32,-117.144 1251.37,-108.49"/>
<polygon fill="midnightblue" stroke="midnightblue" points="1253.11,-105.445 1242.77,-103.109 1249.39,-111.38 1253.11,-105.445"/>
</g>
<!-- Node44 -->
<g id="node44" class="node"><title>Node44</title>
<polygon fill="none" stroke="#bfbfbf" points="1134,-84 1134,-103 1178,-103 1178,-84 1134,-84"/>
<text text-anchor="middle" x="1156" y="-91" font-family="Helvetica,sans-Serif" font-size="10.00">fcntl.h</text>
</g>
<!-- Node41&#45;&gt;Node44 -->
<g id="edge64" class="edge"><title>Node41&#45;&gt;Node44</title>
<path fill="none" stroke="midnightblue" d="M1227.39,-212.334C1244.45,-195.817 1266.87,-167.862 1253,-145 1250.96,-141.642 1211.02,-121.523 1183.04,-107.715"/>
<polygon fill="midnightblue" stroke="midnightblue" points="1184.24,-104.405 1173.72,-103.133 1181.15,-110.686 1184.24,-104.405"/>
</g>
<!-- Node45 -->
<g id="node45" class="node"><title>Node45</title>
<g id="a_node45"><a xlink:href="CommunicationInterfaceROS_8h.html" target="_top" xlink:title="XCM/CommunicationInterface\lROS.h">
<polygon fill="none" stroke="red" points="1095.5,-145.5 1095.5,-175.5 1244.5,-175.5 1244.5,-145.5 1095.5,-145.5"/>
<text text-anchor="start" x="1103.5" y="-163.5" font-family="Helvetica,sans-Serif" font-size="10.00">XCM/CommunicationInterface</text>
<text text-anchor="middle" x="1170" y="-152.5" font-family="Helvetica,sans-Serif" font-size="10.00">ROS.h</text>
</a>
</g>
</g>
<!-- Node41&#45;&gt;Node45 -->
<g id="edge62" class="edge"><title>Node41&#45;&gt;Node45</title>
<path fill="none" stroke="midnightblue" d="M1202.1,-212.396C1196.89,-204.134 1190.19,-193.507 1184.26,-184.102"/>
<polygon fill="midnightblue" stroke="midnightblue" points="1187.17,-182.167 1178.88,-175.577 1181.25,-185.902 1187.17,-182.167"/>
</g>
<!-- Node42&#45;&gt;Node11 -->
<g id="edge60" class="edge"><title>Node42&#45;&gt;Node11</title>
<path fill="none" stroke="midnightblue" d="M974.198,-145.396C964.907,-135.161 952.322,-121.296 942.634,-110.622"/>
<polygon fill="midnightblue" stroke="midnightblue" points="945.205,-108.247 935.892,-103.195 940.021,-112.951 945.205,-108.247"/>
</g>
<!-- Node42&#45;&gt;Node13 -->
<g id="edge57" class="edge"><title>Node42&#45;&gt;Node13</title>
<path fill="none" stroke="midnightblue" d="M991.123,-145.396C993.909,-135.863 997.616,-123.182 1000.63,-112.862"/>
<polygon fill="midnightblue" stroke="midnightblue" points="1004.01,-113.775 1003.46,-103.195 997.293,-111.811 1004.01,-113.775"/>
</g>
<!-- Node42&#45;&gt;Node16 -->
<g id="edge56" class="edge"><title>Node42&#45;&gt;Node16</title>
<path fill="none" stroke="midnightblue" d="M1004.03,-145.464C1031.14,-123.247 1082.07,-82.0655 1092,-78 1218.73,-26.1175 1267.68,-84.0483 1398,-42 1402.93,-40.4097 1407.95,-38.1181 1412.62,-35.6493"/>
<polygon fill="midnightblue" stroke="midnightblue" points="1414.64,-38.5245 1421.56,-30.5011 1411.15,-32.4583 1414.64,-38.5245"/>
</g>
<!-- Node42&#45;&gt;Node17 -->
<g id="edge55" class="edge"><title>Node42&#45;&gt;Node17</title>
<path fill="none" stroke="midnightblue" d="M1019.05,-145.486C1039.16,-136.169 1065.31,-123.089 1087,-109 1105.28,-97.1289 1104.88,-86.3698 1125,-78 1267.35,-18.7991 1317.5,-64.5778 1470,-42 1492.61,-38.6522 1517.79,-33.8389 1537.71,-29.7732"/>
<polygon fill="midnightblue" stroke="midnightblue" points="1538.52,-33.1796 1547.6,-27.727 1537.1,-26.3246 1538.52,-33.1796"/>
</g>
<!-- Node42&#45;&gt;Node18 -->
<g id="edge61" class="edge"><title>Node42&#45;&gt;Node18</title>
<path fill="none" stroke="midnightblue" d="M938.455,-145.476C897.423,-133.622 839.394,-116.858 801.247,-105.838"/>
<polygon fill="midnightblue" stroke="midnightblue" points="802.101,-102.442 791.522,-103.029 800.158,-109.167 802.101,-102.442"/>
</g>
<!-- Node42&#45;&gt;Node43 -->
<g id="edge58" class="edge"><title>Node42&#45;&gt;Node43</title>
<path fill="none" stroke="midnightblue" d="M1039.65,-147.855C1080.24,-138.482 1137.59,-124.374 1187,-109 1189.56,-108.203 1192.2,-107.331 1194.84,-106.424"/>
<polygon fill="midnightblue" stroke="midnightblue" points="1196.04,-109.713 1204.28,-103.051 1193.68,-103.122 1196.04,-109.713"/>
</g>
<!-- Node42&#45;&gt;Node44 -->
<g id="edge59" class="edge"><title>Node42&#45;&gt;Node44</title>
<path fill="none" stroke="midnightblue" d="M1024.63,-145.442C1051.3,-135.42 1087.91,-121.552 1120,-109 1121.84,-108.282 1123.72,-107.539 1125.62,-106.785"/>
<polygon fill="midnightblue" stroke="midnightblue" points="1127.1,-109.964 1135.09,-103.005 1124.5,-103.464 1127.1,-109.964"/>
</g>
<!-- Node46&#45;&gt;Node37 -->
<g id="edge69" class="edge"><title>Node46&#45;&gt;Node37</title>
<path fill="none" stroke="midnightblue" d="M1332.05,-284.936C1374.86,-274.475 1448.04,-256.591 1500.57,-243.756"/>
<polygon fill="midnightblue" stroke="midnightblue" points="1501.57,-247.115 1510.45,-241.341 1499.91,-240.315 1501.57,-247.115"/>
</g>
<!-- Node46&#45;&gt;Node41 -->
<g id="edge70" class="edge"><title>Node46&#45;&gt;Node41</title>
<path fill="none" stroke="midnightblue" d="M1285.4,-284.734C1273.22,-275.527 1253.65,-260.733 1237.63,-248.629"/>
<polygon fill="midnightblue" stroke="midnightblue" points="1239.73,-245.827 1229.64,-242.589 1235.51,-251.411 1239.73,-245.827"/>
</g>
<!-- Node47&#45;&gt;Node17 -->
<g id="edge72" class="edge"><title>Node47&#45;&gt;Node17</title>
<path fill="none" stroke="midnightblue" d="M2034.23,-217.825C2039.64,-201.668 2048.41,-166.649 2032,-145 1980.17,-76.637 1709.19,-38.0641 1610.23,-26.0846"/>
<polygon fill="midnightblue" stroke="midnightblue" points="1610.46,-22.5873 1600.12,-24.8809 1609.63,-29.5383 1610.46,-22.5873"/>
</g>
<!-- Node48&#45;&gt;Node40 -->
<g id="edge74" class="edge"><title>Node48&#45;&gt;Node40</title>
<path fill="none" stroke="midnightblue" d="M864.865,-217.734C864.739,-209.541 864.545,-196.923 864.373,-185.714"/>
<polygon fill="midnightblue" stroke="midnightblue" points="867.87,-185.534 864.217,-175.589 860.871,-185.642 867.87,-185.534"/>
</g>
</g>
</svg>
