<?xml version="1.0" encoding="UTF-8" standalone="no"?>
<!DOCTYPE svg PUBLIC "-//W3C//DTD SVG 1.1//EN"
 "http://www.w3.org/Graphics/SVG/1.1/DTD/svg11.dtd">
<!-- Generated by graphviz version 2.38.0 (20140413.2041)
 -->
<!-- Title: /home/lucamuratore/advr&#45;superbuild/external/XCM/include/XCM/TimeProvider.h Pages: 1 -->
<svg width="702pt" height="284pt"
 viewBox="0.00 0.00 702.00 284.00" xmlns="http://www.w3.org/2000/svg" xmlns:xlink="http://www.w3.org/1999/xlink">
<g id="graph0" class="graph" transform="scale(1 1) rotate(0) translate(4 280)">
<title>/home/lucamuratore/advr&#45;superbuild/external/XCM/include/XCM/TimeProvider.h</title>
<!-- Node1 -->
<g id="node1" class="node"><title>Node1</title>
<polygon fill="#bfbfbf" stroke="black" points="196.5,-234.5 196.5,-275.5 366.5,-275.5 366.5,-234.5 196.5,-234.5"/>
<text text-anchor="start" x="204.5" y="-263.5" font-family="Helvetica,sans-Serif" font-size="10.00">/home/lucamuratore</text>
<text text-anchor="start" x="204.5" y="-252.5" font-family="Helvetica,sans-Serif" font-size="10.00">/advr&#45;superbuild/external</text>
<text text-anchor="middle" x="281.5" y="-241.5" font-family="Helvetica,sans-Serif" font-size="10.00">/XCM/include/XCM/TimeProvider.h</text>
</g>
<!-- Node2 -->
<g id="node2" class="node"><title>Node2</title>
<g id="a_node2"><a xlink:href="XBotModuleHandler_8h.html" target="_top" xlink:title="/home/lucamuratore\l/advr&#45;superbuild/external\l/XCM/include/XCM/XBotModuleHandler.h">
<polygon fill="none" stroke="black" points="55.5,-156.5 55.5,-197.5 255.5,-197.5 255.5,-156.5 55.5,-156.5"/>
<text text-anchor="start" x="63.5" y="-185.5" font-family="Helvetica,sans-Serif" font-size="10.00">/home/lucamuratore</text>
<text text-anchor="start" x="63.5" y="-174.5" font-family="Helvetica,sans-Serif" font-size="10.00">/advr&#45;superbuild/external</text>
<text text-anchor="middle" x="155.5" y="-163.5" font-family="Helvetica,sans-Serif" font-size="10.00">/XCM/include/XCM/XBotModuleHandler.h</text>
</a>
</g>
</g>
<!-- Node1&#45;&gt;Node2 -->
<g id="edge1" class="edge"><title>Node1&#45;&gt;Node2</title>
<path fill="none" stroke="midnightblue" d="M240.389,-229.203C223.337,-218.918 203.842,-207.159 187.838,-197.506"/>
<polygon fill="midnightblue" stroke="midnightblue" points="238.681,-232.26 249.052,-234.428 242.297,-226.266 238.681,-232.26"/>
</g>
<!-- Node4 -->
<g id="node4" class="node"><title>Node4</title>
<g id="a_node4"><a xlink:href="XBotPluginHandler_8h.html" target="_top" xlink:title="/home/lucamuratore\l/advr&#45;superbuild/external\l/XCM/include/XCM/XBotPluginHandler.h">
<polygon fill="none" stroke="black" points="310,-156.5 310,-197.5 505,-197.5 505,-156.5 310,-156.5"/>
<text text-anchor="start" x="318" y="-185.5" font-family="Helvetica,sans-Serif" font-size="10.00">/home/lucamuratore</text>
<text text-anchor="start" x="318" y="-174.5" font-family="Helvetica,sans-Serif" font-size="10.00">/advr&#45;superbuild/external</text>
<text text-anchor="middle" x="407.5" y="-163.5" font-family="Helvetica,sans-Serif" font-size="10.00">/XCM/include/XCM/XBotPluginHandler.h</text>
</a>
</g>
</g>
<!-- Node1&#45;&gt;Node4 -->
<g id="edge3" class="edge"><title>Node1&#45;&gt;Node4</title>
<path fill="none" stroke="midnightblue" d="M322.611,-229.203C339.663,-218.918 359.158,-207.159 375.162,-197.506"/>
<polygon fill="midnightblue" stroke="midnightblue" points="320.703,-226.266 313.948,-234.428 324.319,-232.26 320.703,-226.266"/>
</g>
<!-- Node3 -->
<g id="node3" class="node"><title>Node3</title>
<g id="a_node3"><a xlink:href="XBotModuleHandler_8cpp.html" target="_top" xlink:title="/home/lucamuratore\l/advr&#45;superbuild/external\l/XCM/src/XBotModuleHandler.cpp">
<polygon fill="none" stroke="black" points="0,-78.5 0,-119.5 167,-119.5 167,-78.5 0,-78.5"/>
<text text-anchor="start" x="8" y="-107.5" font-family="Helvetica,sans-Serif" font-size="10.00">/home/lucamuratore</text>
<text text-anchor="start" x="8" y="-96.5" font-family="Helvetica,sans-Serif" font-size="10.00">/advr&#45;superbuild/external</text>
<text text-anchor="middle" x="83.5" y="-85.5" font-family="Helvetica,sans-Serif" font-size="10.00">/XCM/src/XBotModuleHandler.cpp</text>
</a>
</g>
</g>
<!-- Node2&#45;&gt;Node3 -->
<g id="edge2" class="edge"><title>Node2&#45;&gt;Node3</title>
<path fill="none" stroke="midnightblue" d="M129.841,-148.916C120.64,-139.203 110.453,-128.45 101.979,-119.506"/>
<polygon fill="midnightblue" stroke="midnightblue" points="127.54,-151.576 136.958,-156.428 132.622,-146.761 127.54,-151.576"/>
</g>
<!-- Node5 -->
<g id="node5" class="node"><title>Node5</title>
<g id="a_node5"><a xlink:href="NRTDeployer_8h.html" target="_top" xlink:title="/home/lucamuratore\l/advr&#45;superbuild/external\l/XCM/include/XCM/NRTDeployer.h">
<polygon fill="none" stroke="black" points="185,-78.5 185,-119.5 358,-119.5 358,-78.5 185,-78.5"/>
<text text-anchor="start" x="193" y="-107.5" font-family="Helvetica,sans-Serif" font-size="10.00">/home/lucamuratore</text>
<text text-anchor="start" x="193" y="-96.5" font-family="Helvetica,sans-Serif" font-size="10.00">/advr&#45;superbuild/external</text>
<text text-anchor="middle" x="271.5" y="-85.5" font-family="Helvetica,sans-Serif" font-size="10.00">/XCM/include/XCM/NRTDeployer.h</text>
</a>
</g>
</g>
<!-- Node4&#45;&gt;Node5 -->
<g id="edge4" class="edge"><title>Node4&#45;&gt;Node5</title>
<path fill="none" stroke="midnightblue" d="M363.632,-151.486C345.107,-141.134 323.837,-129.247 306.405,-119.506"/>
<polygon fill="midnightblue" stroke="midnightblue" points="362.04,-154.605 372.477,-156.428 365.455,-148.495 362.04,-154.605"/>
</g>
<!-- Node8 -->
<g id="node8" class="node"><title>Node8</title>
<g id="a_node8"><a xlink:href="DummyMain_8cpp.html" target="_top" xlink:title="/home/lucamuratore\l/advr&#45;superbuild/external\l/XCM/src/DummyMain.cpp">
<polygon fill="none" stroke="black" points="376.5,-78.5 376.5,-119.5 512.5,-119.5 512.5,-78.5 376.5,-78.5"/>
<text text-anchor="start" x="384.5" y="-107.5" font-family="Helvetica,sans-Serif" font-size="10.00">/home/lucamuratore</text>
<text text-anchor="start" x="384.5" y="-96.5" font-family="Helvetica,sans-Serif" font-size="10.00">/advr&#45;superbuild/external</text>
<text text-anchor="middle" x="444.5" y="-85.5" font-family="Helvetica,sans-Serif" font-size="10.00">/XCM/src/DummyMain.cpp</text>
</a>
</g>
</g>
<!-- Node4&#45;&gt;Node8 -->
<g id="edge7" class="edge"><title>Node4&#45;&gt;Node8</title>
<path fill="none" stroke="midnightblue" d="M421.534,-147.174C426.033,-137.932 430.908,-127.919 435.004,-119.506"/>
<polygon fill="midnightblue" stroke="midnightblue" points="418.259,-145.905 417.028,-156.428 424.553,-148.969 418.259,-145.905"/>
</g>
<!-- Node9 -->
<g id="node9" class="node"><title>Node9</title>
<g id="a_node9"><a xlink:href="XBotPluginHandler_8cpp.html" target="_top" xlink:title="/home/lucamuratore\l/advr&#45;superbuild/external\l/XCM/src/XBotPluginHandler.cpp">
<polygon fill="none" stroke="black" points="531,-78.5 531,-119.5 694,-119.5 694,-78.5 531,-78.5"/>
<text text-anchor="start" x="539" y="-107.5" font-family="Helvetica,sans-Serif" font-size="10.00">/home/lucamuratore</text>
<text text-anchor="start" x="539" y="-96.5" font-family="Helvetica,sans-Serif" font-size="10.00">/advr&#45;superbuild/external</text>
<text text-anchor="middle" x="612.5" y="-85.5" font-family="Helvetica,sans-Serif" font-size="10.00">/XCM/src/XBotPluginHandler.cpp</text>
</a>
</g>
</g>
<!-- Node4&#45;&gt;Node9 -->
<g id="edge8" class="edge"><title>Node4&#45;&gt;Node9</title>
<path fill="none" stroke="midnightblue" d="M469.843,-152.887C498.621,-142.219 532.415,-129.69 559.886,-119.506"/>
<polygon fill="midnightblue" stroke="midnightblue" points="468.452,-149.67 460.293,-156.428 470.886,-156.234 468.452,-149.67"/>
</g>
<!-- Node6 -->
<g id="node6" class="node"><title>Node6</title>
<g id="a_node6"><a xlink:href="NRTDeployer_8cpp.html" target="_top" xlink:title="/home/lucamuratore\l/advr&#45;superbuild/external\l/XCM/src/NRTDeployer.cpp">
<polygon fill="none" stroke="black" points="116.5,-0.5 116.5,-41.5 256.5,-41.5 256.5,-0.5 116.5,-0.5"/>
<text text-anchor="start" x="124.5" y="-29.5" font-family="Helvetica,sans-Serif" font-size="10.00">/home/lucamuratore</text>
<text text-anchor="start" x="124.5" y="-18.5" font-family="Helvetica,sans-Serif" font-size="10.00">/advr&#45;superbuild/external</text>
<text text-anchor="middle" x="186.5" y="-7.5" font-family="Helvetica,sans-Serif" font-size="10.00">/XCM/src/NRTDeployer.cpp</text>
</a>
</g>
</g>
<!-- Node5&#45;&gt;Node6 -->
<g id="edge5" class="edge"><title>Node5&#45;&gt;Node6</title>
<path fill="none" stroke="midnightblue" d="M241.852,-71.4916C230.822,-61.6294 218.517,-50.6273 208.315,-41.5056"/>
<polygon fill="midnightblue" stroke="midnightblue" points="239.823,-74.3719 249.61,-78.4281 244.489,-69.1535 239.823,-74.3719"/>
</g>
<!-- Node7 -->
<g id="node7" class="node"><title>Node7</title>
<g id="a_node7"><a xlink:href="NRTDeployerMain_8cpp.html" target="_top" xlink:title="/home/lucamuratore\l/advr&#45;superbuild/external\l/XCM/src/NRTDeployerMain.cpp">
<polygon fill="none" stroke="black" points="275,-0.5 275,-41.5 436,-41.5 436,-0.5 275,-0.5"/>
<text text-anchor="start" x="283" y="-29.5" font-family="Helvetica,sans-Serif" font-size="10.00">/home/lucamuratore</text>
<text text-anchor="start" x="283" y="-18.5" font-family="Helvetica,sans-Serif" font-size="10.00">/advr&#45;superbuild/external</text>
<text text-anchor="middle" x="355.5" y="-7.5" font-family="Helvetica,sans-Serif" font-size="10.00">/XCM/src/NRTDeployerMain.cpp</text>
</a>
</g>
</g>
<!-- Node5&#45;&gt;Node7 -->
<g id="edge6" class="edge"><title>Node5&#45;&gt;Node7</title>
<path fill="none" stroke="midnightblue" d="M300.799,-71.4916C311.699,-61.6294 323.859,-50.6273 333.941,-41.5056"/>
<polygon fill="midnightblue" stroke="midnightblue" points="298.199,-69.1236 293.132,-78.4281 302.896,-74.3143 298.199,-69.1236"/>
</g>
</g>
</svg>
