<?xml version="1.0" encoding="UTF-8" standalone="no"?>
<!DOCTYPE svg PUBLIC "-//W3C//DTD SVG 1.1//EN"
 "http://www.w3.org/Graphics/SVG/1.1/DTD/svg11.dtd">
<!-- Generated by graphviz version 2.38.0 (20140413.2041)
 -->
<!-- Title: /home/lucamuratore/advr&#45;superbuild/external/XCM/include/XCM/XBotUtils.h Pages: 1 -->
<svg width="1397pt" height="128pt"
 viewBox="0.00 0.00 1396.50 128.00" xmlns="http://www.w3.org/2000/svg" xmlns:xlink="http://www.w3.org/1999/xlink">
<g id="graph0" class="graph" transform="scale(1 1) rotate(0) translate(4 124)">
<title>/home/lucamuratore/advr&#45;superbuild/external/XCM/include/XCM/XBotUtils.h</title>
<!-- Node1 -->
<g id="node1" class="node"><title>Node1</title>
<polygon fill="#bfbfbf" stroke="black" points="507,-78.5 507,-119.5 662,-119.5 662,-78.5 507,-78.5"/>
<text text-anchor="start" x="515" y="-107.5" font-family="Helvetica,sans-Serif" font-size="10.00">/home/lucamuratore</text>
<text text-anchor="start" x="515" y="-96.5" font-family="Helvetica,sans-Serif" font-size="10.00">/advr&#45;superbuild/external</text>
<text text-anchor="middle" x="584.5" y="-85.5" font-family="Helvetica,sans-Serif" font-size="10.00">/XCM/include/XCM/XBotUtils.h</text>
</g>
<!-- Node2 -->
<g id="node2" class="node"><title>Node2</title>
<polygon fill="none" stroke="#bfbfbf" points="0,-11.5 0,-30.5 49,-30.5 49,-11.5 0,-11.5"/>
<text text-anchor="middle" x="24.5" y="-18.5" font-family="Helvetica,sans-Serif" font-size="10.00">stdint.h</text>
</g>
<!-- Node1&#45;&gt;Node2 -->
<g id="edge1" class="edge"><title>Node1&#45;&gt;Node2</title>
<path fill="none" stroke="midnightblue" d="M506.974,-93.7802C381.496,-86.2757 139.765,-68.8305 58.5,-42 53.9133,-40.4857 49.2732,-38.2876 44.9572,-35.8975"/>
<polygon fill="midnightblue" stroke="midnightblue" points="46.5349,-32.7604 36.1733,-30.5496 42.8946,-38.7395 46.5349,-32.7604"/>
</g>
<!-- Node3 -->
<g id="node3" class="node"><title>Node3</title>
<polygon fill="none" stroke="#bfbfbf" points="67.5,-11.5 67.5,-30.5 113.5,-30.5 113.5,-11.5 67.5,-11.5"/>
<text text-anchor="middle" x="90.5" y="-18.5" font-family="Helvetica,sans-Serif" font-size="10.00">stdio.h</text>
</g>
<!-- Node1&#45;&gt;Node3 -->
<g id="edge2" class="edge"><title>Node1&#45;&gt;Node3</title>
<path fill="none" stroke="midnightblue" d="M506.961,-98.7775C413.245,-97.4364 252.007,-87.7549 122.5,-42 118.261,-40.5023 113.995,-38.3704 110.021,-36.0519"/>
<polygon fill="midnightblue" stroke="midnightblue" points="111.731,-32.99 101.43,-30.5141 107.939,-38.8737 111.731,-32.99"/>
</g>
<!-- Node4 -->
<g id="node4" class="node"><title>Node4</title>
<polygon fill="none" stroke="#bfbfbf" points="131.5,-11.5 131.5,-30.5 181.5,-30.5 181.5,-11.5 131.5,-11.5"/>
<text text-anchor="middle" x="156.5" y="-18.5" font-family="Helvetica,sans-Serif" font-size="10.00">fstream</text>
</g>
<!-- Node1&#45;&gt;Node4 -->
<g id="edge3" class="edge"><title>Node1&#45;&gt;Node4</title>
<path fill="none" stroke="midnightblue" d="M506.88,-95.8401C425.865,-91.5617 296.151,-78.9517 190.5,-42 186.015,-40.4315 181.464,-38.2443 177.213,-35.889"/>
<polygon fill="midnightblue" stroke="midnightblue" points="178.893,-32.815 168.524,-30.6392 175.273,-38.8063 178.893,-32.815"/>
</g>
<!-- Node5 -->
<g id="node5" class="node"><title>Node5</title>
<polygon fill="none" stroke="#bfbfbf" points="199.5,-11.5 199.5,-30.5 251.5,-30.5 251.5,-11.5 199.5,-11.5"/>
<text text-anchor="middle" x="225.5" y="-18.5" font-family="Helvetica,sans-Serif" font-size="10.00">sstream</text>
</g>
<!-- Node1&#45;&gt;Node5 -->
<g id="edge4" class="edge"><title>Node1&#45;&gt;Node5</title>
<path fill="none" stroke="midnightblue" d="M506.963,-92.2176C440.088,-85.4535 341.748,-71.2117 260.5,-42 255.931,-40.3573 251.268,-38.1362 246.898,-35.7707"/>
<polygon fill="midnightblue" stroke="midnightblue" points="248.345,-32.5626 237.947,-30.5305 244.809,-38.6034 248.345,-32.5626"/>
</g>
<!-- Node6 -->
<g id="node6" class="node"><title>Node6</title>
<polygon fill="none" stroke="#bfbfbf" points="269.5,-11.5 269.5,-30.5 393.5,-30.5 393.5,-11.5 269.5,-11.5"/>
<text text-anchor="middle" x="331.5" y="-18.5" font-family="Helvetica,sans-Serif" font-size="10.00">boost/circular_buffer.hpp</text>
</g>
<!-- Node1&#45;&gt;Node6 -->
<g id="edge5" class="edge"><title>Node1&#45;&gt;Node6</title>
<path fill="none" stroke="midnightblue" d="M519.346,-78.4281C471.937,-64.1865 409.359,-45.3884 369.762,-33.4938"/>
<polygon fill="midnightblue" stroke="midnightblue" points="370.553,-30.077 359.969,-30.552 368.54,-36.7811 370.553,-30.077"/>
</g>
<!-- Node7 -->
<g id="node7" class="node"><title>Node7</title>
<polygon fill="none" stroke="#bfbfbf" points="411.5,-6 411.5,-36 513.5,-36 513.5,-6 411.5,-6"/>
<text text-anchor="start" x="419.5" y="-24" font-family="Helvetica,sans-Serif" font-size="10.00">boost/accumulators</text>
<text text-anchor="middle" x="462.5" y="-13" font-family="Helvetica,sans-Serif" font-size="10.00">/accumulators.hpp</text>
</g>
<!-- Node1&#45;&gt;Node7 -->
<g id="edge6" class="edge"><title>Node1&#45;&gt;Node7</title>
<path fill="none" stroke="midnightblue" d="M553.082,-78.4281C534.88,-67.0893 512.042,-52.8621 493.851,-41.5303"/>
<polygon fill="midnightblue" stroke="midnightblue" points="495.674,-38.5421 485.335,-36.2254 491.973,-44.4836 495.674,-38.5421"/>
</g>
<!-- Node8 -->
<g id="node8" class="node"><title>Node8</title>
<polygon fill="none" stroke="#bfbfbf" points="532,-6 532,-36 637,-36 637,-6 532,-6"/>
<text text-anchor="start" x="540" y="-24" font-family="Helvetica,sans-Serif" font-size="10.00">boost/accumulators</text>
<text text-anchor="middle" x="584.5" y="-13" font-family="Helvetica,sans-Serif" font-size="10.00">/statistics/count.hpp</text>
</g>
<!-- Node1&#45;&gt;Node8 -->
<g id="edge7" class="edge"><title>Node1&#45;&gt;Node8</title>
<path fill="none" stroke="midnightblue" d="M584.5,-78.4281C584.5,-68.6355 584.5,-56.6885 584.5,-46.3129"/>
<polygon fill="midnightblue" stroke="midnightblue" points="588,-46.2253 584.5,-36.2254 581,-46.2254 588,-46.2253"/>
</g>
<!-- Node9 -->
<g id="node9" class="node"><title>Node9</title>
<polygon fill="none" stroke="#bfbfbf" points="655,-6 655,-36 760,-36 760,-6 655,-6"/>
<text text-anchor="start" x="663" y="-24" font-family="Helvetica,sans-Serif" font-size="10.00">boost/accumulators</text>
<text text-anchor="middle" x="707.5" y="-13" font-family="Helvetica,sans-Serif" font-size="10.00">/statistics/mean.hpp</text>
</g>
<!-- Node1&#45;&gt;Node9 -->
<g id="edge8" class="edge"><title>Node1&#45;&gt;Node9</title>
<path fill="none" stroke="midnightblue" d="M616.176,-78.4281C634.527,-67.0893 657.552,-52.8621 675.892,-41.5303"/>
<polygon fill="midnightblue" stroke="midnightblue" points="677.81,-44.4593 684.477,-36.2254 674.131,-38.5043 677.81,-44.4593"/>
</g>
<!-- Node10 -->
<g id="node10" class="node"><title>Node10</title>
<polygon fill="none" stroke="#bfbfbf" points="778.5,-6 778.5,-36 880.5,-36 880.5,-6 778.5,-6"/>
<text text-anchor="start" x="786.5" y="-24" font-family="Helvetica,sans-Serif" font-size="10.00">boost/accumulators</text>
<text text-anchor="middle" x="829.5" y="-13" font-family="Helvetica,sans-Serif" font-size="10.00">/statistics/min.hpp</text>
</g>
<!-- Node1&#45;&gt;Node10 -->
<g id="edge9" class="edge"><title>Node1&#45;&gt;Node10</title>
<path fill="none" stroke="midnightblue" d="M650.566,-78.4873C685.921,-67.9228 730.165,-54.5066 769.5,-42 772.389,-41.0814 775.353,-40.1284 778.342,-39.1589"/>
<polygon fill="midnightblue" stroke="midnightblue" points="779.495,-42.4643 787.911,-36.0292 777.319,-35.8111 779.495,-42.4643"/>
</g>
<!-- Node11 -->
<g id="node11" class="node"><title>Node11</title>
<polygon fill="none" stroke="#bfbfbf" points="898.5,-6 898.5,-36 1000.5,-36 1000.5,-6 898.5,-6"/>
<text text-anchor="start" x="906.5" y="-24" font-family="Helvetica,sans-Serif" font-size="10.00">boost/accumulators</text>
<text text-anchor="middle" x="949.5" y="-13" font-family="Helvetica,sans-Serif" font-size="10.00">/statistics/max.hpp</text>
</g>
<!-- Node1&#45;&gt;Node11 -->
<g id="edge10" class="edge"><title>Node1&#45;&gt;Node11</title>
<path fill="none" stroke="midnightblue" d="M662.243,-86.808C724.27,-77.141 813.114,-61.6403 889.5,-42 893.059,-41.0849 896.713,-40.0672 900.377,-38.9894"/>
<polygon fill="midnightblue" stroke="midnightblue" points="901.503,-42.3049 910.036,-36.0252 899.45,-35.6128 901.503,-42.3049"/>
</g>
<!-- Node12 -->
<g id="node12" class="node"><title>Node12</title>
<polygon fill="none" stroke="#bfbfbf" points="1018.5,-6 1018.5,-36 1136.5,-36 1136.5,-6 1018.5,-6"/>
<text text-anchor="start" x="1026.5" y="-24" font-family="Helvetica,sans-Serif" font-size="10.00">boost/accumulators</text>
<text text-anchor="middle" x="1077.5" y="-13" font-family="Helvetica,sans-Serif" font-size="10.00">/statistics/variance.hpp</text>
</g>
<!-- Node1&#45;&gt;Node12 -->
<g id="edge11" class="edge"><title>Node1&#45;&gt;Node12</title>
<path fill="none" stroke="midnightblue" d="M662.277,-91.4023C747.966,-83.2886 889.545,-67.3833 1009.5,-42 1014.15,-41.0168 1018.94,-39.8755 1023.72,-38.6461"/>
<polygon fill="midnightblue" stroke="midnightblue" points="1024.74,-41.9961 1033.49,-36.0214 1022.93,-35.2358 1024.74,-41.9961"/>
</g>
<!-- Node13 -->
<g id="node13" class="node"><title>Node13</title>
<polygon fill="none" stroke="#bfbfbf" points="1154.5,-6 1154.5,-36 1268.5,-36 1268.5,-6 1154.5,-6"/>
<text text-anchor="start" x="1162.5" y="-24" font-family="Helvetica,sans-Serif" font-size="10.00">boost/accumulators</text>
<text text-anchor="middle" x="1211.5" y="-13" font-family="Helvetica,sans-Serif" font-size="10.00">/statistics/error_of.hpp</text>
</g>
<!-- Node1&#45;&gt;Node13 -->
<g id="edge12" class="edge"><title>Node1&#45;&gt;Node13</title>
<path fill="none" stroke="midnightblue" d="M662.337,-95.0183C771.309,-89.7623 975.119,-75.9819 1145.5,-42 1150.17,-41.0684 1154.98,-39.9434 1159.78,-38.7075"/>
<polygon fill="midnightblue" stroke="midnightblue" points="1160.83,-42.0489 1169.56,-36.0416 1158.99,-35.2955 1160.83,-42.0489"/>
</g>
<!-- Node14 -->
<g id="node14" class="node"><title>Node14</title>
<polygon fill="none" stroke="#bfbfbf" points="1286.5,-0.5 1286.5,-41.5 1388.5,-41.5 1388.5,-0.5 1286.5,-0.5"/>
<text text-anchor="start" x="1294.5" y="-29.5" font-family="Helvetica,sans-Serif" font-size="10.00">boost/accumulators</text>
<text text-anchor="start" x="1294.5" y="-18.5" font-family="Helvetica,sans-Serif" font-size="10.00">/statistics/error_of</text>
<text text-anchor="middle" x="1337.5" y="-7.5" font-family="Helvetica,sans-Serif" font-size="10.00">_mean.hpp</text>
</g>
<!-- Node1&#45;&gt;Node14 -->
<g id="edge13" class="edge"><title>Node1&#45;&gt;Node14</title>
<path fill="none" stroke="midnightblue" d="M662.004,-97.7957C789.12,-96.135 1049.6,-87.1641 1276.25,-41.9958"/>
<polygon fill="midnightblue" stroke="midnightblue" points="1277.23,-45.3692 1286.33,-39.9573 1275.84,-38.508 1277.23,-45.3692"/>
</g>
</g>
</svg>
