<?xml version="1.0" encoding="UTF-8" standalone="no"?>
<!DOCTYPE svg PUBLIC "-//W3C//DTD SVG 1.1//EN"
 "http://www.w3.org/Graphics/SVG/1.1/DTD/svg11.dtd">
<!-- Generated by graphviz version 2.38.0 (20140413.2041)
 -->
<!-- Title: /home/lucamuratore/advr&#45;superbuild/external/XCM/src/XBotCommunicationMain.cpp Pages: 1 -->
<svg width="1667pt" height="430pt"
 viewBox="0.00 0.00 1666.50 430.00" xmlns="http://www.w3.org/2000/svg" xmlns:xlink="http://www.w3.org/1999/xlink">
<g id="graph0" class="graph" transform="scale(1 1) rotate(0) translate(4 426)">
<title>/home/lucamuratore/advr&#45;superbuild/external/XCM/src/XBotCommunicationMain.cpp</title>
<!-- Node1 -->
<g id="node1" class="node"><title>Node1</title>
<polygon fill="#bfbfbf" stroke="black" points="69.5,-380.5 69.5,-421.5 260.5,-421.5 260.5,-380.5 69.5,-380.5"/>
<text text-anchor="start" x="77.5" y="-409.5" font-family="Helvetica,sans-Serif" font-size="10.00">/home/lucamuratore</text>
<text text-anchor="start" x="77.5" y="-398.5" font-family="Helvetica,sans-Serif" font-size="10.00">/advr&#45;superbuild/external</text>
<text text-anchor="middle" x="165" y="-387.5" font-family="Helvetica,sans-Serif" font-size="10.00">/XCM/src/XBotCommunicationMain.cpp</text>
</g>
<!-- Node2 -->
<g id="node2" class="node"><title>Node2</title>
<polygon fill="none" stroke="#bfbfbf" points="0,-11.5 0,-30.5 46,-30.5 46,-11.5 0,-11.5"/>
<text text-anchor="middle" x="23" y="-18.5" font-family="Helvetica,sans-Serif" font-size="10.00">stdio.h</text>
</g>
<!-- Node1&#45;&gt;Node2 -->
<g id="edge1" class="edge"><title>Node1&#45;&gt;Node2</title>
<path fill="none" stroke="midnightblue" d="M85.4457,-380.495C65.0499,-372.168 44.7376,-360.435 30,-344 9.90663,-321.592 11,-309.098 11,-279 11,-279 11,-279 11,-148.5 11,-110.03 16.5681,-65.2732 20.1185,-40.6447"/>
<polygon fill="midnightblue" stroke="midnightblue" points="23.6087,-40.97 21.6234,-30.5628 16.6854,-39.9365 23.6087,-40.97"/>
</g>
<!-- Node3 -->
<g id="node3" class="node"><title>Node3</title>
<polygon fill="none" stroke="#bfbfbf" points="39.5,-324.5 39.5,-343.5 86.5,-343.5 86.5,-324.5 39.5,-324.5"/>
<text text-anchor="middle" x="63" y="-331.5" font-family="Helvetica,sans-Serif" font-size="10.00">errno.h</text>
</g>
<!-- Node1&#45;&gt;Node3 -->
<g id="edge2" class="edge"><title>Node1&#45;&gt;Node3</title>
<path fill="none" stroke="midnightblue" d="M134.397,-380.498C118.608,-370.436 99.6962,-358.385 85.3044,-349.214"/>
<polygon fill="midnightblue" stroke="midnightblue" points="86.8919,-346.075 76.5778,-343.652 83.13,-351.978 86.8919,-346.075"/>
</g>
<!-- Node4 -->
<g id="node4" class="node"><title>Node4</title>
<polygon fill="none" stroke="#bfbfbf" points="105,-324.5 105,-343.5 157,-343.5 157,-324.5 105,-324.5"/>
<text text-anchor="middle" x="131" y="-331.5" font-family="Helvetica,sans-Serif" font-size="10.00">assert.h</text>
</g>
<!-- Node1&#45;&gt;Node4 -->
<g id="edge3" class="edge"><title>Node1&#45;&gt;Node4</title>
<path fill="none" stroke="midnightblue" d="M154.799,-380.498C150.188,-371.682 144.777,-361.339 140.281,-352.743"/>
<polygon fill="midnightblue" stroke="midnightblue" points="143.262,-350.891 135.526,-343.652 137.06,-354.136 143.262,-350.891"/>
</g>
<!-- Node5 -->
<g id="node5" class="node"><title>Node5</title>
<polygon fill="none" stroke="#bfbfbf" points="175,-324.5 175,-343.5 225,-343.5 225,-324.5 175,-324.5"/>
<text text-anchor="middle" x="200" y="-331.5" font-family="Helvetica,sans-Serif" font-size="10.00">signal.h</text>
</g>
<!-- Node1&#45;&gt;Node5 -->
<g id="edge4" class="edge"><title>Node1&#45;&gt;Node5</title>
<path fill="none" stroke="midnightblue" d="M175.501,-380.498C180.3,-371.586 185.939,-361.113 190.597,-352.464"/>
<polygon fill="midnightblue" stroke="midnightblue" points="193.682,-354.117 195.341,-343.652 187.518,-350.798 193.682,-354.117"/>
</g>
<!-- Node6 -->
<g id="node6" class="node"><title>Node6</title>
<polygon fill="none" stroke="#bfbfbf" points="39.5,-78.5 39.5,-97.5 98.5,-97.5 98.5,-78.5 39.5,-78.5"/>
<text text-anchor="middle" x="69" y="-85.5" font-family="Helvetica,sans-Serif" font-size="10.00">exception</text>
</g>
<!-- Node1&#45;&gt;Node6 -->
<g id="edge5" class="edge"><title>Node1&#45;&gt;Node6</title>
<path fill="none" stroke="midnightblue" d="M196.855,-380.436C210.031,-370.907 224.434,-358.39 234,-344 250.663,-318.935 253,-309.098 253,-279 253,-279 253,-279 253,-215.5 253,-178.353 149.879,-125.929 98.0348,-101.92"/>
<polygon fill="midnightblue" stroke="midnightblue" points="99.2407,-98.6225 88.6912,-97.6434 96.3276,-104.988 99.2407,-98.6225"/>
</g>
<!-- Node7 -->
<g id="node7" class="node"><title>Node7</title>
<g id="a_node7"><a xlink:href="XBotCommunicationHandler_8h.html" target="_top" xlink:title="XCM/XBotCommunicationHandler.h">
<polygon fill="none" stroke="black" points="877,-324.5 877,-343.5 1051,-343.5 1051,-324.5 877,-324.5"/>
<text text-anchor="middle" x="964" y="-331.5" font-family="Helvetica,sans-Serif" font-size="10.00">XCM/XBotCommunicationHandler.h</text>
</a>
</g>
</g>
<!-- Node1&#45;&gt;Node7 -->
<g id="edge6" class="edge"><title>Node1&#45;&gt;Node7</title>
<path fill="none" stroke="midnightblue" d="M260.584,-392.224C413.643,-379.773 712.15,-355.488 866.446,-342.936"/>
<polygon fill="midnightblue" stroke="midnightblue" points="867.166,-346.389 876.85,-342.09 866.599,-339.412 867.166,-346.389"/>
</g>
<!-- Node8 -->
<g id="node8" class="node"><title>Node8</title>
<g id="a_node8"><a xlink:href="XBotThread_8h.html" target="_top" xlink:title="XCM/XBotThread.h">
<polygon fill="none" stroke="black" points="410,-140 410,-159 512,-159 512,-140 410,-140"/>
<text text-anchor="middle" x="461" y="-147" font-family="Helvetica,sans-Serif" font-size="10.00">XCM/XBotThread.h</text>
</a>
</g>
</g>
<!-- Node7&#45;&gt;Node8 -->
<g id="edge7" class="edge"><title>Node7&#45;&gt;Node8</title>
<path fill="none" stroke="midnightblue" d="M876.975,-326.88C751.067,-316.144 527.203,-289.366 473,-232 457.301,-215.385 456.527,-187.749 458.162,-169.33"/>
<polygon fill="midnightblue" stroke="midnightblue" points="461.657,-169.58 459.378,-159.233 454.707,-168.742 461.657,-169.58"/>
</g>
<!-- Node31 -->
<g id="node31" class="node"><title>Node31</title>
<g id="a_node31"><a xlink:href="XBotCommunicationInterface_8h.html" target="_top" xlink:title="XCM/XBotCommunicationInterface.h">
<polygon fill="none" stroke="black" points="1479.5,-78.5 1479.5,-97.5 1658.5,-97.5 1658.5,-78.5 1479.5,-78.5"/>
<text text-anchor="middle" x="1569" y="-85.5" font-family="Helvetica,sans-Serif" font-size="10.00">XCM/XBotCommunicationInterface.h</text>
</a>
</g>
</g>
<!-- Node7&#45;&gt;Node31 -->
<g id="edge32" class="edge"><title>Node7&#45;&gt;Node31</title>
<path fill="none" stroke="midnightblue" d="M1051.01,-332.923C1209.31,-330.691 1534.36,-315.757 1602,-232 1632.06,-194.779 1600.27,-135.225 1581.19,-106.126"/>
<polygon fill="midnightblue" stroke="midnightblue" points="1583.83,-103.795 1575.31,-97.501 1578.05,-107.736 1583.83,-103.795"/>
</g>
<!-- Node33 -->
<g id="node33" class="node"><title>Node33</title>
<g id="a_node33"><a xlink:href="XBotXDDP_8h.html" target="_top" xlink:title="XCM/XBotXDDP.h">
<polygon fill="none" stroke="black" points="1232.5,-268.5 1232.5,-287.5 1333.5,-287.5 1333.5,-268.5 1232.5,-268.5"/>
<text text-anchor="middle" x="1283" y="-275.5" font-family="Helvetica,sans-Serif" font-size="10.00">XCM/XBotXDDP.h</text>
</a>
</g>
</g>
<!-- Node7&#45;&gt;Node33 -->
<g id="edge34" class="edge"><title>Node7&#45;&gt;Node33</title>
<path fill="none" stroke="midnightblue" d="M1014.55,-324.444C1071.01,-314.885 1162.37,-299.419 1222.57,-289.23"/>
<polygon fill="midnightblue" stroke="midnightblue" points="1223.41,-292.636 1232.69,-287.516 1222.25,-285.735 1223.41,-292.636"/>
</g>
<!-- Node41 -->
<g id="node41" class="node"><title>Node41</title>
<g id="a_node41"><a xlink:href="XDomainCommunication_8h.html" target="_top" xlink:title="XBotCore&#45;interfaces\l/XDomainCommunication.h">
<polygon fill="none" stroke="black" points="1014.5,-201.5 1014.5,-231.5 1151.5,-231.5 1151.5,-201.5 1014.5,-201.5"/>
<text text-anchor="start" x="1022.5" y="-219.5" font-family="Helvetica,sans-Serif" font-size="10.00">XBotCore&#45;interfaces</text>
<text text-anchor="middle" x="1083" y="-208.5" font-family="Helvetica,sans-Serif" font-size="10.00">/XDomainCommunication.h</text>
</a>
</g>
</g>
<!-- Node7&#45;&gt;Node41 -->
<g id="edge65" class="edge"><title>Node7&#45;&gt;Node41</title>
<path fill="none" stroke="midnightblue" d="M972.944,-324.319C991.54,-306.27 1034.84,-264.246 1061.24,-238.617"/>
<polygon fill="midnightblue" stroke="midnightblue" points="1063.79,-241.022 1068.53,-231.545 1058.92,-235.999 1063.79,-241.022"/>
</g>
<!-- Node47 -->
<g id="node47" class="node"><title>Node47</title>
<g id="a_node47"><a xlink:href="IOPlugin_8h.html" target="_top" xlink:title="XCM/IOPlugin.h">
<polygon fill="none" stroke="black" points="802,-268.5 802,-287.5 890,-287.5 890,-268.5 802,-268.5"/>
<text text-anchor="middle" x="846" y="-275.5" font-family="Helvetica,sans-Serif" font-size="10.00">XCM/IOPlugin.h</text>
</a>
</g>
</g>
<!-- Node7&#45;&gt;Node47 -->
<g id="edge60" class="edge"><title>Node7&#45;&gt;Node47</title>
<path fill="none" stroke="midnightblue" d="M945.303,-324.444C926.056,-315.636 895.848,-301.812 873.8,-291.722"/>
<polygon fill="midnightblue" stroke="midnightblue" points="875.16,-288.495 864.61,-287.516 872.247,-294.86 875.16,-288.495"/>
</g>
<!-- Node8&#45;&gt;Node6 -->
<g id="edge14" class="edge"><title>Node8&#45;&gt;Node6</title>
<path fill="none" stroke="midnightblue" d="M409.921,-142.571C343.022,-134.501 221.912,-118.846 108.639,-97.978"/>
<polygon fill="midnightblue" stroke="midnightblue" points="109.227,-94.5275 98.7561,-96.1401 107.948,-101.409 109.227,-94.5275"/>
</g>
<!-- Node9 -->
<g id="node9" class="node"><title>Node9</title>
<polygon fill="none" stroke="#bfbfbf" points="352.5,-78.5 352.5,-97.5 409.5,-97.5 409.5,-78.5 352.5,-78.5"/>
<text text-anchor="middle" x="381" y="-85.5" font-family="Helvetica,sans-Serif" font-size="10.00">pthread.h</text>
</g>
<!-- Node8&#45;&gt;Node9 -->
<g id="edge8" class="edge"><title>Node8&#45;&gt;Node9</title>
<path fill="none" stroke="midnightblue" d="M449.538,-139.975C436.825,-130.52 416.087,-115.096 400.747,-103.687"/>
<polygon fill="midnightblue" stroke="midnightblue" points="402.554,-100.669 392.441,-97.5091 398.376,-106.285 402.554,-100.669"/>
</g>
<!-- Node10 -->
<g id="node10" class="node"><title>Node10</title>
<polygon fill="none" stroke="#bfbfbf" points="428,-78.5 428,-97.5 502,-97.5 502,-78.5 428,-78.5"/>
<text text-anchor="middle" x="465" y="-85.5" font-family="Helvetica,sans-Serif" font-size="10.00">linux/sched.h</text>
</g>
<!-- Node8&#45;&gt;Node10 -->
<g id="edge9" class="edge"><title>Node8&#45;&gt;Node10</title>
<path fill="none" stroke="midnightblue" d="M461.573,-139.975C462.137,-131.58 463.018,-118.481 463.745,-107.663"/>
<polygon fill="midnightblue" stroke="midnightblue" points="467.249,-107.721 464.428,-97.5091 460.265,-107.252 467.249,-107.721"/>
</g>
<!-- Node11 -->
<g id="node11" class="node"><title>Node11</title>
<polygon fill="none" stroke="#bfbfbf" points="716.5,-78.5 716.5,-97.5 767.5,-97.5 767.5,-78.5 716.5,-78.5"/>
<text text-anchor="middle" x="742" y="-85.5" font-family="Helvetica,sans-Serif" font-size="10.00">unistd.h</text>
</g>
<!-- Node8&#45;&gt;Node11 -->
<g id="edge10" class="edge"><title>Node8&#45;&gt;Node11</title>
<path fill="none" stroke="midnightblue" d="M506.033,-139.946C553.445,-130.786 630.477,-115.468 706.654,-97.9868"/>
<polygon fill="midnightblue" stroke="midnightblue" points="707.465,-101.392 716.421,-95.7322 705.89,-94.5712 707.465,-101.392"/>
</g>
<!-- Node12 -->
<g id="node12" class="node"><title>Node12</title>
<polygon fill="none" stroke="#bfbfbf" points="117,-78.5 117,-97.5 165,-97.5 165,-78.5 117,-78.5"/>
<text text-anchor="middle" x="141" y="-85.5" font-family="Helvetica,sans-Serif" font-size="10.00">stdlib.h</text>
</g>
<!-- Node8&#45;&gt;Node12 -->
<g id="edge11" class="edge"><title>Node8&#45;&gt;Node12</title>
<path fill="none" stroke="midnightblue" d="M409.913,-140.966C354.381,-132.452 262.866,-117.477 174.956,-98.0479"/>
<polygon fill="midnightblue" stroke="midnightblue" points="175.609,-94.6076 165.087,-95.8442 174.084,-101.439 175.609,-94.6076"/>
</g>
<!-- Node13 -->
<g id="node13" class="node"><title>Node13</title>
<polygon fill="none" stroke="#bfbfbf" points="520,-78.5 520,-97.5 588,-97.5 588,-78.5 520,-78.5"/>
<text text-anchor="middle" x="554" y="-85.5" font-family="Helvetica,sans-Serif" font-size="10.00">sys/types.h</text>
</g>
<!-- Node8&#45;&gt;Node13 -->
<g id="edge12" class="edge"><title>Node8&#45;&gt;Node13</title>
<path fill="none" stroke="midnightblue" d="M474.325,-139.975C489.38,-130.343 514.116,-114.517 532.037,-103.052"/>
<polygon fill="midnightblue" stroke="midnightblue" points="534.163,-105.847 540.7,-97.5091 530.39,-99.9501 534.163,-105.847"/>
</g>
<!-- Node14 -->
<g id="node14" class="node"><title>Node14</title>
<polygon fill="none" stroke="#bfbfbf" points="183,-78.5 183,-97.5 265,-97.5 265,-78.5 183,-78.5"/>
<text text-anchor="middle" x="224" y="-85.5" font-family="Helvetica,sans-Serif" font-size="10.00">bits/local_lim.h</text>
</g>
<!-- Node8&#45;&gt;Node14 -->
<g id="edge13" class="edge"><title>Node8&#45;&gt;Node14</title>
<path fill="none" stroke="midnightblue" d="M427.044,-139.975C385.158,-129.459 313.867,-111.562 267.872,-100.014"/>
<polygon fill="midnightblue" stroke="midnightblue" points="268.445,-96.5495 257.893,-97.5091 266.74,-103.339 268.445,-96.5495"/>
</g>
<!-- Node15 -->
<g id="node15" class="node"><title>Node15</title>
<polygon fill="none" stroke="#bfbfbf" points="283.5,-78.5 283.5,-97.5 334.5,-97.5 334.5,-78.5 283.5,-78.5"/>
<text text-anchor="middle" x="309" y="-85.5" font-family="Helvetica,sans-Serif" font-size="10.00">typeinfo</text>
</g>
<!-- Node8&#45;&gt;Node15 -->
<g id="edge15" class="edge"><title>Node8&#45;&gt;Node15</title>
<path fill="none" stroke="midnightblue" d="M439.222,-139.975C413.262,-129.813 369.689,-112.756 340.165,-101.2"/>
<polygon fill="midnightblue" stroke="midnightblue" points="341.325,-97.8951 330.737,-97.5091 338.774,-104.413 341.325,-97.8951"/>
</g>
<!-- Node16 -->
<g id="node16" class="node"><title>Node16</title>
<polygon fill="none" stroke="#bfbfbf" points="856,-78.5 856,-97.5 910,-97.5 910,-78.5 856,-78.5"/>
<text text-anchor="middle" x="883" y="-85.5" font-family="Helvetica,sans-Serif" font-size="10.00">iostream</text>
</g>
<!-- Node8&#45;&gt;Node16 -->
<g id="edge16" class="edge"><title>Node8&#45;&gt;Node16</title>
<path fill="none" stroke="midnightblue" d="M512.187,-143.695C584.431,-136.497 720.558,-121.409 845.797,-98.0346"/>
<polygon fill="midnightblue" stroke="midnightblue" points="846.77,-101.413 855.947,-96.1173 845.471,-94.5344 846.77,-101.413"/>
</g>
<!-- Node17 -->
<g id="node17" class="node"><title>Node17</title>
<polygon fill="none" stroke="#bfbfbf" points="786,-78.5 786,-97.5 838,-97.5 838,-78.5 786,-78.5"/>
<text text-anchor="middle" x="812" y="-85.5" font-family="Helvetica,sans-Serif" font-size="10.00">memory</text>
</g>
<!-- Node8&#45;&gt;Node17 -->
<g id="edge17" class="edge"><title>Node8&#45;&gt;Node17</title>
<path fill="none" stroke="midnightblue" d="M512.257,-141.665C572.782,-133.286 676.656,-117.945 775.824,-97.87"/>
<polygon fill="midnightblue" stroke="midnightblue" points="776.617,-101.28 785.714,-95.8489 775.215,-94.4222 776.617,-101.28"/>
</g>
<!-- Node18 -->
<g id="node18" class="node"><title>Node18</title>
<g id="a_node18"><a xlink:href="XBotUtils_8h.html" target="_top" xlink:title="XCM/XBotUtils.h">
<polygon fill="none" stroke="black" points="606,-78.5 606,-97.5 698,-97.5 698,-78.5 606,-78.5"/>
<text text-anchor="middle" x="652" y="-85.5" font-family="Helvetica,sans-Serif" font-size="10.00">XCM/XBotUtils.h</text>
</a>
</g>
</g>
<!-- Node8&#45;&gt;Node18 -->
<g id="edge18" class="edge"><title>Node8&#45;&gt;Node18</title>
<path fill="none" stroke="midnightblue" d="M488.366,-139.975C521.554,-129.636 577.651,-112.161 614.758,-100.602"/>
<polygon fill="midnightblue" stroke="midnightblue" points="616.179,-103.825 624.685,-97.5091 614.097,-97.1417 616.179,-103.825"/>
</g>
<!-- Node18&#45;&gt;Node2 -->
<g id="edge20" class="edge"><title>Node18&#45;&gt;Node2</title>
<path fill="none" stroke="midnightblue" d="M605.831,-79.1206C602.847,-78.7117 599.884,-78.3331 597,-78 362.461,-50.9062 295.92,-99.7764 67,-42 60.4862,-40.356 53.7431,-37.7841 47.5513,-35.0256"/>
<polygon fill="midnightblue" stroke="midnightblue" points="48.9187,-31.7999 38.3871,-30.6435 45.8989,-38.1151 48.9187,-31.7999"/>
</g>
<!-- Node19 -->
<g id="node19" class="node"><title>Node19</title>
<polygon fill="none" stroke="#bfbfbf" points="1357.5,-11.5 1357.5,-30.5 1406.5,-30.5 1406.5,-11.5 1357.5,-11.5"/>
<text text-anchor="middle" x="1382" y="-18.5" font-family="Helvetica,sans-Serif" font-size="10.00">stdint.h</text>
</g>
<!-- Node18&#45;&gt;Node19 -->
<g id="edge19" class="edge"><title>Node18&#45;&gt;Node19</title>
<path fill="none" stroke="midnightblue" d="M698.165,-79.0829C701.15,-78.6832 704.115,-78.317 707,-78 987.985,-47.1326 1068.84,-114.709 1342,-42 1347.72,-40.4772 1353.58,-38.0873 1358.99,-35.4818"/>
<polygon fill="midnightblue" stroke="midnightblue" points="1360.89,-38.4418 1368.12,-30.7 1357.64,-32.2415 1360.89,-38.4418"/>
</g>
<!-- Node20 -->
<g id="node20" class="node"><title>Node20</title>
<polygon fill="none" stroke="#bfbfbf" points="76,-11.5 76,-30.5 126,-30.5 126,-11.5 76,-11.5"/>
<text text-anchor="middle" x="101" y="-18.5" font-family="Helvetica,sans-Serif" font-size="10.00">fstream</text>
</g>
<!-- Node18&#45;&gt;Node20 -->
<g id="edge21" class="edge"><title>Node18&#45;&gt;Node20</title>
<path fill="none" stroke="midnightblue" d="M605.827,-79.1541C602.844,-78.737 599.882,-78.3474 597,-78 392.525,-53.3483 331.466,-103.797 135,-42 130.392,-40.5507 125.743,-38.3819 121.424,-36"/>
<polygon fill="midnightblue" stroke="midnightblue" points="123.003,-32.8632 112.643,-30.642 119.357,-38.8386 123.003,-32.8632"/>
</g>
<!-- Node21 -->
<g id="node21" class="node"><title>Node21</title>
<polygon fill="none" stroke="#bfbfbf" points="144,-11.5 144,-30.5 196,-30.5 196,-11.5 144,-11.5"/>
<text text-anchor="middle" x="170" y="-18.5" font-family="Helvetica,sans-Serif" font-size="10.00">sstream</text>
</g>
<!-- Node18&#45;&gt;Node21 -->
<g id="edge22" class="edge"><title>Node18&#45;&gt;Node21</title>
<path fill="none" stroke="midnightblue" d="M605.821,-79.2007C602.839,-78.7722 599.879,-78.3673 597,-78 423.451,-55.8596 371.862,-94.5985 205,-42 200.165,-40.4759 195.264,-38.213 190.721,-35.7514"/>
<polygon fill="midnightblue" stroke="midnightblue" points="192.421,-32.6904 182.036,-30.5927 188.847,-38.7088 192.421,-32.6904"/>
</g>
<!-- Node22 -->
<g id="node22" class="node"><title>Node22</title>
<polygon fill="none" stroke="#bfbfbf" points="214,-11.5 214,-30.5 338,-30.5 338,-11.5 214,-11.5"/>
<text text-anchor="middle" x="276" y="-18.5" font-family="Helvetica,sans-Serif" font-size="10.00">boost/circular_buffer.hpp</text>
</g>
<!-- Node18&#45;&gt;Node22 -->
<g id="edge23" class="edge"><title>Node18&#45;&gt;Node22</title>
<path fill="none" stroke="midnightblue" d="M605.797,-79.3735C602.821,-78.9027 599.869,-78.4413 597,-78 486.047,-60.9351 456.819,-65.2689 347,-42 335.778,-39.6222 323.716,-36.4596 312.776,-33.3526"/>
<polygon fill="midnightblue" stroke="midnightblue" points="313.681,-29.9708 303.101,-30.539 311.726,-36.6923 313.681,-29.9708"/>
</g>
<!-- Node23 -->
<g id="node23" class="node"><title>Node23</title>
<polygon fill="none" stroke="#bfbfbf" points="356,-6 356,-36 458,-36 458,-6 356,-6"/>
<text text-anchor="start" x="364" y="-24" font-family="Helvetica,sans-Serif" font-size="10.00">boost/accumulators</text>
<text text-anchor="middle" x="407" y="-13" font-family="Helvetica,sans-Serif" font-size="10.00">/accumulators.hpp</text>
</g>
<!-- Node18&#45;&gt;Node23 -->
<g id="edge24" class="edge"><title>Node18&#45;&gt;Node23</title>
<path fill="none" stroke="midnightblue" d="M612.773,-78.4541C575.154,-70.0244 516.872,-56.3506 467,-42 463.834,-41.0891 460.587,-40.117 457.32,-39.1107"/>
<polygon fill="midnightblue" stroke="midnightblue" points="458.113,-35.6909 447.524,-36.0154 456.004,-42.3657 458.113,-35.6909"/>
</g>
<!-- Node24 -->
<g id="node24" class="node"><title>Node24</title>
<polygon fill="none" stroke="#bfbfbf" points="476.5,-6 476.5,-36 581.5,-36 581.5,-6 476.5,-6"/>
<text text-anchor="start" x="484.5" y="-24" font-family="Helvetica,sans-Serif" font-size="10.00">boost/accumulators</text>
<text text-anchor="middle" x="529" y="-13" font-family="Helvetica,sans-Serif" font-size="10.00">/statistics/count.hpp</text>
</g>
<!-- Node18&#45;&gt;Node24 -->
<g id="edge25" class="edge"><title>Node18&#45;&gt;Node24</title>
<path fill="none" stroke="midnightblue" d="M635.667,-78.3685C617.667,-68.8566 588.164,-53.2655 564.743,-40.8888"/>
<polygon fill="midnightblue" stroke="midnightblue" points="566.256,-37.7295 555.779,-36.1516 562.985,-43.9184 566.256,-37.7295"/>
</g>
<!-- Node25 -->
<g id="node25" class="node"><title>Node25</title>
<polygon fill="none" stroke="#bfbfbf" points="599.5,-6 599.5,-36 704.5,-36 704.5,-6 599.5,-6"/>
<text text-anchor="start" x="607.5" y="-24" font-family="Helvetica,sans-Serif" font-size="10.00">boost/accumulators</text>
<text text-anchor="middle" x="652" y="-13" font-family="Helvetica,sans-Serif" font-size="10.00">/statistics/mean.hpp</text>
</g>
<!-- Node18&#45;&gt;Node25 -->
<g id="edge26" class="edge"><title>Node18&#45;&gt;Node25</title>
<path fill="none" stroke="midnightblue" d="M652,-78.2338C652,-70.0406 652,-57.4225 652,-46.2136"/>
<polygon fill="midnightblue" stroke="midnightblue" points="655.5,-46.089 652,-36.089 648.5,-46.0891 655.5,-46.089"/>
</g>
<!-- Node26 -->
<g id="node26" class="node"><title>Node26</title>
<polygon fill="none" stroke="#bfbfbf" points="723,-6 723,-36 825,-36 825,-6 723,-6"/>
<text text-anchor="start" x="731" y="-24" font-family="Helvetica,sans-Serif" font-size="10.00">boost/accumulators</text>
<text text-anchor="middle" x="774" y="-13" font-family="Helvetica,sans-Serif" font-size="10.00">/statistics/min.hpp</text>
</g>
<!-- Node18&#45;&gt;Node26 -->
<g id="edge27" class="edge"><title>Node18&#45;&gt;Node26</title>
<path fill="none" stroke="midnightblue" d="M668.201,-78.3685C686.054,-68.8566 715.317,-53.2655 738.547,-40.8888"/>
<polygon fill="midnightblue" stroke="midnightblue" points="740.259,-43.9427 747.439,-36.1516 736.967,-37.7649 740.259,-43.9427"/>
</g>
<!-- Node27 -->
<g id="node27" class="node"><title>Node27</title>
<polygon fill="none" stroke="#bfbfbf" points="843,-6 843,-36 945,-36 945,-6 843,-6"/>
<text text-anchor="start" x="851" y="-24" font-family="Helvetica,sans-Serif" font-size="10.00">boost/accumulators</text>
<text text-anchor="middle" x="894" y="-13" font-family="Helvetica,sans-Serif" font-size="10.00">/statistics/max.hpp</text>
</g>
<!-- Node18&#45;&gt;Node27 -->
<g id="edge28" class="edge"><title>Node18&#45;&gt;Node27</title>
<path fill="none" stroke="midnightblue" d="M690.23,-78.478C727.22,-70.0137 784.762,-56.2692 834,-42 837.111,-41.0984 840.302,-40.139 843.513,-39.1471"/>
<polygon fill="midnightblue" stroke="midnightblue" points="844.668,-42.4529 853.146,-36.0993 842.556,-35.7789 844.668,-42.4529"/>
</g>
<!-- Node28 -->
<g id="node28" class="node"><title>Node28</title>
<polygon fill="none" stroke="#bfbfbf" points="963,-6 963,-36 1081,-36 1081,-6 963,-6"/>
<text text-anchor="start" x="971" y="-24" font-family="Helvetica,sans-Serif" font-size="10.00">boost/accumulators</text>
<text text-anchor="middle" x="1022" y="-13" font-family="Helvetica,sans-Serif" font-size="10.00">/statistics/variance.hpp</text>
</g>
<!-- Node18&#45;&gt;Node28 -->
<g id="edge29" class="edge"><title>Node18&#45;&gt;Node28</title>
<path fill="none" stroke="midnightblue" d="M698.204,-79.3793C701.18,-78.907 704.131,-78.4437 707,-78 816.634,-61.0418 845.626,-65.7106 954,-42 958.448,-41.0269 963.03,-39.9173 967.616,-38.7309"/>
<polygon fill="midnightblue" stroke="midnightblue" points="968.865,-42.0191 977.608,-36.0345 967.041,-35.2609 968.865,-42.0191"/>
</g>
<!-- Node29 -->
<g id="node29" class="node"><title>Node29</title>
<polygon fill="none" stroke="#bfbfbf" points="1099,-6 1099,-36 1213,-36 1213,-6 1099,-6"/>
<text text-anchor="start" x="1107" y="-24" font-family="Helvetica,sans-Serif" font-size="10.00">boost/accumulators</text>
<text text-anchor="middle" x="1156" y="-13" font-family="Helvetica,sans-Serif" font-size="10.00">/statistics/error_of.hpp</text>
</g>
<!-- Node18&#45;&gt;Node29 -->
<g id="edge30" class="edge"><title>Node18&#45;&gt;Node29</title>
<path fill="none" stroke="midnightblue" d="M698.18,-79.2079C701.162,-78.7776 704.121,-78.3704 707,-78 876.575,-56.1822 922.234,-74.9571 1090,-42 1094.67,-41.0819 1099.49,-39.9661 1104.29,-38.7364"/>
<polygon fill="midnightblue" stroke="midnightblue" points="1105.33,-42.0788 1114.07,-36.0788 1103.5,-35.3238 1105.33,-42.0788"/>
</g>
<!-- Node30 -->
<g id="node30" class="node"><title>Node30</title>
<polygon fill="none" stroke="#bfbfbf" points="1231,-0.5 1231,-41.5 1333,-41.5 1333,-0.5 1231,-0.5"/>
<text text-anchor="start" x="1239" y="-29.5" font-family="Helvetica,sans-Serif" font-size="10.00">boost/accumulators</text>
<text text-anchor="start" x="1239" y="-18.5" font-family="Helvetica,sans-Serif" font-size="10.00">/statistics/error_of</text>
<text text-anchor="middle" x="1282" y="-7.5" font-family="Helvetica,sans-Serif" font-size="10.00">_mean.hpp</text>
</g>
<!-- Node18&#45;&gt;Node30 -->
<g id="edge31" class="edge"><title>Node18&#45;&gt;Node30</title>
<path fill="none" stroke="midnightblue" d="M698.17,-79.1273C701.154,-78.7167 704.117,-78.3359 707,-78 931.678,-51.8211 995.145,-85.6484 1221.01,-41.9275"/>
<polygon fill="midnightblue" stroke="midnightblue" points="1221.7,-45.3577 1230.84,-39.9951 1220.36,-38.489 1221.7,-45.3577"/>
</g>
<!-- Node32 -->
<g id="node32" class="node"><title>Node32</title>
<polygon fill="none" stroke="#bfbfbf" points="1493,-11.5 1493,-30.5 1645,-30.5 1645,-11.5 1493,-11.5"/>
<text text-anchor="middle" x="1569" y="-18.5" font-family="Helvetica,sans-Serif" font-size="10.00">XBotInterface/RobotInterface.h</text>
</g>
<!-- Node31&#45;&gt;Node32 -->
<g id="edge33" class="edge"><title>Node31&#45;&gt;Node32</title>
<path fill="none" stroke="midnightblue" d="M1569,-78.2338C1569,-68.6826 1569,-53.1183 1569,-40.7829"/>
<polygon fill="midnightblue" stroke="midnightblue" points="1572.5,-40.6273 1569,-30.6273 1565.5,-40.6273 1572.5,-40.6273"/>
</g>
<!-- Node34 -->
<g id="node34" class="node"><title>Node34</title>
<g id="a_node34"><a xlink:href="XBotESC_8h.html" target="_top" xlink:title="XBotCore&#45;interfaces\l/XBotESC.h">
<polygon fill="none" stroke="black" points="1342.5,-134.5 1342.5,-164.5 1447.5,-164.5 1447.5,-134.5 1342.5,-134.5"/>
<text text-anchor="start" x="1350.5" y="-152.5" font-family="Helvetica,sans-Serif" font-size="10.00">XBotCore&#45;interfaces</text>
<text text-anchor="middle" x="1395" y="-141.5" font-family="Helvetica,sans-Serif" font-size="10.00">/XBotESC.h</text>
</a>
</g>
</g>
<!-- Node33&#45;&gt;Node34 -->
<g id="edge35" class="edge"><title>Node33&#45;&gt;Node34</title>
<path fill="none" stroke="midnightblue" d="M1333.65,-277.031C1410.62,-275.879 1551.42,-268.665 1583,-232 1622.49,-186.139 1526.46,-165.239 1457.59,-156.378"/>
<polygon fill="midnightblue" stroke="midnightblue" points="1458,-152.902 1447.65,-155.156 1457.15,-159.85 1458,-152.902"/>
</g>
<!-- Node35 -->
<g id="node35" class="node"><title>Node35</title>
<polygon fill="none" stroke="#bfbfbf" points="1528,-207 1528,-226 1574,-226 1574,-207 1528,-207"/>
<text text-anchor="middle" x="1551" y="-214" font-family="Helvetica,sans-Serif" font-size="10.00">cstring</text>
</g>
<!-- Node33&#45;&gt;Node35 -->
<g id="edge37" class="edge"><title>Node33&#45;&gt;Node35</title>
<path fill="none" stroke="midnightblue" d="M1333.58,-270.892C1381.96,-264.228 1456.58,-251.786 1519,-232 1520.88,-231.406 1522.79,-230.731 1524.69,-230.006"/>
<polygon fill="midnightblue" stroke="midnightblue" points="1526.15,-233.188 1534.02,-226.094 1523.45,-226.733 1526.15,-233.188"/>
</g>
<!-- Node36 -->
<g id="node36" class="node"><title>Node36</title>
<g id="a_node36"><a xlink:href="IXBotJoint_8h.html" target="_top" xlink:title="XBotCore&#45;interfaces\l/IXBotJoint.h">
<polygon fill="none" stroke="red" points="841.5,-134.5 841.5,-164.5 946.5,-164.5 946.5,-134.5 841.5,-134.5"/>
<text text-anchor="start" x="849.5" y="-152.5" font-family="Helvetica,sans-Serif" font-size="10.00">XBotCore&#45;interfaces</text>
<text text-anchor="middle" x="894" y="-141.5" font-family="Helvetica,sans-Serif" font-size="10.00">/IXBotJoint.h</text>
</a>
</g>
</g>
<!-- Node33&#45;&gt;Node36 -->
<g id="edge38" class="edge"><title>Node33&#45;&gt;Node36</title>
<path fill="none" stroke="midnightblue" d="M1232.35,-275.884C1175.09,-273.039 1080.08,-263.469 1005,-232 970.59,-217.577 936.882,-190.451 915.809,-171.47"/>
<polygon fill="midnightblue" stroke="midnightblue" points="918.107,-168.828 908.376,-164.637 913.369,-173.981 918.107,-168.828"/>
</g>
<!-- Node39 -->
<g id="node39" class="node"><title>Node39</title>
<g id="a_node39"><a xlink:href="IXBotFT_8h.html" target="_top" xlink:title="XBotCore&#45;interfaces\l/IXBotFT.h">
<polygon fill="none" stroke="black" points="1169.5,-201.5 1169.5,-231.5 1274.5,-231.5 1274.5,-201.5 1169.5,-201.5"/>
<text text-anchor="start" x="1177.5" y="-219.5" font-family="Helvetica,sans-Serif" font-size="10.00">XBotCore&#45;interfaces</text>
<text text-anchor="middle" x="1222" y="-208.5" font-family="Helvetica,sans-Serif" font-size="10.00">/IXBotFT.h</text>
</a>
</g>
</g>
<!-- Node33&#45;&gt;Node39 -->
<g id="edge42" class="edge"><title>Node33&#45;&gt;Node39</title>
<path fill="none" stroke="midnightblue" d="M1274.26,-268.475C1266.31,-260.718 1254.24,-248.943 1243.7,-238.665"/>
<polygon fill="midnightblue" stroke="midnightblue" points="1245.98,-236 1236.38,-231.523 1241.09,-241.011 1245.98,-236"/>
</g>
<!-- Node40 -->
<g id="node40" class="node"><title>Node40</title>
<g id="a_node40"><a xlink:href="IXBotIMU_8h.html" target="_top" xlink:title="XBotCore&#45;interfaces\l/IXBotIMU.h">
<polygon fill="none" stroke="red" points="1292.5,-201.5 1292.5,-231.5 1397.5,-231.5 1397.5,-201.5 1292.5,-201.5"/>
<text text-anchor="start" x="1300.5" y="-219.5" font-family="Helvetica,sans-Serif" font-size="10.00">XBotCore&#45;interfaces</text>
<text text-anchor="middle" x="1345" y="-208.5" font-family="Helvetica,sans-Serif" font-size="10.00">/IXBotIMU.h</text>
</a>
</g>
</g>
<!-- Node33&#45;&gt;Node40 -->
<g id="edge43" class="edge"><title>Node33&#45;&gt;Node40</title>
<path fill="none" stroke="midnightblue" d="M1291.88,-268.475C1299.97,-260.718 1312.24,-248.943 1322.95,-238.665"/>
<polygon fill="midnightblue" stroke="midnightblue" points="1325.6,-240.972 1330.39,-231.523 1320.75,-235.922 1325.6,-240.972"/>
</g>
<!-- Node33&#45;&gt;Node41 -->
<g id="edge44" class="edge"><title>Node33&#45;&gt;Node41</title>
<path fill="none" stroke="midnightblue" d="M1254.34,-268.475C1224.6,-259.626 1177.28,-245.549 1139.9,-234.428"/>
<polygon fill="midnightblue" stroke="midnightblue" points="1140.72,-231.02 1130.14,-231.523 1138.72,-237.729 1140.72,-231.02"/>
</g>
<!-- Node46 -->
<g id="node46" class="node"><title>Node46</title>
<polygon fill="none" stroke="#bfbfbf" points="1416,-207 1416,-226 1510,-226 1510,-207 1416,-207"/>
<text text-anchor="middle" x="1463" y="-214" font-family="Helvetica,sans-Serif" font-size="10.00">XBotCoreModel.h</text>
</g>
<!-- Node33&#45;&gt;Node46 -->
<g id="edge59" class="edge"><title>Node33&#45;&gt;Node46</title>
<path fill="none" stroke="midnightblue" d="M1308.79,-268.475C1339.93,-258.18 1392.48,-240.81 1427.45,-229.25"/>
<polygon fill="midnightblue" stroke="midnightblue" points="1428.86,-232.471 1437.26,-226.009 1426.66,-225.825 1428.86,-232.471"/>
</g>
<!-- Node34&#45;&gt;Node19 -->
<g id="edge36" class="edge"><title>Node34&#45;&gt;Node19</title>
<path fill="none" stroke="midnightblue" d="M1393.56,-134.479C1391.22,-111.719 1386.59,-66.7023 1383.96,-41.0582"/>
<polygon fill="midnightblue" stroke="midnightblue" points="1387.41,-40.3783 1382.9,-30.7885 1380.44,-41.094 1387.41,-40.3783"/>
</g>
<!-- Node36&#45;&gt;Node17 -->
<g id="edge40" class="edge"><title>Node36&#45;&gt;Node17</title>
<path fill="none" stroke="midnightblue" d="M874.567,-134.399C861.792,-125.129 845.111,-113.025 832.186,-103.647"/>
<polygon fill="midnightblue" stroke="midnightblue" points="834.081,-100.698 823.932,-97.6578 829.97,-106.364 834.081,-100.698"/>
</g>
<!-- Node37 -->
<g id="node37" class="node"><title>Node37</title>
<polygon fill="none" stroke="#bfbfbf" points="987.5,-78.5 987.5,-97.5 1022.5,-97.5 1022.5,-78.5 987.5,-78.5"/>
<text text-anchor="middle" x="1005" y="-85.5" font-family="Helvetica,sans-Serif" font-size="10.00">map</text>
</g>
<!-- Node36&#45;&gt;Node37 -->
<g id="edge39" class="edge"><title>Node36&#45;&gt;Node37</title>
<path fill="none" stroke="midnightblue" d="M920.305,-134.399C938.264,-124.773 961.924,-112.09 979.671,-102.577"/>
<polygon fill="midnightblue" stroke="midnightblue" points="981.688,-105.467 988.849,-97.6578 978.381,-99.2975 981.688,-105.467"/>
</g>
<!-- Node38 -->
<g id="node38" class="node"><title>Node38</title>
<polygon fill="none" stroke="#bfbfbf" points="928.5,-78.5 928.5,-97.5 969.5,-97.5 969.5,-78.5 928.5,-78.5"/>
<text text-anchor="middle" x="949" y="-85.5" font-family="Helvetica,sans-Serif" font-size="10.00">string</text>
</g>
<!-- Node36&#45;&gt;Node38 -->
<g id="edge41" class="edge"><title>Node36&#45;&gt;Node38</title>
<path fill="none" stroke="midnightblue" d="M907.034,-134.399C915.191,-125.575 925.722,-114.183 934.194,-105.018"/>
<polygon fill="midnightblue" stroke="midnightblue" points="936.779,-107.377 940.997,-97.6578 931.639,-102.625 936.779,-107.377"/>
</g>
<!-- Node41&#45;&gt;Node16 -->
<g id="edge58" class="edge"><title>Node41&#45;&gt;Node16</title>
<path fill="none" stroke="midnightblue" d="M1060.84,-201.309C1035.34,-185.004 992.21,-157.474 955,-134 938.432,-123.548 919.664,-111.822 905.443,-102.96"/>
<polygon fill="midnightblue" stroke="midnightblue" points="907.163,-99.9078 896.824,-97.5925 903.463,-105.85 907.163,-99.9078"/>
</g>
<!-- Node42 -->
<g id="node42" class="node"><title>Node42</title>
<g id="a_node42"><a xlink:href="XBotPipes_8h.html" target="_top" xlink:title="XBotCore&#45;interfaces\l/XBotPipes.h">
<polygon fill="none" stroke="black" points="718.5,-134.5 718.5,-164.5 823.5,-164.5 823.5,-134.5 718.5,-134.5"/>
<text text-anchor="start" x="726.5" y="-152.5" font-family="Helvetica,sans-Serif" font-size="10.00">XBotCore&#45;interfaces</text>
<text text-anchor="middle" x="771" y="-141.5" font-family="Helvetica,sans-Serif" font-size="10.00">/XBotPipes.h</text>
</a>
</g>
</g>
<!-- Node41&#45;&gt;Node42 -->
<g id="edge45" class="edge"><title>Node41&#45;&gt;Node42</title>
<path fill="none" stroke="midnightblue" d="M1014.42,-202.37C966.257,-192.995 900.095,-179.808 833.39,-165.268"/>
<polygon fill="midnightblue" stroke="midnightblue" points="834.063,-161.832 823.546,-163.113 832.566,-168.671 834.063,-161.832"/>
</g>
<!-- Node43 -->
<g id="node43" class="node"><title>Node43</title>
<polygon fill="none" stroke="#bfbfbf" points="1041,-78.5 1041,-97.5 1101,-97.5 1101,-78.5 1041,-78.5"/>
<text text-anchor="middle" x="1071" y="-85.5" font-family="Helvetica,sans-Serif" font-size="10.00">sys/stat.h</text>
</g>
<!-- Node41&#45;&gt;Node43 -->
<g id="edge56" class="edge"><title>Node41&#45;&gt;Node43</title>
<path fill="none" stroke="midnightblue" d="M1081.67,-201.479C1079.51,-178.719 1075.24,-133.702 1072.81,-108.058"/>
<polygon fill="midnightblue" stroke="midnightblue" points="1076.26,-107.413 1071.83,-97.7885 1069.29,-108.074 1076.26,-107.413"/>
</g>
<!-- Node44 -->
<g id="node44" class="node"><title>Node44</title>
<polygon fill="none" stroke="#bfbfbf" points="1119,-78.5 1119,-97.5 1163,-97.5 1163,-78.5 1119,-78.5"/>
<text text-anchor="middle" x="1141" y="-85.5" font-family="Helvetica,sans-Serif" font-size="10.00">fcntl.h</text>
</g>
<!-- Node41&#45;&gt;Node44 -->
<g id="edge57" class="edge"><title>Node41&#45;&gt;Node44</title>
<path fill="none" stroke="midnightblue" d="M1089.43,-201.479C1100.01,-178.411 1121.06,-132.482 1132.73,-107.029"/>
<polygon fill="midnightblue" stroke="midnightblue" points="1135.98,-108.337 1136.97,-97.7885 1129.62,-105.42 1135.98,-108.337"/>
</g>
<!-- Node45 -->
<g id="node45" class="node"><title>Node45</title>
<g id="a_node45"><a xlink:href="CommunicationInterfaceROS_8h.html" target="_top" xlink:title="XCM/CommunicationInterface\lROS.h">
<polygon fill="none" stroke="red" points="1170.5,-134.5 1170.5,-164.5 1319.5,-164.5 1319.5,-134.5 1170.5,-134.5"/>
<text text-anchor="start" x="1178.5" y="-152.5" font-family="Helvetica,sans-Serif" font-size="10.00">XCM/CommunicationInterface</text>
<text text-anchor="middle" x="1245" y="-141.5" font-family="Helvetica,sans-Serif" font-size="10.00">ROS.h</text>
</a>
</g>
</g>
<!-- Node41&#45;&gt;Node45 -->
<g id="edge54" class="edge"><title>Node41&#45;&gt;Node45</title>
<path fill="none" stroke="midnightblue" d="M1118.15,-201.396C1142.25,-191.728 1174.41,-178.823 1200.32,-168.426"/>
<polygon fill="midnightblue" stroke="midnightblue" points="1201.94,-171.549 1209.92,-164.577 1199.33,-165.052 1201.94,-171.549"/>
</g>
<!-- Node42&#45;&gt;Node11 -->
<g id="edge52" class="edge"><title>Node42&#45;&gt;Node11</title>
<path fill="none" stroke="midnightblue" d="M764.127,-134.399C760.087,-126.11 754.942,-115.554 750.631,-106.708"/>
<polygon fill="midnightblue" stroke="midnightblue" points="753.747,-105.113 746.22,-97.6578 747.455,-108.18 753.747,-105.113"/>
</g>
<!-- Node42&#45;&gt;Node13 -->
<g id="edge49" class="edge"><title>Node42&#45;&gt;Node13</title>
<path fill="none" stroke="midnightblue" d="M719.849,-134.475C681.758,-124.03 630.434,-109.958 595.018,-100.247"/>
<polygon fill="midnightblue" stroke="midnightblue" points="595.593,-96.7754 585.023,-97.5064 593.742,-103.526 595.593,-96.7754"/>
</g>
<!-- Node42&#45;&gt;Node16 -->
<g id="edge48" class="edge"><title>Node42&#45;&gt;Node16</title>
<path fill="none" stroke="midnightblue" d="M797.542,-134.399C815.663,-124.773 839.536,-112.09 857.443,-102.577"/>
<polygon fill="midnightblue" stroke="midnightblue" points="859.514,-105.44 866.703,-97.6578 856.23,-99.2585 859.514,-105.44"/>
</g>
<!-- Node42&#45;&gt;Node17 -->
<g id="edge47" class="edge"><title>Node42&#45;&gt;Node17</title>
<path fill="none" stroke="midnightblue" d="M780.716,-134.399C786.551,-125.932 794.016,-115.099 800.19,-106.139"/>
<polygon fill="midnightblue" stroke="midnightblue" points="803.242,-107.878 806.034,-97.6578 797.478,-103.906 803.242,-107.878"/>
</g>
<!-- Node42&#45;&gt;Node18 -->
<g id="edge53" class="edge"><title>Node42&#45;&gt;Node18</title>
<path fill="none" stroke="midnightblue" d="M742.799,-134.399C723.278,-124.639 697.475,-111.737 678.365,-102.183"/>
<polygon fill="midnightblue" stroke="midnightblue" points="679.825,-98.9995 669.316,-97.6578 676.695,-105.26 679.825,-98.9995"/>
</g>
<!-- Node42&#45;&gt;Node38 -->
<g id="edge46" class="edge"><title>Node42&#45;&gt;Node38</title>
<path fill="none" stroke="midnightblue" d="M813.184,-134.399C845.555,-123.579 889.478,-108.897 918.501,-99.1951"/>
<polygon fill="midnightblue" stroke="midnightblue" points="919.727,-102.476 928.102,-95.9857 917.508,-95.8366 919.727,-102.476"/>
</g>
<!-- Node42&#45;&gt;Node43 -->
<g id="edge50" class="edge"><title>Node42&#45;&gt;Node43</title>
<path fill="none" stroke="midnightblue" d="M823.532,-135.821C826.393,-135.191 829.23,-134.579 832,-134 919.977,-115.6 942.914,-115.869 1031,-98 1031.1,-97.9797 1031.2,-97.9593 1031.3,-97.9388"/>
<polygon fill="midnightblue" stroke="midnightblue" points="1031.83,-101.405 1040.89,-95.9185 1030.38,-94.5558 1031.83,-101.405"/>
</g>
<!-- Node42&#45;&gt;Node44 -->
<g id="edge51" class="edge"><title>Node42&#45;&gt;Node44</title>
<path fill="none" stroke="midnightblue" d="M823.83,-135.585C826.587,-135.023 829.323,-134.49 832,-134 951.319,-112.155 986.211,-122.841 1108.61,-98.0007"/>
<polygon fill="midnightblue" stroke="midnightblue" points="1109.67,-101.356 1118.75,-95.9031 1108.25,-94.5014 1109.67,-101.356"/>
</g>
<!-- Node45&#45;&gt;Node31 -->
<g id="edge55" class="edge"><title>Node45&#45;&gt;Node31</title>
<path fill="none" stroke="midnightblue" d="M1319.74,-134.775C1378.55,-123.974 1459.24,-109.156 1512.69,-99.3403"/>
<polygon fill="midnightblue" stroke="midnightblue" points="1513.47,-102.756 1522.67,-97.5072 1512.21,-95.8711 1513.47,-102.756"/>
</g>
<!-- Node47&#45;&gt;Node38 -->
<g id="edge61" class="edge"><title>Node47&#45;&gt;Node38</title>
<path fill="none" stroke="midnightblue" d="M871.952,-268.416C890.097,-261.234 913.724,-249.344 929,-232 958.784,-198.184 957.984,-178.963 955,-134 954.425,-125.341 953.235,-115.805 952.065,-107.75"/>
<polygon fill="midnightblue" stroke="midnightblue" points="955.481,-106.939 950.491,-97.5928 948.564,-108.011 955.481,-106.939"/>
</g>
<!-- Node48 -->
<g id="node48" class="node"><title>Node48</title>
<polygon fill="none" stroke="#bfbfbf" points="482.5,-207 482.5,-226 625.5,-226 625.5,-207 482.5,-207"/>
<text text-anchor="middle" x="554" y="-214" font-family="Helvetica,sans-Serif" font-size="10.00">SharedLibraryClassFactory.h</text>
</g>
<!-- Node47&#45;&gt;Node48 -->
<g id="edge62" class="edge"><title>Node47&#45;&gt;Node48</title>
<path fill="none" stroke="midnightblue" d="M804.164,-268.475C751.798,-257.805 662.131,-239.534 605.573,-228.009"/>
<polygon fill="midnightblue" stroke="midnightblue" points="606.256,-224.576 595.759,-226.009 604.859,-231.435 606.256,-224.576"/>
</g>
<!-- Node49 -->
<g id="node49" class="node"><title>Node49</title>
<polygon fill="none" stroke="#bfbfbf" points="644,-207 644,-226 754,-226 754,-207 644,-207"/>
<text text-anchor="middle" x="699" y="-214" font-family="Helvetica,sans-Serif" font-size="10.00">SharedLibraryClass.h</text>
</g>
<!-- Node47&#45;&gt;Node49 -->
<g id="edge63" class="edge"><title>Node47&#45;&gt;Node49</title>
<path fill="none" stroke="midnightblue" d="M824.938,-268.475C799.941,-258.357 758.058,-241.405 729.513,-229.851"/>
<polygon fill="midnightblue" stroke="midnightblue" points="730.605,-226.517 720.022,-226.009 727.979,-233.005 730.605,-226.517"/>
</g>
<!-- Node50 -->
<g id="node50" class="node"><title>Node50</title>
<polygon fill="none" stroke="#bfbfbf" points="772,-207 772,-226 920,-226 920,-207 772,-207"/>
<text text-anchor="middle" x="846" y="-214" font-family="Helvetica,sans-Serif" font-size="10.00">XBotInterface/XBotInterface.h</text>
</g>
<!-- Node47&#45;&gt;Node50 -->
<g id="edge64" class="edge"><title>Node47&#45;&gt;Node50</title>
<path fill="none" stroke="midnightblue" d="M846,-268.475C846,-260.08 846,-246.981 846,-236.163"/>
<polygon fill="midnightblue" stroke="midnightblue" points="849.5,-236.009 846,-226.009 842.5,-236.009 849.5,-236.009"/>
</g>
</g>
</svg>
