<?xml version="1.0" encoding="UTF-8" standalone="no"?>
<!DOCTYPE svg PUBLIC "-//W3C//DTD SVG 1.1//EN"
 "http://www.w3.org/Graphics/SVG/1.1/DTD/svg11.dtd">
<!-- Generated by graphviz version 2.38.0 (20140413.2041)
 -->
<!-- Title: /home/lucamuratore/advr&#45;superbuild/external/XCM/src/XBotCommunicationHandler.cpp Pages: 1 -->
<svg width="2111pt" height="430pt"
 viewBox="0.00 0.00 2110.50 430.00" xmlns="http://www.w3.org/2000/svg" xmlns:xlink="http://www.w3.org/1999/xlink">
<g id="graph0" class="graph" transform="scale(1 1) rotate(0) translate(4 426)">
<title>/home/lucamuratore/advr&#45;superbuild/external/XCM/src/XBotCommunicationHandler.cpp</title>
<!-- Node1 -->
<g id="node1" class="node"><title>Node1</title>
<polygon fill="#bfbfbf" stroke="black" points="911.5,-380.5 911.5,-421.5 1115.5,-421.5 1115.5,-380.5 911.5,-380.5"/>
<text text-anchor="start" x="919.5" y="-409.5" font-family="Helvetica,sans-Serif" font-size="10.00">/home/lucamuratore</text>
<text text-anchor="start" x="919.5" y="-398.5" font-family="Helvetica,sans-Serif" font-size="10.00">/advr&#45;superbuild/external</text>
<text text-anchor="middle" x="1013.5" y="-387.5" font-family="Helvetica,sans-Serif" font-size="10.00">/XCM/src/XBotCommunicationHandler.cpp</text>
</g>
<!-- Node2 -->
<g id="node2" class="node"><title>Node2</title>
<g id="a_node2"><a xlink:href="XBotCommunicationHandler_8h.html" target="_top" xlink:title="XCM/XBotCommunicationHandler.h">
<polygon fill="none" stroke="black" points="926.5,-324.5 926.5,-343.5 1100.5,-343.5 1100.5,-324.5 926.5,-324.5"/>
<text text-anchor="middle" x="1013.5" y="-331.5" font-family="Helvetica,sans-Serif" font-size="10.00">XCM/XBotCommunicationHandler.h</text>
</a>
</g>
</g>
<!-- Node1&#45;&gt;Node2 -->
<g id="edge1" class="edge"><title>Node1&#45;&gt;Node2</title>
<path fill="none" stroke="midnightblue" d="M1013.5,-380.498C1013.5,-372.065 1013.5,-362.235 1013.5,-353.874"/>
<polygon fill="midnightblue" stroke="midnightblue" points="1017,-353.652 1013.5,-343.652 1010,-353.653 1017,-353.652"/>
</g>
<!-- Node3 -->
<g id="node3" class="node"><title>Node3</title>
<g id="a_node3"><a xlink:href="XBotThread_8h.html" target="_top" xlink:title="XCM/XBotThread.h">
<polygon fill="none" stroke="black" points="417.5,-140 417.5,-159 519.5,-159 519.5,-140 417.5,-140"/>
<text text-anchor="middle" x="468.5" y="-147" font-family="Helvetica,sans-Serif" font-size="10.00">XCM/XBotThread.h</text>
</a>
</g>
</g>
<!-- Node2&#45;&gt;Node3 -->
<g id="edge2" class="edge"><title>Node2&#45;&gt;Node3</title>
<path fill="none" stroke="midnightblue" d="M987.945,-324.442C899.35,-294.776 605.269,-196.299 503.511,-162.224"/>
<polygon fill="midnightblue" stroke="midnightblue" points="504.594,-158.896 494,-159.039 502.371,-165.533 504.594,-158.896"/>
</g>
<!-- Node28 -->
<g id="node28" class="node"><title>Node28</title>
<g id="a_node28"><a xlink:href="XBotCommunicationInterface_8h.html" target="_top" xlink:title="XCM/XBotCommunicationInterface.h">
<polygon fill="none" stroke="black" points="1221,-78.5 1221,-97.5 1400,-97.5 1400,-78.5 1221,-78.5"/>
<text text-anchor="middle" x="1310.5" y="-85.5" font-family="Helvetica,sans-Serif" font-size="10.00">XCM/XBotCommunicationInterface.h</text>
</a>
</g>
</g>
<!-- Node2&#45;&gt;Node28 -->
<g id="edge27" class="edge"><title>Node2&#45;&gt;Node28</title>
<path fill="none" stroke="midnightblue" d="M1011.86,-324.311C1008.01,-301.125 1000.98,-237.103 1032.5,-201 1070.8,-157.127 1104.22,-186.114 1158.5,-165 1205.39,-146.759 1257.27,-119.093 1286.67,-102.655"/>
<polygon fill="midnightblue" stroke="midnightblue" points="1288.4,-105.697 1295.39,-97.7384 1284.96,-99.5993 1288.4,-105.697"/>
</g>
<!-- Node30 -->
<g id="node30" class="node"><title>Node30</title>
<g id="a_node30"><a xlink:href="XBotXDDP_8h.html" target="_top" xlink:title="XCM/XBotXDDP.h">
<polygon fill="none" stroke="black" points="1206,-268.5 1206,-287.5 1307,-287.5 1307,-268.5 1206,-268.5"/>
<text text-anchor="middle" x="1256.5" y="-275.5" font-family="Helvetica,sans-Serif" font-size="10.00">XCM/XBotXDDP.h</text>
</a>
</g>
</g>
<!-- Node2&#45;&gt;Node30 -->
<g id="edge29" class="edge"><title>Node2&#45;&gt;Node30</title>
<path fill="none" stroke="midnightblue" d="M1052,-324.444C1094.31,-315.043 1162.32,-299.929 1208.17,-289.739"/>
<polygon fill="midnightblue" stroke="midnightblue" points="1209.17,-293.102 1218.18,-287.516 1207.65,-286.269 1209.17,-293.102"/>
</g>
<!-- Node39 -->
<g id="node39" class="node"><title>Node39</title>
<g id="a_node39"><a xlink:href="XDomainCommunication_8h.html" target="_top" xlink:title="XBotCore&#45;interfaces\l/XDomainCommunication.h">
<polygon fill="none" stroke="black" points="848,-201.5 848,-231.5 985,-231.5 985,-201.5 848,-201.5"/>
<text text-anchor="start" x="856" y="-219.5" font-family="Helvetica,sans-Serif" font-size="10.00">XBotCore&#45;interfaces</text>
<text text-anchor="middle" x="916.5" y="-208.5" font-family="Helvetica,sans-Serif" font-size="10.00">/XDomainCommunication.h</text>
</a>
</g>
</g>
<!-- Node2&#45;&gt;Node39 -->
<g id="edge64" class="edge"><title>Node2&#45;&gt;Node39</title>
<path fill="none" stroke="midnightblue" d="M1006.21,-324.319C991.181,-306.424 956.363,-264.966 934.792,-239.281"/>
<polygon fill="midnightblue" stroke="midnightblue" points="937.407,-236.952 928.296,-231.545 932.047,-241.454 937.407,-236.952"/>
</g>
<!-- Node47 -->
<g id="node47" class="node"><title>Node47</title>
<g id="a_node47"><a xlink:href="IOPlugin_8h.html" target="_top" xlink:title="XCM/IOPlugin.h">
<polygon fill="none" stroke="black" points="1692.5,-268.5 1692.5,-287.5 1780.5,-287.5 1780.5,-268.5 1692.5,-268.5"/>
<text text-anchor="middle" x="1736.5" y="-275.5" font-family="Helvetica,sans-Serif" font-size="10.00">XCM/IOPlugin.h</text>
</a>
</g>
</g>
<!-- Node2&#45;&gt;Node47 -->
<g id="edge59" class="edge"><title>Node2&#45;&gt;Node47</title>
<path fill="none" stroke="midnightblue" d="M1100.71,-326.486C1251.77,-315.204 1557.83,-292.345 1682.16,-283.059"/>
<polygon fill="midnightblue" stroke="midnightblue" points="1682.49,-286.544 1692.2,-282.308 1681.97,-279.563 1682.49,-286.544"/>
</g>
<!-- Node4 -->
<g id="node4" class="node"><title>Node4</title>
<polygon fill="none" stroke="#bfbfbf" points="239,-78.5 239,-97.5 296,-97.5 296,-78.5 239,-78.5"/>
<text text-anchor="middle" x="267.5" y="-85.5" font-family="Helvetica,sans-Serif" font-size="10.00">pthread.h</text>
</g>
<!-- Node3&#45;&gt;Node4 -->
<g id="edge3" class="edge"><title>Node3&#45;&gt;Node4</title>
<path fill="none" stroke="midnightblue" d="M439.702,-139.975C404.626,-129.592 345.237,-112.012 306.193,-100.454"/>
<polygon fill="midnightblue" stroke="midnightblue" points="306.827,-96.9916 296.245,-97.5091 304.84,-103.704 306.827,-96.9916"/>
</g>
<!-- Node5 -->
<g id="node5" class="node"><title>Node5</title>
<polygon fill="none" stroke="#bfbfbf" points="146.5,-78.5 146.5,-97.5 220.5,-97.5 220.5,-78.5 146.5,-78.5"/>
<text text-anchor="middle" x="183.5" y="-85.5" font-family="Helvetica,sans-Serif" font-size="10.00">linux/sched.h</text>
</g>
<!-- Node3&#45;&gt;Node5 -->
<g id="edge4" class="edge"><title>Node3&#45;&gt;Node5</title>
<path fill="none" stroke="midnightblue" d="M427.666,-139.975C375.503,-129.085 285.416,-110.277 230.465,-98.805"/>
<polygon fill="midnightblue" stroke="midnightblue" points="231.135,-95.3695 220.631,-96.7519 229.704,-102.222 231.135,-95.3695"/>
</g>
<!-- Node6 -->
<g id="node6" class="node"><title>Node6</title>
<polygon fill="none" stroke="#bfbfbf" points="567,-78.5 567,-97.5 618,-97.5 618,-78.5 567,-78.5"/>
<text text-anchor="middle" x="592.5" y="-85.5" font-family="Helvetica,sans-Serif" font-size="10.00">unistd.h</text>
</g>
<!-- Node3&#45;&gt;Node6 -->
<g id="edge5" class="edge"><title>Node3&#45;&gt;Node6</title>
<path fill="none" stroke="midnightblue" d="M486.266,-139.975C506.984,-130.034 541.452,-113.495 565.489,-101.961"/>
<polygon fill="midnightblue" stroke="midnightblue" points="567.265,-104.991 574.767,-97.5091 564.237,-98.6797 567.265,-104.991"/>
</g>
<!-- Node7 -->
<g id="node7" class="node"><title>Node7</title>
<polygon fill="none" stroke="#bfbfbf" points="314.5,-78.5 314.5,-97.5 362.5,-97.5 362.5,-78.5 314.5,-78.5"/>
<text text-anchor="middle" x="338.5" y="-85.5" font-family="Helvetica,sans-Serif" font-size="10.00">stdlib.h</text>
</g>
<!-- Node3&#45;&gt;Node7 -->
<g id="edge6" class="edge"><title>Node3&#45;&gt;Node7</title>
<path fill="none" stroke="midnightblue" d="M449.874,-139.975C428.057,-129.99 391.696,-113.348 366.483,-101.807"/>
<polygon fill="midnightblue" stroke="midnightblue" points="367.641,-98.4884 357.091,-97.5091 364.728,-104.853 367.641,-98.4884"/>
</g>
<!-- Node8 -->
<g id="node8" class="node"><title>Node8</title>
<polygon fill="none" stroke="#bfbfbf" points="480.5,-78.5 480.5,-97.5 548.5,-97.5 548.5,-78.5 480.5,-78.5"/>
<text text-anchor="middle" x="514.5" y="-85.5" font-family="Helvetica,sans-Serif" font-size="10.00">sys/types.h</text>
</g>
<!-- Node3&#45;&gt;Node8 -->
<g id="edge7" class="edge"><title>Node3&#45;&gt;Node8</title>
<path fill="none" stroke="midnightblue" d="M475.091,-139.975C481.991,-131.05 493.002,-116.807 501.634,-105.643"/>
<polygon fill="midnightblue" stroke="midnightblue" points="504.574,-107.561 507.922,-97.5091 499.036,-103.28 504.574,-107.561"/>
</g>
<!-- Node9 -->
<g id="node9" class="node"><title>Node9</title>
<polygon fill="none" stroke="#bfbfbf" points="380.5,-78.5 380.5,-97.5 462.5,-97.5 462.5,-78.5 380.5,-78.5"/>
<text text-anchor="middle" x="421.5" y="-85.5" font-family="Helvetica,sans-Serif" font-size="10.00">bits/local_lim.h</text>
</g>
<!-- Node3&#45;&gt;Node9 -->
<g id="edge8" class="edge"><title>Node3&#45;&gt;Node9</title>
<path fill="none" stroke="midnightblue" d="M461.766,-139.975C454.716,-131.05 443.465,-116.807 434.646,-105.643"/>
<polygon fill="midnightblue" stroke="midnightblue" points="437.167,-103.187 428.221,-97.5091 431.674,-107.526 437.167,-103.187"/>
</g>
<!-- Node10 -->
<g id="node10" class="node"><title>Node10</title>
<polygon fill="none" stroke="#bfbfbf" points="0,-78.5 0,-97.5 59,-97.5 59,-78.5 0,-78.5"/>
<text text-anchor="middle" x="29.5" y="-85.5" font-family="Helvetica,sans-Serif" font-size="10.00">exception</text>
</g>
<!-- Node3&#45;&gt;Node10 -->
<g id="edge9" class="edge"><title>Node3&#45;&gt;Node10</title>
<path fill="none" stroke="midnightblue" d="M417.276,-143.826C342.717,-136.632 199.797,-121.371 69.4664,-98.2054"/>
<polygon fill="midnightblue" stroke="midnightblue" points="69.7688,-94.7037 59.3073,-96.3787 68.53,-101.593 69.7688,-94.7037"/>
</g>
<!-- Node11 -->
<g id="node11" class="node"><title>Node11</title>
<polygon fill="none" stroke="#bfbfbf" points="77,-78.5 77,-97.5 128,-97.5 128,-78.5 77,-78.5"/>
<text text-anchor="middle" x="102.5" y="-85.5" font-family="Helvetica,sans-Serif" font-size="10.00">typeinfo</text>
</g>
<!-- Node3&#45;&gt;Node11 -->
<g id="edge10" class="edge"><title>Node3&#45;&gt;Node11</title>
<path fill="none" stroke="midnightblue" d="M417.468,-142.33C354.19,-134.32 242.884,-119.062 137.861,-97.8849"/>
<polygon fill="midnightblue" stroke="midnightblue" points="138.543,-94.4519 128.046,-95.8842 137.145,-101.311 138.543,-94.4519"/>
</g>
<!-- Node12 -->
<g id="node12" class="node"><title>Node12</title>
<polygon fill="none" stroke="#bfbfbf" points="808.5,-78.5 808.5,-97.5 862.5,-97.5 862.5,-78.5 808.5,-78.5"/>
<text text-anchor="middle" x="835.5" y="-85.5" font-family="Helvetica,sans-Serif" font-size="10.00">iostream</text>
</g>
<!-- Node3&#45;&gt;Node12 -->
<g id="edge11" class="edge"><title>Node3&#45;&gt;Node12</title>
<path fill="none" stroke="midnightblue" d="M519.51,-142.225C582.703,-134.117 693.827,-118.77 798.343,-98.0742"/>
<polygon fill="midnightblue" stroke="midnightblue" points="799.316,-101.449 808.435,-96.0547 797.942,-94.585 799.316,-101.449"/>
</g>
<!-- Node13 -->
<g id="node13" class="node"><title>Node13</title>
<polygon fill="none" stroke="#bfbfbf" points="880.5,-78.5 880.5,-97.5 932.5,-97.5 932.5,-78.5 880.5,-78.5"/>
<text text-anchor="middle" x="906.5" y="-85.5" font-family="Helvetica,sans-Serif" font-size="10.00">memory</text>
</g>
<!-- Node3&#45;&gt;Node13 -->
<g id="edge12" class="edge"><title>Node3&#45;&gt;Node13</title>
<path fill="none" stroke="midnightblue" d="M519.719,-144.184C594.705,-137.403 738.867,-122.62 870.361,-98.0089"/>
<polygon fill="midnightblue" stroke="midnightblue" points="871.034,-101.444 880.207,-96.1428 869.731,-94.5661 871.034,-101.444"/>
</g>
<!-- Node14 -->
<g id="node14" class="node"><title>Node14</title>
<g id="a_node14"><a xlink:href="XBotUtils_8h.html" target="_top" xlink:title="XCM/XBotUtils.h">
<polygon fill="none" stroke="black" points="636.5,-78.5 636.5,-97.5 728.5,-97.5 728.5,-78.5 636.5,-78.5"/>
<text text-anchor="middle" x="682.5" y="-85.5" font-family="Helvetica,sans-Serif" font-size="10.00">XCM/XBotUtils.h</text>
</a>
</g>
</g>
<!-- Node3&#45;&gt;Node14 -->
<g id="edge13" class="edge"><title>Node3&#45;&gt;Node14</title>
<path fill="none" stroke="midnightblue" d="M499.161,-139.975C536.744,-129.526 600.544,-111.787 642.098,-100.233"/>
<polygon fill="midnightblue" stroke="midnightblue" points="643.199,-103.56 651.896,-97.5091 641.324,-96.8158 643.199,-103.56"/>
</g>
<!-- Node15 -->
<g id="node15" class="node"><title>Node15</title>
<polygon fill="none" stroke="#bfbfbf" points="1355,-11.5 1355,-30.5 1404,-30.5 1404,-11.5 1355,-11.5"/>
<text text-anchor="middle" x="1379.5" y="-18.5" font-family="Helvetica,sans-Serif" font-size="10.00">stdint.h</text>
</g>
<!-- Node14&#45;&gt;Node15 -->
<g id="edge14" class="edge"><title>Node14&#45;&gt;Node15</title>
<path fill="none" stroke="midnightblue" d="M728.666,-79.091C731.651,-78.6894 734.615,-78.3204 737.5,-78 872.241,-63.0336 1217.06,-82.3166 1346.5,-42 1351.01,-40.5948 1355.54,-38.4458 1359.74,-36.0695"/>
<polygon fill="midnightblue" stroke="midnightblue" points="1361.66,-38.9961 1368.25,-30.7048 1357.93,-33.0733 1361.66,-38.9961"/>
</g>
<!-- Node16 -->
<g id="node16" class="node"><title>Node16</title>
<polygon fill="none" stroke="#bfbfbf" points="524.5,-11.5 524.5,-30.5 570.5,-30.5 570.5,-11.5 524.5,-11.5"/>
<text text-anchor="middle" x="547.5" y="-18.5" font-family="Helvetica,sans-Serif" font-size="10.00">stdio.h</text>
</g>
<!-- Node14&#45;&gt;Node16 -->
<g id="edge15" class="edge"><title>Node14&#45;&gt;Node16</title>
<path fill="none" stroke="midnightblue" d="M660.361,-78.4269C639.2,-69.9776 606.6,-56.2901 579.5,-42 576.052,-40.1818 572.478,-38.1284 569.023,-36.0473"/>
<polygon fill="midnightblue" stroke="midnightblue" points="570.66,-32.9431 560.323,-30.6166 566.953,-38.8811 570.66,-32.9431"/>
</g>
<!-- Node17 -->
<g id="node17" class="node"><title>Node17</title>
<polygon fill="none" stroke="#bfbfbf" points="588.5,-11.5 588.5,-30.5 638.5,-30.5 638.5,-11.5 588.5,-11.5"/>
<text text-anchor="middle" x="613.5" y="-18.5" font-family="Helvetica,sans-Serif" font-size="10.00">fstream</text>
</g>
<!-- Node14&#45;&gt;Node17 -->
<g id="edge16" class="edge"><title>Node14&#45;&gt;Node17</title>
<path fill="none" stroke="midnightblue" d="M673.194,-78.2338C662.228,-67.903 643.793,-50.5371 630.306,-37.8315"/>
<polygon fill="midnightblue" stroke="midnightblue" points="632.337,-34.9366 622.658,-30.6273 627.537,-40.0319 632.337,-34.9366"/>
</g>
<!-- Node18 -->
<g id="node18" class="node"><title>Node18</title>
<polygon fill="none" stroke="#bfbfbf" points="656.5,-11.5 656.5,-30.5 708.5,-30.5 708.5,-11.5 656.5,-11.5"/>
<text text-anchor="middle" x="682.5" y="-18.5" font-family="Helvetica,sans-Serif" font-size="10.00">sstream</text>
</g>
<!-- Node14&#45;&gt;Node18 -->
<g id="edge17" class="edge"><title>Node14&#45;&gt;Node18</title>
<path fill="none" stroke="midnightblue" d="M682.5,-78.2338C682.5,-68.6826 682.5,-53.1183 682.5,-40.7829"/>
<polygon fill="midnightblue" stroke="midnightblue" points="686,-40.6273 682.5,-30.6273 679,-40.6273 686,-40.6273"/>
</g>
<!-- Node19 -->
<g id="node19" class="node"><title>Node19</title>
<polygon fill="none" stroke="#bfbfbf" points="726.5,-11.5 726.5,-30.5 850.5,-30.5 850.5,-11.5 726.5,-11.5"/>
<text text-anchor="middle" x="788.5" y="-18.5" font-family="Helvetica,sans-Serif" font-size="10.00">boost/circular_buffer.hpp</text>
</g>
<!-- Node14&#45;&gt;Node19 -->
<g id="edge18" class="edge"><title>Node14&#45;&gt;Node19</title>
<path fill="none" stroke="midnightblue" d="M696.796,-78.2338C714.517,-67.3669 744.932,-48.7161 765.844,-35.8931"/>
<polygon fill="midnightblue" stroke="midnightblue" points="767.736,-38.8386 774.431,-30.6273 764.076,-32.8712 767.736,-38.8386"/>
</g>
<!-- Node20 -->
<g id="node20" class="node"><title>Node20</title>
<polygon fill="none" stroke="#bfbfbf" points="868.5,-6 868.5,-36 970.5,-36 970.5,-6 868.5,-6"/>
<text text-anchor="start" x="876.5" y="-24" font-family="Helvetica,sans-Serif" font-size="10.00">boost/accumulators</text>
<text text-anchor="middle" x="919.5" y="-13" font-family="Helvetica,sans-Serif" font-size="10.00">/accumulators.hpp</text>
</g>
<!-- Node14&#45;&gt;Node20 -->
<g id="edge19" class="edge"><title>Node14&#45;&gt;Node20</title>
<path fill="none" stroke="midnightblue" d="M719.323,-78.4651C755.273,-69.9384 811.429,-56.1022 859.5,-42 862.608,-41.0882 865.797,-40.1209 869.006,-39.1231"/>
<polygon fill="midnightblue" stroke="midnightblue" points="870.165,-42.4273 878.635,-36.063 868.045,-35.7561 870.165,-42.4273"/>
</g>
<!-- Node21 -->
<g id="node21" class="node"><title>Node21</title>
<polygon fill="none" stroke="#bfbfbf" points="989,-6 989,-36 1094,-36 1094,-6 989,-6"/>
<text text-anchor="start" x="997" y="-24" font-family="Helvetica,sans-Serif" font-size="10.00">boost/accumulators</text>
<text text-anchor="middle" x="1041.5" y="-13" font-family="Helvetica,sans-Serif" font-size="10.00">/statistics/count.hpp</text>
</g>
<!-- Node14&#45;&gt;Node21 -->
<g id="edge20" class="edge"><title>Node14&#45;&gt;Node21</title>
<path fill="none" stroke="midnightblue" d="M728.706,-79.3891C731.681,-78.9145 734.632,-78.4479 737.5,-78 844.937,-61.2195 873.621,-66.7752 979.5,-42 983.354,-41.0981 987.314,-40.0689 991.277,-38.9642"/>
<polygon fill="midnightblue" stroke="midnightblue" points="992.469,-42.2624 1001.08,-36.092 990.5,-35.5448 992.469,-42.2624"/>
</g>
<!-- Node22 -->
<g id="node22" class="node"><title>Node22</title>
<polygon fill="none" stroke="#bfbfbf" points="1112,-6 1112,-36 1217,-36 1217,-6 1112,-6"/>
<text text-anchor="start" x="1120" y="-24" font-family="Helvetica,sans-Serif" font-size="10.00">boost/accumulators</text>
<text text-anchor="middle" x="1164.5" y="-13" font-family="Helvetica,sans-Serif" font-size="10.00">/statistics/mean.hpp</text>
</g>
<!-- Node14&#45;&gt;Node22 -->
<g id="edge21" class="edge"><title>Node14&#45;&gt;Node22</title>
<path fill="none" stroke="midnightblue" d="M728.682,-79.2233C731.663,-78.7893 734.622,-78.377 737.5,-78 899.128,-56.8271 942.91,-75.2116 1102.5,-42 1106.67,-41.1316 1110.96,-40.0854 1115.24,-38.9326"/>
<polygon fill="midnightblue" stroke="midnightblue" points="1116.51,-42.2105 1125.15,-36.0827 1114.57,-35.4832 1116.51,-42.2105"/>
</g>
<!-- Node23 -->
<g id="node23" class="node"><title>Node23</title>
<polygon fill="none" stroke="#bfbfbf" points="1235.5,-6 1235.5,-36 1337.5,-36 1337.5,-6 1235.5,-6"/>
<text text-anchor="start" x="1243.5" y="-24" font-family="Helvetica,sans-Serif" font-size="10.00">boost/accumulators</text>
<text text-anchor="middle" x="1286.5" y="-13" font-family="Helvetica,sans-Serif" font-size="10.00">/statistics/min.hpp</text>
</g>
<!-- Node14&#45;&gt;Node23 -->
<g id="edge22" class="edge"><title>Node14&#45;&gt;Node23</title>
<path fill="none" stroke="midnightblue" d="M728.672,-79.1402C731.655,-78.7265 734.617,-78.3415 737.5,-78 953.468,-52.4148 1012.15,-84.1892 1225.5,-42 1229.86,-41.1375 1234.34,-40.0583 1238.81,-38.8507"/>
<polygon fill="midnightblue" stroke="midnightblue" points="1239.86,-42.1901 1248.48,-36.0364 1237.9,-35.4686 1239.86,-42.1901"/>
</g>
<!-- Node24 -->
<g id="node24" class="node"><title>Node24</title>
<polygon fill="none" stroke="#bfbfbf" points="16.5,-6 16.5,-36 118.5,-36 118.5,-6 16.5,-6"/>
<text text-anchor="start" x="24.5" y="-24" font-family="Helvetica,sans-Serif" font-size="10.00">boost/accumulators</text>
<text text-anchor="middle" x="67.5" y="-13" font-family="Helvetica,sans-Serif" font-size="10.00">/statistics/max.hpp</text>
</g>
<!-- Node14&#45;&gt;Node24 -->
<g id="edge23" class="edge"><title>Node14&#45;&gt;Node24</title>
<path fill="none" stroke="midnightblue" d="M636.399,-79.2639C633.054,-78.803 629.728,-78.3751 626.5,-78 405.632,-52.3342 345.558,-85.4959 127.5,-42 123.321,-41.1664 119.029,-40.1258 114.756,-38.9602"/>
<polygon fill="midnightblue" stroke="midnightblue" points="115.461,-35.5192 104.88,-36.052 113.484,-42.2341 115.461,-35.5192"/>
</g>
<!-- Node25 -->
<g id="node25" class="node"><title>Node25</title>
<polygon fill="none" stroke="#bfbfbf" points="136.5,-6 136.5,-36 254.5,-36 254.5,-6 136.5,-6"/>
<text text-anchor="start" x="144.5" y="-24" font-family="Helvetica,sans-Serif" font-size="10.00">boost/accumulators</text>
<text text-anchor="middle" x="195.5" y="-13" font-family="Helvetica,sans-Serif" font-size="10.00">/statistics/variance.hpp</text>
</g>
<!-- Node14&#45;&gt;Node25 -->
<g id="edge24" class="edge"><title>Node14&#45;&gt;Node25</title>
<path fill="none" stroke="midnightblue" d="M636.387,-79.3624C633.045,-78.8784 629.722,-78.4183 626.5,-78 465.724,-57.1276 422.632,-73.0088 263.5,-42 258.569,-41.0391 253.481,-39.8759 248.411,-38.5995"/>
<polygon fill="midnightblue" stroke="midnightblue" points="249.295,-35.2131 238.732,-36.0287 247.498,-41.9785 249.295,-35.2131"/>
</g>
<!-- Node26 -->
<g id="node26" class="node"><title>Node26</title>
<polygon fill="none" stroke="#bfbfbf" points="272.5,-6 272.5,-36 386.5,-36 386.5,-6 272.5,-6"/>
<text text-anchor="start" x="280.5" y="-24" font-family="Helvetica,sans-Serif" font-size="10.00">boost/accumulators</text>
<text text-anchor="middle" x="329.5" y="-13" font-family="Helvetica,sans-Serif" font-size="10.00">/statistics/error_of.hpp</text>
</g>
<!-- Node14&#45;&gt;Node26 -->
<g id="edge25" class="edge"><title>Node14&#45;&gt;Node26</title>
<path fill="none" stroke="midnightblue" d="M636.358,-79.5665C633.022,-79.0346 629.71,-78.508 626.5,-78 523.872,-61.7562 496.8,-65.1231 395.5,-42 391.364,-41.0558 387.108,-39.9898 382.844,-38.8537"/>
<polygon fill="midnightblue" stroke="midnightblue" points="383.509,-35.4058 372.937,-36.1002 381.635,-42.1502 383.509,-35.4058"/>
</g>
<!-- Node27 -->
<g id="node27" class="node"><title>Node27</title>
<polygon fill="none" stroke="#bfbfbf" points="404.5,-0.5 404.5,-41.5 506.5,-41.5 506.5,-0.5 404.5,-0.5"/>
<text text-anchor="start" x="412.5" y="-29.5" font-family="Helvetica,sans-Serif" font-size="10.00">boost/accumulators</text>
<text text-anchor="start" x="412.5" y="-18.5" font-family="Helvetica,sans-Serif" font-size="10.00">/statistics/error_of</text>
<text text-anchor="middle" x="455.5" y="-7.5" font-family="Helvetica,sans-Serif" font-size="10.00">_mean.hpp</text>
</g>
<!-- Node14&#45;&gt;Node27 -->
<g id="edge26" class="edge"><title>Node14&#45;&gt;Node27</title>
<path fill="none" stroke="midnightblue" d="M648.431,-78.443C616.616,-70.3148 567.605,-57.4444 516.688,-42.2862"/>
<polygon fill="midnightblue" stroke="midnightblue" points="517.408,-38.8481 506.824,-39.3275 515.397,-45.553 517.408,-38.8481"/>
</g>
<!-- Node29 -->
<g id="node29" class="node"><title>Node29</title>
<polygon fill="none" stroke="#bfbfbf" points="1422.5,-11.5 1422.5,-30.5 1574.5,-30.5 1574.5,-11.5 1422.5,-11.5"/>
<text text-anchor="middle" x="1498.5" y="-18.5" font-family="Helvetica,sans-Serif" font-size="10.00">XBotInterface/RobotInterface.h</text>
</g>
<!-- Node28&#45;&gt;Node29 -->
<g id="edge28" class="edge"><title>Node28&#45;&gt;Node29</title>
<path fill="none" stroke="midnightblue" d="M1335.46,-78.3685C1368.42,-66.9732 1426.62,-46.8528 1463.83,-33.9869"/>
<polygon fill="midnightblue" stroke="midnightblue" points="1465.42,-37.1393 1473.73,-30.5637 1463.14,-30.5235 1465.42,-37.1393"/>
</g>
<!-- Node31 -->
<g id="node31" class="node"><title>Node31</title>
<g id="a_node31"><a xlink:href="XBotESC_8h.html" target="_top" xlink:title="XBotCore&#45;interfaces\l/XBotESC.h">
<polygon fill="none" stroke="black" points="1503,-134.5 1503,-164.5 1608,-164.5 1608,-134.5 1503,-134.5"/>
<text text-anchor="start" x="1511" y="-152.5" font-family="Helvetica,sans-Serif" font-size="10.00">XBotCore&#45;interfaces</text>
<text text-anchor="middle" x="1555.5" y="-141.5" font-family="Helvetica,sans-Serif" font-size="10.00">/XBotESC.h</text>
</a>
</g>
</g>
<!-- Node30&#45;&gt;Node31 -->
<g id="edge30" class="edge"><title>Node30&#45;&gt;Node31</title>
<path fill="none" stroke="midnightblue" d="M1307.17,-277.631C1388.85,-277.445 1543.95,-271.711 1578.5,-232 1592.72,-215.659 1582.95,-191.136 1572.1,-173.259"/>
<polygon fill="midnightblue" stroke="midnightblue" points="1574.85,-171.058 1566.45,-164.595 1568.98,-174.882 1574.85,-171.058"/>
</g>
<!-- Node32 -->
<g id="node32" class="node"><title>Node32</title>
<polygon fill="none" stroke="#bfbfbf" points="1277.5,-207 1277.5,-226 1323.5,-226 1323.5,-207 1277.5,-207"/>
<text text-anchor="middle" x="1300.5" y="-214" font-family="Helvetica,sans-Serif" font-size="10.00">cstring</text>
</g>
<!-- Node30&#45;&gt;Node32 -->
<g id="edge32" class="edge"><title>Node30&#45;&gt;Node32</title>
<path fill="none" stroke="midnightblue" d="M1262.8,-268.475C1269.4,-259.55 1279.94,-245.307 1288.19,-234.143"/>
<polygon fill="midnightblue" stroke="midnightblue" points="1291.08,-236.131 1294.21,-226.009 1285.45,-231.968 1291.08,-236.131"/>
</g>
<!-- Node33 -->
<g id="node33" class="node"><title>Node33</title>
<g id="a_node33"><a xlink:href="IXBotJoint_8h.html" target="_top" xlink:title="XBotCore&#45;interfaces\l/IXBotJoint.h">
<polygon fill="none" stroke="black" points="1342,-201.5 1342,-231.5 1447,-231.5 1447,-201.5 1342,-201.5"/>
<text text-anchor="start" x="1350" y="-219.5" font-family="Helvetica,sans-Serif" font-size="10.00">XBotCore&#45;interfaces</text>
<text text-anchor="middle" x="1394.5" y="-208.5" font-family="Helvetica,sans-Serif" font-size="10.00">/IXBotJoint.h</text>
</a>
</g>
</g>
<!-- Node30&#45;&gt;Node33 -->
<g id="edge33" class="edge"><title>Node30&#45;&gt;Node33</title>
<path fill="none" stroke="midnightblue" d="M1276.27,-268.475C1296.1,-259.927 1327.24,-246.501 1352.58,-235.573"/>
<polygon fill="midnightblue" stroke="midnightblue" points="1354.18,-238.696 1361.98,-231.523 1351.41,-232.268 1354.18,-238.696"/>
</g>
<!-- Node37 -->
<g id="node37" class="node"><title>Node37</title>
<g id="a_node37"><a xlink:href="IXBotFT_8h.html" target="_top" xlink:title="XBotCore&#45;interfaces\l/IXBotFT.h">
<polygon fill="none" stroke="black" points="1042,-201.5 1042,-231.5 1147,-231.5 1147,-201.5 1042,-201.5"/>
<text text-anchor="start" x="1050" y="-219.5" font-family="Helvetica,sans-Serif" font-size="10.00">XBotCore&#45;interfaces</text>
<text text-anchor="middle" x="1094.5" y="-208.5" font-family="Helvetica,sans-Serif" font-size="10.00">/IXBotFT.h</text>
</a>
</g>
</g>
<!-- Node30&#45;&gt;Node37 -->
<g id="edge38" class="edge"><title>Node30&#45;&gt;Node37</title>
<path fill="none" stroke="midnightblue" d="M1233.29,-268.475C1209.61,-259.776 1172.17,-246.026 1142.14,-234.998"/>
<polygon fill="midnightblue" stroke="midnightblue" points="1143.27,-231.685 1132.68,-231.523 1140.86,-238.256 1143.27,-231.685"/>
</g>
<!-- Node38 -->
<g id="node38" class="node"><title>Node38</title>
<g id="a_node38"><a xlink:href="IXBotIMU_8h.html" target="_top" xlink:title="XBotCore&#45;interfaces\l/IXBotIMU.h">
<polygon fill="none" stroke="black" points="1465,-201.5 1465,-231.5 1570,-231.5 1570,-201.5 1465,-201.5"/>
<text text-anchor="start" x="1473" y="-219.5" font-family="Helvetica,sans-Serif" font-size="10.00">XBotCore&#45;interfaces</text>
<text text-anchor="middle" x="1517.5" y="-208.5" font-family="Helvetica,sans-Serif" font-size="10.00">/IXBotIMU.h</text>
</a>
</g>
</g>
<!-- Node30&#45;&gt;Node38 -->
<g id="edge39" class="edge"><title>Node30&#45;&gt;Node38</title>
<path fill="none" stroke="midnightblue" d="M1294.67,-268.456C1332.71,-259.922 1393.06,-246.331 1454.82,-232.147"/>
<polygon fill="midnightblue" stroke="midnightblue" points="1455.78,-235.518 1464.74,-229.867 1454.21,-228.696 1455.78,-235.518"/>
</g>
<!-- Node30&#45;&gt;Node39 -->
<g id="edge41" class="edge"><title>Node30&#45;&gt;Node39</title>
<path fill="none" stroke="midnightblue" d="M1207.79,-268.475C1152.25,-258.756 1060.67,-242.729 995.016,-231.24"/>
<polygon fill="midnightblue" stroke="midnightblue" points="995.572,-227.785 985.119,-229.508 994.366,-234.68 995.572,-227.785"/>
</g>
<!-- Node46 -->
<g id="node46" class="node"><title>Node46</title>
<polygon fill="none" stroke="#bfbfbf" points="1165.5,-207 1165.5,-226 1259.5,-226 1259.5,-207 1165.5,-207"/>
<text text-anchor="middle" x="1212.5" y="-214" font-family="Helvetica,sans-Serif" font-size="10.00">XBotCoreModel.h</text>
</g>
<!-- Node30&#45;&gt;Node46 -->
<g id="edge58" class="edge"><title>Node30&#45;&gt;Node46</title>
<path fill="none" stroke="midnightblue" d="M1250.2,-268.475C1243.6,-259.55 1233.06,-245.307 1224.81,-234.143"/>
<polygon fill="midnightblue" stroke="midnightblue" points="1227.55,-231.968 1218.79,-226.009 1221.92,-236.131 1227.55,-231.968"/>
</g>
<!-- Node31&#45;&gt;Node15 -->
<g id="edge31" class="edge"><title>Node31&#45;&gt;Node15</title>
<path fill="none" stroke="midnightblue" d="M1539.05,-134.429C1521.68,-119.784 1493.29,-96.4543 1467.5,-78 1446.18,-62.7448 1420.83,-46.8353 1402.83,-35.8898"/>
<polygon fill="midnightblue" stroke="midnightblue" points="1404.51,-32.819 1394.14,-30.6482 1400.9,-38.8121 1404.51,-32.819"/>
</g>
<!-- Node33&#45;&gt;Node13 -->
<g id="edge36" class="edge"><title>Node33&#45;&gt;Node13</title>
<path fill="none" stroke="midnightblue" d="M1341.83,-202.71C1338.68,-202.092 1335.55,-201.516 1332.5,-201 1182.23,-175.598 1130.82,-226.775 991.5,-165 961.641,-151.76 934.962,-124.015 919.767,-105.963"/>
<polygon fill="midnightblue" stroke="midnightblue" points="922.297,-103.528 913.267,-97.9863 916.87,-107.949 922.297,-103.528"/>
</g>
<!-- Node34 -->
<g id="node34" class="node"><title>Node34</title>
<polygon fill="none" stroke="#bfbfbf" points="1349,-140 1349,-159 1384,-159 1384,-140 1349,-140"/>
<text text-anchor="middle" x="1366.5" y="-147" font-family="Helvetica,sans-Serif" font-size="10.00">map</text>
</g>
<!-- Node33&#45;&gt;Node34 -->
<g id="edge34" class="edge"><title>Node33&#45;&gt;Node34</title>
<path fill="none" stroke="midnightblue" d="M1388.42,-201.396C1384.27,-191.763 1378.74,-178.914 1374.27,-168.537"/>
<polygon fill="midnightblue" stroke="midnightblue" points="1377.42,-166.994 1370.25,-159.195 1370.99,-169.763 1377.42,-166.994"/>
</g>
<!-- Node35 -->
<g id="node35" class="node"><title>Node35</title>
<polygon fill="none" stroke="#bfbfbf" points="1440.5,-140 1440.5,-159 1484.5,-159 1484.5,-140 1440.5,-140"/>
<text text-anchor="middle" x="1462.5" y="-147" font-family="Helvetica,sans-Serif" font-size="10.00">vector</text>
</g>
<!-- Node33&#45;&gt;Node35 -->
<g id="edge35" class="edge"><title>Node33&#45;&gt;Node35</title>
<path fill="none" stroke="midnightblue" d="M1409.25,-201.396C1420.07,-191.06 1434.75,-177.024 1445.96,-166.309"/>
<polygon fill="midnightblue" stroke="midnightblue" points="1448.59,-168.634 1453.4,-159.195 1443.76,-163.574 1448.59,-168.634"/>
</g>
<!-- Node36 -->
<g id="node36" class="node"><title>Node36</title>
<polygon fill="none" stroke="#bfbfbf" points="1418,-78.5 1418,-97.5 1459,-97.5 1459,-78.5 1418,-78.5"/>
<text text-anchor="middle" x="1438.5" y="-85.5" font-family="Helvetica,sans-Serif" font-size="10.00">string</text>
</g>
<!-- Node33&#45;&gt;Node36 -->
<g id="edge37" class="edge"><title>Node33&#45;&gt;Node36</title>
<path fill="none" stroke="midnightblue" d="M1399.38,-201.479C1407.36,-178.514 1423.23,-132.889 1432.11,-107.37"/>
<polygon fill="midnightblue" stroke="midnightblue" points="1435.46,-108.383 1435.44,-97.7885 1428.85,-106.084 1435.46,-108.383"/>
</g>
<!-- Node38&#45;&gt;Node35 -->
<g id="edge40" class="edge"><title>Node38&#45;&gt;Node35</title>
<path fill="none" stroke="midnightblue" d="M1505.57,-201.396C1496.99,-191.261 1485.4,-177.567 1476.41,-166.937"/>
<polygon fill="midnightblue" stroke="midnightblue" points="1478.99,-164.568 1469.86,-159.195 1473.64,-169.089 1478.99,-164.568"/>
</g>
<!-- Node39&#45;&gt;Node12 -->
<g id="edge57" class="edge"><title>Node39&#45;&gt;Node12</title>
<path fill="none" stroke="midnightblue" d="M911.224,-201.247C904.65,-184.403 892.438,-155.899 877.5,-134 870.29,-123.429 860.636,-112.903 852.403,-104.692"/>
<polygon fill="midnightblue" stroke="midnightblue" points="854.692,-102.036 845.069,-97.6023 849.826,-107.069 854.692,-102.036"/>
</g>
<!-- Node40 -->
<g id="node40" class="node"><title>Node40</title>
<g id="a_node40"><a xlink:href="XBotPipes_8h.html" target="_top" xlink:title="XBotCore&#45;interfaces\l/XBotPipes.h">
<polygon fill="none" stroke="black" points="764,-134.5 764,-164.5 869,-164.5 869,-134.5 764,-134.5"/>
<text text-anchor="start" x="772" y="-152.5" font-family="Helvetica,sans-Serif" font-size="10.00">XBotCore&#45;interfaces</text>
<text text-anchor="middle" x="816.5" y="-141.5" font-family="Helvetica,sans-Serif" font-size="10.00">/XBotPipes.h</text>
</a>
</g>
</g>
<!-- Node39&#45;&gt;Node40 -->
<g id="edge42" class="edge"><title>Node39&#45;&gt;Node40</title>
<path fill="none" stroke="midnightblue" d="M894.801,-201.396C880.78,-192.282 862.331,-180.29 846.863,-170.236"/>
<polygon fill="midnightblue" stroke="midnightblue" points="848.448,-167.092 838.156,-164.577 844.633,-172.961 848.448,-167.092"/>
</g>
<!-- Node41 -->
<g id="node41" class="node"><title>Node41</title>
<polygon fill="none" stroke="#bfbfbf" points="950.5,-78.5 950.5,-97.5 1010.5,-97.5 1010.5,-78.5 950.5,-78.5"/>
<text text-anchor="middle" x="980.5" y="-85.5" font-family="Helvetica,sans-Serif" font-size="10.00">sys/stat.h</text>
</g>
<!-- Node39&#45;&gt;Node41 -->
<g id="edge55" class="edge"><title>Node39&#45;&gt;Node41</title>
<path fill="none" stroke="midnightblue" d="M923.594,-201.479C935.264,-178.411 958.501,-132.482 971.378,-107.029"/>
<polygon fill="midnightblue" stroke="midnightblue" points="974.662,-108.292 976.054,-97.7885 968.416,-105.131 974.662,-108.292"/>
</g>
<!-- Node42 -->
<g id="node42" class="node"><title>Node42</title>
<polygon fill="none" stroke="#bfbfbf" points="746.5,-78.5 746.5,-97.5 790.5,-97.5 790.5,-78.5 746.5,-78.5"/>
<text text-anchor="middle" x="768.5" y="-85.5" font-family="Helvetica,sans-Serif" font-size="10.00">fcntl.h</text>
</g>
<!-- Node39&#45;&gt;Node42 -->
<g id="edge56" class="edge"><title>Node39&#45;&gt;Node42</title>
<path fill="none" stroke="midnightblue" d="M847.731,-212.339C813.9,-206.881 775.887,-194.068 754.5,-165 742.122,-148.175 749.977,-123.706 758.034,-107.113"/>
<polygon fill="midnightblue" stroke="midnightblue" points="761.306,-108.412 762.897,-97.9378 755.121,-105.134 761.306,-108.412"/>
</g>
<!-- Node43 -->
<g id="node43" class="node"><title>Node43</title>
<g id="a_node43"><a xlink:href="CommunicationInterfaceROS_8h.html" target="_top" xlink:title="XCM/CommunicationInterface\lROS.h">
<polygon fill="none" stroke="red" points="1001,-134.5 1001,-164.5 1150,-164.5 1150,-134.5 1001,-134.5"/>
<text text-anchor="start" x="1009" y="-152.5" font-family="Helvetica,sans-Serif" font-size="10.00">XCM/CommunicationInterface</text>
<text text-anchor="middle" x="1075.5" y="-141.5" font-family="Helvetica,sans-Serif" font-size="10.00">ROS.h</text>
</a>
</g>
</g>
<!-- Node39&#45;&gt;Node43 -->
<g id="edge51" class="edge"><title>Node39&#45;&gt;Node43</title>
<path fill="none" stroke="midnightblue" d="M951.001,-201.396C974.649,-191.728 1006.22,-178.823 1031.65,-168.426"/>
<polygon fill="midnightblue" stroke="midnightblue" points="1033.13,-171.6 1041.07,-164.577 1030.49,-165.121 1033.13,-171.6"/>
</g>
<!-- Node40&#45;&gt;Node6 -->
<g id="edge49" class="edge"><title>Node40&#45;&gt;Node6</title>
<path fill="none" stroke="midnightblue" d="M763.982,-134.55C722.021,-123.404 664.369,-108.09 627.769,-98.3683"/>
<polygon fill="midnightblue" stroke="midnightblue" points="628.598,-94.9672 618.035,-95.7826 626.801,-101.733 628.598,-94.9672"/>
</g>
<!-- Node40&#45;&gt;Node8 -->
<g id="edge46" class="edge"><title>Node40&#45;&gt;Node8</title>
<path fill="none" stroke="midnightblue" d="M763.877,-138.459C713.664,-128.829 635.624,-113.733 558.63,-98.2086"/>
<polygon fill="midnightblue" stroke="midnightblue" points="559.254,-94.7641 548.759,-96.2148 557.868,-101.625 559.254,-94.7641"/>
</g>
<!-- Node40&#45;&gt;Node12 -->
<g id="edge45" class="edge"><title>Node40&#45;&gt;Node12</title>
<path fill="none" stroke="midnightblue" d="M821.003,-134.399C823.593,-126.288 826.876,-116.007 829.662,-107.281"/>
<polygon fill="midnightblue" stroke="midnightblue" points="833.027,-108.249 832.735,-97.6578 826.359,-106.119 833.027,-108.249"/>
</g>
<!-- Node40&#45;&gt;Node13 -->
<g id="edge44" class="edge"><title>Node40&#45;&gt;Node13</title>
<path fill="none" stroke="midnightblue" d="M837.829,-134.399C851.985,-125.04 870.511,-112.792 884.753,-103.377"/>
<polygon fill="midnightblue" stroke="midnightblue" points="886.993,-106.092 893.404,-97.6578 883.132,-100.253 886.993,-106.092"/>
</g>
<!-- Node40&#45;&gt;Node14 -->
<g id="edge50" class="edge"><title>Node40&#45;&gt;Node14</title>
<path fill="none" stroke="midnightblue" d="M784.744,-134.399C762.462,-124.505 732.909,-111.383 711.309,-101.792"/>
<polygon fill="midnightblue" stroke="midnightblue" points="712.558,-98.5172 701.998,-97.6578 709.717,-104.915 712.558,-98.5172"/>
</g>
<!-- Node40&#45;&gt;Node36 -->
<g id="edge43" class="edge"><title>Node40&#45;&gt;Node36</title>
<path fill="none" stroke="midnightblue" d="M869.14,-144.081C1001.66,-132.948 1342.61,-104.249 1407.68,-97.0949"/>
<polygon fill="midnightblue" stroke="midnightblue" points="1408.51,-100.516 1417.98,-95.7641 1407.62,-93.5739 1408.51,-100.516"/>
</g>
<!-- Node40&#45;&gt;Node41 -->
<g id="edge47" class="edge"><title>Node40&#45;&gt;Node41</title>
<path fill="none" stroke="midnightblue" d="M855.366,-134.399C883.251,-124.283 920.439,-110.791 947.013,-101.149"/>
<polygon fill="midnightblue" stroke="midnightblue" points="948.43,-104.359 956.637,-97.6578 946.042,-97.7782 948.43,-104.359"/>
</g>
<!-- Node40&#45;&gt;Node42 -->
<g id="edge48" class="edge"><title>Node40&#45;&gt;Node42</title>
<path fill="none" stroke="midnightblue" d="M805.125,-134.399C798.15,-125.753 789.186,-114.642 781.872,-105.576"/>
<polygon fill="midnightblue" stroke="midnightblue" points="784.487,-103.243 775.484,-97.6578 779.039,-107.638 784.487,-103.243"/>
</g>
<!-- Node43&#45;&gt;Node28 -->
<g id="edge52" class="edge"><title>Node43&#45;&gt;Node28</title>
<path fill="none" stroke="midnightblue" d="M1130.89,-134.475C1172.5,-123.941 1228.68,-109.716 1267.06,-99.9978"/>
<polygon fill="midnightblue" stroke="midnightblue" points="1268.07,-103.354 1276.9,-97.5064 1266.35,-96.568 1268.07,-103.354"/>
</g>
<!-- Node44 -->
<g id="node44" class="node"><title>Node44</title>
<polygon fill="none" stroke="#bfbfbf" points="1029,-78.5 1029,-97.5 1084,-97.5 1084,-78.5 1029,-78.5"/>
<text text-anchor="middle" x="1056.5" y="-85.5" font-family="Helvetica,sans-Serif" font-size="10.00">ros/ros.h</text>
</g>
<!-- Node43&#45;&gt;Node44 -->
<g id="edge53" class="edge"><title>Node43&#45;&gt;Node44</title>
<path fill="none" stroke="midnightblue" d="M1071,-134.399C1068.41,-126.288 1065.12,-116.007 1062.34,-107.281"/>
<polygon fill="midnightblue" stroke="midnightblue" points="1065.64,-106.119 1059.26,-97.6578 1058.97,-108.249 1065.64,-106.119"/>
</g>
<!-- Node45 -->
<g id="node45" class="node"><title>Node45</title>
<polygon fill="none" stroke="#bfbfbf" points="1102.5,-78.5 1102.5,-97.5 1202.5,-97.5 1202.5,-78.5 1102.5,-78.5"/>
<text text-anchor="middle" x="1152.5" y="-85.5" font-family="Helvetica,sans-Serif" font-size="10.00">std_srvs/SetBool.h</text>
</g>
<!-- Node43&#45;&gt;Node45 -->
<g id="edge54" class="edge"><title>Node43&#45;&gt;Node45</title>
<path fill="none" stroke="midnightblue" d="M1093.75,-134.399C1105.63,-125.218 1121.11,-113.258 1133.19,-103.918"/>
<polygon fill="midnightblue" stroke="midnightblue" points="1135.52,-106.542 1141.3,-97.6578 1131.24,-101.003 1135.52,-106.542"/>
</g>
<!-- Node47&#45;&gt;Node36 -->
<g id="edge60" class="edge"><title>Node47&#45;&gt;Node36</title>
<path fill="none" stroke="midnightblue" d="M1711.59,-268.383C1693.86,-261.125 1670.58,-249.155 1655.5,-232 1624.55,-196.795 1651.75,-164.905 1616.5,-134 1574.99,-97.6007 1508.16,-89.8567 1469.28,-88.6547"/>
<polygon fill="midnightblue" stroke="midnightblue" points="1469.16,-85.1521 1459.1,-88.4708 1469.03,-92.1509 1469.16,-85.1521"/>
</g>
<!-- Node48 -->
<g id="node48" class="node"><title>Node48</title>
<polygon fill="none" stroke="#bfbfbf" points="1665,-207 1665,-226 1808,-226 1808,-207 1665,-207"/>
<text text-anchor="middle" x="1736.5" y="-214" font-family="Helvetica,sans-Serif" font-size="10.00">SharedLibraryClassFactory.h</text>
</g>
<!-- Node47&#45;&gt;Node48 -->
<g id="edge61" class="edge"><title>Node47&#45;&gt;Node48</title>
<path fill="none" stroke="midnightblue" d="M1736.5,-268.475C1736.5,-260.08 1736.5,-246.981 1736.5,-236.163"/>
<polygon fill="midnightblue" stroke="midnightblue" points="1740,-236.009 1736.5,-226.009 1733,-236.009 1740,-236.009"/>
</g>
<!-- Node49 -->
<g id="node49" class="node"><title>Node49</title>
<polygon fill="none" stroke="#bfbfbf" points="1826.5,-207 1826.5,-226 1936.5,-226 1936.5,-207 1826.5,-207"/>
<text text-anchor="middle" x="1881.5" y="-214" font-family="Helvetica,sans-Serif" font-size="10.00">SharedLibraryClass.h</text>
</g>
<!-- Node47&#45;&gt;Node49 -->
<g id="edge62" class="edge"><title>Node47&#45;&gt;Node49</title>
<path fill="none" stroke="midnightblue" d="M1757.27,-268.475C1781.93,-258.357 1823.25,-241.405 1851.4,-229.851"/>
<polygon fill="midnightblue" stroke="midnightblue" points="1852.84,-233.043 1860.76,-226.009 1850.18,-226.567 1852.84,-233.043"/>
</g>
<!-- Node50 -->
<g id="node50" class="node"><title>Node50</title>
<polygon fill="none" stroke="#bfbfbf" points="1954.5,-207 1954.5,-226 2102.5,-226 2102.5,-207 1954.5,-207"/>
<text text-anchor="middle" x="2028.5" y="-214" font-family="Helvetica,sans-Serif" font-size="10.00">XBotInterface/XBotInterface.h</text>
</g>
<!-- Node47&#45;&gt;Node50 -->
<g id="edge63" class="edge"><title>Node47&#45;&gt;Node50</title>
<path fill="none" stroke="midnightblue" d="M1778.34,-268.475C1830.7,-257.805 1920.37,-239.534 1976.93,-228.009"/>
<polygon fill="midnightblue" stroke="midnightblue" points="1977.64,-231.435 1986.74,-226.009 1976.24,-224.576 1977.64,-231.435"/>
</g>
</g>
</svg>
