<?xml version="1.0" encoding="UTF-8" standalone="no"?>
<!DOCTYPE svg PUBLIC "-//W3C//DTD SVG 1.1//EN"
 "http://www.w3.org/Graphics/SVG/1.1/DTD/svg11.dtd">
<!-- Generated by graphviz version 2.38.0 (20140413.2041)
 -->
<!-- Title: /home/lucamuratore/advr&#45;superbuild/external/XCM/src/XBotXDDP.cpp Pages: 1 -->
<svg width="2431pt" height="385pt"
 viewBox="0.00 0.00 2430.50 385.00" xmlns="http://www.w3.org/2000/svg" xmlns:xlink="http://www.w3.org/1999/xlink">
<g id="graph0" class="graph" transform="scale(1 1) rotate(0) translate(4 381)">
<title>/home/lucamuratore/advr&#45;superbuild/external/XCM/src/XBotXDDP.cpp</title>
<!-- Node1 -->
<g id="node1" class="node"><title>Node1</title>
<polygon fill="#bfbfbf" stroke="black" points="932,-335.5 932,-376.5 1063,-376.5 1063,-335.5 932,-335.5"/>
<text text-anchor="start" x="940" y="-364.5" font-family="Helvetica,sans-Serif" font-size="10.00">/home/lucamuratore</text>
<text text-anchor="start" x="940" y="-353.5" font-family="Helvetica,sans-Serif" font-size="10.00">/advr&#45;superbuild/external</text>
<text text-anchor="middle" x="997.5" y="-342.5" font-family="Helvetica,sans-Serif" font-size="10.00">/XCM/src/XBotXDDP.cpp</text>
</g>
<!-- Node2 -->
<g id="node2" class="node"><title>Node2</title>
<g id="a_node2"><a xlink:href="XBotXDDP_8h.html" target="_top" xlink:title="XCM/XBotXDDP.h">
<polygon fill="none" stroke="black" points="605,-279.5 605,-298.5 706,-298.5 706,-279.5 605,-279.5"/>
<text text-anchor="middle" x="655.5" y="-286.5" font-family="Helvetica,sans-Serif" font-size="10.00">XCM/XBotXDDP.h</text>
</a>
</g>
</g>
<!-- Node1&#45;&gt;Node2 -->
<g id="edge1" class="edge"><title>Node1&#45;&gt;Node2</title>
<path fill="none" stroke="midnightblue" d="M931.964,-342.544C867.7,-330.33 770.833,-311.92 710.472,-300.448"/>
<polygon fill="midnightblue" stroke="midnightblue" points="710.854,-296.958 700.376,-298.529 709.547,-303.835 710.854,-296.958"/>
</g>
<!-- Node17 -->
<g id="node17" class="node"><title>Node17</title>
<polygon fill="none" stroke="#bfbfbf" points="804.5,-84 804.5,-103 864.5,-103 864.5,-84 804.5,-84"/>
<text text-anchor="middle" x="834.5" y="-91" font-family="Helvetica,sans-Serif" font-size="10.00">sys/stat.h</text>
</g>
<!-- Node1&#45;&gt;Node17 -->
<g id="edge51" class="edge"><title>Node1&#45;&gt;Node17</title>
<path fill="none" stroke="midnightblue" d="M999.281,-335.08C1000.94,-306.067 1000.48,-251.36 978.5,-212 951.297,-163.282 895.137,-126.766 861.555,-108.198"/>
<polygon fill="midnightblue" stroke="midnightblue" points="862.784,-104.885 852.319,-103.229 859.467,-111.049 862.784,-104.885"/>
</g>
<!-- Node18 -->
<g id="node18" class="node"><title>Node18</title>
<polygon fill="none" stroke="#bfbfbf" points="994.5,-84 994.5,-103 1038.5,-103 1038.5,-84 994.5,-84"/>
<text text-anchor="middle" x="1016.5" y="-91" font-family="Helvetica,sans-Serif" font-size="10.00">fcntl.h</text>
</g>
<!-- Node1&#45;&gt;Node18 -->
<g id="edge52" class="edge"><title>Node1&#45;&gt;Node18</title>
<path fill="none" stroke="midnightblue" d="M1003.57,-335.251C1006.55,-324.619 1009.84,-311.215 1011.5,-299 1020.71,-231.043 1018.87,-149.251 1017.41,-113.162"/>
<polygon fill="midnightblue" stroke="midnightblue" points="1020.91,-112.96 1016.96,-103.126 1013.91,-113.271 1020.91,-112.96"/>
</g>
<!-- Node3 -->
<g id="node3" class="node"><title>Node3</title>
<g id="a_node3"><a xlink:href="XBotESC_8h.html" target="_top" xlink:title="XBotCore&#45;interfaces\l/XBotESC.h">
<polygon fill="none" stroke="black" points="79,-145.5 79,-175.5 184,-175.5 184,-145.5 79,-145.5"/>
<text text-anchor="start" x="87" y="-163.5" font-family="Helvetica,sans-Serif" font-size="10.00">XBotCore&#45;interfaces</text>
<text text-anchor="middle" x="131.5" y="-152.5" font-family="Helvetica,sans-Serif" font-size="10.00">/XBotESC.h</text>
</a>
</g>
</g>
<!-- Node2&#45;&gt;Node3 -->
<g id="edge2" class="edge"><title>Node2&#45;&gt;Node3</title>
<path fill="none" stroke="midnightblue" d="M604.798,-288.226C530.809,-287.175 389.739,-279.914 276.5,-243 232.897,-228.786 187.59,-200.843 159.474,-181.674"/>
<polygon fill="midnightblue" stroke="midnightblue" points="161.187,-178.603 150.974,-175.788 157.202,-184.358 161.187,-178.603"/>
</g>
<!-- Node5 -->
<g id="node5" class="node"><title>Node5</title>
<polygon fill="none" stroke="#bfbfbf" points="687.5,-218 687.5,-237 733.5,-237 733.5,-218 687.5,-218"/>
<text text-anchor="middle" x="710.5" y="-225" font-family="Helvetica,sans-Serif" font-size="10.00">cstring</text>
</g>
<!-- Node2&#45;&gt;Node5 -->
<g id="edge4" class="edge"><title>Node2&#45;&gt;Node5</title>
<path fill="none" stroke="midnightblue" d="M663.38,-279.475C671.794,-270.373 685.319,-255.741 695.726,-244.483"/>
<polygon fill="midnightblue" stroke="midnightblue" points="698.417,-246.728 702.634,-237.009 693.276,-241.977 698.417,-246.728"/>
</g>
<!-- Node6 -->
<g id="node6" class="node"><title>Node6</title>
<g id="a_node6"><a xlink:href="IXBotJoint_8h.html" target="_top" xlink:title="XBotCore&#45;interfaces\l/IXBotJoint.h">
<polygon fill="none" stroke="black" points="286,-212.5 286,-242.5 391,-242.5 391,-212.5 286,-212.5"/>
<text text-anchor="start" x="294" y="-230.5" font-family="Helvetica,sans-Serif" font-size="10.00">XBotCore&#45;interfaces</text>
<text text-anchor="middle" x="338.5" y="-219.5" font-family="Helvetica,sans-Serif" font-size="10.00">/IXBotJoint.h</text>
</a>
</g>
</g>
<!-- Node2&#45;&gt;Node6 -->
<g id="edge5" class="edge"><title>Node2&#45;&gt;Node6</title>
<path fill="none" stroke="midnightblue" d="M604.815,-280.002C555.271,-271.979 477.473,-258.841 401.279,-243.303"/>
<polygon fill="midnightblue" stroke="midnightblue" points="401.528,-239.781 391.028,-241.195 400.119,-246.637 401.528,-239.781"/>
</g>
<!-- Node11 -->
<g id="node11" class="node"><title>Node11</title>
<g id="a_node11"><a xlink:href="IXBotFT_8h.html" target="_top" xlink:title="XBotCore&#45;interfaces\l/IXBotFT.h">
<polygon fill="none" stroke="black" points="752,-212.5 752,-242.5 857,-242.5 857,-212.5 752,-212.5"/>
<text text-anchor="start" x="760" y="-230.5" font-family="Helvetica,sans-Serif" font-size="10.00">XBotCore&#45;interfaces</text>
<text text-anchor="middle" x="804.5" y="-219.5" font-family="Helvetica,sans-Serif" font-size="10.00">/IXBotFT.h</text>
</a>
</g>
</g>
<!-- Node2&#45;&gt;Node11 -->
<g id="edge10" class="edge"><title>Node2&#45;&gt;Node11</title>
<path fill="none" stroke="midnightblue" d="M676.848,-279.475C698.443,-270.852 732.469,-257.264 759.962,-246.285"/>
<polygon fill="midnightblue" stroke="midnightblue" points="761.395,-249.482 769.384,-242.523 758.799,-242.981 761.395,-249.482"/>
</g>
<!-- Node12 -->
<g id="node12" class="node"><title>Node12</title>
<g id="a_node12"><a xlink:href="IXBotIMU_8h.html" target="_top" xlink:title="XBotCore&#45;interfaces\l/IXBotIMU.h">
<polygon fill="none" stroke="black" points="409,-212.5 409,-242.5 514,-242.5 514,-212.5 409,-212.5"/>
<text text-anchor="start" x="417" y="-230.5" font-family="Helvetica,sans-Serif" font-size="10.00">XBotCore&#45;interfaces</text>
<text text-anchor="middle" x="461.5" y="-219.5" font-family="Helvetica,sans-Serif" font-size="10.00">/IXBotIMU.h</text>
</a>
</g>
</g>
<!-- Node2&#45;&gt;Node12 -->
<g id="edge11" class="edge"><title>Node2&#45;&gt;Node12</title>
<path fill="none" stroke="midnightblue" d="M627.705,-279.475C598.974,-270.664 553.343,-256.668 517.156,-245.57"/>
<polygon fill="midnightblue" stroke="midnightblue" points="517.809,-242.109 507.222,-242.523 515.756,-248.801 517.809,-242.109"/>
</g>
<!-- Node13 -->
<g id="node13" class="node"><title>Node13</title>
<g id="a_node13"><a xlink:href="XDomainCommunication_8h.html" target="_top" xlink:title="XBotCore&#45;interfaces\l/XDomainCommunication.h">
<polygon fill="none" stroke="black" points="532,-212.5 532,-242.5 669,-242.5 669,-212.5 532,-212.5"/>
<text text-anchor="start" x="540" y="-230.5" font-family="Helvetica,sans-Serif" font-size="10.00">XBotCore&#45;interfaces</text>
<text text-anchor="middle" x="600.5" y="-219.5" font-family="Helvetica,sans-Serif" font-size="10.00">/XDomainCommunication.h</text>
</a>
</g>
</g>
<!-- Node2&#45;&gt;Node13 -->
<g id="edge13" class="edge"><title>Node2&#45;&gt;Node13</title>
<path fill="none" stroke="midnightblue" d="M647.62,-279.475C640.519,-271.793 629.776,-260.172 620.341,-249.964"/>
<polygon fill="midnightblue" stroke="midnightblue" points="622.821,-247.491 613.462,-242.523 617.68,-252.242 622.821,-247.491"/>
</g>
<!-- Node44 -->
<g id="node44" class="node"><title>Node44</title>
<polygon fill="none" stroke="#bfbfbf" points="875.5,-218 875.5,-237 969.5,-237 969.5,-218 875.5,-218"/>
<text text-anchor="middle" x="922.5" y="-225" font-family="Helvetica,sans-Serif" font-size="10.00">XBotCoreModel.h</text>
</g>
<!-- Node2&#45;&gt;Node44 -->
<g id="edge50" class="edge"><title>Node2&#45;&gt;Node44</title>
<path fill="none" stroke="midnightblue" d="M697.839,-279.42C740.327,-270.694 807.596,-256.564 865.5,-243 870.163,-241.908 875.031,-240.729 879.873,-239.532"/>
<polygon fill="midnightblue" stroke="midnightblue" points="880.848,-242.896 889.698,-237.071 879.147,-236.105 880.848,-242.896"/>
</g>
<!-- Node4 -->
<g id="node4" class="node"><title>Node4</title>
<polygon fill="none" stroke="#bfbfbf" points="0,-11.5 0,-30.5 49,-30.5 49,-11.5 0,-11.5"/>
<text text-anchor="middle" x="24.5" y="-18.5" font-family="Helvetica,sans-Serif" font-size="10.00">stdint.h</text>
</g>
<!-- Node3&#45;&gt;Node4 -->
<g id="edge3" class="edge"><title>Node3&#45;&gt;Node4</title>
<path fill="none" stroke="midnightblue" d="M120.452,-145.303C100.592,-119.781 58.9476,-66.2668 37.6518,-38.9007"/>
<polygon fill="midnightblue" stroke="midnightblue" points="40.1743,-36.4431 31.2707,-30.7007 34.6499,-40.7421 40.1743,-36.4431"/>
</g>
<!-- Node7 -->
<g id="node7" class="node"><title>Node7</title>
<polygon fill="none" stroke="#bfbfbf" points="348,-151 348,-170 383,-170 383,-151 348,-151"/>
<text text-anchor="middle" x="365.5" y="-158" font-family="Helvetica,sans-Serif" font-size="10.00">map</text>
</g>
<!-- Node6&#45;&gt;Node7 -->
<g id="edge6" class="edge"><title>Node6&#45;&gt;Node7</title>
<path fill="none" stroke="midnightblue" d="M344.359,-212.396C348.36,-202.763 353.697,-189.914 358.008,-179.537"/>
<polygon fill="midnightblue" stroke="midnightblue" points="361.285,-180.772 361.888,-170.195 354.82,-178.087 361.285,-180.772"/>
</g>
<!-- Node8 -->
<g id="node8" class="node"><title>Node8</title>
<polygon fill="none" stroke="#bfbfbf" points="439.5,-151 439.5,-170 483.5,-170 483.5,-151 439.5,-151"/>
<text text-anchor="middle" x="461.5" y="-158" font-family="Helvetica,sans-Serif" font-size="10.00">vector</text>
</g>
<!-- Node6&#45;&gt;Node8 -->
<g id="edge7" class="edge"><title>Node6&#45;&gt;Node8</title>
<path fill="none" stroke="midnightblue" d="M365.189,-212.396C386.389,-201.193 415.817,-185.641 436.549,-174.685"/>
<polygon fill="midnightblue" stroke="midnightblue" points="438.196,-177.774 445.402,-170.007 434.925,-171.585 438.196,-177.774"/>
</g>
<!-- Node9 -->
<g id="node9" class="node"><title>Node9</title>
<polygon fill="none" stroke="#bfbfbf" points="306.5,-84 306.5,-103 358.5,-103 358.5,-84 306.5,-84"/>
<text text-anchor="middle" x="332.5" y="-91" font-family="Helvetica,sans-Serif" font-size="10.00">memory</text>
</g>
<!-- Node6&#45;&gt;Node9 -->
<g id="edge8" class="edge"><title>Node6&#45;&gt;Node9</title>
<path fill="none" stroke="midnightblue" d="M337.858,-212.374C336.773,-188.504 334.576,-140.181 333.36,-113.415"/>
<polygon fill="midnightblue" stroke="midnightblue" points="336.841,-112.928 332.891,-103.097 329.849,-113.246 336.841,-112.928"/>
</g>
<!-- Node10 -->
<g id="node10" class="node"><title>Node10</title>
<polygon fill="none" stroke="#bfbfbf" points="399,-84 399,-103 440,-103 440,-84 399,-84"/>
<text text-anchor="middle" x="419.5" y="-91" font-family="Helvetica,sans-Serif" font-size="10.00">string</text>
</g>
<!-- Node6&#45;&gt;Node10 -->
<g id="edge9" class="edge"><title>Node6&#45;&gt;Node10</title>
<path fill="none" stroke="midnightblue" d="M357.384,-212.373C368.635,-203.107 382.443,-190.122 391.5,-176 404.088,-156.371 411.727,-130.434 415.777,-113.146"/>
<polygon fill="midnightblue" stroke="midnightblue" points="419.238,-113.701 417.936,-103.187 412.397,-112.218 419.238,-113.701"/>
</g>
<!-- Node12&#45;&gt;Node8 -->
<g id="edge12" class="edge"><title>Node12&#45;&gt;Node8</title>
<path fill="none" stroke="midnightblue" d="M461.5,-212.396C461.5,-203.064 461.5,-190.714 461.5,-180.517"/>
<polygon fill="midnightblue" stroke="midnightblue" points="465,-180.195 461.5,-170.195 458,-180.195 465,-180.195"/>
</g>
<!-- Node14 -->
<g id="node14" class="node"><title>Node14</title>
<g id="a_node14"><a xlink:href="XBotPipes_8h.html" target="_top" xlink:title="XBotCore&#45;interfaces\l/XBotPipes.h">
<polygon fill="none" stroke="black" points="548,-145.5 548,-175.5 653,-175.5 653,-145.5 548,-145.5"/>
<text text-anchor="start" x="556" y="-163.5" font-family="Helvetica,sans-Serif" font-size="10.00">XBotCore&#45;interfaces</text>
<text text-anchor="middle" x="600.5" y="-152.5" font-family="Helvetica,sans-Serif" font-size="10.00">/XBotPipes.h</text>
</a>
</g>
</g>
<!-- Node13&#45;&gt;Node14 -->
<g id="edge14" class="edge"><title>Node13&#45;&gt;Node14</title>
<path fill="none" stroke="midnightblue" d="M600.5,-212.396C600.5,-204.645 600.5,-194.812 600.5,-185.86"/>
<polygon fill="midnightblue" stroke="midnightblue" points="604,-185.576 600.5,-175.577 597,-185.577 604,-185.576"/>
</g>
<!-- Node15 -->
<g id="node15" class="node"><title>Node15</title>
<polygon fill="none" stroke="#bfbfbf" points="466.5,-84 466.5,-103 520.5,-103 520.5,-84 466.5,-84"/>
<text text-anchor="middle" x="493.5" y="-91" font-family="Helvetica,sans-Serif" font-size="10.00">iostream</text>
</g>
<!-- Node13&#45;&gt;Node15 -->
<g id="edge49" class="edge"><title>Node13&#45;&gt;Node15</title>
<path fill="none" stroke="midnightblue" d="M579.221,-212.333C566.364,-203.051 550.247,-190.064 538.5,-176 522.111,-156.379 508.796,-129.891 501.012,-112.513"/>
<polygon fill="midnightblue" stroke="midnightblue" points="504.085,-110.801 496.903,-103.012 497.66,-113.58 504.085,-110.801"/>
</g>
<!-- Node13&#45;&gt;Node17 -->
<g id="edge47" class="edge"><title>Node13&#45;&gt;Node17</title>
<path fill="none" stroke="midnightblue" d="M625.542,-212.374C670.797,-186.845 765.637,-133.346 810.282,-108.161"/>
<polygon fill="midnightblue" stroke="midnightblue" points="812.269,-111.059 819.259,-103.097 808.83,-104.962 812.269,-111.059"/>
</g>
<!-- Node13&#45;&gt;Node18 -->
<g id="edge48" class="edge"><title>Node13&#45;&gt;Node18</title>
<path fill="none" stroke="midnightblue" d="M644.625,-212.499C728.904,-185.756 910.936,-127.996 984.595,-104.624"/>
<polygon fill="midnightblue" stroke="midnightblue" points="985.775,-107.921 994.248,-101.561 983.658,-101.249 985.775,-107.921"/>
</g>
<!-- Node33 -->
<g id="node33" class="node"><title>Node33</title>
<g id="a_node33"><a xlink:href="CommunicationInterfaceROS_8h.html" target="_top" xlink:title="XCM/CommunicationInterface\lROS.h">
<polygon fill="none" stroke="black" points="1660,-145.5 1660,-175.5 1809,-175.5 1809,-145.5 1660,-145.5"/>
<text text-anchor="start" x="1668" y="-163.5" font-family="Helvetica,sans-Serif" font-size="10.00">XCM/CommunicationInterface</text>
<text text-anchor="middle" x="1734.5" y="-152.5" font-family="Helvetica,sans-Serif" font-size="10.00">ROS.h</text>
</a>
</g>
</g>
<!-- Node13&#45;&gt;Node33 -->
<g id="edge36" class="edge"><title>Node13&#45;&gt;Node33</title>
<path fill="none" stroke="midnightblue" d="M669.326,-213.18C672.421,-212.747 675.49,-212.35 678.5,-212 1037.97,-170.189 1470.15,-162.827 1649.79,-161.651"/>
<polygon fill="midnightblue" stroke="midnightblue" points="1649.98,-165.15 1659.96,-161.589 1649.94,-158.15 1649.98,-165.15"/>
</g>
<!-- Node14&#45;&gt;Node9 -->
<g id="edge16" class="edge"><title>Node14&#45;&gt;Node9</title>
<path fill="none" stroke="midnightblue" d="M547.989,-147.151C505.268,-137.051 443.439,-122.315 389.5,-109 382.706,-107.323 375.465,-105.505 368.503,-103.741"/>
<polygon fill="midnightblue" stroke="midnightblue" points="369.141,-100.292 358.587,-101.219 367.415,-107.076 369.141,-100.292"/>
</g>
<!-- Node14&#45;&gt;Node10 -->
<g id="edge15" class="edge"><title>Node14&#45;&gt;Node10</title>
<path fill="none" stroke="midnightblue" d="M559.721,-145.404C531.06,-135.422 491.853,-121.618 457.5,-109 454.977,-108.073 452.364,-107.102 449.744,-106.119"/>
<polygon fill="midnightblue" stroke="midnightblue" points="450.962,-102.838 440.371,-102.572 448.485,-109.385 450.962,-102.838"/>
</g>
<!-- Node14&#45;&gt;Node15 -->
<g id="edge17" class="edge"><title>Node14&#45;&gt;Node15</title>
<path fill="none" stroke="midnightblue" d="M577.283,-145.396C559.173,-134.395 534.16,-119.2 516.187,-108.282"/>
<polygon fill="midnightblue" stroke="midnightblue" points="517.868,-105.208 507.504,-103.007 514.233,-111.19 517.868,-105.208"/>
</g>
<!-- Node16 -->
<g id="node16" class="node"><title>Node16</title>
<polygon fill="none" stroke="#bfbfbf" points="648.5,-84 648.5,-103 716.5,-103 716.5,-84 648.5,-84"/>
<text text-anchor="middle" x="682.5" y="-91" font-family="Helvetica,sans-Serif" font-size="10.00">sys/types.h</text>
</g>
<!-- Node14&#45;&gt;Node16 -->
<g id="edge18" class="edge"><title>Node14&#45;&gt;Node16</title>
<path fill="none" stroke="midnightblue" d="M618.293,-145.396C631.585,-134.86 649.729,-120.477 663.339,-109.689"/>
<polygon fill="midnightblue" stroke="midnightblue" points="665.869,-112.149 671.532,-103.195 661.521,-106.664 665.869,-112.149"/>
</g>
<!-- Node14&#45;&gt;Node17 -->
<g id="edge19" class="edge"><title>Node14&#45;&gt;Node17</title>
<path fill="none" stroke="midnightblue" d="M653.159,-147.199C692.393,-137.694 747.139,-123.714 794.5,-109 797.057,-108.206 799.692,-107.345 802.332,-106.454"/>
<polygon fill="midnightblue" stroke="midnightblue" points="803.495,-109.755 811.779,-103.151 801.184,-103.147 803.495,-109.755"/>
</g>
<!-- Node14&#45;&gt;Node18 -->
<g id="edge20" class="edge"><title>Node14&#45;&gt;Node18</title>
<path fill="none" stroke="midnightblue" d="M653.187,-151.268C740.529,-137.621 912.758,-110.71 984.233,-99.5417"/>
<polygon fill="midnightblue" stroke="midnightblue" points="985.079,-102.952 994.419,-97.9502 983.998,-96.036 985.079,-102.952"/>
</g>
<!-- Node19 -->
<g id="node19" class="node"><title>Node19</title>
<polygon fill="none" stroke="#bfbfbf" points="735,-84 735,-103 786,-103 786,-84 735,-84"/>
<text text-anchor="middle" x="760.5" y="-91" font-family="Helvetica,sans-Serif" font-size="10.00">unistd.h</text>
</g>
<!-- Node14&#45;&gt;Node19 -->
<g id="edge21" class="edge"><title>Node14&#45;&gt;Node19</title>
<path fill="none" stroke="midnightblue" d="M635.556,-145.433C660.632,-135.348 695.172,-121.408 725.5,-109 727.09,-108.349 728.721,-107.68 730.366,-107.004"/>
<polygon fill="midnightblue" stroke="midnightblue" points="731.875,-110.167 739.784,-103.118 729.205,-103.697 731.875,-110.167"/>
</g>
<!-- Node20 -->
<g id="node20" class="node"><title>Node20</title>
<g id="a_node20"><a xlink:href="XBotUtils_8h.html" target="_top" xlink:title="XCM/XBotUtils.h">
<polygon fill="none" stroke="black" points="538.5,-84 538.5,-103 630.5,-103 630.5,-84 538.5,-84"/>
<text text-anchor="middle" x="584.5" y="-91" font-family="Helvetica,sans-Serif" font-size="10.00">XCM/XBotUtils.h</text>
</a>
</g>
</g>
<!-- Node14&#45;&gt;Node20 -->
<g id="edge22" class="edge"><title>Node14&#45;&gt;Node20</title>
<path fill="none" stroke="midnightblue" d="M597.028,-145.396C594.706,-135.963 591.626,-123.448 589.1,-113.189"/>
<polygon fill="midnightblue" stroke="midnightblue" points="592.429,-112.068 586.64,-103.195 585.632,-113.741 592.429,-112.068"/>
</g>
<!-- Node20&#45;&gt;Node4 -->
<g id="edge23" class="edge"><title>Node20&#45;&gt;Node4</title>
<path fill="none" stroke="midnightblue" d="M556.168,-83.9801C547.663,-81.7083 538.264,-79.4775 529.5,-78 322.478,-43.0963 258.817,-104.845 58.5,-42 53.8913,-40.5541 49.2413,-38.3868 44.9225,-36.0053"/>
<polygon fill="midnightblue" stroke="midnightblue" points="46.5012,-32.8685 36.1419,-30.6469 42.8547,-38.8438 46.5012,-32.8685"/>
</g>
<!-- Node21 -->
<g id="node21" class="node"><title>Node21</title>
<polygon fill="none" stroke="#bfbfbf" points="67.5,-11.5 67.5,-30.5 113.5,-30.5 113.5,-11.5 67.5,-11.5"/>
<text text-anchor="middle" x="90.5" y="-18.5" font-family="Helvetica,sans-Serif" font-size="10.00">stdio.h</text>
</g>
<!-- Node20&#45;&gt;Node21 -->
<g id="edge24" class="edge"><title>Node20&#45;&gt;Node21</title>
<path fill="none" stroke="midnightblue" d="M555.873,-83.9704C547.443,-81.7263 538.157,-79.5128 529.5,-78 350.615,-46.7411 294.681,-99.7114 122.5,-42 118.237,-40.5712 113.96,-38.4712 109.983,-36.1626"/>
<polygon fill="midnightblue" stroke="midnightblue" points="111.694,-33.1011 101.395,-30.6148 107.896,-38.9809 111.694,-33.1011"/>
</g>
<!-- Node22 -->
<g id="node22" class="node"><title>Node22</title>
<polygon fill="none" stroke="#bfbfbf" points="131.5,-11.5 131.5,-30.5 181.5,-30.5 181.5,-11.5 131.5,-11.5"/>
<text text-anchor="middle" x="156.5" y="-18.5" font-family="Helvetica,sans-Serif" font-size="10.00">fstream</text>
</g>
<!-- Node20&#45;&gt;Node22 -->
<g id="edge25" class="edge"><title>Node20&#45;&gt;Node22</title>
<path fill="none" stroke="midnightblue" d="M555.571,-83.9919C547.217,-81.7753 538.047,-79.571 529.5,-78 380.483,-50.6086 334.381,-89.483 190.5,-42 185.913,-40.4863 181.273,-38.2885 176.957,-35.8985"/>
<polygon fill="midnightblue" stroke="midnightblue" points="178.535,-32.7614 168.173,-30.5504 174.894,-38.7404 178.535,-32.7614"/>
</g>
<!-- Node23 -->
<g id="node23" class="node"><title>Node23</title>
<polygon fill="none" stroke="#bfbfbf" points="199.5,-11.5 199.5,-30.5 251.5,-30.5 251.5,-11.5 199.5,-11.5"/>
<text text-anchor="middle" x="225.5" y="-18.5" font-family="Helvetica,sans-Serif" font-size="10.00">sstream</text>
</g>
<!-- Node20&#45;&gt;Node23 -->
<g id="edge26" class="edge"><title>Node20&#45;&gt;Node23</title>
<path fill="none" stroke="midnightblue" d="M554.972,-83.9911C546.771,-81.8263 537.831,-79.6489 529.5,-78 411.174,-54.5797 374.765,-80.6403 260.5,-42 255.901,-40.4447 251.224,-38.2635 246.849,-35.91"/>
<polygon fill="midnightblue" stroke="midnightblue" points="248.298,-32.7023 237.903,-30.6585 244.755,-38.7392 248.298,-32.7023"/>
</g>
<!-- Node24 -->
<g id="node24" class="node"><title>Node24</title>
<polygon fill="none" stroke="#bfbfbf" points="269.5,-11.5 269.5,-30.5 393.5,-30.5 393.5,-11.5 269.5,-11.5"/>
<text text-anchor="middle" x="331.5" y="-18.5" font-family="Helvetica,sans-Serif" font-size="10.00">boost/circular_buffer.hpp</text>
</g>
<!-- Node20&#45;&gt;Node24 -->
<g id="edge27" class="edge"><title>Node20&#45;&gt;Node24</title>
<path fill="none" stroke="midnightblue" d="M553.575,-83.9588C517.356,-73.9462 455.554,-56.833 402.5,-42 392.51,-39.207 381.734,-36.1792 371.669,-33.3448"/>
<polygon fill="midnightblue" stroke="midnightblue" points="372.472,-29.9347 361.897,-30.5907 370.573,-36.6722 372.472,-29.9347"/>
</g>
<!-- Node25 -->
<g id="node25" class="node"><title>Node25</title>
<polygon fill="none" stroke="#bfbfbf" points="411.5,-6 411.5,-36 513.5,-36 513.5,-6 411.5,-6"/>
<text text-anchor="start" x="419.5" y="-24" font-family="Helvetica,sans-Serif" font-size="10.00">boost/accumulators</text>
<text text-anchor="middle" x="462.5" y="-13" font-family="Helvetica,sans-Serif" font-size="10.00">/accumulators.hpp</text>
</g>
<!-- Node20&#45;&gt;Node25 -->
<g id="edge28" class="edge"><title>Node20&#45;&gt;Node25</title>
<path fill="none" stroke="midnightblue" d="M569.54,-83.8553C551.26,-73.2918 519.792,-55.1073 495.692,-41.1805"/>
<polygon fill="midnightblue" stroke="midnightblue" points="497.268,-38.0492 486.859,-36.0762 493.766,-44.11 497.268,-38.0492"/>
</g>
<!-- Node26 -->
<g id="node26" class="node"><title>Node26</title>
<polygon fill="none" stroke="#bfbfbf" points="532,-6 532,-36 637,-36 637,-6 532,-6"/>
<text text-anchor="start" x="540" y="-24" font-family="Helvetica,sans-Serif" font-size="10.00">boost/accumulators</text>
<text text-anchor="middle" x="584.5" y="-13" font-family="Helvetica,sans-Serif" font-size="10.00">/statistics/count.hpp</text>
</g>
<!-- Node20&#45;&gt;Node26 -->
<g id="edge29" class="edge"><title>Node20&#45;&gt;Node26</title>
<path fill="none" stroke="midnightblue" d="M584.5,-83.8553C584.5,-74.5483 584.5,-59.3253 584.5,-46.3107"/>
<polygon fill="midnightblue" stroke="midnightblue" points="588,-46.0761 584.5,-36.0762 581,-46.0762 588,-46.0761"/>
</g>
<!-- Node27 -->
<g id="node27" class="node"><title>Node27</title>
<polygon fill="none" stroke="#bfbfbf" points="655,-6 655,-36 760,-36 760,-6 655,-6"/>
<text text-anchor="start" x="663" y="-24" font-family="Helvetica,sans-Serif" font-size="10.00">boost/accumulators</text>
<text text-anchor="middle" x="707.5" y="-13" font-family="Helvetica,sans-Serif" font-size="10.00">/statistics/mean.hpp</text>
</g>
<!-- Node20&#45;&gt;Node27 -->
<g id="edge30" class="edge"><title>Node20&#45;&gt;Node27</title>
<path fill="none" stroke="midnightblue" d="M599.582,-83.8553C618.012,-73.2918 649.738,-55.1073 674.036,-41.1805"/>
<polygon fill="midnightblue" stroke="midnightblue" points="676.006,-44.0856 682.942,-36.0762 672.525,-38.0124 676.006,-44.0856"/>
</g>
<!-- Node28 -->
<g id="node28" class="node"><title>Node28</title>
<polygon fill="none" stroke="#bfbfbf" points="778.5,-6 778.5,-36 880.5,-36 880.5,-6 778.5,-6"/>
<text text-anchor="start" x="786.5" y="-24" font-family="Helvetica,sans-Serif" font-size="10.00">boost/accumulators</text>
<text text-anchor="middle" x="829.5" y="-13" font-family="Helvetica,sans-Serif" font-size="10.00">/statistics/min.hpp</text>
</g>
<!-- Node20&#45;&gt;Node28 -->
<g id="edge31" class="edge"><title>Node20&#45;&gt;Node28</title>
<path fill="none" stroke="midnightblue" d="M616.346,-83.9619C661.023,-71.9487 740.031,-50.5682 768.5,-42 771.595,-41.0685 774.771,-40.0915 777.971,-39.091"/>
<polygon fill="midnightblue" stroke="midnightblue" points="779.109,-42.402 787.583,-36.0421 776.993,-35.7296 779.109,-42.402"/>
</g>
<!-- Node29 -->
<g id="node29" class="node"><title>Node29</title>
<polygon fill="none" stroke="#bfbfbf" points="898.5,-6 898.5,-36 1000.5,-36 1000.5,-6 898.5,-6"/>
<text text-anchor="start" x="906.5" y="-24" font-family="Helvetica,sans-Serif" font-size="10.00">boost/accumulators</text>
<text text-anchor="middle" x="949.5" y="-13" font-family="Helvetica,sans-Serif" font-size="10.00">/statistics/max.hpp</text>
</g>
<!-- Node20&#45;&gt;Node29 -->
<g id="edge32" class="edge"><title>Node20&#45;&gt;Node29</title>
<path fill="none" stroke="midnightblue" d="M614.326,-83.9706C622.448,-81.8306 631.274,-79.6708 639.5,-78 749.511,-55.6546 780.26,-67.8526 889.5,-42 893.298,-41.1011 897.198,-40.0663 901.099,-38.9505"/>
<polygon fill="midnightblue" stroke="midnightblue" points="902.176,-42.2815 910.738,-36.0418 900.154,-35.58 902.176,-42.2815"/>
</g>
<!-- Node30 -->
<g id="node30" class="node"><title>Node30</title>
<polygon fill="none" stroke="#bfbfbf" points="1018.5,-6 1018.5,-36 1136.5,-36 1136.5,-6 1018.5,-6"/>
<text text-anchor="start" x="1026.5" y="-24" font-family="Helvetica,sans-Serif" font-size="10.00">boost/accumulators</text>
<text text-anchor="middle" x="1077.5" y="-13" font-family="Helvetica,sans-Serif" font-size="10.00">/statistics/variance.hpp</text>
</g>
<!-- Node20&#45;&gt;Node30 -->
<g id="edge33" class="edge"><title>Node20&#45;&gt;Node30</title>
<path fill="none" stroke="midnightblue" d="M613.42,-83.9433C621.774,-81.7259 630.946,-79.5334 639.5,-78 802.129,-48.8463 847.3,-73.4503 1009.5,-42 1014.43,-41.0436 1019.52,-39.8836 1024.59,-38.6092"/>
<polygon fill="midnightblue" stroke="midnightblue" points="1025.5,-41.9885 1034.27,-36.041 1023.71,-35.2226 1025.5,-41.9885"/>
</g>
<!-- Node31 -->
<g id="node31" class="node"><title>Node31</title>
<polygon fill="none" stroke="#bfbfbf" points="1154.5,-6 1154.5,-36 1268.5,-36 1268.5,-6 1154.5,-6"/>
<text text-anchor="start" x="1162.5" y="-24" font-family="Helvetica,sans-Serif" font-size="10.00">boost/accumulators</text>
<text text-anchor="middle" x="1211.5" y="-13" font-family="Helvetica,sans-Serif" font-size="10.00">/statistics/error_of.hpp</text>
</g>
<!-- Node20&#45;&gt;Node31 -->
<g id="edge34" class="edge"><title>Node20&#45;&gt;Node31</title>
<path fill="none" stroke="midnightblue" d="M612.827,-83.9511C621.332,-81.6785 630.732,-79.4545 639.5,-78 861.917,-41.1018 923.792,-82.9469 1145.5,-42 1150.45,-41.0857 1155.56,-39.9322 1160.63,-38.6428"/>
<polygon fill="midnightblue" stroke="midnightblue" points="1161.57,-42.0153 1170.3,-36.0226 1159.74,-35.2587 1161.57,-42.0153"/>
</g>
<!-- Node32 -->
<g id="node32" class="node"><title>Node32</title>
<polygon fill="none" stroke="#bfbfbf" points="1286.5,-0.5 1286.5,-41.5 1388.5,-41.5 1388.5,-0.5 1286.5,-0.5"/>
<text text-anchor="start" x="1294.5" y="-29.5" font-family="Helvetica,sans-Serif" font-size="10.00">boost/accumulators</text>
<text text-anchor="start" x="1294.5" y="-18.5" font-family="Helvetica,sans-Serif" font-size="10.00">/statistics/error_of</text>
<text text-anchor="middle" x="1337.5" y="-7.5" font-family="Helvetica,sans-Serif" font-size="10.00">_mean.hpp</text>
</g>
<!-- Node20&#45;&gt;Node32 -->
<g id="edge35" class="edge"><title>Node20&#45;&gt;Node32</title>
<path fill="none" stroke="midnightblue" d="M612.531,-83.9458C621.109,-81.6442 630.624,-79.4056 639.5,-78 916.723,-34.0952 996.685,-93.9407 1276.32,-41.9394"/>
<polygon fill="midnightblue" stroke="midnightblue" points="1277.18,-45.3395 1286.35,-40.042 1275.88,-38.4614 1277.18,-45.3395"/>
</g>
<!-- Node34 -->
<g id="node34" class="node"><title>Node34</title>
<g id="a_node34"><a xlink:href="XBotCommunicationInterface_8h.html" target="_top" xlink:title="XCM/XBotCommunicationInterface.h">
<polygon fill="none" stroke="black" points="1242,-84 1242,-103 1421,-103 1421,-84 1242,-84"/>
<text text-anchor="middle" x="1331.5" y="-91" font-family="Helvetica,sans-Serif" font-size="10.00">XCM/XBotCommunicationInterface.h</text>
</a>
</g>
</g>
<!-- Node33&#45;&gt;Node34 -->
<g id="edge37" class="edge"><title>Node33&#45;&gt;Node34</title>
<path fill="none" stroke="midnightblue" d="M1659.64,-147.426C1583.38,-135.126 1466.42,-116.262 1394.68,-104.69"/>
<polygon fill="midnightblue" stroke="midnightblue" points="1394.86,-101.175 1384.43,-103.038 1393.75,-108.085 1394.86,-101.175"/>
</g>
<!-- Node36 -->
<g id="node36" class="node"><title>Node36</title>
<polygon fill="none" stroke="#bfbfbf" points="1439,-84 1439,-103 1494,-103 1494,-84 1439,-84"/>
<text text-anchor="middle" x="1466.5" y="-91" font-family="Helvetica,sans-Serif" font-size="10.00">ros/ros.h</text>
</g>
<!-- Node33&#45;&gt;Node36 -->
<g id="edge39" class="edge"><title>Node33&#45;&gt;Node36</title>
<path fill="none" stroke="midnightblue" d="M1659.87,-146.297C1614.25,-137.46 1554.96,-124.602 1503.5,-109 1501.07,-108.264 1498.58,-107.441 1496.09,-106.571"/>
<polygon fill="midnightblue" stroke="midnightblue" points="1497.25,-103.265 1486.65,-103.064 1494.81,-109.827 1497.25,-103.265"/>
</g>
<!-- Node37 -->
<g id="node37" class="node"><title>Node37</title>
<polygon fill="none" stroke="#bfbfbf" points="1512.5,-84 1512.5,-103 1612.5,-103 1612.5,-84 1512.5,-84"/>
<text text-anchor="middle" x="1562.5" y="-91" font-family="Helvetica,sans-Serif" font-size="10.00">std_srvs/SetBool.h</text>
</g>
<!-- Node33&#45;&gt;Node37 -->
<g id="edge40" class="edge"><title>Node33&#45;&gt;Node37</title>
<path fill="none" stroke="midnightblue" d="M1697.18,-145.396C1666.6,-133.84 1623.77,-117.656 1594.68,-106.663"/>
<polygon fill="midnightblue" stroke="midnightblue" points="1595.6,-103.268 1585.01,-103.007 1593.13,-109.816 1595.6,-103.268"/>
</g>
<!-- Node38 -->
<g id="node38" class="node"><title>Node38</title>
<polygon fill="none" stroke="#bfbfbf" points="1630.5,-84 1630.5,-103 1710.5,-103 1710.5,-84 1630.5,-84"/>
<text text-anchor="middle" x="1670.5" y="-91" font-family="Helvetica,sans-Serif" font-size="10.00">boost/bind.hpp</text>
</g>
<!-- Node33&#45;&gt;Node38 -->
<g id="edge41" class="edge"><title>Node33&#45;&gt;Node38</title>
<path fill="none" stroke="midnightblue" d="M1720.61,-145.396C1710.54,-135.161 1696.88,-121.296 1686.37,-110.622"/>
<polygon fill="midnightblue" stroke="midnightblue" points="1688.57,-107.865 1679.06,-103.195 1683.58,-112.776 1688.57,-107.865"/>
</g>
<!-- Node39 -->
<g id="node39" class="node"><title>Node39</title>
<polygon fill="none" stroke="#bfbfbf" points="1728.5,-78.5 1728.5,-108.5 1868.5,-108.5 1868.5,-78.5 1728.5,-78.5"/>
<text text-anchor="start" x="1736.5" y="-96.5" font-family="Helvetica,sans-Serif" font-size="10.00">RobotInterfaceROS/Generic</text>
<text text-anchor="middle" x="1798.5" y="-85.5" font-family="Helvetica,sans-Serif" font-size="10.00">ControlMessage.h</text>
</g>
<!-- Node33&#45;&gt;Node39 -->
<g id="edge42" class="edge"><title>Node33&#45;&gt;Node39</title>
<path fill="none" stroke="midnightblue" d="M1748.39,-145.396C1756.86,-136.793 1767.85,-125.626 1777.39,-115.945"/>
<polygon fill="midnightblue" stroke="midnightblue" points="1780.12,-118.158 1784.64,-108.577 1775.13,-113.247 1780.12,-118.158"/>
</g>
<!-- Node40 -->
<g id="node40" class="node"><title>Node40</title>
<polygon fill="none" stroke="#bfbfbf" points="1886.5,-78.5 1886.5,-108.5 2026.5,-108.5 2026.5,-78.5 1886.5,-78.5"/>
<text text-anchor="start" x="1894.5" y="-96.5" font-family="Helvetica,sans-Serif" font-size="10.00">RobotInterfaceROS/Generic</text>
<text text-anchor="middle" x="1956.5" y="-85.5" font-family="Helvetica,sans-Serif" font-size="10.00">JointStateMessage.h</text>
</g>
<!-- Node33&#45;&gt;Node40 -->
<g id="edge43" class="edge"><title>Node33&#45;&gt;Node40</title>
<path fill="none" stroke="midnightblue" d="M1782.4,-145.476C1816.42,-135.515 1862.28,-122.086 1898.4,-111.512"/>
<polygon fill="midnightblue" stroke="midnightblue" points="1899.69,-114.78 1908.31,-108.611 1897.73,-108.062 1899.69,-114.78"/>
</g>
<!-- Node41 -->
<g id="node41" class="node"><title>Node41</title>
<polygon fill="none" stroke="#bfbfbf" points="2045,-78.5 2045,-108.5 2166,-108.5 2166,-78.5 2045,-78.5"/>
<text text-anchor="start" x="2053" y="-96.5" font-family="Helvetica,sans-Serif" font-size="10.00">robot_state_publisher</text>
<text text-anchor="middle" x="2105.5" y="-85.5" font-family="Helvetica,sans-Serif" font-size="10.00">/robot_state_publisher.h</text>
</g>
<!-- Node33&#45;&gt;Node41 -->
<g id="edge44" class="edge"><title>Node33&#45;&gt;Node41</title>
<path fill="none" stroke="midnightblue" d="M1809.17,-147.782C1867.84,-138.388 1951.86,-124.524 2034.96,-109.06"/>
<polygon fill="midnightblue" stroke="midnightblue" points="2035.64,-112.494 2044.82,-107.216 2034.35,-105.614 2035.64,-112.494"/>
</g>
<!-- Node42 -->
<g id="node42" class="node"><title>Node42</title>
<polygon fill="none" stroke="#bfbfbf" points="2184.5,-84 2184.5,-103 2290.5,-103 2290.5,-84 2184.5,-84"/>
<text text-anchor="middle" x="2237.5" y="-91" font-family="Helvetica,sans-Serif" font-size="10.00">XCM/cmd_service.h</text>
</g>
<!-- Node33&#45;&gt;Node42 -->
<g id="edge45" class="edge"><title>Node33&#45;&gt;Node42</title>
<path fill="none" stroke="midnightblue" d="M1809,-153.618C1896.99,-146.06 2047.56,-131.209 2175.5,-109 2181.65,-107.933 2188.1,-106.632 2194.42,-105.251"/>
<polygon fill="midnightblue" stroke="midnightblue" points="2195.2,-108.662 2204.18,-103.039 2193.66,-101.835 2195.2,-108.662"/>
</g>
<!-- Node43 -->
<g id="node43" class="node"><title>Node43</title>
<polygon fill="none" stroke="#bfbfbf" points="2308.5,-84 2308.5,-103 2422.5,-103 2422.5,-84 2308.5,-84"/>
<text text-anchor="middle" x="2365.5" y="-91" font-family="Helvetica,sans-Serif" font-size="10.00">XCM/status_service.h</text>
</g>
<!-- Node33&#45;&gt;Node43 -->
<g id="edge46" class="edge"><title>Node33&#45;&gt;Node43</title>
<path fill="none" stroke="midnightblue" d="M1809.35,-155.845C1917.88,-149.859 2125.03,-135.852 2299.5,-109 2306.36,-107.945 2313.57,-106.604 2320.6,-105.165"/>
<polygon fill="midnightblue" stroke="midnightblue" points="2321.67,-108.516 2330.72,-103.009 2320.21,-101.67 2321.67,-108.516"/>
</g>
<!-- Node35 -->
<g id="node35" class="node"><title>Node35</title>
<polygon fill="none" stroke="#bfbfbf" points="1406.5,-11.5 1406.5,-30.5 1558.5,-30.5 1558.5,-11.5 1406.5,-11.5"/>
<text text-anchor="middle" x="1482.5" y="-18.5" font-family="Helvetica,sans-Serif" font-size="10.00">XBotInterface/RobotInterface.h</text>
</g>
<!-- Node34&#45;&gt;Node35 -->
<g id="edge38" class="edge"><title>Node34&#45;&gt;Node35</title>
<path fill="none" stroke="midnightblue" d="M1349.71,-83.9961C1375.9,-71.7689 1424.4,-49.1264 1454.97,-34.8511"/>
<polygon fill="midnightblue" stroke="midnightblue" points="1456.64,-37.936 1464.22,-30.5341 1453.68,-31.5933 1456.64,-37.936"/>
</g>
</g>
</svg>
