<?xml version="1.0" encoding="UTF-8" standalone="no"?>
<!DOCTYPE svg PUBLIC "-//W3C//DTD SVG 1.1//EN"
 "http://www.w3.org/Graphics/SVG/1.1/DTD/svg11.dtd">
<!-- Generated by graphviz version 2.38.0 (20140413.2041)
 -->
<!-- Title: /home/lucamuratore/advr&#45;superbuild/external/XCM/include/XCM/XBotThread.h Pages: 1 -->
<svg width="1637pt" height="184pt"
 viewBox="0.00 0.00 1636.50 184.00" xmlns="http://www.w3.org/2000/svg" xmlns:xlink="http://www.w3.org/1999/xlink">
<g id="graph0" class="graph" transform="scale(1 1) rotate(0) translate(4 180)">
<title>/home/lucamuratore/advr&#45;superbuild/external/XCM/include/XCM/XBotThread.h</title>
<!-- Node1 -->
<g id="node1" class="node"><title>Node1</title>
<polygon fill="#bfbfbf" stroke="black" points="348.5,-134.5 348.5,-175.5 512.5,-175.5 512.5,-134.5 348.5,-134.5"/>
<text text-anchor="start" x="356.5" y="-163.5" font-family="Helvetica,sans-Serif" font-size="10.00">/home/lucamuratore</text>
<text text-anchor="start" x="356.5" y="-152.5" font-family="Helvetica,sans-Serif" font-size="10.00">/advr&#45;superbuild/external</text>
<text text-anchor="middle" x="430.5" y="-141.5" font-family="Helvetica,sans-Serif" font-size="10.00">/XCM/include/XCM/XBotThread.h</text>
</g>
<!-- Node2 -->
<g id="node2" class="node"><title>Node2</title>
<polygon fill="none" stroke="#bfbfbf" points="0,-78.5 0,-97.5 57,-97.5 57,-78.5 0,-78.5"/>
<text text-anchor="middle" x="28.5" y="-85.5" font-family="Helvetica,sans-Serif" font-size="10.00">pthread.h</text>
</g>
<!-- Node1&#45;&gt;Node2 -->
<g id="edge1" class="edge"><title>Node1&#45;&gt;Node2</title>
<path fill="none" stroke="midnightblue" d="M348.496,-143.292C276.821,-133.494 169.773,-117.805 67.0108,-97.9608"/>
<polygon fill="midnightblue" stroke="midnightblue" points="67.5654,-94.5032 57.0808,-96.0276 66.2276,-101.374 67.5654,-94.5032"/>
</g>
<!-- Node3 -->
<g id="node3" class="node"><title>Node3</title>
<polygon fill="none" stroke="#bfbfbf" points="75.5,-78.5 75.5,-97.5 149.5,-97.5 149.5,-78.5 75.5,-78.5"/>
<text text-anchor="middle" x="112.5" y="-85.5" font-family="Helvetica,sans-Serif" font-size="10.00">linux/sched.h</text>
</g>
<!-- Node1&#45;&gt;Node3 -->
<g id="edge2" class="edge"><title>Node1&#45;&gt;Node3</title>
<path fill="none" stroke="midnightblue" d="M348.194,-137.176C288.28,-124.93 209.261,-108.778 159.66,-98.6396"/>
<polygon fill="midnightblue" stroke="midnightblue" points="160.341,-95.2066 149.843,-96.633 158.939,-102.065 160.341,-95.2066"/>
</g>
<!-- Node4 -->
<g id="node4" class="node"><title>Node4</title>
<polygon fill="none" stroke="#bfbfbf" points="168,-78.5 168,-97.5 219,-97.5 219,-78.5 168,-78.5"/>
<text text-anchor="middle" x="193.5" y="-85.5" font-family="Helvetica,sans-Serif" font-size="10.00">unistd.h</text>
</g>
<!-- Node1&#45;&gt;Node4 -->
<g id="edge3" class="edge"><title>Node1&#45;&gt;Node4</title>
<path fill="none" stroke="midnightblue" d="M359.392,-134.498C316.392,-122.704 263.423,-108.177 229.081,-98.7586"/>
<polygon fill="midnightblue" stroke="midnightblue" points="229.623,-95.2779 219.053,-96.0082 227.771,-102.029 229.623,-95.2779"/>
</g>
<!-- Node5 -->
<g id="node5" class="node"><title>Node5</title>
<polygon fill="none" stroke="#bfbfbf" points="237.5,-78.5 237.5,-97.5 285.5,-97.5 285.5,-78.5 237.5,-78.5"/>
<text text-anchor="middle" x="261.5" y="-85.5" font-family="Helvetica,sans-Serif" font-size="10.00">stdlib.h</text>
</g>
<!-- Node1&#45;&gt;Node5 -->
<g id="edge4" class="edge"><title>Node1&#45;&gt;Node5</title>
<path fill="none" stroke="midnightblue" d="M379.794,-134.498C351.766,-123.718 317.798,-110.653 293.465,-101.294"/>
<polygon fill="midnightblue" stroke="midnightblue" points="294.586,-97.9756 283.996,-97.6525 292.073,-104.509 294.586,-97.9756"/>
</g>
<!-- Node6 -->
<g id="node6" class="node"><title>Node6</title>
<polygon fill="none" stroke="#bfbfbf" points="303.5,-78.5 303.5,-97.5 371.5,-97.5 371.5,-78.5 303.5,-78.5"/>
<text text-anchor="middle" x="337.5" y="-85.5" font-family="Helvetica,sans-Serif" font-size="10.00">sys/types.h</text>
</g>
<!-- Node1&#45;&gt;Node6 -->
<g id="edge5" class="edge"><title>Node1&#45;&gt;Node6</title>
<path fill="none" stroke="midnightblue" d="M402.597,-134.498C388.338,-124.532 371.287,-112.614 358.212,-103.476"/>
<polygon fill="midnightblue" stroke="midnightblue" points="360.081,-100.512 349.88,-97.6525 356.071,-106.25 360.081,-100.512"/>
</g>
<!-- Node7 -->
<g id="node7" class="node"><title>Node7</title>
<polygon fill="none" stroke="#bfbfbf" points="389.5,-78.5 389.5,-97.5 471.5,-97.5 471.5,-78.5 389.5,-78.5"/>
<text text-anchor="middle" x="430.5" y="-85.5" font-family="Helvetica,sans-Serif" font-size="10.00">bits/local_lim.h</text>
</g>
<!-- Node1&#45;&gt;Node7 -->
<g id="edge6" class="edge"><title>Node1&#45;&gt;Node7</title>
<path fill="none" stroke="midnightblue" d="M430.5,-134.498C430.5,-126.065 430.5,-116.235 430.5,-107.874"/>
<polygon fill="midnightblue" stroke="midnightblue" points="434,-107.652 430.5,-97.6525 427,-107.653 434,-107.652"/>
</g>
<!-- Node8 -->
<g id="node8" class="node"><title>Node8</title>
<polygon fill="none" stroke="#bfbfbf" points="490,-78.5 490,-97.5 549,-97.5 549,-78.5 490,-78.5"/>
<text text-anchor="middle" x="519.5" y="-85.5" font-family="Helvetica,sans-Serif" font-size="10.00">exception</text>
</g>
<!-- Node1&#45;&gt;Node8 -->
<g id="edge7" class="edge"><title>Node1&#45;&gt;Node8</title>
<path fill="none" stroke="midnightblue" d="M457.203,-134.498C470.717,-124.628 486.853,-112.843 499.317,-103.741"/>
<polygon fill="midnightblue" stroke="midnightblue" points="501.641,-106.377 507.653,-97.6525 497.513,-100.724 501.641,-106.377"/>
</g>
<!-- Node9 -->
<g id="node9" class="node"><title>Node9</title>
<polygon fill="none" stroke="#bfbfbf" points="567,-78.5 567,-97.5 618,-97.5 618,-78.5 567,-78.5"/>
<text text-anchor="middle" x="592.5" y="-85.5" font-family="Helvetica,sans-Serif" font-size="10.00">typeinfo</text>
</g>
<!-- Node1&#45;&gt;Node9 -->
<g id="edge8" class="edge"><title>Node1&#45;&gt;Node9</title>
<path fill="none" stroke="midnightblue" d="M479.105,-134.498C505.854,-123.766 538.245,-110.769 561.548,-101.419"/>
<polygon fill="midnightblue" stroke="midnightblue" points="562.958,-104.625 570.935,-97.6525 560.351,-98.128 562.958,-104.625"/>
</g>
<!-- Node10 -->
<g id="node10" class="node"><title>Node10</title>
<polygon fill="none" stroke="#bfbfbf" points="636.5,-78.5 636.5,-97.5 690.5,-97.5 690.5,-78.5 636.5,-78.5"/>
<text text-anchor="middle" x="663.5" y="-85.5" font-family="Helvetica,sans-Serif" font-size="10.00">iostream</text>
</g>
<!-- Node1&#45;&gt;Node10 -->
<g id="edge9" class="edge"><title>Node1&#45;&gt;Node10</title>
<path fill="none" stroke="midnightblue" d="M500.408,-134.498C541.832,-122.942 592.666,-108.76 626.46,-99.3331"/>
<polygon fill="midnightblue" stroke="midnightblue" points="627.68,-102.627 636.371,-96.5681 625.799,-95.884 627.68,-102.627"/>
</g>
<!-- Node11 -->
<g id="node11" class="node"><title>Node11</title>
<polygon fill="none" stroke="#bfbfbf" points="708.5,-78.5 708.5,-97.5 760.5,-97.5 760.5,-78.5 708.5,-78.5"/>
<text text-anchor="middle" x="734.5" y="-85.5" font-family="Helvetica,sans-Serif" font-size="10.00">memory</text>
</g>
<!-- Node1&#45;&gt;Node11 -->
<g id="edge10" class="edge"><title>Node1&#45;&gt;Node11</title>
<path fill="none" stroke="midnightblue" d="M512.533,-137.951C563.424,-127.753 630.382,-113.903 698.155,-98.2373"/>
<polygon fill="midnightblue" stroke="midnightblue" points="699.21,-101.586 708.159,-95.9131 697.626,-94.7671 699.21,-101.586"/>
</g>
<!-- Node12 -->
<g id="node12" class="node"><title>Node12</title>
<g id="a_node12"><a xlink:href="XBotUtils_8h.html" target="_top" xlink:title="XCM/XBotUtils.h">
<polygon fill="none" stroke="black" points="778.5,-78.5 778.5,-97.5 870.5,-97.5 870.5,-78.5 778.5,-78.5"/>
<text text-anchor="middle" x="824.5" y="-85.5" font-family="Helvetica,sans-Serif" font-size="10.00">XCM/XBotUtils.h</text>
</a>
</g>
</g>
<!-- Node1&#45;&gt;Node12 -->
<g id="edge11" class="edge"><title>Node1&#45;&gt;Node12</title>
<path fill="none" stroke="midnightblue" d="M512.616,-140.453C589.305,-127.801 701.698,-109.259 768.543,-98.2315"/>
<polygon fill="midnightblue" stroke="midnightblue" points="769.169,-101.676 778.466,-96.5944 768.03,-94.769 769.169,-101.676"/>
</g>
<!-- Node13 -->
<g id="node13" class="node"><title>Node13</title>
<polygon fill="none" stroke="#bfbfbf" points="240,-11.5 240,-30.5 289,-30.5 289,-11.5 240,-11.5"/>
<text text-anchor="middle" x="264.5" y="-18.5" font-family="Helvetica,sans-Serif" font-size="10.00">stdint.h</text>
</g>
<!-- Node12&#45;&gt;Node13 -->
<g id="edge12" class="edge"><title>Node12&#45;&gt;Node13</title>
<path fill="none" stroke="midnightblue" d="M778.327,-79.1492C775.344,-78.7333 772.382,-78.3453 769.5,-78 561.047,-53.0252 498.817,-104.845 298.5,-42 293.891,-40.5541 289.241,-38.3868 284.923,-36.0053"/>
<polygon fill="midnightblue" stroke="midnightblue" points="286.501,-32.8685 276.142,-30.6469 282.855,-38.8438 286.501,-32.8685"/>
</g>
<!-- Node14 -->
<g id="node14" class="node"><title>Node14</title>
<polygon fill="none" stroke="#bfbfbf" points="307.5,-11.5 307.5,-30.5 353.5,-30.5 353.5,-11.5 307.5,-11.5"/>
<text text-anchor="middle" x="330.5" y="-18.5" font-family="Helvetica,sans-Serif" font-size="10.00">stdio.h</text>
</g>
<!-- Node12&#45;&gt;Node14 -->
<g id="edge13" class="edge"><title>Node12&#45;&gt;Node14</title>
<path fill="none" stroke="midnightblue" d="M778.322,-79.1894C775.34,-78.7636 772.38,-78.3625 769.5,-78 589.327,-55.3217 534.681,-99.7114 362.5,-42 358.237,-40.5712 353.96,-38.4712 349.983,-36.1626"/>
<polygon fill="midnightblue" stroke="midnightblue" points="351.694,-33.1011 341.395,-30.6148 347.896,-38.9809 351.694,-33.1011"/>
</g>
<!-- Node15 -->
<g id="node15" class="node"><title>Node15</title>
<polygon fill="none" stroke="#bfbfbf" points="371.5,-11.5 371.5,-30.5 421.5,-30.5 421.5,-11.5 371.5,-11.5"/>
<text text-anchor="middle" x="396.5" y="-18.5" font-family="Helvetica,sans-Serif" font-size="10.00">fstream</text>
</g>
<!-- Node12&#45;&gt;Node15 -->
<g id="edge14" class="edge"><title>Node12&#45;&gt;Node15</title>
<path fill="none" stroke="midnightblue" d="M778.315,-79.2485C775.334,-78.8083 772.377,-78.3878 769.5,-78 619.344,-57.7581 574.381,-89.483 430.5,-42 425.913,-40.4863 421.273,-38.2885 416.957,-35.8985"/>
<polygon fill="midnightblue" stroke="midnightblue" points="418.535,-32.7614 408.173,-30.5504 414.894,-38.7404 418.535,-32.7614"/>
</g>
<!-- Node16 -->
<g id="node16" class="node"><title>Node16</title>
<polygon fill="none" stroke="#bfbfbf" points="439.5,-11.5 439.5,-30.5 491.5,-30.5 491.5,-11.5 439.5,-11.5"/>
<text text-anchor="middle" x="465.5" y="-18.5" font-family="Helvetica,sans-Serif" font-size="10.00">sstream</text>
</g>
<!-- Node12&#45;&gt;Node16 -->
<g id="edge15" class="edge"><title>Node12&#45;&gt;Node16</title>
<path fill="none" stroke="midnightblue" d="M778.302,-79.34C775.325,-78.8774 772.371,-78.4269 769.5,-78 650.19,-60.2586 614.765,-80.6403 500.5,-42 495.901,-40.4447 491.224,-38.2635 486.849,-35.91"/>
<polygon fill="midnightblue" stroke="midnightblue" points="488.298,-32.7023 477.903,-30.6585 484.755,-38.7392 488.298,-32.7023"/>
</g>
<!-- Node17 -->
<g id="node17" class="node"><title>Node17</title>
<polygon fill="none" stroke="#bfbfbf" points="509.5,-11.5 509.5,-30.5 633.5,-30.5 633.5,-11.5 509.5,-11.5"/>
<text text-anchor="middle" x="571.5" y="-18.5" font-family="Helvetica,sans-Serif" font-size="10.00">boost/circular_buffer.hpp</text>
</g>
<!-- Node12&#45;&gt;Node17 -->
<g id="edge16" class="edge"><title>Node12&#45;&gt;Node17</title>
<path fill="none" stroke="midnightblue" d="M788.499,-78.4602C751.72,-69.6511 693.005,-55.3535 642.5,-42 632.286,-39.2994 621.281,-36.2624 611.057,-33.3861"/>
<polygon fill="midnightblue" stroke="midnightblue" points="611.725,-29.9379 601.15,-30.582 609.819,-36.6733 611.725,-29.9379"/>
</g>
<!-- Node18 -->
<g id="node18" class="node"><title>Node18</title>
<polygon fill="none" stroke="#bfbfbf" points="651.5,-6 651.5,-36 753.5,-36 753.5,-6 651.5,-6"/>
<text text-anchor="start" x="659.5" y="-24" font-family="Helvetica,sans-Serif" font-size="10.00">boost/accumulators</text>
<text text-anchor="middle" x="702.5" y="-13" font-family="Helvetica,sans-Serif" font-size="10.00">/accumulators.hpp</text>
</g>
<!-- Node12&#45;&gt;Node18 -->
<g id="edge17" class="edge"><title>Node12&#45;&gt;Node18</title>
<path fill="none" stroke="midnightblue" d="M808.299,-78.3685C790.446,-68.8566 761.183,-53.2655 737.953,-40.8888"/>
<polygon fill="midnightblue" stroke="midnightblue" points="739.533,-37.7649 729.061,-36.1516 736.241,-43.9427 739.533,-37.7649"/>
</g>
<!-- Node19 -->
<g id="node19" class="node"><title>Node19</title>
<polygon fill="none" stroke="#bfbfbf" points="772,-6 772,-36 877,-36 877,-6 772,-6"/>
<text text-anchor="start" x="780" y="-24" font-family="Helvetica,sans-Serif" font-size="10.00">boost/accumulators</text>
<text text-anchor="middle" x="824.5" y="-13" font-family="Helvetica,sans-Serif" font-size="10.00">/statistics/count.hpp</text>
</g>
<!-- Node12&#45;&gt;Node19 -->
<g id="edge18" class="edge"><title>Node12&#45;&gt;Node19</title>
<path fill="none" stroke="midnightblue" d="M824.5,-78.2338C824.5,-70.0406 824.5,-57.4225 824.5,-46.2136"/>
<polygon fill="midnightblue" stroke="midnightblue" points="828,-46.089 824.5,-36.089 821,-46.0891 828,-46.089"/>
</g>
<!-- Node20 -->
<g id="node20" class="node"><title>Node20</title>
<polygon fill="none" stroke="#bfbfbf" points="895,-6 895,-36 1000,-36 1000,-6 895,-6"/>
<text text-anchor="start" x="903" y="-24" font-family="Helvetica,sans-Serif" font-size="10.00">boost/accumulators</text>
<text text-anchor="middle" x="947.5" y="-13" font-family="Helvetica,sans-Serif" font-size="10.00">/statistics/mean.hpp</text>
</g>
<!-- Node12&#45;&gt;Node20 -->
<g id="edge19" class="edge"><title>Node12&#45;&gt;Node20</title>
<path fill="none" stroke="midnightblue" d="M840.833,-78.3685C858.833,-68.8566 888.336,-53.2655 911.757,-40.8888"/>
<polygon fill="midnightblue" stroke="midnightblue" points="913.515,-43.9184 920.721,-36.1516 910.244,-37.7295 913.515,-43.9184"/>
</g>
<!-- Node21 -->
<g id="node21" class="node"><title>Node21</title>
<polygon fill="none" stroke="#bfbfbf" points="1018.5,-6 1018.5,-36 1120.5,-36 1120.5,-6 1018.5,-6"/>
<text text-anchor="start" x="1026.5" y="-24" font-family="Helvetica,sans-Serif" font-size="10.00">boost/accumulators</text>
<text text-anchor="middle" x="1069.5" y="-13" font-family="Helvetica,sans-Serif" font-size="10.00">/statistics/min.hpp</text>
</g>
<!-- Node12&#45;&gt;Node21 -->
<g id="edge20" class="edge"><title>Node12&#45;&gt;Node21</title>
<path fill="none" stroke="midnightblue" d="M863.727,-78.4541C901.346,-70.0244 959.628,-56.3506 1009.5,-42 1012.67,-41.0891 1015.91,-40.117 1019.18,-39.1107"/>
<polygon fill="midnightblue" stroke="midnightblue" points="1020.5,-42.3657 1028.98,-36.0154 1018.39,-35.6909 1020.5,-42.3657"/>
</g>
<!-- Node22 -->
<g id="node22" class="node"><title>Node22</title>
<polygon fill="none" stroke="#bfbfbf" points="1138.5,-6 1138.5,-36 1240.5,-36 1240.5,-6 1138.5,-6"/>
<text text-anchor="start" x="1146.5" y="-24" font-family="Helvetica,sans-Serif" font-size="10.00">boost/accumulators</text>
<text text-anchor="middle" x="1189.5" y="-13" font-family="Helvetica,sans-Serif" font-size="10.00">/statistics/max.hpp</text>
</g>
<!-- Node12&#45;&gt;Node22 -->
<g id="edge21" class="edge"><title>Node12&#45;&gt;Node22</title>
<path fill="none" stroke="midnightblue" d="M870.707,-82.7304C930.873,-76.5924 1039.04,-63.5743 1129.5,-42 1133.3,-41.0945 1137.2,-40.0549 1141.1,-38.9359"/>
<polygon fill="midnightblue" stroke="midnightblue" points="1142.17,-42.2662 1150.73,-36.0217 1140.15,-35.5658 1142.17,-42.2662"/>
</g>
<!-- Node23 -->
<g id="node23" class="node"><title>Node23</title>
<polygon fill="none" stroke="#bfbfbf" points="1258.5,-6 1258.5,-36 1376.5,-36 1376.5,-6 1258.5,-6"/>
<text text-anchor="start" x="1266.5" y="-24" font-family="Helvetica,sans-Serif" font-size="10.00">boost/accumulators</text>
<text text-anchor="middle" x="1317.5" y="-13" font-family="Helvetica,sans-Serif" font-size="10.00">/statistics/variance.hpp</text>
</g>
<!-- Node12&#45;&gt;Node23 -->
<g id="edge22" class="edge"><title>Node12&#45;&gt;Node23</title>
<path fill="none" stroke="midnightblue" d="M870.505,-84.8542C948.922,-80.5914 1113.22,-69.0258 1249.5,-42 1254.23,-41.062 1259.11,-39.9425 1263.97,-38.719"/>
<polygon fill="midnightblue" stroke="midnightblue" points="1265.13,-42.0339 1273.89,-36.0867 1263.33,-35.2679 1265.13,-42.0339"/>
</g>
<!-- Node24 -->
<g id="node24" class="node"><title>Node24</title>
<polygon fill="none" stroke="#bfbfbf" points="1394.5,-6 1394.5,-36 1508.5,-36 1508.5,-6 1394.5,-6"/>
<text text-anchor="start" x="1402.5" y="-24" font-family="Helvetica,sans-Serif" font-size="10.00">boost/accumulators</text>
<text text-anchor="middle" x="1451.5" y="-13" font-family="Helvetica,sans-Serif" font-size="10.00">/statistics/error_of.hpp</text>
</g>
<!-- Node12&#45;&gt;Node24 -->
<g id="edge23" class="edge"><title>Node12&#45;&gt;Node24</title>
<path fill="none" stroke="midnightblue" d="M870.757,-86.6262C967.282,-85.1175 1196.85,-77.7208 1385.5,-42 1390.25,-41.1006 1395.14,-39.9875 1400.02,-38.7503"/>
<polygon fill="midnightblue" stroke="midnightblue" points="1401.2,-42.0559 1409.94,-36.0656 1399.37,-35.2989 1401.2,-42.0559"/>
</g>
<!-- Node25 -->
<g id="node25" class="node"><title>Node25</title>
<polygon fill="none" stroke="#bfbfbf" points="1526.5,-0.5 1526.5,-41.5 1628.5,-41.5 1628.5,-0.5 1526.5,-0.5"/>
<text text-anchor="start" x="1534.5" y="-29.5" font-family="Helvetica,sans-Serif" font-size="10.00">boost/accumulators</text>
<text text-anchor="start" x="1534.5" y="-18.5" font-family="Helvetica,sans-Serif" font-size="10.00">/statistics/error_of</text>
<text text-anchor="middle" x="1577.5" y="-7.5" font-family="Helvetica,sans-Serif" font-size="10.00">_mean.hpp</text>
</g>
<!-- Node12&#45;&gt;Node25 -->
<g id="edge24" class="edge"><title>Node12&#45;&gt;Node25</title>
<path fill="none" stroke="midnightblue" d="M870.591,-85.5508C1001.41,-81.1993 1374.16,-67.0885 1516.13,-41.9225"/>
<polygon fill="midnightblue" stroke="midnightblue" points="1517.16,-45.2905 1526.35,-40.0124 1515.87,-38.4098 1517.16,-45.2905"/>
</g>
</g>
</svg>
