<?xml version="1.0" encoding="UTF-8" standalone="no"?>
<!DOCTYPE svg PUBLIC "-//W3C//DTD SVG 1.1//EN"
 "http://www.w3.org/Graphics/SVG/1.1/DTD/svg11.dtd">
<!-- Generated by graphviz version 2.38.0 (20140413.2041)
 -->
<!-- Title: /home/lucamuratore/advr&#45;superbuild/external/XCM/include/XCM/XBotCommunicationHandler.h Pages: 1 -->
<svg width="1655pt" height="385pt"
 viewBox="0.00 0.00 1654.50 385.00" xmlns="http://www.w3.org/2000/svg" xmlns:xlink="http://www.w3.org/1999/xlink">
<g id="graph0" class="graph" transform="scale(1 1) rotate(0) translate(4 381)">
<title>/home/lucamuratore/advr&#45;superbuild/external/XCM/include/XCM/XBotCommunicationHandler.h</title>
<!-- Node1 -->
<g id="node1" class="node"><title>Node1</title>
<polygon fill="#bfbfbf" stroke="black" points="881,-324.5 881,-376.5 1075,-376.5 1075,-324.5 881,-324.5"/>
<text text-anchor="start" x="889" y="-364.5" font-family="Helvetica,sans-Serif" font-size="10.00">/home/lucamuratore</text>
<text text-anchor="start" x="889" y="-353.5" font-family="Helvetica,sans-Serif" font-size="10.00">/advr&#45;superbuild/external</text>
<text text-anchor="start" x="889" y="-342.5" font-family="Helvetica,sans-Serif" font-size="10.00">/XCM/include/XCM/XBotCommunication</text>
<text text-anchor="middle" x="978" y="-331.5" font-family="Helvetica,sans-Serif" font-size="10.00">Handler.h</text>
</g>
<!-- Node2 -->
<g id="node2" class="node"><title>Node2</title>
<g id="a_node2"><a xlink:href="XBotThread_8h.html" target="_top" xlink:title="XCM/XBotThread.h">
<polygon fill="none" stroke="black" points="310,-140 310,-159 412,-159 412,-140 310,-140"/>
<text text-anchor="middle" x="361" y="-147" font-family="Helvetica,sans-Serif" font-size="10.00">XCM/XBotThread.h</text>
</a>
</g>
</g>
<!-- Node1&#45;&gt;Node2 -->
<g id="edge1" class="edge"><title>Node1&#45;&gt;Node2</title>
<path fill="none" stroke="midnightblue" d="M880.866,-346.175C720.039,-338.402 409.425,-313.023 342,-232 326.945,-213.908 338.552,-186.077 349.107,-168.078"/>
<polygon fill="midnightblue" stroke="midnightblue" points="352.321,-169.542 354.686,-159.214 346.397,-165.813 352.321,-169.542"/>
</g>
<!-- Node27 -->
<g id="node27" class="node"><title>Node27</title>
<g id="a_node27"><a xlink:href="XBotCommunicationInterface_8h.html" target="_top" xlink:title="XCM/XBotCommunicationInterface.h">
<polygon fill="none" stroke="black" points="1467.5,-78.5 1467.5,-97.5 1646.5,-97.5 1646.5,-78.5 1467.5,-78.5"/>
<text text-anchor="middle" x="1557" y="-85.5" font-family="Helvetica,sans-Serif" font-size="10.00">XCM/XBotCommunicationInterface.h</text>
</a>
</g>
</g>
<!-- Node1&#45;&gt;Node27 -->
<g id="edge26" class="edge"><title>Node1&#45;&gt;Node27</title>
<path fill="none" stroke="midnightblue" d="M1075.08,-343.56C1221.82,-332.375 1489.47,-302.627 1550,-232 1579.98,-197.023 1570.22,-137.746 1562.55,-107.682"/>
<polygon fill="midnightblue" stroke="midnightblue" points="1565.83,-106.412 1559.8,-97.7016 1559.08,-108.272 1565.83,-106.412"/>
</g>
<!-- Node29 -->
<g id="node29" class="node"><title>Node29</title>
<g id="a_node29"><a xlink:href="XBotXDDP_8h.html" target="_top" xlink:title="XCM/XBotXDDP.h">
<polygon fill="none" stroke="black" points="664.5,-268.5 664.5,-287.5 765.5,-287.5 765.5,-268.5 664.5,-268.5"/>
<text text-anchor="middle" x="715" y="-275.5" font-family="Helvetica,sans-Serif" font-size="10.00">XCM/XBotXDDP.h</text>
</a>
</g>
</g>
<!-- Node1&#45;&gt;Node29 -->
<g id="edge28" class="edge"><title>Node1&#45;&gt;Node29</title>
<path fill="none" stroke="midnightblue" d="M884.536,-324.446C840.728,-312.703 790.758,-299.308 756.481,-290.119"/>
<polygon fill="midnightblue" stroke="midnightblue" points="757.375,-286.736 746.81,-287.527 755.563,-293.497 757.375,-286.736"/>
</g>
<!-- Node38 -->
<g id="node38" class="node"><title>Node38</title>
<g id="a_node38"><a xlink:href="XDomainCommunication_8h.html" target="_top" xlink:title="XBotCore&#45;interfaces\l/XDomainCommunication.h">
<polygon fill="none" stroke="black" points="909.5,-201.5 909.5,-231.5 1046.5,-231.5 1046.5,-201.5 909.5,-201.5"/>
<text text-anchor="start" x="917.5" y="-219.5" font-family="Helvetica,sans-Serif" font-size="10.00">XBotCore&#45;interfaces</text>
<text text-anchor="middle" x="978" y="-208.5" font-family="Helvetica,sans-Serif" font-size="10.00">/XDomainCommunication.h</text>
</a>
</g>
</g>
<!-- Node1&#45;&gt;Node38 -->
<g id="edge64" class="edge"><title>Node1&#45;&gt;Node38</title>
<path fill="none" stroke="midnightblue" d="M978,-324.361C978,-300.597 978,-265.182 978,-241.724"/>
<polygon fill="midnightblue" stroke="midnightblue" points="981.5,-241.572 978,-231.572 974.5,-241.572 981.5,-241.572"/>
</g>
<!-- Node47 -->
<g id="node47" class="node"><title>Node47</title>
<g id="a_node47"><a xlink:href="IOPlugin_8h.html" target="_top" xlink:title="XCM/IOPlugin.h">
<polygon fill="none" stroke="black" points="1131,-268.5 1131,-287.5 1219,-287.5 1219,-268.5 1131,-268.5"/>
<text text-anchor="middle" x="1175" y="-275.5" font-family="Helvetica,sans-Serif" font-size="10.00">XCM/IOPlugin.h</text>
</a>
</g>
</g>
<!-- Node1&#45;&gt;Node47 -->
<g id="edge59" class="edge"><title>Node1&#45;&gt;Node47</title>
<path fill="none" stroke="midnightblue" d="M1048.01,-324.446C1079.84,-313.056 1116.01,-300.111 1141.58,-290.959"/>
<polygon fill="midnightblue" stroke="midnightblue" points="1142.94,-294.192 1151.17,-287.527 1140.58,-287.601 1142.94,-294.192"/>
</g>
<!-- Node3 -->
<g id="node3" class="node"><title>Node3</title>
<polygon fill="none" stroke="#bfbfbf" points="246.5,-78.5 246.5,-97.5 303.5,-97.5 303.5,-78.5 246.5,-78.5"/>
<text text-anchor="middle" x="275" y="-85.5" font-family="Helvetica,sans-Serif" font-size="10.00">pthread.h</text>
</g>
<!-- Node2&#45;&gt;Node3 -->
<g id="edge2" class="edge"><title>Node2&#45;&gt;Node3</title>
<path fill="none" stroke="midnightblue" d="M348.678,-139.975C334.884,-130.431 312.301,-114.807 295.768,-103.368"/>
<polygon fill="midnightblue" stroke="midnightblue" points="297.514,-100.32 287.299,-97.5091 293.531,-106.077 297.514,-100.32"/>
</g>
<!-- Node4 -->
<g id="node4" class="node"><title>Node4</title>
<polygon fill="none" stroke="#bfbfbf" points="322,-78.5 322,-97.5 396,-97.5 396,-78.5 322,-78.5"/>
<text text-anchor="middle" x="359" y="-85.5" font-family="Helvetica,sans-Serif" font-size="10.00">linux/sched.h</text>
</g>
<!-- Node2&#45;&gt;Node4 -->
<g id="edge3" class="edge"><title>Node2&#45;&gt;Node4</title>
<path fill="none" stroke="midnightblue" d="M360.713,-139.975C360.431,-131.58 359.991,-118.481 359.627,-107.663"/>
<polygon fill="midnightblue" stroke="midnightblue" points="363.12,-107.386 359.286,-97.5091 356.124,-107.621 363.12,-107.386"/>
</g>
<!-- Node5 -->
<g id="node5" class="node"><title>Node5</title>
<polygon fill="none" stroke="#bfbfbf" points="588.5,-78.5 588.5,-97.5 639.5,-97.5 639.5,-78.5 588.5,-78.5"/>
<text text-anchor="middle" x="614" y="-85.5" font-family="Helvetica,sans-Serif" font-size="10.00">unistd.h</text>
</g>
<!-- Node2&#45;&gt;Node5 -->
<g id="edge4" class="edge"><title>Node2&#45;&gt;Node5</title>
<path fill="none" stroke="midnightblue" d="M398.252,-139.985C447.344,-128.744 532.023,-109.289 578.537,-98.0578"/>
<polygon fill="midnightblue" stroke="midnightblue" points="579.514,-101.422 588.404,-95.6576 577.86,-94.6205 579.514,-101.422"/>
</g>
<!-- Node6 -->
<g id="node6" class="node"><title>Node6</title>
<polygon fill="none" stroke="#bfbfbf" points="414,-78.5 414,-97.5 462,-97.5 462,-78.5 414,-78.5"/>
<text text-anchor="middle" x="438" y="-85.5" font-family="Helvetica,sans-Serif" font-size="10.00">stdlib.h</text>
</g>
<!-- Node2&#45;&gt;Node6 -->
<g id="edge5" class="edge"><title>Node2&#45;&gt;Node6</title>
<path fill="none" stroke="midnightblue" d="M372.032,-139.975C384.268,-130.52 404.229,-115.096 418.993,-103.687"/>
<polygon fill="midnightblue" stroke="midnightblue" points="421.215,-106.393 426.988,-97.5091 416.935,-100.854 421.215,-106.393"/>
</g>
<!-- Node7 -->
<g id="node7" class="node"><title>Node7</title>
<polygon fill="none" stroke="#bfbfbf" points="658,-78.5 658,-97.5 726,-97.5 726,-78.5 658,-78.5"/>
<text text-anchor="middle" x="692" y="-85.5" font-family="Helvetica,sans-Serif" font-size="10.00">sys/types.h</text>
</g>
<!-- Node2&#45;&gt;Node7 -->
<g id="edge6" class="edge"><title>Node2&#45;&gt;Node7</title>
<path fill="none" stroke="midnightblue" d="M396.797,-139.973C405.966,-137.904 415.829,-135.777 425,-134 523.56,-114.899 549.244,-116.063 648,-98 648.101,-97.9816 648.201,-97.9631 648.302,-97.9446"/>
<polygon fill="midnightblue" stroke="midnightblue" points="648.747,-101.423 657.917,-96.1175 647.44,-94.546 648.747,-101.423"/>
</g>
<!-- Node8 -->
<g id="node8" class="node"><title>Node8</title>
<polygon fill="none" stroke="#bfbfbf" points="0,-78.5 0,-97.5 82,-97.5 82,-78.5 0,-78.5"/>
<text text-anchor="middle" x="41" y="-85.5" font-family="Helvetica,sans-Serif" font-size="10.00">bits/local_lim.h</text>
</g>
<!-- Node2&#45;&gt;Node8 -->
<g id="edge7" class="edge"><title>Node2&#45;&gt;Node8</title>
<path fill="none" stroke="midnightblue" d="M315.152,-139.975C256.054,-128.987 153.604,-109.937 92.0733,-98.4964"/>
<polygon fill="midnightblue" stroke="midnightblue" points="92.6634,-95.0462 82.1921,-96.6591 91.3837,-101.928 92.6634,-95.0462"/>
</g>
<!-- Node9 -->
<g id="node9" class="node"><title>Node9</title>
<polygon fill="none" stroke="#bfbfbf" points="100.5,-78.5 100.5,-97.5 159.5,-97.5 159.5,-78.5 100.5,-78.5"/>
<text text-anchor="middle" x="130" y="-85.5" font-family="Helvetica,sans-Serif" font-size="10.00">exception</text>
</g>
<!-- Node2&#45;&gt;Node9 -->
<g id="edge8" class="edge"><title>Node2&#45;&gt;Node9</title>
<path fill="none" stroke="midnightblue" d="M327.903,-139.975C286.122,-129.213 214.322,-110.719 169.653,-99.2137"/>
<polygon fill="midnightblue" stroke="midnightblue" points="170.292,-95.7642 159.736,-96.6591 168.546,-102.543 170.292,-95.7642"/>
</g>
<!-- Node10 -->
<g id="node10" class="node"><title>Node10</title>
<polygon fill="none" stroke="#bfbfbf" points="177.5,-78.5 177.5,-97.5 228.5,-97.5 228.5,-78.5 177.5,-78.5"/>
<text text-anchor="middle" x="203" y="-85.5" font-family="Helvetica,sans-Serif" font-size="10.00">typeinfo</text>
</g>
<!-- Node2&#45;&gt;Node10 -->
<g id="edge9" class="edge"><title>Node2&#45;&gt;Node10</title>
<path fill="none" stroke="midnightblue" d="M338.362,-139.975C311.26,-129.769 265.69,-112.608 234.996,-101.049"/>
<polygon fill="midnightblue" stroke="midnightblue" points="236.187,-97.7579 225.596,-97.5091 233.72,-104.309 236.187,-97.7579"/>
</g>
<!-- Node11 -->
<g id="node11" class="node"><title>Node11</title>
<polygon fill="none" stroke="#bfbfbf" points="854,-78.5 854,-97.5 908,-97.5 908,-78.5 854,-78.5"/>
<text text-anchor="middle" x="881" y="-85.5" font-family="Helvetica,sans-Serif" font-size="10.00">iostream</text>
</g>
<!-- Node2&#45;&gt;Node11 -->
<g id="edge10" class="edge"><title>Node2&#45;&gt;Node11</title>
<path fill="none" stroke="midnightblue" d="M394.712,-139.951C404.435,-137.734 415.093,-135.539 425,-134 606.875,-105.739 658.399,-128.005 843.884,-97.9146"/>
<polygon fill="midnightblue" stroke="midnightblue" points="844.674,-101.332 853.97,-96.2486 843.534,-94.4251 844.674,-101.332"/>
</g>
<!-- Node12 -->
<g id="node12" class="node"><title>Node12</title>
<polygon fill="none" stroke="#bfbfbf" points="518,-78.5 518,-97.5 570,-97.5 570,-78.5 518,-78.5"/>
<text text-anchor="middle" x="544" y="-85.5" font-family="Helvetica,sans-Serif" font-size="10.00">memory</text>
</g>
<!-- Node2&#45;&gt;Node12 -->
<g id="edge11" class="edge"><title>Node2&#45;&gt;Node12</title>
<path fill="none" stroke="midnightblue" d="M387.219,-139.975C419.018,-129.636 472.765,-112.161 508.317,-100.602"/>
<polygon fill="midnightblue" stroke="midnightblue" points="509.401,-103.93 517.829,-97.5091 507.237,-97.2727 509.401,-103.93"/>
</g>
<!-- Node13 -->
<g id="node13" class="node"><title>Node13</title>
<g id="a_node13"><a xlink:href="XBotUtils_8h.html" target="_top" xlink:title="XCM/XBotUtils.h">
<polygon fill="none" stroke="black" points="744,-78.5 744,-97.5 836,-97.5 836,-78.5 744,-78.5"/>
<text text-anchor="middle" x="790" y="-85.5" font-family="Helvetica,sans-Serif" font-size="10.00">XCM/XBotUtils.h</text>
</a>
</g>
</g>
<!-- Node2&#45;&gt;Node13 -->
<g id="edge12" class="edge"><title>Node2&#45;&gt;Node13</title>
<path fill="none" stroke="midnightblue" d="M395.408,-139.992C404.951,-137.828 415.342,-135.65 425,-134 558.518,-111.19 595.894,-116.914 733.711,-98.1151"/>
<polygon fill="midnightblue" stroke="midnightblue" points="734.384,-101.555 743.81,-96.7185 733.425,-94.6214 734.384,-101.555"/>
</g>
<!-- Node14 -->
<g id="node14" class="node"><title>Node14</title>
<polygon fill="none" stroke="#bfbfbf" points="51.5,-11.5 51.5,-30.5 100.5,-30.5 100.5,-11.5 51.5,-11.5"/>
<text text-anchor="middle" x="76" y="-18.5" font-family="Helvetica,sans-Serif" font-size="10.00">stdint.h</text>
</g>
<!-- Node13&#45;&gt;Node14 -->
<g id="edge13" class="edge"><title>Node13&#45;&gt;Node14</title>
<path fill="none" stroke="midnightblue" d="M743.835,-79.0856C740.849,-78.6853 737.885,-78.3181 735,-78 596.498,-62.7281 242.07,-83.3317 109,-42 104.414,-40.5755 99.8082,-38.3804 95.5539,-35.9581"/>
<polygon fill="midnightblue" stroke="midnightblue" points="97.2659,-32.8995 86.9456,-30.5032 93.5191,-38.8123 97.2659,-32.8995"/>
</g>
<!-- Node15 -->
<g id="node15" class="node"><title>Node15</title>
<polygon fill="none" stroke="#bfbfbf" points="870,-11.5 870,-30.5 916,-30.5 916,-11.5 870,-11.5"/>
<text text-anchor="middle" x="893" y="-18.5" font-family="Helvetica,sans-Serif" font-size="10.00">stdio.h</text>
</g>
<!-- Node13&#45;&gt;Node15 -->
<g id="edge14" class="edge"><title>Node13&#45;&gt;Node15</title>
<path fill="none" stroke="midnightblue" d="M803.891,-78.2338C821.034,-67.4156 850.4,-48.8832 870.711,-36.0659"/>
<polygon fill="midnightblue" stroke="midnightblue" points="872.74,-38.9241 879.329,-30.6273 869.004,-33.0043 872.74,-38.9241"/>
</g>
<!-- Node16 -->
<g id="node16" class="node"><title>Node16</title>
<polygon fill="none" stroke="#bfbfbf" points="934,-11.5 934,-30.5 984,-30.5 984,-11.5 934,-11.5"/>
<text text-anchor="middle" x="959" y="-18.5" font-family="Helvetica,sans-Serif" font-size="10.00">fstream</text>
</g>
<!-- Node13&#45;&gt;Node16 -->
<g id="edge15" class="edge"><title>Node13&#45;&gt;Node16</title>
<path fill="none" stroke="midnightblue" d="M821.813,-78.4495C849.632,-70.4929 890.816,-57.5429 925,-42 928.998,-40.1824 933.126,-38.0204 937.068,-35.8007"/>
<polygon fill="midnightblue" stroke="midnightblue" points="938.954,-38.7522 945.782,-30.6514 935.392,-32.7259 938.954,-38.7522"/>
</g>
<!-- Node17 -->
<g id="node17" class="node"><title>Node17</title>
<polygon fill="none" stroke="#bfbfbf" points="1002,-11.5 1002,-30.5 1054,-30.5 1054,-11.5 1002,-11.5"/>
<text text-anchor="middle" x="1028" y="-18.5" font-family="Helvetica,sans-Serif" font-size="10.00">sstream</text>
</g>
<!-- Node13&#45;&gt;Node17 -->
<g id="edge16" class="edge"><title>Node13&#45;&gt;Node17</title>
<path fill="none" stroke="midnightblue" d="M835.897,-78.4904C886.596,-68.7972 964.799,-52.8944 993,-42 997.454,-40.2796 1002.02,-38.0558 1006.32,-35.7192"/>
<polygon fill="midnightblue" stroke="midnightblue" points="1008.28,-38.6269 1015.17,-30.5752 1004.76,-32.5752 1008.28,-38.6269"/>
</g>
<!-- Node18 -->
<g id="node18" class="node"><title>Node18</title>
<polygon fill="none" stroke="#bfbfbf" points="1072,-11.5 1072,-30.5 1196,-30.5 1196,-11.5 1072,-11.5"/>
<text text-anchor="middle" x="1134" y="-18.5" font-family="Helvetica,sans-Serif" font-size="10.00">boost/circular_buffer.hpp</text>
</g>
<!-- Node13&#45;&gt;Node18 -->
<g id="edge17" class="edge"><title>Node13&#45;&gt;Node18</title>
<path fill="none" stroke="midnightblue" d="M836.048,-79.4428C913.139,-66.7862 1060.23,-42.6155 1063,-42 1074.1,-39.5294 1086.05,-36.3659 1096.91,-33.2876"/>
<polygon fill="midnightblue" stroke="midnightblue" points="1097.9,-36.6461 1106.53,-30.5069 1095.95,-29.9213 1097.9,-36.6461"/>
</g>
<!-- Node19 -->
<g id="node19" class="node"><title>Node19</title>
<polygon fill="none" stroke="#bfbfbf" points="1214,-6 1214,-36 1316,-36 1316,-6 1214,-6"/>
<text text-anchor="start" x="1222" y="-24" font-family="Helvetica,sans-Serif" font-size="10.00">boost/accumulators</text>
<text text-anchor="middle" x="1265" y="-13" font-family="Helvetica,sans-Serif" font-size="10.00">/accumulators.hpp</text>
</g>
<!-- Node13&#45;&gt;Node19 -->
<g id="edge18" class="edge"><title>Node13&#45;&gt;Node19</title>
<path fill="none" stroke="midnightblue" d="M836.183,-79.2279C839.164,-78.7927 842.122,-78.379 845,-78 1004.42,-57.0062 1047.76,-75.6315 1205,-42 1209.05,-41.1345 1213.2,-40.0904 1217.35,-38.939"/>
<polygon fill="midnightblue" stroke="midnightblue" points="1218.35,-42.292 1226.94,-36.0913 1216.36,-35.5813 1218.35,-42.292"/>
</g>
<!-- Node20 -->
<g id="node20" class="node"><title>Node20</title>
<polygon fill="none" stroke="#bfbfbf" points="1334.5,-6 1334.5,-36 1439.5,-36 1439.5,-6 1334.5,-6"/>
<text text-anchor="start" x="1342.5" y="-24" font-family="Helvetica,sans-Serif" font-size="10.00">boost/accumulators</text>
<text text-anchor="middle" x="1387" y="-13" font-family="Helvetica,sans-Serif" font-size="10.00">/statistics/count.hpp</text>
</g>
<!-- Node13&#45;&gt;Node20 -->
<g id="edge19" class="edge"><title>Node13&#45;&gt;Node20</title>
<path fill="none" stroke="midnightblue" d="M836.172,-79.1444C839.156,-78.7296 842.118,-78.3432 845,-78 1057.43,-52.7021 1115.06,-83.1278 1325,-42 1329.43,-41.1326 1333.98,-40.05 1338.51,-38.8402"/>
<polygon fill="midnightblue" stroke="midnightblue" points="1339.69,-42.1424 1348.34,-36.0228 1337.77,-35.4133 1339.69,-42.1424"/>
</g>
<!-- Node21 -->
<g id="node21" class="node"><title>Node21</title>
<polygon fill="none" stroke="#bfbfbf" points="118.5,-6 118.5,-36 223.5,-36 223.5,-6 118.5,-6"/>
<text text-anchor="start" x="126.5" y="-24" font-family="Helvetica,sans-Serif" font-size="10.00">boost/accumulators</text>
<text text-anchor="middle" x="171" y="-13" font-family="Helvetica,sans-Serif" font-size="10.00">/statistics/mean.hpp</text>
</g>
<!-- Node13&#45;&gt;Node21 -->
<g id="edge20" class="edge"><title>Node13&#45;&gt;Node21</title>
<path fill="none" stroke="midnightblue" d="M743.829,-79.1333C740.845,-78.7213 737.883,-78.3385 735,-78 512.842,-51.912 452.582,-84.6436 233,-42 228.571,-41.1399 224.017,-40.0622 219.484,-38.8557"/>
<polygon fill="midnightblue" stroke="midnightblue" points="220.23,-35.4285 209.653,-36.0429 218.304,-42.1585 220.23,-35.4285"/>
</g>
<!-- Node22 -->
<g id="node22" class="node"><title>Node22</title>
<polygon fill="none" stroke="#bfbfbf" points="242,-6 242,-36 344,-36 344,-6 242,-6"/>
<text text-anchor="start" x="250" y="-24" font-family="Helvetica,sans-Serif" font-size="10.00">boost/accumulators</text>
<text text-anchor="middle" x="293" y="-13" font-family="Helvetica,sans-Serif" font-size="10.00">/statistics/min.hpp</text>
</g>
<!-- Node13&#45;&gt;Node22 -->
<g id="edge21" class="edge"><title>Node13&#45;&gt;Node22</title>
<path fill="none" stroke="midnightblue" d="M743.82,-79.2087C740.838,-78.7782 737.879,-78.3708 735,-78 565.867,-56.218 519.859,-77.1912 353,-42 348.891,-41.1333 344.67,-40.0791 340.462,-38.9128"/>
<polygon fill="midnightblue" stroke="midnightblue" points="341.311,-35.5139 330.729,-36.0234 339.319,-42.2245 341.311,-35.5139"/>
</g>
<!-- Node23 -->
<g id="node23" class="node"><title>Node23</title>
<polygon fill="none" stroke="#bfbfbf" points="362,-6 362,-36 464,-36 464,-6 362,-6"/>
<text text-anchor="start" x="370" y="-24" font-family="Helvetica,sans-Serif" font-size="10.00">boost/accumulators</text>
<text text-anchor="middle" x="413" y="-13" font-family="Helvetica,sans-Serif" font-size="10.00">/statistics/max.hpp</text>
</g>
<!-- Node13&#45;&gt;Node23 -->
<g id="edge22" class="edge"><title>Node13&#45;&gt;Node23</title>
<path fill="none" stroke="midnightblue" d="M743.8,-79.3518C740.823,-78.8863 737.87,-78.432 735,-78 618.77,-60.508 587.466,-68.6989 473,-42 469.199,-41.1134 465.297,-40.0874 461.394,-38.9778"/>
<polygon fill="midnightblue" stroke="midnightblue" points="462.337,-35.6066 451.753,-36.0793 460.322,-42.3102 462.337,-35.6066"/>
</g>
<!-- Node24 -->
<g id="node24" class="node"><title>Node24</title>
<polygon fill="none" stroke="#bfbfbf" points="482,-6 482,-36 600,-36 600,-6 482,-6"/>
<text text-anchor="start" x="490" y="-24" font-family="Helvetica,sans-Serif" font-size="10.00">boost/accumulators</text>
<text text-anchor="middle" x="541" y="-13" font-family="Helvetica,sans-Serif" font-size="10.00">/statistics/variance.hpp</text>
</g>
<!-- Node13&#45;&gt;Node24 -->
<g id="edge23" class="edge"><title>Node13&#45;&gt;Node24</title>
<path fill="none" stroke="midnightblue" d="M753.825,-78.4833C717.204,-69.7499 659.002,-55.5623 609,-42 605.233,-40.9782 601.355,-39.9026 597.453,-38.8022"/>
<polygon fill="midnightblue" stroke="midnightblue" points="598.325,-35.4114 587.748,-36.0323 596.404,-42.1426 598.325,-35.4114"/>
</g>
<!-- Node25 -->
<g id="node25" class="node"><title>Node25</title>
<polygon fill="none" stroke="#bfbfbf" points="618,-6 618,-36 732,-36 732,-6 618,-6"/>
<text text-anchor="start" x="626" y="-24" font-family="Helvetica,sans-Serif" font-size="10.00">boost/accumulators</text>
<text text-anchor="middle" x="675" y="-13" font-family="Helvetica,sans-Serif" font-size="10.00">/statistics/error_of.hpp</text>
</g>
<!-- Node13&#45;&gt;Node25 -->
<g id="edge24" class="edge"><title>Node13&#45;&gt;Node25</title>
<path fill="none" stroke="midnightblue" d="M774.491,-78.2338C757.753,-68.7736 730.579,-53.4142 708.856,-41.1362"/>
<polygon fill="midnightblue" stroke="midnightblue" points="710.355,-37.9627 699.927,-36.089 706.91,-44.0566 710.355,-37.9627"/>
</g>
<!-- Node26 -->
<g id="node26" class="node"><title>Node26</title>
<polygon fill="none" stroke="#bfbfbf" points="750,-0.5 750,-41.5 852,-41.5 852,-0.5 750,-0.5"/>
<text text-anchor="start" x="758" y="-29.5" font-family="Helvetica,sans-Serif" font-size="10.00">boost/accumulators</text>
<text text-anchor="start" x="758" y="-18.5" font-family="Helvetica,sans-Serif" font-size="10.00">/statistics/error_of</text>
<text text-anchor="middle" x="801" y="-7.5" font-family="Helvetica,sans-Serif" font-size="10.00">_mean.hpp</text>
</g>
<!-- Node13&#45;&gt;Node26 -->
<g id="edge25" class="edge"><title>Node13&#45;&gt;Node26</title>
<path fill="none" stroke="midnightblue" d="M791.484,-78.2338C792.659,-71.2897 794.372,-61.1671 796.022,-51.4179"/>
<polygon fill="midnightblue" stroke="midnightblue" points="799.475,-51.9859 797.693,-41.5421 792.573,-50.8178 799.475,-51.9859"/>
</g>
<!-- Node28 -->
<g id="node28" class="node"><title>Node28</title>
<polygon fill="none" stroke="#bfbfbf" points="1481,-11.5 1481,-30.5 1633,-30.5 1633,-11.5 1481,-11.5"/>
<text text-anchor="middle" x="1557" y="-18.5" font-family="Helvetica,sans-Serif" font-size="10.00">XBotInterface/RobotInterface.h</text>
</g>
<!-- Node27&#45;&gt;Node28 -->
<g id="edge27" class="edge"><title>Node27&#45;&gt;Node28</title>
<path fill="none" stroke="midnightblue" d="M1557,-78.2338C1557,-68.6826 1557,-53.1183 1557,-40.7829"/>
<polygon fill="midnightblue" stroke="midnightblue" points="1560.5,-40.6273 1557,-30.6273 1553.5,-40.6273 1560.5,-40.6273"/>
</g>
<!-- Node30 -->
<g id="node30" class="node"><title>Node30</title>
<g id="a_node30"><a xlink:href="XBotESC_8h.html" target="_top" xlink:title="XBotCore&#45;interfaces\l/XBotESC.h">
<polygon fill="none" stroke="black" points="434.5,-134.5 434.5,-164.5 539.5,-164.5 539.5,-134.5 434.5,-134.5"/>
<text text-anchor="start" x="442.5" y="-152.5" font-family="Helvetica,sans-Serif" font-size="10.00">XBotCore&#45;interfaces</text>
<text text-anchor="middle" x="487" y="-141.5" font-family="Helvetica,sans-Serif" font-size="10.00">/XBotESC.h</text>
</a>
</g>
</g>
<!-- Node29&#45;&gt;Node30 -->
<g id="edge29" class="edge"><title>Node29&#45;&gt;Node30</title>
<path fill="none" stroke="midnightblue" d="M664.432,-274.369C569.723,-268.921 373.283,-254.961 353,-232 325.735,-201.136 377.457,-178.294 424.352,-164.768"/>
<polygon fill="midnightblue" stroke="midnightblue" points="425.553,-168.067 434.255,-162.024 423.684,-161.322 425.553,-168.067"/>
</g>
<!-- Node31 -->
<g id="node31" class="node"><title>Node31</title>
<polygon fill="none" stroke="#bfbfbf" points="845,-207 845,-226 891,-226 891,-207 845,-207"/>
<text text-anchor="middle" x="868" y="-214" font-family="Helvetica,sans-Serif" font-size="10.00">cstring</text>
</g>
<!-- Node29&#45;&gt;Node31 -->
<g id="edge31" class="edge"><title>Node29&#45;&gt;Node31</title>
<path fill="none" stroke="midnightblue" d="M739.057,-268.421C763.393,-259.64 802.025,-245.416 835,-232 836.413,-231.425 837.856,-230.828 839.31,-230.219"/>
<polygon fill="midnightblue" stroke="midnightblue" points="841.071,-233.273 848.881,-226.114 838.311,-226.839 841.071,-233.273"/>
</g>
<!-- Node32 -->
<g id="node32" class="node"><title>Node32</title>
<g id="a_node32"><a xlink:href="IXBotJoint_8h.html" target="_top" xlink:title="XBotCore&#45;interfaces\l/IXBotJoint.h">
<polygon fill="none" stroke="black" points="721.5,-201.5 721.5,-231.5 826.5,-231.5 826.5,-201.5 721.5,-201.5"/>
<text text-anchor="start" x="729.5" y="-219.5" font-family="Helvetica,sans-Serif" font-size="10.00">XBotCore&#45;interfaces</text>
<text text-anchor="middle" x="774" y="-208.5" font-family="Helvetica,sans-Serif" font-size="10.00">/IXBotJoint.h</text>
</a>
</g>
</g>
<!-- Node29&#45;&gt;Node32 -->
<g id="edge32" class="edge"><title>Node29&#45;&gt;Node32</title>
<path fill="none" stroke="midnightblue" d="M723.453,-268.475C731.145,-260.718 742.821,-248.943 753.013,-238.665"/>
<polygon fill="midnightblue" stroke="midnightblue" points="755.539,-241.088 760.095,-231.523 750.568,-236.159 755.539,-241.088"/>
</g>
<!-- Node36 -->
<g id="node36" class="node"><title>Node36</title>
<g id="a_node36"><a xlink:href="IXBotFT_8h.html" target="_top" xlink:title="XBotCore&#45;interfaces\l/IXBotFT.h">
<polygon fill="none" stroke="black" points="362.5,-201.5 362.5,-231.5 467.5,-231.5 467.5,-201.5 362.5,-201.5"/>
<text text-anchor="start" x="370.5" y="-219.5" font-family="Helvetica,sans-Serif" font-size="10.00">XBotCore&#45;interfaces</text>
<text text-anchor="middle" x="415" y="-208.5" font-family="Helvetica,sans-Serif" font-size="10.00">/IXBotFT.h</text>
</a>
</g>
</g>
<!-- Node29&#45;&gt;Node36 -->
<g id="edge37" class="edge"><title>Node29&#45;&gt;Node36</title>
<path fill="none" stroke="midnightblue" d="M665.887,-268.453C619.651,-260.249 548.23,-247.174 477.509,-232.27"/>
<polygon fill="midnightblue" stroke="midnightblue" points="478.045,-228.806 467.537,-230.155 476.593,-235.653 478.045,-228.806"/>
</g>
<!-- Node37 -->
<g id="node37" class="node"><title>Node37</title>
<g id="a_node37"><a xlink:href="IXBotIMU_8h.html" target="_top" xlink:title="XBotCore&#45;interfaces\l/IXBotIMU.h">
<polygon fill="none" stroke="black" points="485.5,-201.5 485.5,-231.5 590.5,-231.5 590.5,-201.5 485.5,-201.5"/>
<text text-anchor="start" x="493.5" y="-219.5" font-family="Helvetica,sans-Serif" font-size="10.00">XBotCore&#45;interfaces</text>
<text text-anchor="middle" x="538" y="-208.5" font-family="Helvetica,sans-Serif" font-size="10.00">/IXBotIMU.h</text>
</a>
</g>
</g>
<!-- Node29&#45;&gt;Node37 -->
<g id="edge38" class="edge"><title>Node29&#45;&gt;Node37</title>
<path fill="none" stroke="midnightblue" d="M689.64,-268.475C663.54,-259.701 622.151,-245.788 589.203,-234.712"/>
<polygon fill="midnightblue" stroke="midnightblue" points="590.309,-231.392 579.715,-231.523 588.079,-238.027 590.309,-231.392"/>
</g>
<!-- Node29&#45;&gt;Node38 -->
<g id="edge40" class="edge"><title>Node29&#45;&gt;Node38</title>
<path fill="none" stroke="midnightblue" d="M752.681,-268.475C792.546,-259.456 856.411,-245.008 905.986,-233.792"/>
<polygon fill="midnightblue" stroke="midnightblue" points="907.035,-237.143 916.016,-231.523 905.49,-230.316 907.035,-237.143"/>
</g>
<!-- Node46 -->
<g id="node46" class="node"><title>Node46</title>
<polygon fill="none" stroke="#bfbfbf" points="609,-207 609,-226 703,-226 703,-207 609,-207"/>
<text text-anchor="middle" x="656" y="-214" font-family="Helvetica,sans-Serif" font-size="10.00">XBotCoreModel.h</text>
</g>
<!-- Node29&#45;&gt;Node46 -->
<g id="edge58" class="edge"><title>Node29&#45;&gt;Node46</title>
<path fill="none" stroke="midnightblue" d="M706.547,-268.475C697.434,-259.285 682.73,-244.456 671.524,-233.156"/>
<polygon fill="midnightblue" stroke="midnightblue" points="673.964,-230.646 664.438,-226.009 668.993,-235.574 673.964,-230.646"/>
</g>
<!-- Node30&#45;&gt;Node14 -->
<g id="edge30" class="edge"><title>Node30&#45;&gt;Node14</title>
<path fill="none" stroke="midnightblue" d="M488.221,-134.472C488.779,-118.267 486.899,-92.0399 471,-78 410.403,-24.4898 185.687,-67.5828 109,-42 104.518,-40.5047 100,-38.3152 95.8076,-35.9276"/>
<polygon fill="midnightblue" stroke="midnightblue" points="97.6166,-32.9307 87.2866,-30.5767 93.894,-38.8588 97.6166,-32.9307"/>
</g>
<!-- Node32&#45;&gt;Node12 -->
<g id="edge35" class="edge"><title>Node32&#45;&gt;Node12</title>
<path fill="none" stroke="midnightblue" d="M753.361,-201.321C728.152,-184.297 683.926,-155.369 644,-134 621.353,-121.879 594.801,-110.035 574.75,-101.543"/>
<polygon fill="midnightblue" stroke="midnightblue" points="576.051,-98.2929 565.475,-97.6565 573.346,-104.749 576.051,-98.2929"/>
</g>
<!-- Node33 -->
<g id="node33" class="node"><title>Node33</title>
<polygon fill="none" stroke="#bfbfbf" points="729.5,-140 729.5,-159 764.5,-159 764.5,-140 729.5,-140"/>
<text text-anchor="middle" x="747" y="-147" font-family="Helvetica,sans-Serif" font-size="10.00">map</text>
</g>
<!-- Node32&#45;&gt;Node33 -->
<g id="edge33" class="edge"><title>Node32&#45;&gt;Node33</title>
<path fill="none" stroke="midnightblue" d="M768.141,-201.396C764.14,-191.763 758.803,-178.914 754.492,-168.537"/>
<polygon fill="midnightblue" stroke="midnightblue" points="757.68,-167.087 750.612,-159.195 751.215,-169.772 757.68,-167.087"/>
</g>
<!-- Node34 -->
<g id="node34" class="node"><title>Node34</title>
<polygon fill="none" stroke="#bfbfbf" points="591,-140 591,-159 635,-159 635,-140 591,-140"/>
<text text-anchor="middle" x="613" y="-147" font-family="Helvetica,sans-Serif" font-size="10.00">vector</text>
</g>
<!-- Node32&#45;&gt;Node34 -->
<g id="edge34" class="edge"><title>Node32&#45;&gt;Node34</title>
<path fill="none" stroke="midnightblue" d="M739.065,-201.396C710.566,-189.89 670.706,-173.797 643.484,-162.807"/>
<polygon fill="midnightblue" stroke="midnightblue" points="644.654,-159.505 634.071,-159.007 642.034,-165.996 644.654,-159.505"/>
</g>
<!-- Node35 -->
<g id="node35" class="node"><title>Node35</title>
<polygon fill="none" stroke="#bfbfbf" points="1066.5,-78.5 1066.5,-97.5 1107.5,-97.5 1107.5,-78.5 1066.5,-78.5"/>
<text text-anchor="middle" x="1087" y="-85.5" font-family="Helvetica,sans-Serif" font-size="10.00">string</text>
</g>
<!-- Node32&#45;&gt;Node35 -->
<g id="edge36" class="edge"><title>Node32&#45;&gt;Node35</title>
<path fill="none" stroke="midnightblue" d="M808.692,-201.479C870.532,-176.486 998.778,-124.655 1057.04,-101.109"/>
<polygon fill="midnightblue" stroke="midnightblue" points="1058.46,-104.31 1066.42,-97.3176 1055.84,-97.8197 1058.46,-104.31"/>
</g>
<!-- Node37&#45;&gt;Node34 -->
<g id="edge39" class="edge"><title>Node37&#45;&gt;Node34</title>
<path fill="none" stroke="midnightblue" d="M554.274,-201.396C566.315,-190.96 582.711,-176.751 595.118,-165.998"/>
<polygon fill="midnightblue" stroke="midnightblue" points="597.703,-168.389 602.968,-159.195 593.119,-163.099 597.703,-168.389"/>
</g>
<!-- Node38&#45;&gt;Node11 -->
<g id="edge57" class="edge"><title>Node38&#45;&gt;Node11</title>
<path fill="none" stroke="midnightblue" d="M967.249,-201.479C949.325,-178.104 913.399,-131.253 894.053,-106.022"/>
<polygon fill="midnightblue" stroke="midnightblue" points="896.602,-103.594 887.739,-97.7885 891.047,-107.854 896.602,-103.594"/>
</g>
<!-- Node39 -->
<g id="node39" class="node"><title>Node39</title>
<g id="a_node39"><a xlink:href="XBotPipes_8h.html" target="_top" xlink:title="XBotCore&#45;interfaces\l/XBotPipes.h">
<polygon fill="none" stroke="black" points="782.5,-134.5 782.5,-164.5 887.5,-164.5 887.5,-134.5 782.5,-134.5"/>
<text text-anchor="start" x="790.5" y="-152.5" font-family="Helvetica,sans-Serif" font-size="10.00">XBotCore&#45;interfaces</text>
<text text-anchor="middle" x="835" y="-141.5" font-family="Helvetica,sans-Serif" font-size="10.00">/XBotPipes.h</text>
</a>
</g>
</g>
<!-- Node38&#45;&gt;Node39 -->
<g id="edge41" class="edge"><title>Node38&#45;&gt;Node39</title>
<path fill="none" stroke="midnightblue" d="M946.971,-201.396C925.983,-191.856 898.059,-179.163 875.347,-168.84"/>
<polygon fill="midnightblue" stroke="midnightblue" points="876.52,-165.528 865.968,-164.577 873.624,-171.901 876.52,-165.528"/>
</g>
<!-- Node40 -->
<g id="node40" class="node"><title>Node40</title>
<polygon fill="none" stroke="#bfbfbf" points="988,-78.5 988,-97.5 1048,-97.5 1048,-78.5 988,-78.5"/>
<text text-anchor="middle" x="1018" y="-85.5" font-family="Helvetica,sans-Serif" font-size="10.00">sys/stat.h</text>
</g>
<!-- Node38&#45;&gt;Node40 -->
<g id="edge55" class="edge"><title>Node38&#45;&gt;Node40</title>
<path fill="none" stroke="midnightblue" d="M982.434,-201.479C989.695,-178.514 1004.12,-132.889 1012.19,-107.37"/>
<polygon fill="midnightblue" stroke="midnightblue" points="1015.54,-108.378 1015.22,-97.7885 1008.87,-106.268 1015.54,-108.378"/>
</g>
<!-- Node41 -->
<g id="node41" class="node"><title>Node41</title>
<polygon fill="none" stroke="#bfbfbf" points="926,-78.5 926,-97.5 970,-97.5 970,-78.5 926,-78.5"/>
<text text-anchor="middle" x="948" y="-85.5" font-family="Helvetica,sans-Serif" font-size="10.00">fcntl.h</text>
</g>
<!-- Node38&#45;&gt;Node41 -->
<g id="edge56" class="edge"><title>Node38&#45;&gt;Node41</title>
<path fill="none" stroke="midnightblue" d="M974.675,-201.479C969.253,-178.616 958.505,-133.296 952.438,-107.713"/>
<polygon fill="midnightblue" stroke="midnightblue" points="955.797,-106.711 950.084,-97.7885 948.986,-108.326 955.797,-106.711"/>
</g>
<!-- Node42 -->
<g id="node42" class="node"><title>Node42</title>
<g id="a_node42"><a xlink:href="CommunicationInterfaceROS_8h.html" target="_top" xlink:title="XCM/CommunicationInterface\lROS.h">
<polygon fill="none" stroke="red" points="1220.5,-134.5 1220.5,-164.5 1369.5,-164.5 1369.5,-134.5 1220.5,-134.5"/>
<text text-anchor="start" x="1228.5" y="-152.5" font-family="Helvetica,sans-Serif" font-size="10.00">XCM/CommunicationInterface</text>
<text text-anchor="middle" x="1295" y="-141.5" font-family="Helvetica,sans-Serif" font-size="10.00">ROS.h</text>
</a>
</g>
</g>
<!-- Node38&#45;&gt;Node42 -->
<g id="edge50" class="edge"><title>Node38&#45;&gt;Node42</title>
<path fill="none" stroke="midnightblue" d="M1046.39,-201.476C1096.41,-191.221 1164.35,-177.29 1216.56,-166.583"/>
<polygon fill="midnightblue" stroke="midnightblue" points="1217.36,-169.992 1226.46,-164.555 1215.96,-163.135 1217.36,-169.992"/>
</g>
<!-- Node39&#45;&gt;Node5 -->
<g id="edge48" class="edge"><title>Node39&#45;&gt;Node5</title>
<path fill="none" stroke="midnightblue" d="M782.906,-134.475C741.906,-123.436 685.852,-108.345 649.781,-98.6335"/>
<polygon fill="midnightblue" stroke="midnightblue" points="650.284,-95.1441 639.718,-95.9239 648.464,-101.903 650.284,-95.1441"/>
</g>
<!-- Node39&#45;&gt;Node7 -->
<g id="edge45" class="edge"><title>Node39&#45;&gt;Node7</title>
<path fill="none" stroke="midnightblue" d="M801.111,-134.399C777.118,-124.416 745.226,-111.147 722.123,-101.534"/>
<polygon fill="midnightblue" stroke="midnightblue" points="723.385,-98.268 712.808,-97.6578 720.696,-104.731 723.385,-98.268"/>
</g>
<!-- Node39&#45;&gt;Node11 -->
<g id="edge44" class="edge"><title>Node39&#45;&gt;Node11</title>
<path fill="none" stroke="midnightblue" d="M845.901,-134.399C852.586,-125.753 861.176,-114.642 868.185,-105.576"/>
<polygon fill="midnightblue" stroke="midnightblue" points="870.959,-107.71 874.307,-97.6578 865.421,-103.428 870.959,-107.71"/>
</g>
<!-- Node39&#45;&gt;Node12 -->
<g id="edge43" class="edge"><title>Node39&#45;&gt;Node12</title>
<path fill="none" stroke="midnightblue" d="M782.272,-135.993C779.138,-135.304 776.029,-134.635 773,-134 690.272,-116.66 666.338,-116.889 580.274,-98.1628"/>
<polygon fill="midnightblue" stroke="midnightblue" points="580.845,-94.7048 570.327,-95.9749 579.342,-101.541 580.845,-94.7048"/>
</g>
<!-- Node39&#45;&gt;Node13 -->
<g id="edge49" class="edge"><title>Node39&#45;&gt;Node13</title>
<path fill="none" stroke="midnightblue" d="M824.336,-134.399C817.864,-125.842 809.566,-114.871 802.749,-105.857"/>
<polygon fill="midnightblue" stroke="midnightblue" points="805.372,-103.522 796.548,-97.6578 799.789,-107.745 805.372,-103.522"/>
</g>
<!-- Node39&#45;&gt;Node35 -->
<g id="edge42" class="edge"><title>Node39&#45;&gt;Node35</title>
<path fill="none" stroke="midnightblue" d="M887.725,-137.56C930.657,-128.412 993.021,-114.585 1056.6,-97.9633"/>
<polygon fill="midnightblue" stroke="midnightblue" points="1057.62,-101.314 1066.4,-95.3817 1055.83,-94.5451 1057.62,-101.314"/>
</g>
<!-- Node39&#45;&gt;Node40 -->
<g id="edge46" class="edge"><title>Node39&#45;&gt;Node40</title>
<path fill="none" stroke="midnightblue" d="M878.368,-134.399C909.99,-124.118 952.333,-110.351 982.071,-100.682"/>
<polygon fill="midnightblue" stroke="midnightblue" points="983.211,-103.992 991.639,-97.5709 981.047,-97.3345 983.211,-103.992"/>
</g>
<!-- Node39&#45;&gt;Node41 -->
<g id="edge47" class="edge"><title>Node39&#45;&gt;Node41</title>
<path fill="none" stroke="midnightblue" d="M861.779,-134.399C880.062,-124.773 904.148,-112.09 922.215,-102.577"/>
<polygon fill="midnightblue" stroke="midnightblue" points="924.34,-105.414 931.557,-97.6578 921.078,-99.22 924.34,-105.414"/>
</g>
<!-- Node42&#45;&gt;Node27 -->
<g id="edge51" class="edge"><title>Node42&#45;&gt;Node27</title>
<path fill="none" stroke="midnightblue" d="M1356.76,-134.475C1403.54,-123.851 1466.85,-109.473 1509.66,-99.7507"/>
<polygon fill="midnightblue" stroke="midnightblue" points="1510.57,-103.134 1519.54,-97.5064 1509.02,-96.308 1510.57,-103.134"/>
</g>
<!-- Node43 -->
<g id="node43" class="node"><title>Node43</title>
<polygon fill="none" stroke="#bfbfbf" points="1267.5,-78.5 1267.5,-97.5 1322.5,-97.5 1322.5,-78.5 1267.5,-78.5"/>
<text text-anchor="middle" x="1295" y="-85.5" font-family="Helvetica,sans-Serif" font-size="10.00">ros/ros.h</text>
</g>
<!-- Node42&#45;&gt;Node43 -->
<g id="edge52" class="edge"><title>Node42&#45;&gt;Node43</title>
<path fill="none" stroke="midnightblue" d="M1295,-134.399C1295,-126.466 1295,-116.458 1295,-107.858"/>
<polygon fill="midnightblue" stroke="midnightblue" points="1298.5,-107.658 1295,-97.6578 1291.5,-107.658 1298.5,-107.658"/>
</g>
<!-- Node44 -->
<g id="node44" class="node"><title>Node44</title>
<polygon fill="none" stroke="#bfbfbf" points="1341,-78.5 1341,-97.5 1441,-97.5 1441,-78.5 1341,-78.5"/>
<text text-anchor="middle" x="1391" y="-85.5" font-family="Helvetica,sans-Serif" font-size="10.00">std_srvs/SetBool.h</text>
</g>
<!-- Node42&#45;&gt;Node44 -->
<g id="edge53" class="edge"><title>Node42&#45;&gt;Node44</title>
<path fill="none" stroke="midnightblue" d="M1317.75,-134.399C1332.99,-124.951 1352.99,-112.559 1368.24,-103.109"/>
<polygon fill="midnightblue" stroke="midnightblue" points="1370.38,-105.901 1377.03,-97.6578 1366.69,-99.951 1370.38,-105.901"/>
</g>
<!-- Node45 -->
<g id="node45" class="node"><title>Node45</title>
<polygon fill="none" stroke="#bfbfbf" points="1169,-78.5 1169,-97.5 1249,-97.5 1249,-78.5 1169,-78.5"/>
<text text-anchor="middle" x="1209" y="-85.5" font-family="Helvetica,sans-Serif" font-size="10.00">boost/bind.hpp</text>
</g>
<!-- Node42&#45;&gt;Node45 -->
<g id="edge54" class="edge"><title>Node42&#45;&gt;Node45</title>
<path fill="none" stroke="midnightblue" d="M1274.62,-134.399C1261.09,-125.04 1243.39,-112.792 1229.78,-103.377"/>
<polygon fill="midnightblue" stroke="midnightblue" points="1231.73,-100.469 1221.51,-97.6578 1227.75,-106.226 1231.73,-100.469"/>
</g>
<!-- Node47&#45;&gt;Node35 -->
<g id="edge60" class="edge"><title>Node47&#45;&gt;Node35</title>
<path fill="none" stroke="midnightblue" d="M1144.7,-268.401C1126.72,-261.606 1105.3,-250.169 1094,-232 1069.9,-193.24 1076.77,-136.511 1082.58,-107.532"/>
<polygon fill="midnightblue" stroke="midnightblue" points="1086.05,-108.084 1084.77,-97.5662 1079.21,-106.585 1086.05,-108.084"/>
</g>
<!-- Node48 -->
<g id="node48" class="node"><title>Node48</title>
<polygon fill="none" stroke="#bfbfbf" points="1103.5,-207 1103.5,-226 1246.5,-226 1246.5,-207 1103.5,-207"/>
<text text-anchor="middle" x="1175" y="-214" font-family="Helvetica,sans-Serif" font-size="10.00">SharedLibraryClassFactory.h</text>
</g>
<!-- Node47&#45;&gt;Node48 -->
<g id="edge61" class="edge"><title>Node47&#45;&gt;Node48</title>
<path fill="none" stroke="midnightblue" d="M1175,-268.475C1175,-260.08 1175,-246.981 1175,-236.163"/>
<polygon fill="midnightblue" stroke="midnightblue" points="1178.5,-236.009 1175,-226.009 1171.5,-236.009 1178.5,-236.009"/>
</g>
<!-- Node49 -->
<g id="node49" class="node"><title>Node49</title>
<polygon fill="none" stroke="#bfbfbf" points="1265,-207 1265,-226 1375,-226 1375,-207 1265,-207"/>
<text text-anchor="middle" x="1320" y="-214" font-family="Helvetica,sans-Serif" font-size="10.00">SharedLibraryClass.h</text>
</g>
<!-- Node47&#45;&gt;Node49 -->
<g id="edge62" class="edge"><title>Node47&#45;&gt;Node49</title>
<path fill="none" stroke="midnightblue" d="M1195.77,-268.475C1220.43,-258.357 1261.75,-241.405 1289.9,-229.851"/>
<polygon fill="midnightblue" stroke="midnightblue" points="1291.34,-233.043 1299.26,-226.009 1288.68,-226.567 1291.34,-233.043"/>
</g>
<!-- Node50 -->
<g id="node50" class="node"><title>Node50</title>
<polygon fill="none" stroke="#bfbfbf" points="1393,-207 1393,-226 1541,-226 1541,-207 1393,-207"/>
<text text-anchor="middle" x="1467" y="-214" font-family="Helvetica,sans-Serif" font-size="10.00">XBotInterface/XBotInterface.h</text>
</g>
<!-- Node47&#45;&gt;Node50 -->
<g id="edge63" class="edge"><title>Node47&#45;&gt;Node50</title>
<path fill="none" stroke="midnightblue" d="M1216.84,-268.475C1269.2,-257.805 1358.87,-239.534 1415.43,-228.009"/>
<polygon fill="midnightblue" stroke="midnightblue" points="1416.14,-231.435 1425.24,-226.009 1414.74,-224.576 1416.14,-231.435"/>
</g>
</g>
</svg>
