<?xml version="1.0" encoding="UTF-8" standalone="no"?>
<!DOCTYPE svg PUBLIC "-//W3C//DTD SVG 1.1//EN"
 "http://www.w3.org/Graphics/SVG/1.1/DTD/svg11.dtd">
<!-- Generated by graphviz version 2.38.0 (20140413.2041)
 -->
<!-- Title: /home/lucamuratore/advr&#45;superbuild/external/XCM/include/XCM/XBotYARP/XBotMotionControl.h Pages: 1 -->
<svg width="1590pt" height="184pt"
 viewBox="0.00 0.00 1590.00 184.00" xmlns="http://www.w3.org/2000/svg" xmlns:xlink="http://www.w3.org/1999/xlink">
<g id="graph0" class="graph" transform="scale(1 1) rotate(0) translate(4 180)">
<title>/home/lucamuratore/advr&#45;superbuild/external/XCM/include/XCM/XBotYARP/XBotMotionControl.h</title>
<!-- Node1 -->
<g id="node1" class="node"><title>Node1</title>
<polygon fill="#bfbfbf" stroke="black" points="508,-123.5 508,-175.5 662,-175.5 662,-123.5 508,-123.5"/>
<text text-anchor="start" x="516" y="-163.5" font-family="Helvetica,sans-Serif" font-size="10.00">/home/lucamuratore</text>
<text text-anchor="start" x="516" y="-152.5" font-family="Helvetica,sans-Serif" font-size="10.00">/advr&#45;superbuild/external</text>
<text text-anchor="start" x="516" y="-141.5" font-family="Helvetica,sans-Serif" font-size="10.00">/XCM/include/XCM/XBotYARP</text>
<text text-anchor="middle" x="585" y="-130.5" font-family="Helvetica,sans-Serif" font-size="10.00">/XBotMotionControl.h</text>
</g>
<!-- Node2 -->
<g id="node2" class="node"><title>Node2</title>
<polygon fill="none" stroke="#bfbfbf" points="0,-62 0,-81 52,-81 52,-62 0,-62"/>
<text text-anchor="middle" x="26" y="-69" font-family="Helvetica,sans-Serif" font-size="10.00">memory</text>
</g>
<!-- Node1&#45;&gt;Node2 -->
<g id="edge1" class="edge"><title>Node1&#45;&gt;Node2</title>
<path fill="none" stroke="midnightblue" d="M507.615,-145.812C404.496,-140.785 217.02,-126.579 62,-87 59.4865,-86.3583 56.9148,-85.5816 54.3593,-84.7251"/>
<polygon fill="midnightblue" stroke="midnightblue" points="55.333,-81.353 44.7402,-81.1427 52.8899,-87.9128 55.333,-81.353"/>
</g>
<!-- Node3 -->
<g id="node3" class="node"><title>Node3</title>
<polygon fill="none" stroke="#bfbfbf" points="70.5,-62 70.5,-81 105.5,-81 105.5,-62 70.5,-62"/>
<text text-anchor="middle" x="88" y="-69" font-family="Helvetica,sans-Serif" font-size="10.00">map</text>
</g>
<!-- Node1&#45;&gt;Node3 -->
<g id="edge2" class="edge"><title>Node1&#45;&gt;Node3</title>
<path fill="none" stroke="midnightblue" d="M507.85,-146.908C413.175,-143.04 248.754,-130.063 115,-87 113.576,-86.5414 112.138,-86.0085 110.708,-85.4233"/>
<polygon fill="midnightblue" stroke="midnightblue" points="112.114,-82.2157 101.585,-81.0325 109.078,-88.5232 112.114,-82.2157"/>
</g>
<!-- Node4 -->
<g id="node4" class="node"><title>Node4</title>
<polygon fill="none" stroke="#bfbfbf" points="123.5,-62 123.5,-81 172.5,-81 172.5,-62 123.5,-62"/>
<text text-anchor="middle" x="148" y="-69" font-family="Helvetica,sans-Serif" font-size="10.00">stdint.h</text>
</g>
<!-- Node1&#45;&gt;Node4 -->
<g id="edge3" class="edge"><title>Node1&#45;&gt;Node4</title>
<path fill="none" stroke="midnightblue" d="M507.639,-142.515C425.59,-134.827 292.787,-118.531 182,-87 179.709,-86.3479 177.367,-85.5799 175.037,-84.7435"/>
<polygon fill="midnightblue" stroke="midnightblue" points="176.278,-81.4704 165.692,-81.0406 173.7,-87.9782 176.278,-81.4704"/>
</g>
<!-- Node5 -->
<g id="node5" class="node"><title>Node5</title>
<polygon fill="none" stroke="#bfbfbf" points="191,-62 191,-81 235,-81 235,-62 191,-62"/>
<text text-anchor="middle" x="213" y="-69" font-family="Helvetica,sans-Serif" font-size="10.00">vector</text>
</g>
<!-- Node1&#45;&gt;Node5 -->
<g id="edge4" class="edge"><title>Node1&#45;&gt;Node5</title>
<path fill="none" stroke="midnightblue" d="M507.78,-140.365C437.75,-131.633 332.282,-115.082 244,-87 242.326,-86.4676 240.626,-85.8647 238.927,-85.2149"/>
<polygon fill="midnightblue" stroke="midnightblue" points="239.984,-81.8602 229.413,-81.1412 237.228,-88.2951 239.984,-81.8602"/>
</g>
<!-- Node6 -->
<g id="node6" class="node"><title>Node6</title>
<polygon fill="none" stroke="#bfbfbf" points="253,-62 253,-81 339,-81 339,-62 253,-62"/>
<text text-anchor="middle" x="296" y="-69" font-family="Helvetica,sans-Serif" font-size="10.00">yarp/os/Bottle.h</text>
</g>
<!-- Node1&#45;&gt;Node6 -->
<g id="edge5" class="edge"><title>Node1&#45;&gt;Node6</title>
<path fill="none" stroke="midnightblue" d="M507.79,-128.84C461.413,-116.937 401.26,-101.335 348,-87 344.14,-85.961 340.122,-84.8656 336.107,-83.7616"/>
<polygon fill="midnightblue" stroke="midnightblue" points="336.792,-80.3199 326.221,-81.0264 334.926,-87.0664 336.792,-80.3199"/>
</g>
<!-- Node7 -->
<g id="node7" class="node"><title>Node7</title>
<polygon fill="none" stroke="#bfbfbf" points="357,-62 357,-81 439,-81 439,-62 357,-62"/>
<text text-anchor="middle" x="398" y="-69" font-family="Helvetica,sans-Serif" font-size="10.00">yarp/os/Time.h</text>
</g>
<!-- Node1&#45;&gt;Node7 -->
<g id="edge6" class="edge"><title>Node1&#45;&gt;Node7</title>
<path fill="none" stroke="midnightblue" d="M523.251,-123.404C491.507,-110.503 454.222,-95.3495 428.636,-84.9511"/>
<polygon fill="midnightblue" stroke="midnightblue" points="429.688,-81.6006 419.106,-81.0779 427.053,-88.0855 429.688,-81.6006"/>
</g>
<!-- Node8 -->
<g id="node8" class="node"><title>Node8</title>
<polygon fill="none" stroke="#bfbfbf" points="457,-62 457,-81 579,-81 579,-62 457,-62"/>
<text text-anchor="middle" x="518" y="-69" font-family="Helvetica,sans-Serif" font-size="10.00">yarp/dev/DeviceDriver.h</text>
</g>
<!-- Node1&#45;&gt;Node8 -->
<g id="edge7" class="edge"><title>Node1&#45;&gt;Node8</title>
<path fill="none" stroke="midnightblue" d="M562.69,-123.193C552.697,-111.858 541.204,-98.821 532.375,-88.8065"/>
<polygon fill="midnightblue" stroke="midnightblue" points="534.916,-86.3956 525.678,-81.2089 529.665,-91.0247 534.916,-86.3956"/>
</g>
<!-- Node9 -->
<g id="node9" class="node"><title>Node9</title>
<polygon fill="none" stroke="#bfbfbf" points="597.5,-62 597.5,-81 708.5,-81 708.5,-62 597.5,-62"/>
<text text-anchor="middle" x="653" y="-69" font-family="Helvetica,sans-Serif" font-size="10.00">yarp/dev/PolyDriver.h</text>
</g>
<!-- Node1&#45;&gt;Node9 -->
<g id="edge8" class="edge"><title>Node1&#45;&gt;Node9</title>
<path fill="none" stroke="midnightblue" d="M607.643,-123.193C617.785,-111.858 629.45,-98.821 638.41,-88.8065"/>
<polygon fill="midnightblue" stroke="midnightblue" points="641.148,-90.9951 645.208,-81.2089 635.931,-86.3275 641.148,-90.9951"/>
</g>
<!-- Node10 -->
<g id="node10" class="node"><title>Node10</title>
<polygon fill="none" stroke="#bfbfbf" points="726,-62 726,-81 828,-81 828,-62 726,-62"/>
<text text-anchor="middle" x="777" y="-69" font-family="Helvetica,sans-Serif" font-size="10.00">yarp/dev/Wrapper.h</text>
</g>
<!-- Node1&#45;&gt;Node10 -->
<g id="edge9" class="edge"><title>Node1&#45;&gt;Node10</title>
<path fill="none" stroke="midnightblue" d="M648.4,-123.404C681.137,-110.446 719.614,-95.2154 745.893,-84.8134"/>
<polygon fill="midnightblue" stroke="midnightblue" points="747.32,-88.0128 755.329,-81.0779 744.743,-81.5041 747.32,-88.0128"/>
</g>
<!-- Node11 -->
<g id="node11" class="node"><title>Node11</title>
<polygon fill="none" stroke="#bfbfbf" points="846,-62 846,-81 956,-81 956,-62 846,-62"/>
<text text-anchor="middle" x="901" y="-69" font-family="Helvetica,sans-Serif" font-size="10.00">yarp/os/Semaphore.h</text>
</g>
<!-- Node1&#45;&gt;Node11 -->
<g id="edge10" class="edge"><title>Node1&#45;&gt;Node11</title>
<path fill="none" stroke="midnightblue" d="M662.302,-129.908C722.815,-115.355 804.916,-95.6088 855.358,-83.4773"/>
<polygon fill="midnightblue" stroke="midnightblue" points="856.411,-86.8239 865.315,-81.0825 854.774,-80.018 856.411,-86.8239"/>
</g>
<!-- Node12 -->
<g id="node12" class="node"><title>Node12</title>
<polygon fill="none" stroke="#bfbfbf" points="974.5,-62 974.5,-81 1085.5,-81 1085.5,-62 974.5,-62"/>
<text text-anchor="middle" x="1030" y="-69" font-family="Helvetica,sans-Serif" font-size="10.00">yarp/os/RateThread.h</text>
</g>
<!-- Node1&#45;&gt;Node12 -->
<g id="edge11" class="edge"><title>Node1&#45;&gt;Node12</title>
<path fill="none" stroke="midnightblue" d="M662.019,-137.398C738.954,-125.989 860.487,-107.096 965,-87 971.11,-85.8251 977.523,-84.5035 983.843,-83.1487"/>
<polygon fill="midnightblue" stroke="midnightblue" points="984.616,-86.5625 993.638,-81.0088 983.122,-79.7238 984.616,-86.5625"/>
</g>
<!-- Node13 -->
<g id="node13" class="node"><title>Node13</title>
<polygon fill="none" stroke="#bfbfbf" points="1103,-56.5 1103,-86.5 1261,-86.5 1261,-56.5 1103,-56.5"/>
<text text-anchor="start" x="1111" y="-74.5" font-family="Helvetica,sans-Serif" font-size="10.00">yarp/dev/ControlBoardInterfaces</text>
<text text-anchor="middle" x="1182" y="-63.5" font-family="Helvetica,sans-Serif" font-size="10.00">Impl.h</text>
</g>
<!-- Node1&#45;&gt;Node13 -->
<g id="edge12" class="edge"><title>Node1&#45;&gt;Node13</title>
<path fill="none" stroke="midnightblue" d="M662.04,-140.306C759.976,-129.643 934.496,-109.821 1092.91,-87.2695"/>
<polygon fill="midnightblue" stroke="midnightblue" points="1093.43,-90.7302 1102.84,-85.8495 1092.44,-83.8007 1093.43,-90.7302"/>
</g>
<!-- Node14 -->
<g id="node14" class="node"><title>Node14</title>
<polygon fill="none" stroke="#bfbfbf" points="1279,-56.5 1279,-86.5 1437,-86.5 1437,-56.5 1279,-56.5"/>
<text text-anchor="start" x="1287" y="-74.5" font-family="Helvetica,sans-Serif" font-size="10.00">yarp/dev/ControlBoardInterfaces</text>
<text text-anchor="middle" x="1358" y="-63.5" font-family="Helvetica,sans-Serif" font-size="10.00">Impl.inl</text>
</g>
<!-- Node1&#45;&gt;Node14 -->
<g id="edge13" class="edge"><title>Node1&#45;&gt;Node14</title>
<path fill="none" stroke="midnightblue" d="M662.247,-143.43C787.454,-134.801 1042.66,-115.503 1268.82,-87.0916"/>
<polygon fill="midnightblue" stroke="midnightblue" points="1269.4,-90.5456 1278.89,-85.8185 1268.53,-83.601 1269.4,-90.5456"/>
</g>
<!-- Node15 -->
<g id="node15" class="node"><title>Node15</title>
<g id="a_node15"><a xlink:href="IXBotInit_8h.html" target="_top" xlink:title="XBotCore&#45;interfaces\l/IXBotInit.h">
<polygon fill="none" stroke="black" points="1455.5,-56.5 1455.5,-86.5 1560.5,-86.5 1560.5,-56.5 1455.5,-56.5"/>
<text text-anchor="start" x="1463.5" y="-74.5" font-family="Helvetica,sans-Serif" font-size="10.00">XBotCore&#45;interfaces</text>
<text text-anchor="middle" x="1508" y="-63.5" font-family="Helvetica,sans-Serif" font-size="10.00">/IXBotInit.h</text>
</a>
</g>
</g>
<!-- Node1&#45;&gt;Node15 -->
<g id="edge14" class="edge"><title>Node1&#45;&gt;Node15</title>
<path fill="none" stroke="midnightblue" d="M662.048,-147.083C811.511,-143.444 1151.19,-130.828 1445.34,-86.9213"/>
<polygon fill="midnightblue" stroke="midnightblue" points="1445.98,-90.3647 1455.35,-85.4131 1444.94,-83.4429 1445.98,-90.3647"/>
</g>
<!-- Node16 -->
<g id="node16" class="node"><title>Node16</title>
<polygon fill="none" stroke="#bfbfbf" points="1434,-0.5 1434,-19.5 1582,-19.5 1582,-0.5 1434,-0.5"/>
<text text-anchor="middle" x="1508" y="-7.5" font-family="Helvetica,sans-Serif" font-size="10.00">XBotInterface/XBotInterface.h</text>
</g>
<!-- Node15&#45;&gt;Node16 -->
<g id="edge15" class="edge"><title>Node15&#45;&gt;Node16</title>
<path fill="none" stroke="midnightblue" d="M1508,-56.3993C1508,-48.4664 1508,-38.458 1508,-29.8583"/>
<polygon fill="midnightblue" stroke="midnightblue" points="1511.5,-29.6577 1508,-19.6578 1504.5,-29.6578 1511.5,-29.6577"/>
</g>
</g>
</svg>
