<?xml version="1.0" encoding="UTF-8" standalone="no"?>
<!DOCTYPE svg PUBLIC "-//W3C//DTD SVG 1.1//EN"
 "http://www.w3.org/Graphics/SVG/1.1/DTD/svg11.dtd">
<!-- Generated by graphviz version 2.38.0 (20140413.2041)
 -->
<!-- Title: /home/lucamuratore/advr&#45;superbuild/external/XCM/include/XCM/XBotCommunicationInterface.h Pages: 1 -->
<svg width="1449pt" height="584pt"
 viewBox="0.00 0.00 1449.00 584.00" xmlns="http://www.w3.org/2000/svg" xmlns:xlink="http://www.w3.org/1999/xlink">
<g id="graph0" class="graph" transform="scale(1 1) rotate(0) translate(4 580)">
<title>/home/lucamuratore/advr&#45;superbuild/external/XCM/include/XCM/XBotCommunicationInterface.h</title>
<!-- Node1 -->
<g id="node1" class="node"><title>Node1</title>
<polygon fill="#bfbfbf" stroke="black" points="735,-523.5 735,-575.5 929,-575.5 929,-523.5 735,-523.5"/>
<text text-anchor="start" x="743" y="-563.5" font-family="Helvetica,sans-Serif" font-size="10.00">/home/lucamuratore</text>
<text text-anchor="start" x="743" y="-552.5" font-family="Helvetica,sans-Serif" font-size="10.00">/advr&#45;superbuild/external</text>
<text text-anchor="start" x="743" y="-541.5" font-family="Helvetica,sans-Serif" font-size="10.00">/XCM/include/XCM/XBotCommunication</text>
<text text-anchor="middle" x="832" y="-530.5" font-family="Helvetica,sans-Serif" font-size="10.00">Interface.h</text>
</g>
<!-- Node2 -->
<g id="node2" class="node"><title>Node2</title>
<g id="a_node2"><a xlink:href="CommunicationInterfaceROS_8h.html" target="_top" xlink:title="/home/lucamuratore\l/advr&#45;superbuild/external\l/XCM/include/XCM/CommunicationInterfaceROS.h">
<polygon fill="none" stroke="black" points="637.5,-440 637.5,-481 878.5,-481 878.5,-440 637.5,-440"/>
<text text-anchor="start" x="645.5" y="-469" font-family="Helvetica,sans-Serif" font-size="10.00">/home/lucamuratore</text>
<text text-anchor="start" x="645.5" y="-458" font-family="Helvetica,sans-Serif" font-size="10.00">/advr&#45;superbuild/external</text>
<text text-anchor="middle" x="758" y="-447" font-family="Helvetica,sans-Serif" font-size="10.00">/XCM/include/XCM/CommunicationInterfaceROS.h</text>
</a>
</g>
</g>
<!-- Node1&#45;&gt;Node2 -->
<g id="edge1" class="edge"><title>Node1&#45;&gt;Node2</title>
<path fill="none" stroke="midnightblue" d="M803.942,-515.513C794.068,-503.904 783.29,-491.232 774.656,-481.082"/>
<polygon fill="midnightblue" stroke="midnightblue" points="801.451,-517.986 810.596,-523.336 806.783,-513.451 801.451,-517.986"/>
</g>
<!-- Node13 -->
<g id="node13" class="node"><title>Node13</title>
<g id="a_node13"><a xlink:href="XBotCommunicationHandler_8h.html" target="_top" xlink:title="/home/lucamuratore\l/advr&#45;superbuild/external\l/XCM/include/XCM/XBotCommunication\lHandler.h">
<polygon fill="none" stroke="black" points="176,-178.5 176,-230.5 370,-230.5 370,-178.5 176,-178.5"/>
<text text-anchor="start" x="184" y="-218.5" font-family="Helvetica,sans-Serif" font-size="10.00">/home/lucamuratore</text>
<text text-anchor="start" x="184" y="-207.5" font-family="Helvetica,sans-Serif" font-size="10.00">/advr&#45;superbuild/external</text>
<text text-anchor="start" x="184" y="-196.5" font-family="Helvetica,sans-Serif" font-size="10.00">/XCM/include/XCM/XBotCommunication</text>
<text text-anchor="middle" x="273" y="-185.5" font-family="Helvetica,sans-Serif" font-size="10.00">Handler.h</text>
</a>
</g>
</g>
<!-- Node1&#45;&gt;Node13 -->
<g id="edge30" class="edge"><title>Node1&#45;&gt;Node13</title>
<path fill="none" stroke="midnightblue" d="M724.674,-530.124C602.927,-503.423 407.636,-441.762 302,-309 283.991,-286.366 277.158,-253.198 274.571,-230.55"/>
<polygon fill="midnightblue" stroke="midnightblue" points="724.251,-533.613 734.764,-532.293 725.723,-526.769 724.251,-533.613"/>
</g>
<!-- Node20 -->
<g id="node20" class="node"><title>Node20</title>
<g id="a_node20"><a xlink:href="XBotModuleHandler_8h.html" target="_top" xlink:title="/home/lucamuratore\l/advr&#45;superbuild/external\l/XCM/include/XCM/XBotModuleHandler.h">
<polygon fill="none" stroke="black" points="1241,-267.5 1241,-308.5 1441,-308.5 1441,-267.5 1241,-267.5"/>
<text text-anchor="start" x="1249" y="-296.5" font-family="Helvetica,sans-Serif" font-size="10.00">/home/lucamuratore</text>
<text text-anchor="start" x="1249" y="-285.5" font-family="Helvetica,sans-Serif" font-size="10.00">/advr&#45;superbuild/external</text>
<text text-anchor="middle" x="1341" y="-274.5" font-family="Helvetica,sans-Serif" font-size="10.00">/XCM/include/XCM/XBotModuleHandler.h</text>
</a>
</g>
</g>
<!-- Node1&#45;&gt;Node20 -->
<g id="edge31" class="edge"><title>Node1&#45;&gt;Node20</title>
<path fill="none" stroke="midnightblue" d="M866.124,-515.926C873.866,-507.138 881.435,-497.215 887,-487 918.311,-429.528 876.456,-387.765 926,-345 975.993,-301.847 1155.63,-318.431 1221,-309 1227.48,-308.065 1234.15,-307.063 1240.87,-306.024"/>
<polygon fill="midnightblue" stroke="midnightblue" points="863.506,-513.602 859.322,-523.336 868.663,-518.336 863.506,-513.602"/>
</g>
<!-- Node26 -->
<g id="node26" class="node"><title>Node26</title>
<g id="a_node26"><a xlink:href="CommunicationInterfaceYARP_8h.html" target="_top" xlink:title="/home/lucamuratore\l/advr&#45;superbuild/external\l/XCM/include/XCM/XBotYARP\l/CommunicationInterfaceYARP.h">
<polygon fill="none" stroke="black" points="940,-434.5 940,-486.5 1102,-486.5 1102,-434.5 940,-434.5"/>
<text text-anchor="start" x="948" y="-474.5" font-family="Helvetica,sans-Serif" font-size="10.00">/home/lucamuratore</text>
<text text-anchor="start" x="948" y="-463.5" font-family="Helvetica,sans-Serif" font-size="10.00">/advr&#45;superbuild/external</text>
<text text-anchor="start" x="948" y="-452.5" font-family="Helvetica,sans-Serif" font-size="10.00">/XCM/include/XCM/XBotYARP</text>
<text text-anchor="middle" x="1021" y="-441.5" font-family="Helvetica,sans-Serif" font-size="10.00">/CommunicationInterfaceYARP.h</text>
</a>
</g>
</g>
<!-- Node1&#45;&gt;Node26 -->
<g id="edge32" class="edge"><title>Node1&#45;&gt;Node26</title>
<path fill="none" stroke="midnightblue" d="M895.753,-519.153C918.766,-508.56 944.51,-496.71 966.644,-486.521"/>
<polygon fill="midnightblue" stroke="midnightblue" points="894.033,-516.092 886.413,-523.453 896.96,-522.451 894.033,-516.092"/>
</g>
<!-- Node3 -->
<g id="node3" class="node"><title>Node3</title>
<g id="a_node3"><a xlink:href="XDomainCommunication_8h.html" target="_top" xlink:title="/home/lucamuratore\l/advr&#45;superbuild/external\l/XCM/include/XBotCore&#45;interfaces\l/XDomainCommunication.h">
<polygon fill="none" stroke="black" points="693.5,-345.5 693.5,-397.5 860.5,-397.5 860.5,-345.5 693.5,-345.5"/>
<text text-anchor="start" x="701.5" y="-385.5" font-family="Helvetica,sans-Serif" font-size="10.00">/home/lucamuratore</text>
<text text-anchor="start" x="701.5" y="-374.5" font-family="Helvetica,sans-Serif" font-size="10.00">/advr&#45;superbuild/external</text>
<text text-anchor="start" x="701.5" y="-363.5" font-family="Helvetica,sans-Serif" font-size="10.00">/XCM/include/XBotCore&#45;interfaces</text>
<text text-anchor="middle" x="777" y="-352.5" font-family="Helvetica,sans-Serif" font-size="10.00">/XDomainCommunication.h</text>
</a>
</g>
</g>
<!-- Node2&#45;&gt;Node3 -->
<g id="edge2" class="edge"><title>Node2&#45;&gt;Node3</title>
<path fill="none" stroke="midnightblue" d="M764.479,-429.835C766.754,-419.416 769.288,-407.814 771.477,-397.788"/>
<polygon fill="midnightblue" stroke="midnightblue" points="761.026,-429.242 762.311,-439.758 767.864,-430.735 761.026,-429.242"/>
</g>
<!-- Node25 -->
<g id="node25" class="node"><title>Node25</title>
<g id="a_node25"><a xlink:href="CommunicationInterfaceROS_8cpp.html" target="_top" xlink:title="/home/lucamuratore\l/advr&#45;superbuild/external\l/XCM/src/CommunicationInterface\lROS.cpp">
<polygon fill="none" stroke="black" points="508,-345.5 508,-397.5 676,-397.5 676,-345.5 508,-345.5"/>
<text text-anchor="start" x="516" y="-385.5" font-family="Helvetica,sans-Serif" font-size="10.00">/home/lucamuratore</text>
<text text-anchor="start" x="516" y="-374.5" font-family="Helvetica,sans-Serif" font-size="10.00">/advr&#45;superbuild/external</text>
<text text-anchor="start" x="516" y="-363.5" font-family="Helvetica,sans-Serif" font-size="10.00">/XCM/src/CommunicationInterface</text>
<text text-anchor="middle" x="592" y="-352.5" font-family="Helvetica,sans-Serif" font-size="10.00">ROS.cpp</text>
</a>
</g>
</g>
<!-- Node2&#45;&gt;Node25 -->
<g id="edge29" class="edge"><title>Node2&#45;&gt;Node25</title>
<path fill="none" stroke="midnightblue" d="M711.764,-435.268C689.36,-423.526 662.477,-409.437 639.863,-397.585"/>
<polygon fill="midnightblue" stroke="midnightblue" points="710.264,-438.433 720.746,-439.976 713.514,-432.233 710.264,-438.433"/>
</g>
<!-- Node4 -->
<g id="node4" class="node"><title>Node4</title>
<g id="a_node4"><a xlink:href="All_8h.html" target="_top" xlink:title="/home/lucamuratore\l/advr&#45;superbuild/external\l/XCM/include/XBotCore&#45;interfaces/All.h">
<polygon fill="none" stroke="black" points="995,-267.5 995,-308.5 1185,-308.5 1185,-267.5 995,-267.5"/>
<text text-anchor="start" x="1003" y="-296.5" font-family="Helvetica,sans-Serif" font-size="10.00">/home/lucamuratore</text>
<text text-anchor="start" x="1003" y="-285.5" font-family="Helvetica,sans-Serif" font-size="10.00">/advr&#45;superbuild/external</text>
<text text-anchor="middle" x="1090" y="-274.5" font-family="Helvetica,sans-Serif" font-size="10.00">/XCM/include/XBotCore&#45;interfaces/All.h</text>
</a>
</g>
</g>
<!-- Node3&#45;&gt;Node4 -->
<g id="edge3" class="edge"><title>Node3&#45;&gt;Node4</title>
<path fill="none" stroke="midnightblue" d="M870.586,-346.132C916.734,-334.115 971.64,-319.819 1014.98,-308.533"/>
<polygon fill="midnightblue" stroke="midnightblue" points="869.674,-342.753 860.878,-348.659 871.438,-349.527 869.674,-342.753"/>
</g>
<!-- Node6 -->
<g id="node6" class="node"><title>Node6</title>
<g id="a_node6"><a xlink:href="NRTDeployer_8h.html" target="_top" xlink:title="/home/lucamuratore\l/advr&#45;superbuild/external\l/XCM/include/XCM/NRTDeployer.h">
<polygon fill="none" stroke="black" points="1174.5,-95 1174.5,-136 1347.5,-136 1347.5,-95 1174.5,-95"/>
<text text-anchor="start" x="1182.5" y="-124" font-family="Helvetica,sans-Serif" font-size="10.00">/home/lucamuratore</text>
<text text-anchor="start" x="1182.5" y="-113" font-family="Helvetica,sans-Serif" font-size="10.00">/advr&#45;superbuild/external</text>
<text text-anchor="middle" x="1261" y="-102" font-family="Helvetica,sans-Serif" font-size="10.00">/XCM/include/XCM/NRTDeployer.h</text>
</a>
</g>
</g>
<!-- Node3&#45;&gt;Node6 -->
<g id="edge12" class="edge"><title>Node3&#45;&gt;Node6</title>
<path fill="none" stroke="midnightblue" d="M870.669,-349.093C878.207,-347.619 885.72,-346.233 893,-345 959.42,-333.755 1141.51,-351.225 1194,-309 1221.71,-286.709 1247.21,-180.751 1256.89,-136.251"/>
<polygon fill="midnightblue" stroke="midnightblue" points="869.881,-345.681 860.761,-351.074 871.254,-352.545 869.881,-345.681"/>
</g>
<!-- Node11 -->
<g id="node11" class="node"><title>Node11</title>
<g id="a_node11"><a xlink:href="XBotCommunicationPlugin_8h.html" target="_top" xlink:title="/home/lucamuratore\l/advr&#45;superbuild/external\l/XCM/include/XBotPlugin\l/XBotCommunicationPlugin.h">
<polygon fill="none" stroke="black" points="475.5,-89.5 475.5,-141.5 620.5,-141.5 620.5,-89.5 475.5,-89.5"/>
<text text-anchor="start" x="483.5" y="-129.5" font-family="Helvetica,sans-Serif" font-size="10.00">/home/lucamuratore</text>
<text text-anchor="start" x="483.5" y="-118.5" font-family="Helvetica,sans-Serif" font-size="10.00">/advr&#45;superbuild/external</text>
<text text-anchor="start" x="483.5" y="-107.5" font-family="Helvetica,sans-Serif" font-size="10.00">/XCM/include/XBotPlugin</text>
<text text-anchor="middle" x="548" y="-96.5" font-family="Helvetica,sans-Serif" font-size="10.00">/XBotCommunicationPlugin.h</text>
</a>
</g>
</g>
<!-- Node3&#45;&gt;Node11 -->
<g id="edge10" class="edge"><title>Node3&#45;&gt;Node11</title>
<path fill="none" stroke="midnightblue" d="M683.572,-344.376C628.474,-328.767 569.066,-311.492 567,-309 527.351,-261.169 535.085,-181.939 542.424,-141.67"/>
<polygon fill="midnightblue" stroke="midnightblue" points="682.861,-347.812 693.436,-347.166 684.766,-341.077 682.861,-347.812"/>
</g>
<!-- Node3&#45;&gt;Node13 -->
<g id="edge13" class="edge"><title>Node3&#45;&gt;Node13</title>
<path fill="none" stroke="midnightblue" d="M683.472,-345.026C595.868,-332.019 409.76,-345.612 347,-309 316.472,-291.191 295.198,-255.214 283.535,-230.735"/>
<polygon fill="midnightblue" stroke="midnightblue" points="682.958,-348.489 693.401,-346.701 684.122,-341.586 682.958,-348.489"/>
</g>
<!-- Node16 -->
<g id="node16" class="node"><title>Node16</title>
<g id="a_node16"><a xlink:href="XBotControlPlugin_8h.html" target="_top" xlink:title="/home/lucamuratore\l/advr&#45;superbuild/external\l/XCM/include/XCM/XBotControlPlugin.h">
<polygon fill="none" stroke="black" points="576.5,-267.5 576.5,-308.5 769.5,-308.5 769.5,-267.5 576.5,-267.5"/>
<text text-anchor="start" x="584.5" y="-296.5" font-family="Helvetica,sans-Serif" font-size="10.00">/home/lucamuratore</text>
<text text-anchor="start" x="584.5" y="-285.5" font-family="Helvetica,sans-Serif" font-size="10.00">/advr&#45;superbuild/external</text>
<text text-anchor="middle" x="673" y="-274.5" font-family="Helvetica,sans-Serif" font-size="10.00">/XCM/include/XCM/XBotControlPlugin.h</text>
</a>
</g>
</g>
<!-- Node3&#45;&gt;Node16 -->
<g id="edge17" class="edge"><title>Node3&#45;&gt;Node16</title>
<path fill="none" stroke="midnightblue" d="M736.992,-339.148C723.942,-328.921 709.827,-317.859 698.182,-308.734"/>
<polygon fill="midnightblue" stroke="midnightblue" points="734.918,-341.969 744.948,-345.382 739.236,-336.459 734.918,-341.969"/>
</g>
<!-- Node3&#45;&gt;Node20 -->
<g id="edge23" class="edge"><title>Node3&#45;&gt;Node20</title>
<path fill="none" stroke="midnightblue" d="M870.653,-348.998C878.195,-347.546 885.713,-346.19 893,-345 1040.35,-320.936 1079.17,-329.911 1227,-309 1231.58,-308.353 1236.25,-307.66 1240.97,-306.936"/>
<polygon fill="midnightblue" stroke="midnightblue" points="869.873,-345.585 860.742,-350.957 871.231,-352.452 869.873,-345.585"/>
</g>
<!-- Node22 -->
<g id="node22" class="node"><title>Node22</title>
<g id="a_node22"><a xlink:href="XBotXDDP_8h.html" target="_top" xlink:title="/home/lucamuratore\l/advr&#45;superbuild/external\l/XCM/include/XCM/XBotXDDP.h">
<polygon fill="none" stroke="black" points="356.5,-267.5 356.5,-308.5 519.5,-308.5 519.5,-267.5 356.5,-267.5"/>
<text text-anchor="start" x="364.5" y="-296.5" font-family="Helvetica,sans-Serif" font-size="10.00">/home/lucamuratore</text>
<text text-anchor="start" x="364.5" y="-285.5" font-family="Helvetica,sans-Serif" font-size="10.00">/advr&#45;superbuild/external</text>
<text text-anchor="middle" x="438" y="-274.5" font-family="Helvetica,sans-Serif" font-size="10.00">/XCM/include/XCM/XBotXDDP.h</text>
</a>
</g>
</g>
<!-- Node3&#45;&gt;Node22 -->
<g id="edge25" class="edge"><title>Node3&#45;&gt;Node22</title>
<path fill="none" stroke="midnightblue" d="M683.319,-344.615C623.585,-329.701 565.405,-316.535 519.722,-306.508"/>
<polygon fill="midnightblue" stroke="midnightblue" points="682.757,-348.082 693.308,-347.121 684.46,-341.293 682.757,-348.082"/>
</g>
<!-- Node24 -->
<g id="node24" class="node"><title>Node24</title>
<g id="a_node24"><a xlink:href="XDomainCommunication_8cpp.html" target="_top" xlink:title="/home/lucamuratore\l/advr&#45;superbuild/external\l/XCM/src/XDomainCommunication.cpp">
<polygon fill="none" stroke="black" points="787.5,-267.5 787.5,-308.5 976.5,-308.5 976.5,-267.5 787.5,-267.5"/>
<text text-anchor="start" x="795.5" y="-296.5" font-family="Helvetica,sans-Serif" font-size="10.00">/home/lucamuratore</text>
<text text-anchor="start" x="795.5" y="-285.5" font-family="Helvetica,sans-Serif" font-size="10.00">/advr&#45;superbuild/external</text>
<text text-anchor="middle" x="882" y="-274.5" font-family="Helvetica,sans-Serif" font-size="10.00">/XCM/src/XDomainCommunication.cpp</text>
</a>
</g>
</g>
<!-- Node3&#45;&gt;Node24 -->
<g id="edge28" class="edge"><title>Node3&#45;&gt;Node24</title>
<path fill="none" stroke="midnightblue" d="M817.393,-339.148C830.568,-328.921 844.819,-317.859 856.576,-308.734"/>
<polygon fill="midnightblue" stroke="midnightblue" points="815.114,-336.486 809.36,-345.382 819.406,-342.016 815.114,-336.486"/>
</g>
<!-- Node5 -->
<g id="node5" class="node"><title>Node5</title>
<g id="a_node5"><a xlink:href="XBotPluginHandler_8h.html" target="_top" xlink:title="/home/lucamuratore\l/advr&#45;superbuild/external\l/XCM/include/XCM/XBotPluginHandler.h">
<polygon fill="none" stroke="black" points="977.5,-184 977.5,-225 1172.5,-225 1172.5,-184 977.5,-184"/>
<text text-anchor="start" x="985.5" y="-213" font-family="Helvetica,sans-Serif" font-size="10.00">/home/lucamuratore</text>
<text text-anchor="start" x="985.5" y="-202" font-family="Helvetica,sans-Serif" font-size="10.00">/advr&#45;superbuild/external</text>
<text text-anchor="middle" x="1075" y="-191" font-family="Helvetica,sans-Serif" font-size="10.00">/XCM/include/XCM/XBotPluginHandler.h</text>
</a>
</g>
</g>
<!-- Node4&#45;&gt;Node5 -->
<g id="edge4" class="edge"><title>Node4&#45;&gt;Node5</title>
<path fill="none" stroke="midnightblue" d="M1084.55,-257.398C1082.57,-246.627 1080.38,-234.73 1078.6,-225.047"/>
<polygon fill="midnightblue" stroke="midnightblue" points="1081.12,-258.07 1086.37,-267.271 1088,-256.803 1081.12,-258.07"/>
</g>
<!-- Node5&#45;&gt;Node6 -->
<g id="edge5" class="edge"><title>Node5&#45;&gt;Node6</title>
<path fill="none" stroke="midnightblue" d="M1125.97,-179.658C1155.22,-165.977 1191.49,-149.011 1219.08,-136.11"/>
<polygon fill="midnightblue" stroke="midnightblue" points="1124.32,-176.568 1116.74,-183.976 1127.28,-182.909 1124.32,-176.568"/>
</g>
<!-- Node9 -->
<g id="node9" class="node"><title>Node9</title>
<g id="a_node9"><a xlink:href="DummyMain_8cpp.html" target="_top" xlink:title="/home/lucamuratore\l/advr&#45;superbuild/external\l/XCM/src/DummyMain.cpp">
<polygon fill="none" stroke="black" points="839,-95 839,-136 975,-136 975,-95 839,-95"/>
<text text-anchor="start" x="847" y="-124" font-family="Helvetica,sans-Serif" font-size="10.00">/home/lucamuratore</text>
<text text-anchor="start" x="847" y="-113" font-family="Helvetica,sans-Serif" font-size="10.00">/advr&#45;superbuild/external</text>
<text text-anchor="middle" x="907" y="-102" font-family="Helvetica,sans-Serif" font-size="10.00">/XCM/src/DummyMain.cpp</text>
</a>
</g>
</g>
<!-- Node5&#45;&gt;Node9 -->
<g id="edge8" class="edge"><title>Node5&#45;&gt;Node9</title>
<path fill="none" stroke="midnightblue" d="M1028.27,-179.302C1001.98,-165.684 969.565,-148.9 944.867,-136.11"/>
<polygon fill="midnightblue" stroke="midnightblue" points="1026.81,-182.485 1037.3,-183.976 1030.03,-176.269 1026.81,-182.485"/>
</g>
<!-- Node10 -->
<g id="node10" class="node"><title>Node10</title>
<g id="a_node10"><a xlink:href="XBotPluginHandler_8cpp.html" target="_top" xlink:title="/home/lucamuratore\l/advr&#45;superbuild/external\l/XCM/src/XBotPluginHandler.cpp">
<polygon fill="none" stroke="black" points="993.5,-95 993.5,-136 1156.5,-136 1156.5,-95 993.5,-95"/>
<text text-anchor="start" x="1001.5" y="-124" font-family="Helvetica,sans-Serif" font-size="10.00">/home/lucamuratore</text>
<text text-anchor="start" x="1001.5" y="-113" font-family="Helvetica,sans-Serif" font-size="10.00">/advr&#45;superbuild/external</text>
<text text-anchor="middle" x="1075" y="-102" font-family="Helvetica,sans-Serif" font-size="10.00">/XCM/src/XBotPluginHandler.cpp</text>
</a>
</g>
</g>
<!-- Node5&#45;&gt;Node10 -->
<g id="edge9" class="edge"><title>Node5&#45;&gt;Node10</title>
<path fill="none" stroke="midnightblue" d="M1075,-173.441C1075,-161.101 1075,-147.162 1075,-136.164"/>
<polygon fill="midnightblue" stroke="midnightblue" points="1071.5,-173.758 1075,-183.758 1078.5,-173.758 1071.5,-173.758"/>
</g>
<!-- Node7 -->
<g id="node7" class="node"><title>Node7</title>
<g id="a_node7"><a xlink:href="NRTDeployer_8cpp.html" target="_top" xlink:title="/home/lucamuratore\l/advr&#45;superbuild/external\l/XCM/src/NRTDeployer.cpp">
<polygon fill="none" stroke="black" points="1275,-6 1275,-47 1415,-47 1415,-6 1275,-6"/>
<text text-anchor="start" x="1283" y="-35" font-family="Helvetica,sans-Serif" font-size="10.00">/home/lucamuratore</text>
<text text-anchor="start" x="1283" y="-24" font-family="Helvetica,sans-Serif" font-size="10.00">/advr&#45;superbuild/external</text>
<text text-anchor="middle" x="1345" y="-13" font-family="Helvetica,sans-Serif" font-size="10.00">/XCM/src/NRTDeployer.cpp</text>
</a>
</g>
</g>
<!-- Node6&#45;&gt;Node7 -->
<g id="edge6" class="edge"><title>Node6&#45;&gt;Node7</title>
<path fill="none" stroke="midnightblue" d="M1287.17,-87.3983C1299.74,-74.3734 1314.54,-59.0506 1326.01,-47.1635"/>
<polygon fill="midnightblue" stroke="midnightblue" points="1284.49,-85.1332 1280.06,-94.7584 1289.52,-89.9954 1284.49,-85.1332"/>
</g>
<!-- Node8 -->
<g id="node8" class="node"><title>Node8</title>
<g id="a_node8"><a xlink:href="NRTDeployerMain_8cpp.html" target="_top" xlink:title="/home/lucamuratore\l/advr&#45;superbuild/external\l/XCM/src/NRTDeployerMain.cpp">
<polygon fill="none" stroke="black" points="1095.5,-6 1095.5,-47 1256.5,-47 1256.5,-6 1095.5,-6"/>
<text text-anchor="start" x="1103.5" y="-35" font-family="Helvetica,sans-Serif" font-size="10.00">/home/lucamuratore</text>
<text text-anchor="start" x="1103.5" y="-24" font-family="Helvetica,sans-Serif" font-size="10.00">/advr&#45;superbuild/external</text>
<text text-anchor="middle" x="1176" y="-13" font-family="Helvetica,sans-Serif" font-size="10.00">/XCM/src/NRTDeployerMain.cpp</text>
</a>
</g>
</g>
<!-- Node6&#45;&gt;Node8 -->
<g id="edge7" class="edge"><title>Node6&#45;&gt;Node8</title>
<path fill="none" stroke="midnightblue" d="M1234.52,-87.3983C1221.8,-74.3734 1206.83,-59.0506 1195.21,-47.1635"/>
<polygon fill="midnightblue" stroke="midnightblue" points="1232.22,-90.0515 1241.71,-94.7584 1237.23,-85.1596 1232.22,-90.0515"/>
</g>
<!-- Node12 -->
<g id="node12" class="node"><title>Node12</title>
<g id="a_node12"><a xlink:href="XBotCommunicationPlugin_8cpp.html" target="_top" xlink:title="/home/lucamuratore\l/advr&#45;superbuild/external\l/XCM/src/XBotPlugin/XBotCommunication\lPlugin.cpp">
<polygon fill="none" stroke="black" points="446.5,-0.5 446.5,-52.5 649.5,-52.5 649.5,-0.5 446.5,-0.5"/>
<text text-anchor="start" x="454.5" y="-40.5" font-family="Helvetica,sans-Serif" font-size="10.00">/home/lucamuratore</text>
<text text-anchor="start" x="454.5" y="-29.5" font-family="Helvetica,sans-Serif" font-size="10.00">/advr&#45;superbuild/external</text>
<text text-anchor="start" x="454.5" y="-18.5" font-family="Helvetica,sans-Serif" font-size="10.00">/XCM/src/XBotPlugin/XBotCommunication</text>
<text text-anchor="middle" x="548" y="-7.5" font-family="Helvetica,sans-Serif" font-size="10.00">Plugin.cpp</text>
</a>
</g>
</g>
<!-- Node11&#45;&gt;Node12 -->
<g id="edge11" class="edge"><title>Node11&#45;&gt;Node12</title>
<path fill="none" stroke="midnightblue" d="M548,-79.1908C548,-70.2824 548,-60.8986 548,-52.6075"/>
<polygon fill="midnightblue" stroke="midnightblue" points="544.5,-79.336 548,-89.336 551.5,-79.336 544.5,-79.336"/>
</g>
<!-- Node13&#45;&gt;Node11 -->
<g id="edge14" class="edge"><title>Node13&#45;&gt;Node11</title>
<path fill="none" stroke="midnightblue" d="M361.884,-175.38C398.62,-163.758 440.67,-150.455 475.495,-139.438"/>
<polygon fill="midnightblue" stroke="midnightblue" points="360.651,-172.099 352.172,-178.453 362.762,-178.773 360.651,-172.099"/>
</g>
<!-- Node14 -->
<g id="node14" class="node"><title>Node14</title>
<g id="a_node14"><a xlink:href="XBotCommunicationHandler_8cpp.html" target="_top" xlink:title="/home/lucamuratore\l/advr&#45;superbuild/external\l/XCM/src/XBotCommunicationHandler.cpp">
<polygon fill="none" stroke="black" points="0,-95 0,-136 204,-136 204,-95 0,-95"/>
<text text-anchor="start" x="8" y="-124" font-family="Helvetica,sans-Serif" font-size="10.00">/home/lucamuratore</text>
<text text-anchor="start" x="8" y="-113" font-family="Helvetica,sans-Serif" font-size="10.00">/advr&#45;superbuild/external</text>
<text text-anchor="middle" x="102" y="-102" font-family="Helvetica,sans-Serif" font-size="10.00">/XCM/src/XBotCommunicationHandler.cpp</text>
</a>
</g>
</g>
<!-- Node13&#45;&gt;Node14 -->
<g id="edge15" class="edge"><title>Node13&#45;&gt;Node14</title>
<path fill="none" stroke="midnightblue" d="M214.358,-173.665C189.937,-161.24 162.262,-147.16 140.489,-136.082"/>
<polygon fill="midnightblue" stroke="midnightblue" points="213.04,-176.921 223.54,-178.336 216.214,-170.682 213.04,-176.921"/>
</g>
<!-- Node15 -->
<g id="node15" class="node"><title>Node15</title>
<g id="a_node15"><a xlink:href="XBotCommunicationMain_8cpp.html" target="_top" xlink:title="/home/lucamuratore\l/advr&#45;superbuild/external\l/XCM/src/XBotCommunicationMain.cpp">
<polygon fill="none" stroke="black" points="222.5,-95 222.5,-136 413.5,-136 413.5,-95 222.5,-95"/>
<text text-anchor="start" x="230.5" y="-124" font-family="Helvetica,sans-Serif" font-size="10.00">/home/lucamuratore</text>
<text text-anchor="start" x="230.5" y="-113" font-family="Helvetica,sans-Serif" font-size="10.00">/advr&#45;superbuild/external</text>
<text text-anchor="middle" x="318" y="-102" font-family="Helvetica,sans-Serif" font-size="10.00">/XCM/src/XBotCommunicationMain.cpp</text>
</a>
</g>
</g>
<!-- Node13&#45;&gt;Node15 -->
<g id="edge16" class="edge"><title>Node13&#45;&gt;Node15</title>
<path fill="none" stroke="midnightblue" d="M290.757,-169.169C296.569,-157.933 302.823,-145.842 307.871,-136.082"/>
<polygon fill="midnightblue" stroke="midnightblue" points="287.501,-167.846 286.016,-178.336 293.719,-171.062 287.501,-167.846"/>
</g>
<!-- Node16&#45;&gt;Node5 -->
<g id="edge21" class="edge"><title>Node16&#45;&gt;Node5</title>
<path fill="none" stroke="midnightblue" d="M779.094,-265.491C841.052,-252.93 918.625,-237.203 978.801,-225.003"/>
<polygon fill="midnightblue" stroke="midnightblue" points="778.394,-262.061 769.289,-267.479 779.785,-268.922 778.394,-262.061"/>
</g>
<!-- Node16&#45;&gt;Node11 -->
<g id="edge18" class="edge"><title>Node16&#45;&gt;Node11</title>
<path fill="none" stroke="midnightblue" d="M635.691,-260.955C624.916,-252.261 613.724,-241.969 605,-231 583.161,-203.541 566.567,-166.361 557.063,-141.92"/>
<polygon fill="midnightblue" stroke="midnightblue" points="633.762,-263.889 643.801,-267.276 638.066,-258.368 633.762,-263.889"/>
</g>
<!-- Node17 -->
<g id="node17" class="node"><title>Node17</title>
<g id="a_node17"><a xlink:href="XBotLoggingPlugin_8h.html" target="_top" xlink:title="/home/lucamuratore\l/advr&#45;superbuild/external\l/XCM/include/XBotPlugin\l/XBotLoggingPlugin.h">
<polygon fill="none" stroke="black" points="794,-178.5 794,-230.5 922,-230.5 922,-178.5 794,-178.5"/>
<text text-anchor="start" x="802" y="-218.5" font-family="Helvetica,sans-Serif" font-size="10.00">/home/lucamuratore</text>
<text text-anchor="start" x="802" y="-207.5" font-family="Helvetica,sans-Serif" font-size="10.00">/advr&#45;superbuild/external</text>
<text text-anchor="start" x="802" y="-196.5" font-family="Helvetica,sans-Serif" font-size="10.00">/XCM/include/XBotPlugin</text>
<text text-anchor="middle" x="858" y="-185.5" font-family="Helvetica,sans-Serif" font-size="10.00">/XBotLoggingPlugin.h</text>
</a>
</g>
</g>
<!-- Node16&#45;&gt;Node17 -->
<g id="edge19" class="edge"><title>Node16&#45;&gt;Node17</title>
<path fill="none" stroke="midnightblue" d="M726.707,-263.34C750.04,-253.061 777.395,-241.01 801.078,-230.576"/>
<polygon fill="midnightblue" stroke="midnightblue" points="725.052,-260.244 717.312,-267.479 727.874,-266.65 725.052,-260.244"/>
</g>
<!-- Node19 -->
<g id="node19" class="node"><title>Node19</title>
<g id="a_node19"><a xlink:href="XBotControlPlugin_8cpp.html" target="_top" xlink:title="/home/lucamuratore\l/advr&#45;superbuild/external\l/XCM/src/XBotControlPlugin.cpp">
<polygon fill="none" stroke="black" points="614.5,-184 614.5,-225 775.5,-225 775.5,-184 614.5,-184"/>
<text text-anchor="start" x="622.5" y="-213" font-family="Helvetica,sans-Serif" font-size="10.00">/home/lucamuratore</text>
<text text-anchor="start" x="622.5" y="-202" font-family="Helvetica,sans-Serif" font-size="10.00">/advr&#45;superbuild/external</text>
<text text-anchor="middle" x="695" y="-191" font-family="Helvetica,sans-Serif" font-size="10.00">/XCM/src/XBotControlPlugin.cpp</text>
</a>
</g>
</g>
<!-- Node16&#45;&gt;Node19 -->
<g id="edge22" class="edge"><title>Node16&#45;&gt;Node19</title>
<path fill="none" stroke="midnightblue" d="M680.991,-257.398C683.898,-246.627 687.11,-234.73 689.723,-225.047"/>
<polygon fill="midnightblue" stroke="midnightblue" points="677.553,-256.705 678.326,-267.271 684.311,-258.529 677.553,-256.705"/>
</g>
<!-- Node18 -->
<g id="node18" class="node"><title>Node18</title>
<g id="a_node18"><a xlink:href="XBotLoggingPlugin_8cpp.html" target="_top" xlink:title="/home/lucamuratore\l/advr&#45;superbuild/external\l/XCM/src/XBotPlugin/XBotLogging\lPlugin.cpp">
<polygon fill="none" stroke="black" points="651.5,-89.5 651.5,-141.5 820.5,-141.5 820.5,-89.5 651.5,-89.5"/>
<text text-anchor="start" x="659.5" y="-129.5" font-family="Helvetica,sans-Serif" font-size="10.00">/home/lucamuratore</text>
<text text-anchor="start" x="659.5" y="-118.5" font-family="Helvetica,sans-Serif" font-size="10.00">/advr&#45;superbuild/external</text>
<text text-anchor="start" x="659.5" y="-107.5" font-family="Helvetica,sans-Serif" font-size="10.00">/XCM/src/XBotPlugin/XBotLogging</text>
<text text-anchor="middle" x="736" y="-96.5" font-family="Helvetica,sans-Serif" font-size="10.00">Plugin.cpp</text>
</a>
</g>
</g>
<!-- Node17&#45;&gt;Node18 -->
<g id="edge20" class="edge"><title>Node17&#45;&gt;Node18</title>
<path fill="none" stroke="midnightblue" d="M814.533,-172.503C800.325,-162.371 784.73,-151.25 771.208,-141.607"/>
<polygon fill="midnightblue" stroke="midnightblue" points="812.539,-175.38 822.713,-178.336 816.603,-169.68 812.539,-175.38"/>
</g>
<!-- Node21 -->
<g id="node21" class="node"><title>Node21</title>
<g id="a_node21"><a xlink:href="XBotModuleHandler_8cpp.html" target="_top" xlink:title="/home/lucamuratore\l/advr&#45;superbuild/external\l/XCM/src/XBotModuleHandler.cpp">
<polygon fill="none" stroke="black" points="1257.5,-184 1257.5,-225 1424.5,-225 1424.5,-184 1257.5,-184"/>
<text text-anchor="start" x="1265.5" y="-213" font-family="Helvetica,sans-Serif" font-size="10.00">/home/lucamuratore</text>
<text text-anchor="start" x="1265.5" y="-202" font-family="Helvetica,sans-Serif" font-size="10.00">/advr&#45;superbuild/external</text>
<text text-anchor="middle" x="1341" y="-191" font-family="Helvetica,sans-Serif" font-size="10.00">/XCM/src/XBotModuleHandler.cpp</text>
</a>
</g>
</g>
<!-- Node20&#45;&gt;Node21 -->
<g id="edge24" class="edge"><title>Node20&#45;&gt;Node21</title>
<path fill="none" stroke="midnightblue" d="M1341,-257.065C1341,-246.382 1341,-234.63 1341,-225.047"/>
<polygon fill="midnightblue" stroke="midnightblue" points="1337.5,-257.271 1341,-267.271 1344.5,-257.271 1337.5,-257.271"/>
</g>
<!-- Node22&#45;&gt;Node13 -->
<g id="edge26" class="edge"><title>Node22&#45;&gt;Node13</title>
<path fill="none" stroke="midnightblue" d="M389.265,-262.928C368.639,-252.74 344.61,-240.871 323.768,-230.576"/>
<polygon fill="midnightblue" stroke="midnightblue" points="387.962,-266.188 398.478,-267.479 391.063,-259.912 387.962,-266.188"/>
</g>
<!-- Node23 -->
<g id="node23" class="node"><title>Node23</title>
<g id="a_node23"><a xlink:href="XBotXDDP_8cpp.html" target="_top" xlink:title="/home/lucamuratore\l/advr&#45;superbuild/external\l/XCM/src/XBotXDDP.cpp">
<polygon fill="none" stroke="black" points="388.5,-184 388.5,-225 519.5,-225 519.5,-184 388.5,-184"/>
<text text-anchor="start" x="396.5" y="-213" font-family="Helvetica,sans-Serif" font-size="10.00">/home/lucamuratore</text>
<text text-anchor="start" x="396.5" y="-202" font-family="Helvetica,sans-Serif" font-size="10.00">/advr&#45;superbuild/external</text>
<text text-anchor="middle" x="454" y="-191" font-family="Helvetica,sans-Serif" font-size="10.00">/XCM/src/XBotXDDP.cpp</text>
</a>
</g>
</g>
<!-- Node22&#45;&gt;Node23 -->
<g id="edge27" class="edge"><title>Node22&#45;&gt;Node23</title>
<path fill="none" stroke="midnightblue" d="M443.811,-257.398C445.926,-246.627 448.262,-234.73 450.163,-225.047"/>
<polygon fill="midnightblue" stroke="midnightblue" points="440.365,-256.784 441.873,-267.271 447.234,-258.133 440.365,-256.784"/>
</g>
<!-- Node27 -->
<g id="node27" class="node"><title>Node27</title>
<g id="a_node27"><a xlink:href="CommunicationInterfaceYARP_8cpp.html" target="_top" xlink:title="/home/lucamuratore\l/advr&#45;superbuild/external\l/XCM/src/XBotYARP/Communication\lInterfaceYARP.cpp">
<polygon fill="none" stroke="black" points="935,-345.5 935,-397.5 1117,-397.5 1117,-345.5 935,-345.5"/>
<text text-anchor="start" x="943" y="-385.5" font-family="Helvetica,sans-Serif" font-size="10.00">/home/lucamuratore</text>
<text text-anchor="start" x="943" y="-374.5" font-family="Helvetica,sans-Serif" font-size="10.00">/advr&#45;superbuild/external</text>
<text text-anchor="start" x="943" y="-363.5" font-family="Helvetica,sans-Serif" font-size="10.00">/XCM/src/XBotYARP/Communication</text>
<text text-anchor="middle" x="1026" y="-352.5" font-family="Helvetica,sans-Serif" font-size="10.00">InterfaceYARP.cpp</text>
</a>
</g>
</g>
<!-- Node26&#45;&gt;Node27 -->
<g id="edge33" class="edge"><title>Node26&#45;&gt;Node27</title>
<path fill="none" stroke="midnightblue" d="M1023.03,-424.191C1023.54,-415.282 1024.08,-405.899 1024.56,-397.607"/>
<polygon fill="midnightblue" stroke="midnightblue" points="1019.53,-424.152 1022.45,-434.336 1026.51,-424.553 1019.53,-424.152"/>
</g>
</g>
</svg>
