<?xml version="1.0" encoding="UTF-8" standalone="no"?>
<!DOCTYPE svg PUBLIC "-//W3C//DTD SVG 1.1//EN"
 "http://www.w3.org/Graphics/SVG/1.1/DTD/svg11.dtd">
<!-- Generated by graphviz version 2.38.0 (20140413.2041)
 -->
<!-- Title: /home/lucamuratore/advr&#45;superbuild/external/XCM/include/XCM/XBotYARP/XBotFT.h Pages: 1 -->
<svg width="1189pt" height="184pt"
 viewBox="0.00 0.00 1189.00 184.00" xmlns="http://www.w3.org/2000/svg" xmlns:xlink="http://www.w3.org/1999/xlink">
<g id="graph0" class="graph" transform="scale(1 1) rotate(0) translate(4 180)">
<title>/home/lucamuratore/advr&#45;superbuild/external/XCM/include/XCM/XBotYARP/XBotFT.h</title>
<!-- Node1 -->
<g id="node1" class="node"><title>Node1</title>
<polygon fill="#bfbfbf" stroke="black" points="374,-123.5 374,-175.5 528,-175.5 528,-123.5 374,-123.5"/>
<text text-anchor="start" x="382" y="-163.5" font-family="Helvetica,sans-Serif" font-size="10.00">/home/lucamuratore</text>
<text text-anchor="start" x="382" y="-152.5" font-family="Helvetica,sans-Serif" font-size="10.00">/advr&#45;superbuild/external</text>
<text text-anchor="start" x="382" y="-141.5" font-family="Helvetica,sans-Serif" font-size="10.00">/XCM/include/XCM/XBotYARP</text>
<text text-anchor="middle" x="451" y="-130.5" font-family="Helvetica,sans-Serif" font-size="10.00">/XBotFT.h</text>
</g>
<!-- Node2 -->
<g id="node2" class="node"><title>Node2</title>
<polygon fill="none" stroke="#bfbfbf" points="0,-62 0,-81 52,-81 52,-62 0,-62"/>
<text text-anchor="middle" x="26" y="-69" font-family="Helvetica,sans-Serif" font-size="10.00">memory</text>
</g>
<!-- Node1&#45;&gt;Node2 -->
<g id="edge1" class="edge"><title>Node1&#45;&gt;Node2</title>
<path fill="none" stroke="midnightblue" d="M373.883,-141.502C294.603,-133.105 168.098,-116.346 62,-87 59.5566,-86.3242 57.0538,-85.5338 54.5618,-84.6771"/>
<polygon fill="midnightblue" stroke="midnightblue" points="55.7451,-81.3829 45.1529,-81.1467 53.286,-87.9367 55.7451,-81.3829"/>
</g>
<!-- Node3 -->
<g id="node3" class="node"><title>Node3</title>
<polygon fill="none" stroke="#bfbfbf" points="70.5,-62 70.5,-81 105.5,-81 105.5,-62 70.5,-62"/>
<text text-anchor="middle" x="88" y="-69" font-family="Helvetica,sans-Serif" font-size="10.00">map</text>
</g>
<!-- Node1&#45;&gt;Node3 -->
<g id="edge2" class="edge"><title>Node1&#45;&gt;Node3</title>
<path fill="none" stroke="midnightblue" d="M373.857,-141.291C304.598,-133.21 200.911,-117.094 115,-87 113.757,-86.5646 112.502,-86.0779 111.249,-85.5539"/>
<polygon fill="midnightblue" stroke="midnightblue" points="112.439,-82.2415 101.913,-81.0379 109.391,-88.5431 112.439,-82.2415"/>
</g>
<!-- Node4 -->
<g id="node4" class="node"><title>Node4</title>
<polygon fill="none" stroke="#bfbfbf" points="124,-62 124,-81 168,-81 168,-62 124,-62"/>
<text text-anchor="middle" x="146" y="-69" font-family="Helvetica,sans-Serif" font-size="10.00">vector</text>
</g>
<!-- Node1&#45;&gt;Node4 -->
<g id="edge3" class="edge"><title>Node1&#45;&gt;Node4</title>
<path fill="none" stroke="midnightblue" d="M373.885,-135.816C318.294,-125.562 241.936,-109.181 177,-87 175.338,-86.4322 173.646,-85.8022 171.954,-85.132"/>
<polygon fill="midnightblue" stroke="midnightblue" points="173.025,-81.781 162.458,-81.0052 170.234,-88.201 173.025,-81.781"/>
</g>
<!-- Node5 -->
<g id="node5" class="node"><title>Node5</title>
<polygon fill="none" stroke="#bfbfbf" points="186,-62 186,-81 272,-81 272,-62 186,-62"/>
<text text-anchor="middle" x="229" y="-69" font-family="Helvetica,sans-Serif" font-size="10.00">yarp/os/Bottle.h</text>
</g>
<!-- Node1&#45;&gt;Node5 -->
<g id="edge4" class="edge"><title>Node1&#45;&gt;Node5</title>
<path fill="none" stroke="midnightblue" d="M377.694,-123.404C339.341,-110.274 294.176,-94.8124 263.771,-84.4035"/>
<polygon fill="midnightblue" stroke="midnightblue" points="264.651,-81.0055 254.057,-81.0779 262.384,-87.6282 264.651,-81.0055"/>
</g>
<!-- Node6 -->
<g id="node6" class="node"><title>Node6</title>
<polygon fill="none" stroke="#bfbfbf" points="290,-62 290,-81 372,-81 372,-62 290,-62"/>
<text text-anchor="middle" x="331" y="-69" font-family="Helvetica,sans-Serif" font-size="10.00">yarp/os/Time.h</text>
</g>
<!-- Node1&#45;&gt;Node6 -->
<g id="edge5" class="edge"><title>Node1&#45;&gt;Node6</title>
<path fill="none" stroke="midnightblue" d="M411.375,-123.404C392.086,-111.188 369.609,-96.9524 353.337,-86.6467"/>
<polygon fill="midnightblue" stroke="midnightblue" points="354.865,-83.4716 344.544,-81.0779 351.12,-89.3853 354.865,-83.4716"/>
</g>
<!-- Node7 -->
<g id="node7" class="node"><title>Node7</title>
<polygon fill="none" stroke="#bfbfbf" points="390,-62 390,-81 512,-81 512,-62 390,-62"/>
<text text-anchor="middle" x="451" y="-69" font-family="Helvetica,sans-Serif" font-size="10.00">yarp/dev/DeviceDriver.h</text>
</g>
<!-- Node1&#45;&gt;Node7 -->
<g id="edge6" class="edge"><title>Node1&#45;&gt;Node7</title>
<path fill="none" stroke="midnightblue" d="M451,-123.193C451,-112.765 451,-100.896 451,-91.2656"/>
<polygon fill="midnightblue" stroke="midnightblue" points="454.5,-91.2089 451,-81.2089 447.5,-91.2089 454.5,-91.2089"/>
</g>
<!-- Node8 -->
<g id="node8" class="node"><title>Node8</title>
<polygon fill="none" stroke="#bfbfbf" points="530.5,-62 530.5,-81 659.5,-81 659.5,-62 530.5,-62"/>
<text text-anchor="middle" x="595" y="-69" font-family="Helvetica,sans-Serif" font-size="10.00">yarp/dev/IAnalogSensor.h</text>
</g>
<!-- Node1&#45;&gt;Node8 -->
<g id="edge7" class="edge"><title>Node1&#45;&gt;Node8</title>
<path fill="none" stroke="midnightblue" d="M498.55,-123.404C522.346,-110.845 550.185,-96.1525 569.82,-85.7892"/>
<polygon fill="midnightblue" stroke="midnightblue" points="571.537,-88.8409 578.747,-81.0779 568.27,-82.6502 571.537,-88.8409"/>
</g>
<!-- Node9 -->
<g id="node9" class="node"><title>Node9</title>
<polygon fill="none" stroke="#bfbfbf" points="677.5,-62 677.5,-81 788.5,-81 788.5,-62 677.5,-62"/>
<text text-anchor="middle" x="733" y="-69" font-family="Helvetica,sans-Serif" font-size="10.00">yarp/dev/PolyDriver.h</text>
</g>
<!-- Node1&#45;&gt;Node9 -->
<g id="edge8" class="edge"><title>Node1&#45;&gt;Node9</title>
<path fill="none" stroke="midnightblue" d="M528.058,-127.733C580.747,-113.533 648.55,-95.2595 691.41,-83.7087"/>
<polygon fill="midnightblue" stroke="midnightblue" points="692.472,-87.0475 701.216,-81.0658 690.65,-80.2887 692.472,-87.0475"/>
</g>
<!-- Node10 -->
<g id="node10" class="node"><title>Node10</title>
<polygon fill="none" stroke="#bfbfbf" points="806,-62 806,-81 908,-81 908,-62 806,-62"/>
<text text-anchor="middle" x="857" y="-69" font-family="Helvetica,sans-Serif" font-size="10.00">yarp/dev/Wrapper.h</text>
</g>
<!-- Node1&#45;&gt;Node10 -->
<g id="edge9" class="edge"><title>Node1&#45;&gt;Node10</title>
<path fill="none" stroke="midnightblue" d="M528.117,-136.321C598.621,-124.834 705.665,-106.507 798,-87 803.157,-85.9106 808.548,-84.694 813.887,-83.4414"/>
<polygon fill="midnightblue" stroke="midnightblue" points="815.103,-86.7489 824.011,-81.0122 813.47,-79.9421 815.103,-86.7489"/>
</g>
<!-- Node11 -->
<g id="node11" class="node"><title>Node11</title>
<polygon fill="none" stroke="#bfbfbf" points="926,-62 926,-81 1036,-81 1036,-62 926,-62"/>
<text text-anchor="middle" x="981" y="-69" font-family="Helvetica,sans-Serif" font-size="10.00">yarp/os/Semaphore.h</text>
</g>
<!-- Node1&#45;&gt;Node11 -->
<g id="edge10" class="edge"><title>Node1&#45;&gt;Node11</title>
<path fill="none" stroke="midnightblue" d="M528.02,-140.523C620.698,-130.42 780.842,-111.356 917,-87 923.182,-85.8941 929.669,-84.5922 936.044,-83.2299"/>
<polygon fill="midnightblue" stroke="midnightblue" points="936.893,-86.6267 945.907,-81.059 935.389,-79.7903 936.893,-86.6267"/>
</g>
<!-- Node12 -->
<g id="node12" class="node"><title>Node12</title>
<g id="a_node12"><a xlink:href="IXBotInit_8h.html" target="_top" xlink:title="XBotCore&#45;interfaces\l/IXBotInit.h">
<polygon fill="none" stroke="black" points="1054.5,-56.5 1054.5,-86.5 1159.5,-86.5 1159.5,-56.5 1054.5,-56.5"/>
<text text-anchor="start" x="1062.5" y="-74.5" font-family="Helvetica,sans-Serif" font-size="10.00">XBotCore&#45;interfaces</text>
<text text-anchor="middle" x="1107" y="-63.5" font-family="Helvetica,sans-Serif" font-size="10.00">/IXBotInit.h</text>
</a>
</g>
</g>
<!-- Node1&#45;&gt;Node12 -->
<g id="edge11" class="edge"><title>Node1&#45;&gt;Node12</title>
<path fill="none" stroke="midnightblue" d="M528.312,-143.633C640.119,-135.898 853.511,-118.527 1044.39,-86.9568"/>
<polygon fill="midnightblue" stroke="midnightblue" points="1045.04,-90.397 1054.33,-85.2972 1043.89,-83.4927 1045.04,-90.397"/>
</g>
<!-- Node13 -->
<g id="node13" class="node"><title>Node13</title>
<polygon fill="none" stroke="#bfbfbf" points="1033,-0.5 1033,-19.5 1181,-19.5 1181,-0.5 1033,-0.5"/>
<text text-anchor="middle" x="1107" y="-7.5" font-family="Helvetica,sans-Serif" font-size="10.00">XBotInterface/XBotInterface.h</text>
</g>
<!-- Node12&#45;&gt;Node13 -->
<g id="edge12" class="edge"><title>Node12&#45;&gt;Node13</title>
<path fill="none" stroke="midnightblue" d="M1107,-56.3993C1107,-48.4664 1107,-38.458 1107,-29.8583"/>
<polygon fill="midnightblue" stroke="midnightblue" points="1110.5,-29.6577 1107,-19.6578 1103.5,-29.6578 1110.5,-29.6577"/>
</g>
</g>
</svg>
