<?xml version="1.0" encoding="UTF-8" standalone="no"?>
<!DOCTYPE svg PUBLIC "-//W3C//DTD SVG 1.1//EN"
 "http://www.w3.org/Graphics/SVG/1.1/DTD/svg11.dtd">
<!-- Generated by graphviz version 2.38.0 (20140413.2041)
 -->
<!-- Title: /home/lucamuratore/advr&#45;superbuild/external/XCM/include/XBotCore&#45;interfaces/XBotPlugin.h Pages: 1 -->
<svg width="872pt" height="251pt"
 viewBox="0.00 0.00 871.66 251.00" xmlns="http://www.w3.org/2000/svg" xmlns:xlink="http://www.w3.org/1999/xlink">
<g id="graph0" class="graph" transform="scale(1 1) rotate(0) translate(4 247)">
<title>/home/lucamuratore/advr&#45;superbuild/external/XCM/include/XBotCore&#45;interfaces/XBotPlugin.h</title>
<!-- Node1 -->
<g id="node1" class="node"><title>Node1</title>
<polygon fill="#bfbfbf" stroke="black" points="310.662,-190.5 310.662,-242.5 477.662,-242.5 477.662,-190.5 310.662,-190.5"/>
<text text-anchor="start" x="318.662" y="-230.5" font-family="Helvetica,sans-Serif" font-size="10.00">/home/lucamuratore</text>
<text text-anchor="start" x="318.662" y="-219.5" font-family="Helvetica,sans-Serif" font-size="10.00">/advr&#45;superbuild/external</text>
<text text-anchor="start" x="318.662" y="-208.5" font-family="Helvetica,sans-Serif" font-size="10.00">/XCM/include/XBotCore&#45;interfaces</text>
<text text-anchor="middle" x="394.162" y="-197.5" font-family="Helvetica,sans-Serif" font-size="10.00">/XBotPlugin.h</text>
</g>
<!-- Node2 -->
<g id="node2" class="node"><title>Node2</title>
<g id="a_node2"><a xlink:href="IXBotJoint_8h.html" target="_top" xlink:title="XBotCore&#45;interfaces\l/IXBotJoint.h">
<polygon fill="none" stroke="black" points="301.662,-123.5 301.662,-153.5 406.662,-153.5 406.662,-123.5 301.662,-123.5"/>
<text text-anchor="start" x="309.662" y="-141.5" font-family="Helvetica,sans-Serif" font-size="10.00">XBotCore&#45;interfaces</text>
<text text-anchor="middle" x="354.162" y="-130.5" font-family="Helvetica,sans-Serif" font-size="10.00">/IXBotJoint.h</text>
</a>
</g>
</g>
<!-- Node1&#45;&gt;Node2 -->
<g id="edge1" class="edge"><title>Node1&#45;&gt;Node2</title>
<path fill="none" stroke="midnightblue" d="M380.843,-190.193C376.22,-181.409 371.058,-171.602 366.516,-162.972"/>
<polygon fill="midnightblue" stroke="midnightblue" points="369.467,-161.064 361.713,-153.845 363.273,-164.325 369.467,-161.064"/>
</g>
<!-- Node3 -->
<g id="node3" class="node"><title>Node3</title>
<polygon fill="none" stroke="#bfbfbf" points="213.662,-62 213.662,-81 248.662,-81 248.662,-62 213.662,-62"/>
<text text-anchor="middle" x="231.162" y="-69" font-family="Helvetica,sans-Serif" font-size="10.00">map</text>
</g>
<!-- Node1&#45;&gt;Node3 -->
<g id="edge21" class="edge"><title>Node1&#45;&gt;Node3</title>
<path fill="none" stroke="midnightblue" d="M310.424,-203.371C253.928,-193.277 186.608,-176.854 169.162,-154 151.1,-130.339 183.188,-102.764 207.551,-86.5176"/>
<polygon fill="midnightblue" stroke="midnightblue" points="209.529,-89.4073 216.07,-81.0727 205.759,-83.5091 209.529,-89.4073"/>
</g>
<!-- Node4 -->
<g id="node4" class="node"><title>Node4</title>
<polygon fill="none" stroke="#bfbfbf" points="99.1624,-62 99.1624,-81 143.162,-81 143.162,-62 99.1624,-62"/>
<text text-anchor="middle" x="121.162" y="-69" font-family="Helvetica,sans-Serif" font-size="10.00">vector</text>
</g>
<!-- Node1&#45;&gt;Node4 -->
<g id="edge22" class="edge"><title>Node1&#45;&gt;Node4</title>
<path fill="none" stroke="midnightblue" d="M310.548,-214.412C208.672,-211.108 45.3686,-198.757 7.16242,-154 -21.2071,-120.766 46.3403,-94.0498 89.1835,-81.0636"/>
<polygon fill="midnightblue" stroke="midnightblue" points="90.3329,-84.3742 98.9491,-78.2088 88.3687,-77.6554 90.3329,-84.3742"/>
</g>
<!-- Node5 -->
<g id="node5" class="node"><title>Node5</title>
<polygon fill="none" stroke="#bfbfbf" points="399.162,-0.5 399.162,-19.5 451.162,-19.5 451.162,-0.5 399.162,-0.5"/>
<text text-anchor="middle" x="425.162" y="-7.5" font-family="Helvetica,sans-Serif" font-size="10.00">memory</text>
</g>
<!-- Node1&#45;&gt;Node5 -->
<g id="edge23" class="edge"><title>Node1&#45;&gt;Node5</title>
<path fill="none" stroke="midnightblue" d="M412.648,-190.478C419.49,-179.795 426.474,-166.842 430.162,-154 442.58,-110.771 434.932,-57.1612 429.39,-29.4769"/>
<polygon fill="midnightblue" stroke="midnightblue" points="432.792,-28.6514 427.277,-19.6054 425.947,-30.1165 432.792,-28.6514"/>
</g>
<!-- Node6 -->
<g id="node6" class="node"><title>Node6</title>
<polygon fill="none" stroke="#bfbfbf" points="382.662,-62 382.662,-81 423.662,-81 423.662,-62 382.662,-62"/>
<text text-anchor="middle" x="403.162" y="-69" font-family="Helvetica,sans-Serif" font-size="10.00">string</text>
</g>
<!-- Node1&#45;&gt;Node6 -->
<g id="edge24" class="edge"><title>Node1&#45;&gt;Node6</title>
<path fill="none" stroke="midnightblue" d="M404.879,-190.253C408.967,-179.32 413.13,-166.243 415.162,-154 417.419,-140.408 416.766,-136.684 415.162,-123 413.911,-112.321 411.22,-100.627 408.702,-91.1835"/>
<polygon fill="midnightblue" stroke="midnightblue" points="412.006,-90.0024 405.923,-81.3272 405.268,-91.9018 412.006,-90.0024"/>
</g>
<!-- Node7 -->
<g id="node7" class="node"><title>Node7</title>
<g id="a_node7"><a xlink:href="IXBotModel_8h.html" target="_top" xlink:title="XBotCore&#45;interfaces\l/IXBotModel.h">
<polygon fill="none" stroke="black" points="178.662,-123.5 178.662,-153.5 283.662,-153.5 283.662,-123.5 178.662,-123.5"/>
<text text-anchor="start" x="186.662" y="-141.5" font-family="Helvetica,sans-Serif" font-size="10.00">XBotCore&#45;interfaces</text>
<text text-anchor="middle" x="231.162" y="-130.5" font-family="Helvetica,sans-Serif" font-size="10.00">/IXBotModel.h</text>
</a>
</g>
</g>
<!-- Node1&#45;&gt;Node7 -->
<g id="edge6" class="edge"><title>Node1&#45;&gt;Node7</title>
<path fill="none" stroke="midnightblue" d="M340.338,-190.404C317.661,-179.831 291.74,-167.745 270.848,-158.004"/>
<polygon fill="midnightblue" stroke="midnightblue" points="272.174,-154.76 261.632,-153.707 269.216,-161.105 272.174,-154.76"/>
</g>
<!-- Node8 -->
<g id="node8" class="node"><title>Node8</title>
<g id="a_node8"><a xlink:href="IXBotFT_8h.html" target="_top" xlink:title="XBotCore&#45;interfaces\l/IXBotFT.h">
<polygon fill="none" stroke="black" points="635.662,-123.5 635.662,-153.5 740.662,-153.5 740.662,-123.5 635.662,-123.5"/>
<text text-anchor="start" x="643.662" y="-141.5" font-family="Helvetica,sans-Serif" font-size="10.00">XBotCore&#45;interfaces</text>
<text text-anchor="middle" x="688.162" y="-130.5" font-family="Helvetica,sans-Serif" font-size="10.00">/IXBotFT.h</text>
</a>
</g>
</g>
<!-- Node1&#45;&gt;Node8 -->
<g id="edge10" class="edge"><title>Node1&#45;&gt;Node8</title>
<path fill="none" stroke="midnightblue" d="M478.018,-193.823C524.94,-181.694 582.461,-166.824 625.453,-155.711"/>
<polygon fill="midnightblue" stroke="midnightblue" points="626.417,-159.076 635.223,-153.185 624.665,-152.299 626.417,-159.076"/>
</g>
<!-- Node9 -->
<g id="node9" class="node"><title>Node9</title>
<g id="a_node9"><a xlink:href="IXBotIMU_8h.html" target="_top" xlink:title="XBotCore&#45;interfaces\l/IXBotIMU.h">
<polygon fill="none" stroke="black" points="16.6624,-123.5 16.6624,-153.5 121.662,-153.5 121.662,-123.5 16.6624,-123.5"/>
<text text-anchor="start" x="24.6624" y="-141.5" font-family="Helvetica,sans-Serif" font-size="10.00">XBotCore&#45;interfaces</text>
<text text-anchor="middle" x="69.1624" y="-130.5" font-family="Helvetica,sans-Serif" font-size="10.00">/IXBotIMU.h</text>
</a>
</g>
</g>
<!-- Node1&#45;&gt;Node9 -->
<g id="edge11" class="edge"><title>Node1&#45;&gt;Node9</title>
<path fill="none" stroke="midnightblue" d="M310.467,-195.928C254.749,-182.899 182.722,-166.056 131.914,-154.174"/>
<polygon fill="midnightblue" stroke="midnightblue" points="132.58,-150.736 122.046,-151.867 130.986,-157.552 132.58,-150.736"/>
</g>
<!-- Node10 -->
<g id="node10" class="node"><title>Node10</title>
<g id="a_node10"><a xlink:href="XBotSharedMemory_8h.html" target="_top" xlink:title="XBotCore&#45;interfaces\l/XBotSharedMemory.h">
<polygon fill="none" stroke="black" points="501.162,-123.5 501.162,-153.5 617.162,-153.5 617.162,-123.5 501.162,-123.5"/>
<text text-anchor="start" x="509.162" y="-141.5" font-family="Helvetica,sans-Serif" font-size="10.00">XBotCore&#45;interfaces</text>
<text text-anchor="middle" x="559.162" y="-130.5" font-family="Helvetica,sans-Serif" font-size="10.00">/XBotSharedMemory.h</text>
</a>
</g>
</g>
<!-- Node1&#45;&gt;Node10 -->
<g id="edge13" class="edge"><title>Node1&#45;&gt;Node10</title>
<path fill="none" stroke="midnightblue" d="M448.647,-190.404C471.602,-179.831 497.841,-167.745 518.99,-158.004"/>
<polygon fill="midnightblue" stroke="midnightblue" points="520.701,-161.069 528.319,-153.707 517.772,-154.711 520.701,-161.069"/>
</g>
<!-- Node15 -->
<g id="node15" class="node"><title>Node15</title>
<g id="a_node15"><a xlink:href="XBotESC_8h.html" target="_top" xlink:title="XBotCore&#45;interfaces\l/XBotESC.h">
<polygon fill="none" stroke="black" points="758.662,-123.5 758.662,-153.5 863.662,-153.5 863.662,-123.5 758.662,-123.5"/>
<text text-anchor="start" x="766.662" y="-141.5" font-family="Helvetica,sans-Serif" font-size="10.00">XBotCore&#45;interfaces</text>
<text text-anchor="middle" x="811.162" y="-130.5" font-family="Helvetica,sans-Serif" font-size="10.00">/XBotESC.h</text>
</a>
</g>
</g>
<!-- Node1&#45;&gt;Node15 -->
<g id="edge19" class="edge"><title>Node1&#45;&gt;Node15</title>
<path fill="none" stroke="midnightblue" d="M477.983,-202.391C547.758,-191.153 649.92,-173.945 748.598,-154.046"/>
<polygon fill="midnightblue" stroke="midnightblue" points="749.338,-157.468 758.443,-152.05 747.947,-150.607 749.338,-157.468"/>
</g>
<!-- Node2&#45;&gt;Node3 -->
<g id="edge2" class="edge"><title>Node2&#45;&gt;Node3</title>
<path fill="none" stroke="midnightblue" d="M327.473,-123.396C306.273,-112.193 276.845,-96.6412 256.113,-85.6853"/>
<polygon fill="midnightblue" stroke="midnightblue" points="257.737,-82.5848 247.26,-81.007 254.466,-88.7738 257.737,-82.5848"/>
</g>
<!-- Node2&#45;&gt;Node4 -->
<g id="edge3" class="edge"><title>Node2&#45;&gt;Node4</title>
<path fill="none" stroke="midnightblue" d="M303.892,-123.476C258.085,-110.697 191.823,-92.2121 152.951,-81.3679"/>
<polygon fill="midnightblue" stroke="midnightblue" points="153.793,-77.9693 143.22,-78.6534 151.912,-84.7118 153.793,-77.9693"/>
</g>
<!-- Node2&#45;&gt;Node5 -->
<g id="edge4" class="edge"><title>Node2&#45;&gt;Node5</title>
<path fill="none" stroke="midnightblue" d="M354.832,-123.245C356.206,-106.145 360.395,-77.1432 373.162,-56 380.491,-43.8636 392.209,-33.3038 402.668,-25.4693"/>
<polygon fill="midnightblue" stroke="midnightblue" points="404.889,-28.1857 411.034,-19.5546 400.848,-22.4701 404.889,-28.1857"/>
</g>
<!-- Node2&#45;&gt;Node6 -->
<g id="edge5" class="edge"><title>Node2&#45;&gt;Node6</title>
<path fill="none" stroke="midnightblue" d="M364.795,-123.396C372.359,-113.361 382.554,-99.8382 390.533,-89.2535"/>
<polygon fill="midnightblue" stroke="midnightblue" points="393.383,-91.2867 396.608,-81.1945 387.794,-87.0729 393.383,-91.2867"/>
</g>
<!-- Node7&#45;&gt;Node3 -->
<g id="edge7" class="edge"><title>Node7&#45;&gt;Node3</title>
<path fill="none" stroke="midnightblue" d="M231.162,-123.396C231.162,-114.064 231.162,-101.714 231.162,-91.5173"/>
<polygon fill="midnightblue" stroke="midnightblue" points="234.663,-91.1945 231.162,-81.1945 227.663,-91.1946 234.663,-91.1945"/>
</g>
<!-- Node7&#45;&gt;Node4 -->
<g id="edge9" class="edge"><title>Node7&#45;&gt;Node4</title>
<path fill="none" stroke="midnightblue" d="M207.294,-123.396C188.591,-112.344 162.727,-97.0607 144.232,-86.1319"/>
<polygon fill="midnightblue" stroke="midnightblue" points="145.949,-83.0811 135.559,-81.007 142.388,-89.1076 145.949,-83.0811"/>
</g>
<!-- Node7&#45;&gt;Node6 -->
<g id="edge8" class="edge"><title>Node7&#45;&gt;Node6</title>
<path fill="none" stroke="midnightblue" d="M268.484,-123.396C299.771,-111.572 343.874,-94.9053 372.973,-83.9088"/>
<polygon fill="midnightblue" stroke="midnightblue" points="374.477,-87.0821 382.594,-80.2729 372.002,-80.534 374.477,-87.0821"/>
</g>
<!-- Node9&#45;&gt;Node4 -->
<g id="edge12" class="edge"><title>Node9&#45;&gt;Node4</title>
<path fill="none" stroke="midnightblue" d="M80.4456,-123.396C88.4733,-113.361 99.2919,-99.8382 107.76,-89.2535"/>
<polygon fill="midnightblue" stroke="midnightblue" points="110.693,-91.1897 114.207,-81.1945 105.227,-86.8168 110.693,-91.1897"/>
</g>
<!-- Node11 -->
<g id="node11" class="node"><title>Node11</title>
<g id="a_node11"><a xlink:href="XBotSharedObject_8h.html" target="_top" xlink:title="XBotCore&#45;interfaces\l/XBotSharedObject.h">
<polygon fill="none" stroke="black" points="504.662,-56.5 504.662,-86.5 613.662,-86.5 613.662,-56.5 504.662,-56.5"/>
<text text-anchor="start" x="512.662" y="-74.5" font-family="Helvetica,sans-Serif" font-size="10.00">XBotCore&#45;interfaces</text>
<text text-anchor="middle" x="559.162" y="-63.5" font-family="Helvetica,sans-Serif" font-size="10.00">/XBotSharedObject.h</text>
</a>
</g>
</g>
<!-- Node10&#45;&gt;Node11 -->
<g id="edge14" class="edge"><title>Node10&#45;&gt;Node11</title>
<path fill="none" stroke="midnightblue" d="M559.162,-123.396C559.162,-115.645 559.162,-105.812 559.162,-96.8601"/>
<polygon fill="midnightblue" stroke="midnightblue" points="562.663,-96.5765 559.162,-86.5765 555.663,-96.5765 562.663,-96.5765"/>
</g>
<!-- Node11&#45;&gt;Node5 -->
<g id="edge17" class="edge"><title>Node11&#45;&gt;Node5</title>
<path fill="none" stroke="midnightblue" d="M527.406,-56.3993C505.124,-46.5054 475.572,-33.3832 453.971,-23.7919"/>
<polygon fill="midnightblue" stroke="midnightblue" points="455.221,-20.5172 444.661,-19.6578 452.38,-26.9149 455.221,-20.5172"/>
</g>
<!-- Node12 -->
<g id="node12" class="node"><title>Node12</title>
<polygon fill="none" stroke="#bfbfbf" points="469.162,-0.5 469.162,-19.5 547.162,-19.5 547.162,-0.5 469.162,-0.5"/>
<text text-anchor="middle" x="508.162" y="-7.5" font-family="Helvetica,sans-Serif" font-size="10.00">boost/any.hpp</text>
</g>
<!-- Node11&#45;&gt;Node12 -->
<g id="edge15" class="edge"><title>Node11&#45;&gt;Node12</title>
<path fill="none" stroke="midnightblue" d="M547.076,-56.3993C539.589,-47.6641 529.945,-36.4126 522.131,-27.2962"/>
<polygon fill="midnightblue" stroke="midnightblue" points="524.749,-24.9726 515.583,-19.6578 519.434,-29.5281 524.749,-24.9726"/>
</g>
<!-- Node13 -->
<g id="node13" class="node"><title>Node13</title>
<polygon fill="none" stroke="#bfbfbf" points="565.662,-0.5 565.662,-19.5 648.662,-19.5 648.662,-0.5 565.662,-0.5"/>
<text text-anchor="middle" x="607.162" y="-7.5" font-family="Helvetica,sans-Serif" font-size="10.00">unordered_map</text>
</g>
<!-- Node11&#45;&gt;Node13 -->
<g id="edge16" class="edge"><title>Node11&#45;&gt;Node13</title>
<path fill="none" stroke="midnightblue" d="M570.538,-56.3993C577.513,-47.7533 586.476,-36.642 593.79,-27.576"/>
<polygon fill="midnightblue" stroke="midnightblue" points="596.623,-29.6385 600.178,-19.6578 591.175,-25.2433 596.623,-29.6385"/>
</g>
<!-- Node14 -->
<g id="node14" class="node"><title>Node14</title>
<polygon fill="none" stroke="#bfbfbf" points="667.162,-0.5 667.162,-19.5 721.162,-19.5 721.162,-0.5 667.162,-0.5"/>
<text text-anchor="middle" x="694.162" y="-7.5" font-family="Helvetica,sans-Serif" font-size="10.00">iostream</text>
</g>
<!-- Node11&#45;&gt;Node14 -->
<g id="edge18" class="edge"><title>Node11&#45;&gt;Node14</title>
<path fill="none" stroke="midnightblue" d="M591.156,-56.3993C613.604,-46.5054 643.377,-33.3832 665.139,-23.7919"/>
<polygon fill="midnightblue" stroke="midnightblue" points="666.78,-26.8936 674.519,-19.6578 663.956,-20.4882 666.78,-26.8936"/>
</g>
<!-- Node16 -->
<g id="node16" class="node"><title>Node16</title>
<polygon fill="none" stroke="#bfbfbf" points="786.662,-62 786.662,-81 835.662,-81 835.662,-62 786.662,-62"/>
<text text-anchor="middle" x="811.162" y="-69" font-family="Helvetica,sans-Serif" font-size="10.00">stdint.h</text>
</g>
<!-- Node15&#45;&gt;Node16 -->
<g id="edge20" class="edge"><title>Node15&#45;&gt;Node16</title>
<path fill="none" stroke="midnightblue" d="M811.162,-123.396C811.162,-114.064 811.162,-101.714 811.162,-91.5173"/>
<polygon fill="midnightblue" stroke="midnightblue" points="814.663,-91.1945 811.162,-81.1945 807.663,-91.1946 814.663,-91.1945"/>
</g>
</g>
</svg>
