<?xml version="1.0" encoding="UTF-8" standalone="no"?>
<!DOCTYPE svg PUBLIC "-//W3C//DTD SVG 1.1//EN"
 "http://www.w3.org/Graphics/SVG/1.1/DTD/svg11.dtd">
<!-- Generated by graphviz version 2.38.0 (20140413.2041)
 -->
<!-- Title: /home/lucamuratore/advr&#45;superbuild/external/XCM/include/XCM/XBotControlModule.h Pages: 1 -->
<svg width="872pt" height="307pt"
 viewBox="0.00 0.00 871.97 307.00" xmlns="http://www.w3.org/2000/svg" xmlns:xlink="http://www.w3.org/1999/xlink">
<g id="graph0" class="graph" transform="scale(1 1) rotate(0) translate(4 303)">
<title>/home/lucamuratore/advr&#45;superbuild/external/XCM/include/XCM/XBotControlModule.h</title>
<!-- Node1 -->
<g id="node1" class="node"><title>Node1</title>
<polygon fill="#bfbfbf" stroke="black" points="222.975,-257.5 222.975,-298.5 419.975,-298.5 419.975,-257.5 222.975,-257.5"/>
<text text-anchor="start" x="230.975" y="-286.5" font-family="Helvetica,sans-Serif" font-size="10.00">/home/lucamuratore</text>
<text text-anchor="start" x="230.975" y="-275.5" font-family="Helvetica,sans-Serif" font-size="10.00">/advr&#45;superbuild/external</text>
<text text-anchor="middle" x="321.475" y="-264.5" font-family="Helvetica,sans-Serif" font-size="10.00">/XCM/include/XCM/XBotControlModule.h</text>
</g>
<!-- Node2 -->
<g id="node2" class="node"><title>Node2</title>
<polygon fill="none" stroke="#bfbfbf" points="172.475,-196 172.475,-215 324.475,-215 324.475,-196 172.475,-196"/>
<text text-anchor="middle" x="248.475" y="-203" font-family="Helvetica,sans-Serif" font-size="10.00">XBotInterface/RobotInterface.h</text>
</g>
<!-- Node1&#45;&gt;Node2 -->
<g id="edge1" class="edge"><title>Node1&#45;&gt;Node2</title>
<path fill="none" stroke="midnightblue" d="M301.14,-257.362C289.71,-246.323 275.629,-232.725 264.904,-222.366"/>
<polygon fill="midnightblue" stroke="midnightblue" points="267.08,-219.603 257.456,-215.173 262.218,-224.638 267.08,-219.603"/>
</g>
<!-- Node3 -->
<g id="node3" class="node"><title>Node3</title>
<g id="a_node3"><a xlink:href="XBotPlugin_8h.html" target="_top" xlink:title="XBotCore&#45;interfaces\l/XBotPlugin.h">
<polygon fill="none" stroke="black" points="342.975,-190.5 342.975,-220.5 447.975,-220.5 447.975,-190.5 342.975,-190.5"/>
<text text-anchor="start" x="350.975" y="-208.5" font-family="Helvetica,sans-Serif" font-size="10.00">XBotCore&#45;interfaces</text>
<text text-anchor="middle" x="395.475" y="-197.5" font-family="Helvetica,sans-Serif" font-size="10.00">/XBotPlugin.h</text>
</a>
</g>
</g>
<!-- Node1&#45;&gt;Node3 -->
<g id="edge2" class="edge"><title>Node1&#45;&gt;Node3</title>
<path fill="none" stroke="midnightblue" d="M342.088,-257.362C351.671,-248.232 363.093,-237.35 372.908,-228"/>
<polygon fill="midnightblue" stroke="midnightblue" points="375.543,-230.323 380.369,-220.892 370.714,-225.255 375.543,-230.323"/>
</g>
<!-- Node4 -->
<g id="node4" class="node"><title>Node4</title>
<g id="a_node4"><a xlink:href="IXBotJoint_8h.html" target="_top" xlink:title="XBotCore&#45;interfaces\l/IXBotJoint.h">
<polygon fill="none" stroke="black" points="301.975,-123.5 301.975,-153.5 406.975,-153.5 406.975,-123.5 301.975,-123.5"/>
<text text-anchor="start" x="309.975" y="-141.5" font-family="Helvetica,sans-Serif" font-size="10.00">XBotCore&#45;interfaces</text>
<text text-anchor="middle" x="354.475" y="-130.5" font-family="Helvetica,sans-Serif" font-size="10.00">/IXBotJoint.h</text>
</a>
</g>
</g>
<!-- Node3&#45;&gt;Node4 -->
<g id="edge3" class="edge"><title>Node3&#45;&gt;Node4</title>
<path fill="none" stroke="midnightblue" d="M386.578,-190.396C381.367,-182.134 374.663,-171.507 368.731,-162.102"/>
<polygon fill="midnightblue" stroke="midnightblue" points="371.649,-160.167 363.354,-153.577 365.729,-163.902 371.649,-160.167"/>
</g>
<!-- Node5 -->
<g id="node5" class="node"><title>Node5</title>
<polygon fill="none" stroke="#bfbfbf" points="213.975,-62 213.975,-81 248.975,-81 248.975,-62 213.975,-62"/>
<text text-anchor="middle" x="231.475" y="-69" font-family="Helvetica,sans-Serif" font-size="10.00">map</text>
</g>
<!-- Node3&#45;&gt;Node5 -->
<g id="edge23" class="edge"><title>Node3&#45;&gt;Node5</title>
<path fill="none" stroke="midnightblue" d="M342.721,-192.111C339.593,-191.392 336.493,-190.684 333.475,-190 260.697,-173.503 216.244,-212.15 169.475,-154 150.819,-130.804 183.089,-103.087 207.65,-86.6848"/>
<polygon fill="midnightblue" stroke="midnightblue" points="209.707,-89.5236 216.241,-81.1834 205.932,-83.6286 209.707,-89.5236"/>
</g>
<!-- Node6 -->
<g id="node6" class="node"><title>Node6</title>
<polygon fill="none" stroke="#bfbfbf" points="99.4748,-62 99.4748,-81 143.475,-81 143.475,-62 99.4748,-62"/>
<text text-anchor="middle" x="121.475" y="-69" font-family="Helvetica,sans-Serif" font-size="10.00">vector</text>
</g>
<!-- Node3&#45;&gt;Node6 -->
<g id="edge24" class="edge"><title>Node3&#45;&gt;Node6</title>
<path fill="none" stroke="midnightblue" d="M342.797,-191.728C339.65,-191.105 336.525,-190.523 333.475,-190 261.639,-177.679 56.1015,-208.292 7.47477,-154 -21.7529,-121.367 46.5358,-94.3194 89.6194,-81.1447"/>
<polygon fill="midnightblue" stroke="midnightblue" points="90.8323,-84.436 99.4321,-78.2478 88.8503,-77.7225 90.8323,-84.436"/>
</g>
<!-- Node7 -->
<g id="node7" class="node"><title>Node7</title>
<polygon fill="none" stroke="#bfbfbf" points="399.475,-0.5 399.475,-19.5 451.475,-19.5 451.475,-0.5 399.475,-0.5"/>
<text text-anchor="middle" x="425.475" y="-7.5" font-family="Helvetica,sans-Serif" font-size="10.00">memory</text>
</g>
<!-- Node3&#45;&gt;Node7 -->
<g id="edge25" class="edge"><title>Node3&#45;&gt;Node7</title>
<path fill="none" stroke="midnightblue" d="M408.701,-190.275C416.626,-180.777 426.006,-167.578 430.475,-154 444.535,-111.278 436.206,-57.4576 430.125,-29.6071"/>
<polygon fill="midnightblue" stroke="midnightblue" points="433.487,-28.6128 427.803,-19.6714 426.67,-30.2054 433.487,-28.6128"/>
</g>
<!-- Node8 -->
<g id="node8" class="node"><title>Node8</title>
<polygon fill="none" stroke="#bfbfbf" points="382.975,-62 382.975,-81 423.975,-81 423.975,-62 382.975,-62"/>
<text text-anchor="middle" x="403.475" y="-69" font-family="Helvetica,sans-Serif" font-size="10.00">string</text>
</g>
<!-- Node3&#45;&gt;Node8 -->
<g id="edge26" class="edge"><title>Node3&#45;&gt;Node8</title>
<path fill="none" stroke="midnightblue" d="M402.751,-190.35C407.414,-180.459 413.036,-166.783 415.475,-154 419.569,-132.541 414.505,-107.674 409.754,-91.1062"/>
<polygon fill="midnightblue" stroke="midnightblue" points="412.953,-89.608 406.632,-81.1058 406.271,-91.6945 412.953,-89.608"/>
</g>
<!-- Node9 -->
<g id="node9" class="node"><title>Node9</title>
<g id="a_node9"><a xlink:href="IXBotModel_8h.html" target="_top" xlink:title="XBotCore&#45;interfaces\l/IXBotModel.h">
<polygon fill="none" stroke="black" points="178.975,-123.5 178.975,-153.5 283.975,-153.5 283.975,-123.5 178.975,-123.5"/>
<text text-anchor="start" x="186.975" y="-141.5" font-family="Helvetica,sans-Serif" font-size="10.00">XBotCore&#45;interfaces</text>
<text text-anchor="middle" x="231.475" y="-130.5" font-family="Helvetica,sans-Serif" font-size="10.00">/IXBotModel.h</text>
</a>
</g>
</g>
<!-- Node3&#45;&gt;Node9 -->
<g id="edge8" class="edge"><title>Node3&#45;&gt;Node9</title>
<path fill="none" stroke="midnightblue" d="M359.889,-190.396C335.39,-180.686 302.648,-167.709 276.358,-157.289"/>
<polygon fill="midnightblue" stroke="midnightblue" points="277.577,-154.007 266.991,-153.577 274.998,-160.515 277.577,-154.007"/>
</g>
<!-- Node10 -->
<g id="node10" class="node"><title>Node10</title>
<g id="a_node10"><a xlink:href="IXBotFT_8h.html" target="_top" xlink:title="XBotCore&#45;interfaces\l/IXBotFT.h">
<polygon fill="none" stroke="black" points="635.975,-123.5 635.975,-153.5 740.975,-153.5 740.975,-123.5 635.975,-123.5"/>
<text text-anchor="start" x="643.975" y="-141.5" font-family="Helvetica,sans-Serif" font-size="10.00">XBotCore&#45;interfaces</text>
<text text-anchor="middle" x="688.475" y="-130.5" font-family="Helvetica,sans-Serif" font-size="10.00">/IXBotFT.h</text>
</a>
</g>
</g>
<!-- Node3&#45;&gt;Node10 -->
<g id="edge12" class="edge"><title>Node3&#45;&gt;Node10</title>
<path fill="none" stroke="midnightblue" d="M448.277,-193.185C492.932,-183.563 558.877,-169.234 625.837,-154.127"/>
<polygon fill="midnightblue" stroke="midnightblue" points="626.739,-157.511 635.722,-151.892 625.196,-150.683 626.739,-157.511"/>
</g>
<!-- Node11 -->
<g id="node11" class="node"><title>Node11</title>
<g id="a_node11"><a xlink:href="IXBotIMU_8h.html" target="_top" xlink:title="XBotCore&#45;interfaces\l/IXBotIMU.h">
<polygon fill="none" stroke="black" points="16.9748,-123.5 16.9748,-153.5 121.975,-153.5 121.975,-123.5 16.9748,-123.5"/>
<text text-anchor="start" x="24.9748" y="-141.5" font-family="Helvetica,sans-Serif" font-size="10.00">XBotCore&#45;interfaces</text>
<text text-anchor="middle" x="69.4748" y="-130.5" font-family="Helvetica,sans-Serif" font-size="10.00">/IXBotIMU.h</text>
</a>
</g>
</g>
<!-- Node3&#45;&gt;Node11 -->
<g id="edge13" class="edge"><title>Node3&#45;&gt;Node11</title>
<path fill="none" stroke="midnightblue" d="M342.749,-191.984C339.614,-191.297 336.505,-190.631 333.475,-190 246.337,-171.86 223.76,-171.416 136.475,-154 135.016,-153.709 133.54,-153.412 132.051,-153.11"/>
<polygon fill="midnightblue" stroke="midnightblue" points="132.609,-149.651 122.108,-151.059 131.195,-156.507 132.609,-149.651"/>
</g>
<!-- Node12 -->
<g id="node12" class="node"><title>Node12</title>
<g id="a_node12"><a xlink:href="XBotSharedMemory_8h.html" target="_top" xlink:title="XBotCore&#45;interfaces\l/XBotSharedMemory.h">
<polygon fill="none" stroke="black" points="501.475,-123.5 501.475,-153.5 617.475,-153.5 617.475,-123.5 501.475,-123.5"/>
<text text-anchor="start" x="509.475" y="-141.5" font-family="Helvetica,sans-Serif" font-size="10.00">XBotCore&#45;interfaces</text>
<text text-anchor="middle" x="559.475" y="-130.5" font-family="Helvetica,sans-Serif" font-size="10.00">/XBotSharedMemory.h</text>
</a>
</g>
</g>
<!-- Node3&#45;&gt;Node12 -->
<g id="edge15" class="edge"><title>Node3&#45;&gt;Node12</title>
<path fill="none" stroke="midnightblue" d="M431.06,-190.396C455.56,-180.686 488.302,-167.709 514.592,-157.289"/>
<polygon fill="midnightblue" stroke="midnightblue" points="515.952,-160.515 523.959,-153.577 513.373,-154.007 515.952,-160.515"/>
</g>
<!-- Node17 -->
<g id="node17" class="node"><title>Node17</title>
<g id="a_node17"><a xlink:href="XBotESC_8h.html" target="_top" xlink:title="XBotCore&#45;interfaces\l/XBotESC.h">
<polygon fill="none" stroke="black" points="758.975,-123.5 758.975,-153.5 863.975,-153.5 863.975,-123.5 758.975,-123.5"/>
<text text-anchor="start" x="766.975" y="-141.5" font-family="Helvetica,sans-Serif" font-size="10.00">XBotCore&#45;interfaces</text>
<text text-anchor="middle" x="811.475" y="-130.5" font-family="Helvetica,sans-Serif" font-size="10.00">/XBotESC.h</text>
</a>
</g>
</g>
<!-- Node3&#45;&gt;Node17 -->
<g id="edge21" class="edge"><title>Node3&#45;&gt;Node17</title>
<path fill="none" stroke="midnightblue" d="M448.192,-198.451C515.6,-190.389 636.091,-174.885 748.931,-153.998"/>
<polygon fill="midnightblue" stroke="midnightblue" points="749.59,-157.435 758.776,-152.157 748.304,-150.554 749.59,-157.435"/>
</g>
<!-- Node4&#45;&gt;Node5 -->
<g id="edge4" class="edge"><title>Node4&#45;&gt;Node5</title>
<path fill="none" stroke="midnightblue" d="M327.786,-123.396C306.586,-112.193 277.157,-96.6412 256.425,-85.6853"/>
<polygon fill="midnightblue" stroke="midnightblue" points="258.049,-82.5848 247.573,-81.007 254.779,-88.7738 258.049,-82.5848"/>
</g>
<!-- Node4&#45;&gt;Node6 -->
<g id="edge5" class="edge"><title>Node4&#45;&gt;Node6</title>
<path fill="none" stroke="midnightblue" d="M304.204,-123.476C258.397,-110.697 192.135,-92.2121 153.263,-81.3679"/>
<polygon fill="midnightblue" stroke="midnightblue" points="154.105,-77.9693 143.532,-78.6534 152.224,-84.7118 154.105,-77.9693"/>
</g>
<!-- Node4&#45;&gt;Node7 -->
<g id="edge6" class="edge"><title>Node4&#45;&gt;Node7</title>
<path fill="none" stroke="midnightblue" d="M355.144,-123.245C356.518,-106.145 360.708,-77.1432 373.475,-56 380.803,-43.8636 392.522,-33.3038 402.981,-25.4693"/>
<polygon fill="midnightblue" stroke="midnightblue" points="405.201,-28.1857 411.346,-19.5546 401.16,-22.4701 405.201,-28.1857"/>
</g>
<!-- Node4&#45;&gt;Node8 -->
<g id="edge7" class="edge"><title>Node4&#45;&gt;Node8</title>
<path fill="none" stroke="midnightblue" d="M365.107,-123.396C372.672,-113.361 382.866,-99.8382 390.845,-89.2535"/>
<polygon fill="midnightblue" stroke="midnightblue" points="393.696,-91.2867 396.92,-81.1945 388.106,-87.0729 393.696,-91.2867"/>
</g>
<!-- Node9&#45;&gt;Node5 -->
<g id="edge9" class="edge"><title>Node9&#45;&gt;Node5</title>
<path fill="none" stroke="midnightblue" d="M231.475,-123.396C231.475,-114.064 231.475,-101.714 231.475,-91.5173"/>
<polygon fill="midnightblue" stroke="midnightblue" points="234.975,-91.1945 231.475,-81.1945 227.975,-91.1946 234.975,-91.1945"/>
</g>
<!-- Node9&#45;&gt;Node6 -->
<g id="edge11" class="edge"><title>Node9&#45;&gt;Node6</title>
<path fill="none" stroke="midnightblue" d="M207.606,-123.396C188.903,-112.344 163.039,-97.0607 144.544,-86.1319"/>
<polygon fill="midnightblue" stroke="midnightblue" points="146.261,-83.0811 135.871,-81.007 142.7,-89.1076 146.261,-83.0811"/>
</g>
<!-- Node9&#45;&gt;Node8 -->
<g id="edge10" class="edge"><title>Node9&#45;&gt;Node8</title>
<path fill="none" stroke="midnightblue" d="M268.796,-123.396C300.083,-111.572 344.187,-94.9053 373.285,-83.9088"/>
<polygon fill="midnightblue" stroke="midnightblue" points="374.789,-87.0821 382.906,-80.2729 372.315,-80.534 374.789,-87.0821"/>
</g>
<!-- Node11&#45;&gt;Node6 -->
<g id="edge14" class="edge"><title>Node11&#45;&gt;Node6</title>
<path fill="none" stroke="midnightblue" d="M80.758,-123.396C88.7857,-113.361 99.6042,-99.8382 108.072,-89.2535"/>
<polygon fill="midnightblue" stroke="midnightblue" points="111.005,-91.1897 114.519,-81.1945 105.539,-86.8168 111.005,-91.1897"/>
</g>
<!-- Node13 -->
<g id="node13" class="node"><title>Node13</title>
<g id="a_node13"><a xlink:href="XBotSharedObject_8h.html" target="_top" xlink:title="XBotCore&#45;interfaces\l/XBotSharedObject.h">
<polygon fill="none" stroke="black" points="504.975,-56.5 504.975,-86.5 613.975,-86.5 613.975,-56.5 504.975,-56.5"/>
<text text-anchor="start" x="512.975" y="-74.5" font-family="Helvetica,sans-Serif" font-size="10.00">XBotCore&#45;interfaces</text>
<text text-anchor="middle" x="559.475" y="-63.5" font-family="Helvetica,sans-Serif" font-size="10.00">/XBotSharedObject.h</text>
</a>
</g>
</g>
<!-- Node12&#45;&gt;Node13 -->
<g id="edge16" class="edge"><title>Node12&#45;&gt;Node13</title>
<path fill="none" stroke="midnightblue" d="M559.475,-123.396C559.475,-115.645 559.475,-105.812 559.475,-96.8601"/>
<polygon fill="midnightblue" stroke="midnightblue" points="562.975,-96.5765 559.475,-86.5765 555.975,-96.5765 562.975,-96.5765"/>
</g>
<!-- Node13&#45;&gt;Node7 -->
<g id="edge19" class="edge"><title>Node13&#45;&gt;Node7</title>
<path fill="none" stroke="midnightblue" d="M527.719,-56.3993C505.436,-46.5054 475.884,-33.3832 454.283,-23.7919"/>
<polygon fill="midnightblue" stroke="midnightblue" points="455.533,-20.5172 444.973,-19.6578 452.692,-26.9149 455.533,-20.5172"/>
</g>
<!-- Node14 -->
<g id="node14" class="node"><title>Node14</title>
<polygon fill="none" stroke="#bfbfbf" points="469.475,-0.5 469.475,-19.5 547.475,-19.5 547.475,-0.5 469.475,-0.5"/>
<text text-anchor="middle" x="508.475" y="-7.5" font-family="Helvetica,sans-Serif" font-size="10.00">boost/any.hpp</text>
</g>
<!-- Node13&#45;&gt;Node14 -->
<g id="edge17" class="edge"><title>Node13&#45;&gt;Node14</title>
<path fill="none" stroke="midnightblue" d="M547.388,-56.3993C539.901,-47.6641 530.257,-36.4126 522.443,-27.2962"/>
<polygon fill="midnightblue" stroke="midnightblue" points="525.061,-24.9726 515.896,-19.6578 519.746,-29.5281 525.061,-24.9726"/>
</g>
<!-- Node15 -->
<g id="node15" class="node"><title>Node15</title>
<polygon fill="none" stroke="#bfbfbf" points="565.975,-0.5 565.975,-19.5 648.975,-19.5 648.975,-0.5 565.975,-0.5"/>
<text text-anchor="middle" x="607.475" y="-7.5" font-family="Helvetica,sans-Serif" font-size="10.00">unordered_map</text>
</g>
<!-- Node13&#45;&gt;Node15 -->
<g id="edge18" class="edge"><title>Node13&#45;&gt;Node15</title>
<path fill="none" stroke="midnightblue" d="M570.85,-56.3993C577.825,-47.7533 586.789,-36.642 594.103,-27.576"/>
<polygon fill="midnightblue" stroke="midnightblue" points="596.936,-29.6385 600.49,-19.6578 591.487,-25.2433 596.936,-29.6385"/>
</g>
<!-- Node16 -->
<g id="node16" class="node"><title>Node16</title>
<polygon fill="none" stroke="#bfbfbf" points="667.475,-0.5 667.475,-19.5 721.475,-19.5 721.475,-0.5 667.475,-0.5"/>
<text text-anchor="middle" x="694.475" y="-7.5" font-family="Helvetica,sans-Serif" font-size="10.00">iostream</text>
</g>
<!-- Node13&#45;&gt;Node16 -->
<g id="edge20" class="edge"><title>Node13&#45;&gt;Node16</title>
<path fill="none" stroke="midnightblue" d="M591.468,-56.3993C613.916,-46.5054 643.689,-33.3832 665.451,-23.7919"/>
<polygon fill="midnightblue" stroke="midnightblue" points="667.092,-26.8936 674.831,-19.6578 664.269,-20.4882 667.092,-26.8936"/>
</g>
<!-- Node18 -->
<g id="node18" class="node"><title>Node18</title>
<polygon fill="none" stroke="#bfbfbf" points="786.975,-62 786.975,-81 835.975,-81 835.975,-62 786.975,-62"/>
<text text-anchor="middle" x="811.475" y="-69" font-family="Helvetica,sans-Serif" font-size="10.00">stdint.h</text>
</g>
<!-- Node17&#45;&gt;Node18 -->
<g id="edge22" class="edge"><title>Node17&#45;&gt;Node18</title>
<path fill="none" stroke="midnightblue" d="M811.475,-123.396C811.475,-114.064 811.475,-101.714 811.475,-91.5173"/>
<polygon fill="midnightblue" stroke="midnightblue" points="814.975,-91.1945 811.475,-81.1945 807.975,-91.1946 814.975,-91.1945"/>
</g>
</g>
</svg>
