<?xml version="1.0" encoding="UTF-8" standalone="no"?>
<!DOCTYPE svg PUBLIC "-//W3C//DTD SVG 1.1//EN"
 "http://www.w3.org/Graphics/SVG/1.1/DTD/svg11.dtd">
<!-- Generated by graphviz version 2.38.0 (20140413.2041)
 -->
<!-- Title: /home/lucamuratore/advr&#45;superbuild/external/XCM/include/XCM/XBotControlModule.h Pages: 1 -->
<svg width="392pt" height="206pt"
 viewBox="0.00 0.00 391.50 206.00" xmlns="http://www.w3.org/2000/svg" xmlns:xlink="http://www.w3.org/1999/xlink">
<g id="graph0" class="graph" transform="scale(1 1) rotate(0) translate(4 202)">
<title>/home/lucamuratore/advr&#45;superbuild/external/XCM/include/XCM/XBotControlModule.h</title>
<!-- Node1 -->
<g id="node1" class="node"><title>Node1</title>
<polygon fill="#bfbfbf" stroke="black" points="101.5,-156.5 101.5,-197.5 298.5,-197.5 298.5,-156.5 101.5,-156.5"/>
<text text-anchor="start" x="109.5" y="-185.5" font-family="Helvetica,sans-Serif" font-size="10.00">/home/lucamuratore</text>
<text text-anchor="start" x="109.5" y="-174.5" font-family="Helvetica,sans-Serif" font-size="10.00">/advr&#45;superbuild/external</text>
<text text-anchor="middle" x="200" y="-163.5" font-family="Helvetica,sans-Serif" font-size="10.00">/XCM/include/XCM/XBotControlModule.h</text>
</g>
<!-- Node2 -->
<g id="node2" class="node"><title>Node2</title>
<g id="a_node2"><a xlink:href="XBotModuleHandler_8h.html" target="_top" xlink:title="/home/lucamuratore\l/advr&#45;superbuild/external\l/XCM/include/XCM/XBotModuleHandler.h">
<polygon fill="none" stroke="black" points="0,-78.5 0,-119.5 200,-119.5 200,-78.5 0,-78.5"/>
<text text-anchor="start" x="8" y="-107.5" font-family="Helvetica,sans-Serif" font-size="10.00">/home/lucamuratore</text>
<text text-anchor="start" x="8" y="-96.5" font-family="Helvetica,sans-Serif" font-size="10.00">/advr&#45;superbuild/external</text>
<text text-anchor="middle" x="100" y="-85.5" font-family="Helvetica,sans-Serif" font-size="10.00">/XCM/include/XCM/XBotModuleHandler.h</text>
</a>
</g>
</g>
<!-- Node1&#45;&gt;Node2 -->
<g id="edge1" class="edge"><title>Node1&#45;&gt;Node2</title>
<path fill="none" stroke="midnightblue" d="M166.25,-150.35C152.989,-140.272 138.017,-128.893 125.665,-119.506"/>
<polygon fill="midnightblue" stroke="midnightblue" points="164.168,-153.164 174.248,-156.428 168.404,-147.591 164.168,-153.164"/>
</g>
<!-- Node4 -->
<g id="node4" class="node"><title>Node4</title>
<g id="a_node4"><a xlink:href="XBotControlModule_8cpp.html" target="_top" xlink:title="/home/lucamuratore\l/advr&#45;superbuild/external\l/XCM/src/XBotControlModule.cpp">
<polygon fill="none" stroke="black" points="218.5,-78.5 218.5,-119.5 383.5,-119.5 383.5,-78.5 218.5,-78.5"/>
<text text-anchor="start" x="226.5" y="-107.5" font-family="Helvetica,sans-Serif" font-size="10.00">/home/lucamuratore</text>
<text text-anchor="start" x="226.5" y="-96.5" font-family="Helvetica,sans-Serif" font-size="10.00">/advr&#45;superbuild/external</text>
<text text-anchor="middle" x="301" y="-85.5" font-family="Helvetica,sans-Serif" font-size="10.00">/XCM/src/XBotControlModule.cpp</text>
</a>
</g>
</g>
<!-- Node1&#45;&gt;Node4 -->
<g id="edge3" class="edge"><title>Node1&#45;&gt;Node4</title>
<path fill="none" stroke="midnightblue" d="M234.087,-150.35C247.481,-140.272 262.603,-128.893 275.078,-119.506"/>
<polygon fill="midnightblue" stroke="midnightblue" points="231.896,-147.619 226.01,-156.428 236.105,-153.212 231.896,-147.619"/>
</g>
<!-- Node3 -->
<g id="node3" class="node"><title>Node3</title>
<g id="a_node3"><a xlink:href="XBotModuleHandler_8cpp.html" target="_top" xlink:title="/home/lucamuratore\l/advr&#45;superbuild/external\l/XCM/src/XBotModuleHandler.cpp">
<polygon fill="none" stroke="black" points="16.5,-0.5 16.5,-41.5 183.5,-41.5 183.5,-0.5 16.5,-0.5"/>
<text text-anchor="start" x="24.5" y="-29.5" font-family="Helvetica,sans-Serif" font-size="10.00">/home/lucamuratore</text>
<text text-anchor="start" x="24.5" y="-18.5" font-family="Helvetica,sans-Serif" font-size="10.00">/advr&#45;superbuild/external</text>
<text text-anchor="middle" x="100" y="-7.5" font-family="Helvetica,sans-Serif" font-size="10.00">/XCM/src/XBotModuleHandler.cpp</text>
</a>
</g>
</g>
<!-- Node2&#45;&gt;Node3 -->
<g id="edge2" class="edge"><title>Node2&#45;&gt;Node3</title>
<path fill="none" stroke="midnightblue" d="M100,-68.2965C100,-59.3009 100,-49.6532 100,-41.5056"/>
<polygon fill="midnightblue" stroke="midnightblue" points="96.5001,-68.4281 100,-78.4281 103.5,-68.4281 96.5001,-68.4281"/>
</g>
</g>
</svg>
