<?xml version="1.0" encoding="UTF-8" standalone="no"?>
<!DOCTYPE svg PUBLIC "-//W3C//DTD SVG 1.1//EN"
 "http://www.w3.org/Graphics/SVG/1.1/DTD/svg11.dtd">
<!-- Generated by graphviz version 2.38.0 (20140413.2041)
 -->
<!-- Title: /home/lucamuratore/advr&#45;superbuild/external/XCM/include/XBotCore&#45;interfaces/XBotPipes.h Pages: 1 -->
<svg width="1465pt" height="495pt"
 viewBox="0.00 0.00 1465.01 495.00" xmlns="http://www.w3.org/2000/svg" xmlns:xlink="http://www.w3.org/1999/xlink">
<g id="graph0" class="graph" transform="scale(1 1) rotate(0) translate(4 491)">
<title>/home/lucamuratore/advr&#45;superbuild/external/XCM/include/XBotCore&#45;interfaces/XBotPipes.h</title>
<!-- Node1 -->
<g id="node1" class="node"><title>Node1</title>
<polygon fill="#bfbfbf" stroke="black" points="1046,-434.5 1046,-486.5 1213,-486.5 1213,-434.5 1046,-434.5"/>
<text text-anchor="start" x="1054" y="-474.5" font-family="Helvetica,sans-Serif" font-size="10.00">/home/lucamuratore</text>
<text text-anchor="start" x="1054" y="-463.5" font-family="Helvetica,sans-Serif" font-size="10.00">/advr&#45;superbuild/external</text>
<text text-anchor="start" x="1054" y="-452.5" font-family="Helvetica,sans-Serif" font-size="10.00">/XCM/include/XBotCore&#45;interfaces</text>
<text text-anchor="middle" x="1129.5" y="-441.5" font-family="Helvetica,sans-Serif" font-size="10.00">/XBotPipes.h</text>
</g>
<!-- Node2 -->
<g id="node2" class="node"><title>Node2</title>
<g id="a_node2"><a xlink:href="All_8h.html" target="_top" xlink:title="/home/lucamuratore\l/advr&#45;superbuild/external\l/XCM/include/XBotCore&#45;interfaces/All.h">
<polygon fill="none" stroke="black" points="1034.5,-267.5 1034.5,-308.5 1224.5,-308.5 1224.5,-267.5 1034.5,-267.5"/>
<text text-anchor="start" x="1042.5" y="-296.5" font-family="Helvetica,sans-Serif" font-size="10.00">/home/lucamuratore</text>
<text text-anchor="start" x="1042.5" y="-285.5" font-family="Helvetica,sans-Serif" font-size="10.00">/advr&#45;superbuild/external</text>
<text text-anchor="middle" x="1129.5" y="-274.5" font-family="Helvetica,sans-Serif" font-size="10.00">/XCM/include/XBotCore&#45;interfaces/All.h</text>
</a>
</g>
</g>
<!-- Node1&#45;&gt;Node2 -->
<g id="edge1" class="edge"><title>Node1&#45;&gt;Node2</title>
<path fill="none" stroke="midnightblue" d="M1129.5,-424.083C1129.5,-389.093 1129.5,-336.843 1129.5,-308.681"/>
<polygon fill="midnightblue" stroke="midnightblue" points="1126,-424.342 1129.5,-434.342 1133,-424.342 1126,-424.342"/>
</g>
<!-- Node8 -->
<g id="node8" class="node"><title>Node8</title>
<g id="a_node8"><a xlink:href="XBotPluginHandler_8cpp.html" target="_top" xlink:title="/home/lucamuratore\l/advr&#45;superbuild/external\l/XCM/src/XBotPluginHandler.cpp">
<polygon fill="none" stroke="black" points="1284,-95 1284,-136 1447,-136 1447,-95 1284,-95"/>
<text text-anchor="start" x="1292" y="-124" font-family="Helvetica,sans-Serif" font-size="10.00">/home/lucamuratore</text>
<text text-anchor="start" x="1292" y="-113" font-family="Helvetica,sans-Serif" font-size="10.00">/advr&#45;superbuild/external</text>
<text text-anchor="middle" x="1365.5" y="-102" font-family="Helvetica,sans-Serif" font-size="10.00">/XCM/src/XBotPluginHandler.cpp</text>
</a>
</g>
</g>
<!-- Node1&#45;&gt;Node8 -->
<g id="edge29" class="edge"><title>Node1&#45;&gt;Node8</title>
<path fill="none" stroke="midnightblue" d="M1223.09,-443.803C1299.12,-425.587 1401.64,-387.344 1451.5,-309 1467.74,-283.483 1443.37,-193.639 1434.5,-178 1425.08,-161.388 1409.51,-146.931 1395.54,-136.216"/>
<polygon fill="midnightblue" stroke="midnightblue" points="1221.97,-440.47 1213.02,-446.137 1223.55,-447.289 1221.97,-440.47"/>
</g>
<!-- Node9 -->
<g id="node9" class="node"><title>Node9</title>
<g id="a_node9"><a xlink:href="XDomainCommunication_8h.html" target="_top" xlink:title="/home/lucamuratore\l/advr&#45;superbuild/external\l/XCM/include/XBotCore&#45;interfaces\l/XDomainCommunication.h">
<polygon fill="none" stroke="black" points="629,-345.5 629,-397.5 796,-397.5 796,-345.5 629,-345.5"/>
<text text-anchor="start" x="637" y="-385.5" font-family="Helvetica,sans-Serif" font-size="10.00">/home/lucamuratore</text>
<text text-anchor="start" x="637" y="-374.5" font-family="Helvetica,sans-Serif" font-size="10.00">/advr&#45;superbuild/external</text>
<text text-anchor="start" x="637" y="-363.5" font-family="Helvetica,sans-Serif" font-size="10.00">/XCM/include/XBotCore&#45;interfaces</text>
<text text-anchor="middle" x="712.5" y="-352.5" font-family="Helvetica,sans-Serif" font-size="10.00">/XDomainCommunication.h</text>
</a>
</g>
</g>
<!-- Node1&#45;&gt;Node9 -->
<g id="edge8" class="edge"><title>Node1&#45;&gt;Node9</title>
<path fill="none" stroke="midnightblue" d="M1035.91,-439.973C964.033,-424.978 865.671,-404.456 796.352,-389.994"/>
<polygon fill="midnightblue" stroke="midnightblue" points="1035.36,-443.435 1045.87,-442.051 1036.79,-436.582 1035.36,-443.435"/>
</g>
<!-- Node3 -->
<g id="node3" class="node"><title>Node3</title>
<g id="a_node3"><a xlink:href="XBotPluginHandler_8h.html" target="_top" xlink:title="/home/lucamuratore\l/advr&#45;superbuild/external\l/XCM/include/XCM/XBotPluginHandler.h">
<polygon fill="none" stroke="black" points="1006,-184 1006,-225 1201,-225 1201,-184 1006,-184"/>
<text text-anchor="start" x="1014" y="-213" font-family="Helvetica,sans-Serif" font-size="10.00">/home/lucamuratore</text>
<text text-anchor="start" x="1014" y="-202" font-family="Helvetica,sans-Serif" font-size="10.00">/advr&#45;superbuild/external</text>
<text text-anchor="middle" x="1103.5" y="-191" font-family="Helvetica,sans-Serif" font-size="10.00">/XCM/include/XCM/XBotPluginHandler.h</text>
</a>
</g>
</g>
<!-- Node2&#45;&gt;Node3 -->
<g id="edge2" class="edge"><title>Node2&#45;&gt;Node3</title>
<path fill="none" stroke="midnightblue" d="M1120.16,-257.731C1116.7,-246.873 1112.86,-234.83 1109.74,-225.047"/>
<polygon fill="midnightblue" stroke="midnightblue" points="1116.83,-258.808 1123.21,-267.271 1123.5,-256.68 1116.83,-258.808"/>
</g>
<!-- Node4 -->
<g id="node4" class="node"><title>Node4</title>
<g id="a_node4"><a xlink:href="NRTDeployer_8h.html" target="_top" xlink:title="/home/lucamuratore\l/advr&#45;superbuild/external\l/XCM/include/XCM/NRTDeployer.h">
<polygon fill="none" stroke="black" points="645,-95 645,-136 818,-136 818,-95 645,-95"/>
<text text-anchor="start" x="653" y="-124" font-family="Helvetica,sans-Serif" font-size="10.00">/home/lucamuratore</text>
<text text-anchor="start" x="653" y="-113" font-family="Helvetica,sans-Serif" font-size="10.00">/advr&#45;superbuild/external</text>
<text text-anchor="middle" x="731.5" y="-102" font-family="Helvetica,sans-Serif" font-size="10.00">/XCM/include/XCM/NRTDeployer.h</text>
</a>
</g>
</g>
<!-- Node3&#45;&gt;Node4 -->
<g id="edge3" class="edge"><title>Node3&#45;&gt;Node4</title>
<path fill="none" stroke="midnightblue" d="M1000.66,-181.79C948.383,-170.468 883.921,-156.074 826.5,-142 818.87,-140.13 810.915,-138.109 802.998,-136.051"/>
<polygon fill="midnightblue" stroke="midnightblue" points="1000.1,-185.249 1010.62,-183.939 1001.58,-178.407 1000.1,-185.249"/>
</g>
<!-- Node7 -->
<g id="node7" class="node"><title>Node7</title>
<g id="a_node7"><a xlink:href="DummyMain_8cpp.html" target="_top" xlink:title="/home/lucamuratore\l/advr&#45;superbuild/external\l/XCM/src/DummyMain.cpp">
<polygon fill="none" stroke="black" points="1035.5,-95 1035.5,-136 1171.5,-136 1171.5,-95 1035.5,-95"/>
<text text-anchor="start" x="1043.5" y="-124" font-family="Helvetica,sans-Serif" font-size="10.00">/home/lucamuratore</text>
<text text-anchor="start" x="1043.5" y="-113" font-family="Helvetica,sans-Serif" font-size="10.00">/advr&#45;superbuild/external</text>
<text text-anchor="middle" x="1103.5" y="-102" font-family="Helvetica,sans-Serif" font-size="10.00">/XCM/src/DummyMain.cpp</text>
</a>
</g>
</g>
<!-- Node3&#45;&gt;Node7 -->
<g id="edge6" class="edge"><title>Node3&#45;&gt;Node7</title>
<path fill="none" stroke="midnightblue" d="M1103.5,-173.441C1103.5,-161.101 1103.5,-147.162 1103.5,-136.164"/>
<polygon fill="midnightblue" stroke="midnightblue" points="1100,-173.758 1103.5,-183.758 1107,-173.758 1100,-173.758"/>
</g>
<!-- Node3&#45;&gt;Node8 -->
<g id="edge7" class="edge"><title>Node3&#45;&gt;Node8</title>
<path fill="none" stroke="midnightblue" d="M1171.84,-180.805C1213.61,-166.935 1266.5,-149.374 1306.45,-136.11"/>
<polygon fill="midnightblue" stroke="midnightblue" points="1170.69,-177.502 1162.3,-183.976 1172.89,-184.146 1170.69,-177.502"/>
</g>
<!-- Node5 -->
<g id="node5" class="node"><title>Node5</title>
<g id="a_node5"><a xlink:href="NRTDeployer_8cpp.html" target="_top" xlink:title="/home/lucamuratore\l/advr&#45;superbuild/external\l/XCM/src/NRTDeployer.cpp">
<polygon fill="none" stroke="black" points="830.5,-6 830.5,-47 970.5,-47 970.5,-6 830.5,-6"/>
<text text-anchor="start" x="838.5" y="-35" font-family="Helvetica,sans-Serif" font-size="10.00">/home/lucamuratore</text>
<text text-anchor="start" x="838.5" y="-24" font-family="Helvetica,sans-Serif" font-size="10.00">/advr&#45;superbuild/external</text>
<text text-anchor="middle" x="900.5" y="-13" font-family="Helvetica,sans-Serif" font-size="10.00">/XCM/src/NRTDeployer.cpp</text>
</a>
</g>
</g>
<!-- Node4&#45;&gt;Node5 -->
<g id="edge4" class="edge"><title>Node4&#45;&gt;Node5</title>
<path fill="none" stroke="midnightblue" d="M778.505,-90.3023C804.959,-76.684 837.563,-59.8996 862.408,-47.1097"/>
<polygon fill="midnightblue" stroke="midnightblue" points="776.716,-87.2865 769.427,-94.9755 779.92,-93.5103 776.716,-87.2865"/>
</g>
<!-- Node6 -->
<g id="node6" class="node"><title>Node6</title>
<g id="a_node6"><a xlink:href="NRTDeployerMain_8cpp.html" target="_top" xlink:title="/home/lucamuratore\l/advr&#45;superbuild/external\l/XCM/src/NRTDeployerMain.cpp">
<polygon fill="none" stroke="black" points="651,-6 651,-47 812,-47 812,-6 651,-6"/>
<text text-anchor="start" x="659" y="-35" font-family="Helvetica,sans-Serif" font-size="10.00">/home/lucamuratore</text>
<text text-anchor="start" x="659" y="-24" font-family="Helvetica,sans-Serif" font-size="10.00">/advr&#45;superbuild/external</text>
<text text-anchor="middle" x="731.5" y="-13" font-family="Helvetica,sans-Serif" font-size="10.00">/XCM/src/NRTDeployerMain.cpp</text>
</a>
</g>
</g>
<!-- Node4&#45;&gt;Node6 -->
<g id="edge5" class="edge"><title>Node4&#45;&gt;Node6</title>
<path fill="none" stroke="midnightblue" d="M731.5,-84.4407C731.5,-72.1014 731.5,-58.1619 731.5,-47.1635"/>
<polygon fill="midnightblue" stroke="midnightblue" points="728,-84.7583 731.5,-94.7584 735,-84.7584 728,-84.7583"/>
</g>
<!-- Node9&#45;&gt;Node2 -->
<g id="edge9" class="edge"><title>Node9&#45;&gt;Node2</title>
<path fill="none" stroke="midnightblue" d="M805.997,-352.227C874.055,-338.925 965.904,-320.974 1034.34,-307.598"/>
<polygon fill="midnightblue" stroke="midnightblue" points="805.277,-348.801 796.134,-354.154 806.62,-355.671 805.277,-348.801"/>
</g>
<!-- Node9&#45;&gt;Node4 -->
<g id="edge12" class="edge"><title>Node9&#45;&gt;Node4</title>
<path fill="none" stroke="midnightblue" d="M636.779,-340.087C624.664,-331.828 613.747,-321.583 606.5,-309 597.184,-292.824 602.759,-285.288 606.5,-267 615.119,-224.862 617.472,-211.457 644.5,-178 658.216,-161.021 677.772,-146.629 694.87,-136.045"/>
<polygon fill="midnightblue" stroke="midnightblue" points="635.005,-343.106 645.327,-345.492 638.746,-337.19 635.005,-343.106"/>
</g>
<!-- Node10 -->
<g id="node10" class="node"><title>Node10</title>
<g id="a_node10"><a xlink:href="XBotCommunicationPlugin_8h.html" target="_top" xlink:title="/home/lucamuratore\l/advr&#45;superbuild/external\l/XCM/include/XBotPlugin\l/XBotCommunicationPlugin.h">
<polygon fill="none" stroke="black" points="469,-89.5 469,-141.5 614,-141.5 614,-89.5 469,-89.5"/>
<text text-anchor="start" x="477" y="-129.5" font-family="Helvetica,sans-Serif" font-size="10.00">/home/lucamuratore</text>
<text text-anchor="start" x="477" y="-118.5" font-family="Helvetica,sans-Serif" font-size="10.00">/advr&#45;superbuild/external</text>
<text text-anchor="start" x="477" y="-107.5" font-family="Helvetica,sans-Serif" font-size="10.00">/XCM/include/XBotPlugin</text>
<text text-anchor="middle" x="541.5" y="-96.5" font-family="Helvetica,sans-Serif" font-size="10.00">/XBotCommunicationPlugin.h</text>
</a>
</g>
</g>
<!-- Node9&#45;&gt;Node10 -->
<g id="edge10" class="edge"><title>Node9&#45;&gt;Node10</title>
<path fill="none" stroke="midnightblue" d="M635.614,-340.497C621.375,-332.079 607.775,-321.669 597.5,-309 557.161,-259.259 545.88,-181.575 542.725,-141.812"/>
<polygon fill="midnightblue" stroke="midnightblue" points="634.102,-343.661 644.539,-345.483 637.517,-337.55 634.102,-343.661"/>
</g>
<!-- Node12 -->
<g id="node12" class="node"><title>Node12</title>
<g id="a_node12"><a xlink:href="XBotCommunicationHandler_8h.html" target="_top" xlink:title="/home/lucamuratore\l/advr&#45;superbuild/external\l/XCM/include/XCM/XBotCommunication\lHandler.h">
<polygon fill="none" stroke="black" points="177.5,-178.5 177.5,-230.5 371.5,-230.5 371.5,-178.5 177.5,-178.5"/>
<text text-anchor="start" x="185.5" y="-218.5" font-family="Helvetica,sans-Serif" font-size="10.00">/home/lucamuratore</text>
<text text-anchor="start" x="185.5" y="-207.5" font-family="Helvetica,sans-Serif" font-size="10.00">/advr&#45;superbuild/external</text>
<text text-anchor="start" x="185.5" y="-196.5" font-family="Helvetica,sans-Serif" font-size="10.00">/XCM/include/XCM/XBotCommunication</text>
<text text-anchor="middle" x="274.5" y="-185.5" font-family="Helvetica,sans-Serif" font-size="10.00">Handler.h</text>
</a>
</g>
</g>
<!-- Node9&#45;&gt;Node12 -->
<g id="edge13" class="edge"><title>Node9&#45;&gt;Node12</title>
<path fill="none" stroke="midnightblue" d="M618.581,-362.793C526.076,-353.771 392.434,-336.467 348.5,-309 318.719,-290.382 297.386,-254.965 285.495,-230.799"/>
<polygon fill="midnightblue" stroke="midnightblue" points="618.516,-366.303 628.804,-363.773 619.183,-359.335 618.516,-366.303"/>
</g>
<!-- Node15 -->
<g id="node15" class="node"><title>Node15</title>
<g id="a_node15"><a xlink:href="XBotControlPlugin_8h.html" target="_top" xlink:title="/home/lucamuratore\l/advr&#45;superbuild/external\l/XCM/include/XCM/XBotControlPlugin.h">
<polygon fill="none" stroke="black" points="616,-267.5 616,-308.5 809,-308.5 809,-267.5 616,-267.5"/>
<text text-anchor="start" x="624" y="-296.5" font-family="Helvetica,sans-Serif" font-size="10.00">/home/lucamuratore</text>
<text text-anchor="start" x="624" y="-285.5" font-family="Helvetica,sans-Serif" font-size="10.00">/advr&#45;superbuild/external</text>
<text text-anchor="middle" x="712.5" y="-274.5" font-family="Helvetica,sans-Serif" font-size="10.00">/XCM/include/XCM/XBotControlPlugin.h</text>
</a>
</g>
</g>
<!-- Node9&#45;&gt;Node15 -->
<g id="edge17" class="edge"><title>Node9&#45;&gt;Node15</title>
<path fill="none" stroke="midnightblue" d="M712.5,-335.147C712.5,-326.055 712.5,-316.597 712.5,-308.628"/>
<polygon fill="midnightblue" stroke="midnightblue" points="709,-335.16 712.5,-345.16 716,-335.16 709,-335.16"/>
</g>
<!-- Node19 -->
<g id="node19" class="node"><title>Node19</title>
<g id="a_node19"><a xlink:href="XBotModuleHandler_8h.html" target="_top" xlink:title="/home/lucamuratore\l/advr&#45;superbuild/external\l/XCM/include/XCM/XBotModuleHandler.h">
<polygon fill="none" stroke="black" points="1242.5,-267.5 1242.5,-308.5 1442.5,-308.5 1442.5,-267.5 1242.5,-267.5"/>
<text text-anchor="start" x="1250.5" y="-296.5" font-family="Helvetica,sans-Serif" font-size="10.00">/home/lucamuratore</text>
<text text-anchor="start" x="1250.5" y="-285.5" font-family="Helvetica,sans-Serif" font-size="10.00">/advr&#45;superbuild/external</text>
<text text-anchor="middle" x="1342.5" y="-274.5" font-family="Helvetica,sans-Serif" font-size="10.00">/XCM/include/XCM/XBotModuleHandler.h</text>
</a>
</g>
</g>
<!-- Node9&#45;&gt;Node19 -->
<g id="edge23" class="edge"><title>Node9&#45;&gt;Node19</title>
<path fill="none" stroke="midnightblue" d="M806.393,-361.244C910.897,-350.517 1084.67,-331.414 1233.5,-309 1236.45,-308.556 1239.44,-308.092 1242.46,-307.613"/>
<polygon fill="midnightblue" stroke="midnightblue" points="805.779,-357.788 796.187,-362.287 806.491,-364.752 805.779,-357.788"/>
</g>
<!-- Node21 -->
<g id="node21" class="node"><title>Node21</title>
<g id="a_node21"><a xlink:href="XBotXDDP_8h.html" target="_top" xlink:title="/home/lucamuratore\l/advr&#45;superbuild/external\l/XCM/include/XCM/XBotXDDP.h">
<polygon fill="none" stroke="black" points="358,-267.5 358,-308.5 521,-308.5 521,-267.5 358,-267.5"/>
<text text-anchor="start" x="366" y="-296.5" font-family="Helvetica,sans-Serif" font-size="10.00">/home/lucamuratore</text>
<text text-anchor="start" x="366" y="-285.5" font-family="Helvetica,sans-Serif" font-size="10.00">/advr&#45;superbuild/external</text>
<text text-anchor="middle" x="439.5" y="-274.5" font-family="Helvetica,sans-Serif" font-size="10.00">/XCM/include/XCM/XBotXDDP.h</text>
</a>
</g>
</g>
<!-- Node9&#45;&gt;Node21 -->
<g id="edge25" class="edge"><title>Node9&#45;&gt;Node21</title>
<path fill="none" stroke="midnightblue" d="M618.805,-342.529C581.298,-331.332 538.994,-318.702 504.9,-308.524"/>
<polygon fill="midnightblue" stroke="midnightblue" points="618.152,-345.987 628.736,-345.493 620.155,-339.279 618.152,-345.987"/>
</g>
<!-- Node23 -->
<g id="node23" class="node"><title>Node23</title>
<g id="a_node23"><a xlink:href="XDomainCommunication_8cpp.html" target="_top" xlink:title="/home/lucamuratore\l/advr&#45;superbuild/external\l/XCM/src/XDomainCommunication.cpp">
<polygon fill="none" stroke="black" points="827,-267.5 827,-308.5 1016,-308.5 1016,-267.5 827,-267.5"/>
<text text-anchor="start" x="835" y="-296.5" font-family="Helvetica,sans-Serif" font-size="10.00">/home/lucamuratore</text>
<text text-anchor="start" x="835" y="-285.5" font-family="Helvetica,sans-Serif" font-size="10.00">/advr&#45;superbuild/external</text>
<text text-anchor="middle" x="921.5" y="-274.5" font-family="Helvetica,sans-Serif" font-size="10.00">/XCM/src/XDomainCommunication.cpp</text>
</a>
</g>
</g>
<!-- Node9&#45;&gt;Node23 -->
<g id="edge28" class="edge"><title>Node9&#45;&gt;Node23</title>
<path fill="none" stroke="midnightblue" d="M786.068,-341.812C814.319,-330.795 845.886,-318.486 871.432,-308.524"/>
<polygon fill="midnightblue" stroke="midnightblue" points="784.672,-338.599 776.627,-345.493 787.216,-345.121 784.672,-338.599"/>
</g>
<!-- Node11 -->
<g id="node11" class="node"><title>Node11</title>
<g id="a_node11"><a xlink:href="XBotCommunicationPlugin_8cpp.html" target="_top" xlink:title="/home/lucamuratore\l/advr&#45;superbuild/external\l/XCM/src/XBotPlugin/XBotCommunication\lPlugin.cpp">
<polygon fill="none" stroke="black" points="430,-0.5 430,-52.5 633,-52.5 633,-0.5 430,-0.5"/>
<text text-anchor="start" x="438" y="-40.5" font-family="Helvetica,sans-Serif" font-size="10.00">/home/lucamuratore</text>
<text text-anchor="start" x="438" y="-29.5" font-family="Helvetica,sans-Serif" font-size="10.00">/advr&#45;superbuild/external</text>
<text text-anchor="start" x="438" y="-18.5" font-family="Helvetica,sans-Serif" font-size="10.00">/XCM/src/XBotPlugin/XBotCommunication</text>
<text text-anchor="middle" x="531.5" y="-7.5" font-family="Helvetica,sans-Serif" font-size="10.00">Plugin.cpp</text>
</a>
</g>
</g>
<!-- Node10&#45;&gt;Node11 -->
<g id="edge11" class="edge"><title>Node10&#45;&gt;Node11</title>
<path fill="none" stroke="midnightblue" d="M537.441,-79.1908C536.418,-70.2824 535.339,-60.8986 534.386,-52.6075"/>
<polygon fill="midnightblue" stroke="midnightblue" points="533.988,-79.8011 538.608,-89.336 540.943,-79.0017 533.988,-79.8011"/>
</g>
<!-- Node12&#45;&gt;Node10 -->
<g id="edge14" class="edge"><title>Node12&#45;&gt;Node10</title>
<path fill="none" stroke="midnightblue" d="M361.05,-175.298C395.864,-163.955 435.559,-151.02 468.839,-140.176"/>
<polygon fill="midnightblue" stroke="midnightblue" points="359.793,-172.027 351.369,-178.453 361.962,-178.682 359.793,-172.027"/>
</g>
<!-- Node13 -->
<g id="node13" class="node"><title>Node13</title>
<g id="a_node13"><a xlink:href="XBotCommunicationHandler_8cpp.html" target="_top" xlink:title="/home/lucamuratore\l/advr&#45;superbuild/external\l/XCM/src/XBotCommunicationHandler.cpp">
<polygon fill="none" stroke="black" points="209.5,-95 209.5,-136 413.5,-136 413.5,-95 209.5,-95"/>
<text text-anchor="start" x="217.5" y="-124" font-family="Helvetica,sans-Serif" font-size="10.00">/home/lucamuratore</text>
<text text-anchor="start" x="217.5" y="-113" font-family="Helvetica,sans-Serif" font-size="10.00">/advr&#45;superbuild/external</text>
<text text-anchor="middle" x="311.5" y="-102" font-family="Helvetica,sans-Serif" font-size="10.00">/XCM/src/XBotCommunicationHandler.cpp</text>
</a>
</g>
</g>
<!-- Node12&#45;&gt;Node13 -->
<g id="edge15" class="edge"><title>Node12&#45;&gt;Node13</title>
<path fill="none" stroke="midnightblue" d="M289.244,-168.832C293.982,-157.691 299.063,-145.744 303.172,-136.082"/>
<polygon fill="midnightblue" stroke="midnightblue" points="285.895,-167.764 285.202,-178.336 292.336,-170.503 285.895,-167.764"/>
</g>
<!-- Node14 -->
<g id="node14" class="node"><title>Node14</title>
<g id="a_node14"><a xlink:href="XBotCommunicationMain_8cpp.html" target="_top" xlink:title="/home/lucamuratore\l/advr&#45;superbuild/external\l/XCM/src/XBotCommunicationMain.cpp">
<polygon fill="none" stroke="black" points="0,-95 0,-136 191,-136 191,-95 0,-95"/>
<text text-anchor="start" x="8" y="-124" font-family="Helvetica,sans-Serif" font-size="10.00">/home/lucamuratore</text>
<text text-anchor="start" x="8" y="-113" font-family="Helvetica,sans-Serif" font-size="10.00">/advr&#45;superbuild/external</text>
<text text-anchor="middle" x="95.5" y="-102" font-family="Helvetica,sans-Serif" font-size="10.00">/XCM/src/XBotCommunicationMain.cpp</text>
</a>
</g>
</g>
<!-- Node12&#45;&gt;Node14 -->
<g id="edge16" class="edge"><title>Node12&#45;&gt;Node14</title>
<path fill="none" stroke="midnightblue" d="M213.453,-173.829C187.807,-161.364 158.682,-147.208 135.79,-136.082"/>
<polygon fill="midnightblue" stroke="midnightblue" points="212.202,-177.112 222.726,-178.336 215.262,-170.817 212.202,-177.112"/>
</g>
<!-- Node15&#45;&gt;Node3 -->
<g id="edge21" class="edge"><title>Node15&#45;&gt;Node3</title>
<path fill="none" stroke="midnightblue" d="M816.063,-265.413C876.264,-252.865 951.525,-237.178 1009.93,-225.003"/>
<polygon fill="midnightblue" stroke="midnightblue" points="815.23,-262.012 806.154,-267.479 816.658,-268.864 815.23,-262.012"/>
</g>
<!-- Node15&#45;&gt;Node10 -->
<g id="edge18" class="edge"><title>Node15&#45;&gt;Node10</title>
<path fill="none" stroke="midnightblue" d="M678.919,-261.002C667.668,-251.862 655.257,-241.297 644.5,-231 614.176,-201.972 582.307,-165.483 562.193,-141.603"/>
<polygon fill="midnightblue" stroke="midnightblue" points="676.877,-263.851 686.866,-267.381 681.258,-258.392 676.877,-263.851"/>
</g>
<!-- Node16 -->
<g id="node16" class="node"><title>Node16</title>
<g id="a_node16"><a xlink:href="XBotLoggingPlugin_8h.html" target="_top" xlink:title="/home/lucamuratore\l/advr&#45;superbuild/external\l/XCM/include/XBotPlugin\l/XBotLoggingPlugin.h">
<polygon fill="none" stroke="black" points="843.5,-178.5 843.5,-230.5 971.5,-230.5 971.5,-178.5 843.5,-178.5"/>
<text text-anchor="start" x="851.5" y="-218.5" font-family="Helvetica,sans-Serif" font-size="10.00">/home/lucamuratore</text>
<text text-anchor="start" x="851.5" y="-207.5" font-family="Helvetica,sans-Serif" font-size="10.00">/advr&#45;superbuild/external</text>
<text text-anchor="start" x="851.5" y="-196.5" font-family="Helvetica,sans-Serif" font-size="10.00">/XCM/include/XBotPlugin</text>
<text text-anchor="middle" x="907.5" y="-185.5" font-family="Helvetica,sans-Serif" font-size="10.00">/XBotLoggingPlugin.h</text>
</a>
</g>
</g>
<!-- Node15&#45;&gt;Node16 -->
<g id="edge19" class="edge"><title>Node15&#45;&gt;Node16</title>
<path fill="none" stroke="midnightblue" d="M768.455,-263.613C793.191,-253.275 822.316,-241.103 847.501,-230.576"/>
<polygon fill="midnightblue" stroke="midnightblue" points="767.084,-260.393 759.207,-267.479 769.784,-266.852 767.084,-260.393"/>
</g>
<!-- Node18 -->
<g id="node18" class="node"><title>Node18</title>
<g id="a_node18"><a xlink:href="XBotControlPlugin_8cpp.html" target="_top" xlink:title="/home/lucamuratore\l/advr&#45;superbuild/external\l/XCM/src/XBotControlPlugin.cpp">
<polygon fill="none" stroke="black" points="654,-184 654,-225 815,-225 815,-184 654,-184"/>
<text text-anchor="start" x="662" y="-213" font-family="Helvetica,sans-Serif" font-size="10.00">/home/lucamuratore</text>
<text text-anchor="start" x="662" y="-202" font-family="Helvetica,sans-Serif" font-size="10.00">/advr&#45;superbuild/external</text>
<text text-anchor="middle" x="734.5" y="-191" font-family="Helvetica,sans-Serif" font-size="10.00">/XCM/src/XBotControlPlugin.cpp</text>
</a>
</g>
</g>
<!-- Node15&#45;&gt;Node18 -->
<g id="edge22" class="edge"><title>Node15&#45;&gt;Node18</title>
<path fill="none" stroke="midnightblue" d="M720.491,-257.398C723.398,-246.627 726.61,-234.73 729.223,-225.047"/>
<polygon fill="midnightblue" stroke="midnightblue" points="717.053,-256.705 717.826,-267.271 723.811,-258.529 717.053,-256.705"/>
</g>
<!-- Node17 -->
<g id="node17" class="node"><title>Node17</title>
<g id="a_node17"><a xlink:href="XBotLoggingPlugin_8cpp.html" target="_top" xlink:title="/home/lucamuratore\l/advr&#45;superbuild/external\l/XCM/src/XBotPlugin/XBotLogging\lPlugin.cpp">
<polygon fill="none" stroke="black" points="836,-89.5 836,-141.5 1005,-141.5 1005,-89.5 836,-89.5"/>
<text text-anchor="start" x="844" y="-129.5" font-family="Helvetica,sans-Serif" font-size="10.00">/home/lucamuratore</text>
<text text-anchor="start" x="844" y="-118.5" font-family="Helvetica,sans-Serif" font-size="10.00">/advr&#45;superbuild/external</text>
<text text-anchor="start" x="844" y="-107.5" font-family="Helvetica,sans-Serif" font-size="10.00">/XCM/src/XBotPlugin/XBotLogging</text>
<text text-anchor="middle" x="920.5" y="-96.5" font-family="Helvetica,sans-Serif" font-size="10.00">Plugin.cpp</text>
</a>
</g>
</g>
<!-- Node16&#45;&gt;Node17 -->
<g id="edge20" class="edge"><title>Node16&#45;&gt;Node17</title>
<path fill="none" stroke="midnightblue" d="M912.776,-168.191C914.107,-159.282 915.509,-149.899 916.748,-141.607"/>
<polygon fill="midnightblue" stroke="midnightblue" points="909.276,-167.929 911.26,-178.336 916.2,-168.963 909.276,-167.929"/>
</g>
<!-- Node20 -->
<g id="node20" class="node"><title>Node20</title>
<g id="a_node20"><a xlink:href="XBotModuleHandler_8cpp.html" target="_top" xlink:title="/home/lucamuratore\l/advr&#45;superbuild/external\l/XCM/src/XBotModuleHandler.cpp">
<polygon fill="none" stroke="black" points="1259,-184 1259,-225 1426,-225 1426,-184 1259,-184"/>
<text text-anchor="start" x="1267" y="-213" font-family="Helvetica,sans-Serif" font-size="10.00">/home/lucamuratore</text>
<text text-anchor="start" x="1267" y="-202" font-family="Helvetica,sans-Serif" font-size="10.00">/advr&#45;superbuild/external</text>
<text text-anchor="middle" x="1342.5" y="-191" font-family="Helvetica,sans-Serif" font-size="10.00">/XCM/src/XBotModuleHandler.cpp</text>
</a>
</g>
</g>
<!-- Node19&#45;&gt;Node20 -->
<g id="edge24" class="edge"><title>Node19&#45;&gt;Node20</title>
<path fill="none" stroke="midnightblue" d="M1342.5,-257.065C1342.5,-246.382 1342.5,-234.63 1342.5,-225.047"/>
<polygon fill="midnightblue" stroke="midnightblue" points="1339,-257.271 1342.5,-267.271 1346,-257.271 1339,-257.271"/>
</g>
<!-- Node21&#45;&gt;Node12 -->
<g id="edge26" class="edge"><title>Node21&#45;&gt;Node12</title>
<path fill="none" stroke="midnightblue" d="M390.765,-262.928C370.139,-252.74 346.11,-240.871 325.268,-230.576"/>
<polygon fill="midnightblue" stroke="midnightblue" points="389.462,-266.188 399.978,-267.479 392.563,-259.912 389.462,-266.188"/>
</g>
<!-- Node22 -->
<g id="node22" class="node"><title>Node22</title>
<g id="a_node22"><a xlink:href="XBotXDDP_8cpp.html" target="_top" xlink:title="/home/lucamuratore\l/advr&#45;superbuild/external\l/XCM/src/XBotXDDP.cpp">
<polygon fill="none" stroke="black" points="390,-184 390,-225 521,-225 521,-184 390,-184"/>
<text text-anchor="start" x="398" y="-213" font-family="Helvetica,sans-Serif" font-size="10.00">/home/lucamuratore</text>
<text text-anchor="start" x="398" y="-202" font-family="Helvetica,sans-Serif" font-size="10.00">/advr&#45;superbuild/external</text>
<text text-anchor="middle" x="455.5" y="-191" font-family="Helvetica,sans-Serif" font-size="10.00">/XCM/src/XBotXDDP.cpp</text>
</a>
</g>
</g>
<!-- Node21&#45;&gt;Node22 -->
<g id="edge27" class="edge"><title>Node21&#45;&gt;Node22</title>
<path fill="none" stroke="midnightblue" d="M445.311,-257.398C447.426,-246.627 449.762,-234.73 451.663,-225.047"/>
<polygon fill="midnightblue" stroke="midnightblue" points="441.865,-256.784 443.373,-267.271 448.734,-258.133 441.865,-256.784"/>
</g>
</g>
</svg>
