<?xml version="1.0" encoding="UTF-8" standalone="no"?>
<!DOCTYPE svg PUBLIC "-//W3C//DTD SVG 1.1//EN"
 "http://www.w3.org/Graphics/SVG/1.1/DTD/svg11.dtd">
<!-- Generated by graphviz version 2.38.0 (20140413.2041)
 -->
<!-- Title: /home/lucamuratore/advr&#45;superbuild/external/XCM/src/XBotYARP/XBotMotionControl/XBotMotionControl.cpp Pages: 1 -->
<svg width="2908pt" height="251pt"
 viewBox="0.00 0.00 2908.00 251.00" xmlns="http://www.w3.org/2000/svg" xmlns:xlink="http://www.w3.org/1999/xlink">
<g id="graph0" class="graph" transform="scale(1 1) rotate(0) translate(4 247)">
<title>/home/lucamuratore/advr&#45;superbuild/external/XCM/src/XBotYARP/XBotMotionControl/XBotMotionControl.cpp</title>
<!-- Node1 -->
<g id="node1" class="node"><title>Node1</title>
<polygon fill="#bfbfbf" stroke="black" points="631.5,-190.5 631.5,-242.5 828.5,-242.5 828.5,-190.5 631.5,-190.5"/>
<text text-anchor="start" x="639.5" y="-230.5" font-family="Helvetica,sans-Serif" font-size="10.00">/home/lucamuratore</text>
<text text-anchor="start" x="639.5" y="-219.5" font-family="Helvetica,sans-Serif" font-size="10.00">/advr&#45;superbuild/external</text>
<text text-anchor="start" x="639.5" y="-208.5" font-family="Helvetica,sans-Serif" font-size="10.00">/XCM/src/XBotYARP/XBotMotionControl</text>
<text text-anchor="middle" x="730" y="-197.5" font-family="Helvetica,sans-Serif" font-size="10.00">/XBotMotionControl.cpp</text>
</g>
<!-- Node2 -->
<g id="node2" class="node"><title>Node2</title>
<g id="a_node2"><a xlink:href="XBotMotionControl_8h.html" target="_top" xlink:title="XCM/XBotYARP/XBotMotionControl.h">
<polygon fill="none" stroke="black" points="555.5,-134.5 555.5,-153.5 740.5,-153.5 740.5,-134.5 555.5,-134.5"/>
<text text-anchor="middle" x="648" y="-141.5" font-family="Helvetica,sans-Serif" font-size="10.00">XCM/XBotYARP/XBotMotionControl.h</text>
</a>
</g>
</g>
<!-- Node1&#45;&gt;Node2 -->
<g id="edge1" class="edge"><title>Node1&#45;&gt;Node2</title>
<path fill="none" stroke="midnightblue" d="M700.859,-190.446C689.207,-180.428 676.156,-169.208 665.938,-160.422"/>
<polygon fill="midnightblue" stroke="midnightblue" points="667.978,-157.561 658.114,-153.695 663.415,-162.869 667.978,-157.561"/>
</g>
<!-- Node7 -->
<g id="node7" class="node"><title>Node7</title>
<polygon fill="none" stroke="#bfbfbf" points="0,-67.5 0,-86.5 86,-86.5 86,-67.5 0,-67.5"/>
<text text-anchor="middle" x="43" y="-74.5" font-family="Helvetica,sans-Serif" font-size="10.00">yarp/os/Bottle.h</text>
</g>
<!-- Node1&#45;&gt;Node7 -->
<g id="edge18" class="edge"><title>Node1&#45;&gt;Node7</title>
<path fill="none" stroke="midnightblue" d="M631.353,-202.994C505.385,-185.719 281.397,-150.606 95,-98 87.5762,-95.9048 79.7313,-93.1741 72.4482,-90.4071"/>
<polygon fill="midnightblue" stroke="midnightblue" points="73.5441,-87.0771 62.9571,-86.6678 70.9781,-93.5898 73.5441,-87.0771"/>
</g>
<!-- Node18 -->
<g id="node18" class="node"><title>Node18</title>
<polygon fill="none" stroke="#bfbfbf" points="758.5,-134.5 758.5,-153.5 865.5,-153.5 865.5,-134.5 758.5,-134.5"/>
<text text-anchor="middle" x="812" y="-141.5" font-family="Helvetica,sans-Serif" font-size="10.00">yarp/os/LogStream.h</text>
</g>
<!-- Node1&#45;&gt;Node18 -->
<g id="edge17" class="edge"><title>Node1&#45;&gt;Node18</title>
<path fill="none" stroke="midnightblue" d="M759.141,-190.446C770.793,-180.428 783.844,-169.208 794.062,-160.422"/>
<polygon fill="midnightblue" stroke="midnightblue" points="796.585,-162.869 801.886,-153.695 792.022,-157.561 796.585,-162.869"/>
</g>
<!-- Node19 -->
<g id="node19" class="node"><title>Node19</title>
<g id="a_node19"><a xlink:href="XBotUtils_8h.html" target="_top" xlink:title="XCM/XBotUtils.h">
<polygon fill="none" stroke="black" points="1989,-134.5 1989,-153.5 2081,-153.5 2081,-134.5 1989,-134.5"/>
<text text-anchor="middle" x="2035" y="-141.5" font-family="Helvetica,sans-Serif" font-size="10.00">XCM/XBotUtils.h</text>
</a>
</g>
</g>
<!-- Node1&#45;&gt;Node19 -->
<g id="edge19" class="edge"><title>Node1&#45;&gt;Node19</title>
<path fill="none" stroke="midnightblue" d="M828.622,-210.172C1086.88,-196.22 1776.92,-158.942 1978.79,-148.037"/>
<polygon fill="midnightblue" stroke="midnightblue" points="1979.08,-151.526 1988.87,-147.492 1978.7,-144.537 1979.08,-151.526"/>
</g>
<!-- Node3 -->
<g id="node3" class="node"><title>Node3</title>
<polygon fill="none" stroke="#bfbfbf" points="104,-67.5 104,-86.5 156,-86.5 156,-67.5 104,-67.5"/>
<text text-anchor="middle" x="130" y="-74.5" font-family="Helvetica,sans-Serif" font-size="10.00">memory</text>
</g>
<!-- Node2&#45;&gt;Node3 -->
<g id="edge2" class="edge"><title>Node2&#45;&gt;Node3</title>
<path fill="none" stroke="midnightblue" d="M555.406,-139.041C436.029,-133.132 235.417,-120.248 165,-98 160.166,-96.4727 155.265,-94.2084 150.723,-91.7465"/>
<polygon fill="midnightblue" stroke="midnightblue" points="152.423,-88.6855 142.038,-86.5883 148.848,-94.704 152.423,-88.6855"/>
</g>
<!-- Node4 -->
<g id="node4" class="node"><title>Node4</title>
<polygon fill="none" stroke="#bfbfbf" points="174.5,-67.5 174.5,-86.5 209.5,-86.5 209.5,-67.5 174.5,-67.5"/>
<text text-anchor="middle" x="192" y="-74.5" font-family="Helvetica,sans-Serif" font-size="10.00">map</text>
</g>
<!-- Node2&#45;&gt;Node4 -->
<g id="edge3" class="edge"><title>Node2&#45;&gt;Node4</title>
<path fill="none" stroke="midnightblue" d="M555.37,-138.991C448.038,-133.351 278.323,-121.08 219,-98 215.738,-96.731 212.522,-94.9582 209.51,-92.9874"/>
<polygon fill="midnightblue" stroke="midnightblue" points="211.341,-89.986 201.24,-86.7873 207.142,-95.5866 211.341,-89.986"/>
</g>
<!-- Node5 -->
<g id="node5" class="node"><title>Node5</title>
<polygon fill="none" stroke="#bfbfbf" points="1511.5,-67.5 1511.5,-86.5 1560.5,-86.5 1560.5,-67.5 1511.5,-67.5"/>
<text text-anchor="middle" x="1536" y="-74.5" font-family="Helvetica,sans-Serif" font-size="10.00">stdint.h</text>
</g>
<!-- Node2&#45;&gt;Node5 -->
<g id="edge4" class="edge"><title>Node2&#45;&gt;Node5</title>
<path fill="none" stroke="midnightblue" d="M740.553,-134.67C743.74,-134.435 746.896,-134.211 750,-134 917.139,-122.636 1342.78,-146.917 1503,-98 1507.59,-96.5977 1512.2,-94.4124 1516.46,-91.9926"/>
<polygon fill="midnightblue" stroke="midnightblue" points="1518.49,-94.8455 1525.06,-86.5339 1514.74,-88.9341 1518.49,-94.8455"/>
</g>
<!-- Node6 -->
<g id="node6" class="node"><title>Node6</title>
<polygon fill="none" stroke="#bfbfbf" points="228,-67.5 228,-86.5 272,-86.5 272,-67.5 228,-67.5"/>
<text text-anchor="middle" x="250" y="-74.5" font-family="Helvetica,sans-Serif" font-size="10.00">vector</text>
</g>
<!-- Node2&#45;&gt;Node6 -->
<g id="edge5" class="edge"><title>Node2&#45;&gt;Node6</title>
<path fill="none" stroke="midnightblue" d="M555.236,-143.018C479.398,-140.371 370.477,-130.407 281,-98 276.982,-96.5448 272.953,-94.4897 269.191,-92.2461"/>
<polygon fill="midnightblue" stroke="midnightblue" points="270.819,-89.1256 260.55,-86.5155 266.95,-94.9593 270.819,-89.1256"/>
</g>
<!-- Node2&#45;&gt;Node7 -->
<g id="edge6" class="edge"><title>Node2&#45;&gt;Node7</title>
<path fill="none" stroke="midnightblue" d="M555.289,-143.485C444.44,-142.233 253.949,-134.243 95,-98 86.9104,-96.1554 78.4036,-93.3014 70.6675,-90.3216"/>
<polygon fill="midnightblue" stroke="midnightblue" points="71.9521,-87.0657 61.37,-86.5463 69.3185,-93.5514 71.9521,-87.0657"/>
</g>
<!-- Node8 -->
<g id="node8" class="node"><title>Node8</title>
<polygon fill="none" stroke="#bfbfbf" points="290,-67.5 290,-86.5 372,-86.5 372,-67.5 290,-67.5"/>
<text text-anchor="middle" x="331" y="-74.5" font-family="Helvetica,sans-Serif" font-size="10.00">yarp/os/Time.h</text>
</g>
<!-- Node2&#45;&gt;Node8 -->
<g id="edge7" class="edge"><title>Node2&#45;&gt;Node8</title>
<path fill="none" stroke="midnightblue" d="M571.377,-134.5C517.481,-127.455 444.021,-115.696 381,-98 373.864,-95.9962 366.352,-93.3154 359.382,-90.569"/>
<polygon fill="midnightblue" stroke="midnightblue" points="360.244,-87.1389 349.664,-86.5696 357.58,-93.6122 360.244,-87.1389"/>
</g>
<!-- Node9 -->
<g id="node9" class="node"><title>Node9</title>
<polygon fill="none" stroke="#bfbfbf" points="390,-67.5 390,-86.5 512,-86.5 512,-67.5 390,-67.5"/>
<text text-anchor="middle" x="451" y="-74.5" font-family="Helvetica,sans-Serif" font-size="10.00">yarp/dev/DeviceDriver.h</text>
</g>
<!-- Node2&#45;&gt;Node9 -->
<g id="edge8" class="edge"><title>Node2&#45;&gt;Node9</title>
<path fill="none" stroke="midnightblue" d="M621.84,-134.369C587.156,-122.924 525.801,-102.681 486.831,-89.8223"/>
<polygon fill="midnightblue" stroke="midnightblue" points="487.548,-86.3733 476.955,-86.5637 485.354,-93.0208 487.548,-86.3733"/>
</g>
<!-- Node10 -->
<g id="node10" class="node"><title>Node10</title>
<polygon fill="none" stroke="#bfbfbf" points="530.5,-67.5 530.5,-86.5 641.5,-86.5 641.5,-67.5 530.5,-67.5"/>
<text text-anchor="middle" x="586" y="-74.5" font-family="Helvetica,sans-Serif" font-size="10.00">yarp/dev/PolyDriver.h</text>
</g>
<!-- Node2&#45;&gt;Node10 -->
<g id="edge9" class="edge"><title>Node2&#45;&gt;Node10</title>
<path fill="none" stroke="midnightblue" d="M639.638,-134.234C629.877,-124 613.532,-106.864 601.445,-94.1924"/>
<polygon fill="midnightblue" stroke="midnightblue" points="603.664,-91.4477 594.229,-86.6273 598.599,-96.2792 603.664,-91.4477"/>
</g>
<!-- Node11 -->
<g id="node11" class="node"><title>Node11</title>
<polygon fill="none" stroke="#bfbfbf" points="659,-67.5 659,-86.5 761,-86.5 761,-67.5 659,-67.5"/>
<text text-anchor="middle" x="710" y="-74.5" font-family="Helvetica,sans-Serif" font-size="10.00">yarp/dev/Wrapper.h</text>
</g>
<!-- Node2&#45;&gt;Node11 -->
<g id="edge10" class="edge"><title>Node2&#45;&gt;Node11</title>
<path fill="none" stroke="midnightblue" d="M656.362,-134.234C666.123,-124 682.468,-106.864 694.555,-94.1924"/>
<polygon fill="midnightblue" stroke="midnightblue" points="697.401,-96.2792 701.771,-86.6273 692.336,-91.4477 697.401,-96.2792"/>
</g>
<!-- Node12 -->
<g id="node12" class="node"><title>Node12</title>
<polygon fill="none" stroke="#bfbfbf" points="779,-67.5 779,-86.5 889,-86.5 889,-67.5 779,-67.5"/>
<text text-anchor="middle" x="834" y="-74.5" font-family="Helvetica,sans-Serif" font-size="10.00">yarp/os/Semaphore.h</text>
</g>
<!-- Node2&#45;&gt;Node12 -->
<g id="edge11" class="edge"><title>Node2&#45;&gt;Node12</title>
<path fill="none" stroke="midnightblue" d="M672.699,-134.369C705.308,-122.973 762.883,-102.853 799.699,-89.9869"/>
<polygon fill="midnightblue" stroke="midnightblue" points="801.209,-93.1668 809.495,-86.5637 798.9,-86.5587 801.209,-93.1668"/>
</g>
<!-- Node13 -->
<g id="node13" class="node"><title>Node13</title>
<polygon fill="none" stroke="#bfbfbf" points="907.5,-67.5 907.5,-86.5 1018.5,-86.5 1018.5,-67.5 907.5,-67.5"/>
<text text-anchor="middle" x="963" y="-74.5" font-family="Helvetica,sans-Serif" font-size="10.00">yarp/os/RateThread.h</text>
</g>
<!-- Node2&#45;&gt;Node13 -->
<g id="edge12" class="edge"><title>Node2&#45;&gt;Node13</title>
<path fill="none" stroke="midnightblue" d="M706.76,-134.471C757.689,-126.593 833.183,-113.745 898,-98 907.878,-95.6006 918.463,-92.553 928.163,-89.5647"/>
<polygon fill="midnightblue" stroke="midnightblue" points="929.398,-92.8452 937.884,-86.5015 927.294,-86.1688 929.398,-92.8452"/>
</g>
<!-- Node14 -->
<g id="node14" class="node"><title>Node14</title>
<polygon fill="none" stroke="#bfbfbf" points="1036,-62 1036,-92 1194,-92 1194,-62 1036,-62"/>
<text text-anchor="start" x="1044" y="-80" font-family="Helvetica,sans-Serif" font-size="10.00">yarp/dev/ControlBoardInterfaces</text>
<text text-anchor="middle" x="1115" y="-69" font-family="Helvetica,sans-Serif" font-size="10.00">Impl.h</text>
</g>
<!-- Node2&#45;&gt;Node14 -->
<g id="edge13" class="edge"><title>Node2&#45;&gt;Node14</title>
<path fill="none" stroke="midnightblue" d="M740.549,-134.862C817.745,-127.4 930.474,-114.933 1028,-98 1034.57,-96.86 1041.38,-95.5386 1048.18,-94.1291"/>
<polygon fill="midnightblue" stroke="midnightblue" points="1049.04,-97.5241 1058.08,-92.0116 1047.57,-90.6786 1049.04,-97.5241"/>
</g>
<!-- Node15 -->
<g id="node15" class="node"><title>Node15</title>
<polygon fill="none" stroke="#bfbfbf" points="1212,-62 1212,-92 1370,-92 1370,-62 1212,-62"/>
<text text-anchor="start" x="1220" y="-80" font-family="Helvetica,sans-Serif" font-size="10.00">yarp/dev/ControlBoardInterfaces</text>
<text text-anchor="middle" x="1291" y="-69" font-family="Helvetica,sans-Serif" font-size="10.00">Impl.inl</text>
</g>
<!-- Node2&#45;&gt;Node15 -->
<g id="edge14" class="edge"><title>Node2&#45;&gt;Node15</title>
<path fill="none" stroke="midnightblue" d="M740.563,-134.797C743.747,-134.526 746.9,-134.26 750,-134 951.262,-117.124 1003.34,-128.459 1203,-98 1210.13,-96.9116 1217.55,-95.5674 1224.92,-94.0946"/>
<polygon fill="midnightblue" stroke="midnightblue" points="1225.82,-97.4818 1234.9,-92.0186 1224.39,-90.6284 1225.82,-97.4818"/>
</g>
<!-- Node16 -->
<g id="node16" class="node"><title>Node16</title>
<g id="a_node16"><a xlink:href="IXBotInit_8h.html" target="_top" xlink:title="XBotCore&#45;interfaces\l/IXBotInit.h">
<polygon fill="none" stroke="black" points="1388.5,-62 1388.5,-92 1493.5,-92 1493.5,-62 1388.5,-62"/>
<text text-anchor="start" x="1396.5" y="-80" font-family="Helvetica,sans-Serif" font-size="10.00">XBotCore&#45;interfaces</text>
<text text-anchor="middle" x="1441" y="-69" font-family="Helvetica,sans-Serif" font-size="10.00">/IXBotInit.h</text>
</a>
</g>
</g>
<!-- Node2&#45;&gt;Node16 -->
<g id="edge15" class="edge"><title>Node2&#45;&gt;Node16</title>
<path fill="none" stroke="midnightblue" d="M740.556,-134.708C743.742,-134.462 746.897,-134.226 750,-134 1029.28,-113.692 1103.74,-149.399 1379,-98 1383.5,-97.1598 1388.13,-96.0855 1392.73,-94.872"/>
<polygon fill="midnightblue" stroke="midnightblue" points="1394.04,-98.1372 1402.7,-92.0302 1392.12,-91.4053 1394.04,-98.1372"/>
</g>
<!-- Node17 -->
<g id="node17" class="node"><title>Node17</title>
<polygon fill="none" stroke="#bfbfbf" points="1367,-0.5 1367,-19.5 1515,-19.5 1515,-0.5 1367,-0.5"/>
<text text-anchor="middle" x="1441" y="-7.5" font-family="Helvetica,sans-Serif" font-size="10.00">XBotInterface/XBotInterface.h</text>
</g>
<!-- Node16&#45;&gt;Node17 -->
<g id="edge16" class="edge"><title>Node16&#45;&gt;Node17</title>
<path fill="none" stroke="midnightblue" d="M1441,-61.896C1441,-52.5638 1441,-40.2143 1441,-30.0173"/>
<polygon fill="midnightblue" stroke="midnightblue" points="1444.5,-29.6945 1441,-19.6945 1437.5,-29.6946 1444.5,-29.6945"/>
</g>
<!-- Node19&#45;&gt;Node5 -->
<g id="edge20" class="edge"><title>Node19&#45;&gt;Node5</title>
<path fill="none" stroke="midnightblue" d="M1988.67,-141.062C1886.96,-136.396 1647.04,-123.027 1570,-98 1565.41,-96.5077 1560.76,-94.3195 1556.45,-91.9322"/>
<polygon fill="midnightblue" stroke="midnightblue" points="1558.02,-88.7952 1547.66,-86.5809 1554.38,-94.773 1558.02,-88.7952"/>
</g>
<!-- Node20 -->
<g id="node20" class="node"><title>Node20</title>
<polygon fill="none" stroke="#bfbfbf" points="1579,-67.5 1579,-86.5 1625,-86.5 1625,-67.5 1579,-67.5"/>
<text text-anchor="middle" x="1602" y="-74.5" font-family="Helvetica,sans-Serif" font-size="10.00">stdio.h</text>
</g>
<!-- Node19&#45;&gt;Node20 -->
<g id="edge21" class="edge"><title>Node19&#45;&gt;Node20</title>
<path fill="none" stroke="midnightblue" d="M1988.88,-140.401C1897.92,-134.854 1698.59,-120.496 1634,-98 1629.75,-96.5211 1625.49,-94.398 1621.51,-92.0822"/>
<polygon fill="midnightblue" stroke="midnightblue" points="1623.22,-89.0204 1612.92,-86.5416 1619.43,-94.903 1623.22,-89.0204"/>
</g>
<!-- Node21 -->
<g id="node21" class="node"><title>Node21</title>
<polygon fill="none" stroke="#bfbfbf" points="1643,-67.5 1643,-86.5 1693,-86.5 1693,-67.5 1643,-67.5"/>
<text text-anchor="middle" x="1668" y="-74.5" font-family="Helvetica,sans-Serif" font-size="10.00">fstream</text>
</g>
<!-- Node19&#45;&gt;Node21 -->
<g id="edge22" class="edge"><title>Node19&#45;&gt;Node21</title>
<path fill="none" stroke="midnightblue" d="M1988.98,-142.484C1923.48,-140.489 1800.41,-132.041 1702,-98 1697.51,-96.4469 1692.96,-94.2668 1688.7,-91.9135"/>
<polygon fill="midnightblue" stroke="midnightblue" points="1690.38,-88.8397 1680.02,-86.6617 1686.76,-94.8302 1690.38,-88.8397"/>
</g>
<!-- Node22 -->
<g id="node22" class="node"><title>Node22</title>
<polygon fill="none" stroke="#bfbfbf" points="1711,-67.5 1711,-86.5 1763,-86.5 1763,-67.5 1711,-67.5"/>
<text text-anchor="middle" x="1737" y="-74.5" font-family="Helvetica,sans-Serif" font-size="10.00">sstream</text>
</g>
<!-- Node19&#45;&gt;Node22 -->
<g id="edge23" class="edge"><title>Node19&#45;&gt;Node22</title>
<path fill="none" stroke="midnightblue" d="M1988.62,-139.975C1935.09,-135.373 1845.04,-124.19 1772,-98 1767.43,-96.3612 1762.77,-94.1418 1758.4,-91.7769"/>
<polygon fill="midnightblue" stroke="midnightblue" points="1759.84,-88.5688 1749.45,-86.5362 1756.31,-94.6094 1759.84,-88.5688"/>
</g>
<!-- Node23 -->
<g id="node23" class="node"><title>Node23</title>
<polygon fill="none" stroke="#bfbfbf" points="1781,-67.5 1781,-86.5 1905,-86.5 1905,-67.5 1781,-67.5"/>
<text text-anchor="middle" x="1843" y="-74.5" font-family="Helvetica,sans-Serif" font-size="10.00">boost/circular_buffer.hpp</text>
</g>
<!-- Node19&#45;&gt;Node23 -->
<g id="edge24" class="edge"><title>Node19&#45;&gt;Node23</title>
<path fill="none" stroke="midnightblue" d="M2009.5,-134.369C1975.7,-122.924 1915.9,-102.681 1877.92,-89.8223"/>
<polygon fill="midnightblue" stroke="midnightblue" points="1878.89,-86.4552 1868.3,-86.5637 1876.65,-93.0856 1878.89,-86.4552"/>
</g>
<!-- Node24 -->
<g id="node24" class="node"><title>Node24</title>
<polygon fill="none" stroke="#bfbfbf" points="1923,-62 1923,-92 2025,-92 2025,-62 1923,-62"/>
<text text-anchor="start" x="1931" y="-80" font-family="Helvetica,sans-Serif" font-size="10.00">boost/accumulators</text>
<text text-anchor="middle" x="1974" y="-69" font-family="Helvetica,sans-Serif" font-size="10.00">/accumulators.hpp</text>
</g>
<!-- Node19&#45;&gt;Node24 -->
<g id="edge25" class="edge"><title>Node19&#45;&gt;Node24</title>
<path fill="none" stroke="midnightblue" d="M2026.77,-134.234C2018.45,-125.365 2005.26,-111.311 1994.15,-99.4722"/>
<polygon fill="midnightblue" stroke="midnightblue" points="1996.62,-96.9858 1987.22,-92.089 1991.51,-101.776 1996.62,-96.9858"/>
</g>
<!-- Node25 -->
<g id="node25" class="node"><title>Node25</title>
<polygon fill="none" stroke="#bfbfbf" points="2043.5,-62 2043.5,-92 2148.5,-92 2148.5,-62 2043.5,-62"/>
<text text-anchor="start" x="2051.5" y="-80" font-family="Helvetica,sans-Serif" font-size="10.00">boost/accumulators</text>
<text text-anchor="middle" x="2096" y="-69" font-family="Helvetica,sans-Serif" font-size="10.00">/statistics/count.hpp</text>
</g>
<!-- Node19&#45;&gt;Node25 -->
<g id="edge26" class="edge"><title>Node19&#45;&gt;Node25</title>
<path fill="none" stroke="midnightblue" d="M2043.23,-134.234C2051.55,-125.365 2064.74,-111.311 2075.85,-99.4722"/>
<polygon fill="midnightblue" stroke="midnightblue" points="2078.49,-101.776 2082.78,-92.089 2073.38,-96.9858 2078.49,-101.776"/>
</g>
<!-- Node26 -->
<g id="node26" class="node"><title>Node26</title>
<polygon fill="none" stroke="#bfbfbf" points="2166.5,-62 2166.5,-92 2271.5,-92 2271.5,-62 2166.5,-62"/>
<text text-anchor="start" x="2174.5" y="-80" font-family="Helvetica,sans-Serif" font-size="10.00">boost/accumulators</text>
<text text-anchor="middle" x="2219" y="-69" font-family="Helvetica,sans-Serif" font-size="10.00">/statistics/mean.hpp</text>
</g>
<!-- Node19&#45;&gt;Node26 -->
<g id="edge27" class="edge"><title>Node19&#45;&gt;Node26</title>
<path fill="none" stroke="midnightblue" d="M2059.43,-134.369C2087.4,-124.488 2133.94,-108.049 2169.56,-95.4662"/>
<polygon fill="midnightblue" stroke="midnightblue" points="2171.03,-98.6592 2179.29,-92.0281 2168.69,-92.0589 2171.03,-98.6592"/>
</g>
<!-- Node27 -->
<g id="node27" class="node"><title>Node27</title>
<polygon fill="none" stroke="#bfbfbf" points="2290,-62 2290,-92 2392,-92 2392,-62 2290,-62"/>
<text text-anchor="start" x="2298" y="-80" font-family="Helvetica,sans-Serif" font-size="10.00">boost/accumulators</text>
<text text-anchor="middle" x="2341" y="-69" font-family="Helvetica,sans-Serif" font-size="10.00">/statistics/min.hpp</text>
</g>
<!-- Node19&#45;&gt;Node27 -->
<g id="edge28" class="edge"><title>Node19&#45;&gt;Node27</title>
<path fill="none" stroke="midnightblue" d="M2081.21,-136.535C2130.97,-129.114 2212.24,-115.654 2281,-98 2284.56,-97.086 2288.21,-96.0692 2291.88,-94.9921"/>
<polygon fill="midnightblue" stroke="midnightblue" points="2293,-98.3077 2301.54,-92.029 2290.95,-91.6154 2293,-98.3077"/>
</g>
<!-- Node28 -->
<g id="node28" class="node"><title>Node28</title>
<polygon fill="none" stroke="#bfbfbf" points="2410,-62 2410,-92 2512,-92 2512,-62 2410,-62"/>
<text text-anchor="start" x="2418" y="-80" font-family="Helvetica,sans-Serif" font-size="10.00">boost/accumulators</text>
<text text-anchor="middle" x="2461" y="-69" font-family="Helvetica,sans-Serif" font-size="10.00">/statistics/max.hpp</text>
</g>
<!-- Node19&#45;&gt;Node28 -->
<g id="edge29" class="edge"><title>Node19&#45;&gt;Node28</title>
<path fill="none" stroke="midnightblue" d="M2081.15,-140.286C2151.06,-135.513 2287.66,-123.589 2401,-98 2404.87,-97.1272 2408.83,-96.103 2412.8,-94.9873"/>
<polygon fill="midnightblue" stroke="midnightblue" points="2414.01,-98.2782 2422.59,-92.0601 2412.01,-91.5716 2414.01,-98.2782"/>
</g>
<!-- Node29 -->
<g id="node29" class="node"><title>Node29</title>
<polygon fill="none" stroke="#bfbfbf" points="2530,-62 2530,-92 2648,-92 2648,-62 2530,-62"/>
<text text-anchor="start" x="2538" y="-80" font-family="Helvetica,sans-Serif" font-size="10.00">boost/accumulators</text>
<text text-anchor="middle" x="2589" y="-69" font-family="Helvetica,sans-Serif" font-size="10.00">/statistics/variance.hpp</text>
</g>
<!-- Node19&#45;&gt;Node29 -->
<g id="edge30" class="edge"><title>Node19&#45;&gt;Node29</title>
<path fill="none" stroke="midnightblue" d="M2081.32,-141.693C2168.23,-138.585 2361.42,-128.557 2521,-98 2525.93,-97.0551 2531.02,-95.903 2536.1,-94.6336"/>
<polygon fill="midnightblue" stroke="midnightblue" points="2537,-98.0136 2545.78,-92.0719 2535.21,-91.2465 2537,-98.0136"/>
</g>
<!-- Node30 -->
<g id="node30" class="node"><title>Node30</title>
<polygon fill="none" stroke="#bfbfbf" points="2666,-62 2666,-92 2780,-92 2780,-62 2666,-62"/>
<text text-anchor="start" x="2674" y="-80" font-family="Helvetica,sans-Serif" font-size="10.00">boost/accumulators</text>
<text text-anchor="middle" x="2723" y="-69" font-family="Helvetica,sans-Serif" font-size="10.00">/statistics/error_of.hpp</text>
</g>
<!-- Node19&#45;&gt;Node30 -->
<g id="edge31" class="edge"><title>Node19&#45;&gt;Node30</title>
<path fill="none" stroke="midnightblue" d="M2081.09,-143.144C2184.86,-142.714 2444.35,-137.405 2657,-98 2661.95,-97.0827 2667.05,-95.9273 2672.13,-94.6366"/>
<polygon fill="midnightblue" stroke="midnightblue" points="2673.07,-98.0089 2681.8,-92.0149 2671.24,-91.2526 2673.07,-98.0089"/>
</g>
<!-- Node31 -->
<g id="node31" class="node"><title>Node31</title>
<polygon fill="none" stroke="#bfbfbf" points="2798,-56.5 2798,-97.5 2900,-97.5 2900,-56.5 2798,-56.5"/>
<text text-anchor="start" x="2806" y="-85.5" font-family="Helvetica,sans-Serif" font-size="10.00">boost/accumulators</text>
<text text-anchor="start" x="2806" y="-74.5" font-family="Helvetica,sans-Serif" font-size="10.00">/statistics/error_of</text>
<text text-anchor="middle" x="2849" y="-63.5" font-family="Helvetica,sans-Serif" font-size="10.00">_mean.hpp</text>
</g>
<!-- Node19&#45;&gt;Node31 -->
<g id="edge32" class="edge"><title>Node19&#45;&gt;Node31</title>
<path fill="none" stroke="midnightblue" d="M2081.06,-141.831C2219.79,-138.067 2633.06,-125.012 2787.61,-97.9204"/>
<polygon fill="midnightblue" stroke="midnightblue" points="2788.65,-101.288 2797.85,-96.0307 2787.38,-94.4042 2788.65,-101.288"/>
</g>
</g>
</svg>
