<?xml version="1.0" encoding="UTF-8" standalone="no"?>
<!DOCTYPE svg PUBLIC "-//W3C//DTD SVG 1.1//EN"
 "http://www.w3.org/Graphics/SVG/1.1/DTD/svg11.dtd">
<!-- Generated by graphviz version 2.38.0 (20140413.2041)
 -->
<!-- Title: /home/lucamuratore/advr&#45;superbuild/external/XCM/src/XBotRT_thread.cpp Pages: 1 -->
<svg width="1625pt" height="240pt"
 viewBox="0.00 0.00 1625.00 240.00" xmlns="http://www.w3.org/2000/svg" xmlns:xlink="http://www.w3.org/1999/xlink">
<g id="graph0" class="graph" transform="scale(1 1) rotate(0) translate(4 236)">
<title>/home/lucamuratore/advr&#45;superbuild/external/XCM/src/XBotRT_thread.cpp</title>
<!-- Node1 -->
<g id="node1" class="node"><title>Node1</title>
<polygon fill="#bfbfbf" stroke="black" points="0,-190.5 0,-231.5 148,-231.5 148,-190.5 0,-190.5"/>
<text text-anchor="start" x="8" y="-219.5" font-family="Helvetica,sans-Serif" font-size="10.00">/home/lucamuratore</text>
<text text-anchor="start" x="8" y="-208.5" font-family="Helvetica,sans-Serif" font-size="10.00">/advr&#45;superbuild/external</text>
<text text-anchor="middle" x="74" y="-197.5" font-family="Helvetica,sans-Serif" font-size="10.00">/XCM/src/XBotRT_thread.cpp</text>
</g>
<!-- Node2 -->
<g id="node2" class="node"><title>Node2</title>
<polygon fill="none" stroke="#bfbfbf" points="144,-11.5 144,-30.5 190,-30.5 190,-11.5 144,-11.5"/>
<text text-anchor="middle" x="167" y="-18.5" font-family="Helvetica,sans-Serif" font-size="10.00">stdio.h</text>
</g>
<!-- Node1&#45;&gt;Node2 -->
<g id="edge1" class="edge"><title>Node1&#45;&gt;Node2</title>
<path fill="none" stroke="midnightblue" d="M60.0028,-190.063C42.7138,-162.739 18.2167,-113.058 41,-78 61.4199,-46.5787 103.981,-32.6455 133.97,-26.5618"/>
<polygon fill="midnightblue" stroke="midnightblue" points="134.792,-29.9695 143.996,-24.7215 133.528,-23.0845 134.792,-29.9695"/>
</g>
<!-- Node3 -->
<g id="node3" class="node"><title>Node3</title>
<polygon fill="none" stroke="#bfbfbf" points="50,-78.5 50,-97.5 98,-97.5 98,-78.5 50,-78.5"/>
<text text-anchor="middle" x="74" y="-85.5" font-family="Helvetica,sans-Serif" font-size="10.00">stdlib.h</text>
</g>
<!-- Node1&#45;&gt;Node3 -->
<g id="edge2" class="edge"><title>Node1&#45;&gt;Node3</title>
<path fill="none" stroke="midnightblue" d="M74,-190.29C74,-167.48 74,-130.189 74,-107.781"/>
<polygon fill="midnightblue" stroke="midnightblue" points="77.5001,-107.575 74,-97.5748 70.5001,-107.575 77.5001,-107.575"/>
</g>
<!-- Node4 -->
<g id="node4" class="node"><title>Node4</title>
<g id="a_node4"><a xlink:href="XBotThread_8h.html" target="_top" xlink:title="XCM/XBotThread.h">
<polygon fill="none" stroke="black" points="383,-134.5 383,-153.5 485,-153.5 485,-134.5 383,-134.5"/>
<text text-anchor="middle" x="434" y="-141.5" font-family="Helvetica,sans-Serif" font-size="10.00">XCM/XBotThread.h</text>
</a>
</g>
</g>
<!-- Node1&#45;&gt;Node4 -->
<g id="edge3" class="edge"><title>Node1&#45;&gt;Node4</title>
<path fill="none" stroke="midnightblue" d="M148.156,-196.611C216.007,-184.36 314.98,-166.49 376.872,-155.315"/>
<polygon fill="midnightblue" stroke="midnightblue" points="377.634,-158.734 386.853,-153.513 376.39,-151.845 377.634,-158.734"/>
</g>
<!-- Node4&#45;&gt;Node3 -->
<g id="edge7" class="edge"><title>Node4&#45;&gt;Node3</title>
<path fill="none" stroke="midnightblue" d="M382.958,-138.046C320.341,-131.51 210.826,-118.596 107.993,-97.9699"/>
<polygon fill="midnightblue" stroke="midnightblue" points="108.561,-94.5139 98.064,-95.9497 107.165,-101.373 108.561,-94.5139"/>
</g>
<!-- Node5 -->
<g id="node5" class="node"><title>Node5</title>
<polygon fill="none" stroke="#bfbfbf" points="116.5,-78.5 116.5,-97.5 173.5,-97.5 173.5,-78.5 116.5,-78.5"/>
<text text-anchor="middle" x="145" y="-85.5" font-family="Helvetica,sans-Serif" font-size="10.00">pthread.h</text>
</g>
<!-- Node4&#45;&gt;Node5 -->
<g id="edge4" class="edge"><title>Node4&#45;&gt;Node5</title>
<path fill="none" stroke="midnightblue" d="M382.884,-134.685C334.236,-126.581 258.75,-113.511 183.7,-98.0482"/>
<polygon fill="midnightblue" stroke="midnightblue" points="184.099,-94.5565 173.596,-95.9512 182.676,-101.41 184.099,-94.5565"/>
</g>
<!-- Node6 -->
<g id="node6" class="node"><title>Node6</title>
<polygon fill="none" stroke="#bfbfbf" points="192,-78.5 192,-97.5 266,-97.5 266,-78.5 192,-78.5"/>
<text text-anchor="middle" x="229" y="-85.5" font-family="Helvetica,sans-Serif" font-size="10.00">linux/sched.h</text>
</g>
<!-- Node4&#45;&gt;Node6 -->
<g id="edge5" class="edge"><title>Node4&#45;&gt;Node6</title>
<path fill="none" stroke="midnightblue" d="M401.517,-134.444C366.28,-125.162 309.896,-110.309 271.241,-100.127"/>
<polygon fill="midnightblue" stroke="midnightblue" points="271.893,-96.6792 261.331,-97.5164 270.109,-103.448 271.893,-96.6792"/>
</g>
<!-- Node7 -->
<g id="node7" class="node"><title>Node7</title>
<polygon fill="none" stroke="#bfbfbf" points="284.5,-78.5 284.5,-97.5 335.5,-97.5 335.5,-78.5 284.5,-78.5"/>
<text text-anchor="middle" x="310" y="-85.5" font-family="Helvetica,sans-Serif" font-size="10.00">unistd.h</text>
</g>
<!-- Node4&#45;&gt;Node7 -->
<g id="edge6" class="edge"><title>Node4&#45;&gt;Node7</title>
<path fill="none" stroke="midnightblue" d="M414.352,-134.444C394.035,-125.596 362.097,-111.687 338.902,-101.586"/>
<polygon fill="midnightblue" stroke="midnightblue" points="340.122,-98.3002 329.556,-97.5164 337.327,-104.718 340.122,-98.3002"/>
</g>
<!-- Node8 -->
<g id="node8" class="node"><title>Node8</title>
<polygon fill="none" stroke="#bfbfbf" points="354,-78.5 354,-97.5 422,-97.5 422,-78.5 354,-78.5"/>
<text text-anchor="middle" x="388" y="-85.5" font-family="Helvetica,sans-Serif" font-size="10.00">sys/types.h</text>
</g>
<!-- Node4&#45;&gt;Node8 -->
<g id="edge8" class="edge"><title>Node4&#45;&gt;Node8</title>
<path fill="none" stroke="midnightblue" d="M426.404,-134.083C419.773,-126.298 409.979,-114.801 401.942,-105.367"/>
<polygon fill="midnightblue" stroke="midnightblue" points="404.604,-103.094 395.455,-97.7511 399.275,-107.633 404.604,-103.094"/>
</g>
<!-- Node9 -->
<g id="node9" class="node"><title>Node9</title>
<polygon fill="none" stroke="#bfbfbf" points="440,-78.5 440,-97.5 522,-97.5 522,-78.5 440,-78.5"/>
<text text-anchor="middle" x="481" y="-85.5" font-family="Helvetica,sans-Serif" font-size="10.00">bits/local_lim.h</text>
</g>
<!-- Node4&#45;&gt;Node9 -->
<g id="edge9" class="edge"><title>Node4&#45;&gt;Node9</title>
<path fill="none" stroke="midnightblue" d="M441.761,-134.083C448.537,-126.298 458.543,-114.801 466.755,-105.367"/>
<polygon fill="midnightblue" stroke="midnightblue" points="469.458,-107.592 473.383,-97.7511 464.178,-102.996 469.458,-107.592"/>
</g>
<!-- Node10 -->
<g id="node10" class="node"><title>Node10</title>
<polygon fill="none" stroke="#bfbfbf" points="540.5,-78.5 540.5,-97.5 599.5,-97.5 599.5,-78.5 540.5,-78.5"/>
<text text-anchor="middle" x="570" y="-85.5" font-family="Helvetica,sans-Serif" font-size="10.00">exception</text>
</g>
<!-- Node4&#45;&gt;Node10 -->
<g id="edge10" class="edge"><title>Node4&#45;&gt;Node10</title>
<path fill="none" stroke="midnightblue" d="M455.55,-134.444C478.031,-125.517 513.488,-111.439 538.98,-101.317"/>
<polygon fill="midnightblue" stroke="midnightblue" points="540.549,-104.46 548.551,-97.5164 537.965,-97.9539 540.549,-104.46"/>
</g>
<!-- Node11 -->
<g id="node11" class="node"><title>Node11</title>
<polygon fill="none" stroke="#bfbfbf" points="617.5,-78.5 617.5,-97.5 668.5,-97.5 668.5,-78.5 617.5,-78.5"/>
<text text-anchor="middle" x="643" y="-85.5" font-family="Helvetica,sans-Serif" font-size="10.00">typeinfo</text>
</g>
<!-- Node4&#45;&gt;Node11 -->
<g id="edge11" class="edge"><title>Node4&#45;&gt;Node11</title>
<path fill="none" stroke="midnightblue" d="M467.117,-134.444C505.447,-124.54 568.322,-108.295 607.597,-98.1471"/>
<polygon fill="midnightblue" stroke="midnightblue" points="608.479,-101.534 617.286,-95.6439 606.728,-94.7568 608.479,-101.534"/>
</g>
<!-- Node12 -->
<g id="node12" class="node"><title>Node12</title>
<polygon fill="none" stroke="#bfbfbf" points="687,-78.5 687,-97.5 741,-97.5 741,-78.5 687,-78.5"/>
<text text-anchor="middle" x="714" y="-85.5" font-family="Helvetica,sans-Serif" font-size="10.00">iostream</text>
</g>
<!-- Node4&#45;&gt;Node12 -->
<g id="edge12" class="edge"><title>Node4&#45;&gt;Node12</title>
<path fill="none" stroke="midnightblue" d="M484.893,-134.422C534.172,-125.917 610.922,-112.144 677,-98 677.101,-97.9784 677.202,-97.9567 677.303,-97.9349"/>
<polygon fill="midnightblue" stroke="midnightblue" points="677.975,-101.371 686.962,-95.7602 676.437,-94.5424 677.975,-101.371"/>
</g>
<!-- Node13 -->
<g id="node13" class="node"><title>Node13</title>
<polygon fill="none" stroke="#bfbfbf" points="759,-78.5 759,-97.5 811,-97.5 811,-78.5 759,-78.5"/>
<text text-anchor="middle" x="785" y="-85.5" font-family="Helvetica,sans-Serif" font-size="10.00">memory</text>
</g>
<!-- Node4&#45;&gt;Node13 -->
<g id="edge13" class="edge"><title>Node4&#45;&gt;Node13</title>
<path fill="none" stroke="midnightblue" d="M485.192,-137.469C545.912,-130.519 650.335,-117.338 748.875,-98.0427"/>
<polygon fill="midnightblue" stroke="midnightblue" points="749.57,-101.473 758.698,-96.0948 748.208,-94.6069 749.57,-101.473"/>
</g>
<!-- Node14 -->
<g id="node14" class="node"><title>Node14</title>
<g id="a_node14"><a xlink:href="XBotUtils_8h.html" target="_top" xlink:title="XCM/XBotUtils.h">
<polygon fill="none" stroke="black" points="829,-78.5 829,-97.5 921,-97.5 921,-78.5 829,-78.5"/>
<text text-anchor="middle" x="875" y="-85.5" font-family="Helvetica,sans-Serif" font-size="10.00">XCM/XBotUtils.h</text>
</a>
</g>
</g>
<!-- Node4&#45;&gt;Node14 -->
<g id="edge14" class="edge"><title>Node4&#45;&gt;Node14</title>
<path fill="none" stroke="midnightblue" d="M485.296,-137.781C557.383,-130.279 693.007,-115.551 818.628,-98.1376"/>
<polygon fill="midnightblue" stroke="midnightblue" points="819.39,-101.565 828.81,-96.717 818.422,-94.6324 819.39,-101.565"/>
</g>
<!-- Node14&#45;&gt;Node2 -->
<g id="edge16" class="edge"><title>Node14&#45;&gt;Node2</title>
<path fill="none" stroke="midnightblue" d="M828.831,-79.1177C825.847,-78.7095 822.884,-78.3318 820,-78 582.366,-50.6548 520.515,-70.3593 283,-42 254.845,-38.6383 223.134,-33.0455 199.992,-28.6276"/>
<polygon fill="midnightblue" stroke="midnightblue" points="200.489,-25.1589 190.006,-26.6927 199.158,-32.0311 200.489,-25.1589"/>
</g>
<!-- Node15 -->
<g id="node15" class="node"><title>Node15</title>
<polygon fill="none" stroke="#bfbfbf" points="292.5,-11.5 292.5,-30.5 341.5,-30.5 341.5,-11.5 292.5,-11.5"/>
<text text-anchor="middle" x="317" y="-18.5" font-family="Helvetica,sans-Serif" font-size="10.00">stdint.h</text>
</g>
<!-- Node14&#45;&gt;Node15 -->
<g id="edge15" class="edge"><title>Node14&#45;&gt;Node15</title>
<path fill="none" stroke="midnightblue" d="M828.827,-79.1503C825.844,-78.7341 822.882,-78.3458 820,-78 612.431,-53.097 550.461,-104.612 351,-42 346.392,-40.5534 341.742,-38.3857 337.423,-36.0042"/>
<polygon fill="midnightblue" stroke="midnightblue" points="339.002,-32.8674 328.642,-30.6458 335.355,-38.8426 339.002,-32.8674"/>
</g>
<!-- Node16 -->
<g id="node16" class="node"><title>Node16</title>
<polygon fill="none" stroke="#bfbfbf" points="360,-11.5 360,-30.5 410,-30.5 410,-11.5 360,-11.5"/>
<text text-anchor="middle" x="385" y="-18.5" font-family="Helvetica,sans-Serif" font-size="10.00">fstream</text>
</g>
<!-- Node14&#45;&gt;Node16 -->
<g id="edge17" class="edge"><title>Node14&#45;&gt;Node16</title>
<path fill="none" stroke="midnightblue" d="M828.822,-79.1938C825.84,-78.767 822.88,-78.3644 820,-78 642.477,-55.5369 589.375,-96.6942 419,-42 414.401,-40.5236 409.755,-38.3426 405.438,-35.9573"/>
<polygon fill="midnightblue" stroke="midnightblue" points="407.016,-32.8204 396.656,-30.6035 403.372,-38.7973 407.016,-32.8204"/>
</g>
<!-- Node17 -->
<g id="node17" class="node"><title>Node17</title>
<polygon fill="none" stroke="#bfbfbf" points="428,-11.5 428,-30.5 480,-30.5 480,-11.5 428,-11.5"/>
<text text-anchor="middle" x="454" y="-18.5" font-family="Helvetica,sans-Serif" font-size="10.00">sstream</text>
</g>
<!-- Node14&#45;&gt;Node17 -->
<g id="edge18" class="edge"><title>Node14&#45;&gt;Node17</title>
<path fill="none" stroke="midnightblue" d="M828.814,-79.257C825.834,-78.8147 822.876,-78.3914 820,-78 673.373,-58.0443 629.755,-87.669 489,-42 484.178,-40.4354 479.282,-38.155 474.741,-35.689"/>
<polygon fill="midnightblue" stroke="midnightblue" points="476.441,-32.6277 466.054,-30.5367 472.87,-38.6484 476.441,-32.6277"/>
</g>
<!-- Node18 -->
<g id="node18" class="node"><title>Node18</title>
<polygon fill="none" stroke="#bfbfbf" points="498,-11.5 498,-30.5 622,-30.5 622,-11.5 498,-11.5"/>
<text text-anchor="middle" x="560" y="-18.5" font-family="Helvetica,sans-Serif" font-size="10.00">boost/circular_buffer.hpp</text>
</g>
<!-- Node14&#45;&gt;Node18 -->
<g id="edge19" class="edge"><title>Node14&#45;&gt;Node18</title>
<path fill="none" stroke="midnightblue" d="M828.97,-79.0337C769.116,-68.5842 667.869,-50.5734 631,-42 620.224,-39.4942 608.636,-36.4021 598.01,-33.4046"/>
<polygon fill="midnightblue" stroke="midnightblue" points="598.753,-29.9767 588.176,-30.582 596.822,-36.705 598.753,-29.9767"/>
</g>
<!-- Node19 -->
<g id="node19" class="node"><title>Node19</title>
<polygon fill="none" stroke="#bfbfbf" points="640,-6 640,-36 742,-36 742,-6 640,-6"/>
<text text-anchor="start" x="648" y="-24" font-family="Helvetica,sans-Serif" font-size="10.00">boost/accumulators</text>
<text text-anchor="middle" x="691" y="-13" font-family="Helvetica,sans-Serif" font-size="10.00">/accumulators.hpp</text>
</g>
<!-- Node14&#45;&gt;Node19 -->
<g id="edge20" class="edge"><title>Node14&#45;&gt;Node19</title>
<path fill="none" stroke="midnightblue" d="M850.566,-78.3685C822.598,-68.4883 776.062,-52.0491 740.443,-39.4662"/>
<polygon fill="midnightblue" stroke="midnightblue" points="741.305,-36.0589 730.71,-36.0281 738.973,-42.6592 741.305,-36.0589"/>
</g>
<!-- Node20 -->
<g id="node20" class="node"><title>Node20</title>
<polygon fill="none" stroke="#bfbfbf" points="760.5,-6 760.5,-36 865.5,-36 865.5,-6 760.5,-6"/>
<text text-anchor="start" x="768.5" y="-24" font-family="Helvetica,sans-Serif" font-size="10.00">boost/accumulators</text>
<text text-anchor="middle" x="813" y="-13" font-family="Helvetica,sans-Serif" font-size="10.00">/statistics/count.hpp</text>
</g>
<!-- Node14&#45;&gt;Node20 -->
<g id="edge21" class="edge"><title>Node14&#45;&gt;Node20</title>
<path fill="none" stroke="midnightblue" d="M866.638,-78.2338C858.179,-69.3649 844.774,-55.3111 833.481,-43.4722"/>
<polygon fill="midnightblue" stroke="midnightblue" points="835.874,-40.9094 826.439,-36.089 830.808,-45.7409 835.874,-40.9094"/>
</g>
<!-- Node21 -->
<g id="node21" class="node"><title>Node21</title>
<polygon fill="none" stroke="#bfbfbf" points="883.5,-6 883.5,-36 988.5,-36 988.5,-6 883.5,-6"/>
<text text-anchor="start" x="891.5" y="-24" font-family="Helvetica,sans-Serif" font-size="10.00">boost/accumulators</text>
<text text-anchor="middle" x="936" y="-13" font-family="Helvetica,sans-Serif" font-size="10.00">/statistics/mean.hpp</text>
</g>
<!-- Node14&#45;&gt;Node21 -->
<g id="edge22" class="edge"><title>Node14&#45;&gt;Node21</title>
<path fill="none" stroke="midnightblue" d="M883.227,-78.2338C891.55,-69.3649 904.739,-55.3111 915.849,-43.4722"/>
<polygon fill="midnightblue" stroke="midnightblue" points="918.487,-45.776 922.778,-36.089 913.383,-40.9858 918.487,-45.776"/>
</g>
<!-- Node22 -->
<g id="node22" class="node"><title>Node22</title>
<polygon fill="none" stroke="#bfbfbf" points="1007,-6 1007,-36 1109,-36 1109,-6 1007,-6"/>
<text text-anchor="start" x="1015" y="-24" font-family="Helvetica,sans-Serif" font-size="10.00">boost/accumulators</text>
<text text-anchor="middle" x="1058" y="-13" font-family="Helvetica,sans-Serif" font-size="10.00">/statistics/min.hpp</text>
</g>
<!-- Node14&#45;&gt;Node22 -->
<g id="edge23" class="edge"><title>Node14&#45;&gt;Node22</title>
<path fill="none" stroke="midnightblue" d="M899.301,-78.3685C927.117,-68.4883 973.4,-52.0491 1008.83,-39.4662"/>
<polygon fill="midnightblue" stroke="midnightblue" points="1010.25,-42.6733 1018.51,-36.0281 1007.91,-36.077 1010.25,-42.6733"/>
</g>
<!-- Node23 -->
<g id="node23" class="node"><title>Node23</title>
<polygon fill="none" stroke="#bfbfbf" points="1127,-6 1127,-36 1229,-36 1229,-6 1127,-6"/>
<text text-anchor="start" x="1135" y="-24" font-family="Helvetica,sans-Serif" font-size="10.00">boost/accumulators</text>
<text text-anchor="middle" x="1178" y="-13" font-family="Helvetica,sans-Serif" font-size="10.00">/statistics/max.hpp</text>
</g>
<!-- Node14&#45;&gt;Node23 -->
<g id="edge24" class="edge"><title>Node14&#45;&gt;Node23</title>
<path fill="none" stroke="midnightblue" d="M921.097,-80.414C970.284,-72.9342 1050.28,-59.4668 1118,-42 1121.56,-41.0822 1125.21,-40.0625 1128.87,-38.9832"/>
<polygon fill="midnightblue" stroke="midnightblue" points="1130,-42.2984 1138.53,-36.0165 1127.95,-35.6069 1130,-42.2984"/>
</g>
<!-- Node24 -->
<g id="node24" class="node"><title>Node24</title>
<polygon fill="none" stroke="#bfbfbf" points="1247,-6 1247,-36 1365,-36 1365,-6 1247,-6"/>
<text text-anchor="start" x="1255" y="-24" font-family="Helvetica,sans-Serif" font-size="10.00">boost/accumulators</text>
<text text-anchor="middle" x="1306" y="-13" font-family="Helvetica,sans-Serif" font-size="10.00">/statistics/variance.hpp</text>
</g>
<!-- Node14&#45;&gt;Node24 -->
<g id="edge25" class="edge"><title>Node14&#45;&gt;Node24</title>
<path fill="none" stroke="midnightblue" d="M921.235,-83.692C990.597,-78.1849 1125.46,-65.3638 1238,-42 1242.65,-41.0346 1247.44,-39.9058 1252.23,-38.6847"/>
<polygon fill="midnightblue" stroke="midnightblue" points="1253.25,-42.0361 1262,-36.0715 1251.44,-35.2736 1253.25,-42.0361"/>
</g>
<!-- Node25 -->
<g id="node25" class="node"><title>Node25</title>
<polygon fill="none" stroke="#bfbfbf" points="1383,-6 1383,-36 1497,-36 1497,-6 1383,-6"/>
<text text-anchor="start" x="1391" y="-24" font-family="Helvetica,sans-Serif" font-size="10.00">boost/accumulators</text>
<text text-anchor="middle" x="1440" y="-13" font-family="Helvetica,sans-Serif" font-size="10.00">/statistics/error_of.hpp</text>
</g>
<!-- Node14&#45;&gt;Node25 -->
<g id="edge26" class="edge"><title>Node14&#45;&gt;Node25</title>
<path fill="none" stroke="midnightblue" d="M921.191,-85.9781C1009.79,-83.3269 1209.42,-74.0076 1374,-42 1378.75,-41.0771 1383.64,-39.9479 1388.51,-38.7003"/>
<polygon fill="midnightblue" stroke="midnightblue" points="1389.7,-42.004 1398.43,-36.0016 1387.86,-35.2495 1389.7,-42.004"/>
</g>
<!-- Node26 -->
<g id="node26" class="node"><title>Node26</title>
<polygon fill="none" stroke="#bfbfbf" points="1515,-0.5 1515,-41.5 1617,-41.5 1617,-0.5 1515,-0.5"/>
<text text-anchor="start" x="1523" y="-29.5" font-family="Helvetica,sans-Serif" font-size="10.00">boost/accumulators</text>
<text text-anchor="start" x="1523" y="-18.5" font-family="Helvetica,sans-Serif" font-size="10.00">/statistics/error_of</text>
<text text-anchor="middle" x="1566" y="-7.5" font-family="Helvetica,sans-Serif" font-size="10.00">_mean.hpp</text>
</g>
<!-- Node14&#45;&gt;Node26 -->
<g id="edge27" class="edge"><title>Node14&#45;&gt;Node26</title>
<path fill="none" stroke="midnightblue" d="M921.054,-87.6354C1024.42,-88.2249 1282.59,-85.0283 1504.95,-41.9385"/>
<polygon fill="midnightblue" stroke="midnightblue" points="1505.71,-45.3567 1514.84,-39.9902 1504.35,-38.4887 1505.71,-45.3567"/>
</g>
</g>
</svg>
