<?xml version="1.0" encoding="UTF-8" standalone="no"?>
<!DOCTYPE svg PUBLIC "-//W3C//DTD SVG 1.1//EN"
 "http://www.w3.org/Graphics/SVG/1.1/DTD/svg11.dtd">
<!-- Generated by graphviz version 2.38.0 (20140413.2041)
 -->
<!-- Title: /home/lucamuratore/advr&#45;superbuild/external/XCM/src/XBotPlugin.cpp Pages: 1 -->
<svg width="872pt" height="307pt"
 viewBox="0.00 0.00 871.84 307.00" xmlns="http://www.w3.org/2000/svg" xmlns:xlink="http://www.w3.org/1999/xlink">
<g id="graph0" class="graph" transform="scale(1 1) rotate(0) translate(4 303)">
<title>/home/lucamuratore/advr&#45;superbuild/external/XCM/src/XBotPlugin.cpp</title>
<!-- Node1 -->
<g id="node1" class="node"><title>Node1</title>
<polygon fill="#bfbfbf" stroke="black" points="329.845,-257.5 329.845,-298.5 458.845,-298.5 458.845,-257.5 329.845,-257.5"/>
<text text-anchor="start" x="337.845" y="-286.5" font-family="Helvetica,sans-Serif" font-size="10.00">/home/lucamuratore</text>
<text text-anchor="start" x="337.845" y="-275.5" font-family="Helvetica,sans-Serif" font-size="10.00">/advr&#45;superbuild/external</text>
<text text-anchor="middle" x="394.345" y="-264.5" font-family="Helvetica,sans-Serif" font-size="10.00">/XCM/src/XBotPlugin.cpp</text>
</g>
<!-- Node2 -->
<g id="node2" class="node"><title>Node2</title>
<g id="a_node2"><a xlink:href="XBotPlugin_8h.html" target="_top" xlink:title="XBotCore&#45;interfaces\l/XBotPlugin.h">
<polygon fill="none" stroke="black" points="341.845,-190.5 341.845,-220.5 446.845,-220.5 446.845,-190.5 341.845,-190.5"/>
<text text-anchor="start" x="349.845" y="-208.5" font-family="Helvetica,sans-Serif" font-size="10.00">XBotCore&#45;interfaces</text>
<text text-anchor="middle" x="394.345" y="-197.5" font-family="Helvetica,sans-Serif" font-size="10.00">/XBotPlugin.h</text>
</a>
</g>
</g>
<!-- Node1&#45;&gt;Node2 -->
<g id="edge1" class="edge"><title>Node1&#45;&gt;Node2</title>
<path fill="none" stroke="midnightblue" d="M394.345,-257.362C394.345,-249.226 394.345,-239.7 394.345,-231.105"/>
<polygon fill="midnightblue" stroke="midnightblue" points="397.845,-230.892 394.345,-220.892 390.845,-230.892 397.845,-230.892"/>
</g>
<!-- Node3 -->
<g id="node3" class="node"><title>Node3</title>
<g id="a_node3"><a xlink:href="IXBotJoint_8h.html" target="_top" xlink:title="XBotCore&#45;interfaces\l/IXBotJoint.h">
<polygon fill="none" stroke="black" points="301.845,-123.5 301.845,-153.5 406.845,-153.5 406.845,-123.5 301.845,-123.5"/>
<text text-anchor="start" x="309.845" y="-141.5" font-family="Helvetica,sans-Serif" font-size="10.00">XBotCore&#45;interfaces</text>
<text text-anchor="middle" x="354.345" y="-130.5" font-family="Helvetica,sans-Serif" font-size="10.00">/IXBotJoint.h</text>
</a>
</g>
</g>
<!-- Node2&#45;&gt;Node3 -->
<g id="edge2" class="edge"><title>Node2&#45;&gt;Node3</title>
<path fill="none" stroke="midnightblue" d="M385.665,-190.396C380.581,-182.134 374.041,-171.507 368.253,-162.102"/>
<polygon fill="midnightblue" stroke="midnightblue" points="371.229,-160.259 363.007,-153.577 365.267,-163.927 371.229,-160.259"/>
</g>
<!-- Node4 -->
<g id="node4" class="node"><title>Node4</title>
<polygon fill="none" stroke="#bfbfbf" points="213.845,-62 213.845,-81 248.845,-81 248.845,-62 213.845,-62"/>
<text text-anchor="middle" x="231.345" y="-69" font-family="Helvetica,sans-Serif" font-size="10.00">map</text>
</g>
<!-- Node2&#45;&gt;Node4 -->
<g id="edge22" class="edge"><title>Node2&#45;&gt;Node4</title>
<path fill="none" stroke="midnightblue" d="M341.638,-200.145C282.04,-193.999 190.516,-180.449 169.345,-154 150.743,-130.761 182.997,-103.056 207.539,-86.6691"/>
<polygon fill="midnightblue" stroke="midnightblue" points="209.589,-89.5126 216.124,-81.173 205.815,-83.6173 209.589,-89.5126"/>
</g>
<!-- Node5 -->
<g id="node5" class="node"><title>Node5</title>
<polygon fill="none" stroke="#bfbfbf" points="99.3446,-62 99.3446,-81 143.345,-81 143.345,-62 99.3446,-62"/>
<text text-anchor="middle" x="121.345" y="-69" font-family="Helvetica,sans-Serif" font-size="10.00">vector</text>
</g>
<!-- Node2&#45;&gt;Node5 -->
<g id="edge23" class="edge"><title>Node2&#45;&gt;Node5</title>
<path fill="none" stroke="midnightblue" d="M341.835,-201.443C241.182,-195.046 29.0821,-178.758 7.34459,-154 -21.4848,-121.164 46.248,-94.2874 89.2428,-81.17"/>
<polygon fill="midnightblue" stroke="midnightblue" points="90.4395,-84.4663 99.0439,-78.2845 88.4625,-77.7513 90.4395,-84.4663"/>
</g>
<!-- Node6 -->
<g id="node6" class="node"><title>Node6</title>
<polygon fill="none" stroke="#bfbfbf" points="399.345,-0.5 399.345,-19.5 451.345,-19.5 451.345,-0.5 399.345,-0.5"/>
<text text-anchor="middle" x="425.345" y="-7.5" font-family="Helvetica,sans-Serif" font-size="10.00">memory</text>
</g>
<!-- Node2&#45;&gt;Node6 -->
<g id="edge24" class="edge"><title>Node2&#45;&gt;Node6</title>
<path fill="none" stroke="midnightblue" d="M407.945,-190.341C416.096,-180.87 425.743,-167.674 430.345,-154 444.688,-111.372 436.242,-57.5127 430.067,-29.6313"/>
<polygon fill="midnightblue" stroke="midnightblue" points="433.422,-28.6071 427.71,-19.6836 426.61,-30.2212 433.422,-28.6071"/>
</g>
<!-- Node7 -->
<g id="node7" class="node"><title>Node7</title>
<polygon fill="none" stroke="#bfbfbf" points="382.845,-62 382.845,-81 423.845,-81 423.845,-62 382.845,-62"/>
<text text-anchor="middle" x="403.345" y="-69" font-family="Helvetica,sans-Serif" font-size="10.00">string</text>
</g>
<!-- Node2&#45;&gt;Node7 -->
<g id="edge25" class="edge"><title>Node2&#45;&gt;Node7</title>
<path fill="none" stroke="midnightblue" d="M401.982,-190.393C406.877,-180.521 412.779,-166.85 415.345,-154 419.663,-132.371 414.423,-107.224 409.575,-90.6476"/>
<polygon fill="midnightblue" stroke="midnightblue" points="412.91,-89.5877 406.549,-81.1151 406.238,-91.7053 412.91,-89.5877"/>
</g>
<!-- Node8 -->
<g id="node8" class="node"><title>Node8</title>
<g id="a_node8"><a xlink:href="IXBotModel_8h.html" target="_top" xlink:title="XBotCore&#45;interfaces\l/IXBotModel.h">
<polygon fill="none" stroke="black" points="178.845,-123.5 178.845,-153.5 283.845,-153.5 283.845,-123.5 178.845,-123.5"/>
<text text-anchor="start" x="186.845" y="-141.5" font-family="Helvetica,sans-Serif" font-size="10.00">XBotCore&#45;interfaces</text>
<text text-anchor="middle" x="231.345" y="-130.5" font-family="Helvetica,sans-Serif" font-size="10.00">/IXBotModel.h</text>
</a>
</g>
</g>
<!-- Node2&#45;&gt;Node8 -->
<g id="edge7" class="edge"><title>Node2&#45;&gt;Node8</title>
<path fill="none" stroke="midnightblue" d="M358.976,-190.396C334.626,-180.686 302.084,-167.709 275.954,-157.289"/>
<polygon fill="midnightblue" stroke="midnightblue" points="277.229,-154.03 266.644,-153.577 274.636,-160.532 277.229,-154.03"/>
</g>
<!-- Node9 -->
<g id="node9" class="node"><title>Node9</title>
<g id="a_node9"><a xlink:href="IXBotFT_8h.html" target="_top" xlink:title="XBotCore&#45;interfaces\l/IXBotFT.h">
<polygon fill="none" stroke="black" points="635.845,-123.5 635.845,-153.5 740.845,-153.5 740.845,-123.5 635.845,-123.5"/>
<text text-anchor="start" x="643.845" y="-141.5" font-family="Helvetica,sans-Serif" font-size="10.00">XBotCore&#45;interfaces</text>
<text text-anchor="middle" x="688.345" y="-130.5" font-family="Helvetica,sans-Serif" font-size="10.00">/IXBotFT.h</text>
</a>
</g>
</g>
<!-- Node2&#45;&gt;Node9 -->
<g id="edge11" class="edge"><title>Node2&#45;&gt;Node9</title>
<path fill="none" stroke="midnightblue" d="M446.916,-193.298C491.766,-183.687 558.235,-169.314 625.642,-154.14"/>
<polygon fill="midnightblue" stroke="midnightblue" points="626.607,-157.51 635.592,-151.896 625.067,-150.682 626.607,-157.51"/>
</g>
<!-- Node10 -->
<g id="node10" class="node"><title>Node10</title>
<g id="a_node10"><a xlink:href="IXBotIMU_8h.html" target="_top" xlink:title="XBotCore&#45;interfaces\l/IXBotIMU.h">
<polygon fill="none" stroke="black" points="16.8446,-123.5 16.8446,-153.5 121.845,-153.5 121.845,-123.5 16.8446,-123.5"/>
<text text-anchor="start" x="24.8446" y="-141.5" font-family="Helvetica,sans-Serif" font-size="10.00">XBotCore&#45;interfaces</text>
<text text-anchor="middle" x="69.3446" y="-130.5" font-family="Helvetica,sans-Serif" font-size="10.00">/IXBotIMU.h</text>
</a>
</g>
</g>
<!-- Node2&#45;&gt;Node10 -->
<g id="edge12" class="edge"><title>Node2&#45;&gt;Node10</title>
<path fill="none" stroke="midnightblue" d="M341.412,-194.457C289.215,-184.479 207.198,-168.6 136.345,-154 134.888,-153.7 133.413,-153.394 131.926,-153.085"/>
<polygon fill="midnightblue" stroke="midnightblue" points="132.497,-149.628 121.991,-150.997 131.057,-156.479 132.497,-149.628"/>
</g>
<!-- Node11 -->
<g id="node11" class="node"><title>Node11</title>
<g id="a_node11"><a xlink:href="XBotSharedMemory_8h.html" target="_top" xlink:title="XBotCore&#45;interfaces\l/XBotSharedMemory.h">
<polygon fill="none" stroke="black" points="501.345,-123.5 501.345,-153.5 617.345,-153.5 617.345,-123.5 501.345,-123.5"/>
<text text-anchor="start" x="509.345" y="-141.5" font-family="Helvetica,sans-Serif" font-size="10.00">XBotCore&#45;interfaces</text>
<text text-anchor="middle" x="559.345" y="-130.5" font-family="Helvetica,sans-Serif" font-size="10.00">/XBotSharedMemory.h</text>
</a>
</g>
</g>
<!-- Node2&#45;&gt;Node11 -->
<g id="edge14" class="edge"><title>Node2&#45;&gt;Node11</title>
<path fill="none" stroke="midnightblue" d="M430.147,-190.396C454.796,-180.686 487.738,-167.709 514.188,-157.289"/>
<polygon fill="midnightblue" stroke="midnightblue" points="515.591,-160.498 523.612,-153.577 513.025,-153.985 515.591,-160.498"/>
</g>
<!-- Node16 -->
<g id="node16" class="node"><title>Node16</title>
<g id="a_node16"><a xlink:href="XBotESC_8h.html" target="_top" xlink:title="XBotCore&#45;interfaces\l/XBotESC.h">
<polygon fill="none" stroke="black" points="758.845,-123.5 758.845,-153.5 863.845,-153.5 863.845,-123.5 758.845,-123.5"/>
<text text-anchor="start" x="766.845" y="-141.5" font-family="Helvetica,sans-Serif" font-size="10.00">XBotCore&#45;interfaces</text>
<text text-anchor="middle" x="811.345" y="-130.5" font-family="Helvetica,sans-Serif" font-size="10.00">/XBotESC.h</text>
</a>
</g>
</g>
<!-- Node2&#45;&gt;Node16 -->
<g id="edge20" class="edge"><title>Node2&#45;&gt;Node16</title>
<path fill="none" stroke="midnightblue" d="M446.913,-198.497C514.451,-190.457 635.478,-174.948 748.763,-154.004"/>
<polygon fill="midnightblue" stroke="midnightblue" points="749.459,-157.435 758.647,-152.159 748.174,-150.553 749.459,-157.435"/>
</g>
<!-- Node3&#45;&gt;Node4 -->
<g id="edge3" class="edge"><title>Node3&#45;&gt;Node4</title>
<path fill="none" stroke="midnightblue" d="M327.655,-123.396C306.456,-112.193 277.027,-96.6412 256.295,-85.6853"/>
<polygon fill="midnightblue" stroke="midnightblue" points="257.919,-82.5848 247.442,-81.007 254.649,-88.7738 257.919,-82.5848"/>
</g>
<!-- Node3&#45;&gt;Node5 -->
<g id="edge4" class="edge"><title>Node3&#45;&gt;Node5</title>
<path fill="none" stroke="midnightblue" d="M304.074,-123.476C258.267,-110.697 192.005,-92.2121 153.133,-81.3679"/>
<polygon fill="midnightblue" stroke="midnightblue" points="153.975,-77.9693 143.402,-78.6534 152.094,-84.7118 153.975,-77.9693"/>
</g>
<!-- Node3&#45;&gt;Node6 -->
<g id="edge5" class="edge"><title>Node3&#45;&gt;Node6</title>
<path fill="none" stroke="midnightblue" d="M355.014,-123.245C356.388,-106.145 360.578,-77.1432 373.345,-56 380.673,-43.8636 392.392,-33.3038 402.851,-25.4693"/>
<polygon fill="midnightblue" stroke="midnightblue" points="405.071,-28.1857 411.216,-19.5546 401.03,-22.4701 405.071,-28.1857"/>
</g>
<!-- Node3&#45;&gt;Node7 -->
<g id="edge6" class="edge"><title>Node3&#45;&gt;Node7</title>
<path fill="none" stroke="midnightblue" d="M364.977,-123.396C372.541,-113.361 382.736,-99.8382 390.715,-89.2535"/>
<polygon fill="midnightblue" stroke="midnightblue" points="393.565,-91.2867 396.79,-81.1945 387.976,-87.0729 393.565,-91.2867"/>
</g>
<!-- Node8&#45;&gt;Node4 -->
<g id="edge8" class="edge"><title>Node8&#45;&gt;Node4</title>
<path fill="none" stroke="midnightblue" d="M231.345,-123.396C231.345,-114.064 231.345,-101.714 231.345,-91.5173"/>
<polygon fill="midnightblue" stroke="midnightblue" points="234.845,-91.1945 231.345,-81.1945 227.845,-91.1946 234.845,-91.1945"/>
</g>
<!-- Node8&#45;&gt;Node5 -->
<g id="edge10" class="edge"><title>Node8&#45;&gt;Node5</title>
<path fill="none" stroke="midnightblue" d="M207.476,-123.396C188.773,-112.344 162.909,-97.0607 144.414,-86.1319"/>
<polygon fill="midnightblue" stroke="midnightblue" points="146.131,-83.0811 135.741,-81.007 142.57,-89.1076 146.131,-83.0811"/>
</g>
<!-- Node8&#45;&gt;Node7 -->
<g id="edge9" class="edge"><title>Node8&#45;&gt;Node7</title>
<path fill="none" stroke="midnightblue" d="M268.666,-123.396C299.953,-111.572 344.057,-94.9053 373.155,-83.9088"/>
<polygon fill="midnightblue" stroke="midnightblue" points="374.659,-87.0821 382.776,-80.2729 372.185,-80.534 374.659,-87.0821"/>
</g>
<!-- Node10&#45;&gt;Node5 -->
<g id="edge13" class="edge"><title>Node10&#45;&gt;Node5</title>
<path fill="none" stroke="midnightblue" d="M80.6278,-123.396C88.6555,-113.361 99.474,-99.8382 107.942,-89.2535"/>
<polygon fill="midnightblue" stroke="midnightblue" points="110.875,-91.1897 114.389,-81.1945 105.409,-86.8168 110.875,-91.1897"/>
</g>
<!-- Node12 -->
<g id="node12" class="node"><title>Node12</title>
<g id="a_node12"><a xlink:href="XBotSharedObject_8h.html" target="_top" xlink:title="XBotCore&#45;interfaces\l/XBotSharedObject.h">
<polygon fill="none" stroke="black" points="504.845,-56.5 504.845,-86.5 613.845,-86.5 613.845,-56.5 504.845,-56.5"/>
<text text-anchor="start" x="512.845" y="-74.5" font-family="Helvetica,sans-Serif" font-size="10.00">XBotCore&#45;interfaces</text>
<text text-anchor="middle" x="559.345" y="-63.5" font-family="Helvetica,sans-Serif" font-size="10.00">/XBotSharedObject.h</text>
</a>
</g>
</g>
<!-- Node11&#45;&gt;Node12 -->
<g id="edge15" class="edge"><title>Node11&#45;&gt;Node12</title>
<path fill="none" stroke="midnightblue" d="M559.345,-123.396C559.345,-115.645 559.345,-105.812 559.345,-96.8601"/>
<polygon fill="midnightblue" stroke="midnightblue" points="562.845,-96.5765 559.345,-86.5765 555.845,-96.5765 562.845,-96.5765"/>
</g>
<!-- Node12&#45;&gt;Node6 -->
<g id="edge18" class="edge"><title>Node12&#45;&gt;Node6</title>
<path fill="none" stroke="midnightblue" d="M527.588,-56.3993C505.306,-46.5054 475.754,-33.3832 454.153,-23.7919"/>
<polygon fill="midnightblue" stroke="midnightblue" points="455.403,-20.5172 444.843,-19.6578 452.562,-26.9149 455.403,-20.5172"/>
</g>
<!-- Node13 -->
<g id="node13" class="node"><title>Node13</title>
<polygon fill="none" stroke="#bfbfbf" points="469.345,-0.5 469.345,-19.5 547.345,-19.5 547.345,-0.5 469.345,-0.5"/>
<text text-anchor="middle" x="508.345" y="-7.5" font-family="Helvetica,sans-Serif" font-size="10.00">boost/any.hpp</text>
</g>
<!-- Node12&#45;&gt;Node13 -->
<g id="edge16" class="edge"><title>Node12&#45;&gt;Node13</title>
<path fill="none" stroke="midnightblue" d="M547.258,-56.3993C539.771,-47.6641 530.127,-36.4126 522.313,-27.2962"/>
<polygon fill="midnightblue" stroke="midnightblue" points="524.931,-24.9726 515.766,-19.6578 519.616,-29.5281 524.931,-24.9726"/>
</g>
<!-- Node14 -->
<g id="node14" class="node"><title>Node14</title>
<polygon fill="none" stroke="#bfbfbf" points="565.845,-0.5 565.845,-19.5 648.845,-19.5 648.845,-0.5 565.845,-0.5"/>
<text text-anchor="middle" x="607.345" y="-7.5" font-family="Helvetica,sans-Serif" font-size="10.00">unordered_map</text>
</g>
<!-- Node12&#45;&gt;Node14 -->
<g id="edge17" class="edge"><title>Node12&#45;&gt;Node14</title>
<path fill="none" stroke="midnightblue" d="M570.72,-56.3993C577.695,-47.7533 586.659,-36.642 593.972,-27.576"/>
<polygon fill="midnightblue" stroke="midnightblue" points="596.805,-29.6385 600.36,-19.6578 591.357,-25.2433 596.805,-29.6385"/>
</g>
<!-- Node15 -->
<g id="node15" class="node"><title>Node15</title>
<polygon fill="none" stroke="#bfbfbf" points="667.345,-0.5 667.345,-19.5 721.345,-19.5 721.345,-0.5 667.345,-0.5"/>
<text text-anchor="middle" x="694.345" y="-7.5" font-family="Helvetica,sans-Serif" font-size="10.00">iostream</text>
</g>
<!-- Node12&#45;&gt;Node15 -->
<g id="edge19" class="edge"><title>Node12&#45;&gt;Node15</title>
<path fill="none" stroke="midnightblue" d="M591.338,-56.3993C613.786,-46.5054 643.559,-33.3832 665.321,-23.7919"/>
<polygon fill="midnightblue" stroke="midnightblue" points="666.962,-26.8936 674.701,-19.6578 664.139,-20.4882 666.962,-26.8936"/>
</g>
<!-- Node17 -->
<g id="node17" class="node"><title>Node17</title>
<polygon fill="none" stroke="#bfbfbf" points="786.845,-62 786.845,-81 835.845,-81 835.845,-62 786.845,-62"/>
<text text-anchor="middle" x="811.345" y="-69" font-family="Helvetica,sans-Serif" font-size="10.00">stdint.h</text>
</g>
<!-- Node16&#45;&gt;Node17 -->
<g id="edge21" class="edge"><title>Node16&#45;&gt;Node17</title>
<path fill="none" stroke="midnightblue" d="M811.345,-123.396C811.345,-114.064 811.345,-101.714 811.345,-91.5173"/>
<polygon fill="midnightblue" stroke="midnightblue" points="814.845,-91.1945 811.345,-81.1945 807.845,-91.1946 814.845,-91.1945"/>
</g>
</g>
</svg>
