<?xml version="1.0" encoding="UTF-8" standalone="no"?>
<!DOCTYPE svg PUBLIC "-//W3C//DTD SVG 1.1//EN"
 "http://www.w3.org/Graphics/SVG/1.1/DTD/svg11.dtd">
<!-- Generated by graphviz version 2.38.0 (20140413.2041)
 -->
<!-- Title: /home/lucamuratore/advr&#45;superbuild/external/XCM/include/XCM/XBotPluginHandler.h Pages: 1 -->
<svg width="2684pt" height="385pt"
 viewBox="0.00 0.00 2684.00 385.00" xmlns="http://www.w3.org/2000/svg" xmlns:xlink="http://www.w3.org/1999/xlink">
<g id="graph0" class="graph" transform="scale(1 1) rotate(0) translate(4 381)">
<title>/home/lucamuratore/advr&#45;superbuild/external/XCM/include/XCM/XBotPluginHandler.h</title>
<!-- Node1 -->
<g id="node1" class="node"><title>Node1</title>
<polygon fill="#bfbfbf" stroke="black" points="1198,-335.5 1198,-376.5 1393,-376.5 1393,-335.5 1198,-335.5"/>
<text text-anchor="start" x="1206" y="-364.5" font-family="Helvetica,sans-Serif" font-size="10.00">/home/lucamuratore</text>
<text text-anchor="start" x="1206" y="-353.5" font-family="Helvetica,sans-Serif" font-size="10.00">/advr&#45;superbuild/external</text>
<text text-anchor="middle" x="1295.5" y="-342.5" font-family="Helvetica,sans-Serif" font-size="10.00">/XCM/include/XCM/XBotPluginHandler.h</text>
</g>
<!-- Node2 -->
<g id="node2" class="node"><title>Node2</title>
<g id="a_node2"><a xlink:href="All_8h.html" target="_top" xlink:title="XBotCore&#45;interfaces\l/All.h">
<polygon fill="none" stroke="black" points="605,-268.5 605,-298.5 710,-298.5 710,-268.5 605,-268.5"/>
<text text-anchor="start" x="613" y="-286.5" font-family="Helvetica,sans-Serif" font-size="10.00">XBotCore&#45;interfaces</text>
<text text-anchor="middle" x="657.5" y="-275.5" font-family="Helvetica,sans-Serif" font-size="10.00">/All.h</text>
</a>
</g>
</g>
<!-- Node1&#45;&gt;Node2 -->
<g id="edge1" class="edge"><title>Node1&#45;&gt;Node2</title>
<path fill="none" stroke="midnightblue" d="M1197.91,-344.216C1065.21,-329.553 831.669,-303.746 720.17,-291.425"/>
<polygon fill="midnightblue" stroke="midnightblue" points="720.416,-287.931 710.092,-290.311 719.647,-294.889 720.416,-287.931"/>
</g>
<!-- Node46 -->
<g id="node46" class="node"><title>Node46</title>
<g id="a_node46"><a xlink:href="XBotControlPlugin_8h.html" target="_top" xlink:title="XCM/XBotControlPlugin.h">
<polygon fill="none" stroke="black" points="1075,-274 1075,-293 1206,-293 1206,-274 1075,-274"/>
<text text-anchor="middle" x="1140.5" y="-281" font-family="Helvetica,sans-Serif" font-size="10.00">XCM/XBotControlPlugin.h</text>
</a>
</g>
</g>
<!-- Node1&#45;&gt;Node46 -->
<g id="edge69" class="edge"><title>Node1&#45;&gt;Node46</title>
<path fill="none" stroke="midnightblue" d="M1252.32,-335.362C1225.67,-323.241 1192.24,-308.034 1168.9,-297.419"/>
<polygon fill="midnightblue" stroke="midnightblue" points="1170.12,-294.128 1159.57,-293.173 1167.22,-300.5 1170.12,-294.128"/>
</g>
<!-- Node47 -->
<g id="node47" class="node"><title>Node47</title>
<g id="a_node47"><a xlink:href="TimeProvider_8h.html" target="_top" xlink:title="XCM/TimeProvider.h">
<polygon fill="none" stroke="black" points="1244.5,-207 1244.5,-226 1352.5,-226 1352.5,-207 1244.5,-207"/>
<text text-anchor="middle" x="1298.5" y="-214" font-family="Helvetica,sans-Serif" font-size="10.00">XCM/TimeProvider.h</text>
</a>
</g>
</g>
<!-- Node1&#45;&gt;Node47 -->
<g id="edge73" class="edge"><title>Node1&#45;&gt;Node47</title>
<path fill="none" stroke="midnightblue" d="M1295.93,-335.3C1296.51,-308.897 1297.52,-262.358 1298.09,-236.38"/>
<polygon fill="midnightblue" stroke="midnightblue" points="1301.59,-236.112 1298.31,-226.038 1294.6,-235.959 1301.59,-236.112"/>
</g>
<!-- Node48 -->
<g id="node48" class="node"><title>Node48</title>
<g id="a_node48"><a xlink:href="XBotESCUtils_8h.html" target="_top" xlink:title="XCM/XBotESCUtils.h">
<polygon fill="none" stroke="black" points="2563,-207 2563,-226 2676,-226 2676,-207 2563,-207"/>
<text text-anchor="middle" x="2619.5" y="-214" font-family="Helvetica,sans-Serif" font-size="10.00">XCM/XBotESCUtils.h</text>
</a>
</g>
</g>
<!-- Node1&#45;&gt;Node48 -->
<g id="edge75" class="edge"><title>Node1&#45;&gt;Node48</title>
<path fill="none" stroke="midnightblue" d="M1298.02,-335.232C1301.81,-314.583 1311.1,-283.135 1333.5,-268 1389.45,-230.188 2481.42,-239.785 2548.5,-232 2556.76,-231.041 2565.49,-229.61 2573.9,-228.015"/>
<polygon fill="midnightblue" stroke="midnightblue" points="2574.82,-231.401 2583.94,-226.009 2573.45,-224.537 2574.82,-231.401"/>
</g>
<!-- Node49 -->
<g id="node49" class="node"><title>Node49</title>
<polygon fill="none" stroke="#bfbfbf" points="1343,-274 1343,-293 1486,-293 1486,-274 1343,-274"/>
<text text-anchor="middle" x="1414.5" y="-281" font-family="Helvetica,sans-Serif" font-size="10.00">SharedLibraryClassFactory.h</text>
</g>
<!-- Node1&#45;&gt;Node49 -->
<g id="edge78" class="edge"><title>Node1&#45;&gt;Node49</title>
<path fill="none" stroke="midnightblue" d="M1328.65,-335.362C1348.56,-323.565 1373.41,-308.846 1391.24,-298.282"/>
<polygon fill="midnightblue" stroke="midnightblue" points="1393.04,-301.282 1399.86,-293.173 1389.47,-295.259 1393.04,-301.282"/>
</g>
<!-- Node50 -->
<g id="node50" class="node"><title>Node50</title>
<polygon fill="none" stroke="#bfbfbf" points="1504.5,-274 1504.5,-293 1614.5,-293 1614.5,-274 1504.5,-274"/>
<text text-anchor="middle" x="1559.5" y="-281" font-family="Helvetica,sans-Serif" font-size="10.00">SharedLibraryClass.h</text>
</g>
<!-- Node1&#45;&gt;Node50 -->
<g id="edge79" class="edge"><title>Node1&#45;&gt;Node50</title>
<path fill="none" stroke="midnightblue" d="M1368.69,-335.455C1416.8,-322.608 1478.01,-306.261 1517.95,-295.596"/>
<polygon fill="midnightblue" stroke="midnightblue" points="1518.86,-298.975 1527.62,-293.013 1517.06,-292.212 1518.86,-298.975"/>
</g>
<!-- Node3 -->
<g id="node3" class="node"><title>Node3</title>
<g id="a_node3"><a xlink:href="IXBotModel_8h.html" target="_top" xlink:title="XBotCore&#45;interfaces\l/IXBotModel.h">
<polygon fill="none" stroke="black" points="524,-134.5 524,-164.5 629,-164.5 629,-134.5 524,-134.5"/>
<text text-anchor="start" x="532" y="-152.5" font-family="Helvetica,sans-Serif" font-size="10.00">XBotCore&#45;interfaces</text>
<text text-anchor="middle" x="576.5" y="-141.5" font-family="Helvetica,sans-Serif" font-size="10.00">/IXBotModel.h</text>
</a>
</g>
</g>
<!-- Node2&#45;&gt;Node3 -->
<g id="edge2" class="edge"><title>Node2&#45;&gt;Node3</title>
<path fill="none" stroke="midnightblue" d="M633.25,-268.346C620.169,-259.501 604.838,-246.955 595.5,-232 584.706,-214.713 580.037,-191.901 578.021,-174.809"/>
<polygon fill="midnightblue" stroke="midnightblue" points="581.473,-174.142 577.041,-164.518 574.505,-174.805 581.473,-174.142"/>
</g>
<!-- Node7 -->
<g id="node7" class="node"><title>Node7</title>
<g id="a_node7"><a xlink:href="IXBotJoint_8h.html" target="_top" xlink:title="XBotCore&#45;interfaces\l/IXBotJoint.h">
<polygon fill="none" stroke="black" points="724,-134.5 724,-164.5 829,-164.5 829,-134.5 724,-134.5"/>
<text text-anchor="start" x="732" y="-152.5" font-family="Helvetica,sans-Serif" font-size="10.00">XBotCore&#45;interfaces</text>
<text text-anchor="middle" x="776.5" y="-141.5" font-family="Helvetica,sans-Serif" font-size="10.00">/IXBotJoint.h</text>
</a>
</g>
</g>
<!-- Node2&#45;&gt;Node7 -->
<g id="edge6" class="edge"><title>Node2&#45;&gt;Node7</title>
<path fill="none" stroke="midnightblue" d="M677.031,-268.43C689.591,-258.895 705.863,-245.594 718.5,-232 735.46,-213.755 751.623,-190.369 762.558,-173.332"/>
<polygon fill="midnightblue" stroke="midnightblue" points="765.695,-174.918 768.066,-164.592 759.773,-171.185 765.695,-174.918"/>
</g>
<!-- Node9 -->
<g id="node9" class="node"><title>Node9</title>
<g id="a_node9"><a xlink:href="IXBotFT_8h.html" target="_top" xlink:title="XBotCore&#45;interfaces\l/IXBotFT.h">
<polygon fill="none" stroke="black" points="362,-134.5 362,-164.5 467,-164.5 467,-134.5 362,-134.5"/>
<text text-anchor="start" x="370" y="-152.5" font-family="Helvetica,sans-Serif" font-size="10.00">XBotCore&#45;interfaces</text>
<text text-anchor="middle" x="414.5" y="-141.5" font-family="Helvetica,sans-Serif" font-size="10.00">/IXBotFT.h</text>
</a>
</g>
</g>
<!-- Node2&#45;&gt;Node9 -->
<g id="edge11" class="edge"><title>Node2&#45;&gt;Node9</title>
<path fill="none" stroke="midnightblue" d="M631.495,-268.374C587.556,-244.506 498.605,-196.187 449.329,-169.419"/>
<polygon fill="midnightblue" stroke="midnightblue" points="450.776,-166.223 440.318,-164.525 447.435,-172.374 450.776,-166.223"/>
</g>
<!-- Node10 -->
<g id="node10" class="node"><title>Node10</title>
<g id="a_node10"><a xlink:href="IXBotIMU_8h.html" target="_top" xlink:title="XBotCore&#45;interfaces\l/IXBotIMU.h">
<polygon fill="none" stroke="black" points="239,-134.5 239,-164.5 344,-164.5 344,-134.5 239,-134.5"/>
<text text-anchor="start" x="247" y="-152.5" font-family="Helvetica,sans-Serif" font-size="10.00">XBotCore&#45;interfaces</text>
<text text-anchor="middle" x="291.5" y="-141.5" font-family="Helvetica,sans-Serif" font-size="10.00">/IXBotIMU.h</text>
</a>
</g>
</g>
<!-- Node2&#45;&gt;Node10 -->
<g id="edge12" class="edge"><title>Node2&#45;&gt;Node10</title>
<path fill="none" stroke="midnightblue" d="M615.582,-268.415C586.119,-258.438 545.817,-244.635 510.5,-232 450.841,-210.655 382.46,-185.019 338.207,-168.273"/>
<polygon fill="midnightblue" stroke="midnightblue" points="339.186,-164.901 328.594,-164.631 336.706,-171.447 339.186,-164.901"/>
</g>
<!-- Node11 -->
<g id="node11" class="node"><title>Node11</title>
<g id="a_node11"><a xlink:href="XBotPlugin_8h.html" target="_top" xlink:title="XBotCore&#45;interfaces\l/XBotPlugin.h">
<polygon fill="none" stroke="black" points="605,-201.5 605,-231.5 710,-231.5 710,-201.5 605,-201.5"/>
<text text-anchor="start" x="613" y="-219.5" font-family="Helvetica,sans-Serif" font-size="10.00">XBotCore&#45;interfaces</text>
<text text-anchor="middle" x="657.5" y="-208.5" font-family="Helvetica,sans-Serif" font-size="10.00">/XBotPlugin.h</text>
</a>
</g>
</g>
<!-- Node2&#45;&gt;Node11 -->
<g id="edge14" class="edge"><title>Node2&#45;&gt;Node11</title>
<path fill="none" stroke="midnightblue" d="M657.5,-268.396C657.5,-260.645 657.5,-250.812 657.5,-241.86"/>
<polygon fill="midnightblue" stroke="midnightblue" points="661,-241.576 657.5,-231.577 654,-241.577 661,-241.576"/>
</g>
<!-- Node12 -->
<g id="node12" class="node"><title>Node12</title>
<g id="a_node12"><a xlink:href="XBotSharedMemory_8h.html" target="_top" xlink:title="XBotCore&#45;interfaces\l/XBotSharedMemory.h">
<polygon fill="none" stroke="black" points="104.5,-134.5 104.5,-164.5 220.5,-164.5 220.5,-134.5 104.5,-134.5"/>
<text text-anchor="start" x="112.5" y="-152.5" font-family="Helvetica,sans-Serif" font-size="10.00">XBotCore&#45;interfaces</text>
<text text-anchor="middle" x="162.5" y="-141.5" font-family="Helvetica,sans-Serif" font-size="10.00">/XBotSharedMemory.h</text>
</a>
</g>
</g>
<!-- Node2&#45;&gt;Node12 -->
<g id="edge31" class="edge"><title>Node2&#45;&gt;Node12</title>
<path fill="none" stroke="midnightblue" d="M604.904,-272.638C557.06,-263.327 484.642,-248.379 422.5,-232 348.802,-212.575 264.884,-185.319 212.803,-167.783"/>
<polygon fill="midnightblue" stroke="midnightblue" points="213.735,-164.404 203.141,-164.518 211.494,-171.035 213.735,-164.404"/>
</g>
<!-- Node13 -->
<g id="node13" class="node"><title>Node13</title>
<g id="a_node13"><a xlink:href="XBotSharedObject_8h.html" target="_top" xlink:title="XBotCore&#45;interfaces\l/XBotSharedObject.h">
<polygon fill="none" stroke="black" points="97,-67.5 97,-97.5 206,-97.5 206,-67.5 97,-67.5"/>
<text text-anchor="start" x="105" y="-85.5" font-family="Helvetica,sans-Serif" font-size="10.00">XBotCore&#45;interfaces</text>
<text text-anchor="middle" x="151.5" y="-74.5" font-family="Helvetica,sans-Serif" font-size="10.00">/XBotSharedObject.h</text>
</a>
</g>
</g>
<!-- Node2&#45;&gt;Node13 -->
<g id="edge32" class="edge"><title>Node2&#45;&gt;Node13</title>
<path fill="none" stroke="midnightblue" d="M604.866,-280.024C477.025,-272.757 156.175,-246.584 95.5,-165 80.3054,-144.569 101.513,-120.457 122.043,-103.786"/>
<polygon fill="midnightblue" stroke="midnightblue" points="124.321,-106.449 130.096,-97.5663 120.042,-100.908 124.321,-106.449"/>
</g>
<!-- Node17 -->
<g id="node17" class="node"><title>Node17</title>
<g id="a_node17"><a xlink:href="XBotESC_8h.html" target="_top" xlink:title="XBotCore&#45;interfaces\l/XBotESC.h">
<polygon fill="none" stroke="black" points="1268,-134.5 1268,-164.5 1373,-164.5 1373,-134.5 1268,-134.5"/>
<text text-anchor="start" x="1276" y="-152.5" font-family="Helvetica,sans-Serif" font-size="10.00">XBotCore&#45;interfaces</text>
<text text-anchor="middle" x="1320.5" y="-141.5" font-family="Helvetica,sans-Serif" font-size="10.00">/XBotESC.h</text>
</a>
</g>
</g>
<!-- Node2&#45;&gt;Node17 -->
<g id="edge68" class="edge"><title>Node2&#45;&gt;Node17</title>
<path fill="none" stroke="midnightblue" d="M710.191,-281.367C827.972,-278.226 1109.09,-267.168 1196.5,-232 1217.04,-223.735 1217.27,-213.573 1235.5,-201 1251.56,-189.92 1270.12,-178.721 1285.79,-169.695"/>
<polygon fill="midnightblue" stroke="midnightblue" points="1287.69,-172.642 1294.65,-164.648 1284.23,-166.56 1287.69,-172.642"/>
</g>
<!-- Node19 -->
<g id="node19" class="node"><title>Node19</title>
<g id="a_node19"><a xlink:href="XDomainCommunication_8h.html" target="_top" xlink:title="XBotCore&#45;interfaces\l/XDomainCommunication.h">
<polygon fill="none" stroke="black" points="1051,-201.5 1051,-231.5 1188,-231.5 1188,-201.5 1051,-201.5"/>
<text text-anchor="start" x="1059" y="-219.5" font-family="Helvetica,sans-Serif" font-size="10.00">XBotCore&#45;interfaces</text>
<text text-anchor="middle" x="1119.5" y="-208.5" font-family="Helvetica,sans-Serif" font-size="10.00">/XDomainCommunication.h</text>
</a>
</g>
</g>
<!-- Node2&#45;&gt;Node19 -->
<g id="edge33" class="edge"><title>Node2&#45;&gt;Node19</title>
<path fill="none" stroke="midnightblue" d="M710.047,-275.107C790.94,-263.726 946.484,-241.842 1040.84,-228.567"/>
<polygon fill="midnightblue" stroke="midnightblue" points="1041.49,-232.01 1050.9,-227.151 1040.51,-225.079 1041.49,-232.01"/>
</g>
<!-- Node20 -->
<g id="node20" class="node"><title>Node20</title>
<g id="a_node20"><a xlink:href="XBotPipes_8h.html" target="_top" xlink:title="XBotCore&#45;interfaces\l/XBotPipes.h">
<polygon fill="none" stroke="black" points="957,-134.5 957,-164.5 1062,-164.5 1062,-134.5 957,-134.5"/>
<text text-anchor="start" x="965" y="-152.5" font-family="Helvetica,sans-Serif" font-size="10.00">XBotCore&#45;interfaces</text>
<text text-anchor="middle" x="1009.5" y="-141.5" font-family="Helvetica,sans-Serif" font-size="10.00">/XBotPipes.h</text>
</a>
</g>
</g>
<!-- Node2&#45;&gt;Node20 -->
<g id="edge67" class="edge"><title>Node2&#45;&gt;Node20</title>
<path fill="none" stroke="midnightblue" d="M694.837,-268.499C759.39,-244.291 891.721,-194.667 962.457,-168.141"/>
<polygon fill="midnightblue" stroke="midnightblue" points="963.882,-171.345 972.016,-164.556 961.424,-164.791 963.882,-171.345"/>
</g>
<!-- Node4 -->
<g id="node4" class="node"><title>Node4</title>
<polygon fill="none" stroke="#bfbfbf" points="559,-73 559,-92 594,-92 594,-73 559,-73"/>
<text text-anchor="middle" x="576.5" y="-80" font-family="Helvetica,sans-Serif" font-size="10.00">map</text>
</g>
<!-- Node3&#45;&gt;Node4 -->
<g id="edge3" class="edge"><title>Node3&#45;&gt;Node4</title>
<path fill="none" stroke="midnightblue" d="M576.5,-134.396C576.5,-125.064 576.5,-112.714 576.5,-102.517"/>
<polygon fill="midnightblue" stroke="midnightblue" points="580,-102.195 576.5,-92.1945 573,-102.195 580,-102.195"/>
</g>
<!-- Node5 -->
<g id="node5" class="node"><title>Node5</title>
<polygon fill="none" stroke="#bfbfbf" points="612,-73 612,-92 653,-92 653,-73 612,-73"/>
<text text-anchor="middle" x="632.5" y="-80" font-family="Helvetica,sans-Serif" font-size="10.00">string</text>
</g>
<!-- Node3&#45;&gt;Node5 -->
<g id="edge4" class="edge"><title>Node3&#45;&gt;Node5</title>
<path fill="none" stroke="midnightblue" d="M588.651,-134.396C597.383,-124.261 609.18,-110.567 618.339,-99.9368"/>
<polygon fill="midnightblue" stroke="midnightblue" points="621.134,-102.055 625.009,-92.1945 615.831,-97.4862 621.134,-102.055"/>
</g>
<!-- Node6 -->
<g id="node6" class="node"><title>Node6</title>
<polygon fill="none" stroke="#bfbfbf" points="484.5,-73 484.5,-92 528.5,-92 528.5,-73 484.5,-73"/>
<text text-anchor="middle" x="506.5" y="-80" font-family="Helvetica,sans-Serif" font-size="10.00">vector</text>
</g>
<!-- Node3&#45;&gt;Node6 -->
<g id="edge5" class="edge"><title>Node3&#45;&gt;Node6</title>
<path fill="none" stroke="midnightblue" d="M561.311,-134.396C550.18,-124.06 535.064,-110.024 523.525,-99.309"/>
<polygon fill="midnightblue" stroke="midnightblue" points="525.573,-96.4343 515.863,-92.1945 520.81,-101.564 525.573,-96.4343"/>
</g>
<!-- Node7&#45;&gt;Node4 -->
<g id="edge7" class="edge"><title>Node7&#45;&gt;Node4</title>
<path fill="none" stroke="midnightblue" d="M723.667,-136.481C688.615,-127.707 641.975,-114.485 602.5,-98 601.498,-97.5817 600.486,-97.1345 599.472,-96.6659"/>
<polygon fill="midnightblue" stroke="midnightblue" points="601.01,-93.5211 590.514,-92.0753 597.817,-99.7508 601.01,-93.5211"/>
</g>
<!-- Node7&#45;&gt;Node5 -->
<g id="edge10" class="edge"><title>Node7&#45;&gt;Node5</title>
<path fill="none" stroke="midnightblue" d="M743.939,-134.419C721.067,-124.444 689.804,-110.642 662.5,-98 661.348,-97.4668 660.174,-96.9185 658.989,-96.3616"/>
<polygon fill="midnightblue" stroke="midnightblue" points="660.436,-93.1745 649.903,-92.0324 657.425,-99.4937 660.436,-93.1745"/>
</g>
<!-- Node7&#45;&gt;Node6 -->
<g id="edge8" class="edge"><title>Node7&#45;&gt;Node6</title>
<path fill="none" stroke="midnightblue" d="M723.814,-138.433C677.553,-129.202 608.61,-114.491 549.5,-98 545.872,-96.9878 542.099,-95.8478 538.362,-94.6632"/>
<polygon fill="midnightblue" stroke="midnightblue" points="539.271,-91.2778 528.678,-91.4802 537.085,-97.9278 539.271,-91.2778"/>
</g>
<!-- Node8 -->
<g id="node8" class="node"><title>Node8</title>
<polygon fill="none" stroke="#bfbfbf" points="1148.5,-6 1148.5,-25 1200.5,-25 1200.5,-6 1148.5,-6"/>
<text text-anchor="middle" x="1174.5" y="-13" font-family="Helvetica,sans-Serif" font-size="10.00">memory</text>
</g>
<!-- Node7&#45;&gt;Node8 -->
<g id="edge9" class="edge"><title>Node7&#45;&gt;Node8</title>
<path fill="none" stroke="midnightblue" d="M778.951,-134.281C782.999,-115.513 792.992,-82.986 815.5,-67 874.562,-25.0517 1069.34,-49.0426 1139.5,-31 1142.01,-30.355 1144.57,-29.5654 1147.12,-28.6909"/>
<polygon fill="midnightblue" stroke="midnightblue" points="1148.59,-31.8759 1156.67,-25.024 1146.08,-25.341 1148.59,-31.8759"/>
</g>
<!-- Node10&#45;&gt;Node6 -->
<g id="edge13" class="edge"><title>Node10&#45;&gt;Node6</title>
<path fill="none" stroke="midnightblue" d="M337.887,-134.476C379.121,-122.01 438.319,-104.113 474.491,-93.1772"/>
<polygon fill="midnightblue" stroke="midnightblue" points="475.931,-96.3983 484.49,-90.1541 473.905,-89.6978 475.931,-96.3983"/>
</g>
<!-- Node11&#45;&gt;Node3 -->
<g id="edge16" class="edge"><title>Node11&#45;&gt;Node3</title>
<path fill="none" stroke="midnightblue" d="M639.924,-201.396C628.885,-192.538 614.458,-180.96 602.153,-171.086"/>
<polygon fill="midnightblue" stroke="midnightblue" points="604.031,-168.105 594.041,-164.577 599.65,-173.565 604.031,-168.105"/>
</g>
<!-- Node11&#45;&gt;Node4 -->
<g id="edge27" class="edge"><title>Node11&#45;&gt;Node4</title>
<path fill="none" stroke="midnightblue" d="M656.726,-201.493C655.211,-184.381 650.733,-155.108 637.5,-134 628.185,-119.141 613.007,-106.551 600.122,-97.6586"/>
<polygon fill="midnightblue" stroke="midnightblue" points="601.949,-94.6712 591.668,-92.1106 598.108,-100.524 601.949,-94.6712"/>
</g>
<!-- Node11&#45;&gt;Node5 -->
<g id="edge30" class="edge"><title>Node11&#45;&gt;Node5</title>
<path fill="none" stroke="midnightblue" d="M664.086,-201.322C670.825,-184.793 679.288,-156.827 671.5,-134 667.018,-120.864 657.581,-108.489 649.113,-99.2771"/>
<polygon fill="midnightblue" stroke="midnightblue" points="651.557,-96.7709 642.069,-92.0563 646.546,-101.659 651.557,-96.7709"/>
</g>
<!-- Node11&#45;&gt;Node6 -->
<g id="edge28" class="edge"><title>Node11&#45;&gt;Node6</title>
<path fill="none" stroke="midnightblue" d="M604.791,-210.754C573.567,-205.024 536.015,-192.461 514.5,-165 500.624,-147.289 500.846,-120.332 503.039,-102.327"/>
<polygon fill="midnightblue" stroke="midnightblue" points="506.535,-102.621 504.593,-92.2054 499.616,-101.558 506.535,-102.621"/>
</g>
<!-- Node11&#45;&gt;Node7 -->
<g id="edge15" class="edge"><title>Node11&#45;&gt;Node7</title>
<path fill="none" stroke="midnightblue" d="M683.321,-201.396C700.475,-192.026 723.196,-179.615 741.908,-169.395"/>
<polygon fill="midnightblue" stroke="midnightblue" points="743.631,-172.442 750.729,-164.577 740.275,-166.299 743.631,-172.442"/>
</g>
<!-- Node11&#45;&gt;Node8 -->
<g id="edge29" class="edge"><title>Node11&#45;&gt;Node8</title>
<path fill="none" stroke="midnightblue" d="M710.034,-207.394C757.037,-199.008 820.998,-184.412 837.5,-165 865.887,-131.606 817.684,-98.1666 848.5,-67 894.314,-20.6654 1076.5,-47.6205 1139.5,-31 1141.95,-30.3541 1144.45,-29.5745 1146.94,-28.7161"/>
<polygon fill="midnightblue" stroke="midnightblue" points="1148.21,-31.9774 1156.29,-25.1304 1145.7,-25.4411 1148.21,-31.9774"/>
</g>
<!-- Node11&#45;&gt;Node9 -->
<g id="edge17" class="edge"><title>Node11&#45;&gt;Node9</title>
<path fill="none" stroke="midnightblue" d="M605.072,-201.476C567.514,-191.43 516.771,-177.856 477.089,-167.242"/>
<polygon fill="midnightblue" stroke="midnightblue" points="477.818,-163.814 467.253,-164.611 476.009,-170.576 477.818,-163.814"/>
</g>
<!-- Node11&#45;&gt;Node10 -->
<g id="edge18" class="edge"><title>Node11&#45;&gt;Node10</title>
<path fill="none" stroke="midnightblue" d="M604.948,-207.93C546.09,-199.2 447.649,-183.844 353.95,-165.218"/>
<polygon fill="midnightblue" stroke="midnightblue" points="354.514,-161.762 344.022,-163.229 353.139,-168.625 354.514,-161.762"/>
</g>
<!-- Node11&#45;&gt;Node12 -->
<g id="edge19" class="edge"><title>Node11&#45;&gt;Node12</title>
<path fill="none" stroke="midnightblue" d="M604.891,-210.928C525.814,-203.695 371.455,-188.186 230.652,-165.092"/>
<polygon fill="midnightblue" stroke="midnightblue" points="230.977,-161.598 220.539,-163.416 229.833,-168.504 230.977,-161.598"/>
</g>
<!-- Node11&#45;&gt;Node17 -->
<g id="edge25" class="edge"><title>Node11&#45;&gt;Node17</title>
<path fill="none" stroke="midnightblue" d="M710.079,-210.345C830.85,-198.505 1127.66,-169.406 1257.72,-156.655"/>
<polygon fill="midnightblue" stroke="midnightblue" points="1258.31,-160.114 1267.92,-155.655 1257.62,-153.148 1258.31,-160.114"/>
</g>
<!-- Node12&#45;&gt;Node13 -->
<g id="edge20" class="edge"><title>Node12&#45;&gt;Node13</title>
<path fill="none" stroke="midnightblue" d="M160.113,-134.396C158.787,-126.56 157.101,-116.596 155.573,-107.565"/>
<polygon fill="midnightblue" stroke="midnightblue" points="159.002,-106.852 153.882,-97.5765 152.1,-108.02 159.002,-106.852"/>
</g>
<!-- Node13&#45;&gt;Node8 -->
<g id="edge23" class="edge"><title>Node13&#45;&gt;Node8</title>
<path fill="none" stroke="midnightblue" d="M206.013,-78.9645C409.826,-69.4529 1116.57,-36.1742 1139.5,-31 1142.17,-30.3965 1144.91,-29.6051 1147.61,-28.7029"/>
<polygon fill="midnightblue" stroke="midnightblue" points="1148.98,-31.9232 1157.08,-25.0882 1146.49,-25.383 1148.98,-31.9232"/>
</g>
<!-- Node14 -->
<g id="node14" class="node"><title>Node14</title>
<polygon fill="none" stroke="#bfbfbf" points="101.5,-6 101.5,-25 179.5,-25 179.5,-6 101.5,-6"/>
<text text-anchor="middle" x="140.5" y="-13" font-family="Helvetica,sans-Serif" font-size="10.00">boost/any.hpp</text>
</g>
<!-- Node13&#45;&gt;Node14 -->
<g id="edge21" class="edge"><title>Node13&#45;&gt;Node14</title>
<path fill="none" stroke="midnightblue" d="M149.113,-67.396C147.517,-57.9635 145.399,-45.4484 143.663,-35.1891"/>
<polygon fill="midnightblue" stroke="midnightblue" points="147.091,-34.4703 141.971,-25.1945 140.189,-35.6384 147.091,-34.4703"/>
</g>
<!-- Node15 -->
<g id="node15" class="node"><title>Node15</title>
<polygon fill="none" stroke="#bfbfbf" points="0,-6 0,-25 83,-25 83,-6 0,-6"/>
<text text-anchor="middle" x="41.5" y="-13" font-family="Helvetica,sans-Serif" font-size="10.00">unordered_map</text>
</g>
<!-- Node13&#45;&gt;Node15 -->
<g id="edge22" class="edge"><title>Node13&#45;&gt;Node15</title>
<path fill="none" stroke="midnightblue" d="M127.632,-67.396C108.929,-56.3442 83.0643,-41.0607 64.5694,-30.1319"/>
<polygon fill="midnightblue" stroke="midnightblue" points="66.2863,-27.0811 55.8965,-25.007 62.7252,-33.1076 66.2863,-27.0811"/>
</g>
<!-- Node16 -->
<g id="node16" class="node"><title>Node16</title>
<polygon fill="none" stroke="#bfbfbf" points="1218.5,-6 1218.5,-25 1272.5,-25 1272.5,-6 1218.5,-6"/>
<text text-anchor="middle" x="1245.5" y="-13" font-family="Helvetica,sans-Serif" font-size="10.00">iostream</text>
</g>
<!-- Node13&#45;&gt;Node16 -->
<g id="edge24" class="edge"><title>Node13&#45;&gt;Node16</title>
<path fill="none" stroke="midnightblue" d="M206.179,-79.0122C421.151,-69.216 1197.12,-33.707 1209.5,-31 1212.34,-30.3792 1215.24,-29.5561 1218.11,-28.6165"/>
<polygon fill="midnightblue" stroke="midnightblue" points="1219.41,-31.8663 1227.56,-25.0974 1216.97,-25.3061 1219.41,-31.8663"/>
</g>
<!-- Node18 -->
<g id="node18" class="node"><title>Node18</title>
<polygon fill="none" stroke="#bfbfbf" points="1291,-6 1291,-25 1340,-25 1340,-6 1291,-6"/>
<text text-anchor="middle" x="1315.5" y="-13" font-family="Helvetica,sans-Serif" font-size="10.00">stdint.h</text>
</g>
<!-- Node17&#45;&gt;Node18 -->
<g id="edge26" class="edge"><title>Node17&#45;&gt;Node18</title>
<path fill="none" stroke="midnightblue" d="M1319.96,-134.374C1319.06,-110.504 1317.23,-62.1815 1316.22,-35.4149"/>
<polygon fill="midnightblue" stroke="midnightblue" points="1319.7,-34.9576 1315.83,-25.0973 1312.71,-35.2226 1319.7,-34.9576"/>
</g>
<!-- Node19&#45;&gt;Node16 -->
<g id="edge66" class="edge"><title>Node19&#45;&gt;Node16</title>
<path fill="none" stroke="midnightblue" d="M1135.77,-201.258C1158.23,-180.703 1198.44,-140.497 1220.5,-98 1231.02,-77.7425 1237.93,-52.315 1241.77,-35.2982"/>
<polygon fill="midnightblue" stroke="midnightblue" points="1245.21,-35.9777 1243.86,-25.469 1238.36,-34.5251 1245.21,-35.9777"/>
</g>
<!-- Node19&#45;&gt;Node20 -->
<g id="edge34" class="edge"><title>Node19&#45;&gt;Node20</title>
<path fill="none" stroke="midnightblue" d="M1095.63,-201.396C1079.92,-192.112 1059.15,-179.841 1041.95,-169.674"/>
<polygon fill="midnightblue" stroke="midnightblue" points="1043.71,-166.651 1033.32,-164.577 1040.15,-172.677 1043.71,-166.651"/>
</g>
<!-- Node22 -->
<g id="node22" class="node"><title>Node22</title>
<polygon fill="none" stroke="#bfbfbf" points="1089.5,-73 1089.5,-92 1149.5,-92 1149.5,-73 1089.5,-73"/>
<text text-anchor="middle" x="1119.5" y="-80" font-family="Helvetica,sans-Serif" font-size="10.00">sys/stat.h</text>
</g>
<!-- Node19&#45;&gt;Node22 -->
<g id="edge64" class="edge"><title>Node19&#45;&gt;Node22</title>
<path fill="none" stroke="midnightblue" d="M1119.5,-201.374C1119.5,-177.504 1119.5,-129.181 1119.5,-102.415"/>
<polygon fill="midnightblue" stroke="midnightblue" points="1123,-102.097 1119.5,-92.0973 1116,-102.097 1123,-102.097"/>
</g>
<!-- Node23 -->
<g id="node23" class="node"><title>Node23</title>
<polygon fill="none" stroke="#bfbfbf" points="1167.5,-73 1167.5,-92 1211.5,-92 1211.5,-73 1167.5,-73"/>
<text text-anchor="middle" x="1189.5" y="-80" font-family="Helvetica,sans-Serif" font-size="10.00">fcntl.h</text>
</g>
<!-- Node19&#45;&gt;Node23 -->
<g id="edge65" class="edge"><title>Node19&#45;&gt;Node23</title>
<path fill="none" stroke="midnightblue" d="M1126.99,-201.374C1139.88,-177.076 1166.2,-127.44 1180.22,-100.996"/>
<polygon fill="midnightblue" stroke="midnightblue" points="1183.35,-102.572 1184.94,-92.0973 1177.16,-99.2921 1183.35,-102.572"/>
</g>
<!-- Node35 -->
<g id="node35" class="node"><title>Node35</title>
<g id="a_node35"><a xlink:href="CommunicationInterfaceROS_8h.html" target="_top" xlink:title="XCM/CommunicationInterface\lROS.h">
<polygon fill="none" stroke="black" points="1787,-134.5 1787,-164.5 1936,-164.5 1936,-134.5 1787,-134.5"/>
<text text-anchor="start" x="1795" y="-152.5" font-family="Helvetica,sans-Serif" font-size="10.00">XCM/CommunicationInterface</text>
<text text-anchor="middle" x="1861.5" y="-141.5" font-family="Helvetica,sans-Serif" font-size="10.00">ROS.h</text>
</a>
</g>
</g>
<!-- Node19&#45;&gt;Node35 -->
<g id="edge53" class="edge"><title>Node19&#45;&gt;Node35</title>
<path fill="none" stroke="midnightblue" d="M1188.14,-206.414C1203.7,-204.496 1220.16,-202.577 1235.5,-201 1428.63,-181.149 1655.95,-164.482 1776.46,-156.173"/>
<polygon fill="midnightblue" stroke="midnightblue" points="1776.99,-159.645 1786.72,-155.467 1776.51,-152.661 1776.99,-159.645"/>
</g>
<!-- Node20&#45;&gt;Node5 -->
<g id="edge35" class="edge"><title>Node20&#45;&gt;Node5</title>
<path fill="none" stroke="midnightblue" d="M956.992,-142.846C874.004,-133.576 716.413,-114.522 662.5,-98 660.827,-97.4873 659.13,-96.8932 657.439,-96.2443"/>
<polygon fill="midnightblue" stroke="midnightblue" points="658.578,-92.9219 648.014,-92.1107 655.766,-99.3325 658.578,-92.9219"/>
</g>
<!-- Node20&#45;&gt;Node8 -->
<g id="edge36" class="edge"><title>Node20&#45;&gt;Node8</title>
<path fill="none" stroke="midnightblue" d="M1012.6,-134.493C1017.26,-116.561 1027.69,-85.5907 1047.5,-67 1079.51,-36.9505 1098.77,-47.4035 1139.5,-31 1141.14,-30.3412 1142.81,-29.6613 1144.5,-28.972"/>
<polygon fill="midnightblue" stroke="midnightblue" points="1146.25,-32.0392 1154.17,-25.0022 1143.59,-25.5641 1146.25,-32.0392"/>
</g>
<!-- Node20&#45;&gt;Node16 -->
<g id="edge37" class="edge"><title>Node20&#45;&gt;Node16</title>
<path fill="none" stroke="midnightblue" d="M1020.25,-134.292C1036.27,-113.463 1066.06,-76.1163 1080.5,-67 1130.83,-35.2233 1153.14,-50.1488 1209.5,-31 1211.63,-30.2779 1213.81,-29.4982 1215.99,-28.6882"/>
<polygon fill="midnightblue" stroke="midnightblue" points="1217.4,-31.8973 1225.46,-25.0266 1214.88,-25.3684 1217.4,-31.8973"/>
</g>
<!-- Node21 -->
<g id="node21" class="node"><title>Node21</title>
<polygon fill="none" stroke="#bfbfbf" points="857.5,-73 857.5,-92 925.5,-92 925.5,-73 857.5,-73"/>
<text text-anchor="middle" x="891.5" y="-80" font-family="Helvetica,sans-Serif" font-size="10.00">sys/types.h</text>
</g>
<!-- Node20&#45;&gt;Node21 -->
<g id="edge38" class="edge"><title>Node20&#45;&gt;Node21</title>
<path fill="none" stroke="midnightblue" d="M983.896,-134.396C963.649,-123.243 935.58,-107.781 915.706,-96.8336"/>
<polygon fill="midnightblue" stroke="midnightblue" points="917.391,-93.7663 906.943,-92.007 914.014,-99.8976 917.391,-93.7663"/>
</g>
<!-- Node20&#45;&gt;Node22 -->
<g id="edge39" class="edge"><title>Node20&#45;&gt;Node22</title>
<path fill="none" stroke="midnightblue" d="M1033.37,-134.396C1052.07,-123.344 1077.94,-108.061 1096.43,-97.1319"/>
<polygon fill="midnightblue" stroke="midnightblue" points="1098.27,-100.108 1105.1,-92.007 1094.71,-94.0811 1098.27,-100.108"/>
</g>
<!-- Node20&#45;&gt;Node23 -->
<g id="edge40" class="edge"><title>Node20&#45;&gt;Node23</title>
<path fill="none" stroke="midnightblue" d="M1055.3,-134.429C1085.02,-124.944 1124.41,-111.699 1158.5,-98 1159.88,-97.4461 1161.28,-96.8621 1162.7,-96.2591"/>
<polygon fill="midnightblue" stroke="midnightblue" points="1164.24,-99.401 1171.94,-92.1236 1161.39,-93.0108 1164.24,-99.401"/>
</g>
<!-- Node24 -->
<g id="node24" class="node"><title>Node24</title>
<polygon fill="none" stroke="#bfbfbf" points="944,-73 944,-92 995,-92 995,-73 944,-73"/>
<text text-anchor="middle" x="969.5" y="-80" font-family="Helvetica,sans-Serif" font-size="10.00">unistd.h</text>
</g>
<!-- Node20&#45;&gt;Node24 -->
<g id="edge41" class="edge"><title>Node20&#45;&gt;Node24</title>
<path fill="none" stroke="midnightblue" d="M1000.82,-134.396C994.769,-124.562 986.656,-111.378 980.203,-100.892"/>
<polygon fill="midnightblue" stroke="midnightblue" points="983.072,-98.8768 974.85,-92.1945 977.111,-102.545 983.072,-98.8768"/>
</g>
<!-- Node25 -->
<g id="node25" class="node"><title>Node25</title>
<g id="a_node25"><a xlink:href="XBotUtils_8h.html" target="_top" xlink:title="XCM/XBotUtils.h">
<polygon fill="none" stroke="red" points="671.5,-73 671.5,-92 763.5,-92 763.5,-73 671.5,-73"/>
<text text-anchor="middle" x="717.5" y="-80" font-family="Helvetica,sans-Serif" font-size="10.00">XCM/XBotUtils.h</text>
</a>
</g>
</g>
<!-- Node20&#45;&gt;Node25 -->
<g id="edge42" class="edge"><title>Node20&#45;&gt;Node25</title>
<path fill="none" stroke="midnightblue" d="M956.959,-136.804C902.661,-124.717 818.611,-106.008 765.892,-94.2722"/>
<polygon fill="midnightblue" stroke="midnightblue" points="766.627,-90.8503 756.106,-92.0938 765.106,-97.6831 766.627,-90.8503"/>
</g>
<!-- Node25&#45;&gt;Node18 -->
<g id="edge43" class="edge"><title>Node25&#45;&gt;Node18</title>
<path fill="none" stroke="midnightblue" d="M763.544,-76.0929C788.641,-73.224 820.259,-69.7365 848.5,-67 1040.71,-48.3758 1094.07,-77.471 1281.5,-31 1283.86,-30.4137 1286.28,-29.6823 1288.67,-28.8618"/>
<polygon fill="midnightblue" stroke="midnightblue" points="1290.18,-32.0283 1298.22,-25.1305 1287.64,-25.5079 1290.18,-32.0283"/>
</g>
<!-- Node26 -->
<g id="node26" class="node"><title>Node26</title>
<polygon fill="none" stroke="#bfbfbf" points="197.5,-6 197.5,-25 243.5,-25 243.5,-6 197.5,-6"/>
<text text-anchor="middle" x="220.5" y="-13" font-family="Helvetica,sans-Serif" font-size="10.00">stdio.h</text>
</g>
<!-- Node25&#45;&gt;Node26 -->
<g id="edge44" class="edge"><title>Node25&#45;&gt;Node26</title>
<path fill="none" stroke="midnightblue" d="M688.344,-72.9761C679.761,-70.7321 670.308,-68.5173 661.5,-67 481.668,-36.0234 429.005,-77.3161 252.5,-31 250.343,-30.434 248.149,-29.7339 245.974,-28.9495"/>
<polygon fill="midnightblue" stroke="midnightblue" points="247.297,-25.7093 236.718,-25.1262 244.624,-32.1791 247.297,-25.7093"/>
</g>
<!-- Node27 -->
<g id="node27" class="node"><title>Node27</title>
<polygon fill="none" stroke="#bfbfbf" points="261.5,-6 261.5,-25 311.5,-25 311.5,-6 261.5,-6"/>
<text text-anchor="middle" x="286.5" y="-13" font-family="Helvetica,sans-Serif" font-size="10.00">fstream</text>
</g>
<!-- Node25&#45;&gt;Node27 -->
<g id="edge45" class="edge"><title>Node25&#45;&gt;Node27</title>
<path fill="none" stroke="midnightblue" d="M688.037,-72.9982C679.531,-70.7817 670.196,-68.5759 661.5,-67 511.545,-39.8253 468.002,-69.3161 320.5,-31 318.142,-30.3874 315.735,-29.6376 313.346,-28.8047"/>
<polygon fill="midnightblue" stroke="midnightblue" points="314.384,-25.4519 303.797,-25.052 311.824,-31.967 314.384,-25.4519"/>
</g>
<!-- Node28 -->
<g id="node28" class="node"><title>Node28</title>
<polygon fill="none" stroke="#bfbfbf" points="329.5,-6 329.5,-25 381.5,-25 381.5,-6 329.5,-6"/>
<text text-anchor="middle" x="355.5" y="-13" font-family="Helvetica,sans-Serif" font-size="10.00">sstream</text>
</g>
<!-- Node25&#45;&gt;Node28 -->
<g id="edge46" class="edge"><title>Node25&#45;&gt;Node28</title>
<path fill="none" stroke="midnightblue" d="M687.428,-72.9981C679.078,-70.8333 669.977,-68.6542 661.5,-67 542.247,-43.7292 507.843,-62.5193 390.5,-31 388.054,-30.3431 385.553,-29.5558 383.067,-28.6923"/>
<polygon fill="midnightblue" stroke="midnightblue" points="384.304,-25.418 373.714,-25.0979 381.793,-31.9522 384.304,-25.418"/>
</g>
<!-- Node29 -->
<g id="node29" class="node"><title>Node29</title>
<polygon fill="none" stroke="#bfbfbf" points="399.5,-6 399.5,-25 523.5,-25 523.5,-6 399.5,-6"/>
<text text-anchor="middle" x="461.5" y="-13" font-family="Helvetica,sans-Serif" font-size="10.00">boost/circular_buffer.hpp</text>
</g>
<!-- Node25&#45;&gt;Node29 -->
<g id="edge47" class="edge"><title>Node25&#45;&gt;Node29</title>
<path fill="none" stroke="midnightblue" d="M684.64,-72.9562C677.043,-70.9909 668.992,-68.9158 661.5,-67 607.765,-53.2594 545.847,-37.6613 505.314,-27.4823"/>
<polygon fill="midnightblue" stroke="midnightblue" points="506.039,-24.0558 495.488,-25.0156 504.335,-30.8451 506.039,-24.0558"/>
</g>
<!-- Node30 -->
<g id="node30" class="node"><title>Node30</title>
<polygon fill="none" stroke="#bfbfbf" points="541.5,-0.5 541.5,-30.5 643.5,-30.5 643.5,-0.5 541.5,-0.5"/>
<text text-anchor="start" x="549.5" y="-18.5" font-family="Helvetica,sans-Serif" font-size="10.00">boost/accumulators</text>
<text text-anchor="middle" x="592.5" y="-7.5" font-family="Helvetica,sans-Serif" font-size="10.00">/accumulators.hpp</text>
</g>
<!-- Node25&#45;&gt;Node30 -->
<g id="edge48" class="edge"><title>Node25&#45;&gt;Node30</title>
<path fill="none" stroke="midnightblue" d="M700.901,-72.8685C682.609,-63.3566 652.626,-47.7655 628.825,-35.3888"/>
<polygon fill="midnightblue" stroke="midnightblue" points="630.202,-32.1599 619.715,-30.6516 626.972,-38.3705 630.202,-32.1599"/>
</g>
<!-- Node31 -->
<g id="node31" class="node"><title>Node31</title>
<polygon fill="none" stroke="#bfbfbf" points="662,-0.5 662,-30.5 767,-30.5 767,-0.5 662,-0.5"/>
<text text-anchor="start" x="670" y="-18.5" font-family="Helvetica,sans-Serif" font-size="10.00">boost/accumulators</text>
<text text-anchor="middle" x="714.5" y="-7.5" font-family="Helvetica,sans-Serif" font-size="10.00">/statistics/count.hpp</text>
</g>
<!-- Node25&#45;&gt;Node31 -->
<g id="edge49" class="edge"><title>Node25&#45;&gt;Node31</title>
<path fill="none" stroke="midnightblue" d="M717.095,-72.7338C716.717,-64.5406 716.135,-51.9225 715.618,-40.7136"/>
<polygon fill="midnightblue" stroke="midnightblue" points="719.108,-40.417 715.15,-30.589 712.115,-40.7398 719.108,-40.417"/>
</g>
<!-- Node32 -->
<g id="node32" class="node"><title>Node32</title>
<polygon fill="none" stroke="#bfbfbf" points="785,-0.5 785,-30.5 890,-30.5 890,-0.5 785,-0.5"/>
<text text-anchor="start" x="793" y="-18.5" font-family="Helvetica,sans-Serif" font-size="10.00">boost/accumulators</text>
<text text-anchor="middle" x="837.5" y="-7.5" font-family="Helvetica,sans-Serif" font-size="10.00">/statistics/mean.hpp</text>
</g>
<!-- Node25&#45;&gt;Node32 -->
<g id="edge50" class="edge"><title>Node25&#45;&gt;Node32</title>
<path fill="none" stroke="midnightblue" d="M733.684,-72.7338C751.227,-63.2314 779.758,-47.777 802.475,-35.4719"/>
<polygon fill="midnightblue" stroke="midnightblue" points="804.364,-38.4294 811.49,-30.589 801.03,-32.2744 804.364,-38.4294"/>
</g>
<!-- Node33 -->
<g id="node33" class="node"><title>Node33</title>
<polygon fill="none" stroke="#bfbfbf" points="908.5,-0.5 908.5,-30.5 1010.5,-30.5 1010.5,-0.5 908.5,-0.5"/>
<text text-anchor="start" x="916.5" y="-18.5" font-family="Helvetica,sans-Serif" font-size="10.00">boost/accumulators</text>
<text text-anchor="middle" x="959.5" y="-7.5" font-family="Helvetica,sans-Serif" font-size="10.00">/statistics/min.hpp</text>
</g>
<!-- Node25&#45;&gt;Node33 -->
<g id="edge51" class="edge"><title>Node25&#45;&gt;Node33</title>
<path fill="none" stroke="midnightblue" d="M749.386,-72.9355C787.131,-62.7976 850.835,-45.687 898.225,-32.9582"/>
<polygon fill="midnightblue" stroke="midnightblue" points="899.325,-36.2869 908.075,-30.3126 897.509,-29.5265 899.325,-36.2869"/>
</g>
<!-- Node34 -->
<g id="node34" class="node"><title>Node34</title>
<polygon fill="none" stroke="#bfbfbf" points="1028.5,-0.5 1028.5,-30.5 1130.5,-30.5 1130.5,-0.5 1028.5,-0.5"/>
<text text-anchor="start" x="1036.5" y="-18.5" font-family="Helvetica,sans-Serif" font-size="10.00">boost/accumulators</text>
<text text-anchor="middle" x="1079.5" y="-7.5" font-family="Helvetica,sans-Serif" font-size="10.00">/statistics/max.hpp</text>
</g>
<!-- Node25&#45;&gt;Node34 -->
<g id="edge52" class="edge"><title>Node25&#45;&gt;Node34</title>
<path fill="none" stroke="midnightblue" d="M750.394,-72.99C759.167,-70.8741 768.664,-68.7213 777.5,-67 881.106,-46.8167 911.028,-51.4878 1018.26,-31.1346"/>
<polygon fill="midnightblue" stroke="midnightblue" points="1019.02,-34.5512 1028.18,-29.222 1017.7,-27.6777 1019.02,-34.5512"/>
</g>
<!-- Node36 -->
<g id="node36" class="node"><title>Node36</title>
<g id="a_node36"><a xlink:href="XBotCommunicationInterface_8h.html" target="_top" xlink:title="XCM/XBotCommunicationInterface.h">
<polygon fill="none" stroke="black" points="2345,-73 2345,-92 2524,-92 2524,-73 2345,-73"/>
<text text-anchor="middle" x="2434.5" y="-80" font-family="Helvetica,sans-Serif" font-size="10.00">XCM/XBotCommunicationInterface.h</text>
</a>
</g>
</g>
<!-- Node35&#45;&gt;Node36 -->
<g id="edge54" class="edge"><title>Node35&#45;&gt;Node36</title>
<path fill="none" stroke="midnightblue" d="M1936.07,-141.526C2029.7,-132.549 2195.2,-115.956 2336.5,-98 2347.21,-96.6387 2358.56,-95.0731 2369.6,-93.4851"/>
<polygon fill="midnightblue" stroke="midnightblue" points="2370.22,-96.9311 2379.61,-92.0258 2369.21,-90.0042 2370.22,-96.9311"/>
</g>
<!-- Node38 -->
<g id="node38" class="node"><title>Node38</title>
<polygon fill="none" stroke="#bfbfbf" points="2272,-73 2272,-92 2327,-92 2327,-73 2272,-73"/>
<text text-anchor="middle" x="2299.5" y="-80" font-family="Helvetica,sans-Serif" font-size="10.00">ros/ros.h</text>
</g>
<!-- Node35&#45;&gt;Node38 -->
<g id="edge56" class="edge"><title>Node35&#45;&gt;Node38</title>
<path fill="none" stroke="midnightblue" d="M1936.07,-144.651C2017.37,-139.178 2150.81,-126.445 2262.5,-98 2265.17,-97.321 2267.9,-96.5017 2270.61,-95.6024"/>
<polygon fill="midnightblue" stroke="midnightblue" points="2272.02,-98.8164 2280.21,-92.1018 2269.62,-92.2401 2272.02,-98.8164"/>
</g>
<!-- Node39 -->
<g id="node39" class="node"><title>Node39</title>
<polygon fill="none" stroke="#bfbfbf" points="1343.5,-73 1343.5,-92 1443.5,-92 1443.5,-73 1343.5,-73"/>
<text text-anchor="middle" x="1393.5" y="-80" font-family="Helvetica,sans-Serif" font-size="10.00">std_srvs/SetBool.h</text>
</g>
<!-- Node35&#45;&gt;Node39 -->
<g id="edge57" class="edge"><title>Node35&#45;&gt;Node39</title>
<path fill="none" stroke="midnightblue" d="M1786.84,-141.954C1704.54,-134.118 1568.43,-119.325 1452.5,-98 1446.92,-96.9743 1441.09,-95.7401 1435.35,-94.4302"/>
<polygon fill="midnightblue" stroke="midnightblue" points="1435.73,-90.9244 1425.2,-92.0192 1434.12,-97.735 1435.73,-90.9244"/>
</g>
<!-- Node40 -->
<g id="node40" class="node"><title>Node40</title>
<polygon fill="none" stroke="#bfbfbf" points="1461.5,-73 1461.5,-92 1541.5,-92 1541.5,-73 1461.5,-73"/>
<text text-anchor="middle" x="1501.5" y="-80" font-family="Helvetica,sans-Serif" font-size="10.00">boost/bind.hpp</text>
</g>
<!-- Node35&#45;&gt;Node40 -->
<g id="edge58" class="edge"><title>Node35&#45;&gt;Node40</title>
<path fill="none" stroke="midnightblue" d="M1786.84,-139.084C1723.52,-130.454 1630.49,-116.253 1550.5,-98 1546.36,-97.0564 1542.06,-95.9594 1537.81,-94.7994"/>
<polygon fill="midnightblue" stroke="midnightblue" points="1538.62,-91.3911 1528.04,-92.0204 1536.7,-98.1238 1538.62,-91.3911"/>
</g>
<!-- Node41 -->
<g id="node41" class="node"><title>Node41</title>
<polygon fill="none" stroke="#bfbfbf" points="1559.5,-67.5 1559.5,-97.5 1699.5,-97.5 1699.5,-67.5 1559.5,-67.5"/>
<text text-anchor="start" x="1567.5" y="-85.5" font-family="Helvetica,sans-Serif" font-size="10.00">RobotInterfaceROS/Generic</text>
<text text-anchor="middle" x="1629.5" y="-74.5" font-family="Helvetica,sans-Serif" font-size="10.00">ControlMessage.h</text>
</g>
<!-- Node35&#45;&gt;Node41 -->
<g id="edge59" class="edge"><title>Node35&#45;&gt;Node41</title>
<path fill="none" stroke="midnightblue" d="M1811.45,-134.476C1775.74,-124.472 1727.55,-110.971 1689.74,-100.377"/>
<polygon fill="midnightblue" stroke="midnightblue" points="1690.44,-96.9386 1679.87,-97.6109 1688.55,-103.679 1690.44,-96.9386"/>
</g>
<!-- Node42 -->
<g id="node42" class="node"><title>Node42</title>
<polygon fill="none" stroke="#bfbfbf" points="1717.5,-67.5 1717.5,-97.5 1857.5,-97.5 1857.5,-67.5 1717.5,-67.5"/>
<text text-anchor="start" x="1725.5" y="-85.5" font-family="Helvetica,sans-Serif" font-size="10.00">RobotInterfaceROS/Generic</text>
<text text-anchor="middle" x="1787.5" y="-74.5" font-family="Helvetica,sans-Serif" font-size="10.00">JointStateMessage.h</text>
</g>
<!-- Node35&#45;&gt;Node42 -->
<g id="edge60" class="edge"><title>Node35&#45;&gt;Node42</title>
<path fill="none" stroke="midnightblue" d="M1845.44,-134.396C1835.46,-125.623 1822.43,-114.183 1811.26,-104.371"/>
<polygon fill="midnightblue" stroke="midnightblue" points="1813.35,-101.546 1803.53,-97.5765 1808.73,-106.806 1813.35,-101.546"/>
</g>
<!-- Node43 -->
<g id="node43" class="node"><title>Node43</title>
<polygon fill="none" stroke="#bfbfbf" points="1876,-67.5 1876,-97.5 1997,-97.5 1997,-67.5 1876,-67.5"/>
<text text-anchor="start" x="1884" y="-85.5" font-family="Helvetica,sans-Serif" font-size="10.00">robot_state_publisher</text>
<text text-anchor="middle" x="1936.5" y="-74.5" font-family="Helvetica,sans-Serif" font-size="10.00">/robot_state_publisher.h</text>
</g>
<!-- Node35&#45;&gt;Node43 -->
<g id="edge61" class="edge"><title>Node35&#45;&gt;Node43</title>
<path fill="none" stroke="midnightblue" d="M1877.77,-134.396C1887.9,-125.623 1901.1,-114.183 1912.42,-104.371"/>
<polygon fill="midnightblue" stroke="midnightblue" points="1914.99,-106.771 1920.26,-97.5765 1910.41,-101.481 1914.99,-106.771"/>
</g>
<!-- Node44 -->
<g id="node44" class="node"><title>Node44</title>
<polygon fill="none" stroke="#bfbfbf" points="2015.5,-73 2015.5,-92 2121.5,-92 2121.5,-73 2015.5,-73"/>
<text text-anchor="middle" x="2068.5" y="-80" font-family="Helvetica,sans-Serif" font-size="10.00">XCM/cmd_service.h</text>
</g>
<!-- Node35&#45;&gt;Node44 -->
<g id="edge62" class="edge"><title>Node35&#45;&gt;Node44</title>
<path fill="none" stroke="midnightblue" d="M1906.16,-134.476C1943.59,-122.723 1996.39,-106.143 2031.49,-95.1205"/>
<polygon fill="midnightblue" stroke="midnightblue" points="2032.85,-98.3638 2041.34,-92.0287 2030.75,-91.6854 2032.85,-98.3638"/>
</g>
<!-- Node45 -->
<g id="node45" class="node"><title>Node45</title>
<polygon fill="none" stroke="#bfbfbf" points="2139.5,-73 2139.5,-92 2253.5,-92 2253.5,-73 2139.5,-73"/>
<text text-anchor="middle" x="2196.5" y="-80" font-family="Helvetica,sans-Serif" font-size="10.00">XCM/status_service.h</text>
</g>
<!-- Node35&#45;&gt;Node45 -->
<g id="edge63" class="edge"><title>Node35&#45;&gt;Node45</title>
<path fill="none" stroke="midnightblue" d="M1936.12,-135.126C1990.18,-125.283 2064.96,-111.347 2130.5,-98 2136.32,-96.8151 2142.41,-95.532 2148.45,-94.2358"/>
<polygon fill="midnightblue" stroke="midnightblue" points="2149.47,-97.5969 2158.5,-92.0572 2147.99,-90.7559 2149.47,-97.5969"/>
</g>
<!-- Node37 -->
<g id="node37" class="node"><title>Node37</title>
<polygon fill="none" stroke="#bfbfbf" points="2476.5,-6 2476.5,-25 2628.5,-25 2628.5,-6 2476.5,-6"/>
<text text-anchor="middle" x="2552.5" y="-13" font-family="Helvetica,sans-Serif" font-size="10.00">XBotInterface/RobotInterface.h</text>
</g>
<!-- Node36&#45;&gt;Node37 -->
<g id="edge55" class="edge"><title>Node36&#45;&gt;Node37</title>
<path fill="none" stroke="midnightblue" d="M2450.41,-72.7338C2470.32,-61.7695 2504.61,-42.8809 2527.9,-30.0495"/>
<polygon fill="midnightblue" stroke="midnightblue" points="2529.77,-33.0179 2536.84,-25.1273 2526.39,-26.8866 2529.77,-33.0179"/>
</g>
<!-- Node46&#45;&gt;Node11 -->
<g id="edge71" class="edge"><title>Node46&#45;&gt;Node11</title>
<path fill="none" stroke="midnightblue" d="M1076.86,-273.936C984.022,-261.442 812.498,-238.359 720.197,-225.938"/>
<polygon fill="midnightblue" stroke="midnightblue" points="720.537,-222.452 710.159,-224.587 719.603,-229.389 720.537,-222.452"/>
</g>
<!-- Node46&#45;&gt;Node19 -->
<g id="edge72" class="edge"><title>Node46&#45;&gt;Node19</title>
<path fill="none" stroke="midnightblue" d="M1137.67,-273.734C1134.99,-265.456 1130.86,-252.662 1127.21,-241.367"/>
<polygon fill="midnightblue" stroke="midnightblue" points="1130.46,-240.029 1124.05,-231.589 1123.8,-242.181 1130.46,-240.029"/>
</g>
<!-- Node46&#45;&gt;Node37 -->
<g id="edge70" class="edge"><title>Node46&#45;&gt;Node37</title>
<path fill="none" stroke="midnightblue" d="M1206.4,-275.87C1476.04,-248.472 2483.44,-143.406 2533.5,-98 2550.87,-82.2439 2553.89,-53.9558 2553.75,-35.2032"/>
<polygon fill="midnightblue" stroke="midnightblue" points="2557.25,-35.0537 2553.37,-25.1934 2550.25,-35.3187 2557.25,-35.0537"/>
</g>
<!-- Node47&#45;&gt;Node8 -->
<g id="edge74" class="edge"><title>Node47&#45;&gt;Node8</title>
<path fill="none" stroke="midnightblue" d="M1290.25,-206.789C1281.47,-197.167 1267.61,-180.919 1258.5,-165 1235.29,-124.457 1245.09,-106.719 1220.5,-67 1212.6,-54.2383 1201.27,-41.752 1191.83,-32.3879"/>
<polygon fill="midnightblue" stroke="midnightblue" points="1194.1,-29.7171 1184.46,-25.3189 1189.25,-34.768 1194.1,-29.7171"/>
</g>
<!-- Node48&#45;&gt;Node17 -->
<g id="edge76" class="edge"><title>Node48&#45;&gt;Node17</title>
<path fill="none" stroke="midnightblue" d="M2562.85,-212.665C2350.86,-202.058 1605.25,-164.748 1383.29,-153.642"/>
<polygon fill="midnightblue" stroke="midnightblue" points="1383.28,-150.137 1373.12,-153.133 1382.93,-157.129 1383.28,-150.137"/>
</g>
<!-- Node48&#45;&gt;Node37 -->
<g id="edge77" class="edge"><title>Node48&#45;&gt;Node37</title>
<path fill="none" stroke="midnightblue" d="M2616.62,-206.949C2606.55,-177.038 2572.75,-76.6574 2558.71,-34.9318"/>
<polygon fill="midnightblue" stroke="midnightblue" points="2561.95,-33.6035 2555.44,-25.243 2555.32,-35.8371 2561.95,-33.6035"/>
</g>
</g>
</svg>
