<?xml version="1.0" encoding="UTF-8" standalone="no"?>
<!DOCTYPE svg PUBLIC "-//W3C//DTD SVG 1.1//EN"
 "http://www.w3.org/Graphics/SVG/1.1/DTD/svg11.dtd">
<!-- Generated by graphviz version 2.38.0 (20140413.2041)
 -->
<!-- Title: /home/lucamuratore/advr&#45;superbuild/external/XCM/include/XCM/XBotUtils.h Pages: 1 -->
<svg width="2539pt" height="573pt"
 viewBox="0.00 0.00 2539.00 573.00" xmlns="http://www.w3.org/2000/svg" xmlns:xlink="http://www.w3.org/1999/xlink">
<g id="graph0" class="graph" transform="scale(1 1) rotate(0) translate(4 569)">
<title>/home/lucamuratore/advr&#45;superbuild/external/XCM/include/XCM/XBotUtils.h</title>
<!-- Node1 -->
<g id="node1" class="node"><title>Node1</title>
<polygon fill="#bfbfbf" stroke="black" points="1770,-523.5 1770,-564.5 1925,-564.5 1925,-523.5 1770,-523.5"/>
<text text-anchor="start" x="1778" y="-552.5" font-family="Helvetica,sans-Serif" font-size="10.00">/home/lucamuratore</text>
<text text-anchor="start" x="1778" y="-541.5" font-family="Helvetica,sans-Serif" font-size="10.00">/advr&#45;superbuild/external</text>
<text text-anchor="middle" x="1847.5" y="-530.5" font-family="Helvetica,sans-Serif" font-size="10.00">/XCM/include/XCM/XBotUtils.h</text>
</g>
<!-- Node2 -->
<g id="node2" class="node"><title>Node2</title>
<g id="a_node2"><a xlink:href="XBotPipes_8h.html" target="_top" xlink:title="/home/lucamuratore\l/advr&#45;superbuild/external\l/XCM/include/XBotCore&#45;interfaces\l/XBotPipes.h">
<polygon fill="none" stroke="black" points="443,-434.5 443,-486.5 610,-486.5 610,-434.5 443,-434.5"/>
<text text-anchor="start" x="451" y="-474.5" font-family="Helvetica,sans-Serif" font-size="10.00">/home/lucamuratore</text>
<text text-anchor="start" x="451" y="-463.5" font-family="Helvetica,sans-Serif" font-size="10.00">/advr&#45;superbuild/external</text>
<text text-anchor="start" x="451" y="-452.5" font-family="Helvetica,sans-Serif" font-size="10.00">/XCM/include/XBotCore&#45;interfaces</text>
<text text-anchor="middle" x="526.5" y="-441.5" font-family="Helvetica,sans-Serif" font-size="10.00">/XBotPipes.h</text>
</a>
</g>
</g>
<!-- Node1&#45;&gt;Node2 -->
<g id="edge1" class="edge"><title>Node1&#45;&gt;Node2</title>
<path fill="none" stroke="midnightblue" d="M1759.66,-537.581C1518.12,-522.679 846.296,-481.23 610.003,-466.652"/>
<polygon fill="midnightblue" stroke="midnightblue" points="1759.6,-541.084 1769.8,-538.206 1760.03,-534.097 1759.6,-541.084"/>
</g>
<!-- Node6 -->
<g id="node6" class="node"><title>Node6</title>
<g id="a_node6"><a xlink:href="NRTDeployer_8cpp.html" target="_top" xlink:title="/home/lucamuratore\l/advr&#45;superbuild/external\l/XCM/src/NRTDeployer.cpp">
<polygon fill="none" stroke="black" points="1350.5,-6 1350.5,-47 1490.5,-47 1490.5,-6 1350.5,-6"/>
<text text-anchor="start" x="1358.5" y="-35" font-family="Helvetica,sans-Serif" font-size="10.00">/home/lucamuratore</text>
<text text-anchor="start" x="1358.5" y="-24" font-family="Helvetica,sans-Serif" font-size="10.00">/advr&#45;superbuild/external</text>
<text text-anchor="middle" x="1420.5" y="-13" font-family="Helvetica,sans-Serif" font-size="10.00">/XCM/src/NRTDeployer.cpp</text>
</a>
</g>
</g>
<!-- Node1&#45;&gt;Node6 -->
<g id="edge38" class="edge"><title>Node1&#45;&gt;Node6</title>
<path fill="none" stroke="midnightblue" d="M1825.84,-515.211C1820.04,-506.581 1814.33,-496.762 1810.5,-487 1791.65,-438.984 1791.5,-424.085 1791.5,-372.5 1791.5,-372.5 1791.5,-372.5 1791.5,-203.5 1791.5,-71.7919 1598.28,-38.5213 1490.72,-30.204"/>
<polygon fill="midnightblue" stroke="midnightblue" points="1822.98,-517.231 1831.59,-523.399 1828.71,-513.205 1822.98,-517.231"/>
</g>
<!-- Node18 -->
<g id="node18" class="node"><title>Node18</title>
<g id="a_node18"><a xlink:href="XBotLoggingPlugin_8cpp.html" target="_top" xlink:title="/home/lucamuratore\l/advr&#45;superbuild/external\l/XCM/src/XBotPlugin/XBotLogging\lPlugin.cpp">
<polygon fill="none" stroke="black" points="986,-89.5 986,-141.5 1155,-141.5 1155,-89.5 986,-89.5"/>
<text text-anchor="start" x="994" y="-129.5" font-family="Helvetica,sans-Serif" font-size="10.00">/home/lucamuratore</text>
<text text-anchor="start" x="994" y="-118.5" font-family="Helvetica,sans-Serif" font-size="10.00">/advr&#45;superbuild/external</text>
<text text-anchor="start" x="994" y="-107.5" font-family="Helvetica,sans-Serif" font-size="10.00">/XCM/src/XBotPlugin/XBotLogging</text>
<text text-anchor="middle" x="1070.5" y="-96.5" font-family="Helvetica,sans-Serif" font-size="10.00">Plugin.cpp</text>
</a>
</g>
</g>
<!-- Node1&#45;&gt;Node18 -->
<g id="edge40" class="edge"><title>Node1&#45;&gt;Node18</title>
<path fill="none" stroke="midnightblue" d="M1805.77,-517.276C1795.11,-508.849 1784.65,-498.621 1777.5,-487 1750.26,-442.71 1753.5,-424.495 1753.5,-372.5 1753.5,-372.5 1753.5,-372.5 1753.5,-287 1753.5,-237.825 1771.12,-210.815 1734.5,-178 1687.15,-135.579 1226.2,-152.46 1163.5,-142 1160.78,-141.545 1158.02,-141.044 1155.24,-140.502"/>
<polygon fill="midnightblue" stroke="midnightblue" points="1803.81,-520.18 1813.92,-523.362 1808,-514.573 1803.81,-520.18"/>
</g>
<!-- Node25 -->
<g id="node25" class="node"><title>Node25</title>
<g id="a_node25"><a xlink:href="XBotThread_8h.html" target="_top" xlink:title="/home/lucamuratore\l/advr&#45;superbuild/external\l/XCM/include/XCM/XBotThread.h">
<polygon fill="none" stroke="black" points="1346.5,-267.5 1346.5,-308.5 1510.5,-308.5 1510.5,-267.5 1346.5,-267.5"/>
<text text-anchor="start" x="1354.5" y="-296.5" font-family="Helvetica,sans-Serif" font-size="10.00">/home/lucamuratore</text>
<text text-anchor="start" x="1354.5" y="-285.5" font-family="Helvetica,sans-Serif" font-size="10.00">/advr&#45;superbuild/external</text>
<text text-anchor="middle" x="1428.5" y="-274.5" font-family="Helvetica,sans-Serif" font-size="10.00">/XCM/include/XCM/XBotThread.h</text>
</a>
</g>
</g>
<!-- Node1&#45;&gt;Node25 -->
<g id="edge31" class="edge"><title>Node1&#45;&gt;Node25</title>
<path fill="none" stroke="midnightblue" d="M1798.84,-518.928C1780.1,-509.353 1758.61,-498.008 1739.5,-487 1633.29,-425.815 1511.95,-345.373 1457.55,-308.721"/>
<polygon fill="midnightblue" stroke="midnightblue" points="1797.3,-522.071 1807.8,-523.477 1800.47,-515.829 1797.3,-522.071"/>
</g>
<!-- Node28 -->
<g id="node28" class="node"><title>Node28</title>
<g id="a_node28"><a xlink:href="CommunicationInterfaceROS_8cpp.html" target="_top" xlink:title="/home/lucamuratore\l/advr&#45;superbuild/external\l/XCM/src/CommunicationInterface\lROS.cpp">
<polygon fill="none" stroke="black" points="1819.5,-434.5 1819.5,-486.5 1987.5,-486.5 1987.5,-434.5 1819.5,-434.5"/>
<text text-anchor="start" x="1827.5" y="-474.5" font-family="Helvetica,sans-Serif" font-size="10.00">/home/lucamuratore</text>
<text text-anchor="start" x="1827.5" y="-463.5" font-family="Helvetica,sans-Serif" font-size="10.00">/advr&#45;superbuild/external</text>
<text text-anchor="start" x="1827.5" y="-452.5" font-family="Helvetica,sans-Serif" font-size="10.00">/XCM/src/CommunicationInterface</text>
<text text-anchor="middle" x="1903.5" y="-441.5" font-family="Helvetica,sans-Serif" font-size="10.00">ROS.cpp</text>
</a>
</g>
</g>
<!-- Node1&#45;&gt;Node28 -->
<g id="edge37" class="edge"><title>Node1&#45;&gt;Node28</title>
<path fill="none" stroke="midnightblue" d="M1866.85,-514.834C1873.16,-505.66 1880.11,-495.542 1886.25,-486.607"/>
<polygon fill="midnightblue" stroke="midnightblue" points="1863.83,-513.047 1861.06,-523.271 1869.6,-517.011 1863.83,-513.047"/>
</g>
<!-- Node29 -->
<g id="node29" class="node"><title>Node29</title>
<g id="a_node29"><a xlink:href="XBotESCUtils_8cpp.html" target="_top" xlink:title="/home/lucamuratore\l/advr&#45;superbuild/external\l/XCM/src/XBotESCUtils.cpp">
<polygon fill="none" stroke="black" points="2006,-440 2006,-481 2149,-481 2149,-440 2006,-440"/>
<text text-anchor="start" x="2014" y="-469" font-family="Helvetica,sans-Serif" font-size="10.00">/home/lucamuratore</text>
<text text-anchor="start" x="2014" y="-458" font-family="Helvetica,sans-Serif" font-size="10.00">/advr&#45;superbuild/external</text>
<text text-anchor="middle" x="2077.5" y="-447" font-family="Helvetica,sans-Serif" font-size="10.00">/XCM/src/XBotESCUtils.cpp</text>
</a>
</g>
</g>
<!-- Node1&#45;&gt;Node29 -->
<g id="edge39" class="edge"><title>Node1&#45;&gt;Node29</title>
<path fill="none" stroke="midnightblue" d="M1912.17,-520.083C1946.92,-507.77 1989.31,-492.751 2022.46,-481.003"/>
<polygon fill="midnightblue" stroke="midnightblue" points="1910.85,-516.84 1902.59,-523.479 1913.19,-523.438 1910.85,-516.84"/>
</g>
<!-- Node30 -->
<g id="node30" class="node"><title>Node30</title>
<g id="a_node30"><a xlink:href="XBotFT_8cpp.html" target="_top" xlink:title="/home/lucamuratore\l/advr&#45;superbuild/external\l/XCM/src/XBotYARP/XBotFT\l/XBotFT.cpp">
<polygon fill="none" stroke="black" points="2167.5,-434.5 2167.5,-486.5 2315.5,-486.5 2315.5,-434.5 2167.5,-434.5"/>
<text text-anchor="start" x="2175.5" y="-474.5" font-family="Helvetica,sans-Serif" font-size="10.00">/home/lucamuratore</text>
<text text-anchor="start" x="2175.5" y="-463.5" font-family="Helvetica,sans-Serif" font-size="10.00">/advr&#45;superbuild/external</text>
<text text-anchor="start" x="2175.5" y="-452.5" font-family="Helvetica,sans-Serif" font-size="10.00">/XCM/src/XBotYARP/XBotFT</text>
<text text-anchor="middle" x="2241.5" y="-441.5" font-family="Helvetica,sans-Serif" font-size="10.00">/XBotFT.cpp</text>
</a>
</g>
</g>
<!-- Node1&#45;&gt;Node30 -->
<g id="edge41" class="edge"><title>Node1&#45;&gt;Node30</title>
<path fill="none" stroke="midnightblue" d="M1935.28,-530.076C1997.9,-520.157 2083.88,-505.111 2158.5,-487 2161.43,-486.289 2164.41,-485.533 2167.41,-484.744"/>
<polygon fill="midnightblue" stroke="midnightblue" points="1934.38,-526.675 1925.04,-531.685 1935.46,-533.59 1934.38,-526.675"/>
</g>
<!-- Node31 -->
<g id="node31" class="node"><title>Node31</title>
<g id="a_node31"><a xlink:href="XBotMotionControl_8cpp.html" target="_top" xlink:title="/home/lucamuratore\l/advr&#45;superbuild/external\l/XCM/src/XBotYARP/XBotMotionControl\l/XBotMotionControl.cpp">
<polygon fill="none" stroke="black" points="2334,-434.5 2334,-486.5 2531,-486.5 2531,-434.5 2334,-434.5"/>
<text text-anchor="start" x="2342" y="-474.5" font-family="Helvetica,sans-Serif" font-size="10.00">/home/lucamuratore</text>
<text text-anchor="start" x="2342" y="-463.5" font-family="Helvetica,sans-Serif" font-size="10.00">/advr&#45;superbuild/external</text>
<text text-anchor="start" x="2342" y="-452.5" font-family="Helvetica,sans-Serif" font-size="10.00">/XCM/src/XBotYARP/XBotMotionControl</text>
<text text-anchor="middle" x="2432.5" y="-441.5" font-family="Helvetica,sans-Serif" font-size="10.00">/XBotMotionControl.cpp</text>
</a>
</g>
</g>
<!-- Node1&#45;&gt;Node31 -->
<g id="edge42" class="edge"><title>Node1&#45;&gt;Node31</title>
<path fill="none" stroke="midnightblue" d="M1935.39,-535.734C2031.43,-527.086 2189.61,-510.761 2324.5,-487 2327.54,-486.465 2330.61,-485.898 2333.72,-485.304"/>
<polygon fill="midnightblue" stroke="midnightblue" points="1934.79,-532.274 1925.15,-536.649 1935.42,-539.246 1934.79,-532.274"/>
</g>
<!-- Node3 -->
<g id="node3" class="node"><title>Node3</title>
<g id="a_node3"><a xlink:href="All_8h.html" target="_top" xlink:title="/home/lucamuratore\l/advr&#45;superbuild/external\l/XCM/include/XBotCore&#45;interfaces/All.h">
<polygon fill="none" stroke="black" points="111.5,-267.5 111.5,-308.5 301.5,-308.5 301.5,-267.5 111.5,-267.5"/>
<text text-anchor="start" x="119.5" y="-296.5" font-family="Helvetica,sans-Serif" font-size="10.00">/home/lucamuratore</text>
<text text-anchor="start" x="119.5" y="-285.5" font-family="Helvetica,sans-Serif" font-size="10.00">/advr&#45;superbuild/external</text>
<text text-anchor="middle" x="206.5" y="-274.5" font-family="Helvetica,sans-Serif" font-size="10.00">/XCM/include/XBotCore&#45;interfaces/All.h</text>
</a>
</g>
</g>
<!-- Node2&#45;&gt;Node3 -->
<g id="edge2" class="edge"><title>Node2&#45;&gt;Node3</title>
<path fill="none" stroke="midnightblue" d="M470.349,-429.582C405.056,-394.793 299.141,-338.36 243.438,-308.681"/>
<polygon fill="midnightblue" stroke="midnightblue" points="468.812,-432.729 479.283,-434.342 472.103,-426.551 468.812,-432.729"/>
</g>
<!-- Node9 -->
<g id="node9" class="node"><title>Node9</title>
<g id="a_node9"><a xlink:href="XBotPluginHandler_8cpp.html" target="_top" xlink:title="/home/lucamuratore\l/advr&#45;superbuild/external\l/XCM/src/XBotPluginHandler.cpp">
<polygon fill="none" stroke="black" points="0,-95 0,-136 163,-136 163,-95 0,-95"/>
<text text-anchor="start" x="8" y="-124" font-family="Helvetica,sans-Serif" font-size="10.00">/home/lucamuratore</text>
<text text-anchor="start" x="8" y="-113" font-family="Helvetica,sans-Serif" font-size="10.00">/advr&#45;superbuild/external</text>
<text text-anchor="middle" x="81.5" y="-102" font-family="Helvetica,sans-Serif" font-size="10.00">/XCM/src/XBotPluginHandler.cpp</text>
</a>
</g>
</g>
<!-- Node2&#45;&gt;Node9 -->
<g id="edge30" class="edge"><title>Node2&#45;&gt;Node9</title>
<path fill="none" stroke="midnightblue" d="M432.818,-455.073C333.192,-444.851 179.582,-412.134 102.5,-309 63.5559,-256.894 71.4865,-173.578 77.6802,-136.002"/>
<polygon fill="midnightblue" stroke="midnightblue" points="432.595,-458.568 442.886,-456.049 433.27,-451.6 432.595,-458.568"/>
</g>
<!-- Node10 -->
<g id="node10" class="node"><title>Node10</title>
<g id="a_node10"><a xlink:href="XDomainCommunication_8h.html" target="_top" xlink:title="/home/lucamuratore\l/advr&#45;superbuild/external\l/XCM/include/XBotCore&#45;interfaces\l/XDomainCommunication.h">
<polygon fill="none" stroke="black" points="586,-345.5 586,-397.5 753,-397.5 753,-345.5 586,-345.5"/>
<text text-anchor="start" x="594" y="-385.5" font-family="Helvetica,sans-Serif" font-size="10.00">/home/lucamuratore</text>
<text text-anchor="start" x="594" y="-374.5" font-family="Helvetica,sans-Serif" font-size="10.00">/advr&#45;superbuild/external</text>
<text text-anchor="start" x="594" y="-363.5" font-family="Helvetica,sans-Serif" font-size="10.00">/XCM/include/XBotCore&#45;interfaces</text>
<text text-anchor="middle" x="669.5" y="-352.5" font-family="Helvetica,sans-Serif" font-size="10.00">/XDomainCommunication.h</text>
</a>
</g>
</g>
<!-- Node2&#45;&gt;Node10 -->
<g id="edge9" class="edge"><title>Node2&#45;&gt;Node10</title>
<path fill="none" stroke="midnightblue" d="M576.516,-429.07C593.418,-418.788 612.085,-407.431 628.231,-397.607"/>
<polygon fill="midnightblue" stroke="midnightblue" points="574.586,-426.148 567.862,-434.336 578.224,-432.128 574.586,-426.148"/>
</g>
<!-- Node4 -->
<g id="node4" class="node"><title>Node4</title>
<g id="a_node4"><a xlink:href="XBotPluginHandler_8h.html" target="_top" xlink:title="/home/lucamuratore\l/advr&#45;superbuild/external\l/XCM/include/XCM/XBotPluginHandler.h">
<polygon fill="none" stroke="black" points="109,-184 109,-225 304,-225 304,-184 109,-184"/>
<text text-anchor="start" x="117" y="-213" font-family="Helvetica,sans-Serif" font-size="10.00">/home/lucamuratore</text>
<text text-anchor="start" x="117" y="-202" font-family="Helvetica,sans-Serif" font-size="10.00">/advr&#45;superbuild/external</text>
<text text-anchor="middle" x="206.5" y="-191" font-family="Helvetica,sans-Serif" font-size="10.00">/XCM/include/XCM/XBotPluginHandler.h</text>
</a>
</g>
</g>
<!-- Node3&#45;&gt;Node4 -->
<g id="edge3" class="edge"><title>Node3&#45;&gt;Node4</title>
<path fill="none" stroke="midnightblue" d="M206.5,-257.065C206.5,-246.382 206.5,-234.63 206.5,-225.047"/>
<polygon fill="midnightblue" stroke="midnightblue" points="203,-257.271 206.5,-267.271 210,-257.271 203,-257.271"/>
</g>
<!-- Node5 -->
<g id="node5" class="node"><title>Node5</title>
<g id="a_node5"><a xlink:href="NRTDeployer_8h.html" target="_top" xlink:title="/home/lucamuratore\l/advr&#45;superbuild/external\l/XCM/include/XCM/NRTDeployer.h">
<polygon fill="none" stroke="black" points="795,-95 795,-136 968,-136 968,-95 795,-95"/>
<text text-anchor="start" x="803" y="-124" font-family="Helvetica,sans-Serif" font-size="10.00">/home/lucamuratore</text>
<text text-anchor="start" x="803" y="-113" font-family="Helvetica,sans-Serif" font-size="10.00">/advr&#45;superbuild/external</text>
<text text-anchor="middle" x="881.5" y="-102" font-family="Helvetica,sans-Serif" font-size="10.00">/XCM/include/XCM/NRTDeployer.h</text>
</a>
</g>
</g>
<!-- Node4&#45;&gt;Node5 -->
<g id="edge4" class="edge"><title>Node4&#45;&gt;Node5</title>
<path fill="none" stroke="midnightblue" d="M314.249,-184.461C328.766,-182.143 343.482,-179.92 357.5,-178 508.927,-157.265 547.797,-160.606 699.5,-142 730.535,-138.194 764.48,-133.564 794.559,-129.3"/>
<polygon fill="midnightblue" stroke="midnightblue" points="313.555,-181.028 304.242,-186.078 314.672,-187.938 313.555,-181.028"/>
</g>
<!-- Node8 -->
<g id="node8" class="node"><title>Node8</title>
<g id="a_node8"><a xlink:href="DummyMain_8cpp.html" target="_top" xlink:title="/home/lucamuratore\l/advr&#45;superbuild/external\l/XCM/src/DummyMain.cpp">
<polygon fill="none" stroke="black" points="181.5,-95 181.5,-136 317.5,-136 317.5,-95 181.5,-95"/>
<text text-anchor="start" x="189.5" y="-124" font-family="Helvetica,sans-Serif" font-size="10.00">/home/lucamuratore</text>
<text text-anchor="start" x="189.5" y="-113" font-family="Helvetica,sans-Serif" font-size="10.00">/advr&#45;superbuild/external</text>
<text text-anchor="middle" x="249.5" y="-102" font-family="Helvetica,sans-Serif" font-size="10.00">/XCM/src/DummyMain.cpp</text>
</a>
</g>
</g>
<!-- Node4&#45;&gt;Node8 -->
<g id="edge7" class="edge"><title>Node4&#45;&gt;Node8</title>
<path fill="none" stroke="midnightblue" d="M220.805,-174.558C227.037,-161.949 234.181,-147.495 239.781,-136.164"/>
<polygon fill="midnightblue" stroke="midnightblue" points="217.551,-173.243 216.257,-183.758 223.826,-176.344 217.551,-173.243"/>
</g>
<!-- Node4&#45;&gt;Node9 -->
<g id="edge8" class="edge"><title>Node4&#45;&gt;Node9</title>
<path fill="none" stroke="midnightblue" d="M170.216,-178.246C151.009,-164.878 127.767,-148.702 109.891,-136.26"/>
<polygon fill="midnightblue" stroke="midnightblue" points="168.24,-181.136 178.448,-183.976 172.239,-175.39 168.24,-181.136"/>
</g>
<!-- Node5&#45;&gt;Node6 -->
<g id="edge5" class="edge"><title>Node5&#45;&gt;Node6</title>
<path fill="none" stroke="midnightblue" d="M960.181,-92.5734C965.686,-91.2883 971.165,-90.0811 976.5,-89 1107.49,-62.455 1262.57,-43.8465 1350.45,-34.4734"/>
<polygon fill="midnightblue" stroke="midnightblue" points="959.173,-89.2161 950.271,-94.9605 960.812,-96.0215 959.173,-89.2161"/>
</g>
<!-- Node7 -->
<g id="node7" class="node"><title>Node7</title>
<g id="a_node7"><a xlink:href="NRTDeployerMain_8cpp.html" target="_top" xlink:title="/home/lucamuratore\l/advr&#45;superbuild/external\l/XCM/src/NRTDeployerMain.cpp">
<polygon fill="none" stroke="black" points="801,-6 801,-47 962,-47 962,-6 801,-6"/>
<text text-anchor="start" x="809" y="-35" font-family="Helvetica,sans-Serif" font-size="10.00">/home/lucamuratore</text>
<text text-anchor="start" x="809" y="-24" font-family="Helvetica,sans-Serif" font-size="10.00">/advr&#45;superbuild/external</text>
<text text-anchor="middle" x="881.5" y="-13" font-family="Helvetica,sans-Serif" font-size="10.00">/XCM/src/NRTDeployerMain.cpp</text>
</a>
</g>
</g>
<!-- Node5&#45;&gt;Node7 -->
<g id="edge6" class="edge"><title>Node5&#45;&gt;Node7</title>
<path fill="none" stroke="midnightblue" d="M881.5,-84.4407C881.5,-72.1014 881.5,-58.1619 881.5,-47.1635"/>
<polygon fill="midnightblue" stroke="midnightblue" points="878,-84.7583 881.5,-94.7584 885,-84.7584 878,-84.7583"/>
</g>
<!-- Node10&#45;&gt;Node3 -->
<g id="edge10" class="edge"><title>Node10&#45;&gt;Node3</title>
<path fill="none" stroke="midnightblue" d="M575.903,-354.488C504.515,-342.215 403.766,-324.765 315.5,-309 310.954,-308.188 306.303,-307.353 301.606,-306.505"/>
<polygon fill="midnightblue" stroke="midnightblue" points="575.328,-357.94 585.776,-356.184 576.514,-351.041 575.328,-357.94"/>
</g>
<!-- Node10&#45;&gt;Node5 -->
<g id="edge13" class="edge"><title>Node10&#45;&gt;Node5</title>
<path fill="none" stroke="midnightblue" d="M763.42,-365.11C846.163,-358.166 957.733,-342.692 985.5,-309 997.372,-294.595 991.709,-284.604 985.5,-267 978.667,-247.624 968.588,-247.613 956.5,-231 933.012,-198.718 908.052,-159.495 893.668,-136.344"/>
<polygon fill="midnightblue" stroke="midnightblue" points="762.91,-361.64 753.225,-365.935 763.475,-368.617 762.91,-361.64"/>
</g>
<!-- Node11 -->
<g id="node11" class="node"><title>Node11</title>
<g id="a_node11"><a xlink:href="XBotCommunicationPlugin_8h.html" target="_top" xlink:title="/home/lucamuratore\l/advr&#45;superbuild/external\l/XCM/include/XBotPlugin\l/XBotCommunicationPlugin.h">
<polygon fill="none" stroke="black" points="546,-89.5 546,-141.5 691,-141.5 691,-89.5 546,-89.5"/>
<text text-anchor="start" x="554" y="-129.5" font-family="Helvetica,sans-Serif" font-size="10.00">/home/lucamuratore</text>
<text text-anchor="start" x="554" y="-118.5" font-family="Helvetica,sans-Serif" font-size="10.00">/advr&#45;superbuild/external</text>
<text text-anchor="start" x="554" y="-107.5" font-family="Helvetica,sans-Serif" font-size="10.00">/XCM/include/XBotPlugin</text>
<text text-anchor="middle" x="618.5" y="-96.5" font-family="Helvetica,sans-Serif" font-size="10.00">/XBotCommunicationPlugin.h</text>
</a>
</g>
</g>
<!-- Node10&#45;&gt;Node11 -->
<g id="edge11" class="edge"><title>Node10&#45;&gt;Node11</title>
<path fill="none" stroke="midnightblue" d="M575.526,-365.439C491.347,-358.707 376.9,-343.357 348.5,-309 332.009,-289.05 336.255,-202.219 357.5,-178 382.021,-150.046 477.574,-133.032 545.958,-124.189"/>
<polygon fill="midnightblue" stroke="midnightblue" points="575.395,-368.939 585.634,-366.218 575.933,-361.96 575.395,-368.939"/>
</g>
<!-- Node13 -->
<g id="node13" class="node"><title>Node13</title>
<g id="a_node13"><a xlink:href="XBotCommunicationHandler_8h.html" target="_top" xlink:title="/home/lucamuratore\l/advr&#45;superbuild/external\l/XCM/include/XCM/XBotCommunication\lHandler.h">
<polygon fill="none" stroke="black" points="1115.5,-178.5 1115.5,-230.5 1309.5,-230.5 1309.5,-178.5 1115.5,-178.5"/>
<text text-anchor="start" x="1123.5" y="-218.5" font-family="Helvetica,sans-Serif" font-size="10.00">/home/lucamuratore</text>
<text text-anchor="start" x="1123.5" y="-207.5" font-family="Helvetica,sans-Serif" font-size="10.00">/advr&#45;superbuild/external</text>
<text text-anchor="start" x="1123.5" y="-196.5" font-family="Helvetica,sans-Serif" font-size="10.00">/XCM/include/XCM/XBotCommunication</text>
<text text-anchor="middle" x="1212.5" y="-185.5" font-family="Helvetica,sans-Serif" font-size="10.00">Handler.h</text>
</a>
</g>
</g>
<!-- Node10&#45;&gt;Node13 -->
<g id="edge14" class="edge"><title>Node10&#45;&gt;Node13</title>
<path fill="none" stroke="midnightblue" d="M763.278,-366.171C908.825,-358.512 1175.58,-340.349 1205.5,-309 1225.02,-288.545 1223.23,-254.251 1218.93,-230.787"/>
<polygon fill="midnightblue" stroke="midnightblue" points="762.817,-362.69 753.013,-366.705 763.181,-369.681 762.817,-362.69"/>
</g>
<!-- Node16 -->
<g id="node16" class="node"><title>Node16</title>
<g id="a_node16"><a xlink:href="XBotControlPlugin_8h.html" target="_top" xlink:title="/home/lucamuratore\l/advr&#45;superbuild/external\l/XCM/include/XCM/XBotControlPlugin.h">
<polygon fill="none" stroke="black" points="358,-267.5 358,-308.5 551,-308.5 551,-267.5 358,-267.5"/>
<text text-anchor="start" x="366" y="-296.5" font-family="Helvetica,sans-Serif" font-size="10.00">/home/lucamuratore</text>
<text text-anchor="start" x="366" y="-285.5" font-family="Helvetica,sans-Serif" font-size="10.00">/advr&#45;superbuild/external</text>
<text text-anchor="middle" x="454.5" y="-274.5" font-family="Helvetica,sans-Serif" font-size="10.00">/XCM/include/XCM/XBotControlPlugin.h</text>
</a>
</g>
</g>
<!-- Node10&#45;&gt;Node16 -->
<g id="edge18" class="edge"><title>Node10&#45;&gt;Node16</title>
<path fill="none" stroke="midnightblue" d="M593.82,-341.812C564.758,-330.795 532.285,-318.486 506.005,-308.524"/>
<polygon fill="midnightblue" stroke="midnightblue" points="592.94,-345.222 603.532,-345.493 595.422,-338.676 592.94,-345.222"/>
</g>
<!-- Node20 -->
<g id="node20" class="node"><title>Node20</title>
<g id="a_node20"><a xlink:href="XBotModuleHandler_8h.html" target="_top" xlink:title="/home/lucamuratore\l/advr&#45;superbuild/external\l/XCM/include/XCM/XBotModuleHandler.h">
<polygon fill="none" stroke="black" points="569.5,-267.5 569.5,-308.5 769.5,-308.5 769.5,-267.5 569.5,-267.5"/>
<text text-anchor="start" x="577.5" y="-296.5" font-family="Helvetica,sans-Serif" font-size="10.00">/home/lucamuratore</text>
<text text-anchor="start" x="577.5" y="-285.5" font-family="Helvetica,sans-Serif" font-size="10.00">/advr&#45;superbuild/external</text>
<text text-anchor="middle" x="669.5" y="-274.5" font-family="Helvetica,sans-Serif" font-size="10.00">/XCM/include/XCM/XBotModuleHandler.h</text>
</a>
</g>
</g>
<!-- Node10&#45;&gt;Node20 -->
<g id="edge24" class="edge"><title>Node10&#45;&gt;Node20</title>
<path fill="none" stroke="midnightblue" d="M669.5,-335.147C669.5,-326.055 669.5,-316.597 669.5,-308.628"/>
<polygon fill="midnightblue" stroke="midnightblue" points="666,-335.16 669.5,-345.16 673,-335.16 666,-335.16"/>
</g>
<!-- Node22 -->
<g id="node22" class="node"><title>Node22</title>
<g id="a_node22"><a xlink:href="XBotXDDP_8h.html" target="_top" xlink:title="/home/lucamuratore\l/advr&#45;superbuild/external\l/XCM/include/XCM/XBotXDDP.h">
<polygon fill="none" stroke="black" points="1034,-267.5 1034,-308.5 1197,-308.5 1197,-267.5 1034,-267.5"/>
<text text-anchor="start" x="1042" y="-296.5" font-family="Helvetica,sans-Serif" font-size="10.00">/home/lucamuratore</text>
<text text-anchor="start" x="1042" y="-285.5" font-family="Helvetica,sans-Serif" font-size="10.00">/advr&#45;superbuild/external</text>
<text text-anchor="middle" x="1115.5" y="-274.5" font-family="Helvetica,sans-Serif" font-size="10.00">/XCM/include/XCM/XBotXDDP.h</text>
</a>
</g>
</g>
<!-- Node10&#45;&gt;Node22 -->
<g id="edge26" class="edge"><title>Node10&#45;&gt;Node22</title>
<path fill="none" stroke="midnightblue" d="M763.282,-354.845C833.846,-342.866 932.877,-325.629 1019.5,-309 1024.18,-308.101 1028.99,-307.16 1033.83,-306.196"/>
<polygon fill="midnightblue" stroke="midnightblue" points="762.357,-351.452 753.082,-356.573 763.526,-358.353 762.357,-351.452"/>
</g>
<!-- Node24 -->
<g id="node24" class="node"><title>Node24</title>
<g id="a_node24"><a xlink:href="XDomainCommunication_8cpp.html" target="_top" xlink:title="/home/lucamuratore\l/advr&#45;superbuild/external\l/XCM/src/XDomainCommunication.cpp">
<polygon fill="none" stroke="black" points="788,-267.5 788,-308.5 977,-308.5 977,-267.5 788,-267.5"/>
<text text-anchor="start" x="796" y="-296.5" font-family="Helvetica,sans-Serif" font-size="10.00">/home/lucamuratore</text>
<text text-anchor="start" x="796" y="-285.5" font-family="Helvetica,sans-Serif" font-size="10.00">/advr&#45;superbuild/external</text>
<text text-anchor="middle" x="882.5" y="-274.5" font-family="Helvetica,sans-Serif" font-size="10.00">/XCM/src/XDomainCommunication.cpp</text>
</a>
</g>
</g>
<!-- Node10&#45;&gt;Node24 -->
<g id="edge29" class="edge"><title>Node10&#45;&gt;Node24</title>
<path fill="none" stroke="midnightblue" d="M744.476,-341.812C773.268,-330.795 805.439,-318.486 831.474,-308.524"/>
<polygon fill="midnightblue" stroke="midnightblue" points="742.943,-338.651 734.855,-345.493 745.445,-345.189 742.943,-338.651"/>
</g>
<!-- Node12 -->
<g id="node12" class="node"><title>Node12</title>
<g id="a_node12"><a xlink:href="XBotCommunicationPlugin_8cpp.html" target="_top" xlink:title="/home/lucamuratore\l/advr&#45;superbuild/external\l/XCM/src/XBotPlugin/XBotCommunication\lPlugin.cpp">
<polygon fill="none" stroke="black" points="517,-0.5 517,-52.5 720,-52.5 720,-0.5 517,-0.5"/>
<text text-anchor="start" x="525" y="-40.5" font-family="Helvetica,sans-Serif" font-size="10.00">/home/lucamuratore</text>
<text text-anchor="start" x="525" y="-29.5" font-family="Helvetica,sans-Serif" font-size="10.00">/advr&#45;superbuild/external</text>
<text text-anchor="start" x="525" y="-18.5" font-family="Helvetica,sans-Serif" font-size="10.00">/XCM/src/XBotPlugin/XBotCommunication</text>
<text text-anchor="middle" x="618.5" y="-7.5" font-family="Helvetica,sans-Serif" font-size="10.00">Plugin.cpp</text>
</a>
</g>
</g>
<!-- Node11&#45;&gt;Node12 -->
<g id="edge12" class="edge"><title>Node11&#45;&gt;Node12</title>
<path fill="none" stroke="midnightblue" d="M618.5,-79.1908C618.5,-70.2824 618.5,-60.8986 618.5,-52.6075"/>
<polygon fill="midnightblue" stroke="midnightblue" points="615,-79.336 618.5,-89.336 622,-79.336 615,-79.336"/>
</g>
<!-- Node13&#45;&gt;Node11 -->
<g id="edge15" class="edge"><title>Node13&#45;&gt;Node11</title>
<path fill="none" stroke="midnightblue" d="M1105.23,-178.054C962.796,-153.686 924.192,-160.383 785.5,-142 754.535,-137.896 720.432,-132.793 691.16,-128.233"/>
<polygon fill="midnightblue" stroke="midnightblue" points="1104.76,-181.525 1115.21,-179.784 1105.96,-174.628 1104.76,-181.525"/>
</g>
<!-- Node14 -->
<g id="node14" class="node"><title>Node14</title>
<g id="a_node14"><a xlink:href="XBotCommunicationHandler_8cpp.html" target="_top" xlink:title="/home/lucamuratore\l/advr&#45;superbuild/external\l/XCM/src/XBotCommunicationHandler.cpp">
<polygon fill="none" stroke="black" points="1382.5,-95 1382.5,-136 1586.5,-136 1586.5,-95 1382.5,-95"/>
<text text-anchor="start" x="1390.5" y="-124" font-family="Helvetica,sans-Serif" font-size="10.00">/home/lucamuratore</text>
<text text-anchor="start" x="1390.5" y="-113" font-family="Helvetica,sans-Serif" font-size="10.00">/advr&#45;superbuild/external</text>
<text text-anchor="middle" x="1484.5" y="-102" font-family="Helvetica,sans-Serif" font-size="10.00">/XCM/src/XBotCommunicationHandler.cpp</text>
</a>
</g>
</g>
<!-- Node13&#45;&gt;Node14 -->
<g id="edge16" class="edge"><title>Node13&#45;&gt;Node14</title>
<path fill="none" stroke="midnightblue" d="M1300.57,-175.331C1340.58,-162.532 1386.95,-147.702 1423.12,-136.134"/>
<polygon fill="midnightblue" stroke="midnightblue" points="1299.27,-172.073 1290.81,-178.453 1301.4,-178.74 1299.27,-172.073"/>
</g>
<!-- Node15 -->
<g id="node15" class="node"><title>Node15</title>
<g id="a_node15"><a xlink:href="XBotCommunicationMain_8cpp.html" target="_top" xlink:title="/home/lucamuratore\l/advr&#45;superbuild/external\l/XCM/src/XBotCommunicationMain.cpp">
<polygon fill="none" stroke="black" points="1173,-95 1173,-136 1364,-136 1364,-95 1173,-95"/>
<text text-anchor="start" x="1181" y="-124" font-family="Helvetica,sans-Serif" font-size="10.00">/home/lucamuratore</text>
<text text-anchor="start" x="1181" y="-113" font-family="Helvetica,sans-Serif" font-size="10.00">/advr&#45;superbuild/external</text>
<text text-anchor="middle" x="1268.5" y="-102" font-family="Helvetica,sans-Serif" font-size="10.00">/XCM/src/XBotCommunicationMain.cpp</text>
</a>
</g>
</g>
<!-- Node13&#45;&gt;Node15 -->
<g id="edge17" class="edge"><title>Node13&#45;&gt;Node15</title>
<path fill="none" stroke="midnightblue" d="M1234.16,-169.842C1241.52,-158.417 1249.49,-146.037 1255.9,-136.082"/>
<polygon fill="midnightblue" stroke="midnightblue" points="1231.17,-168.033 1228.7,-178.336 1237.05,-171.822 1231.17,-168.033"/>
</g>
<!-- Node16&#45;&gt;Node4 -->
<g id="edge22" class="edge"><title>Node16&#45;&gt;Node4</title>
<path fill="none" stroke="midnightblue" d="M385.243,-264.24C347.687,-251.898 301.748,-236.801 265.847,-225.003"/>
<polygon fill="midnightblue" stroke="midnightblue" points="384.505,-267.682 395.098,-267.479 386.69,-261.032 384.505,-267.682"/>
</g>
<!-- Node16&#45;&gt;Node11 -->
<g id="edge19" class="edge"><title>Node16&#45;&gt;Node11</title>
<path fill="none" stroke="midnightblue" d="M497.391,-261.812C510.68,-252.965 524.873,-242.37 536.5,-231 540.357,-227.228 577.874,-174.23 600.803,-141.677"/>
<polygon fill="midnightblue" stroke="midnightblue" points="495.313,-258.988 488.825,-267.364 499.12,-264.862 495.313,-258.988"/>
</g>
<!-- Node17 -->
<g id="node17" class="node"><title>Node17</title>
<g id="a_node17"><a xlink:href="XBotLoggingPlugin_8h.html" target="_top" xlink:title="/home/lucamuratore\l/advr&#45;superbuild/external\l/XCM/include/XBotPlugin\l/XBotLoggingPlugin.h">
<polygon fill="none" stroke="black" points="584.5,-178.5 584.5,-230.5 712.5,-230.5 712.5,-178.5 584.5,-178.5"/>
<text text-anchor="start" x="592.5" y="-218.5" font-family="Helvetica,sans-Serif" font-size="10.00">/home/lucamuratore</text>
<text text-anchor="start" x="592.5" y="-207.5" font-family="Helvetica,sans-Serif" font-size="10.00">/advr&#45;superbuild/external</text>
<text text-anchor="start" x="592.5" y="-196.5" font-family="Helvetica,sans-Serif" font-size="10.00">/XCM/include/XBotPlugin</text>
<text text-anchor="middle" x="648.5" y="-185.5" font-family="Helvetica,sans-Serif" font-size="10.00">/XBotLoggingPlugin.h</text>
</a>
</g>
</g>
<!-- Node16&#45;&gt;Node17 -->
<g id="edge20" class="edge"><title>Node16&#45;&gt;Node17</title>
<path fill="none" stroke="midnightblue" d="M510.494,-263.477C535.033,-253.168 563.863,-241.056 588.809,-230.576"/>
<polygon fill="midnightblue" stroke="midnightblue" points="508.832,-260.379 500.968,-267.479 511.543,-266.832 508.832,-260.379"/>
</g>
<!-- Node19 -->
<g id="node19" class="node"><title>Node19</title>
<g id="a_node19"><a xlink:href="XBotControlPlugin_8cpp.html" target="_top" xlink:title="/home/lucamuratore\l/advr&#45;superbuild/external\l/XCM/src/XBotControlPlugin.cpp">
<polygon fill="none" stroke="black" points="367,-184 367,-225 528,-225 528,-184 367,-184"/>
<text text-anchor="start" x="375" y="-213" font-family="Helvetica,sans-Serif" font-size="10.00">/home/lucamuratore</text>
<text text-anchor="start" x="375" y="-202" font-family="Helvetica,sans-Serif" font-size="10.00">/advr&#45;superbuild/external</text>
<text text-anchor="middle" x="447.5" y="-191" font-family="Helvetica,sans-Serif" font-size="10.00">/XCM/src/XBotControlPlugin.cpp</text>
</a>
</g>
</g>
<!-- Node16&#45;&gt;Node19 -->
<g id="edge23" class="edge"><title>Node16&#45;&gt;Node19</title>
<path fill="none" stroke="midnightblue" d="M451.929,-257.065C451.011,-246.382 450.002,-234.63 449.179,-225.047"/>
<polygon fill="midnightblue" stroke="midnightblue" points="448.462,-257.607 452.805,-267.271 455.437,-257.008 448.462,-257.607"/>
</g>
<!-- Node17&#45;&gt;Node18 -->
<g id="edge21" class="edge"><title>Node17&#45;&gt;Node18</title>
<path fill="none" stroke="midnightblue" d="M722.763,-177.894C834.584,-151.763 867.558,-164.376 976.5,-142 979.564,-141.371 982.677,-140.699 985.814,-139.995"/>
<polygon fill="midnightblue" stroke="midnightblue" points="721.694,-174.551 712.781,-180.279 723.321,-181.359 721.694,-174.551"/>
</g>
<!-- Node21 -->
<g id="node21" class="node"><title>Node21</title>
<g id="a_node21"><a xlink:href="XBotModuleHandler_8cpp.html" target="_top" xlink:title="/home/lucamuratore\l/advr&#45;superbuild/external\l/XCM/src/XBotModuleHandler.cpp">
<polygon fill="none" stroke="black" points="731,-184 731,-225 898,-225 898,-184 731,-184"/>
<text text-anchor="start" x="739" y="-213" font-family="Helvetica,sans-Serif" font-size="10.00">/home/lucamuratore</text>
<text text-anchor="start" x="739" y="-202" font-family="Helvetica,sans-Serif" font-size="10.00">/advr&#45;superbuild/external</text>
<text text-anchor="middle" x="814.5" y="-191" font-family="Helvetica,sans-Serif" font-size="10.00">/XCM/src/XBotModuleHandler.cpp</text>
</a>
</g>
</g>
<!-- Node20&#45;&gt;Node21 -->
<g id="edge25" class="edge"><title>Node20&#45;&gt;Node21</title>
<path fill="none" stroke="midnightblue" d="M713.107,-262.49C734.453,-250.492 759.793,-236.249 779.801,-225.003"/>
<polygon fill="midnightblue" stroke="midnightblue" points="711.234,-259.528 704.231,-267.479 714.663,-265.63 711.234,-259.528"/>
</g>
<!-- Node22&#45;&gt;Node13 -->
<g id="edge27" class="edge"><title>Node22&#45;&gt;Node13</title>
<path fill="none" stroke="midnightblue" d="M1146.68,-260.804C1158.2,-251.126 1171.22,-240.187 1182.62,-230.607"/>
<polygon fill="midnightblue" stroke="midnightblue" points="1144.39,-258.159 1138.98,-267.271 1148.89,-263.518 1144.39,-258.159"/>
</g>
<!-- Node23 -->
<g id="node23" class="node"><title>Node23</title>
<g id="a_node23"><a xlink:href="XBotXDDP_8cpp.html" target="_top" xlink:title="/home/lucamuratore\l/advr&#45;superbuild/external\l/XCM/src/XBotXDDP.cpp">
<polygon fill="none" stroke="black" points="966,-184 966,-225 1097,-225 1097,-184 966,-184"/>
<text text-anchor="start" x="974" y="-213" font-family="Helvetica,sans-Serif" font-size="10.00">/home/lucamuratore</text>
<text text-anchor="start" x="974" y="-202" font-family="Helvetica,sans-Serif" font-size="10.00">/advr&#45;superbuild/external</text>
<text text-anchor="middle" x="1031.5" y="-191" font-family="Helvetica,sans-Serif" font-size="10.00">/XCM/src/XBotXDDP.cpp</text>
</a>
</g>
</g>
<!-- Node22&#45;&gt;Node23 -->
<g id="edge28" class="edge"><title>Node22&#45;&gt;Node23</title>
<path fill="none" stroke="midnightblue" d="M1087.71,-260.038C1075.93,-248.604 1062.45,-235.529 1051.65,-225.047"/>
<polygon fill="midnightblue" stroke="midnightblue" points="1085.55,-262.82 1095.17,-267.271 1090.43,-257.796 1085.55,-262.82"/>
</g>
<!-- Node25&#45;&gt;Node5 -->
<g id="edge33" class="edge"><title>Node25&#45;&gt;Node5</title>
<path fill="none" stroke="midnightblue" d="M1410.25,-258.655C1390.25,-228.013 1359.89,-182.868 1351.5,-178 1279.09,-135.987 1058.88,-156.903 976.5,-142 967.426,-140.358 957.953,-138.275 948.653,-136.009"/>
<polygon fill="midnightblue" stroke="midnightblue" points="1407.46,-260.776 1415.84,-267.253 1413.33,-256.961 1407.46,-260.776"/>
</g>
<!-- Node25&#45;&gt;Node11 -->
<g id="edge32" class="edge"><title>Node25&#45;&gt;Node11</title>
<path fill="none" stroke="midnightblue" d="M1387.51,-261.613C1375.12,-252.82 1362.02,-242.307 1351.5,-231 1332.6,-210.686 1342.29,-192.282 1318.5,-178 1267.61,-147.448 844.502,-148.486 785.5,-142 754.452,-138.587 720.334,-133.601 691.074,-128.94"/>
<polygon fill="midnightblue" stroke="midnightblue" points="1385.72,-264.626 1395.94,-267.414 1389.69,-258.86 1385.72,-264.626"/>
</g>
<!-- Node25&#45;&gt;Node13 -->
<g id="edge34" class="edge"><title>Node25&#45;&gt;Node13</title>
<path fill="none" stroke="midnightblue" d="M1367.24,-263.886C1339.69,-253.49 1307.1,-241.195 1278.96,-230.576"/>
<polygon fill="midnightblue" stroke="midnightblue" points="1366.17,-267.223 1376.76,-267.479 1368.64,-260.674 1366.17,-267.223"/>
</g>
<!-- Node26 -->
<g id="node26" class="node"><title>Node26</title>
<g id="a_node26"><a xlink:href="XBotNRT__thread_8cpp.html" target="_top" xlink:title="/home/lucamuratore\l/advr&#45;superbuild/external\l/XCM/src/XBotNRT_thread.cpp">
<polygon fill="none" stroke="black" points="1404,-184 1404,-225 1559,-225 1559,-184 1404,-184"/>
<text text-anchor="start" x="1412" y="-213" font-family="Helvetica,sans-Serif" font-size="10.00">/home/lucamuratore</text>
<text text-anchor="start" x="1412" y="-202" font-family="Helvetica,sans-Serif" font-size="10.00">/advr&#45;superbuild/external</text>
<text text-anchor="middle" x="1481.5" y="-191" font-family="Helvetica,sans-Serif" font-size="10.00">/XCM/src/XBotNRT_thread.cpp</text>
</a>
</g>
</g>
<!-- Node25&#45;&gt;Node26 -->
<g id="edge35" class="edge"><title>Node25&#45;&gt;Node26</title>
<path fill="none" stroke="midnightblue" d="M1446.89,-258.725C1454.11,-247.612 1462.23,-235.129 1468.79,-225.047"/>
<polygon fill="midnightblue" stroke="midnightblue" points="1443.85,-256.98 1441.33,-267.271 1449.72,-260.796 1443.85,-256.98"/>
</g>
<!-- Node27 -->
<g id="node27" class="node"><title>Node27</title>
<g id="a_node27"><a xlink:href="XBotRT__thread_8cpp.html" target="_top" xlink:title="/home/lucamuratore\l/advr&#45;superbuild/external\l/XCM/src/XBotRT_thread.cpp">
<polygon fill="none" stroke="black" points="1577.5,-184 1577.5,-225 1725.5,-225 1725.5,-184 1577.5,-184"/>
<text text-anchor="start" x="1585.5" y="-213" font-family="Helvetica,sans-Serif" font-size="10.00">/home/lucamuratore</text>
<text text-anchor="start" x="1585.5" y="-202" font-family="Helvetica,sans-Serif" font-size="10.00">/advr&#45;superbuild/external</text>
<text text-anchor="middle" x="1651.5" y="-191" font-family="Helvetica,sans-Serif" font-size="10.00">/XCM/src/XBotRT_thread.cpp</text>
</a>
</g>
</g>
<!-- Node25&#45;&gt;Node27 -->
<g id="edge36" class="edge"><title>Node25&#45;&gt;Node27</title>
<path fill="none" stroke="midnightblue" d="M1491.64,-263.925C1525.25,-251.641 1566.13,-236.701 1598.14,-225.003"/>
<polygon fill="midnightblue" stroke="midnightblue" points="1490.11,-260.759 1481.91,-267.479 1492.51,-267.333 1490.11,-260.759"/>
</g>
</g>
</svg>
