<?xml version="1.0" encoding="UTF-8" standalone="no"?>
<!DOCTYPE svg PUBLIC "-//W3C//DTD SVG 1.1//EN"
 "http://www.w3.org/Graphics/SVG/1.1/DTD/svg11.dtd">
<!-- Generated by graphviz version 2.38.0 (20140413.2041)
 -->
<!-- Title: /home/lucamuratore/advr&#45;superbuild/external/XCM/include/XCM/XBotESCUtils.h Pages: 1 -->
<svg width="594pt" height="284pt"
 viewBox="0.00 0.00 593.50 284.00" xmlns="http://www.w3.org/2000/svg" xmlns:xlink="http://www.w3.org/1999/xlink">
<g id="graph0" class="graph" transform="scale(1 1) rotate(0) translate(4 280)">
<title>/home/lucamuratore/advr&#45;superbuild/external/XCM/include/XCM/XBotESCUtils.h</title>
<!-- Node1 -->
<g id="node1" class="node"><title>Node1</title>
<polygon fill="#bfbfbf" stroke="black" points="332,-234.5 332,-275.5 508,-275.5 508,-234.5 332,-234.5"/>
<text text-anchor="start" x="340" y="-263.5" font-family="Helvetica,sans-Serif" font-size="10.00">/home/lucamuratore</text>
<text text-anchor="start" x="340" y="-252.5" font-family="Helvetica,sans-Serif" font-size="10.00">/advr&#45;superbuild/external</text>
<text text-anchor="middle" x="420" y="-241.5" font-family="Helvetica,sans-Serif" font-size="10.00">/XCM/include/XCM/XBotESCUtils.h</text>
</g>
<!-- Node2 -->
<g id="node2" class="node"><title>Node2</title>
<g id="a_node2"><a xlink:href="XBotPluginHandler_8h.html" target="_top" xlink:title="/home/lucamuratore\l/advr&#45;superbuild/external\l/XCM/include/XCM/XBotPluginHandler.h">
<polygon fill="none" stroke="black" points="229.5,-156.5 229.5,-197.5 424.5,-197.5 424.5,-156.5 229.5,-156.5"/>
<text text-anchor="start" x="237.5" y="-185.5" font-family="Helvetica,sans-Serif" font-size="10.00">/home/lucamuratore</text>
<text text-anchor="start" x="237.5" y="-174.5" font-family="Helvetica,sans-Serif" font-size="10.00">/advr&#45;superbuild/external</text>
<text text-anchor="middle" x="327" y="-163.5" font-family="Helvetica,sans-Serif" font-size="10.00">/XCM/include/XCM/XBotPluginHandler.h</text>
</a>
</g>
</g>
<!-- Node1&#45;&gt;Node2 -->
<g id="edge1" class="edge"><title>Node1&#45;&gt;Node2</title>
<path fill="none" stroke="midnightblue" d="M388.263,-228.065C376.018,-218.057 362.248,-206.804 350.869,-197.506"/>
<polygon fill="midnightblue" stroke="midnightblue" points="386.092,-230.81 396.05,-234.428 390.522,-225.39 386.092,-230.81"/>
</g>
<!-- Node8 -->
<g id="node8" class="node"><title>Node8</title>
<g id="a_node8"><a xlink:href="XBotESCUtils_8cpp.html" target="_top" xlink:title="/home/lucamuratore\l/advr&#45;superbuild/external\l/XCM/src/XBotESCUtils.cpp">
<polygon fill="none" stroke="black" points="442.5,-156.5 442.5,-197.5 585.5,-197.5 585.5,-156.5 442.5,-156.5"/>
<text text-anchor="start" x="450.5" y="-185.5" font-family="Helvetica,sans-Serif" font-size="10.00">/home/lucamuratore</text>
<text text-anchor="start" x="450.5" y="-174.5" font-family="Helvetica,sans-Serif" font-size="10.00">/advr&#45;superbuild/external</text>
<text text-anchor="middle" x="514" y="-163.5" font-family="Helvetica,sans-Serif" font-size="10.00">/XCM/src/XBotESCUtils.cpp</text>
</a>
</g>
</g>
<!-- Node1&#45;&gt;Node8 -->
<g id="edge7" class="edge"><title>Node1&#45;&gt;Node8</title>
<path fill="none" stroke="midnightblue" d="M452.078,-228.065C464.455,-218.057 478.373,-206.804 489.875,-197.506"/>
<polygon fill="midnightblue" stroke="midnightblue" points="449.783,-225.419 444.207,-234.428 454.184,-230.863 449.783,-225.419"/>
</g>
<!-- Node3 -->
<g id="node3" class="node"><title>Node3</title>
<g id="a_node3"><a xlink:href="NRTDeployer_8h.html" target="_top" xlink:title="/home/lucamuratore\l/advr&#45;superbuild/external\l/XCM/include/XCM/NRTDeployer.h">
<polygon fill="none" stroke="black" points="67.5,-78.5 67.5,-119.5 240.5,-119.5 240.5,-78.5 67.5,-78.5"/>
<text text-anchor="start" x="75.5" y="-107.5" font-family="Helvetica,sans-Serif" font-size="10.00">/home/lucamuratore</text>
<text text-anchor="start" x="75.5" y="-96.5" font-family="Helvetica,sans-Serif" font-size="10.00">/advr&#45;superbuild/external</text>
<text text-anchor="middle" x="154" y="-85.5" font-family="Helvetica,sans-Serif" font-size="10.00">/XCM/include/XCM/NRTDeployer.h</text>
</a>
</g>
</g>
<!-- Node2&#45;&gt;Node3 -->
<g id="edge2" class="edge"><title>Node2&#45;&gt;Node3</title>
<path fill="none" stroke="midnightblue" d="M273.117,-152.329C249.112,-141.783 221.181,-129.513 198.401,-119.506"/>
<polygon fill="midnightblue" stroke="midnightblue" points="271.885,-155.61 282.448,-156.428 274.7,-149.202 271.885,-155.61"/>
</g>
<!-- Node6 -->
<g id="node6" class="node"><title>Node6</title>
<g id="a_node6"><a xlink:href="DummyMain_8cpp.html" target="_top" xlink:title="/home/lucamuratore\l/advr&#45;superbuild/external\l/XCM/src/DummyMain.cpp">
<polygon fill="none" stroke="black" points="259,-78.5 259,-119.5 395,-119.5 395,-78.5 259,-78.5"/>
<text text-anchor="start" x="267" y="-107.5" font-family="Helvetica,sans-Serif" font-size="10.00">/home/lucamuratore</text>
<text text-anchor="start" x="267" y="-96.5" font-family="Helvetica,sans-Serif" font-size="10.00">/advr&#45;superbuild/external</text>
<text text-anchor="middle" x="327" y="-85.5" font-family="Helvetica,sans-Serif" font-size="10.00">/XCM/src/DummyMain.cpp</text>
</a>
</g>
</g>
<!-- Node2&#45;&gt;Node6 -->
<g id="edge5" class="edge"><title>Node2&#45;&gt;Node6</title>
<path fill="none" stroke="midnightblue" d="M327,-146.297C327,-137.301 327,-127.653 327,-119.506"/>
<polygon fill="midnightblue" stroke="midnightblue" points="323.5,-146.428 327,-156.428 330.5,-146.428 323.5,-146.428"/>
</g>
<!-- Node7 -->
<g id="node7" class="node"><title>Node7</title>
<g id="a_node7"><a xlink:href="XBotPluginHandler_8cpp.html" target="_top" xlink:title="/home/lucamuratore\l/advr&#45;superbuild/external\l/XCM/src/XBotPluginHandler.cpp">
<polygon fill="none" stroke="black" points="413.5,-78.5 413.5,-119.5 576.5,-119.5 576.5,-78.5 413.5,-78.5"/>
<text text-anchor="start" x="421.5" y="-107.5" font-family="Helvetica,sans-Serif" font-size="10.00">/home/lucamuratore</text>
<text text-anchor="start" x="421.5" y="-96.5" font-family="Helvetica,sans-Serif" font-size="10.00">/advr&#45;superbuild/external</text>
<text text-anchor="middle" x="495" y="-85.5" font-family="Helvetica,sans-Serif" font-size="10.00">/XCM/src/XBotPluginHandler.cpp</text>
</a>
</g>
</g>
<!-- Node2&#45;&gt;Node7 -->
<g id="edge6" class="edge"><title>Node2&#45;&gt;Node7</title>
<path fill="none" stroke="midnightblue" d="M379.635,-152.189C402.876,-141.675 429.859,-129.469 451.882,-119.506"/>
<polygon fill="midnightblue" stroke="midnightblue" points="377.933,-149.117 370.264,-156.428 380.818,-155.495 377.933,-149.117"/>
</g>
<!-- Node4 -->
<g id="node4" class="node"><title>Node4</title>
<g id="a_node4"><a xlink:href="NRTDeployer_8cpp.html" target="_top" xlink:title="/home/lucamuratore\l/advr&#45;superbuild/external\l/XCM/src/NRTDeployer.cpp">
<polygon fill="none" stroke="black" points="0,-0.5 0,-41.5 140,-41.5 140,-0.5 0,-0.5"/>
<text text-anchor="start" x="8" y="-29.5" font-family="Helvetica,sans-Serif" font-size="10.00">/home/lucamuratore</text>
<text text-anchor="start" x="8" y="-18.5" font-family="Helvetica,sans-Serif" font-size="10.00">/advr&#45;superbuild/external</text>
<text text-anchor="middle" x="70" y="-7.5" font-family="Helvetica,sans-Serif" font-size="10.00">/XCM/src/NRTDeployer.cpp</text>
</a>
</g>
</g>
<!-- Node3&#45;&gt;Node4 -->
<g id="edge3" class="edge"><title>Node3&#45;&gt;Node4</title>
<path fill="none" stroke="midnightblue" d="M124.701,-71.4916C113.801,-61.6294 101.641,-50.6273 91.5588,-41.5056"/>
<polygon fill="midnightblue" stroke="midnightblue" points="122.604,-74.3143 132.368,-78.4281 127.301,-69.1236 122.604,-74.3143"/>
</g>
<!-- Node5 -->
<g id="node5" class="node"><title>Node5</title>
<g id="a_node5"><a xlink:href="NRTDeployerMain_8cpp.html" target="_top" xlink:title="/home/lucamuratore\l/advr&#45;superbuild/external\l/XCM/src/NRTDeployerMain.cpp">
<polygon fill="none" stroke="black" points="158.5,-0.5 158.5,-41.5 319.5,-41.5 319.5,-0.5 158.5,-0.5"/>
<text text-anchor="start" x="166.5" y="-29.5" font-family="Helvetica,sans-Serif" font-size="10.00">/home/lucamuratore</text>
<text text-anchor="start" x="166.5" y="-18.5" font-family="Helvetica,sans-Serif" font-size="10.00">/advr&#45;superbuild/external</text>
<text text-anchor="middle" x="239" y="-7.5" font-family="Helvetica,sans-Serif" font-size="10.00">/XCM/src/NRTDeployerMain.cpp</text>
</a>
</g>
</g>
<!-- Node3&#45;&gt;Node5 -->
<g id="edge4" class="edge"><title>Node3&#45;&gt;Node5</title>
<path fill="none" stroke="midnightblue" d="M183.648,-71.4916C194.678,-61.6294 206.983,-50.6273 217.185,-41.5056"/>
<polygon fill="midnightblue" stroke="midnightblue" points="181.011,-69.1535 175.89,-78.4281 185.677,-74.3719 181.011,-69.1535"/>
</g>
</g>
</svg>
