<?xml version="1.0" encoding="UTF-8" standalone="no"?>
<!DOCTYPE svg PUBLIC "-//W3C//DTD SVG 1.1//EN"
 "http://www.w3.org/Graphics/SVG/1.1/DTD/svg11.dtd">
<!-- Generated by graphviz version 2.38.0 (20140413.2041)
 -->
<!-- Title: /home/lucamuratore/advr&#45;superbuild/external/XCM/src/XBotRT_ipc.cpp Pages: 1 -->
<svg width="707pt" height="173pt"
 viewBox="0.00 0.00 706.50 173.00" xmlns="http://www.w3.org/2000/svg" xmlns:xlink="http://www.w3.org/1999/xlink">
<g id="graph0" class="graph" transform="scale(1 1) rotate(0) translate(4 169)">
<title>/home/lucamuratore/advr&#45;superbuild/external/XCM/src/XBotRT_ipc.cpp</title>
<!-- Node1 -->
<g id="node1" class="node"><title>Node1</title>
<polygon fill="#bfbfbf" stroke="black" points="340,-123.5 340,-164.5 474,-164.5 474,-123.5 340,-123.5"/>
<text text-anchor="start" x="348" y="-152.5" font-family="Helvetica,sans-Serif" font-size="10.00">/home/lucamuratore</text>
<text text-anchor="start" x="348" y="-141.5" font-family="Helvetica,sans-Serif" font-size="10.00">/advr&#45;superbuild/external</text>
<text text-anchor="middle" x="407" y="-130.5" font-family="Helvetica,sans-Serif" font-size="10.00">/XCM/src/XBotRT_ipc.cpp</text>
</g>
<!-- Node2 -->
<g id="node2" class="node"><title>Node2</title>
<g id="a_node2"><a xlink:href="XBotRT__ipc_8h.html" target="_top" xlink:title="XBotCore&#45;interfaces\l/XBotRT_ipc.h">
<polygon fill="none" stroke="black" points="38.5,-56.5 38.5,-86.5 143.5,-86.5 143.5,-56.5 38.5,-56.5"/>
<text text-anchor="start" x="46.5" y="-74.5" font-family="Helvetica,sans-Serif" font-size="10.00">XBotCore&#45;interfaces</text>
<text text-anchor="middle" x="91" y="-63.5" font-family="Helvetica,sans-Serif" font-size="10.00">/XBotRT_ipc.h</text>
</a>
</g>
</g>
<!-- Node1&#45;&gt;Node2 -->
<g id="edge1" class="edge"><title>Node1&#45;&gt;Node2</title>
<path fill="none" stroke="midnightblue" d="M339.832,-128.436C290.901,-117.769 222.753,-102.797 153.528,-87.1047"/>
<polygon fill="midnightblue" stroke="midnightblue" points="154.281,-83.6867 143.755,-84.886 152.732,-90.513 154.281,-83.6867"/>
</g>
<!-- Node6 -->
<g id="node6" class="node"><title>Node6</title>
<polygon fill="none" stroke="#bfbfbf" points="161.5,-62 161.5,-81 232.5,-81 232.5,-62 161.5,-62"/>
<text text-anchor="middle" x="197" y="-69" font-family="Helvetica,sans-Serif" font-size="10.00">sys/mman.h</text>
</g>
<!-- Node1&#45;&gt;Node6 -->
<g id="edge5" class="edge"><title>Node1&#45;&gt;Node6</title>
<path fill="none" stroke="midnightblue" d="M348.782,-123.455C311.323,-110.88 263.879,-94.9521 232.095,-84.2817"/>
<polygon fill="midnightblue" stroke="midnightblue" points="232.952,-80.8776 222.358,-81.013 230.724,-87.5137 232.952,-80.8776"/>
</g>
<!-- Node7 -->
<g id="node7" class="node"><title>Node7</title>
<polygon fill="none" stroke="#bfbfbf" points="251,-62 251,-81 297,-81 297,-62 251,-62"/>
<text text-anchor="middle" x="274" y="-69" font-family="Helvetica,sans-Serif" font-size="10.00">stdio.h</text>
</g>
<!-- Node1&#45;&gt;Node7 -->
<g id="edge6" class="edge"><title>Node1&#45;&gt;Node7</title>
<path fill="none" stroke="midnightblue" d="M369.952,-123.362C347.494,-111.457 319.419,-96.5757 299.453,-85.9919"/>
<polygon fill="midnightblue" stroke="midnightblue" points="300.837,-82.7645 290.363,-81.1734 297.559,-88.9493 300.837,-82.7645"/>
</g>
<!-- Node8 -->
<g id="node8" class="node"><title>Node8</title>
<polygon fill="none" stroke="#bfbfbf" points="315,-62 315,-81 363,-81 363,-62 315,-62"/>
<text text-anchor="middle" x="339" y="-69" font-family="Helvetica,sans-Serif" font-size="10.00">stdlib.h</text>
</g>
<!-- Node1&#45;&gt;Node8 -->
<g id="edge7" class="edge"><title>Node1&#45;&gt;Node8</title>
<path fill="none" stroke="midnightblue" d="M388.058,-123.362C377.515,-112.431 364.552,-98.9909 354.599,-88.6721"/>
<polygon fill="midnightblue" stroke="midnightblue" points="356.827,-85.9411 347.366,-81.1734 351.789,-90.8008 356.827,-85.9411"/>
</g>
<!-- Node9 -->
<g id="node9" class="node"><title>Node9</title>
<polygon fill="none" stroke="#bfbfbf" points="381.5,-62 381.5,-81 432.5,-81 432.5,-62 381.5,-62"/>
<text text-anchor="middle" x="407" y="-69" font-family="Helvetica,sans-Serif" font-size="10.00">unistd.h</text>
</g>
<!-- Node1&#45;&gt;Node9 -->
<g id="edge8" class="edge"><title>Node1&#45;&gt;Node9</title>
<path fill="none" stroke="midnightblue" d="M407,-123.362C407,-113.297 407,-101.104 407,-91.18"/>
<polygon fill="midnightblue" stroke="midnightblue" points="410.5,-91.1733 407,-81.1734 403.5,-91.1734 410.5,-91.1733"/>
</g>
<!-- Node10 -->
<g id="node10" class="node"><title>Node10</title>
<polygon fill="none" stroke="#bfbfbf" points="450.5,-62 450.5,-81 499.5,-81 499.5,-62 450.5,-62"/>
<text text-anchor="middle" x="475" y="-69" font-family="Helvetica,sans-Serif" font-size="10.00">string.h</text>
</g>
<!-- Node1&#45;&gt;Node10 -->
<g id="edge9" class="edge"><title>Node1&#45;&gt;Node10</title>
<path fill="none" stroke="midnightblue" d="M425.942,-123.362C436.485,-112.431 449.448,-98.9909 459.401,-88.6721"/>
<polygon fill="midnightblue" stroke="midnightblue" points="462.211,-90.8008 466.634,-81.1734 457.173,-85.9411 462.211,-90.8008"/>
</g>
<!-- Node11 -->
<g id="node11" class="node"><title>Node11</title>
<polygon fill="none" stroke="#bfbfbf" points="517.5,-62 517.5,-81 570.5,-81 570.5,-62 517.5,-62"/>
<text text-anchor="middle" x="544" y="-69" font-family="Helvetica,sans-Serif" font-size="10.00">malloc.h</text>
</g>
<!-- Node1&#45;&gt;Node11 -->
<g id="edge10" class="edge"><title>Node1&#45;&gt;Node11</title>
<path fill="none" stroke="midnightblue" d="M445.162,-123.362C468.401,-111.403 497.478,-96.4403 518.062,-85.8479"/>
<polygon fill="midnightblue" stroke="midnightblue" points="519.855,-88.8612 527.145,-81.1734 516.652,-82.637 519.855,-88.8612"/>
</g>
<!-- Node12 -->
<g id="node12" class="node"><title>Node12</title>
<polygon fill="none" stroke="#bfbfbf" points="589,-62 589,-81 633,-81 633,-62 589,-62"/>
<text text-anchor="middle" x="611" y="-69" font-family="Helvetica,sans-Serif" font-size="10.00">fcntl.h</text>
</g>
<!-- Node1&#45;&gt;Node12 -->
<g id="edge11" class="edge"><title>Node1&#45;&gt;Node12</title>
<path fill="none" stroke="midnightblue" d="M474.229,-123.373C506.546,-113.399 545.635,-100.538 580,-87 581.417,-86.4419 582.86,-85.8503 584.311,-85.2374"/>
<polygon fill="midnightblue" stroke="midnightblue" points="586.077,-88.2823 593.787,-81.015 583.228,-81.8884 586.077,-88.2823"/>
</g>
<!-- Node13 -->
<g id="node13" class="node"><title>Node13</title>
<polygon fill="none" stroke="#bfbfbf" points="651.5,-62 651.5,-81 698.5,-81 698.5,-62 651.5,-62"/>
<text text-anchor="middle" x="675" y="-69" font-family="Helvetica,sans-Serif" font-size="10.00">errno.h</text>
</g>
<!-- Node1&#45;&gt;Node13 -->
<g id="edge12" class="edge"><title>Node1&#45;&gt;Node13</title>
<path fill="none" stroke="midnightblue" d="M474.248,-130.335C521.738,-120.58 586.536,-105.625 642,-87 643.869,-86.3725 645.777,-85.6799 647.687,-84.9477"/>
<polygon fill="midnightblue" stroke="midnightblue" points="649.166,-88.1239 657.076,-81.0749 646.497,-81.6528 649.166,-88.1239"/>
</g>
<!-- Node3 -->
<g id="node3" class="node"><title>Node3</title>
<polygon fill="none" stroke="#bfbfbf" points="0,-0.5 0,-19.5 52,-19.5 52,-0.5 0,-0.5"/>
<text text-anchor="middle" x="26" y="-7.5" font-family="Helvetica,sans-Serif" font-size="10.00">stddef.h</text>
</g>
<!-- Node2&#45;&gt;Node3 -->
<g id="edge2" class="edge"><title>Node2&#45;&gt;Node3</title>
<path fill="none" stroke="midnightblue" d="M75.5959,-56.3993C65.7611,-47.3967 53.0065,-35.7214 42.8947,-26.4652"/>
<polygon fill="midnightblue" stroke="midnightblue" points="45.1976,-23.8282 35.4581,-19.6578 40.4711,-28.9916 45.1976,-23.8282"/>
</g>
<!-- Node4 -->
<g id="node4" class="node"><title>Node4</title>
<polygon fill="none" stroke="#bfbfbf" points="70.5,-0.5 70.5,-19.5 111.5,-19.5 111.5,-0.5 70.5,-0.5"/>
<text text-anchor="middle" x="91" y="-7.5" font-family="Helvetica,sans-Serif" font-size="10.00">rtdk.h</text>
</g>
<!-- Node2&#45;&gt;Node4 -->
<g id="edge3" class="edge"><title>Node2&#45;&gt;Node4</title>
<path fill="none" stroke="midnightblue" d="M91,-56.3993C91,-48.4664 91,-38.458 91,-29.8583"/>
<polygon fill="midnightblue" stroke="midnightblue" points="94.5001,-29.6577 91,-19.6578 87.5001,-29.6578 94.5001,-29.6577"/>
</g>
<!-- Node5 -->
<g id="node5" class="node"><title>Node5</title>
<polygon fill="none" stroke="#bfbfbf" points="130,-0.5 130,-19.5 196,-19.5 196,-0.5 130,-0.5"/>
<text text-anchor="middle" x="163" y="-7.5" font-family="Helvetica,sans-Serif" font-size="10.00">rtdm/rtipc.h</text>
</g>
<!-- Node2&#45;&gt;Node5 -->
<g id="edge4" class="edge"><title>Node2&#45;&gt;Node5</title>
<path fill="none" stroke="midnightblue" d="M108.063,-56.3993C119.065,-47.3076 133.365,-35.4899 144.618,-26.1909"/>
<polygon fill="midnightblue" stroke="midnightblue" points="147.044,-28.726 152.523,-19.6578 142.585,-23.33 147.044,-28.726"/>
</g>
</g>
</svg>
