<?xml version="1.0" encoding="UTF-8" standalone="no"?>
<!DOCTYPE svg PUBLIC "-//W3C//DTD SVG 1.1//EN"
 "http://www.w3.org/Graphics/SVG/1.1/DTD/svg11.dtd">
<!-- Generated by graphviz version 2.38.0 (20140413.2041)
 -->
<!-- Title: /home/lucamuratore/advr&#45;superbuild/external/XCM/include/XCM/XBotCommunicationHandler.h Pages: 1 -->
<svg width="614pt" height="239pt"
 viewBox="0.00 0.00 614.00 239.00" xmlns="http://www.w3.org/2000/svg" xmlns:xlink="http://www.w3.org/1999/xlink">
<g id="graph0" class="graph" transform="scale(1 1) rotate(0) translate(4 235)">
<title>/home/lucamuratore/advr&#45;superbuild/external/XCM/include/XCM/XBotCommunicationHandler.h</title>
<!-- Node1 -->
<g id="node1" class="node"><title>Node1</title>
<polygon fill="#bfbfbf" stroke="black" points="197.5,-178.5 197.5,-230.5 391.5,-230.5 391.5,-178.5 197.5,-178.5"/>
<text text-anchor="start" x="205.5" y="-218.5" font-family="Helvetica,sans-Serif" font-size="10.00">/home/lucamuratore</text>
<text text-anchor="start" x="205.5" y="-207.5" font-family="Helvetica,sans-Serif" font-size="10.00">/advr&#45;superbuild/external</text>
<text text-anchor="start" x="205.5" y="-196.5" font-family="Helvetica,sans-Serif" font-size="10.00">/XCM/include/XCM/XBotCommunication</text>
<text text-anchor="middle" x="294.5" y="-185.5" font-family="Helvetica,sans-Serif" font-size="10.00">Handler.h</text>
</g>
<!-- Node2 -->
<g id="node2" class="node"><title>Node2</title>
<g id="a_node2"><a xlink:href="XBotCommunicationPlugin_8h.html" target="_top" xlink:title="/home/lucamuratore\l/advr&#45;superbuild/external\l/XCM/include/XBotPlugin\l/XBotCommunicationPlugin.h">
<polygon fill="none" stroke="black" points="29,-89.5 29,-141.5 174,-141.5 174,-89.5 29,-89.5"/>
<text text-anchor="start" x="37" y="-129.5" font-family="Helvetica,sans-Serif" font-size="10.00">/home/lucamuratore</text>
<text text-anchor="start" x="37" y="-118.5" font-family="Helvetica,sans-Serif" font-size="10.00">/advr&#45;superbuild/external</text>
<text text-anchor="start" x="37" y="-107.5" font-family="Helvetica,sans-Serif" font-size="10.00">/XCM/include/XBotPlugin</text>
<text text-anchor="middle" x="101.5" y="-96.5" font-family="Helvetica,sans-Serif" font-size="10.00">/XBotCommunicationPlugin.h</text>
</a>
</g>
</g>
<!-- Node1&#45;&gt;Node2 -->
<g id="edge1" class="edge"><title>Node1&#45;&gt;Node2</title>
<path fill="none" stroke="midnightblue" d="M229.711,-174.295C206.131,-163.665 179.71,-151.755 157.007,-141.521"/>
<polygon fill="midnightblue" stroke="midnightblue" points="228.38,-177.534 238.935,-178.453 231.257,-171.152 228.38,-177.534"/>
</g>
<!-- Node4 -->
<g id="node4" class="node"><title>Node4</title>
<g id="a_node4"><a xlink:href="XBotCommunicationHandler_8cpp.html" target="_top" xlink:title="/home/lucamuratore\l/advr&#45;superbuild/external\l/XCM/src/XBotCommunicationHandler.cpp">
<polygon fill="none" stroke="black" points="192.5,-95 192.5,-136 396.5,-136 396.5,-95 192.5,-95"/>
<text text-anchor="start" x="200.5" y="-124" font-family="Helvetica,sans-Serif" font-size="10.00">/home/lucamuratore</text>
<text text-anchor="start" x="200.5" y="-113" font-family="Helvetica,sans-Serif" font-size="10.00">/advr&#45;superbuild/external</text>
<text text-anchor="middle" x="294.5" y="-102" font-family="Helvetica,sans-Serif" font-size="10.00">/XCM/src/XBotCommunicationHandler.cpp</text>
</a>
</g>
</g>
<!-- Node1&#45;&gt;Node4 -->
<g id="edge3" class="edge"><title>Node1&#45;&gt;Node4</title>
<path fill="none" stroke="midnightblue" d="M294.5,-168.155C294.5,-157.21 294.5,-145.549 294.5,-136.082"/>
<polygon fill="midnightblue" stroke="midnightblue" points="291,-168.336 294.5,-178.336 298,-168.336 291,-168.336"/>
</g>
<!-- Node5 -->
<g id="node5" class="node"><title>Node5</title>
<g id="a_node5"><a xlink:href="XBotCommunicationMain_8cpp.html" target="_top" xlink:title="/home/lucamuratore\l/advr&#45;superbuild/external\l/XCM/src/XBotCommunicationMain.cpp">
<polygon fill="none" stroke="black" points="415,-95 415,-136 606,-136 606,-95 415,-95"/>
<text text-anchor="start" x="423" y="-124" font-family="Helvetica,sans-Serif" font-size="10.00">/home/lucamuratore</text>
<text text-anchor="start" x="423" y="-113" font-family="Helvetica,sans-Serif" font-size="10.00">/advr&#45;superbuild/external</text>
<text text-anchor="middle" x="510.5" y="-102" font-family="Helvetica,sans-Serif" font-size="10.00">/XCM/src/XBotCommunicationMain.cpp</text>
</a>
</g>
</g>
<!-- Node1&#45;&gt;Node5 -->
<g id="edge4" class="edge"><title>Node1&#45;&gt;Node5</title>
<path fill="none" stroke="midnightblue" d="M366.256,-174.598C397.612,-161.969 433.579,-147.482 461.754,-136.134"/>
<polygon fill="midnightblue" stroke="midnightblue" points="364.655,-171.47 356.686,-178.453 367.27,-177.963 364.655,-171.47"/>
</g>
<!-- Node3 -->
<g id="node3" class="node"><title>Node3</title>
<g id="a_node3"><a xlink:href="XBotCommunicationPlugin_8cpp.html" target="_top" xlink:title="/home/lucamuratore\l/advr&#45;superbuild/external\l/XCM/src/XBotPlugin/XBotCommunication\lPlugin.cpp">
<polygon fill="none" stroke="black" points="-1.42109e-14,-0.5 -1.42109e-14,-52.5 203,-52.5 203,-0.5 -1.42109e-14,-0.5"/>
<text text-anchor="start" x="8" y="-40.5" font-family="Helvetica,sans-Serif" font-size="10.00">/home/lucamuratore</text>
<text text-anchor="start" x="8" y="-29.5" font-family="Helvetica,sans-Serif" font-size="10.00">/advr&#45;superbuild/external</text>
<text text-anchor="start" x="8" y="-18.5" font-family="Helvetica,sans-Serif" font-size="10.00">/XCM/src/XBotPlugin/XBotCommunication</text>
<text text-anchor="middle" x="101.5" y="-7.5" font-family="Helvetica,sans-Serif" font-size="10.00">Plugin.cpp</text>
</a>
</g>
</g>
<!-- Node2&#45;&gt;Node3 -->
<g id="edge2" class="edge"><title>Node2&#45;&gt;Node3</title>
<path fill="none" stroke="midnightblue" d="M101.5,-79.1908C101.5,-70.2824 101.5,-60.8986 101.5,-52.6075"/>
<polygon fill="midnightblue" stroke="midnightblue" points="98.0001,-79.336 101.5,-89.336 105,-79.336 98.0001,-79.336"/>
</g>
</g>
</svg>
