<?xml version="1.0" encoding="UTF-8" standalone="no"?>
<!DOCTYPE svg PUBLIC "-//W3C//DTD SVG 1.1//EN"
 "http://www.w3.org/Graphics/SVG/1.1/DTD/svg11.dtd">
<!-- Generated by graphviz version 2.38.0 (20140413.2041)
 -->
<!-- Title: /home/lucamuratore/advr&#45;superbuild/external/XCM/src/XBotNRT_thread.cpp Pages: 1 -->
<svg width="1629pt" height="240pt"
 viewBox="0.00 0.00 1628.50 240.00" xmlns="http://www.w3.org/2000/svg" xmlns:xlink="http://www.w3.org/1999/xlink">
<g id="graph0" class="graph" transform="scale(1 1) rotate(0) translate(4 236)">
<title>/home/lucamuratore/advr&#45;superbuild/external/XCM/src/XBotNRT_thread.cpp</title>
<!-- Node1 -->
<g id="node1" class="node"><title>Node1</title>
<polygon fill="#bfbfbf" stroke="black" points="0,-190.5 0,-231.5 155,-231.5 155,-190.5 0,-190.5"/>
<text text-anchor="start" x="8" y="-219.5" font-family="Helvetica,sans-Serif" font-size="10.00">/home/lucamuratore</text>
<text text-anchor="start" x="8" y="-208.5" font-family="Helvetica,sans-Serif" font-size="10.00">/advr&#45;superbuild/external</text>
<text text-anchor="middle" x="77.5" y="-197.5" font-family="Helvetica,sans-Serif" font-size="10.00">/XCM/src/XBotNRT_thread.cpp</text>
</g>
<!-- Node2 -->
<g id="node2" class="node"><title>Node2</title>
<polygon fill="none" stroke="#bfbfbf" points="147.5,-11.5 147.5,-30.5 193.5,-30.5 193.5,-11.5 147.5,-11.5"/>
<text text-anchor="middle" x="170.5" y="-18.5" font-family="Helvetica,sans-Serif" font-size="10.00">stdio.h</text>
</g>
<!-- Node1&#45;&gt;Node2 -->
<g id="edge1" class="edge"><title>Node1&#45;&gt;Node2</title>
<path fill="none" stroke="midnightblue" d="M63.5028,-190.063C46.2138,-162.739 21.7167,-113.058 44.5,-78 64.9199,-46.5787 107.481,-32.6455 137.47,-26.5618"/>
<polygon fill="midnightblue" stroke="midnightblue" points="138.292,-29.9695 147.496,-24.7215 137.028,-23.0845 138.292,-29.9695"/>
</g>
<!-- Node3 -->
<g id="node3" class="node"><title>Node3</title>
<polygon fill="none" stroke="#bfbfbf" points="53.5,-78.5 53.5,-97.5 101.5,-97.5 101.5,-78.5 53.5,-78.5"/>
<text text-anchor="middle" x="77.5" y="-85.5" font-family="Helvetica,sans-Serif" font-size="10.00">stdlib.h</text>
</g>
<!-- Node1&#45;&gt;Node3 -->
<g id="edge2" class="edge"><title>Node1&#45;&gt;Node3</title>
<path fill="none" stroke="midnightblue" d="M77.5,-190.29C77.5,-167.48 77.5,-130.189 77.5,-107.781"/>
<polygon fill="midnightblue" stroke="midnightblue" points="81.0001,-107.575 77.5,-97.5748 74.0001,-107.575 81.0001,-107.575"/>
</g>
<!-- Node4 -->
<g id="node4" class="node"><title>Node4</title>
<g id="a_node4"><a xlink:href="XBotThread_8h.html" target="_top" xlink:title="XCM/XBotThread.h">
<polygon fill="none" stroke="black" points="386.5,-134.5 386.5,-153.5 488.5,-153.5 488.5,-134.5 386.5,-134.5"/>
<text text-anchor="middle" x="437.5" y="-141.5" font-family="Helvetica,sans-Serif" font-size="10.00">XCM/XBotThread.h</text>
</a>
</g>
</g>
<!-- Node1&#45;&gt;Node4 -->
<g id="edge3" class="edge"><title>Node1&#45;&gt;Node4</title>
<path fill="none" stroke="midnightblue" d="M155.171,-195.976C222.778,-183.769 319.225,-166.355 380.074,-155.369"/>
<polygon fill="midnightblue" stroke="midnightblue" points="381.045,-158.75 390.264,-153.529 379.802,-151.861 381.045,-158.75"/>
</g>
<!-- Node4&#45;&gt;Node3 -->
<g id="edge7" class="edge"><title>Node4&#45;&gt;Node3</title>
<path fill="none" stroke="midnightblue" d="M386.458,-138.046C323.841,-131.51 214.326,-118.596 111.493,-97.9699"/>
<polygon fill="midnightblue" stroke="midnightblue" points="112.061,-94.5139 101.564,-95.9497 110.665,-101.373 112.061,-94.5139"/>
</g>
<!-- Node5 -->
<g id="node5" class="node"><title>Node5</title>
<polygon fill="none" stroke="#bfbfbf" points="120,-78.5 120,-97.5 177,-97.5 177,-78.5 120,-78.5"/>
<text text-anchor="middle" x="148.5" y="-85.5" font-family="Helvetica,sans-Serif" font-size="10.00">pthread.h</text>
</g>
<!-- Node4&#45;&gt;Node5 -->
<g id="edge4" class="edge"><title>Node4&#45;&gt;Node5</title>
<path fill="none" stroke="midnightblue" d="M386.384,-134.685C337.736,-126.581 262.25,-113.511 187.2,-98.0482"/>
<polygon fill="midnightblue" stroke="midnightblue" points="187.599,-94.5565 177.096,-95.9512 186.176,-101.41 187.599,-94.5565"/>
</g>
<!-- Node6 -->
<g id="node6" class="node"><title>Node6</title>
<polygon fill="none" stroke="#bfbfbf" points="195.5,-78.5 195.5,-97.5 269.5,-97.5 269.5,-78.5 195.5,-78.5"/>
<text text-anchor="middle" x="232.5" y="-85.5" font-family="Helvetica,sans-Serif" font-size="10.00">linux/sched.h</text>
</g>
<!-- Node4&#45;&gt;Node6 -->
<g id="edge5" class="edge"><title>Node4&#45;&gt;Node6</title>
<path fill="none" stroke="midnightblue" d="M405.017,-134.444C369.78,-125.162 313.396,-110.309 274.741,-100.127"/>
<polygon fill="midnightblue" stroke="midnightblue" points="275.393,-96.6792 264.831,-97.5164 273.609,-103.448 275.393,-96.6792"/>
</g>
<!-- Node7 -->
<g id="node7" class="node"><title>Node7</title>
<polygon fill="none" stroke="#bfbfbf" points="288,-78.5 288,-97.5 339,-97.5 339,-78.5 288,-78.5"/>
<text text-anchor="middle" x="313.5" y="-85.5" font-family="Helvetica,sans-Serif" font-size="10.00">unistd.h</text>
</g>
<!-- Node4&#45;&gt;Node7 -->
<g id="edge6" class="edge"><title>Node4&#45;&gt;Node7</title>
<path fill="none" stroke="midnightblue" d="M417.852,-134.444C397.535,-125.596 365.597,-111.687 342.402,-101.586"/>
<polygon fill="midnightblue" stroke="midnightblue" points="343.622,-98.3002 333.056,-97.5164 340.827,-104.718 343.622,-98.3002"/>
</g>
<!-- Node8 -->
<g id="node8" class="node"><title>Node8</title>
<polygon fill="none" stroke="#bfbfbf" points="357.5,-78.5 357.5,-97.5 425.5,-97.5 425.5,-78.5 357.5,-78.5"/>
<text text-anchor="middle" x="391.5" y="-85.5" font-family="Helvetica,sans-Serif" font-size="10.00">sys/types.h</text>
</g>
<!-- Node4&#45;&gt;Node8 -->
<g id="edge8" class="edge"><title>Node4&#45;&gt;Node8</title>
<path fill="none" stroke="midnightblue" d="M429.904,-134.083C423.273,-126.298 413.479,-114.801 405.442,-105.367"/>
<polygon fill="midnightblue" stroke="midnightblue" points="408.104,-103.094 398.955,-97.7511 402.775,-107.633 408.104,-103.094"/>
</g>
<!-- Node9 -->
<g id="node9" class="node"><title>Node9</title>
<polygon fill="none" stroke="#bfbfbf" points="443.5,-78.5 443.5,-97.5 525.5,-97.5 525.5,-78.5 443.5,-78.5"/>
<text text-anchor="middle" x="484.5" y="-85.5" font-family="Helvetica,sans-Serif" font-size="10.00">bits/local_lim.h</text>
</g>
<!-- Node4&#45;&gt;Node9 -->
<g id="edge9" class="edge"><title>Node4&#45;&gt;Node9</title>
<path fill="none" stroke="midnightblue" d="M445.261,-134.083C452.037,-126.298 462.043,-114.801 470.255,-105.367"/>
<polygon fill="midnightblue" stroke="midnightblue" points="472.958,-107.592 476.883,-97.7511 467.678,-102.996 472.958,-107.592"/>
</g>
<!-- Node10 -->
<g id="node10" class="node"><title>Node10</title>
<polygon fill="none" stroke="#bfbfbf" points="544,-78.5 544,-97.5 603,-97.5 603,-78.5 544,-78.5"/>
<text text-anchor="middle" x="573.5" y="-85.5" font-family="Helvetica,sans-Serif" font-size="10.00">exception</text>
</g>
<!-- Node4&#45;&gt;Node10 -->
<g id="edge10" class="edge"><title>Node4&#45;&gt;Node10</title>
<path fill="none" stroke="midnightblue" d="M459.05,-134.444C481.531,-125.517 516.988,-111.439 542.48,-101.317"/>
<polygon fill="midnightblue" stroke="midnightblue" points="544.049,-104.46 552.051,-97.5164 541.465,-97.9539 544.049,-104.46"/>
</g>
<!-- Node11 -->
<g id="node11" class="node"><title>Node11</title>
<polygon fill="none" stroke="#bfbfbf" points="621,-78.5 621,-97.5 672,-97.5 672,-78.5 621,-78.5"/>
<text text-anchor="middle" x="646.5" y="-85.5" font-family="Helvetica,sans-Serif" font-size="10.00">typeinfo</text>
</g>
<!-- Node4&#45;&gt;Node11 -->
<g id="edge11" class="edge"><title>Node4&#45;&gt;Node11</title>
<path fill="none" stroke="midnightblue" d="M470.617,-134.444C508.947,-124.54 571.822,-108.295 611.097,-98.1471"/>
<polygon fill="midnightblue" stroke="midnightblue" points="611.979,-101.534 620.786,-95.6439 610.228,-94.7568 611.979,-101.534"/>
</g>
<!-- Node12 -->
<g id="node12" class="node"><title>Node12</title>
<polygon fill="none" stroke="#bfbfbf" points="690.5,-78.5 690.5,-97.5 744.5,-97.5 744.5,-78.5 690.5,-78.5"/>
<text text-anchor="middle" x="717.5" y="-85.5" font-family="Helvetica,sans-Serif" font-size="10.00">iostream</text>
</g>
<!-- Node4&#45;&gt;Node12 -->
<g id="edge12" class="edge"><title>Node4&#45;&gt;Node12</title>
<path fill="none" stroke="midnightblue" d="M488.393,-134.422C537.672,-125.917 614.422,-112.144 680.5,-98 680.601,-97.9784 680.702,-97.9567 680.803,-97.9349"/>
<polygon fill="midnightblue" stroke="midnightblue" points="681.475,-101.371 690.462,-95.7602 679.937,-94.5424 681.475,-101.371"/>
</g>
<!-- Node13 -->
<g id="node13" class="node"><title>Node13</title>
<polygon fill="none" stroke="#bfbfbf" points="762.5,-78.5 762.5,-97.5 814.5,-97.5 814.5,-78.5 762.5,-78.5"/>
<text text-anchor="middle" x="788.5" y="-85.5" font-family="Helvetica,sans-Serif" font-size="10.00">memory</text>
</g>
<!-- Node4&#45;&gt;Node13 -->
<g id="edge13" class="edge"><title>Node4&#45;&gt;Node13</title>
<path fill="none" stroke="midnightblue" d="M488.692,-137.469C549.412,-130.519 653.835,-117.338 752.375,-98.0427"/>
<polygon fill="midnightblue" stroke="midnightblue" points="753.07,-101.473 762.198,-96.0948 751.708,-94.6069 753.07,-101.473"/>
</g>
<!-- Node14 -->
<g id="node14" class="node"><title>Node14</title>
<g id="a_node14"><a xlink:href="XBotUtils_8h.html" target="_top" xlink:title="XCM/XBotUtils.h">
<polygon fill="none" stroke="black" points="832.5,-78.5 832.5,-97.5 924.5,-97.5 924.5,-78.5 832.5,-78.5"/>
<text text-anchor="middle" x="878.5" y="-85.5" font-family="Helvetica,sans-Serif" font-size="10.00">XCM/XBotUtils.h</text>
</a>
</g>
</g>
<!-- Node4&#45;&gt;Node14 -->
<g id="edge14" class="edge"><title>Node4&#45;&gt;Node14</title>
<path fill="none" stroke="midnightblue" d="M488.796,-137.781C560.883,-130.279 696.507,-115.551 822.128,-98.1376"/>
<polygon fill="midnightblue" stroke="midnightblue" points="822.89,-101.565 832.31,-96.717 821.922,-94.6324 822.89,-101.565"/>
</g>
<!-- Node14&#45;&gt;Node2 -->
<g id="edge16" class="edge"><title>Node14&#45;&gt;Node2</title>
<path fill="none" stroke="midnightblue" d="M832.331,-79.1177C829.347,-78.7095 826.384,-78.3318 823.5,-78 585.866,-50.6548 524.015,-70.3593 286.5,-42 258.345,-38.6383 226.634,-33.0455 203.492,-28.6276"/>
<polygon fill="midnightblue" stroke="midnightblue" points="203.989,-25.1589 193.506,-26.6927 202.658,-32.0311 203.989,-25.1589"/>
</g>
<!-- Node15 -->
<g id="node15" class="node"><title>Node15</title>
<polygon fill="none" stroke="#bfbfbf" points="296,-11.5 296,-30.5 345,-30.5 345,-11.5 296,-11.5"/>
<text text-anchor="middle" x="320.5" y="-18.5" font-family="Helvetica,sans-Serif" font-size="10.00">stdint.h</text>
</g>
<!-- Node14&#45;&gt;Node15 -->
<g id="edge15" class="edge"><title>Node14&#45;&gt;Node15</title>
<path fill="none" stroke="midnightblue" d="M832.327,-79.1503C829.344,-78.7341 826.382,-78.3458 823.5,-78 615.931,-53.097 553.961,-104.612 354.5,-42 349.892,-40.5534 345.242,-38.3857 340.923,-36.0042"/>
<polygon fill="midnightblue" stroke="midnightblue" points="342.502,-32.8674 332.142,-30.6458 338.855,-38.8426 342.502,-32.8674"/>
</g>
<!-- Node16 -->
<g id="node16" class="node"><title>Node16</title>
<polygon fill="none" stroke="#bfbfbf" points="363.5,-11.5 363.5,-30.5 413.5,-30.5 413.5,-11.5 363.5,-11.5"/>
<text text-anchor="middle" x="388.5" y="-18.5" font-family="Helvetica,sans-Serif" font-size="10.00">fstream</text>
</g>
<!-- Node14&#45;&gt;Node16 -->
<g id="edge17" class="edge"><title>Node14&#45;&gt;Node16</title>
<path fill="none" stroke="midnightblue" d="M832.322,-79.1938C829.34,-78.767 826.38,-78.3644 823.5,-78 645.977,-55.5369 592.875,-96.6942 422.5,-42 417.901,-40.5236 413.255,-38.3426 408.938,-35.9573"/>
<polygon fill="midnightblue" stroke="midnightblue" points="410.516,-32.8204 400.156,-30.6035 406.872,-38.7973 410.516,-32.8204"/>
</g>
<!-- Node17 -->
<g id="node17" class="node"><title>Node17</title>
<polygon fill="none" stroke="#bfbfbf" points="431.5,-11.5 431.5,-30.5 483.5,-30.5 483.5,-11.5 431.5,-11.5"/>
<text text-anchor="middle" x="457.5" y="-18.5" font-family="Helvetica,sans-Serif" font-size="10.00">sstream</text>
</g>
<!-- Node14&#45;&gt;Node17 -->
<g id="edge18" class="edge"><title>Node14&#45;&gt;Node17</title>
<path fill="none" stroke="midnightblue" d="M832.314,-79.257C829.334,-78.8147 826.376,-78.3914 823.5,-78 676.873,-58.0443 633.255,-87.669 492.5,-42 487.678,-40.4354 482.782,-38.155 478.241,-35.689"/>
<polygon fill="midnightblue" stroke="midnightblue" points="479.941,-32.6277 469.554,-30.5367 476.37,-38.6484 479.941,-32.6277"/>
</g>
<!-- Node18 -->
<g id="node18" class="node"><title>Node18</title>
<polygon fill="none" stroke="#bfbfbf" points="501.5,-11.5 501.5,-30.5 625.5,-30.5 625.5,-11.5 501.5,-11.5"/>
<text text-anchor="middle" x="563.5" y="-18.5" font-family="Helvetica,sans-Serif" font-size="10.00">boost/circular_buffer.hpp</text>
</g>
<!-- Node14&#45;&gt;Node18 -->
<g id="edge19" class="edge"><title>Node14&#45;&gt;Node18</title>
<path fill="none" stroke="midnightblue" d="M832.47,-79.0337C772.616,-68.5842 671.369,-50.5734 634.5,-42 623.724,-39.4942 612.136,-36.4021 601.51,-33.4046"/>
<polygon fill="midnightblue" stroke="midnightblue" points="602.253,-29.9767 591.676,-30.582 600.322,-36.705 602.253,-29.9767"/>
</g>
<!-- Node19 -->
<g id="node19" class="node"><title>Node19</title>
<polygon fill="none" stroke="#bfbfbf" points="643.5,-6 643.5,-36 745.5,-36 745.5,-6 643.5,-6"/>
<text text-anchor="start" x="651.5" y="-24" font-family="Helvetica,sans-Serif" font-size="10.00">boost/accumulators</text>
<text text-anchor="middle" x="694.5" y="-13" font-family="Helvetica,sans-Serif" font-size="10.00">/accumulators.hpp</text>
</g>
<!-- Node14&#45;&gt;Node19 -->
<g id="edge20" class="edge"><title>Node14&#45;&gt;Node19</title>
<path fill="none" stroke="midnightblue" d="M854.066,-78.3685C826.098,-68.4883 779.562,-52.0491 743.943,-39.4662"/>
<polygon fill="midnightblue" stroke="midnightblue" points="744.805,-36.0589 734.21,-36.0281 742.473,-42.6592 744.805,-36.0589"/>
</g>
<!-- Node20 -->
<g id="node20" class="node"><title>Node20</title>
<polygon fill="none" stroke="#bfbfbf" points="764,-6 764,-36 869,-36 869,-6 764,-6"/>
<text text-anchor="start" x="772" y="-24" font-family="Helvetica,sans-Serif" font-size="10.00">boost/accumulators</text>
<text text-anchor="middle" x="816.5" y="-13" font-family="Helvetica,sans-Serif" font-size="10.00">/statistics/count.hpp</text>
</g>
<!-- Node14&#45;&gt;Node20 -->
<g id="edge21" class="edge"><title>Node14&#45;&gt;Node20</title>
<path fill="none" stroke="midnightblue" d="M870.138,-78.2338C861.679,-69.3649 848.274,-55.3111 836.981,-43.4722"/>
<polygon fill="midnightblue" stroke="midnightblue" points="839.374,-40.9094 829.939,-36.089 834.308,-45.7409 839.374,-40.9094"/>
</g>
<!-- Node21 -->
<g id="node21" class="node"><title>Node21</title>
<polygon fill="none" stroke="#bfbfbf" points="887,-6 887,-36 992,-36 992,-6 887,-6"/>
<text text-anchor="start" x="895" y="-24" font-family="Helvetica,sans-Serif" font-size="10.00">boost/accumulators</text>
<text text-anchor="middle" x="939.5" y="-13" font-family="Helvetica,sans-Serif" font-size="10.00">/statistics/mean.hpp</text>
</g>
<!-- Node14&#45;&gt;Node21 -->
<g id="edge22" class="edge"><title>Node14&#45;&gt;Node21</title>
<path fill="none" stroke="midnightblue" d="M886.727,-78.2338C895.05,-69.3649 908.239,-55.3111 919.349,-43.4722"/>
<polygon fill="midnightblue" stroke="midnightblue" points="921.987,-45.776 926.278,-36.089 916.883,-40.9858 921.987,-45.776"/>
</g>
<!-- Node22 -->
<g id="node22" class="node"><title>Node22</title>
<polygon fill="none" stroke="#bfbfbf" points="1010.5,-6 1010.5,-36 1112.5,-36 1112.5,-6 1010.5,-6"/>
<text text-anchor="start" x="1018.5" y="-24" font-family="Helvetica,sans-Serif" font-size="10.00">boost/accumulators</text>
<text text-anchor="middle" x="1061.5" y="-13" font-family="Helvetica,sans-Serif" font-size="10.00">/statistics/min.hpp</text>
</g>
<!-- Node14&#45;&gt;Node22 -->
<g id="edge23" class="edge"><title>Node14&#45;&gt;Node22</title>
<path fill="none" stroke="midnightblue" d="M902.801,-78.3685C930.617,-68.4883 976.9,-52.0491 1012.33,-39.4662"/>
<polygon fill="midnightblue" stroke="midnightblue" points="1013.75,-42.6733 1022.01,-36.0281 1011.41,-36.077 1013.75,-42.6733"/>
</g>
<!-- Node23 -->
<g id="node23" class="node"><title>Node23</title>
<polygon fill="none" stroke="#bfbfbf" points="1130.5,-6 1130.5,-36 1232.5,-36 1232.5,-6 1130.5,-6"/>
<text text-anchor="start" x="1138.5" y="-24" font-family="Helvetica,sans-Serif" font-size="10.00">boost/accumulators</text>
<text text-anchor="middle" x="1181.5" y="-13" font-family="Helvetica,sans-Serif" font-size="10.00">/statistics/max.hpp</text>
</g>
<!-- Node14&#45;&gt;Node23 -->
<g id="edge24" class="edge"><title>Node14&#45;&gt;Node23</title>
<path fill="none" stroke="midnightblue" d="M924.597,-80.414C973.784,-72.9342 1053.78,-59.4668 1121.5,-42 1125.06,-41.0822 1128.71,-40.0625 1132.37,-38.9832"/>
<polygon fill="midnightblue" stroke="midnightblue" points="1133.5,-42.2984 1142.03,-36.0165 1131.45,-35.6069 1133.5,-42.2984"/>
</g>
<!-- Node24 -->
<g id="node24" class="node"><title>Node24</title>
<polygon fill="none" stroke="#bfbfbf" points="1250.5,-6 1250.5,-36 1368.5,-36 1368.5,-6 1250.5,-6"/>
<text text-anchor="start" x="1258.5" y="-24" font-family="Helvetica,sans-Serif" font-size="10.00">boost/accumulators</text>
<text text-anchor="middle" x="1309.5" y="-13" font-family="Helvetica,sans-Serif" font-size="10.00">/statistics/variance.hpp</text>
</g>
<!-- Node14&#45;&gt;Node24 -->
<g id="edge25" class="edge"><title>Node14&#45;&gt;Node24</title>
<path fill="none" stroke="midnightblue" d="M924.735,-83.692C994.097,-78.1849 1128.96,-65.3638 1241.5,-42 1246.15,-41.0346 1250.94,-39.9058 1255.73,-38.6847"/>
<polygon fill="midnightblue" stroke="midnightblue" points="1256.75,-42.0361 1265.5,-36.0715 1254.94,-35.2736 1256.75,-42.0361"/>
</g>
<!-- Node25 -->
<g id="node25" class="node"><title>Node25</title>
<polygon fill="none" stroke="#bfbfbf" points="1386.5,-6 1386.5,-36 1500.5,-36 1500.5,-6 1386.5,-6"/>
<text text-anchor="start" x="1394.5" y="-24" font-family="Helvetica,sans-Serif" font-size="10.00">boost/accumulators</text>
<text text-anchor="middle" x="1443.5" y="-13" font-family="Helvetica,sans-Serif" font-size="10.00">/statistics/error_of.hpp</text>
</g>
<!-- Node14&#45;&gt;Node25 -->
<g id="edge26" class="edge"><title>Node14&#45;&gt;Node25</title>
<path fill="none" stroke="midnightblue" d="M924.691,-85.9781C1013.29,-83.3269 1212.92,-74.0076 1377.5,-42 1382.25,-41.0771 1387.14,-39.9479 1392.01,-38.7003"/>
<polygon fill="midnightblue" stroke="midnightblue" points="1393.2,-42.004 1401.93,-36.0016 1391.36,-35.2495 1393.2,-42.004"/>
</g>
<!-- Node26 -->
<g id="node26" class="node"><title>Node26</title>
<polygon fill="none" stroke="#bfbfbf" points="1518.5,-0.5 1518.5,-41.5 1620.5,-41.5 1620.5,-0.5 1518.5,-0.5"/>
<text text-anchor="start" x="1526.5" y="-29.5" font-family="Helvetica,sans-Serif" font-size="10.00">boost/accumulators</text>
<text text-anchor="start" x="1526.5" y="-18.5" font-family="Helvetica,sans-Serif" font-size="10.00">/statistics/error_of</text>
<text text-anchor="middle" x="1569.5" y="-7.5" font-family="Helvetica,sans-Serif" font-size="10.00">_mean.hpp</text>
</g>
<!-- Node14&#45;&gt;Node26 -->
<g id="edge27" class="edge"><title>Node14&#45;&gt;Node26</title>
<path fill="none" stroke="midnightblue" d="M924.554,-87.6354C1027.92,-88.2249 1286.09,-85.0283 1508.45,-41.9385"/>
<polygon fill="midnightblue" stroke="midnightblue" points="1509.21,-45.3567 1518.34,-39.9902 1507.85,-38.4887 1509.21,-45.3567"/>
</g>
</g>
</svg>
