<?xml version="1.0" encoding="UTF-8" standalone="no"?>
<!DOCTYPE svg PUBLIC "-//W3C//DTD SVG 1.1//EN"
 "http://www.w3.org/Graphics/SVG/1.1/DTD/svg11.dtd">
<!-- Generated by graphviz version 2.38.0 (20140413.2041)
 -->
<!-- Title: /home/lucamuratore/advr&#45;superbuild/external/XCM/include/XBotPlugin/XBotLoggingPlugin.h Pages: 1 -->
<svg width="2663pt" height="396pt"
 viewBox="0.00 0.00 2663.00 396.00" xmlns="http://www.w3.org/2000/svg" xmlns:xlink="http://www.w3.org/1999/xlink">
<g id="graph0" class="graph" transform="scale(1 1) rotate(0) translate(4 392)">
<title>/home/lucamuratore/advr&#45;superbuild/external/XCM/include/XBotPlugin/XBotLoggingPlugin.h</title>
<!-- Node1 -->
<g id="node1" class="node"><title>Node1</title>
<polygon fill="#bfbfbf" stroke="black" points="351,-335.5 351,-387.5 479,-387.5 479,-335.5 351,-335.5"/>
<text text-anchor="start" x="359" y="-375.5" font-family="Helvetica,sans-Serif" font-size="10.00">/home/lucamuratore</text>
<text text-anchor="start" x="359" y="-364.5" font-family="Helvetica,sans-Serif" font-size="10.00">/advr&#45;superbuild/external</text>
<text text-anchor="start" x="359" y="-353.5" font-family="Helvetica,sans-Serif" font-size="10.00">/XCM/include/XBotPlugin</text>
<text text-anchor="middle" x="415" y="-342.5" font-family="Helvetica,sans-Serif" font-size="10.00">/XBotLoggingPlugin.h</text>
</g>
<!-- Node2 -->
<g id="node2" class="node"><title>Node2</title>
<g id="a_node2"><a xlink:href="XBotControlPlugin_8h.html" target="_top" xlink:title="XCM/XBotControlPlugin.h">
<polygon fill="none" stroke="black" points="764.5,-279.5 764.5,-298.5 895.5,-298.5 895.5,-279.5 764.5,-279.5"/>
<text text-anchor="middle" x="830" y="-286.5" font-family="Helvetica,sans-Serif" font-size="10.00">XCM/XBotControlPlugin.h</text>
</a>
</g>
</g>
<!-- Node1&#45;&gt;Node2 -->
<g id="edge1" class="edge"><title>Node1&#45;&gt;Node2</title>
<path fill="none" stroke="midnightblue" d="M479.388,-349.562C558.699,-336.089 692.394,-313.376 769.753,-300.235"/>
<polygon fill="midnightblue" stroke="midnightblue" points="770.549,-303.65 779.822,-298.524 769.377,-296.749 770.549,-303.65"/>
</g>
<!-- Node8 -->
<g id="node8" class="node"><title>Node8</title>
<polygon fill="none" stroke="#bfbfbf" points="475,-11.5 475,-30.5 527,-30.5 527,-11.5 475,-11.5"/>
<text text-anchor="middle" x="501" y="-18.5" font-family="Helvetica,sans-Serif" font-size="10.00">memory</text>
</g>
<!-- Node1&#45;&gt;Node8 -->
<g id="edge65" class="edge"><title>Node1&#45;&gt;Node8</title>
<path fill="none" stroke="midnightblue" d="M350.612,-353.54C234.046,-339.139 0,-301.176 0,-228.5 0,-228.5 0,-228.5 0,-159.5 0,-63.0699 349.521,-31.8003 464.687,-24.1144"/>
<polygon fill="midnightblue" stroke="midnightblue" points="465.016,-27.6005 474.769,-23.4623 464.564,-20.6151 465.016,-27.6005"/>
</g>
<!-- Node3 -->
<g id="node3" class="node"><title>Node3</title>
<polygon fill="none" stroke="#bfbfbf" points="2503,-11.5 2503,-30.5 2655,-30.5 2655,-11.5 2503,-11.5"/>
<text text-anchor="middle" x="2579" y="-18.5" font-family="Helvetica,sans-Serif" font-size="10.00">XBotInterface/RobotInterface.h</text>
</g>
<!-- Node2&#45;&gt;Node3 -->
<g id="edge2" class="edge"><title>Node2&#45;&gt;Node3</title>
<path fill="none" stroke="midnightblue" d="M895.685,-286.589C1204.59,-279.283 2502.62,-240.861 2619,-109 2637.67,-87.8424 2614,-56.491 2595.92,-37.7671"/>
<polygon fill="midnightblue" stroke="midnightblue" points="2598.23,-35.1266 2588.66,-30.5823 2593.31,-40.1032 2598.23,-35.1266"/>
</g>
<!-- Node4 -->
<g id="node4" class="node"><title>Node4</title>
<g id="a_node4"><a xlink:href="XBotPlugin_8h.html" target="_top" xlink:title="XBotCore&#45;interfaces\l/XBotPlugin.h">
<polygon fill="none" stroke="black" points="473.5,-212.5 473.5,-242.5 578.5,-242.5 578.5,-212.5 473.5,-212.5"/>
<text text-anchor="start" x="481.5" y="-230.5" font-family="Helvetica,sans-Serif" font-size="10.00">XBotCore&#45;interfaces</text>
<text text-anchor="middle" x="526" y="-219.5" font-family="Helvetica,sans-Serif" font-size="10.00">/XBotPlugin.h</text>
</a>
</g>
</g>
<!-- Node2&#45;&gt;Node4 -->
<g id="edge3" class="edge"><title>Node2&#45;&gt;Node4</title>
<path fill="none" stroke="midnightblue" d="M786.444,-279.475C734.608,-269.329 647.661,-252.312 588.62,-240.756"/>
<polygon fill="midnightblue" stroke="midnightblue" points="589.151,-237.294 578.665,-238.808 587.807,-244.164 589.151,-237.294"/>
</g>
<!-- Node20 -->
<g id="node20" class="node"><title>Node20</title>
<g id="a_node20"><a xlink:href="XDomainCommunication_8h.html" target="_top" xlink:title="XBotCore&#45;interfaces\l/XDomainCommunication.h">
<polygon fill="none" stroke="black" points="1131.5,-212.5 1131.5,-242.5 1268.5,-242.5 1268.5,-212.5 1131.5,-212.5"/>
<text text-anchor="start" x="1139.5" y="-230.5" font-family="Helvetica,sans-Serif" font-size="10.00">XBotCore&#45;interfaces</text>
<text text-anchor="middle" x="1200" y="-219.5" font-family="Helvetica,sans-Serif" font-size="10.00">/XDomainCommunication.h</text>
</a>
</g>
</g>
<!-- Node2&#45;&gt;Node20 -->
<g id="edge28" class="edge"><title>Node2&#45;&gt;Node20</title>
<path fill="none" stroke="midnightblue" d="M883.012,-279.475C945.418,-269.44 1049.64,-252.68 1121.44,-241.134"/>
<polygon fill="midnightblue" stroke="midnightblue" points="1122.03,-244.584 1131.34,-239.541 1120.92,-237.673 1122.03,-244.584"/>
</g>
<!-- Node5 -->
<g id="node5" class="node"><title>Node5</title>
<g id="a_node5"><a xlink:href="IXBotJoint_8h.html" target="_top" xlink:title="XBotCore&#45;interfaces\l/IXBotJoint.h">
<polygon fill="none" stroke="black" points="227.5,-145.5 227.5,-175.5 332.5,-175.5 332.5,-145.5 227.5,-145.5"/>
<text text-anchor="start" x="235.5" y="-163.5" font-family="Helvetica,sans-Serif" font-size="10.00">XBotCore&#45;interfaces</text>
<text text-anchor="middle" x="280" y="-152.5" font-family="Helvetica,sans-Serif" font-size="10.00">/IXBotJoint.h</text>
</a>
</g>
</g>
<!-- Node4&#45;&gt;Node5 -->
<g id="edge4" class="edge"><title>Node4&#45;&gt;Node5</title>
<path fill="none" stroke="midnightblue" d="M473.227,-212.556C434.882,-202.424 382.844,-188.674 342.431,-177.996"/>
<polygon fill="midnightblue" stroke="midnightblue" points="343.248,-174.592 332.686,-175.421 341.46,-181.36 343.248,-174.592"/>
</g>
<!-- Node6 -->
<g id="node6" class="node"><title>Node6</title>
<polygon fill="none" stroke="#bfbfbf" points="139.5,-84 139.5,-103 174.5,-103 174.5,-84 139.5,-84"/>
<text text-anchor="middle" x="157" y="-91" font-family="Helvetica,sans-Serif" font-size="10.00">map</text>
</g>
<!-- Node4&#45;&gt;Node6 -->
<g id="edge24" class="edge"><title>Node4&#45;&gt;Node6</title>
<path fill="none" stroke="midnightblue" d="M473.103,-224.321C361.578,-219.182 110.457,-204.538 85,-176 63.6799,-152.099 102.232,-124.087 130.669,-107.907"/>
<polygon fill="midnightblue" stroke="midnightblue" points="132.371,-110.965 139.457,-103.09 129.006,-104.827 132.371,-110.965"/>
</g>
<!-- Node7 -->
<g id="node7" class="node"><title>Node7</title>
<polygon fill="none" stroke="#bfbfbf" points="455,-84 455,-103 499,-103 499,-84 455,-84"/>
<text text-anchor="middle" x="477" y="-91" font-family="Helvetica,sans-Serif" font-size="10.00">vector</text>
</g>
<!-- Node4&#45;&gt;Node7 -->
<g id="edge25" class="edge"><title>Node4&#45;&gt;Node7</title>
<path fill="none" stroke="midnightblue" d="M552.142,-212.371C565.205,-203.757 579.744,-191.427 587,-176 592.864,-163.532 594.437,-156.598 587,-145 569.976,-118.453 535.108,-105.676 509.168,-99.6476"/>
<polygon fill="midnightblue" stroke="midnightblue" points="509.879,-96.2206 499.373,-97.5873 508.438,-103.071 509.879,-96.2206"/>
</g>
<!-- Node4&#45;&gt;Node8 -->
<g id="edge26" class="edge"><title>Node4&#45;&gt;Node8</title>
<path fill="none" stroke="midnightblue" d="M562.447,-212.459C578.206,-204.349 595.059,-192.439 604,-176 610.583,-163.896 608.706,-157.949 604,-145 587.321,-99.1033 545.175,-58.38 520.27,-37.2718"/>
<polygon fill="midnightblue" stroke="midnightblue" points="522.188,-34.3169 512.249,-30.6473 517.73,-39.7141 522.188,-34.3169"/>
</g>
<!-- Node9 -->
<g id="node9" class="node"><title>Node9</title>
<polygon fill="none" stroke="#bfbfbf" points="201.5,-84 201.5,-103 242.5,-103 242.5,-84 201.5,-84"/>
<text text-anchor="middle" x="222" y="-91" font-family="Helvetica,sans-Serif" font-size="10.00">string</text>
</g>
<!-- Node4&#45;&gt;Node9 -->
<g id="edge27" class="edge"><title>Node4&#45;&gt;Node9</title>
<path fill="none" stroke="midnightblue" d="M473.471,-224.189C364.059,-218.834 119.788,-203.862 95,-176 85.842,-165.706 87.2642,-156.401 95,-145 96.4523,-142.86 154.876,-120.195 191.967,-105.966"/>
<polygon fill="midnightblue" stroke="midnightblue" points="193.258,-109.22 201.344,-102.374 190.754,-102.683 193.258,-109.22"/>
</g>
<!-- Node10 -->
<g id="node10" class="node"><title>Node10</title>
<g id="a_node10"><a xlink:href="IXBotModel_8h.html" target="_top" xlink:title="XBotCore&#45;interfaces\l/IXBotModel.h">
<polygon fill="none" stroke="black" points="104.5,-145.5 104.5,-175.5 209.5,-175.5 209.5,-145.5 104.5,-145.5"/>
<text text-anchor="start" x="112.5" y="-163.5" font-family="Helvetica,sans-Serif" font-size="10.00">XBotCore&#45;interfaces</text>
<text text-anchor="middle" x="157" y="-152.5" font-family="Helvetica,sans-Serif" font-size="10.00">/IXBotModel.h</text>
</a>
</g>
</g>
<!-- Node4&#45;&gt;Node10 -->
<g id="edge9" class="edge"><title>Node4&#45;&gt;Node10</title>
<path fill="none" stroke="midnightblue" d="M473.478,-219.047C414.109,-210.363 314.365,-194.998 219.565,-176.238"/>
<polygon fill="midnightblue" stroke="midnightblue" points="220.012,-172.759 209.52,-174.234 218.642,-179.623 220.012,-172.759"/>
</g>
<!-- Node11 -->
<g id="node11" class="node"><title>Node11</title>
<g id="a_node11"><a xlink:href="IXBotFT_8h.html" target="_top" xlink:title="XBotCore&#45;interfaces\l/IXBotFT.h">
<polygon fill="none" stroke="black" points="350.5,-145.5 350.5,-175.5 455.5,-175.5 455.5,-145.5 350.5,-145.5"/>
<text text-anchor="start" x="358.5" y="-163.5" font-family="Helvetica,sans-Serif" font-size="10.00">XBotCore&#45;interfaces</text>
<text text-anchor="middle" x="403" y="-152.5" font-family="Helvetica,sans-Serif" font-size="10.00">/IXBotFT.h</text>
</a>
</g>
</g>
<!-- Node4&#45;&gt;Node11 -->
<g id="edge13" class="edge"><title>Node4&#45;&gt;Node11</title>
<path fill="none" stroke="midnightblue" d="M499.311,-212.396C481.5,-202.984 457.882,-190.503 438.492,-180.256"/>
<polygon fill="midnightblue" stroke="midnightblue" points="440.114,-177.154 429.637,-175.577 436.843,-183.343 440.114,-177.154"/>
</g>
<!-- Node12 -->
<g id="node12" class="node"><title>Node12</title>
<g id="a_node12"><a xlink:href="IXBotIMU_8h.html" target="_top" xlink:title="XBotCore&#45;interfaces\l/IXBotIMU.h">
<polygon fill="none" stroke="black" points="473.5,-145.5 473.5,-175.5 578.5,-175.5 578.5,-145.5 473.5,-145.5"/>
<text text-anchor="start" x="481.5" y="-163.5" font-family="Helvetica,sans-Serif" font-size="10.00">XBotCore&#45;interfaces</text>
<text text-anchor="middle" x="526" y="-152.5" font-family="Helvetica,sans-Serif" font-size="10.00">/IXBotIMU.h</text>
</a>
</g>
</g>
<!-- Node4&#45;&gt;Node12 -->
<g id="edge14" class="edge"><title>Node4&#45;&gt;Node12</title>
<path fill="none" stroke="midnightblue" d="M526,-212.396C526,-204.645 526,-194.812 526,-185.86"/>
<polygon fill="midnightblue" stroke="midnightblue" points="529.5,-185.576 526,-175.577 522.5,-185.577 529.5,-185.576"/>
</g>
<!-- Node13 -->
<g id="node13" class="node"><title>Node13</title>
<g id="a_node13"><a xlink:href="XBotSharedMemory_8h.html" target="_top" xlink:title="XBotCore&#45;interfaces\l/XBotSharedMemory.h">
<polygon fill="none" stroke="black" points="673,-145.5 673,-175.5 789,-175.5 789,-145.5 673,-145.5"/>
<text text-anchor="start" x="681" y="-163.5" font-family="Helvetica,sans-Serif" font-size="10.00">XBotCore&#45;interfaces</text>
<text text-anchor="middle" x="731" y="-152.5" font-family="Helvetica,sans-Serif" font-size="10.00">/XBotSharedMemory.h</text>
</a>
</g>
</g>
<!-- Node4&#45;&gt;Node13 -->
<g id="edge16" class="edge"><title>Node4&#45;&gt;Node13</title>
<path fill="none" stroke="midnightblue" d="M570.23,-212.476C601.511,-202.557 643.635,-189.201 676.918,-178.648"/>
<polygon fill="midnightblue" stroke="midnightblue" points="678.022,-181.97 686.496,-175.611 675.906,-175.297 678.022,-181.97"/>
</g>
<!-- Node18 -->
<g id="node18" class="node"><title>Node18</title>
<g id="a_node18"><a xlink:href="XBotESC_8h.html" target="_top" xlink:title="XBotCore&#45;interfaces\l/XBotESC.h">
<polygon fill="none" stroke="black" points="807.5,-145.5 807.5,-175.5 912.5,-175.5 912.5,-145.5 807.5,-145.5"/>
<text text-anchor="start" x="815.5" y="-163.5" font-family="Helvetica,sans-Serif" font-size="10.00">XBotCore&#45;interfaces</text>
<text text-anchor="middle" x="860" y="-152.5" font-family="Helvetica,sans-Serif" font-size="10.00">/XBotESC.h</text>
</a>
</g>
</g>
<!-- Node4&#45;&gt;Node18 -->
<g id="edge22" class="edge"><title>Node4&#45;&gt;Node18</title>
<path fill="none" stroke="midnightblue" d="M578.539,-217.487C631.283,-208.272 715.1,-193.178 797.262,-176.099"/>
<polygon fill="midnightblue" stroke="midnightblue" points="798.199,-179.478 807.272,-174.006 796.767,-172.627 798.199,-179.478"/>
</g>
<!-- Node5&#45;&gt;Node6 -->
<g id="edge5" class="edge"><title>Node5&#45;&gt;Node6</title>
<path fill="none" stroke="midnightblue" d="M253.311,-145.396C232.111,-134.193 202.683,-118.641 181.951,-107.685"/>
<polygon fill="midnightblue" stroke="midnightblue" points="183.575,-104.585 173.098,-103.007 180.304,-110.774 183.575,-104.585"/>
</g>
<!-- Node5&#45;&gt;Node7 -->
<g id="edge6" class="edge"><title>Node5&#45;&gt;Node7</title>
<path fill="none" stroke="midnightblue" d="M322.746,-145.396C359.563,-133.248 411.875,-115.988 445.124,-105.018"/>
<polygon fill="midnightblue" stroke="midnightblue" points="446.392,-108.285 454.792,-101.828 444.199,-101.637 446.392,-108.285"/>
</g>
<!-- Node5&#45;&gt;Node8 -->
<g id="edge7" class="edge"><title>Node5&#45;&gt;Node8</title>
<path fill="none" stroke="midnightblue" d="M302.818,-145.303C345.368,-118.83 436.327,-62.2376 478.576,-35.9517"/>
<polygon fill="midnightblue" stroke="midnightblue" points="480.642,-38.7884 487.284,-30.5339 476.944,-32.8449 480.642,-38.7884"/>
</g>
<!-- Node5&#45;&gt;Node9 -->
<g id="edge8" class="edge"><title>Node5&#45;&gt;Node9</title>
<path fill="none" stroke="midnightblue" d="M267.415,-145.396C258.371,-135.261 246.152,-121.567 236.667,-110.937"/>
<polygon fill="midnightblue" stroke="midnightblue" points="239.028,-108.326 229.758,-103.195 233.805,-112.986 239.028,-108.326"/>
</g>
<!-- Node10&#45;&gt;Node6 -->
<g id="edge10" class="edge"><title>Node10&#45;&gt;Node6</title>
<path fill="none" stroke="midnightblue" d="M157,-145.396C157,-136.064 157,-123.714 157,-113.517"/>
<polygon fill="midnightblue" stroke="midnightblue" points="160.5,-113.195 157,-103.195 153.5,-113.195 160.5,-113.195"/>
</g>
<!-- Node10&#45;&gt;Node7 -->
<g id="edge12" class="edge"><title>Node10&#45;&gt;Node7</title>
<path fill="none" stroke="midnightblue" d="M209.541,-146.867C212.4,-146.224 215.234,-145.598 218,-145 299.346,-127.409 395.671,-109.353 444.749,-100.351"/>
<polygon fill="midnightblue" stroke="midnightblue" points="445.557,-103.761 454.764,-98.5192 444.298,-96.8753 445.557,-103.761"/>
</g>
<!-- Node10&#45;&gt;Node9 -->
<g id="edge11" class="edge"><title>Node10&#45;&gt;Node9</title>
<path fill="none" stroke="midnightblue" d="M171.104,-145.396C181.44,-135.06 195.476,-121.024 206.191,-110.309"/>
<polygon fill="midnightblue" stroke="midnightblue" points="208.709,-112.741 213.305,-103.195 203.759,-107.791 208.709,-112.741"/>
</g>
<!-- Node12&#45;&gt;Node7 -->
<g id="edge15" class="edge"><title>Node12&#45;&gt;Node7</title>
<path fill="none" stroke="midnightblue" d="M515.368,-145.396C507.803,-135.361 497.609,-121.838 489.63,-111.253"/>
<polygon fill="midnightblue" stroke="midnightblue" points="492.369,-109.073 483.554,-103.195 486.779,-113.287 492.369,-109.073"/>
</g>
<!-- Node14 -->
<g id="node14" class="node"><title>Node14</title>
<g id="a_node14"><a xlink:href="XBotSharedObject_8h.html" target="_top" xlink:title="XBotCore&#45;interfaces\l/XBotSharedObject.h">
<polygon fill="none" stroke="black" points="693.5,-78.5 693.5,-108.5 802.5,-108.5 802.5,-78.5 693.5,-78.5"/>
<text text-anchor="start" x="701.5" y="-96.5" font-family="Helvetica,sans-Serif" font-size="10.00">XBotCore&#45;interfaces</text>
<text text-anchor="middle" x="748" y="-85.5" font-family="Helvetica,sans-Serif" font-size="10.00">/XBotSharedObject.h</text>
</a>
</g>
</g>
<!-- Node13&#45;&gt;Node14 -->
<g id="edge17" class="edge"><title>Node13&#45;&gt;Node14</title>
<path fill="none" stroke="midnightblue" d="M734.689,-145.396C736.761,-137.474 739.401,-127.379 741.783,-118.271"/>
<polygon fill="midnightblue" stroke="midnightblue" points="745.174,-119.137 744.318,-108.577 738.402,-117.365 745.174,-119.137"/>
</g>
<!-- Node14&#45;&gt;Node8 -->
<g id="edge20" class="edge"><title>Node14&#45;&gt;Node8</title>
<path fill="none" stroke="midnightblue" d="M693.492,-80.3631C635.662,-67.3517 550.624,-47.7817 536,-42 531.56,-40.2447 527.001,-38.0046 522.702,-35.6628"/>
<polygon fill="midnightblue" stroke="midnightblue" points="524.257,-32.5185 513.852,-30.5226 520.741,-38.5716 524.257,-32.5185"/>
</g>
<!-- Node15 -->
<g id="node15" class="node"><title>Node15</title>
<polygon fill="none" stroke="#bfbfbf" points="647,-11.5 647,-30.5 725,-30.5 725,-11.5 647,-11.5"/>
<text text-anchor="middle" x="686" y="-18.5" font-family="Helvetica,sans-Serif" font-size="10.00">boost/any.hpp</text>
</g>
<!-- Node14&#45;&gt;Node15 -->
<g id="edge18" class="edge"><title>Node14&#45;&gt;Node15</title>
<path fill="none" stroke="midnightblue" d="M735.453,-78.2333C725.334,-66.7261 711.089,-50.5283 700.485,-38.4707"/>
<polygon fill="midnightblue" stroke="midnightblue" points="703.053,-36.0911 693.821,-30.8932 697.797,-40.7138 703.053,-36.0911"/>
</g>
<!-- Node16 -->
<g id="node16" class="node"><title>Node16</title>
<polygon fill="none" stroke="#bfbfbf" points="545.5,-11.5 545.5,-30.5 628.5,-30.5 628.5,-11.5 545.5,-11.5"/>
<text text-anchor="middle" x="587" y="-18.5" font-family="Helvetica,sans-Serif" font-size="10.00">unordered_map</text>
</g>
<!-- Node14&#45;&gt;Node16 -->
<g id="edge19" class="edge"><title>Node14&#45;&gt;Node16</title>
<path fill="none" stroke="midnightblue" d="M715.806,-78.4027C686.583,-65.6063 643.883,-46.9083 615.775,-34.6004"/>
<polygon fill="midnightblue" stroke="midnightblue" points="617.052,-31.3387 606.488,-30.5336 614.244,-37.7509 617.052,-31.3387"/>
</g>
<!-- Node17 -->
<g id="node17" class="node"><title>Node17</title>
<polygon fill="none" stroke="#bfbfbf" points="743,-11.5 743,-30.5 797,-30.5 797,-11.5 743,-11.5"/>
<text text-anchor="middle" x="770" y="-18.5" font-family="Helvetica,sans-Serif" font-size="10.00">iostream</text>
</g>
<!-- Node14&#45;&gt;Node17 -->
<g id="edge21" class="edge"><title>Node14&#45;&gt;Node17</title>
<path fill="none" stroke="midnightblue" d="M752.452,-78.2333C755.836,-67.3899 760.519,-52.3816 764.197,-40.5972"/>
<polygon fill="midnightblue" stroke="midnightblue" points="767.587,-41.4818 767.225,-30.8932 760.905,-39.3965 767.587,-41.4818"/>
</g>
<!-- Node19 -->
<g id="node19" class="node"><title>Node19</title>
<polygon fill="none" stroke="#bfbfbf" points="815.5,-11.5 815.5,-30.5 864.5,-30.5 864.5,-11.5 815.5,-11.5"/>
<text text-anchor="middle" x="840" y="-18.5" font-family="Helvetica,sans-Serif" font-size="10.00">stdint.h</text>
</g>
<!-- Node18&#45;&gt;Node19 -->
<g id="edge23" class="edge"><title>Node18&#45;&gt;Node19</title>
<path fill="none" stroke="midnightblue" d="M857.935,-145.303C854.303,-120.336 846.775,-68.5803 842.723,-40.7219"/>
<polygon fill="midnightblue" stroke="midnightblue" points="846.169,-40.0927 841.266,-30.7007 839.241,-41.1003 846.169,-40.0927"/>
</g>
<!-- Node20&#45;&gt;Node17 -->
<g id="edge64" class="edge"><title>Node20&#45;&gt;Node17</title>
<path fill="none" stroke="midnightblue" d="M1162.47,-212.493C1136.8,-202.72 1102.11,-189.126 1072,-176 965.816,-129.714 844.4,-63.5736 793.935,-35.4656"/>
<polygon fill="midnightblue" stroke="midnightblue" points="795.522,-32.343 785.085,-30.5204 792.107,-38.4537 795.522,-32.343"/>
</g>
<!-- Node21 -->
<g id="node21" class="node"><title>Node21</title>
<g id="a_node21"><a xlink:href="XBotPipes_8h.html" target="_top" xlink:title="XBotCore&#45;interfaces\l/XBotPipes.h">
<polygon fill="none" stroke="black" points="1081.5,-145.5 1081.5,-175.5 1186.5,-175.5 1186.5,-145.5 1081.5,-145.5"/>
<text text-anchor="start" x="1089.5" y="-163.5" font-family="Helvetica,sans-Serif" font-size="10.00">XBotCore&#45;interfaces</text>
<text text-anchor="middle" x="1134" y="-152.5" font-family="Helvetica,sans-Serif" font-size="10.00">/XBotPipes.h</text>
</a>
</g>
</g>
<!-- Node20&#45;&gt;Node21 -->
<g id="edge29" class="edge"><title>Node20&#45;&gt;Node21</title>
<path fill="none" stroke="midnightblue" d="M1185.68,-212.396C1176.86,-203.708 1165.38,-192.405 1155.48,-182.658"/>
<polygon fill="midnightblue" stroke="midnightblue" points="1157.87,-180.1 1148.29,-175.577 1152.96,-185.087 1157.87,-180.1"/>
</g>
<!-- Node23 -->
<g id="node23" class="node"><title>Node23</title>
<polygon fill="none" stroke="#bfbfbf" points="1288,-84 1288,-103 1348,-103 1348,-84 1288,-84"/>
<text text-anchor="middle" x="1318" y="-91" font-family="Helvetica,sans-Serif" font-size="10.00">sys/stat.h</text>
</g>
<!-- Node20&#45;&gt;Node23 -->
<g id="edge62" class="edge"><title>Node20&#45;&gt;Node23</title>
<path fill="none" stroke="midnightblue" d="M1212.63,-212.374C1234.73,-187.648 1280.29,-136.683 1303.59,-110.62"/>
<polygon fill="midnightblue" stroke="midnightblue" points="1306.26,-112.885 1310.31,-103.097 1301.04,-108.22 1306.26,-112.885"/>
</g>
<!-- Node24 -->
<g id="node24" class="node"><title>Node24</title>
<polygon fill="none" stroke="#bfbfbf" points="1366,-84 1366,-103 1410,-103 1410,-84 1366,-84"/>
<text text-anchor="middle" x="1388" y="-91" font-family="Helvetica,sans-Serif" font-size="10.00">fcntl.h</text>
</g>
<!-- Node20&#45;&gt;Node24 -->
<g id="edge63" class="edge"><title>Node20&#45;&gt;Node24</title>
<path fill="none" stroke="midnightblue" d="M1220.5,-212.413C1235.15,-202.318 1255.33,-188.375 1273,-176 1306.27,-152.705 1344.74,-125.36 1367.68,-109.007"/>
<polygon fill="midnightblue" stroke="midnightblue" points="1369.84,-111.767 1375.95,-103.111 1365.77,-106.068 1369.84,-111.767"/>
</g>
<!-- Node39 -->
<g id="node39" class="node"><title>Node39</title>
<g id="a_node39"><a xlink:href="CommunicationInterfaceROS_8h.html" target="_top" xlink:title="XCM/CommunicationInterface\lROS.h">
<polygon fill="none" stroke="black" points="1926.5,-145.5 1926.5,-175.5 2075.5,-175.5 2075.5,-145.5 1926.5,-145.5"/>
<text text-anchor="start" x="1934.5" y="-163.5" font-family="Helvetica,sans-Serif" font-size="10.00">XCM/CommunicationInterface</text>
<text text-anchor="middle" x="2001" y="-152.5" font-family="Helvetica,sans-Serif" font-size="10.00">ROS.h</text>
</a>
</g>
</g>
<!-- Node20&#45;&gt;Node39 -->
<g id="edge51" class="edge"><title>Node20&#45;&gt;Node39</title>
<path fill="none" stroke="midnightblue" d="M1268.64,-220.93C1414.81,-209.068 1756.49,-181.342 1916.07,-168.392"/>
<polygon fill="midnightblue" stroke="midnightblue" points="1916.63,-171.858 1926.31,-167.561 1916.06,-164.881 1916.63,-171.858"/>
</g>
<!-- Node21&#45;&gt;Node8 -->
<g id="edge31" class="edge"><title>Node21&#45;&gt;Node8</title>
<path fill="none" stroke="midnightblue" d="M1081.18,-155.091C970.274,-145.613 720.352,-123.024 684,-109 662.019,-100.52 661.925,-88.8264 641,-78 597.184,-55.3298 580.95,-62.3287 536,-42 531.911,-40.1507 527.674,-37.973 523.621,-35.7474"/>
<polygon fill="midnightblue" stroke="midnightblue" points="525.065,-32.541 514.65,-30.5995 521.581,-38.6124 525.065,-32.541"/>
</g>
<!-- Node21&#45;&gt;Node9 -->
<g id="edge30" class="edge"><title>Node21&#45;&gt;Node9</title>
<path fill="none" stroke="midnightblue" d="M1081.36,-155.748C912.377,-143.704 386.892,-106.252 253.194,-96.7232"/>
<polygon fill="midnightblue" stroke="midnightblue" points="253.087,-93.2069 242.864,-95.987 252.589,-100.189 253.087,-93.2069"/>
</g>
<!-- Node21&#45;&gt;Node17 -->
<g id="edge32" class="edge"><title>Node21&#45;&gt;Node17</title>
<path fill="none" stroke="midnightblue" d="M1100.48,-145.476C1051.94,-125.256 964.367,-89.1189 932,-78 876.919,-59.0781 859.808,-64.2878 806,-42 801.57,-40.1651 796.991,-37.9191 792.644,-35.6032"/>
<polygon fill="midnightblue" stroke="midnightblue" points="794.082,-32.3969 783.649,-30.5545 790.656,-38.5011 794.082,-32.3969"/>
</g>
<!-- Node22 -->
<g id="node22" class="node"><title>Node22</title>
<polygon fill="none" stroke="#bfbfbf" points="1022,-84 1022,-103 1090,-103 1090,-84 1022,-84"/>
<text text-anchor="middle" x="1056" y="-91" font-family="Helvetica,sans-Serif" font-size="10.00">sys/types.h</text>
</g>
<!-- Node21&#45;&gt;Node22 -->
<g id="edge33" class="edge"><title>Node21&#45;&gt;Node22</title>
<path fill="none" stroke="midnightblue" d="M1117.08,-145.396C1104.43,-134.86 1087.17,-120.477 1074.23,-109.689"/>
<polygon fill="midnightblue" stroke="midnightblue" points="1076.36,-106.908 1066.43,-103.195 1071.88,-112.285 1076.36,-106.908"/>
</g>
<!-- Node21&#45;&gt;Node23 -->
<g id="edge34" class="edge"><title>Node21&#45;&gt;Node23</title>
<path fill="none" stroke="midnightblue" d="M1175.02,-145.469C1204.1,-135.459 1244.01,-121.595 1279,-109 1281.24,-108.195 1283.54,-107.357 1285.86,-106.509"/>
<polygon fill="midnightblue" stroke="midnightblue" points="1287.17,-109.756 1295.34,-103.014 1284.75,-103.188 1287.17,-109.756"/>
</g>
<!-- Node21&#45;&gt;Node24 -->
<g id="edge35" class="edge"><title>Node21&#45;&gt;Node24</title>
<path fill="none" stroke="midnightblue" d="M1186.7,-150.87C1232.45,-142.601 1300.11,-128.494 1357,-109 1358.62,-108.444 1360.27,-107.829 1361.93,-107.175"/>
<polygon fill="midnightblue" stroke="midnightblue" points="1363.43,-110.337 1371.22,-103.15 1360.65,-103.914 1363.43,-110.337"/>
</g>
<!-- Node25 -->
<g id="node25" class="node"><title>Node25</title>
<polygon fill="none" stroke="#bfbfbf" points="1108.5,-84 1108.5,-103 1159.5,-103 1159.5,-84 1108.5,-84"/>
<text text-anchor="middle" x="1134" y="-91" font-family="Helvetica,sans-Serif" font-size="10.00">unistd.h</text>
</g>
<!-- Node21&#45;&gt;Node25 -->
<g id="edge36" class="edge"><title>Node21&#45;&gt;Node25</title>
<path fill="none" stroke="midnightblue" d="M1134,-145.396C1134,-136.064 1134,-123.714 1134,-113.517"/>
<polygon fill="midnightblue" stroke="midnightblue" points="1137.5,-113.195 1134,-103.195 1130.5,-113.195 1137.5,-113.195"/>
</g>
<!-- Node26 -->
<g id="node26" class="node"><title>Node26</title>
<g id="a_node26"><a xlink:href="XBotUtils_8h.html" target="_top" xlink:title="XCM/XBotUtils.h">
<polygon fill="none" stroke="black" points="1178,-84 1178,-103 1270,-103 1270,-84 1178,-84"/>
<text text-anchor="middle" x="1224" y="-91" font-family="Helvetica,sans-Serif" font-size="10.00">XCM/XBotUtils.h</text>
</a>
</g>
</g>
<!-- Node21&#45;&gt;Node26 -->
<g id="edge37" class="edge"><title>Node21&#45;&gt;Node26</title>
<path fill="none" stroke="midnightblue" d="M1153.53,-145.396C1168.48,-134.597 1189.03,-119.756 1204.08,-108.887"/>
<polygon fill="midnightblue" stroke="midnightblue" points="1206.16,-111.699 1212.22,-103.007 1202.07,-106.025 1206.16,-111.699"/>
</g>
<!-- Node26&#45;&gt;Node19 -->
<g id="edge38" class="edge"><title>Node26&#45;&gt;Node19</title>
<path fill="none" stroke="midnightblue" d="M1193.94,-83.9384C1185.59,-81.7734 1176.49,-79.6091 1168,-78 1038.23,-53.3923 997.821,-85.1941 873,-42 868.535,-40.4548 864.025,-38.2429 859.834,-35.849"/>
<polygon fill="midnightblue" stroke="midnightblue" points="861.643,-32.8517 851.311,-30.5057 857.925,-38.7827 861.643,-32.8517"/>
</g>
<!-- Node27 -->
<g id="node27" class="node"><title>Node27</title>
<polygon fill="none" stroke="#bfbfbf" points="1757,-11.5 1757,-30.5 1803,-30.5 1803,-11.5 1757,-11.5"/>
<text text-anchor="middle" x="1780" y="-18.5" font-family="Helvetica,sans-Serif" font-size="10.00">stdio.h</text>
</g>
<!-- Node26&#45;&gt;Node27 -->
<g id="edge39" class="edge"><title>Node26&#45;&gt;Node27</title>
<path fill="none" stroke="midnightblue" d="M1252.33,-83.9819C1260.84,-81.7102 1270.24,-79.479 1279,-78 1485.14,-43.2103 1549.4,-107.287 1748,-42 1752.27,-40.596 1756.55,-38.5075 1760.53,-36.2024"/>
<polygon fill="midnightblue" stroke="midnightblue" points="1762.62,-39.0195 1769.12,-30.651 1758.82,-33.141 1762.62,-39.0195"/>
</g>
<!-- Node28 -->
<g id="node28" class="node"><title>Node28</title>
<polygon fill="none" stroke="#bfbfbf" points="1821,-11.5 1821,-30.5 1871,-30.5 1871,-11.5 1821,-11.5"/>
<text text-anchor="middle" x="1846" y="-18.5" font-family="Helvetica,sans-Serif" font-size="10.00">fstream</text>
</g>
<!-- Node26&#45;&gt;Node28 -->
<g id="edge40" class="edge"><title>Node26&#45;&gt;Node28</title>
<path fill="none" stroke="midnightblue" d="M1252.32,-83.9312C1260.83,-81.6581 1270.23,-79.4388 1279,-78 1513.3,-39.5627 1585.15,-112.07 1812,-42 1816.62,-40.5745 1821.27,-38.4164 1825.59,-36.0375"/>
<polygon fill="midnightblue" stroke="midnightblue" points="1827.66,-38.8748 1834.37,-30.6759 1824.01,-32.9007 1827.66,-38.8748"/>
</g>
<!-- Node29 -->
<g id="node29" class="node"><title>Node29</title>
<polygon fill="none" stroke="#bfbfbf" points="1889,-11.5 1889,-30.5 1941,-30.5 1941,-11.5 1889,-11.5"/>
<text text-anchor="middle" x="1915" y="-18.5" font-family="Helvetica,sans-Serif" font-size="10.00">sstream</text>
</g>
<!-- Node26&#45;&gt;Node29 -->
<g id="edge41" class="edge"><title>Node26&#45;&gt;Node29</title>
<path fill="none" stroke="midnightblue" d="M1252.03,-83.9649C1260.61,-81.664 1270.13,-79.421 1279,-78 1543.22,-35.6851 1623.54,-118.386 1880,-42 1884.86,-40.5528 1889.77,-38.3233 1894.32,-35.8701"/>
<polygon fill="midnightblue" stroke="midnightblue" points="1896.2,-38.8236 1903,-30.6992 1892.61,-32.8096 1896.2,-38.8236"/>
</g>
<!-- Node30 -->
<g id="node30" class="node"><title>Node30</title>
<polygon fill="none" stroke="#bfbfbf" points="1959,-11.5 1959,-30.5 2083,-30.5 2083,-11.5 1959,-11.5"/>
<text text-anchor="middle" x="2021" y="-18.5" font-family="Helvetica,sans-Serif" font-size="10.00">boost/circular_buffer.hpp</text>
</g>
<!-- Node26&#45;&gt;Node30 -->
<g id="edge42" class="edge"><title>Node26&#45;&gt;Node30</title>
<path fill="none" stroke="midnightblue" d="M1252.03,-83.9305C1260.61,-81.6283 1270.12,-79.3934 1279,-78 1574.04,-31.6919 1655.36,-90.7853 1950,-42 1962.02,-40.0099 1974.91,-36.737 1986.37,-33.4095"/>
<polygon fill="midnightblue" stroke="midnightblue" points="1987.44,-36.7409 1996,-30.5021 1985.42,-30.0391 1987.44,-36.7409"/>
</g>
<!-- Node31 -->
<g id="node31" class="node"><title>Node31</title>
<polygon fill="none" stroke="#bfbfbf" points="2101,-6 2101,-36 2203,-36 2203,-6 2101,-6"/>
<text text-anchor="start" x="2109" y="-24" font-family="Helvetica,sans-Serif" font-size="10.00">boost/accumulators</text>
<text text-anchor="middle" x="2152" y="-13" font-family="Helvetica,sans-Serif" font-size="10.00">/accumulators.hpp</text>
</g>
<!-- Node26&#45;&gt;Node31 -->
<g id="edge43" class="edge"><title>Node26&#45;&gt;Node31</title>
<path fill="none" stroke="midnightblue" d="M1251.74,-83.9547C1260.39,-81.6238 1270.02,-79.3667 1279,-78 1636.57,-23.5885 1736.35,-107.82 2092,-42 2096.43,-41.1798 2100.98,-40.1085 2105.51,-38.8876"/>
<polygon fill="midnightblue" stroke="midnightblue" points="2106.69,-42.1893 2115.3,-36.0155 2104.71,-35.4725 2106.69,-42.1893"/>
</g>
<!-- Node32 -->
<g id="node32" class="node"><title>Node32</title>
<polygon fill="none" stroke="#bfbfbf" points="882.5,-6 882.5,-36 987.5,-36 987.5,-6 882.5,-6"/>
<text text-anchor="start" x="890.5" y="-24" font-family="Helvetica,sans-Serif" font-size="10.00">boost/accumulators</text>
<text text-anchor="middle" x="935" y="-13" font-family="Helvetica,sans-Serif" font-size="10.00">/statistics/count.hpp</text>
</g>
<!-- Node26&#45;&gt;Node32 -->
<g id="edge44" class="edge"><title>Node26&#45;&gt;Node32</title>
<path fill="none" stroke="midnightblue" d="M1192.08,-83.9585C1184.23,-81.9328 1175.82,-79.8304 1168,-78 1091.95,-60.2066 1071.44,-62.197 996,-42 992.614,-41.0935 989.139,-40.1078 985.648,-39.0761"/>
<polygon fill="midnightblue" stroke="midnightblue" points="986.415,-35.6509 975.829,-36.0743 984.369,-42.345 986.415,-35.6509"/>
</g>
<!-- Node33 -->
<g id="node33" class="node"><title>Node33</title>
<polygon fill="none" stroke="#bfbfbf" points="1005.5,-6 1005.5,-36 1110.5,-36 1110.5,-6 1005.5,-6"/>
<text text-anchor="start" x="1013.5" y="-24" font-family="Helvetica,sans-Serif" font-size="10.00">boost/accumulators</text>
<text text-anchor="middle" x="1058" y="-13" font-family="Helvetica,sans-Serif" font-size="10.00">/statistics/mean.hpp</text>
</g>
<!-- Node26&#45;&gt;Node33 -->
<g id="edge45" class="edge"><title>Node26&#45;&gt;Node33</title>
<path fill="none" stroke="midnightblue" d="M1203.98,-83.9961C1178.47,-73.163 1133.71,-54.1543 1100.46,-40.0325"/>
<polygon fill="midnightblue" stroke="midnightblue" points="1101.55,-36.6935 1090.98,-36.0059 1098.81,-43.1365 1101.55,-36.6935"/>
</g>
<!-- Node34 -->
<g id="node34" class="node"><title>Node34</title>
<polygon fill="none" stroke="#bfbfbf" points="1129,-6 1129,-36 1231,-36 1231,-6 1129,-6"/>
<text text-anchor="start" x="1137" y="-24" font-family="Helvetica,sans-Serif" font-size="10.00">boost/accumulators</text>
<text text-anchor="middle" x="1180" y="-13" font-family="Helvetica,sans-Serif" font-size="10.00">/statistics/min.hpp</text>
</g>
<!-- Node26&#45;&gt;Node34 -->
<g id="edge46" class="edge"><title>Node26&#45;&gt;Node34</title>
<path fill="none" stroke="midnightblue" d="M1218.6,-83.8553C1212.56,-74.176 1202.53,-58.098 1194.2,-44.76"/>
<polygon fill="midnightblue" stroke="midnightblue" points="1197.05,-42.7064 1188.79,-36.0762 1191.11,-46.4126 1197.05,-42.7064"/>
</g>
<!-- Node35 -->
<g id="node35" class="node"><title>Node35</title>
<polygon fill="none" stroke="#bfbfbf" points="1249,-6 1249,-36 1351,-36 1351,-6 1249,-6"/>
<text text-anchor="start" x="1257" y="-24" font-family="Helvetica,sans-Serif" font-size="10.00">boost/accumulators</text>
<text text-anchor="middle" x="1300" y="-13" font-family="Helvetica,sans-Serif" font-size="10.00">/statistics/max.hpp</text>
</g>
<!-- Node26&#45;&gt;Node35 -->
<g id="edge47" class="edge"><title>Node26&#45;&gt;Node35</title>
<path fill="none" stroke="midnightblue" d="M1233.32,-83.8553C1244.15,-73.8037 1262.43,-56.8518 1277.11,-43.2337"/>
<polygon fill="midnightblue" stroke="midnightblue" points="1279.87,-45.443 1284.83,-36.0762 1275.11,-40.311 1279.87,-45.443"/>
</g>
<!-- Node36 -->
<g id="node36" class="node"><title>Node36</title>
<polygon fill="none" stroke="#bfbfbf" points="1369,-6 1369,-36 1487,-36 1487,-6 1369,-6"/>
<text text-anchor="start" x="1377" y="-24" font-family="Helvetica,sans-Serif" font-size="10.00">boost/accumulators</text>
<text text-anchor="middle" x="1428" y="-13" font-family="Helvetica,sans-Serif" font-size="10.00">/statistics/variance.hpp</text>
</g>
<!-- Node26&#45;&gt;Node36 -->
<g id="edge48" class="edge"><title>Node26&#45;&gt;Node36</title>
<path fill="none" stroke="midnightblue" d="M1248.61,-83.9961C1280.49,-72.977 1336.85,-53.4992 1377.91,-39.3096"/>
<polygon fill="midnightblue" stroke="midnightblue" points="1379.16,-42.5803 1387.47,-36.0059 1376.88,-35.9643 1379.16,-42.5803"/>
</g>
<!-- Node37 -->
<g id="node37" class="node"><title>Node37</title>
<polygon fill="none" stroke="#bfbfbf" points="1505,-6 1505,-36 1619,-36 1619,-6 1505,-6"/>
<text text-anchor="start" x="1513" y="-24" font-family="Helvetica,sans-Serif" font-size="10.00">boost/accumulators</text>
<text text-anchor="middle" x="1562" y="-13" font-family="Helvetica,sans-Serif" font-size="10.00">/statistics/error_of.hpp</text>
</g>
<!-- Node26&#45;&gt;Node37 -->
<g id="edge49" class="edge"><title>Node26&#45;&gt;Node37</title>
<path fill="none" stroke="midnightblue" d="M1254.42,-83.937C1262.39,-81.8452 1270.99,-79.7173 1279,-78 1374.59,-57.5166 1400.8,-64.2228 1496,-42 1500.13,-41.0355 1504.38,-39.9548 1508.65,-38.8086"/>
<polygon fill="midnightblue" stroke="midnightblue" points="1509.86,-42.1029 1518.55,-36.0388 1507.98,-35.3616 1509.86,-42.1029"/>
</g>
<!-- Node38 -->
<g id="node38" class="node"><title>Node38</title>
<polygon fill="none" stroke="#bfbfbf" points="1637,-0.5 1637,-41.5 1739,-41.5 1739,-0.5 1637,-0.5"/>
<text text-anchor="start" x="1645" y="-29.5" font-family="Helvetica,sans-Serif" font-size="10.00">boost/accumulators</text>
<text text-anchor="start" x="1645" y="-18.5" font-family="Helvetica,sans-Serif" font-size="10.00">/statistics/error_of</text>
<text text-anchor="middle" x="1688" y="-7.5" font-family="Helvetica,sans-Serif" font-size="10.00">_mean.hpp</text>
</g>
<!-- Node26&#45;&gt;Node38 -->
<g id="edge50" class="edge"><title>Node26&#45;&gt;Node38</title>
<path fill="none" stroke="midnightblue" d="M1252.93,-83.9753C1261.28,-81.7584 1270.45,-79.5581 1279,-78 1429.11,-50.641 1473.66,-73.8103 1626.59,-42.0525"/>
<polygon fill="midnightblue" stroke="midnightblue" points="1627.76,-45.3807 1636.82,-39.8802 1626.31,-38.5334 1627.76,-45.3807"/>
</g>
<!-- Node40 -->
<g id="node40" class="node"><title>Node40</title>
<g id="a_node40"><a xlink:href="XBotCommunicationInterface_8h.html" target="_top" xlink:title="XCM/XBotCommunicationInterface.h">
<polygon fill="none" stroke="black" points="2430.5,-84 2430.5,-103 2609.5,-103 2609.5,-84 2430.5,-84"/>
<text text-anchor="middle" x="2520" y="-91" font-family="Helvetica,sans-Serif" font-size="10.00">XCM/XBotCommunicationInterface.h</text>
</a>
</g>
</g>
<!-- Node39&#45;&gt;Node40 -->
<g id="edge52" class="edge"><title>Node39&#45;&gt;Node40</title>
<path fill="none" stroke="midnightblue" d="M2075.8,-151.095C2159.86,-141.513 2300.34,-125.088 2421,-109 2431.44,-107.608 2442.49,-106.062 2453.27,-104.514"/>
<polygon fill="midnightblue" stroke="midnightblue" points="2454.1,-107.93 2463.49,-103.033 2453.1,-101.002 2454.1,-107.93"/>
</g>
<!-- Node41 -->
<g id="node41" class="node"><title>Node41</title>
<polygon fill="none" stroke="#bfbfbf" points="2140.5,-84 2140.5,-103 2195.5,-103 2195.5,-84 2140.5,-84"/>
<text text-anchor="middle" x="2168" y="-91" font-family="Helvetica,sans-Serif" font-size="10.00">ros/ros.h</text>
</g>
<!-- Node39&#45;&gt;Node41 -->
<g id="edge54" class="edge"><title>Node39&#45;&gt;Node41</title>
<path fill="none" stroke="midnightblue" d="M2037.16,-145.488C2063.25,-135.369 2099.31,-121.365 2131,-109 2132.83,-108.285 2134.71,-107.55 2136.61,-106.808"/>
<polygon fill="midnightblue" stroke="midnightblue" points="2138.05,-110.002 2146.09,-103.098 2135.5,-103.483 2138.05,-110.002"/>
</g>
<!-- Node42 -->
<g id="node42" class="node"><title>Node42</title>
<polygon fill="none" stroke="#bfbfbf" points="2214,-84 2214,-103 2314,-103 2314,-84 2214,-84"/>
<text text-anchor="middle" x="2264" y="-91" font-family="Helvetica,sans-Serif" font-size="10.00">std_srvs/SetBool.h</text>
</g>
<!-- Node39&#45;&gt;Node42 -->
<g id="edge55" class="edge"><title>Node39&#45;&gt;Node42</title>
<path fill="none" stroke="midnightblue" d="M2057.74,-145.476C2106.22,-133.496 2174.98,-116.501 2219.54,-105.488"/>
<polygon fill="midnightblue" stroke="midnightblue" points="2220.62,-108.826 2229.49,-103.029 2218.94,-102.03 2220.62,-108.826"/>
</g>
<!-- Node43 -->
<g id="node43" class="node"><title>Node43</title>
<polygon fill="none" stroke="#bfbfbf" points="2332,-84 2332,-103 2412,-103 2412,-84 2332,-84"/>
<text text-anchor="middle" x="2372" y="-91" font-family="Helvetica,sans-Serif" font-size="10.00">boost/bind.hpp</text>
</g>
<!-- Node39&#45;&gt;Node43 -->
<g id="edge56" class="edge"><title>Node39&#45;&gt;Node43</title>
<path fill="none" stroke="midnightblue" d="M2075.71,-150.63C2141.31,-142.166 2239.09,-127.907 2323,-109 2327.14,-108.068 2331.44,-106.978 2335.7,-105.822"/>
<polygon fill="midnightblue" stroke="midnightblue" points="2336.8,-109.147 2345.47,-103.047 2334.89,-102.413 2336.8,-109.147"/>
</g>
<!-- Node44 -->
<g id="node44" class="node"><title>Node44</title>
<polygon fill="none" stroke="#bfbfbf" points="1428,-78.5 1428,-108.5 1568,-108.5 1568,-78.5 1428,-78.5"/>
<text text-anchor="start" x="1436" y="-96.5" font-family="Helvetica,sans-Serif" font-size="10.00">RobotInterfaceROS/Generic</text>
<text text-anchor="middle" x="1498" y="-85.5" font-family="Helvetica,sans-Serif" font-size="10.00">ControlMessage.h</text>
</g>
<!-- Node39&#45;&gt;Node44 -->
<g id="edge57" class="edge"><title>Node39&#45;&gt;Node44</title>
<path fill="none" stroke="midnightblue" d="M1926.13,-152.024C1843.42,-143.438 1706.05,-128.219 1578.15,-109.118"/>
<polygon fill="midnightblue" stroke="midnightblue" points="1578.58,-105.643 1568.17,-107.617 1577.54,-112.566 1578.58,-105.643"/>
</g>
<!-- Node45 -->
<g id="node45" class="node"><title>Node45</title>
<polygon fill="none" stroke="#bfbfbf" points="1586,-78.5 1586,-108.5 1726,-108.5 1726,-78.5 1586,-78.5"/>
<text text-anchor="start" x="1594" y="-96.5" font-family="Helvetica,sans-Serif" font-size="10.00">RobotInterfaceROS/Generic</text>
<text text-anchor="middle" x="1656" y="-85.5" font-family="Helvetica,sans-Serif" font-size="10.00">JointStateMessage.h</text>
</g>
<!-- Node39&#45;&gt;Node45 -->
<g id="edge58" class="edge"><title>Node39&#45;&gt;Node45</title>
<path fill="none" stroke="midnightblue" d="M1926.56,-145.476C1870.5,-134.914 1793.75,-120.453 1736.31,-109.631"/>
<polygon fill="midnightblue" stroke="midnightblue" points="1736.66,-106.135 1726.18,-107.723 1735.36,-113.014 1736.66,-106.135"/>
</g>
<!-- Node46 -->
<g id="node46" class="node"><title>Node46</title>
<polygon fill="none" stroke="#bfbfbf" points="1744.5,-78.5 1744.5,-108.5 1865.5,-108.5 1865.5,-78.5 1744.5,-78.5"/>
<text text-anchor="start" x="1752.5" y="-96.5" font-family="Helvetica,sans-Serif" font-size="10.00">robot_state_publisher</text>
<text text-anchor="middle" x="1805" y="-85.5" font-family="Helvetica,sans-Serif" font-size="10.00">/robot_state_publisher.h</text>
</g>
<!-- Node39&#45;&gt;Node46 -->
<g id="edge59" class="edge"><title>Node39&#45;&gt;Node46</title>
<path fill="none" stroke="midnightblue" d="M1958.47,-145.396C1928.68,-135.515 1888.68,-122.252 1856.99,-111.743"/>
<polygon fill="midnightblue" stroke="midnightblue" points="1858.04,-108.402 1847.45,-108.577 1855.84,-115.046 1858.04,-108.402"/>
</g>
<!-- Node47 -->
<g id="node47" class="node"><title>Node47</title>
<polygon fill="none" stroke="#bfbfbf" points="1884,-84 1884,-103 1990,-103 1990,-84 1884,-84"/>
<text text-anchor="middle" x="1937" y="-91" font-family="Helvetica,sans-Serif" font-size="10.00">XCM/cmd_service.h</text>
</g>
<!-- Node39&#45;&gt;Node47 -->
<g id="edge60" class="edge"><title>Node39&#45;&gt;Node47</title>
<path fill="none" stroke="midnightblue" d="M1987.11,-145.396C1977.04,-135.161 1963.38,-121.296 1952.87,-110.622"/>
<polygon fill="midnightblue" stroke="midnightblue" points="1955.07,-107.865 1945.56,-103.195 1950.08,-112.776 1955.07,-107.865"/>
</g>
<!-- Node48 -->
<g id="node48" class="node"><title>Node48</title>
<polygon fill="none" stroke="#bfbfbf" points="2008,-84 2008,-103 2122,-103 2122,-84 2008,-84"/>
<text text-anchor="middle" x="2065" y="-91" font-family="Helvetica,sans-Serif" font-size="10.00">XCM/status_service.h</text>
</g>
<!-- Node39&#45;&gt;Node48 -->
<g id="edge61" class="edge"><title>Node39&#45;&gt;Node48</title>
<path fill="none" stroke="midnightblue" d="M2014.89,-145.396C2024.96,-135.161 2038.62,-121.296 2049.13,-110.622"/>
<polygon fill="midnightblue" stroke="midnightblue" points="2051.92,-112.776 2056.44,-103.195 2046.93,-107.865 2051.92,-112.776"/>
</g>
<!-- Node40&#45;&gt;Node3 -->
<g id="edge53" class="edge"><title>Node40&#45;&gt;Node3</title>
<path fill="none" stroke="midnightblue" d="M2527.23,-83.8553C2536.61,-72.6501 2553.17,-52.8697 2565.03,-38.6922"/>
<polygon fill="midnightblue" stroke="midnightblue" points="2567.97,-40.6305 2571.71,-30.7154 2562.6,-36.138 2567.97,-40.6305"/>
</g>
</g>
</svg>
