<?xml version="1.0" encoding="UTF-8" standalone="no"?>
<!DOCTYPE svg PUBLIC "-//W3C//DTD SVG 1.1//EN"
 "http://www.w3.org/Graphics/SVG/1.1/DTD/svg11.dtd">
<!-- Generated by graphviz version 2.38.0 (20140413.2041)
 -->
<!-- Title: /home/lucamuratore/advr&#45;superbuild/external/XCM/include/XCM/XBotControlPlugin.h Pages: 1 -->
<svg width="925pt" height="306pt"
 viewBox="0.00 0.00 925.00 306.00" xmlns="http://www.w3.org/2000/svg" xmlns:xlink="http://www.w3.org/1999/xlink">
<g id="graph0" class="graph" transform="scale(1 1) rotate(0) translate(4 302)">
<title>/home/lucamuratore/advr&#45;superbuild/external/XCM/include/XCM/XBotControlPlugin.h</title>
<!-- Node1 -->
<g id="node1" class="node"><title>Node1</title>
<polygon fill="#bfbfbf" stroke="black" points="305,-256.5 305,-297.5 498,-297.5 498,-256.5 305,-256.5"/>
<text text-anchor="start" x="313" y="-285.5" font-family="Helvetica,sans-Serif" font-size="10.00">/home/lucamuratore</text>
<text text-anchor="start" x="313" y="-274.5" font-family="Helvetica,sans-Serif" font-size="10.00">/advr&#45;superbuild/external</text>
<text text-anchor="middle" x="401.5" y="-263.5" font-family="Helvetica,sans-Serif" font-size="10.00">/XCM/include/XCM/XBotControlPlugin.h</text>
</g>
<!-- Node2 -->
<g id="node2" class="node"><title>Node2</title>
<g id="a_node2"><a xlink:href="XBotCommunicationPlugin_8h.html" target="_top" xlink:title="/home/lucamuratore\l/advr&#45;superbuild/external\l/XCM/include/XBotPlugin\l/XBotCommunicationPlugin.h">
<polygon fill="none" stroke="black" points="58,-167.5 58,-219.5 203,-219.5 203,-167.5 58,-167.5"/>
<text text-anchor="start" x="66" y="-207.5" font-family="Helvetica,sans-Serif" font-size="10.00">/home/lucamuratore</text>
<text text-anchor="start" x="66" y="-196.5" font-family="Helvetica,sans-Serif" font-size="10.00">/advr&#45;superbuild/external</text>
<text text-anchor="start" x="66" y="-185.5" font-family="Helvetica,sans-Serif" font-size="10.00">/XCM/include/XBotPlugin</text>
<text text-anchor="middle" x="130.5" y="-174.5" font-family="Helvetica,sans-Serif" font-size="10.00">/XBotCommunicationPlugin.h</text>
</a>
</g>
</g>
<!-- Node1&#45;&gt;Node2 -->
<g id="edge1" class="edge"><title>Node1&#45;&gt;Node2</title>
<path fill="none" stroke="midnightblue" d="M326.994,-253.593C288.513,-242.021 241.738,-227.953 203.48,-216.448"/>
<polygon fill="midnightblue" stroke="midnightblue" points="326.004,-256.95 336.589,-256.479 328.02,-250.247 326.004,-256.95"/>
</g>
<!-- Node4 -->
<g id="node4" class="node"><title>Node4</title>
<g id="a_node4"><a xlink:href="XBotLoggingPlugin_8h.html" target="_top" xlink:title="/home/lucamuratore\l/advr&#45;superbuild/external\l/XCM/include/XBotPlugin\l/XBotLoggingPlugin.h">
<polygon fill="none" stroke="black" points="245.5,-167.5 245.5,-219.5 373.5,-219.5 373.5,-167.5 245.5,-167.5"/>
<text text-anchor="start" x="253.5" y="-207.5" font-family="Helvetica,sans-Serif" font-size="10.00">/home/lucamuratore</text>
<text text-anchor="start" x="253.5" y="-196.5" font-family="Helvetica,sans-Serif" font-size="10.00">/advr&#45;superbuild/external</text>
<text text-anchor="start" x="253.5" y="-185.5" font-family="Helvetica,sans-Serif" font-size="10.00">/XCM/include/XBotPlugin</text>
<text text-anchor="middle" x="309.5" y="-174.5" font-family="Helvetica,sans-Serif" font-size="10.00">/XBotLoggingPlugin.h</text>
</a>
</g>
</g>
<!-- Node1&#45;&gt;Node4 -->
<g id="edge3" class="edge"><title>Node1&#45;&gt;Node4</title>
<path fill="none" stroke="midnightblue" d="M371.614,-249.525C360.767,-239.916 348.552,-229.095 337.842,-219.607"/>
<polygon fill="midnightblue" stroke="midnightblue" points="369.423,-252.26 379.229,-256.271 374.065,-247.02 369.423,-252.26"/>
</g>
<!-- Node6 -->
<g id="node6" class="node"><title>Node6</title>
<g id="a_node6"><a xlink:href="XBotPluginHandler_8h.html" target="_top" xlink:title="/home/lucamuratore\l/advr&#45;superbuild/external\l/XCM/include/XCM/XBotPluginHandler.h">
<polygon fill="none" stroke="black" points="397,-173 397,-214 592,-214 592,-173 397,-173"/>
<text text-anchor="start" x="405" y="-202" font-family="Helvetica,sans-Serif" font-size="10.00">/home/lucamuratore</text>
<text text-anchor="start" x="405" y="-191" font-family="Helvetica,sans-Serif" font-size="10.00">/advr&#45;superbuild/external</text>
<text text-anchor="middle" x="494.5" y="-180" font-family="Helvetica,sans-Serif" font-size="10.00">/XCM/include/XCM/XBotPluginHandler.h</text>
</a>
</g>
</g>
<!-- Node1&#45;&gt;Node6 -->
<g id="edge5" class="edge"><title>Node1&#45;&gt;Node6</title>
<path fill="none" stroke="midnightblue" d="M431.894,-249.365C445.029,-237.854 460.12,-224.629 472.195,-214.047"/>
<polygon fill="midnightblue" stroke="midnightblue" points="429.227,-247.048 424.013,-256.271 433.84,-252.313 429.227,-247.048"/>
</g>
<!-- Node12 -->
<g id="node12" class="node"><title>Node12</title>
<g id="a_node12"><a xlink:href="XBotControlPlugin_8cpp.html" target="_top" xlink:title="/home/lucamuratore\l/advr&#45;superbuild/external\l/XCM/src/XBotControlPlugin.cpp">
<polygon fill="none" stroke="black" points="610,-173 610,-214 771,-214 771,-173 610,-173"/>
<text text-anchor="start" x="618" y="-202" font-family="Helvetica,sans-Serif" font-size="10.00">/home/lucamuratore</text>
<text text-anchor="start" x="618" y="-191" font-family="Helvetica,sans-Serif" font-size="10.00">/advr&#45;superbuild/external</text>
<text text-anchor="middle" x="690.5" y="-180" font-family="Helvetica,sans-Serif" font-size="10.00">/XCM/src/XBotControlPlugin.cpp</text>
</a>
</g>
</g>
<!-- Node1&#45;&gt;Node12 -->
<g id="edge11" class="edge"><title>Node1&#45;&gt;Node12</title>
<path fill="none" stroke="midnightblue" d="M481.968,-253.588C518.47,-243.391 562.178,-231.138 601.5,-220 608.304,-218.073 615.399,-216.054 622.483,-214.034"/>
<polygon fill="midnightblue" stroke="midnightblue" points="480.564,-250.346 471.874,-256.407 482.447,-257.088 480.564,-250.346"/>
</g>
<!-- Node3 -->
<g id="node3" class="node"><title>Node3</title>
<g id="a_node3"><a xlink:href="XBotCommunicationPlugin_8cpp.html" target="_top" xlink:title="/home/lucamuratore\l/advr&#45;superbuild/external\l/XCM/src/XBotPlugin/XBotCommunication\lPlugin.cpp">
<polygon fill="none" stroke="black" points="0,-78.5 0,-130.5 203,-130.5 203,-78.5 0,-78.5"/>
<text text-anchor="start" x="8" y="-118.5" font-family="Helvetica,sans-Serif" font-size="10.00">/home/lucamuratore</text>
<text text-anchor="start" x="8" y="-107.5" font-family="Helvetica,sans-Serif" font-size="10.00">/advr&#45;superbuild/external</text>
<text text-anchor="start" x="8" y="-96.5" font-family="Helvetica,sans-Serif" font-size="10.00">/XCM/src/XBotPlugin/XBotCommunication</text>
<text text-anchor="middle" x="101.5" y="-85.5" font-family="Helvetica,sans-Serif" font-size="10.00">Plugin.cpp</text>
</a>
</g>
</g>
<!-- Node2&#45;&gt;Node3 -->
<g id="edge2" class="edge"><title>Node2&#45;&gt;Node3</title>
<path fill="none" stroke="midnightblue" d="M118.924,-157.771C115.897,-148.691 112.693,-139.079 109.869,-130.607"/>
<polygon fill="midnightblue" stroke="midnightblue" points="115.629,-158.956 122.112,-167.336 122.27,-156.742 115.629,-158.956"/>
</g>
<!-- Node5 -->
<g id="node5" class="node"><title>Node5</title>
<g id="a_node5"><a xlink:href="XBotLoggingPlugin_8cpp.html" target="_top" xlink:title="/home/lucamuratore\l/advr&#45;superbuild/external\l/XCM/src/XBotPlugin/XBotLogging\lPlugin.cpp">
<polygon fill="none" stroke="black" points="221,-78.5 221,-130.5 390,-130.5 390,-78.5 221,-78.5"/>
<text text-anchor="start" x="229" y="-118.5" font-family="Helvetica,sans-Serif" font-size="10.00">/home/lucamuratore</text>
<text text-anchor="start" x="229" y="-107.5" font-family="Helvetica,sans-Serif" font-size="10.00">/advr&#45;superbuild/external</text>
<text text-anchor="start" x="229" y="-96.5" font-family="Helvetica,sans-Serif" font-size="10.00">/XCM/src/XBotPlugin/XBotLogging</text>
<text text-anchor="middle" x="305.5" y="-85.5" font-family="Helvetica,sans-Serif" font-size="10.00">Plugin.cpp</text>
</a>
</g>
</g>
<!-- Node4&#45;&gt;Node5 -->
<g id="edge4" class="edge"><title>Node4&#45;&gt;Node5</title>
<path fill="none" stroke="midnightblue" d="M307.877,-157.191C307.467,-148.282 307.036,-138.899 306.654,-130.607"/>
<polygon fill="midnightblue" stroke="midnightblue" points="304.387,-157.507 308.343,-167.336 311.38,-157.186 304.387,-157.507"/>
</g>
<!-- Node7 -->
<g id="node7" class="node"><title>Node7</title>
<g id="a_node7"><a xlink:href="NRTDeployer_8h.html" target="_top" xlink:title="/home/lucamuratore\l/advr&#45;superbuild/external\l/XCM/include/XCM/NRTDeployer.h">
<polygon fill="none" stroke="black" points="408,-84 408,-125 581,-125 581,-84 408,-84"/>
<text text-anchor="start" x="416" y="-113" font-family="Helvetica,sans-Serif" font-size="10.00">/home/lucamuratore</text>
<text text-anchor="start" x="416" y="-102" font-family="Helvetica,sans-Serif" font-size="10.00">/advr&#45;superbuild/external</text>
<text text-anchor="middle" x="494.5" y="-91" font-family="Helvetica,sans-Serif" font-size="10.00">/XCM/include/XCM/NRTDeployer.h</text>
</a>
</g>
</g>
<!-- Node6&#45;&gt;Node7 -->
<g id="edge6" class="edge"><title>Node6&#45;&gt;Node7</title>
<path fill="none" stroke="midnightblue" d="M494.5,-162.441C494.5,-150.101 494.5,-136.162 494.5,-125.164"/>
<polygon fill="midnightblue" stroke="midnightblue" points="491,-162.758 494.5,-172.758 498,-162.758 491,-162.758"/>
</g>
<!-- Node10 -->
<g id="node10" class="node"><title>Node10</title>
<g id="a_node10"><a xlink:href="DummyMain_8cpp.html" target="_top" xlink:title="/home/lucamuratore\l/advr&#45;superbuild/external\l/XCM/src/DummyMain.cpp">
<polygon fill="none" stroke="black" points="599.5,-84 599.5,-125 735.5,-125 735.5,-84 599.5,-84"/>
<text text-anchor="start" x="607.5" y="-113" font-family="Helvetica,sans-Serif" font-size="10.00">/home/lucamuratore</text>
<text text-anchor="start" x="607.5" y="-102" font-family="Helvetica,sans-Serif" font-size="10.00">/advr&#45;superbuild/external</text>
<text text-anchor="middle" x="667.5" y="-91" font-family="Helvetica,sans-Serif" font-size="10.00">/XCM/src/DummyMain.cpp</text>
</a>
</g>
</g>
<!-- Node6&#45;&gt;Node10 -->
<g id="edge9" class="edge"><title>Node6&#45;&gt;Node10</title>
<path fill="none" stroke="midnightblue" d="M542.263,-168.481C569.406,-154.831 602.962,-137.955 628.506,-125.11"/>
<polygon fill="midnightblue" stroke="midnightblue" points="540.686,-165.356 533.325,-172.976 543.831,-171.61 540.686,-165.356"/>
</g>
<!-- Node11 -->
<g id="node11" class="node"><title>Node11</title>
<g id="a_node11"><a xlink:href="XBotPluginHandler_8cpp.html" target="_top" xlink:title="/home/lucamuratore\l/advr&#45;superbuild/external\l/XCM/src/XBotPluginHandler.cpp">
<polygon fill="none" stroke="black" points="754,-84 754,-125 917,-125 917,-84 754,-84"/>
<text text-anchor="start" x="762" y="-113" font-family="Helvetica,sans-Serif" font-size="10.00">/home/lucamuratore</text>
<text text-anchor="start" x="762" y="-102" font-family="Helvetica,sans-Serif" font-size="10.00">/advr&#45;superbuild/external</text>
<text text-anchor="middle" x="835.5" y="-91" font-family="Helvetica,sans-Serif" font-size="10.00">/XCM/src/XBotPluginHandler.cpp</text>
</a>
</g>
</g>
<!-- Node6&#45;&gt;Node11 -->
<g id="edge10" class="edge"><title>Node6&#45;&gt;Node11</title>
<path fill="none" stroke="midnightblue" d="M586.774,-170.547C634.034,-159.114 692.441,-144.694 744.5,-131 751.64,-129.122 759.082,-127.116 766.499,-125.085"/>
<polygon fill="midnightblue" stroke="midnightblue" points="585.764,-167.19 576.865,-172.94 587.407,-173.995 585.764,-167.19"/>
</g>
<!-- Node8 -->
<g id="node8" class="node"><title>Node8</title>
<g id="a_node8"><a xlink:href="NRTDeployer_8cpp.html" target="_top" xlink:title="/home/lucamuratore\l/advr&#45;superbuild/external\l/XCM/src/NRTDeployer.cpp">
<polygon fill="none" stroke="black" points="339.5,-0.5 339.5,-41.5 479.5,-41.5 479.5,-0.5 339.5,-0.5"/>
<text text-anchor="start" x="347.5" y="-29.5" font-family="Helvetica,sans-Serif" font-size="10.00">/home/lucamuratore</text>
<text text-anchor="start" x="347.5" y="-18.5" font-family="Helvetica,sans-Serif" font-size="10.00">/advr&#45;superbuild/external</text>
<text text-anchor="middle" x="409.5" y="-7.5" font-family="Helvetica,sans-Serif" font-size="10.00">/XCM/src/NRTDeployer.cpp</text>
</a>
</g>
</g>
<!-- Node7&#45;&gt;Node8 -->
<g id="edge7" class="edge"><title>Node7&#45;&gt;Node8</title>
<path fill="none" stroke="midnightblue" d="M466.38,-76.5383C454.456,-65.1044 440.818,-52.0287 429.887,-41.5472"/>
<polygon fill="midnightblue" stroke="midnightblue" points="464.283,-79.3765 473.924,-83.7711 469.128,-74.3238 464.283,-79.3765"/>
</g>
<!-- Node9 -->
<g id="node9" class="node"><title>Node9</title>
<g id="a_node9"><a xlink:href="NRTDeployerMain_8cpp.html" target="_top" xlink:title="/home/lucamuratore\l/advr&#45;superbuild/external\l/XCM/src/NRTDeployerMain.cpp">
<polygon fill="none" stroke="black" points="498,-0.5 498,-41.5 659,-41.5 659,-0.5 498,-0.5"/>
<text text-anchor="start" x="506" y="-29.5" font-family="Helvetica,sans-Serif" font-size="10.00">/home/lucamuratore</text>
<text text-anchor="start" x="506" y="-18.5" font-family="Helvetica,sans-Serif" font-size="10.00">/advr&#45;superbuild/external</text>
<text text-anchor="middle" x="578.5" y="-7.5" font-family="Helvetica,sans-Serif" font-size="10.00">/XCM/src/NRTDeployerMain.cpp</text>
</a>
</g>
</g>
<!-- Node7&#45;&gt;Node9 -->
<g id="edge8" class="edge"><title>Node7&#45;&gt;Node9</title>
<path fill="none" stroke="midnightblue" d="M522.289,-76.5383C534.073,-65.1044 547.55,-52.0287 558.353,-41.5472"/>
<polygon fill="midnightblue" stroke="midnightblue" points="519.574,-74.2957 514.834,-83.7711 524.448,-79.3196 519.574,-74.2957"/>
</g>
</g>
</svg>
