<?xml version="1.0" encoding="UTF-8" standalone="no"?>
<!DOCTYPE svg PUBLIC "-//W3C//DTD SVG 1.1//EN"
 "http://www.w3.org/Graphics/SVG/1.1/DTD/svg11.dtd">
<!-- Generated by graphviz version 2.38.0 (20140413.2041)
 -->
<!-- Title: /home/lucamuratore/advr&#45;superbuild/external/XCM/src/XBotControlPlugin.cpp Pages: 1 -->
<svg width="2864pt" height="385pt"
 viewBox="0.00 0.00 2863.72 385.00" xmlns="http://www.w3.org/2000/svg" xmlns:xlink="http://www.w3.org/1999/xlink">
<g id="graph0" class="graph" transform="scale(1 1) rotate(0) translate(4 381)">
<title>/home/lucamuratore/advr&#45;superbuild/external/XCM/src/XBotControlPlugin.cpp</title>
<!-- Node1 -->
<g id="node1" class="node"><title>Node1</title>
<polygon fill="#bfbfbf" stroke="black" points="1231.5,-335.5 1231.5,-376.5 1392.5,-376.5 1392.5,-335.5 1231.5,-335.5"/>
<text text-anchor="start" x="1239.5" y="-364.5" font-family="Helvetica,sans-Serif" font-size="10.00">/home/lucamuratore</text>
<text text-anchor="start" x="1239.5" y="-353.5" font-family="Helvetica,sans-Serif" font-size="10.00">/advr&#45;superbuild/external</text>
<text text-anchor="middle" x="1312" y="-342.5" font-family="Helvetica,sans-Serif" font-size="10.00">/XCM/src/XBotControlPlugin.cpp</text>
</g>
<!-- Node2 -->
<g id="node2" class="node"><title>Node2</title>
<g id="a_node2"><a xlink:href="XBotControlPlugin_8h.html" target="_top" xlink:title="XCM/XBotControlPlugin.h">
<polygon fill="none" stroke="black" points="1246.5,-279.5 1246.5,-298.5 1377.5,-298.5 1377.5,-279.5 1246.5,-279.5"/>
<text text-anchor="middle" x="1312" y="-286.5" font-family="Helvetica,sans-Serif" font-size="10.00">XCM/XBotControlPlugin.h</text>
</a>
</g>
</g>
<!-- Node1&#45;&gt;Node2 -->
<g id="edge1" class="edge"><title>Node1&#45;&gt;Node2</title>
<path fill="none" stroke="midnightblue" d="M1312,-335.498C1312,-327.065 1312,-317.235 1312,-308.874"/>
<polygon fill="midnightblue" stroke="midnightblue" points="1315.5,-308.652 1312,-298.652 1308.5,-308.653 1315.5,-308.652"/>
</g>
<!-- Node3 -->
<g id="node3" class="node"><title>Node3</title>
<polygon fill="none" stroke="#bfbfbf" points="0,-11.5 0,-30.5 152,-30.5 152,-11.5 0,-11.5"/>
<text text-anchor="middle" x="76" y="-18.5" font-family="Helvetica,sans-Serif" font-size="10.00">XBotInterface/RobotInterface.h</text>
</g>
<!-- Node2&#45;&gt;Node3 -->
<g id="edge2" class="edge"><title>Node2&#45;&gt;Node3</title>
<path fill="none" stroke="midnightblue" d="M1246.49,-283.77C997.048,-267.011 116.545,-201.633 36,-109 17.4837,-87.7049 41.1105,-56.3983 59.1327,-37.7203"/>
<polygon fill="midnightblue" stroke="midnightblue" points="61.7278,-40.0763 66.3742,-30.5547 56.8042,-35.1006 61.7278,-40.0763"/>
</g>
<!-- Node4 -->
<g id="node4" class="node"><title>Node4</title>
<g id="a_node4"><a xlink:href="XBotPlugin_8h.html" target="_top" xlink:title="XBotCore&#45;interfaces\l/XBotPlugin.h">
<polygon fill="none" stroke="black" points="2368.5,-212.5 2368.5,-242.5 2473.5,-242.5 2473.5,-212.5 2368.5,-212.5"/>
<text text-anchor="start" x="2376.5" y="-230.5" font-family="Helvetica,sans-Serif" font-size="10.00">XBotCore&#45;interfaces</text>
<text text-anchor="middle" x="2421" y="-219.5" font-family="Helvetica,sans-Serif" font-size="10.00">/XBotPlugin.h</text>
</a>
</g>
</g>
<!-- Node2&#45;&gt;Node4 -->
<g id="edge3" class="edge"><title>Node2&#45;&gt;Node4</title>
<path fill="none" stroke="midnightblue" d="M1377.64,-284.478C1575.46,-273.865 2164.15,-242.281 2358.19,-231.87"/>
<polygon fill="midnightblue" stroke="midnightblue" points="2358.42,-235.363 2368.22,-231.332 2358.05,-228.373 2358.42,-235.363"/>
</g>
<!-- Node20 -->
<g id="node20" class="node"><title>Node20</title>
<g id="a_node20"><a xlink:href="XDomainCommunication_8h.html" target="_top" xlink:title="XBotCore&#45;interfaces\l/XDomainCommunication.h">
<polygon fill="none" stroke="black" points="1243.5,-212.5 1243.5,-242.5 1380.5,-242.5 1380.5,-212.5 1243.5,-212.5"/>
<text text-anchor="start" x="1251.5" y="-230.5" font-family="Helvetica,sans-Serif" font-size="10.00">XBotCore&#45;interfaces</text>
<text text-anchor="middle" x="1312" y="-219.5" font-family="Helvetica,sans-Serif" font-size="10.00">/XDomainCommunication.h</text>
</a>
</g>
</g>
<!-- Node2&#45;&gt;Node20 -->
<g id="edge28" class="edge"><title>Node2&#45;&gt;Node20</title>
<path fill="none" stroke="midnightblue" d="M1312,-279.475C1312,-272.471 1312,-262.192 1312,-252.696"/>
<polygon fill="midnightblue" stroke="midnightblue" points="1315.5,-252.523 1312,-242.523 1308.5,-252.523 1315.5,-252.523"/>
</g>
<!-- Node5 -->
<g id="node5" class="node"><title>Node5</title>
<g id="a_node5"><a xlink:href="IXBotJoint_8h.html" target="_top" xlink:title="XBotCore&#45;interfaces\l/IXBotJoint.h">
<polygon fill="none" stroke="black" points="2449.5,-145.5 2449.5,-175.5 2554.5,-175.5 2554.5,-145.5 2449.5,-145.5"/>
<text text-anchor="start" x="2457.5" y="-163.5" font-family="Helvetica,sans-Serif" font-size="10.00">XBotCore&#45;interfaces</text>
<text text-anchor="middle" x="2502" y="-152.5" font-family="Helvetica,sans-Serif" font-size="10.00">/IXBotJoint.h</text>
</a>
</g>
</g>
<!-- Node4&#45;&gt;Node5 -->
<g id="edge4" class="edge"><title>Node4&#45;&gt;Node5</title>
<path fill="none" stroke="midnightblue" d="M2438.58,-212.396C2449.61,-203.538 2464.04,-191.96 2476.35,-182.086"/>
<polygon fill="midnightblue" stroke="midnightblue" points="2478.85,-184.565 2484.46,-175.577 2474.47,-179.105 2478.85,-184.565"/>
</g>
<!-- Node6 -->
<g id="node6" class="node"><title>Node6</title>
<polygon fill="none" stroke="#bfbfbf" points="2565.5,-84 2565.5,-103 2600.5,-103 2600.5,-84 2565.5,-84"/>
<text text-anchor="middle" x="2583" y="-91" font-family="Helvetica,sans-Serif" font-size="10.00">map</text>
</g>
<!-- Node4&#45;&gt;Node6 -->
<g id="edge24" class="edge"><title>Node4&#45;&gt;Node6</title>
<path fill="none" stroke="midnightblue" d="M2473.76,-220.182C2503.93,-213.864 2540.19,-201.236 2563,-176 2578.46,-158.895 2582.45,-131.794 2583.24,-113.592"/>
<polygon fill="midnightblue" stroke="midnightblue" points="2586.74,-113.394 2583.39,-103.343 2579.74,-113.29 2586.74,-113.394"/>
</g>
<!-- Node7 -->
<g id="node7" class="node"><title>Node7</title>
<polygon fill="none" stroke="#bfbfbf" points="2703,-84 2703,-103 2747,-103 2747,-84 2703,-84"/>
<text text-anchor="middle" x="2725" y="-91" font-family="Helvetica,sans-Serif" font-size="10.00">vector</text>
</g>
<!-- Node4&#45;&gt;Node7 -->
<g id="edge25" class="edge"><title>Node4&#45;&gt;Node7</title>
<path fill="none" stroke="midnightblue" d="M2473.87,-224.11C2582.66,-218.648 2823.52,-203.55 2848,-176 2879.09,-141.02 2803.17,-114.461 2757.14,-102.118"/>
<polygon fill="midnightblue" stroke="midnightblue" points="2757.82,-98.6801 2747.26,-99.5638 2756.07,-105.457 2757.82,-98.6801"/>
</g>
<!-- Node8 -->
<g id="node8" class="node"><title>Node8</title>
<polygon fill="none" stroke="#bfbfbf" points="2297,-11.5 2297,-30.5 2349,-30.5 2349,-11.5 2297,-11.5"/>
<text text-anchor="middle" x="2323" y="-18.5" font-family="Helvetica,sans-Serif" font-size="10.00">memory</text>
</g>
<!-- Node4&#45;&gt;Node8 -->
<g id="edge26" class="edge"><title>Node4&#45;&gt;Node8</title>
<path fill="none" stroke="midnightblue" d="M2368.41,-222.649C2336.6,-217.289 2298.37,-204.803 2278,-176 2247.39,-132.723 2287.16,-68.682 2309.59,-38.6665"/>
<polygon fill="midnightblue" stroke="midnightblue" points="2312.55,-40.5577 2315.89,-30.5044 2307.01,-36.278 2312.55,-40.5577"/>
</g>
<!-- Node9 -->
<g id="node9" class="node"><title>Node9</title>
<polygon fill="none" stroke="#bfbfbf" points="2416.5,-84 2416.5,-103 2457.5,-103 2457.5,-84 2416.5,-84"/>
<text text-anchor="middle" x="2437" y="-91" font-family="Helvetica,sans-Serif" font-size="10.00">string</text>
</g>
<!-- Node4&#45;&gt;Node9 -->
<g id="edge27" class="edge"><title>Node4&#45;&gt;Node9</title>
<path fill="none" stroke="midnightblue" d="M2422.71,-212.374C2425.62,-188.397 2431.52,-139.748 2434.75,-113.056"/>
<polygon fill="midnightblue" stroke="midnightblue" points="2438.23,-113.446 2435.96,-103.097 2431.28,-112.603 2438.23,-113.446"/>
</g>
<!-- Node10 -->
<g id="node10" class="node"><title>Node10</title>
<g id="a_node10"><a xlink:href="IXBotModel_8h.html" target="_top" xlink:title="XBotCore&#45;interfaces\l/IXBotModel.h">
<polygon fill="none" stroke="black" points="2611.5,-145.5 2611.5,-175.5 2716.5,-175.5 2716.5,-145.5 2611.5,-145.5"/>
<text text-anchor="start" x="2619.5" y="-163.5" font-family="Helvetica,sans-Serif" font-size="10.00">XBotCore&#45;interfaces</text>
<text text-anchor="middle" x="2664" y="-152.5" font-family="Helvetica,sans-Serif" font-size="10.00">/IXBotModel.h</text>
</a>
</g>
</g>
<!-- Node4&#45;&gt;Node10 -->
<g id="edge9" class="edge"><title>Node4&#45;&gt;Node10</title>
<path fill="none" stroke="midnightblue" d="M2473.43,-212.476C2510.99,-202.43 2561.73,-188.856 2601.41,-178.242"/>
<polygon fill="midnightblue" stroke="midnightblue" points="2602.49,-181.576 2611.25,-175.611 2600.68,-174.814 2602.49,-181.576"/>
</g>
<!-- Node11 -->
<g id="node11" class="node"><title>Node11</title>
<g id="a_node11"><a xlink:href="IXBotFT_8h.html" target="_top" xlink:title="XBotCore&#45;interfaces\l/IXBotFT.h">
<polygon fill="none" stroke="black" points="2287.5,-145.5 2287.5,-175.5 2392.5,-175.5 2392.5,-145.5 2287.5,-145.5"/>
<text text-anchor="start" x="2295.5" y="-163.5" font-family="Helvetica,sans-Serif" font-size="10.00">XBotCore&#45;interfaces</text>
<text text-anchor="middle" x="2340" y="-152.5" font-family="Helvetica,sans-Serif" font-size="10.00">/IXBotFT.h</text>
</a>
</g>
</g>
<!-- Node4&#45;&gt;Node11 -->
<g id="edge13" class="edge"><title>Node4&#45;&gt;Node11</title>
<path fill="none" stroke="midnightblue" d="M2403.42,-212.396C2392.39,-203.538 2377.96,-191.96 2365.65,-182.086"/>
<polygon fill="midnightblue" stroke="midnightblue" points="2367.53,-179.105 2357.54,-175.577 2363.15,-184.565 2367.53,-179.105"/>
</g>
<!-- Node12 -->
<g id="node12" class="node"><title>Node12</title>
<g id="a_node12"><a xlink:href="IXBotIMU_8h.html" target="_top" xlink:title="XBotCore&#45;interfaces\l/IXBotIMU.h">
<polygon fill="none" stroke="black" points="2734.5,-145.5 2734.5,-175.5 2839.5,-175.5 2839.5,-145.5 2734.5,-145.5"/>
<text text-anchor="start" x="2742.5" y="-163.5" font-family="Helvetica,sans-Serif" font-size="10.00">XBotCore&#45;interfaces</text>
<text text-anchor="middle" x="2787" y="-152.5" font-family="Helvetica,sans-Serif" font-size="10.00">/IXBotIMU.h</text>
</a>
</g>
</g>
<!-- Node4&#45;&gt;Node12 -->
<g id="edge14" class="edge"><title>Node4&#45;&gt;Node12</title>
<path fill="none" stroke="midnightblue" d="M2473.64,-218.82C2532.33,-210.02 2630.27,-194.627 2724.32,-176.058"/>
<polygon fill="midnightblue" stroke="midnightblue" points="2725.16,-179.459 2734.29,-174.075 2723.79,-172.593 2725.16,-179.459"/>
</g>
<!-- Node13 -->
<g id="node13" class="node"><title>Node13</title>
<g id="a_node13"><a xlink:href="XBotSharedMemory_8h.html" target="_top" xlink:title="XBotCore&#45;interfaces\l/XBotSharedMemory.h">
<polygon fill="none" stroke="black" points="2115,-145.5 2115,-175.5 2231,-175.5 2231,-145.5 2115,-145.5"/>
<text text-anchor="start" x="2123" y="-163.5" font-family="Helvetica,sans-Serif" font-size="10.00">XBotCore&#45;interfaces</text>
<text text-anchor="middle" x="2173" y="-152.5" font-family="Helvetica,sans-Serif" font-size="10.00">/XBotSharedMemory.h</text>
</a>
</g>
</g>
<!-- Node4&#45;&gt;Node13 -->
<g id="edge16" class="edge"><title>Node4&#45;&gt;Node13</title>
<path fill="none" stroke="midnightblue" d="M2368.41,-212.715C2329.92,-202.628 2277.51,-188.892 2236.66,-178.185"/>
<polygon fill="midnightblue" stroke="midnightblue" points="2237.36,-174.751 2226.8,-175.602 2235.59,-181.523 2237.36,-174.751"/>
</g>
<!-- Node18 -->
<g id="node18" class="node"><title>Node18</title>
<g id="a_node18"><a xlink:href="XBotESC_8h.html" target="_top" xlink:title="XBotCore&#45;interfaces\l/XBotESC.h">
<polygon fill="none" stroke="black" points="1991.5,-145.5 1991.5,-175.5 2096.5,-175.5 2096.5,-145.5 1991.5,-145.5"/>
<text text-anchor="start" x="1999.5" y="-163.5" font-family="Helvetica,sans-Serif" font-size="10.00">XBotCore&#45;interfaces</text>
<text text-anchor="middle" x="2044" y="-152.5" font-family="Helvetica,sans-Serif" font-size="10.00">/XBotESC.h</text>
</a>
</g>
</g>
<!-- Node4&#45;&gt;Node18 -->
<g id="edge22" class="edge"><title>Node4&#45;&gt;Node18</title>
<path fill="none" stroke="midnightblue" d="M2368.41,-219.23C2307.78,-210.592 2204.95,-195.146 2106.8,-176.073"/>
<polygon fill="midnightblue" stroke="midnightblue" points="2107.2,-172.583 2096.71,-174.095 2105.85,-179.453 2107.2,-172.583"/>
</g>
<!-- Node5&#45;&gt;Node6 -->
<g id="edge5" class="edge"><title>Node5&#45;&gt;Node6</title>
<path fill="none" stroke="midnightblue" d="M2519.58,-145.396C2532.71,-134.86 2550.63,-120.477 2564.07,-109.689"/>
<polygon fill="midnightblue" stroke="midnightblue" points="2566.56,-112.183 2572.17,-103.195 2562.18,-106.723 2566.56,-112.183"/>
</g>
<!-- Node5&#45;&gt;Node7 -->
<g id="edge6" class="edge"><title>Node5&#45;&gt;Node7</title>
<path fill="none" stroke="midnightblue" d="M2550.11,-145.476C2593.3,-132.888 2655.48,-114.763 2692.89,-103.859"/>
<polygon fill="midnightblue" stroke="midnightblue" points="2694.13,-107.144 2702.75,-100.985 2692.17,-100.424 2694.13,-107.144"/>
</g>
<!-- Node5&#45;&gt;Node8 -->
<g id="edge7" class="edge"><title>Node5&#45;&gt;Node8</title>
<path fill="none" stroke="midnightblue" d="M2499.19,-145.192C2494.97,-127.225 2485.32,-96.514 2466,-78 2436.51,-49.7433 2391.11,-35.2519 2359.4,-28.1695"/>
<polygon fill="midnightblue" stroke="midnightblue" points="2359.72,-24.6605 2349.21,-26.0425 2358.29,-31.5127 2359.72,-24.6605"/>
</g>
<!-- Node5&#45;&gt;Node9 -->
<g id="edge8" class="edge"><title>Node5&#45;&gt;Node9</title>
<path fill="none" stroke="midnightblue" d="M2487.9,-145.396C2477.56,-135.06 2463.52,-121.024 2452.81,-110.309"/>
<polygon fill="midnightblue" stroke="midnightblue" points="2455.24,-107.791 2445.69,-103.195 2450.29,-112.741 2455.24,-107.791"/>
</g>
<!-- Node10&#45;&gt;Node6 -->
<g id="edge10" class="edge"><title>Node10&#45;&gt;Node6</title>
<path fill="none" stroke="midnightblue" d="M2646.42,-145.396C2633.29,-134.86 2615.37,-120.477 2601.93,-109.689"/>
<polygon fill="midnightblue" stroke="midnightblue" points="2603.82,-106.723 2593.83,-103.195 2599.44,-112.183 2603.82,-106.723"/>
</g>
<!-- Node10&#45;&gt;Node7 -->
<g id="edge12" class="edge"><title>Node10&#45;&gt;Node7</title>
<path fill="none" stroke="midnightblue" d="M2677.24,-145.396C2686.84,-135.161 2699.85,-121.296 2709.87,-110.622"/>
<polygon fill="midnightblue" stroke="midnightblue" points="2712.55,-112.882 2716.84,-103.195 2707.45,-108.091 2712.55,-112.882"/>
</g>
<!-- Node10&#45;&gt;Node9 -->
<g id="edge11" class="edge"><title>Node10&#45;&gt;Node9</title>
<path fill="none" stroke="midnightblue" d="M2615.02,-145.476C2570.23,-132.649 2505.36,-114.073 2467.54,-103.246"/>
<polygon fill="midnightblue" stroke="midnightblue" points="2468.21,-99.7972 2457.64,-100.409 2466.29,-106.527 2468.21,-99.7972"/>
</g>
<!-- Node12&#45;&gt;Node7 -->
<g id="edge15" class="edge"><title>Node12&#45;&gt;Node7</title>
<path fill="none" stroke="midnightblue" d="M2773.55,-145.396C2763.78,-135.161 2750.56,-121.296 2740.38,-110.622"/>
<polygon fill="midnightblue" stroke="midnightblue" points="2742.73,-108.015 2733.29,-103.195 2737.66,-112.846 2742.73,-108.015"/>
</g>
<!-- Node14 -->
<g id="node14" class="node"><title>Node14</title>
<g id="a_node14"><a xlink:href="XBotSharedObject_8h.html" target="_top" xlink:title="XBotCore&#45;interfaces\l/XBotSharedObject.h">
<polygon fill="none" stroke="black" points="2083.5,-78.5 2083.5,-108.5 2192.5,-108.5 2192.5,-78.5 2083.5,-78.5"/>
<text text-anchor="start" x="2091.5" y="-96.5" font-family="Helvetica,sans-Serif" font-size="10.00">XBotCore&#45;interfaces</text>
<text text-anchor="middle" x="2138" y="-85.5" font-family="Helvetica,sans-Serif" font-size="10.00">/XBotSharedObject.h</text>
</a>
</g>
</g>
<!-- Node13&#45;&gt;Node14 -->
<g id="edge17" class="edge"><title>Node13&#45;&gt;Node14</title>
<path fill="none" stroke="midnightblue" d="M2165.41,-145.396C2161,-137.219 2155.35,-126.725 2150.33,-117.393"/>
<polygon fill="midnightblue" stroke="midnightblue" points="2153.4,-115.722 2145.58,-108.577 2147.24,-119.041 2153.4,-115.722"/>
</g>
<!-- Node14&#45;&gt;Node8 -->
<g id="edge20" class="edge"><title>Node14&#45;&gt;Node8</title>
<path fill="none" stroke="midnightblue" d="M2186.82,-78.3967C2216.33,-69.2755 2254.41,-56.4345 2287,-42 2291.31,-40.0918 2295.78,-37.8405 2300.06,-35.5493"/>
<polygon fill="midnightblue" stroke="midnightblue" points="2301.91,-38.5203 2308.94,-30.5874 2298.5,-32.4094 2301.91,-38.5203"/>
</g>
<!-- Node15 -->
<g id="node15" class="node"><title>Node15</title>
<polygon fill="none" stroke="#bfbfbf" points="2099,-11.5 2099,-30.5 2177,-30.5 2177,-11.5 2099,-11.5"/>
<text text-anchor="middle" x="2138" y="-18.5" font-family="Helvetica,sans-Serif" font-size="10.00">boost/any.hpp</text>
</g>
<!-- Node14&#45;&gt;Node15 -->
<g id="edge18" class="edge"><title>Node14&#45;&gt;Node15</title>
<path fill="none" stroke="midnightblue" d="M2138,-78.2333C2138,-67.5006 2138,-52.6875 2138,-40.959"/>
<polygon fill="midnightblue" stroke="midnightblue" points="2141.5,-40.8931 2138,-30.8932 2134.5,-40.8932 2141.5,-40.8931"/>
</g>
<!-- Node16 -->
<g id="node16" class="node"><title>Node16</title>
<polygon fill="none" stroke="#bfbfbf" points="2195.5,-11.5 2195.5,-30.5 2278.5,-30.5 2278.5,-11.5 2195.5,-11.5"/>
<text text-anchor="middle" x="2237" y="-18.5" font-family="Helvetica,sans-Serif" font-size="10.00">unordered_map</text>
</g>
<!-- Node14&#45;&gt;Node16 -->
<g id="edge19" class="edge"><title>Node14&#45;&gt;Node16</title>
<path fill="none" stroke="midnightblue" d="M2158.03,-78.2333C2175.07,-66.1043 2199.42,-48.7642 2216.56,-36.5539"/>
<polygon fill="midnightblue" stroke="midnightblue" points="2218.68,-39.3428 2224.8,-30.6911 2214.62,-33.6408 2218.68,-39.3428"/>
</g>
<!-- Node17 -->
<g id="node17" class="node"><title>Node17</title>
<polygon fill="none" stroke="#bfbfbf" points="620,-11.5 620,-30.5 674,-30.5 674,-11.5 620,-11.5"/>
<text text-anchor="middle" x="647" y="-18.5" font-family="Helvetica,sans-Serif" font-size="10.00">iostream</text>
</g>
<!-- Node14&#45;&gt;Node17 -->
<g id="edge21" class="edge"><title>Node14&#45;&gt;Node17</title>
<path fill="none" stroke="midnightblue" d="M2083.27,-90.6217C1818.72,-81.5406 685.151,-42.5974 683,-42 677.794,-40.5543 672.526,-38.2196 667.684,-35.6466"/>
<polygon fill="midnightblue" stroke="midnightblue" points="669.428,-32.6116 659.03,-30.5763 665.889,-38.6514 669.428,-32.6116"/>
</g>
<!-- Node19 -->
<g id="node19" class="node"><title>Node19</title>
<polygon fill="none" stroke="#bfbfbf" points="2031.5,-11.5 2031.5,-30.5 2080.5,-30.5 2080.5,-11.5 2031.5,-11.5"/>
<text text-anchor="middle" x="2056" y="-18.5" font-family="Helvetica,sans-Serif" font-size="10.00">stdint.h</text>
</g>
<!-- Node18&#45;&gt;Node19 -->
<g id="edge23" class="edge"><title>Node18&#45;&gt;Node19</title>
<path fill="none" stroke="midnightblue" d="M2045.24,-145.303C2047.42,-120.336 2051.93,-68.5803 2054.37,-40.7219"/>
<polygon fill="midnightblue" stroke="midnightblue" points="2057.86,-40.9671 2055.24,-30.7007 2050.88,-40.3585 2057.86,-40.9671"/>
</g>
<!-- Node20&#45;&gt;Node17 -->
<g id="edge64" class="edge"><title>Node20&#45;&gt;Node17</title>
<path fill="none" stroke="midnightblue" d="M1309.44,-212.394C1303.07,-181.81 1283.38,-109.612 1235,-78 1132.09,-10.7579 800.93,-76.6931 683,-42 678.031,-40.5383 672.992,-38.3025 668.32,-35.8477"/>
<polygon fill="midnightblue" stroke="midnightblue" points="669.795,-32.6573 659.386,-30.6791 666.29,-38.7164 669.795,-32.6573"/>
</g>
<!-- Node21 -->
<g id="node21" class="node"><title>Node21</title>
<g id="a_node21"><a xlink:href="XBotPipes_8h.html" target="_top" xlink:title="XBotCore&#45;interfaces\l/XBotPipes.h">
<polygon fill="none" stroke="black" points="1453.5,-145.5 1453.5,-175.5 1558.5,-175.5 1558.5,-145.5 1453.5,-145.5"/>
<text text-anchor="start" x="1461.5" y="-163.5" font-family="Helvetica,sans-Serif" font-size="10.00">XBotCore&#45;interfaces</text>
<text text-anchor="middle" x="1506" y="-152.5" font-family="Helvetica,sans-Serif" font-size="10.00">/XBotPipes.h</text>
</a>
</g>
</g>
<!-- Node20&#45;&gt;Node21 -->
<g id="edge29" class="edge"><title>Node20&#45;&gt;Node21</title>
<path fill="none" stroke="midnightblue" d="M1354.1,-212.396C1383.46,-202.558 1422.83,-189.367 1454.13,-178.879"/>
<polygon fill="midnightblue" stroke="midnightblue" points="1455.62,-182.072 1463.99,-175.577 1453.39,-175.435 1455.62,-182.072"/>
</g>
<!-- Node23 -->
<g id="node23" class="node"><title>Node23</title>
<polygon fill="none" stroke="#bfbfbf" points="1282,-84 1282,-103 1342,-103 1342,-84 1282,-84"/>
<text text-anchor="middle" x="1312" y="-91" font-family="Helvetica,sans-Serif" font-size="10.00">sys/stat.h</text>
</g>
<!-- Node20&#45;&gt;Node23 -->
<g id="edge62" class="edge"><title>Node20&#45;&gt;Node23</title>
<path fill="none" stroke="midnightblue" d="M1312,-212.374C1312,-188.504 1312,-140.181 1312,-113.415"/>
<polygon fill="midnightblue" stroke="midnightblue" points="1315.5,-113.097 1312,-103.097 1308.5,-113.097 1315.5,-113.097"/>
</g>
<!-- Node24 -->
<g id="node24" class="node"><title>Node24</title>
<polygon fill="none" stroke="#bfbfbf" points="1360,-84 1360,-103 1404,-103 1404,-84 1360,-84"/>
<text text-anchor="middle" x="1382" y="-91" font-family="Helvetica,sans-Serif" font-size="10.00">fcntl.h</text>
</g>
<!-- Node20&#45;&gt;Node24 -->
<g id="edge63" class="edge"><title>Node20&#45;&gt;Node24</title>
<path fill="none" stroke="midnightblue" d="M1319.49,-212.374C1332.38,-188.076 1358.7,-138.44 1372.72,-111.996"/>
<polygon fill="midnightblue" stroke="midnightblue" points="1375.85,-113.572 1377.44,-103.097 1369.66,-110.292 1375.85,-113.572"/>
</g>
<!-- Node39 -->
<g id="node39" class="node"><title>Node39</title>
<g id="a_node39"><a xlink:href="CommunicationInterfaceROS_8h.html" target="_top" xlink:title="XCM/CommunicationInterface\lROS.h">
<polygon fill="none" stroke="black" points="639.5,-145.5 639.5,-175.5 788.5,-175.5 788.5,-145.5 639.5,-145.5"/>
<text text-anchor="start" x="647.5" y="-163.5" font-family="Helvetica,sans-Serif" font-size="10.00">XCM/CommunicationInterface</text>
<text text-anchor="middle" x="714" y="-152.5" font-family="Helvetica,sans-Serif" font-size="10.00">ROS.h</text>
</a>
</g>
</g>
<!-- Node20&#45;&gt;Node39 -->
<g id="edge51" class="edge"><title>Node20&#45;&gt;Node39</title>
<path fill="none" stroke="midnightblue" d="M1243.4,-219.044C1133.55,-207.104 918.427,-183.72 799,-170.739"/>
<polygon fill="midnightblue" stroke="midnightblue" points="799.126,-167.232 788.806,-169.631 798.369,-174.191 799.126,-167.232"/>
</g>
<!-- Node21&#45;&gt;Node8 -->
<g id="edge31" class="edge"><title>Node21&#45;&gt;Node8</title>
<path fill="none" stroke="midnightblue" d="M1558.67,-159.333C1699.65,-158.307 2082.92,-151.567 2201,-109 2202.45,-108.479 2268.32,-61.2564 2302.66,-36.6116"/>
<polygon fill="midnightblue" stroke="midnightblue" points="2304.95,-39.2704 2311.04,-30.595 2300.87,-33.5842 2304.95,-39.2704"/>
</g>
<!-- Node21&#45;&gt;Node9 -->
<g id="edge30" class="edge"><title>Node21&#45;&gt;Node9</title>
<path fill="none" stroke="midnightblue" d="M1558.61,-155.901C1678.56,-147.684 1981.58,-126.873 2235,-109 2295.72,-104.718 2366.7,-99.5958 2406.29,-96.7285"/>
<polygon fill="midnightblue" stroke="midnightblue" points="2406.63,-100.213 2416.35,-95.999 2406.13,-93.231 2406.63,-100.213"/>
</g>
<!-- Node21&#45;&gt;Node17 -->
<g id="edge32" class="edge"><title>Node21&#45;&gt;Node17</title>
<path fill="none" stroke="midnightblue" d="M1490.39,-145.34C1465.13,-122.502 1417.65,-79.882 1413,-78 1262.44,-17.0873 839.175,-86.6024 683,-42 677.805,-40.5164 672.541,-38.1662 667.7,-35.5901"/>
<polygon fill="midnightblue" stroke="midnightblue" points="669.443,-32.5548 659.044,-30.5267 665.908,-38.597 669.443,-32.5548"/>
</g>
<!-- Node22 -->
<g id="node22" class="node"><title>Node22</title>
<polygon fill="none" stroke="#bfbfbf" points="1570,-84 1570,-103 1638,-103 1638,-84 1570,-84"/>
<text text-anchor="middle" x="1604" y="-91" font-family="Helvetica,sans-Serif" font-size="10.00">sys/types.h</text>
</g>
<!-- Node21&#45;&gt;Node22 -->
<g id="edge33" class="edge"><title>Node21&#45;&gt;Node22</title>
<path fill="none" stroke="midnightblue" d="M1527.26,-145.396C1543.7,-134.496 1566.34,-119.479 1582.77,-108.584"/>
<polygon fill="midnightblue" stroke="midnightblue" points="1584.78,-111.451 1591.17,-103.007 1580.91,-105.618 1584.78,-111.451"/>
</g>
<!-- Node21&#45;&gt;Node23 -->
<g id="edge34" class="edge"><title>Node21&#45;&gt;Node23</title>
<path fill="none" stroke="midnightblue" d="M1461.07,-145.398C1430.04,-135.528 1387.88,-121.858 1351,-109 1348.76,-108.217 1346.44,-107.397 1344.12,-106.56"/>
<polygon fill="midnightblue" stroke="midnightblue" points="1345.22,-103.237 1334.63,-103.092 1342.82,-109.812 1345.22,-103.237"/>
</g>
<!-- Node21&#45;&gt;Node24 -->
<g id="edge35" class="edge"><title>Node21&#45;&gt;Node24</title>
<path fill="none" stroke="midnightblue" d="M1479.09,-145.396C1457.72,-134.193 1428.05,-118.641 1407.15,-107.685"/>
<polygon fill="midnightblue" stroke="midnightblue" points="1408.71,-104.55 1398.23,-103.007 1405.46,-110.75 1408.71,-104.55"/>
</g>
<!-- Node25 -->
<g id="node25" class="node"><title>Node25</title>
<polygon fill="none" stroke="#bfbfbf" points="1656.5,-84 1656.5,-103 1707.5,-103 1707.5,-84 1656.5,-84"/>
<text text-anchor="middle" x="1682" y="-91" font-family="Helvetica,sans-Serif" font-size="10.00">unistd.h</text>
</g>
<!-- Node21&#45;&gt;Node25 -->
<g id="edge36" class="edge"><title>Node21&#45;&gt;Node25</title>
<path fill="none" stroke="midnightblue" d="M1546.92,-145.438C1575.17,-135.586 1613.52,-121.92 1647,-109 1648.65,-108.365 1650.33,-107.704 1652.03,-107.029"/>
<polygon fill="midnightblue" stroke="midnightblue" points="1653.76,-110.104 1661.71,-103.103 1651.13,-103.618 1653.76,-110.104"/>
</g>
<!-- Node26 -->
<g id="node26" class="node"><title>Node26</title>
<g id="a_node26"><a xlink:href="XBotUtils_8h.html" target="_top" xlink:title="XCM/XBotUtils.h">
<polygon fill="none" stroke="black" points="1460,-84 1460,-103 1552,-103 1552,-84 1460,-84"/>
<text text-anchor="middle" x="1506" y="-91" font-family="Helvetica,sans-Serif" font-size="10.00">XCM/XBotUtils.h</text>
</a>
</g>
</g>
<!-- Node21&#45;&gt;Node26 -->
<g id="edge37" class="edge"><title>Node21&#45;&gt;Node26</title>
<path fill="none" stroke="midnightblue" d="M1506,-145.396C1506,-136.064 1506,-123.714 1506,-113.517"/>
<polygon fill="midnightblue" stroke="midnightblue" points="1509.5,-113.195 1506,-103.195 1502.5,-113.195 1509.5,-113.195"/>
</g>
<!-- Node26&#45;&gt;Node19 -->
<g id="edge38" class="edge"><title>Node26&#45;&gt;Node19</title>
<path fill="none" stroke="midnightblue" d="M1534.33,-83.9892C1542.84,-81.7177 1552.24,-79.4848 1561,-78 1763.62,-43.666 1825.96,-103.68 2022,-42 2026.61,-40.5503 2031.26,-38.3813 2035.58,-35.9994"/>
<polygon fill="midnightblue" stroke="midnightblue" points="2037.64,-38.838 2044.36,-30.6415 2034,-32.8625 2037.64,-38.838"/>
</g>
<!-- Node27 -->
<g id="node27" class="node"><title>Node27</title>
<polygon fill="none" stroke="#bfbfbf" points="1899,-11.5 1899,-30.5 1945,-30.5 1945,-11.5 1899,-11.5"/>
<text text-anchor="middle" x="1922" y="-18.5" font-family="Helvetica,sans-Serif" font-size="10.00">stdio.h</text>
</g>
<!-- Node26&#45;&gt;Node27 -->
<g id="edge39" class="edge"><title>Node26&#45;&gt;Node27</title>
<path fill="none" stroke="midnightblue" d="M1535.22,-83.934C1543.5,-81.7431 1552.55,-79.5666 1561,-78 1705.63,-51.1766 1751.02,-90.1927 1890,-42 1894.25,-40.527 1898.52,-38.4066 1902.49,-36.0916"/>
<polygon fill="midnightblue" stroke="midnightblue" points="1904.58,-38.9122 1911.08,-30.5502 1900.78,-33.0298 1904.58,-38.9122"/>
</g>
<!-- Node28 -->
<g id="node28" class="node"><title>Node28</title>
<polygon fill="none" stroke="#bfbfbf" points="1963,-11.5 1963,-30.5 2013,-30.5 2013,-11.5 1963,-11.5"/>
<text text-anchor="middle" x="1988" y="-18.5" font-family="Helvetica,sans-Serif" font-size="10.00">fstream</text>
</g>
<!-- Node26&#45;&gt;Node28 -->
<g id="edge40" class="edge"><title>Node26&#45;&gt;Node28</title>
<path fill="none" stroke="midnightblue" d="M1534.63,-83.9877C1543.06,-81.744 1552.34,-79.5264 1561,-78 1733.73,-47.5379 1787.05,-95.7632 1954,-42 1958.6,-40.5194 1963.24,-38.3366 1967.56,-35.9508"/>
<polygon fill="midnightblue" stroke="midnightblue" points="1969.63,-38.791 1976.34,-30.5976 1965.98,-32.8138 1969.63,-38.791"/>
</g>
<!-- Node29 -->
<g id="node29" class="node"><title>Node29</title>
<polygon fill="none" stroke="#bfbfbf" points="692,-11.5 692,-30.5 744,-30.5 744,-11.5 692,-11.5"/>
<text text-anchor="middle" x="718" y="-18.5" font-family="Helvetica,sans-Serif" font-size="10.00">sstream</text>
</g>
<!-- Node26&#45;&gt;Node29 -->
<g id="edge41" class="edge"><title>Node26&#45;&gt;Node29</title>
<path fill="none" stroke="midnightblue" d="M1475.38,-83.9442C1466.02,-81.6425 1455.65,-79.4044 1446,-78 1293.4,-55.7928 900.964,-85.4341 753,-42 748.056,-40.5487 743.061,-38.2779 738.453,-35.7791"/>
<polygon fill="midnightblue" stroke="midnightblue" points="740.055,-32.6589 729.679,-30.519 736.456,-38.6627 740.055,-32.6589"/>
</g>
<!-- Node30 -->
<g id="node30" class="node"><title>Node30</title>
<polygon fill="none" stroke="#bfbfbf" points="762,-11.5 762,-30.5 886,-30.5 886,-11.5 762,-11.5"/>
<text text-anchor="middle" x="824" y="-18.5" font-family="Helvetica,sans-Serif" font-size="10.00">boost/circular_buffer.hpp</text>
</g>
<!-- Node26&#45;&gt;Node30 -->
<g id="edge42" class="edge"><title>Node26&#45;&gt;Node30</title>
<path fill="none" stroke="midnightblue" d="M1475.06,-83.9486C1465.78,-81.676 1455.53,-79.4526 1446,-78 1203.39,-41.0395 1136.88,-83.4972 895,-42 883.09,-39.9567 870.314,-36.7025 858.928,-33.4077"/>
<polygon fill="midnightblue" stroke="midnightblue" points="859.921,-30.0515 849.337,-30.5311 857.91,-36.7564 859.921,-30.0515"/>
</g>
<!-- Node31 -->
<g id="node31" class="node"><title>Node31</title>
<polygon fill="none" stroke="#bfbfbf" points="904,-6 904,-36 1006,-36 1006,-6 904,-6"/>
<text text-anchor="start" x="912" y="-24" font-family="Helvetica,sans-Serif" font-size="10.00">boost/accumulators</text>
<text text-anchor="middle" x="955" y="-13" font-family="Helvetica,sans-Serif" font-size="10.00">/accumulators.hpp</text>
</g>
<!-- Node26&#45;&gt;Node31 -->
<g id="edge43" class="edge"><title>Node26&#45;&gt;Node31</title>
<path fill="none" stroke="midnightblue" d="M1474.73,-83.9817C1465.54,-81.7378 1455.42,-79.5217 1446,-78 1256.24,-47.3324 1203.29,-80.6675 1015,-42 1010.89,-41.1551 1006.66,-40.1163 1002.45,-38.9602"/>
<polygon fill="midnightblue" stroke="midnightblue" points="1003.3,-35.5604 992.716,-36.0862 1001.32,-42.274 1003.3,-35.5604"/>
</g>
<!-- Node32 -->
<g id="node32" class="node"><title>Node32</title>
<polygon fill="none" stroke="#bfbfbf" points="1024.5,-6 1024.5,-36 1129.5,-36 1129.5,-6 1024.5,-6"/>
<text text-anchor="start" x="1032.5" y="-24" font-family="Helvetica,sans-Serif" font-size="10.00">boost/accumulators</text>
<text text-anchor="middle" x="1077" y="-13" font-family="Helvetica,sans-Serif" font-size="10.00">/statistics/count.hpp</text>
</g>
<!-- Node26&#45;&gt;Node32 -->
<g id="edge44" class="edge"><title>Node26&#45;&gt;Node32</title>
<path fill="none" stroke="midnightblue" d="M1473.77,-83.9534C1464.82,-81.7885 1455.07,-79.6204 1446,-78 1310.33,-53.7685 1272.6,-71.6177 1138,-42 1133.96,-41.1108 1129.81,-40.0589 1125.66,-38.9102"/>
<polygon fill="midnightblue" stroke="midnightblue" points="1126.64,-35.5488 1116.06,-36.0852 1124.66,-42.2644 1126.64,-35.5488"/>
</g>
<!-- Node33 -->
<g id="node33" class="node"><title>Node33</title>
<polygon fill="none" stroke="#bfbfbf" points="1147.5,-6 1147.5,-36 1252.5,-36 1252.5,-6 1147.5,-6"/>
<text text-anchor="start" x="1155.5" y="-24" font-family="Helvetica,sans-Serif" font-size="10.00">boost/accumulators</text>
<text text-anchor="middle" x="1200" y="-13" font-family="Helvetica,sans-Serif" font-size="10.00">/statistics/mean.hpp</text>
</g>
<!-- Node26&#45;&gt;Node33 -->
<g id="edge45" class="edge"><title>Node26&#45;&gt;Node33</title>
<path fill="none" stroke="midnightblue" d="M1471.79,-83.9586C1463.38,-81.9329 1454.38,-79.8305 1446,-78 1364.59,-60.2086 1342.68,-62.8278 1262,-42 1258.39,-41.0689 1254.69,-40.0463 1250.97,-38.9712"/>
<polygon fill="midnightblue" stroke="midnightblue" points="1251.74,-35.5478 1241.15,-36.0293 1249.73,-42.2531 1251.74,-35.5478"/>
</g>
<!-- Node34 -->
<g id="node34" class="node"><title>Node34</title>
<polygon fill="none" stroke="#bfbfbf" points="1271,-6 1271,-36 1373,-36 1373,-6 1271,-6"/>
<text text-anchor="start" x="1279" y="-24" font-family="Helvetica,sans-Serif" font-size="10.00">boost/accumulators</text>
<text text-anchor="middle" x="1322" y="-13" font-family="Helvetica,sans-Serif" font-size="10.00">/statistics/min.hpp</text>
</g>
<!-- Node26&#45;&gt;Node34 -->
<g id="edge46" class="edge"><title>Node26&#45;&gt;Node34</title>
<path fill="none" stroke="midnightblue" d="M1483.81,-83.9961C1455.29,-73.07 1405.07,-53.8273 1368.12,-39.6699"/>
<polygon fill="midnightblue" stroke="midnightblue" points="1369.14,-36.3155 1358.55,-36.0059 1366.64,-42.8522 1369.14,-36.3155"/>
</g>
<!-- Node35 -->
<g id="node35" class="node"><title>Node35</title>
<polygon fill="none" stroke="#bfbfbf" points="1391,-6 1391,-36 1493,-36 1493,-6 1391,-6"/>
<text text-anchor="start" x="1399" y="-24" font-family="Helvetica,sans-Serif" font-size="10.00">boost/accumulators</text>
<text text-anchor="middle" x="1442" y="-13" font-family="Helvetica,sans-Serif" font-size="10.00">/statistics/max.hpp</text>
</g>
<!-- Node26&#45;&gt;Node35 -->
<g id="edge47" class="edge"><title>Node26&#45;&gt;Node35</title>
<path fill="none" stroke="midnightblue" d="M1498.15,-83.8553C1489.11,-73.8968 1473.92,-57.1651 1461.62,-43.6129"/>
<polygon fill="midnightblue" stroke="midnightblue" points="1464.09,-41.1278 1454.78,-36.0762 1458.91,-45.8329 1464.09,-41.1278"/>
</g>
<!-- Node36 -->
<g id="node36" class="node"><title>Node36</title>
<polygon fill="none" stroke="#bfbfbf" points="1511,-6 1511,-36 1629,-36 1629,-6 1511,-6"/>
<text text-anchor="start" x="1519" y="-24" font-family="Helvetica,sans-Serif" font-size="10.00">boost/accumulators</text>
<text text-anchor="middle" x="1570" y="-13" font-family="Helvetica,sans-Serif" font-size="10.00">/statistics/variance.hpp</text>
</g>
<!-- Node26&#45;&gt;Node36 -->
<g id="edge48" class="edge"><title>Node26&#45;&gt;Node36</title>
<path fill="none" stroke="midnightblue" d="M1513.85,-83.8553C1522.89,-73.8968 1538.08,-57.1651 1550.38,-43.6129"/>
<polygon fill="midnightblue" stroke="midnightblue" points="1553.09,-45.8329 1557.22,-36.0762 1547.91,-41.1278 1553.09,-45.8329"/>
</g>
<!-- Node37 -->
<g id="node37" class="node"><title>Node37</title>
<polygon fill="none" stroke="#bfbfbf" points="1647,-6 1647,-36 1761,-36 1761,-6 1647,-6"/>
<text text-anchor="start" x="1655" y="-24" font-family="Helvetica,sans-Serif" font-size="10.00">boost/accumulators</text>
<text text-anchor="middle" x="1704" y="-13" font-family="Helvetica,sans-Serif" font-size="10.00">/statistics/error_of.hpp</text>
</g>
<!-- Node26&#45;&gt;Node37 -->
<g id="edge49" class="edge"><title>Node26&#45;&gt;Node37</title>
<path fill="none" stroke="midnightblue" d="M1529.88,-83.9961C1560.77,-73.0003 1615.3,-53.5814 1655.13,-39.3994"/>
<polygon fill="midnightblue" stroke="midnightblue" points="1656.42,-42.6575 1664.66,-36.0059 1654.07,-36.0631 1656.42,-42.6575"/>
</g>
<!-- Node38 -->
<g id="node38" class="node"><title>Node38</title>
<polygon fill="none" stroke="#bfbfbf" points="1779,-0.5 1779,-41.5 1881,-41.5 1881,-0.5 1779,-0.5"/>
<text text-anchor="start" x="1787" y="-29.5" font-family="Helvetica,sans-Serif" font-size="10.00">boost/accumulators</text>
<text text-anchor="start" x="1787" y="-18.5" font-family="Helvetica,sans-Serif" font-size="10.00">/statistics/error_of</text>
<text text-anchor="middle" x="1830" y="-7.5" font-family="Helvetica,sans-Serif" font-size="10.00">_mean.hpp</text>
</g>
<!-- Node26&#45;&gt;Node38 -->
<g id="edge50" class="edge"><title>Node26&#45;&gt;Node38</title>
<path fill="none" stroke="midnightblue" d="M1536.43,-83.9709C1544.39,-81.8786 1552.99,-79.742 1561,-78 1650.05,-58.6319 1676.82,-64.5337 1769.03,-42.063"/>
<polygon fill="midnightblue" stroke="midnightblue" points="1769.9,-45.4521 1778.76,-39.6453 1768.21,-38.6584 1769.9,-45.4521"/>
</g>
<!-- Node40 -->
<g id="node40" class="node"><title>Node40</title>
<g id="a_node40"><a xlink:href="XBotCommunicationInterface_8h.html" target="_top" xlink:title="XCM/XBotCommunicationInterface.h">
<polygon fill="none" stroke="black" points="45.5,-84 45.5,-103 224.5,-103 224.5,-84 45.5,-84"/>
<text text-anchor="middle" x="135" y="-91" font-family="Helvetica,sans-Serif" font-size="10.00">XCM/XBotCommunicationInterface.h</text>
</a>
</g>
</g>
<!-- Node39&#45;&gt;Node40 -->
<g id="edge52" class="edge"><title>Node39&#45;&gt;Node40</title>
<path fill="none" stroke="midnightblue" d="M639.316,-152.646C544.647,-143.731 376.489,-127.139 233,-109 222.222,-107.637 210.797,-106.065 199.7,-104.468"/>
<polygon fill="midnightblue" stroke="midnightblue" points="200.029,-100.979 189.628,-103.001 199.019,-107.906 200.029,-100.979"/>
</g>
<!-- Node41 -->
<g id="node41" class="node"><title>Node41</title>
<polygon fill="none" stroke="#bfbfbf" points="638.5,-84 638.5,-103 693.5,-103 693.5,-84 638.5,-84"/>
<text text-anchor="middle" x="666" y="-91" font-family="Helvetica,sans-Serif" font-size="10.00">ros/ros.h</text>
</g>
<!-- Node39&#45;&gt;Node41 -->
<g id="edge54" class="edge"><title>Node39&#45;&gt;Node41</title>
<path fill="none" stroke="midnightblue" d="M703.585,-145.396C696.175,-135.361 686.188,-121.838 678.372,-111.253"/>
<polygon fill="midnightblue" stroke="midnightblue" points="681.177,-109.16 672.421,-103.195 675.546,-113.318 681.177,-109.16"/>
</g>
<!-- Node42 -->
<g id="node42" class="node"><title>Node42</title>
<polygon fill="none" stroke="#bfbfbf" points="712,-84 712,-103 812,-103 812,-84 712,-84"/>
<text text-anchor="middle" x="762" y="-91" font-family="Helvetica,sans-Serif" font-size="10.00">std_srvs/SetBool.h</text>
</g>
<!-- Node39&#45;&gt;Node42 -->
<g id="edge55" class="edge"><title>Node39&#45;&gt;Node42</title>
<path fill="none" stroke="midnightblue" d="M724.415,-145.396C731.825,-135.361 741.812,-121.838 749.628,-111.253"/>
<polygon fill="midnightblue" stroke="midnightblue" points="752.454,-113.318 755.579,-103.195 746.823,-109.16 752.454,-113.318"/>
</g>
<!-- Node43 -->
<g id="node43" class="node"><title>Node43</title>
<polygon fill="none" stroke="#bfbfbf" points="830,-84 830,-103 910,-103 910,-84 830,-84"/>
<text text-anchor="middle" x="870" y="-91" font-family="Helvetica,sans-Serif" font-size="10.00">boost/bind.hpp</text>
</g>
<!-- Node39&#45;&gt;Node43 -->
<g id="edge56" class="edge"><title>Node39&#45;&gt;Node43</title>
<path fill="none" stroke="midnightblue" d="M747.85,-145.396C775.343,-133.941 813.748,-117.938 840.115,-106.952"/>
<polygon fill="midnightblue" stroke="midnightblue" points="841.699,-110.084 849.583,-103.007 839.006,-103.622 841.699,-110.084"/>
</g>
<!-- Node44 -->
<g id="node44" class="node"><title>Node44</title>
<polygon fill="none" stroke="#bfbfbf" points="928,-78.5 928,-108.5 1068,-108.5 1068,-78.5 928,-78.5"/>
<text text-anchor="start" x="936" y="-96.5" font-family="Helvetica,sans-Serif" font-size="10.00">RobotInterfaceROS/Generic</text>
<text text-anchor="middle" x="998" y="-85.5" font-family="Helvetica,sans-Serif" font-size="10.00">ControlMessage.h</text>
</g>
<!-- Node39&#45;&gt;Node44 -->
<g id="edge57" class="edge"><title>Node39&#45;&gt;Node44</title>
<path fill="none" stroke="midnightblue" d="M775.274,-145.476C819.634,-135.323 879.732,-121.568 926.32,-110.906"/>
<polygon fill="midnightblue" stroke="midnightblue" points="927.379,-114.254 936.346,-108.611 925.817,-107.43 927.379,-114.254"/>
</g>
<!-- Node45 -->
<g id="node45" class="node"><title>Node45</title>
<polygon fill="none" stroke="#bfbfbf" points="1086,-78.5 1086,-108.5 1226,-108.5 1226,-78.5 1086,-78.5"/>
<text text-anchor="start" x="1094" y="-96.5" font-family="Helvetica,sans-Serif" font-size="10.00">RobotInterfaceROS/Generic</text>
<text text-anchor="middle" x="1156" y="-85.5" font-family="Helvetica,sans-Serif" font-size="10.00">JointStateMessage.h</text>
</g>
<!-- Node39&#45;&gt;Node45 -->
<g id="edge58" class="edge"><title>Node39&#45;&gt;Node45</title>
<path fill="none" stroke="midnightblue" d="M788.529,-150.091C859.713,-140.885 970.263,-126.02 1075.64,-109.18"/>
<polygon fill="midnightblue" stroke="midnightblue" points="1076.5,-112.587 1085.82,-107.545 1075.39,-105.676 1076.5,-112.587"/>
</g>
<!-- Node46 -->
<g id="node46" class="node"><title>Node46</title>
<polygon fill="none" stroke="#bfbfbf" points="242.5,-78.5 242.5,-108.5 363.5,-108.5 363.5,-78.5 242.5,-78.5"/>
<text text-anchor="start" x="250.5" y="-96.5" font-family="Helvetica,sans-Serif" font-size="10.00">robot_state_publisher</text>
<text text-anchor="middle" x="303" y="-85.5" font-family="Helvetica,sans-Serif" font-size="10.00">/robot_state_publisher.h</text>
</g>
<!-- Node39&#45;&gt;Node46 -->
<g id="edge59" class="edge"><title>Node39&#45;&gt;Node46</title>
<path fill="none" stroke="midnightblue" d="M639.298,-149.69C572.376,-140.615 471.317,-126.205 373.708,-109.064"/>
<polygon fill="midnightblue" stroke="midnightblue" points="374.122,-105.582 363.665,-107.288 372.903,-112.476 374.122,-105.582"/>
</g>
<!-- Node47 -->
<g id="node47" class="node"><title>Node47</title>
<polygon fill="none" stroke="#bfbfbf" points="382,-84 382,-103 488,-103 488,-84 382,-84"/>
<text text-anchor="middle" x="435" y="-91" font-family="Helvetica,sans-Serif" font-size="10.00">XCM/cmd_service.h</text>
</g>
<!-- Node39&#45;&gt;Node47 -->
<g id="edge60" class="edge"><title>Node39&#45;&gt;Node47</title>
<path fill="none" stroke="midnightblue" d="M653.662,-145.477C610.119,-135.353 549.925,-121.347 497,-109 491.949,-107.822 486.666,-106.588 481.407,-105.359"/>
<polygon fill="midnightblue" stroke="midnightblue" points="481.923,-101.885 471.389,-103.017 480.33,-108.702 481.923,-101.885"/>
</g>
<!-- Node48 -->
<g id="node48" class="node"><title>Node48</title>
<polygon fill="none" stroke="#bfbfbf" points="506,-84 506,-103 620,-103 620,-84 506,-84"/>
<text text-anchor="middle" x="563" y="-91" font-family="Helvetica,sans-Serif" font-size="10.00">XCM/status_service.h</text>
</g>
<!-- Node39&#45;&gt;Node48 -->
<g id="edge61" class="edge"><title>Node39&#45;&gt;Node48</title>
<path fill="none" stroke="midnightblue" d="M681.235,-145.396C654.741,-133.991 617.777,-118.079 592.265,-107.098"/>
<polygon fill="midnightblue" stroke="midnightblue" points="593.331,-103.746 582.762,-103.007 590.564,-110.176 593.331,-103.746"/>
</g>
<!-- Node40&#45;&gt;Node3 -->
<g id="edge53" class="edge"><title>Node40&#45;&gt;Node3</title>
<path fill="none" stroke="midnightblue" d="M127.765,-83.8553C118.388,-72.6501 101.834,-52.8697 89.9693,-38.6922"/>
<polygon fill="midnightblue" stroke="midnightblue" points="92.3957,-36.138 83.2937,-30.7154 87.0276,-40.6305 92.3957,-36.138"/>
</g>
</g>
</svg>
