<?xml version="1.0" encoding="UTF-8" standalone="no"?>
<!DOCTYPE svg PUBLIC "-//W3C//DTD SVG 1.1//EN"
 "http://www.w3.org/Graphics/SVG/1.1/DTD/svg11.dtd">
<!-- Generated by graphviz version 2.38.0 (20140413.2041)
 -->
<!-- Title: /home/lucamuratore/advr&#45;superbuild/external/XCM/src/XBotPlugin/XBotLoggingPlugin.cpp Pages: 1 -->
<svg width="3196pt" height="452pt"
 viewBox="0.00 0.00 3195.50 452.00" xmlns="http://www.w3.org/2000/svg" xmlns:xlink="http://www.w3.org/1999/xlink">
<g id="graph0" class="graph" transform="scale(1 1) rotate(0) translate(4 448)">
<title>/home/lucamuratore/advr&#45;superbuild/external/XCM/src/XBotPlugin/XBotLoggingPlugin.cpp</title>
<!-- Node1 -->
<g id="node1" class="node"><title>Node1</title>
<polygon fill="#bfbfbf" stroke="black" points="2314.5,-391.5 2314.5,-443.5 2483.5,-443.5 2483.5,-391.5 2314.5,-391.5"/>
<text text-anchor="start" x="2322.5" y="-431.5" font-family="Helvetica,sans-Serif" font-size="10.00">/home/lucamuratore</text>
<text text-anchor="start" x="2322.5" y="-420.5" font-family="Helvetica,sans-Serif" font-size="10.00">/advr&#45;superbuild/external</text>
<text text-anchor="start" x="2322.5" y="-409.5" font-family="Helvetica,sans-Serif" font-size="10.00">/XCM/src/XBotPlugin/XBotLogging</text>
<text text-anchor="middle" x="2399" y="-398.5" font-family="Helvetica,sans-Serif" font-size="10.00">Plugin.cpp</text>
</g>
<!-- Node2 -->
<g id="node2" class="node"><title>Node2</title>
<g id="a_node2"><a xlink:href="XBotLoggingPlugin_8h.html" target="_top" xlink:title="XBotPlugin/XBotLoggingPlugin.h">
<polygon fill="none" stroke="black" points="2237.5,-335.5 2237.5,-354.5 2396.5,-354.5 2396.5,-335.5 2237.5,-335.5"/>
<text text-anchor="middle" x="2317" y="-342.5" font-family="Helvetica,sans-Serif" font-size="10.00">XBotPlugin/XBotLoggingPlugin.h</text>
</a>
</g>
</g>
<!-- Node1&#45;&gt;Node2 -->
<g id="edge1" class="edge"><title>Node1&#45;&gt;Node2</title>
<path fill="none" stroke="midnightblue" d="M2369.86,-391.446C2358.21,-381.428 2345.16,-370.208 2334.94,-361.422"/>
<polygon fill="midnightblue" stroke="midnightblue" points="2336.98,-358.561 2327.11,-354.695 2332.41,-363.869 2336.98,-358.561"/>
</g>
<!-- Node27 -->
<g id="node27" class="node"><title>Node27</title>
<g id="a_node27"><a xlink:href="XBotUtils_8h.html" target="_top" xlink:title="XCM/XBotUtils.h">
<polygon fill="none" stroke="black" points="2436,-84 2436,-103 2528,-103 2528,-84 2436,-84"/>
<text text-anchor="middle" x="2482" y="-91" font-family="Helvetica,sans-Serif" font-size="10.00">XCM/XBotUtils.h</text>
</a>
</g>
</g>
<!-- Node1&#45;&gt;Node27 -->
<g id="edge67" class="edge"><title>Node1&#45;&gt;Node27</title>
<path fill="none" stroke="midnightblue" d="M2427.68,-391.452C2451.33,-367.896 2481,-330.305 2481,-290 2481,-290 2481,-290 2481,-226.5 2481,-186.157 2481.47,-138.879 2481.77,-113.281"/>
<polygon fill="midnightblue" stroke="midnightblue" points="2485.27,-113.19 2481.89,-103.149 2478.27,-113.106 2485.27,-113.19"/>
</g>
<!-- Node3 -->
<g id="node3" class="node"><title>Node3</title>
<g id="a_node3"><a xlink:href="XBotControlPlugin_8h.html" target="_top" xlink:title="XCM/XBotControlPlugin.h">
<polygon fill="none" stroke="black" points="1574.5,-279.5 1574.5,-298.5 1705.5,-298.5 1705.5,-279.5 1574.5,-279.5"/>
<text text-anchor="middle" x="1640" y="-286.5" font-family="Helvetica,sans-Serif" font-size="10.00">XCM/XBotControlPlugin.h</text>
</a>
</g>
</g>
<!-- Node2&#45;&gt;Node3 -->
<g id="edge2" class="edge"><title>Node2&#45;&gt;Node3</title>
<path fill="none" stroke="midnightblue" d="M2237.35,-337.647C2105.82,-327.155 1844.95,-306.347 1715.91,-296.055"/>
<polygon fill="midnightblue" stroke="midnightblue" points="1715.97,-292.549 1705.73,-295.243 1715.42,-299.527 1715.97,-292.549"/>
</g>
<!-- Node9 -->
<g id="node9" class="node"><title>Node9</title>
<polygon fill="none" stroke="#bfbfbf" points="1729,-11.5 1729,-30.5 1781,-30.5 1781,-11.5 1729,-11.5"/>
<text text-anchor="middle" x="1755" y="-18.5" font-family="Helvetica,sans-Serif" font-size="10.00">memory</text>
</g>
<!-- Node2&#45;&gt;Node9 -->
<g id="edge66" class="edge"><title>Node2&#45;&gt;Node9</title>
<path fill="none" stroke="midnightblue" d="M2317,-335.307C2317,-316.062 2317,-268.404 2317,-228.5 2317,-228.5 2317,-228.5 2317,-159.5 2317,-142.372 2329.26,-126.646 2145,-78 1991.67,-37.5193 1941.02,-90.3941 1790,-42 1785.17,-40.453 1780.27,-38.1801 1775.73,-35.7161"/>
<polygon fill="midnightblue" stroke="midnightblue" points="1777.43,-32.6549 1767.05,-30.561 1773.86,-38.6746 1777.43,-32.6549"/>
</g>
<!-- Node4 -->
<g id="node4" class="node"><title>Node4</title>
<polygon fill="none" stroke="#bfbfbf" points="0,-11.5 0,-30.5 152,-30.5 152,-11.5 0,-11.5"/>
<text text-anchor="middle" x="76" y="-18.5" font-family="Helvetica,sans-Serif" font-size="10.00">XBotInterface/RobotInterface.h</text>
</g>
<!-- Node3&#45;&gt;Node4 -->
<g id="edge3" class="edge"><title>Node3&#45;&gt;Node4</title>
<path fill="none" stroke="midnightblue" d="M1574.06,-285.719C1285.09,-275.063 140.387,-225.684 36,-109 17.1849,-87.9684 40.9092,-56.5759 59.031,-37.8101"/>
<polygon fill="midnightblue" stroke="midnightblue" points="61.6648,-40.1279 66.3141,-30.6077 56.7427,-35.1506 61.6648,-40.1279"/>
</g>
<!-- Node5 -->
<g id="node5" class="node"><title>Node5</title>
<g id="a_node5"><a xlink:href="XBotPlugin_8h.html" target="_top" xlink:title="XBotCore&#45;interfaces\l/XBotPlugin.h">
<polygon fill="none" stroke="black" points="1859.5,-212.5 1859.5,-242.5 1964.5,-242.5 1964.5,-212.5 1859.5,-212.5"/>
<text text-anchor="start" x="1867.5" y="-230.5" font-family="Helvetica,sans-Serif" font-size="10.00">XBotCore&#45;interfaces</text>
<text text-anchor="middle" x="1912" y="-219.5" font-family="Helvetica,sans-Serif" font-size="10.00">/XBotPlugin.h</text>
</a>
</g>
</g>
<!-- Node3&#45;&gt;Node5 -->
<g id="edge4" class="edge"><title>Node3&#45;&gt;Node5</title>
<path fill="none" stroke="midnightblue" d="M1678.97,-279.475C1723.41,-269.755 1796.68,-253.726 1849.2,-242.237"/>
<polygon fill="midnightblue" stroke="midnightblue" points="1850.07,-245.631 1859.09,-240.075 1848.57,-238.793 1850.07,-245.631"/>
</g>
<!-- Node21 -->
<g id="node21" class="node"><title>Node21</title>
<g id="a_node21"><a xlink:href="XDomainCommunication_8h.html" target="_top" xlink:title="XBotCore&#45;interfaces\l/XDomainCommunication.h">
<polygon fill="none" stroke="black" points="1277.5,-212.5 1277.5,-242.5 1414.5,-242.5 1414.5,-212.5 1277.5,-212.5"/>
<text text-anchor="start" x="1285.5" y="-230.5" font-family="Helvetica,sans-Serif" font-size="10.00">XBotCore&#45;interfaces</text>
<text text-anchor="middle" x="1346" y="-219.5" font-family="Helvetica,sans-Serif" font-size="10.00">/XDomainCommunication.h</text>
</a>
</g>
</g>
<!-- Node3&#45;&gt;Node21 -->
<g id="edge29" class="edge"><title>Node3&#45;&gt;Node21</title>
<path fill="none" stroke="midnightblue" d="M1597.88,-279.475C1552.79,-270.351 1480.24,-255.668 1424.56,-244.399"/>
<polygon fill="midnightblue" stroke="midnightblue" points="1425.22,-240.962 1414.72,-242.408 1423.83,-247.823 1425.22,-240.962"/>
</g>
<!-- Node6 -->
<g id="node6" class="node"><title>Node6</title>
<g id="a_node6"><a xlink:href="IXBotJoint_8h.html" target="_top" xlink:title="XBotCore&#45;interfaces\l/IXBotJoint.h">
<polygon fill="none" stroke="black" points="1859.5,-145.5 1859.5,-175.5 1964.5,-175.5 1964.5,-145.5 1859.5,-145.5"/>
<text text-anchor="start" x="1867.5" y="-163.5" font-family="Helvetica,sans-Serif" font-size="10.00">XBotCore&#45;interfaces</text>
<text text-anchor="middle" x="1912" y="-152.5" font-family="Helvetica,sans-Serif" font-size="10.00">/IXBotJoint.h</text>
</a>
</g>
</g>
<!-- Node5&#45;&gt;Node6 -->
<g id="edge5" class="edge"><title>Node5&#45;&gt;Node6</title>
<path fill="none" stroke="midnightblue" d="M1912,-212.396C1912,-204.645 1912,-194.812 1912,-185.86"/>
<polygon fill="midnightblue" stroke="midnightblue" points="1915.5,-185.576 1912,-175.577 1908.5,-185.577 1915.5,-185.576"/>
</g>
<!-- Node7 -->
<g id="node7" class="node"><title>Node7</title>
<polygon fill="none" stroke="#bfbfbf" points="1975.5,-84 1975.5,-103 2010.5,-103 2010.5,-84 1975.5,-84"/>
<text text-anchor="middle" x="1993" y="-91" font-family="Helvetica,sans-Serif" font-size="10.00">map</text>
</g>
<!-- Node5&#45;&gt;Node7 -->
<g id="edge25" class="edge"><title>Node5&#45;&gt;Node7</title>
<path fill="none" stroke="midnightblue" d="M1935.49,-212.433C1948.4,-203.535 1963.65,-190.91 1973,-176 1985.12,-156.659 1989.9,-130.465 1991.78,-113.05"/>
<polygon fill="midnightblue" stroke="midnightblue" points="1995.27,-113.299 1992.65,-103.034 1988.3,-112.696 1995.27,-113.299"/>
</g>
<!-- Node8 -->
<g id="node8" class="node"><title>Node8</title>
<polygon fill="none" stroke="#bfbfbf" points="2092,-84 2092,-103 2136,-103 2136,-84 2092,-84"/>
<text text-anchor="middle" x="2114" y="-91" font-family="Helvetica,sans-Serif" font-size="10.00">vector</text>
</g>
<!-- Node5&#45;&gt;Node8 -->
<g id="edge26" class="edge"><title>Node5&#45;&gt;Node8</title>
<path fill="none" stroke="midnightblue" d="M1964.51,-222.047C2023.59,-215.821 2114.06,-202.207 2135,-176 2149.77,-157.506 2137.44,-129.782 2126.39,-111.915"/>
<polygon fill="midnightblue" stroke="midnightblue" points="2129.01,-109.526 2120.56,-103.125 2123.17,-113.394 2129.01,-109.526"/>
</g>
<!-- Node5&#45;&gt;Node9 -->
<g id="edge27" class="edge"><title>Node5&#45;&gt;Node9</title>
<path fill="none" stroke="midnightblue" d="M1886.14,-212.365C1871.34,-203.363 1853.16,-190.654 1840,-176 1801.67,-133.318 1773.82,-70.3538 1761.71,-39.8554"/>
<polygon fill="midnightblue" stroke="midnightblue" points="1764.97,-38.5705 1758.1,-30.5082 1758.44,-41.0974 1764.97,-38.5705"/>
</g>
<!-- Node10 -->
<g id="node10" class="node"><title>Node10</title>
<polygon fill="none" stroke="#bfbfbf" points="1831.5,-84 1831.5,-103 1872.5,-103 1872.5,-84 1831.5,-84"/>
<text text-anchor="middle" x="1852" y="-91" font-family="Helvetica,sans-Serif" font-size="10.00">string</text>
</g>
<!-- Node5&#45;&gt;Node10 -->
<g id="edge28" class="edge"><title>Node5&#45;&gt;Node10</title>
<path fill="none" stroke="midnightblue" d="M1885.44,-212.468C1872.17,-203.882 1857.39,-191.548 1850,-176 1840.53,-156.076 1843.33,-130.203 1846.97,-113.01"/>
<polygon fill="midnightblue" stroke="midnightblue" points="1850.42,-113.657 1849.37,-103.115 1843.62,-112.012 1850.42,-113.657"/>
</g>
<!-- Node11 -->
<g id="node11" class="node"><title>Node11</title>
<g id="a_node11"><a xlink:href="IXBotModel_8h.html" target="_top" xlink:title="XBotCore&#45;interfaces\l/IXBotModel.h">
<polygon fill="none" stroke="black" points="2021.5,-145.5 2021.5,-175.5 2126.5,-175.5 2126.5,-145.5 2021.5,-145.5"/>
<text text-anchor="start" x="2029.5" y="-163.5" font-family="Helvetica,sans-Serif" font-size="10.00">XBotCore&#45;interfaces</text>
<text text-anchor="middle" x="2074" y="-152.5" font-family="Helvetica,sans-Serif" font-size="10.00">/IXBotModel.h</text>
</a>
</g>
</g>
<!-- Node5&#45;&gt;Node11 -->
<g id="edge10" class="edge"><title>Node5&#45;&gt;Node11</title>
<path fill="none" stroke="midnightblue" d="M1947.15,-212.396C1971.25,-202.728 2003.41,-189.823 2029.32,-179.426"/>
<polygon fill="midnightblue" stroke="midnightblue" points="2030.94,-182.549 2038.92,-175.577 2028.33,-176.052 2030.94,-182.549"/>
</g>
<!-- Node12 -->
<g id="node12" class="node"><title>Node12</title>
<g id="a_node12"><a xlink:href="IXBotFT_8h.html" target="_top" xlink:title="XBotCore&#45;interfaces\l/IXBotFT.h">
<polygon fill="none" stroke="black" points="1659.5,-145.5 1659.5,-175.5 1764.5,-175.5 1764.5,-145.5 1659.5,-145.5"/>
<text text-anchor="start" x="1667.5" y="-163.5" font-family="Helvetica,sans-Serif" font-size="10.00">XBotCore&#45;interfaces</text>
<text text-anchor="middle" x="1712" y="-152.5" font-family="Helvetica,sans-Serif" font-size="10.00">/IXBotFT.h</text>
</a>
</g>
</g>
<!-- Node5&#45;&gt;Node12 -->
<g id="edge14" class="edge"><title>Node5&#45;&gt;Node12</title>
<path fill="none" stroke="midnightblue" d="M1868.6,-212.396C1838.2,-202.515 1797.39,-189.252 1765.06,-178.743"/>
<polygon fill="midnightblue" stroke="midnightblue" points="1765.9,-175.339 1755.31,-175.577 1763.74,-181.996 1765.9,-175.339"/>
</g>
<!-- Node13 -->
<g id="node13" class="node"><title>Node13</title>
<g id="a_node13"><a xlink:href="IXBotIMU_8h.html" target="_top" xlink:title="XBotCore&#45;interfaces\l/IXBotIMU.h">
<polygon fill="none" stroke="black" points="2183.5,-145.5 2183.5,-175.5 2288.5,-175.5 2288.5,-145.5 2183.5,-145.5"/>
<text text-anchor="start" x="2191.5" y="-163.5" font-family="Helvetica,sans-Serif" font-size="10.00">XBotCore&#45;interfaces</text>
<text text-anchor="middle" x="2236" y="-152.5" font-family="Helvetica,sans-Serif" font-size="10.00">/IXBotIMU.h</text>
</a>
</g>
</g>
<!-- Node5&#45;&gt;Node13 -->
<g id="edge15" class="edge"><title>Node5&#45;&gt;Node13</title>
<path fill="none" stroke="midnightblue" d="M1964.73,-216.445C2016.72,-206.458 2098.42,-190.571 2169,-176 2170.46,-175.699 2171.93,-175.393 2173.42,-175.083"/>
<polygon fill="midnightblue" stroke="midnightblue" points="2174.29,-178.477 2183.35,-172.993 2172.85,-171.627 2174.29,-178.477"/>
</g>
<!-- Node14 -->
<g id="node14" class="node"><title>Node14</title>
<g id="a_node14"><a xlink:href="XBotSharedMemory_8h.html" target="_top" xlink:title="XBotCore&#45;interfaces\l/XBotSharedMemory.h">
<polygon fill="none" stroke="black" points="1525,-145.5 1525,-175.5 1641,-175.5 1641,-145.5 1525,-145.5"/>
<text text-anchor="start" x="1533" y="-163.5" font-family="Helvetica,sans-Serif" font-size="10.00">XBotCore&#45;interfaces</text>
<text text-anchor="middle" x="1583" y="-152.5" font-family="Helvetica,sans-Serif" font-size="10.00">/XBotSharedMemory.h</text>
</a>
</g>
</g>
<!-- Node5&#45;&gt;Node14 -->
<g id="edge17" class="edge"><title>Node5&#45;&gt;Node14</title>
<path fill="none" stroke="midnightblue" d="M1859.24,-216.695C1808.45,-207.174 1729.22,-192.106 1651.1,-176.201"/>
<polygon fill="midnightblue" stroke="midnightblue" points="1651.59,-172.727 1641.09,-174.156 1650.19,-179.586 1651.59,-172.727"/>
</g>
<!-- Node19 -->
<g id="node19" class="node"><title>Node19</title>
<g id="a_node19"><a xlink:href="XBotESC_8h.html" target="_top" xlink:title="XBotCore&#45;interfaces\l/XBotESC.h">
<polygon fill="none" stroke="black" points="2346.5,-145.5 2346.5,-175.5 2451.5,-175.5 2451.5,-145.5 2346.5,-145.5"/>
<text text-anchor="start" x="2354.5" y="-163.5" font-family="Helvetica,sans-Serif" font-size="10.00">XBotCore&#45;interfaces</text>
<text text-anchor="middle" x="2399" y="-152.5" font-family="Helvetica,sans-Serif" font-size="10.00">/XBotESC.h</text>
</a>
</g>
</g>
<!-- Node5&#45;&gt;Node19 -->
<g id="edge23" class="edge"><title>Node5&#45;&gt;Node19</title>
<path fill="none" stroke="midnightblue" d="M1964.65,-219.777C2038.81,-210.265 2178.28,-192.225 2297,-176 2309.66,-174.271 2323.19,-172.378 2336.12,-170.547"/>
<polygon fill="midnightblue" stroke="midnightblue" points="2336.93,-173.968 2346.34,-169.097 2335.95,-167.037 2336.93,-173.968"/>
</g>
<!-- Node6&#45;&gt;Node7 -->
<g id="edge6" class="edge"><title>Node6&#45;&gt;Node7</title>
<path fill="none" stroke="midnightblue" d="M1929.58,-145.396C1942.71,-134.86 1960.63,-120.477 1974.07,-109.689"/>
<polygon fill="midnightblue" stroke="midnightblue" points="1976.56,-112.183 1982.17,-103.195 1972.18,-106.723 1976.56,-112.183"/>
</g>
<!-- Node6&#45;&gt;Node8 -->
<g id="edge7" class="edge"><title>Node6&#45;&gt;Node8</title>
<path fill="none" stroke="midnightblue" d="M1955.83,-145.396C1993.79,-133.181 2047.82,-115.796 2081.88,-104.835"/>
<polygon fill="midnightblue" stroke="midnightblue" points="2083.33,-108.047 2091.77,-101.652 2081.18,-101.384 2083.33,-108.047"/>
</g>
<!-- Node6&#45;&gt;Node9 -->
<g id="edge8" class="edge"><title>Node6&#45;&gt;Node9</title>
<path fill="none" stroke="midnightblue" d="M1910.14,-145.232C1907.09,-127.307 1899.4,-96.6408 1881,-78 1850.45,-47.0419 1829.2,-60.8374 1790,-42 1786.03,-40.0904 1781.89,-37.9095 1777.91,-35.7064"/>
<polygon fill="midnightblue" stroke="midnightblue" points="1779.48,-32.5711 1769.06,-30.6429 1776,-38.6469 1779.48,-32.5711"/>
</g>
<!-- Node6&#45;&gt;Node10 -->
<g id="edge9" class="edge"><title>Node6&#45;&gt;Node10</title>
<path fill="none" stroke="midnightblue" d="M1898.98,-145.396C1889.53,-135.161 1876.73,-121.296 1866.88,-110.622"/>
<polygon fill="midnightblue" stroke="midnightblue" points="1869.38,-108.169 1860.03,-103.195 1864.24,-112.917 1869.38,-108.169"/>
</g>
<!-- Node11&#45;&gt;Node7 -->
<g id="edge11" class="edge"><title>Node11&#45;&gt;Node7</title>
<path fill="none" stroke="midnightblue" d="M2056.42,-145.396C2043.29,-134.86 2025.37,-120.477 2011.93,-109.689"/>
<polygon fill="midnightblue" stroke="midnightblue" points="2013.82,-106.723 2003.83,-103.195 2009.44,-112.183 2013.82,-106.723"/>
</g>
<!-- Node11&#45;&gt;Node8 -->
<g id="edge13" class="edge"><title>Node11&#45;&gt;Node8</title>
<path fill="none" stroke="midnightblue" d="M2082.68,-145.396C2088.73,-135.562 2096.84,-122.378 2103.3,-111.892"/>
<polygon fill="midnightblue" stroke="midnightblue" points="2106.39,-113.545 2108.65,-103.195 2100.43,-109.877 2106.39,-113.545"/>
</g>
<!-- Node11&#45;&gt;Node10 -->
<g id="edge12" class="edge"><title>Node11&#45;&gt;Node10</title>
<path fill="none" stroke="midnightblue" d="M2026.1,-145.476C1982.53,-132.718 1919.52,-114.271 1882.46,-103.42"/>
<polygon fill="midnightblue" stroke="midnightblue" points="1883.32,-100.023 1872.74,-100.571 1881.35,-106.74 1883.32,-100.023"/>
</g>
<!-- Node13&#45;&gt;Node8 -->
<g id="edge16" class="edge"><title>Node13&#45;&gt;Node8</title>
<path fill="none" stroke="midnightblue" d="M2209.53,-145.396C2188.6,-134.243 2159.57,-118.781 2139.03,-107.834"/>
<polygon fill="midnightblue" stroke="midnightblue" points="2140.44,-104.62 2129.97,-103.007 2137.15,-110.798 2140.44,-104.62"/>
</g>
<!-- Node15 -->
<g id="node15" class="node"><title>Node15</title>
<g id="a_node15"><a xlink:href="XBotSharedObject_8h.html" target="_top" xlink:title="XBotCore&#45;interfaces\l/XBotSharedObject.h">
<polygon fill="none" stroke="black" points="1617.5,-78.5 1617.5,-108.5 1726.5,-108.5 1726.5,-78.5 1617.5,-78.5"/>
<text text-anchor="start" x="1625.5" y="-96.5" font-family="Helvetica,sans-Serif" font-size="10.00">XBotCore&#45;interfaces</text>
<text text-anchor="middle" x="1672" y="-85.5" font-family="Helvetica,sans-Serif" font-size="10.00">/XBotSharedObject.h</text>
</a>
</g>
</g>
<!-- Node14&#45;&gt;Node15 -->
<g id="edge18" class="edge"><title>Node14&#45;&gt;Node15</title>
<path fill="none" stroke="midnightblue" d="M1602.31,-145.396C1614.67,-136.367 1630.9,-124.514 1644.59,-114.518"/>
<polygon fill="midnightblue" stroke="midnightblue" points="1646.71,-117.301 1652.73,-108.577 1642.59,-111.648 1646.71,-117.301"/>
</g>
<!-- Node15&#45;&gt;Node9 -->
<g id="edge21" class="edge"><title>Node15&#45;&gt;Node9</title>
<path fill="none" stroke="midnightblue" d="M1688.8,-78.2333C1702.73,-66.3941 1722.52,-49.5899 1736.82,-37.4378"/>
<polygon fill="midnightblue" stroke="midnightblue" points="1739.17,-40.0346 1744.53,-30.8932 1734.64,-34.6994 1739.17,-40.0346"/>
</g>
<!-- Node16 -->
<g id="node16" class="node"><title>Node16</title>
<polygon fill="none" stroke="#bfbfbf" points="1633,-11.5 1633,-30.5 1711,-30.5 1711,-11.5 1633,-11.5"/>
<text text-anchor="middle" x="1672" y="-18.5" font-family="Helvetica,sans-Serif" font-size="10.00">boost/any.hpp</text>
</g>
<!-- Node15&#45;&gt;Node16 -->
<g id="edge19" class="edge"><title>Node15&#45;&gt;Node16</title>
<path fill="none" stroke="midnightblue" d="M1672,-78.2333C1672,-67.5006 1672,-52.6875 1672,-40.959"/>
<polygon fill="midnightblue" stroke="midnightblue" points="1675.5,-40.8931 1672,-30.8932 1668.5,-40.8932 1675.5,-40.8931"/>
</g>
<!-- Node17 -->
<g id="node17" class="node"><title>Node17</title>
<polygon fill="none" stroke="#bfbfbf" points="1531.5,-11.5 1531.5,-30.5 1614.5,-30.5 1614.5,-11.5 1531.5,-11.5"/>
<text text-anchor="middle" x="1573" y="-18.5" font-family="Helvetica,sans-Serif" font-size="10.00">unordered_map</text>
</g>
<!-- Node15&#45;&gt;Node17 -->
<g id="edge20" class="edge"><title>Node15&#45;&gt;Node17</title>
<path fill="none" stroke="midnightblue" d="M1651.97,-78.2333C1634.93,-66.1043 1610.58,-48.7642 1593.44,-36.5539"/>
<polygon fill="midnightblue" stroke="midnightblue" points="1595.38,-33.6408 1585.2,-30.6911 1591.32,-39.3428 1595.38,-33.6408"/>
</g>
<!-- Node18 -->
<g id="node18" class="node"><title>Node18</title>
<polygon fill="none" stroke="#bfbfbf" points="1459,-11.5 1459,-30.5 1513,-30.5 1513,-11.5 1459,-11.5"/>
<text text-anchor="middle" x="1486" y="-18.5" font-family="Helvetica,sans-Serif" font-size="10.00">iostream</text>
</g>
<!-- Node15&#45;&gt;Node18 -->
<g id="edge22" class="edge"><title>Node15&#45;&gt;Node18</title>
<path fill="none" stroke="midnightblue" d="M1622.85,-78.4354C1593.14,-69.3281 1554.8,-56.4881 1522,-42 1517.69,-40.0961 1513.21,-37.847 1508.94,-35.5565"/>
<polygon fill="midnightblue" stroke="midnightblue" points="1510.5,-32.4166 1500.06,-30.5944 1507.08,-38.5275 1510.5,-32.4166"/>
</g>
<!-- Node20 -->
<g id="node20" class="node"><title>Node20</title>
<polygon fill="none" stroke="#bfbfbf" points="3138.5,-11.5 3138.5,-30.5 3187.5,-30.5 3187.5,-11.5 3138.5,-11.5"/>
<text text-anchor="middle" x="3163" y="-18.5" font-family="Helvetica,sans-Serif" font-size="10.00">stdint.h</text>
</g>
<!-- Node19&#45;&gt;Node20 -->
<g id="edge24" class="edge"><title>Node19&#45;&gt;Node20</title>
<path fill="none" stroke="midnightblue" d="M2451.69,-157.918C2574.38,-152.777 2887.19,-131.217 3130,-42 3134.24,-40.4404 3138.54,-38.3128 3142.58,-36.0252"/>
<polygon fill="midnightblue" stroke="midnightblue" points="3144.69,-38.8333 3151.34,-30.5888 3141,-32.8841 3144.69,-38.8333"/>
</g>
<!-- Node21&#45;&gt;Node18 -->
<g id="edge65" class="edge"><title>Node21&#45;&gt;Node18</title>
<path fill="none" stroke="midnightblue" d="M1329.41,-212.337C1298.92,-184.611 1240.08,-122.038 1274,-78 1295.17,-50.5159 1393.65,-33.7821 1448.63,-26.4217"/>
<polygon fill="midnightblue" stroke="midnightblue" points="1449.22,-29.8745 1458.68,-25.1151 1448.32,-22.9329 1449.22,-29.8745"/>
</g>
<!-- Node22 -->
<g id="node22" class="node"><title>Node22</title>
<g id="a_node22"><a xlink:href="XBotPipes_8h.html" target="_top" xlink:title="XBotCore&#45;interfaces\l/XBotPipes.h">
<polygon fill="none" stroke="black" points="1401.5,-145.5 1401.5,-175.5 1506.5,-175.5 1506.5,-145.5 1401.5,-145.5"/>
<text text-anchor="start" x="1409.5" y="-163.5" font-family="Helvetica,sans-Serif" font-size="10.00">XBotCore&#45;interfaces</text>
<text text-anchor="middle" x="1454" y="-152.5" font-family="Helvetica,sans-Serif" font-size="10.00">/XBotPipes.h</text>
</a>
</g>
</g>
<!-- Node21&#45;&gt;Node22 -->
<g id="edge30" class="edge"><title>Node21&#45;&gt;Node22</title>
<path fill="none" stroke="midnightblue" d="M1369.43,-212.396C1384.72,-203.197 1404.88,-191.066 1421.68,-180.955"/>
<polygon fill="midnightblue" stroke="midnightblue" points="1423.85,-183.732 1430.61,-175.577 1420.24,-177.734 1423.85,-183.732"/>
</g>
<!-- Node24 -->
<g id="node24" class="node"><title>Node24</title>
<polygon fill="none" stroke="#bfbfbf" points="1283,-84 1283,-103 1343,-103 1343,-84 1283,-84"/>
<text text-anchor="middle" x="1313" y="-91" font-family="Helvetica,sans-Serif" font-size="10.00">sys/stat.h</text>
</g>
<!-- Node21&#45;&gt;Node24 -->
<g id="edge63" class="edge"><title>Node21&#45;&gt;Node24</title>
<path fill="none" stroke="midnightblue" d="M1342.47,-212.374C1336.47,-188.397 1324.31,-139.748 1317.64,-113.056"/>
<polygon fill="midnightblue" stroke="midnightblue" points="1320.97,-111.95 1315.15,-103.097 1314.18,-113.648 1320.97,-111.95"/>
</g>
<!-- Node25 -->
<g id="node25" class="node"><title>Node25</title>
<polygon fill="none" stroke="#bfbfbf" points="1361,-84 1361,-103 1405,-103 1405,-84 1361,-84"/>
<text text-anchor="middle" x="1383" y="-91" font-family="Helvetica,sans-Serif" font-size="10.00">fcntl.h</text>
</g>
<!-- Node21&#45;&gt;Node25 -->
<g id="edge64" class="edge"><title>Node21&#45;&gt;Node25</title>
<path fill="none" stroke="midnightblue" d="M1349.96,-212.374C1356.68,-188.397 1370.32,-139.748 1377.8,-113.056"/>
<polygon fill="midnightblue" stroke="midnightblue" points="1381.26,-113.671 1380.59,-103.097 1374.52,-111.781 1381.26,-113.671"/>
</g>
<!-- Node40 -->
<g id="node40" class="node"><title>Node40</title>
<g id="a_node40"><a xlink:href="CommunicationInterfaceROS_8h.html" target="_top" xlink:title="XCM/CommunicationInterface\lROS.h">
<polygon fill="none" stroke="black" points="709.5,-145.5 709.5,-175.5 858.5,-175.5 858.5,-145.5 709.5,-145.5"/>
<text text-anchor="start" x="717.5" y="-163.5" font-family="Helvetica,sans-Serif" font-size="10.00">XCM/CommunicationInterface</text>
<text text-anchor="middle" x="784" y="-152.5" font-family="Helvetica,sans-Serif" font-size="10.00">ROS.h</text>
</a>
</g>
</g>
<!-- Node21&#45;&gt;Node40 -->
<g id="edge52" class="edge"><title>Node21&#45;&gt;Node40</title>
<path fill="none" stroke="midnightblue" d="M1277.37,-218.562C1174.58,-206.674 980.815,-184.263 869.145,-171.348"/>
<polygon fill="midnightblue" stroke="midnightblue" points="869.268,-167.839 858.932,-170.167 868.464,-174.792 869.268,-167.839"/>
</g>
<!-- Node22&#45;&gt;Node9 -->
<g id="edge32" class="edge"><title>Node22&#45;&gt;Node9</title>
<path fill="none" stroke="midnightblue" d="M1506.71,-146.919C1509.85,-146.249 1512.96,-145.604 1516,-145 1564.37,-135.379 1699.04,-142.758 1735,-109 1753.6,-91.5381 1756.55,-60.5617 1756.28,-40.6704"/>
<polygon fill="midnightblue" stroke="midnightblue" points="1759.78,-40.5166 1755.87,-30.6706 1752.79,-40.8073 1759.78,-40.5166"/>
</g>
<!-- Node22&#45;&gt;Node10 -->
<g id="edge31" class="edge"><title>Node22&#45;&gt;Node10</title>
<path fill="none" stroke="midnightblue" d="M1506.7,-146.841C1509.84,-146.191 1512.96,-145.571 1516,-145 1627.63,-124.047 1656.82,-126.775 1769,-109 1786.26,-106.266 1805.48,-102.927 1821.07,-100.142"/>
<polygon fill="midnightblue" stroke="midnightblue" points="1822,-103.532 1831.22,-98.3173 1820.76,-96.6422 1822,-103.532"/>
</g>
<!-- Node22&#45;&gt;Node18 -->
<g id="edge33" class="edge"><title>Node22&#45;&gt;Node18</title>
<path fill="none" stroke="midnightblue" d="M1464.66,-145.33C1471.28,-135.648 1479.23,-122.222 1483,-109 1489.53,-86.1206 1489.16,-58.4807 1487.91,-40.5872"/>
<polygon fill="midnightblue" stroke="midnightblue" points="1491.4,-40.2711 1487.05,-30.6094 1484.42,-40.8734 1491.4,-40.2711"/>
</g>
<!-- Node23 -->
<g id="node23" class="node"><title>Node23</title>
<polygon fill="none" stroke="#bfbfbf" points="1531,-84 1531,-103 1599,-103 1599,-84 1531,-84"/>
<text text-anchor="middle" x="1565" y="-91" font-family="Helvetica,sans-Serif" font-size="10.00">sys/types.h</text>
</g>
<!-- Node22&#45;&gt;Node23 -->
<g id="edge34" class="edge"><title>Node22&#45;&gt;Node23</title>
<path fill="none" stroke="midnightblue" d="M1478.09,-145.396C1496.96,-134.344 1523.06,-119.061 1541.72,-108.132"/>
<polygon fill="midnightblue" stroke="midnightblue" points="1543.61,-111.081 1550.47,-103.007 1540.07,-105.04 1543.61,-111.081"/>
</g>
<!-- Node22&#45;&gt;Node24 -->
<g id="edge35" class="edge"><title>Node22&#45;&gt;Node24</title>
<path fill="none" stroke="midnightblue" d="M1423.41,-145.396C1398.77,-134.041 1364.45,-118.22 1340.64,-107.244"/>
<polygon fill="midnightblue" stroke="midnightblue" points="1342,-104.015 1331.45,-103.007 1339.07,-110.372 1342,-104.015"/>
</g>
<!-- Node22&#45;&gt;Node25 -->
<g id="edge36" class="edge"><title>Node22&#45;&gt;Node25</title>
<path fill="none" stroke="midnightblue" d="M1438.59,-145.396C1427.19,-134.96 1411.67,-120.751 1399.93,-109.998"/>
<polygon fill="midnightblue" stroke="midnightblue" points="1402.24,-107.366 1392.5,-103.195 1397.51,-112.529 1402.24,-107.366"/>
</g>
<!-- Node26 -->
<g id="node26" class="node"><title>Node26</title>
<polygon fill="none" stroke="#bfbfbf" points="1423.5,-84 1423.5,-103 1474.5,-103 1474.5,-84 1423.5,-84"/>
<text text-anchor="middle" x="1449" y="-91" font-family="Helvetica,sans-Serif" font-size="10.00">unistd.h</text>
</g>
<!-- Node22&#45;&gt;Node26 -->
<g id="edge37" class="edge"><title>Node22&#45;&gt;Node26</title>
<path fill="none" stroke="midnightblue" d="M1452.92,-145.396C1452.19,-135.963 1451.23,-123.448 1450.44,-113.189"/>
<polygon fill="midnightblue" stroke="midnightblue" points="1453.93,-112.897 1449.67,-103.195 1446.95,-113.434 1453.93,-112.897"/>
</g>
<!-- Node22&#45;&gt;Node27 -->
<g id="edge38" class="edge"><title>Node22&#45;&gt;Node27</title>
<path fill="none" stroke="midnightblue" d="M1506.64,-146.517C1509.8,-145.948 1512.94,-145.435 1516,-145 1605.85,-132.248 2232.63,-105.029 2425.59,-96.8633"/>
<polygon fill="midnightblue" stroke="midnightblue" points="2425.95,-100.351 2435.8,-96.4321 2425.66,-93.3575 2425.95,-100.351"/>
</g>
<!-- Node27&#45;&gt;Node20 -->
<g id="edge39" class="edge"><title>Node27&#45;&gt;Node20</title>
<path fill="none" stroke="midnightblue" d="M2528.29,-90.1352C2667,-82.8764 3073.14,-60.2978 3130,-42 3134.5,-40.5526 3139.02,-38.3847 3143.22,-36.003"/>
<polygon fill="midnightblue" stroke="midnightblue" points="3145.13,-38.9319 3151.74,-30.6448 3141.41,-33.0066 3145.13,-38.9319"/>
</g>
<!-- Node28 -->
<g id="node28" class="node"><title>Node28</title>
<polygon fill="none" stroke="#bfbfbf" points="2551,-11.5 2551,-30.5 2597,-30.5 2597,-11.5 2551,-11.5"/>
<text text-anchor="middle" x="2574" y="-18.5" font-family="Helvetica,sans-Serif" font-size="10.00">stdio.h</text>
</g>
<!-- Node27&#45;&gt;Node28 -->
<g id="edge40" class="edge"><title>Node27&#45;&gt;Node28</title>
<path fill="none" stroke="midnightblue" d="M2493.28,-83.8553C2508.52,-72.1744 2535.93,-51.1748 2554.53,-36.9179"/>
<polygon fill="midnightblue" stroke="midnightblue" points="2556.82,-39.5761 2562.63,-30.7154 2552.56,-34.0198 2556.82,-39.5761"/>
</g>
<!-- Node29 -->
<g id="node29" class="node"><title>Node29</title>
<polygon fill="none" stroke="#bfbfbf" points="2615,-11.5 2615,-30.5 2665,-30.5 2665,-11.5 2615,-11.5"/>
<text text-anchor="middle" x="2640" y="-18.5" font-family="Helvetica,sans-Serif" font-size="10.00">fstream</text>
</g>
<!-- Node27&#45;&gt;Node29 -->
<g id="edge41" class="edge"><title>Node27&#45;&gt;Node29</title>
<path fill="none" stroke="midnightblue" d="M2505.76,-83.9977C2531.05,-74.6756 2572.04,-58.7947 2606,-42 2609.76,-40.1407 2613.67,-38.0262 2617.44,-35.8851"/>
<polygon fill="midnightblue" stroke="midnightblue" points="2619.51,-38.7251 2626.36,-30.638 2615.96,-32.6916 2619.51,-38.7251"/>
</g>
<!-- Node30 -->
<g id="node30" class="node"><title>Node30</title>
<polygon fill="none" stroke="#bfbfbf" points="2683,-11.5 2683,-30.5 2735,-30.5 2735,-11.5 2683,-11.5"/>
<text text-anchor="middle" x="2709" y="-18.5" font-family="Helvetica,sans-Serif" font-size="10.00">sstream</text>
</g>
<!-- Node27&#45;&gt;Node30 -->
<g id="edge42" class="edge"><title>Node27&#45;&gt;Node30</title>
<path fill="none" stroke="midnightblue" d="M2528.09,-83.9242C2567.68,-75.729 2625.83,-61.6989 2674,-42 2678.34,-40.2236 2682.81,-38.0054 2687.05,-35.6988"/>
<polygon fill="midnightblue" stroke="midnightblue" points="2688.88,-38.6801 2695.79,-30.6452 2685.38,-32.6197 2688.88,-38.6801"/>
</g>
<!-- Node31 -->
<g id="node31" class="node"><title>Node31</title>
<polygon fill="none" stroke="#bfbfbf" points="2753,-11.5 2753,-30.5 2877,-30.5 2877,-11.5 2753,-11.5"/>
<text text-anchor="middle" x="2815" y="-18.5" font-family="Helvetica,sans-Serif" font-size="10.00">boost/circular_buffer.hpp</text>
</g>
<!-- Node27&#45;&gt;Node31 -->
<g id="edge43" class="edge"><title>Node27&#45;&gt;Node31</title>
<path fill="none" stroke="midnightblue" d="M2528.16,-84.8147C2580.69,-75.7876 2668.95,-59.7708 2744,-42 2754.77,-39.451 2766.35,-36.3447 2776.98,-33.3476"/>
<polygon fill="midnightblue" stroke="midnightblue" points="2778.16,-36.6486 2786.81,-30.5293 2776.23,-29.9194 2778.16,-36.6486"/>
</g>
<!-- Node32 -->
<g id="node32" class="node"><title>Node32</title>
<polygon fill="none" stroke="#bfbfbf" points="2895,-6 2895,-36 2997,-36 2997,-6 2895,-6"/>
<text text-anchor="start" x="2903" y="-24" font-family="Helvetica,sans-Serif" font-size="10.00">boost/accumulators</text>
<text text-anchor="middle" x="2946" y="-13" font-family="Helvetica,sans-Serif" font-size="10.00">/accumulators.hpp</text>
</g>
<!-- Node27&#45;&gt;Node32 -->
<g id="edge44" class="edge"><title>Node27&#45;&gt;Node32</title>
<path fill="none" stroke="midnightblue" d="M2528.25,-89.6977C2603.86,-84.4544 2758.3,-70.9657 2886,-42 2889.86,-41.1233 2893.83,-40.0963 2897.8,-38.9787"/>
<polygon fill="midnightblue" stroke="midnightblue" points="2899.01,-42.2691 2907.59,-36.0483 2897,-35.5632 2899.01,-42.2691"/>
</g>
<!-- Node33 -->
<g id="node33" class="node"><title>Node33</title>
<polygon fill="none" stroke="#bfbfbf" points="3015.5,-6 3015.5,-36 3120.5,-36 3120.5,-6 3015.5,-6"/>
<text text-anchor="start" x="3023.5" y="-24" font-family="Helvetica,sans-Serif" font-size="10.00">boost/accumulators</text>
<text text-anchor="middle" x="3068" y="-13" font-family="Helvetica,sans-Serif" font-size="10.00">/statistics/count.hpp</text>
</g>
<!-- Node27&#45;&gt;Node33 -->
<g id="edge45" class="edge"><title>Node27&#45;&gt;Node33</title>
<path fill="none" stroke="midnightblue" d="M2528.06,-91.3937C2619.89,-88.4585 2831.93,-78.0226 3006,-42 3010.17,-41.1362 3014.46,-40.0933 3018.74,-38.9427"/>
<polygon fill="midnightblue" stroke="midnightblue" points="3020.01,-42.2212 3028.65,-36.0963 3018.07,-35.4933 3020.01,-42.2212"/>
</g>
<!-- Node34 -->
<g id="node34" class="node"><title>Node34</title>
<polygon fill="none" stroke="#bfbfbf" points="1799.5,-6 1799.5,-36 1904.5,-36 1904.5,-6 1799.5,-6"/>
<text text-anchor="start" x="1807.5" y="-24" font-family="Helvetica,sans-Serif" font-size="10.00">boost/accumulators</text>
<text text-anchor="middle" x="1852" y="-13" font-family="Helvetica,sans-Serif" font-size="10.00">/statistics/mean.hpp</text>
</g>
<!-- Node27&#45;&gt;Node34 -->
<g id="edge46" class="edge"><title>Node27&#45;&gt;Node34</title>
<path fill="none" stroke="midnightblue" d="M2435.75,-87.9426C2405.87,-85.0269 2366.14,-81.2043 2331,-78 2145.75,-61.1091 2096.35,-78.7892 1914,-42 1909.64,-41.1207 1905.16,-40.0398 1900.69,-38.8399"/>
<polygon fill="midnightblue" stroke="midnightblue" points="1901.58,-35.4529 1891,-36.0554 1899.65,-42.1807 1901.58,-35.4529"/>
</g>
<!-- Node35 -->
<g id="node35" class="node"><title>Node35</title>
<polygon fill="none" stroke="#bfbfbf" points="1923,-6 1923,-36 2025,-36 2025,-6 1923,-6"/>
<text text-anchor="start" x="1931" y="-24" font-family="Helvetica,sans-Serif" font-size="10.00">boost/accumulators</text>
<text text-anchor="middle" x="1974" y="-13" font-family="Helvetica,sans-Serif" font-size="10.00">/statistics/min.hpp</text>
</g>
<!-- Node27&#45;&gt;Node35 -->
<g id="edge47" class="edge"><title>Node27&#45;&gt;Node35</title>
<path fill="none" stroke="midnightblue" d="M2435.76,-87.843C2329.22,-77.0325 2072.6,-50.5101 2034,-42 2029.96,-41.1091 2025.81,-40.047 2021.67,-38.8835"/>
<polygon fill="midnightblue" stroke="midnightblue" points="2022.66,-35.5272 2012.07,-36.0173 2020.65,-42.2342 2022.66,-35.5272"/>
</g>
<!-- Node36 -->
<g id="node36" class="node"><title>Node36</title>
<polygon fill="none" stroke="#bfbfbf" points="2043,-6 2043,-36 2145,-36 2145,-6 2043,-6"/>
<text text-anchor="start" x="2051" y="-24" font-family="Helvetica,sans-Serif" font-size="10.00">boost/accumulators</text>
<text text-anchor="middle" x="2094" y="-13" font-family="Helvetica,sans-Serif" font-size="10.00">/statistics/max.hpp</text>
</g>
<!-- Node27&#45;&gt;Node36 -->
<g id="edge48" class="edge"><title>Node27&#45;&gt;Node36</title>
<path fill="none" stroke="midnightblue" d="M2435.89,-87.8885C2371.98,-80.9345 2253.12,-65.969 2154,-42 2150.37,-41.1225 2146.65,-40.1254 2142.92,-39.0558"/>
<polygon fill="midnightblue" stroke="midnightblue" points="2143.68,-35.6304 2133.1,-36.0878 2141.66,-42.3311 2143.68,-35.6304"/>
</g>
<!-- Node37 -->
<g id="node37" class="node"><title>Node37</title>
<polygon fill="none" stroke="#bfbfbf" points="2163,-6 2163,-36 2281,-36 2281,-6 2163,-6"/>
<text text-anchor="start" x="2171" y="-24" font-family="Helvetica,sans-Serif" font-size="10.00">boost/accumulators</text>
<text text-anchor="middle" x="2222" y="-13" font-family="Helvetica,sans-Serif" font-size="10.00">/statistics/variance.hpp</text>
</g>
<!-- Node27&#45;&gt;Node37 -->
<g id="edge49" class="edge"><title>Node27&#45;&gt;Node37</title>
<path fill="none" stroke="midnightblue" d="M2448.28,-83.9443C2409.87,-74.1277 2345.28,-57.3969 2290,-42 2286.41,-41.0003 2282.72,-39.9572 2279,-38.895"/>
<polygon fill="midnightblue" stroke="midnightblue" points="2279.72,-35.4596 2269.14,-36.0555 2277.78,-42.1863 2279.72,-35.4596"/>
</g>
<!-- Node38 -->
<g id="node38" class="node"><title>Node38</title>
<polygon fill="none" stroke="#bfbfbf" points="2299,-6 2299,-36 2413,-36 2413,-6 2299,-6"/>
<text text-anchor="start" x="2307" y="-24" font-family="Helvetica,sans-Serif" font-size="10.00">boost/accumulators</text>
<text text-anchor="middle" x="2356" y="-13" font-family="Helvetica,sans-Serif" font-size="10.00">/statistics/error_of.hpp</text>
</g>
<!-- Node27&#45;&gt;Node38 -->
<g id="edge50" class="edge"><title>Node27&#45;&gt;Node38</title>
<path fill="none" stroke="midnightblue" d="M2466.55,-83.8553C2447.59,-73.2453 2414.88,-54.9469 2389.95,-40.9967"/>
<polygon fill="midnightblue" stroke="midnightblue" points="2391.59,-37.9047 2381.16,-36.0762 2388.18,-44.0135 2391.59,-37.9047"/>
</g>
<!-- Node39 -->
<g id="node39" class="node"><title>Node39</title>
<polygon fill="none" stroke="#bfbfbf" points="2431,-0.5 2431,-41.5 2533,-41.5 2533,-0.5 2431,-0.5"/>
<text text-anchor="start" x="2439" y="-29.5" font-family="Helvetica,sans-Serif" font-size="10.00">boost/accumulators</text>
<text text-anchor="start" x="2439" y="-18.5" font-family="Helvetica,sans-Serif" font-size="10.00">/statistics/error_of</text>
<text text-anchor="middle" x="2482" y="-7.5" font-family="Helvetica,sans-Serif" font-size="10.00">_mean.hpp</text>
</g>
<!-- Node27&#45;&gt;Node39 -->
<g id="edge51" class="edge"><title>Node27&#45;&gt;Node39</title>
<path fill="none" stroke="midnightblue" d="M2482,-83.8553C2482,-75.8604 2482,-63.5002 2482,-51.9243"/>
<polygon fill="midnightblue" stroke="midnightblue" points="2485.5,-51.6616 2482,-41.6616 2478.5,-51.6616 2485.5,-51.6616"/>
</g>
<!-- Node41 -->
<g id="node41" class="node"><title>Node41</title>
<g id="a_node41"><a xlink:href="XBotCommunicationInterface_8h.html" target="_top" xlink:title="XCM/XBotCommunicationInterface.h">
<polygon fill="none" stroke="black" points="45.5,-84 45.5,-103 224.5,-103 224.5,-84 45.5,-84"/>
<text text-anchor="middle" x="135" y="-91" font-family="Helvetica,sans-Serif" font-size="10.00">XCM/XBotCommunicationInterface.h</text>
</a>
</g>
</g>
<!-- Node40&#45;&gt;Node41 -->
<g id="edge53" class="edge"><title>Node40&#45;&gt;Node41</title>
<path fill="none" stroke="midnightblue" d="M709.139,-153.912C603.182,-145.71 403.483,-129.178 234,-109 222.794,-107.666 210.899,-106.075 199.387,-104.444"/>
<polygon fill="midnightblue" stroke="midnightblue" points="199.793,-100.966 189.396,-103.005 198.795,-107.895 199.793,-100.966"/>
</g>
<!-- Node42 -->
<g id="node42" class="node"><title>Node42</title>
<polygon fill="none" stroke="#bfbfbf" points="1053.5,-84 1053.5,-103 1108.5,-103 1108.5,-84 1053.5,-84"/>
<text text-anchor="middle" x="1081" y="-91" font-family="Helvetica,sans-Serif" font-size="10.00">ros/ros.h</text>
</g>
<!-- Node40&#45;&gt;Node42 -->
<g id="edge55" class="edge"><title>Node40&#45;&gt;Node42</title>
<path fill="none" stroke="midnightblue" d="M858.539,-148.714C910.987,-140.232 982.511,-126.859 1044,-109 1046.58,-108.25 1049.24,-107.393 1051.88,-106.477"/>
<polygon fill="midnightblue" stroke="midnightblue" points="1053.1,-109.758 1061.26,-103.001 1050.67,-103.194 1053.1,-109.758"/>
</g>
<!-- Node43 -->
<g id="node43" class="node"><title>Node43</title>
<polygon fill="none" stroke="#bfbfbf" points="1127,-84 1127,-103 1227,-103 1227,-84 1127,-84"/>
<text text-anchor="middle" x="1177" y="-91" font-family="Helvetica,sans-Serif" font-size="10.00">std_srvs/SetBool.h</text>
</g>
<!-- Node40&#45;&gt;Node43 -->
<g id="edge56" class="edge"><title>Node40&#45;&gt;Node43</title>
<path fill="none" stroke="midnightblue" d="M858.714,-150.054C926.413,-141.048 1028.78,-126.315 1117,-109 1122.46,-107.929 1128.16,-106.697 1133.8,-105.413"/>
<polygon fill="midnightblue" stroke="midnightblue" points="1134.85,-108.76 1143.79,-103.069 1133.25,-101.945 1134.85,-108.76"/>
</g>
<!-- Node44 -->
<g id="node44" class="node"><title>Node44</title>
<polygon fill="none" stroke="#bfbfbf" points="243,-84 243,-103 323,-103 323,-84 243,-84"/>
<text text-anchor="middle" x="283" y="-91" font-family="Helvetica,sans-Serif" font-size="10.00">boost/bind.hpp</text>
</g>
<!-- Node40&#45;&gt;Node44 -->
<g id="edge57" class="edge"><title>Node40&#45;&gt;Node44</title>
<path fill="none" stroke="midnightblue" d="M709.389,-155.211C619.262,-149.102 463.377,-135.561 332,-109 327.576,-108.106 322.975,-106.994 318.443,-105.787"/>
<polygon fill="midnightblue" stroke="midnightblue" points="319.299,-102.392 308.724,-103.039 317.394,-109.128 319.299,-102.392"/>
</g>
<!-- Node45 -->
<g id="node45" class="node"><title>Node45</title>
<polygon fill="none" stroke="#bfbfbf" points="341,-78.5 341,-108.5 481,-108.5 481,-78.5 341,-78.5"/>
<text text-anchor="start" x="349" y="-96.5" font-family="Helvetica,sans-Serif" font-size="10.00">RobotInterfaceROS/Generic</text>
<text text-anchor="middle" x="411" y="-85.5" font-family="Helvetica,sans-Serif" font-size="10.00">ControlMessage.h</text>
</g>
<!-- Node40&#45;&gt;Node45 -->
<g id="edge58" class="edge"><title>Node40&#45;&gt;Node45</title>
<path fill="none" stroke="midnightblue" d="M709.344,-146.918C652.333,-137.254 571.529,-123.438 491.47,-109.251"/>
<polygon fill="midnightblue" stroke="midnightblue" points="491.662,-105.73 481.204,-107.428 490.438,-112.622 491.662,-105.73"/>
</g>
<!-- Node46 -->
<g id="node46" class="node"><title>Node46</title>
<polygon fill="none" stroke="#bfbfbf" points="499,-78.5 499,-108.5 639,-108.5 639,-78.5 499,-78.5"/>
<text text-anchor="start" x="507" y="-96.5" font-family="Helvetica,sans-Serif" font-size="10.00">RobotInterfaceROS/Generic</text>
<text text-anchor="middle" x="569" y="-85.5" font-family="Helvetica,sans-Serif" font-size="10.00">JointStateMessage.h</text>
</g>
<!-- Node40&#45;&gt;Node46 -->
<g id="edge59" class="edge"><title>Node40&#45;&gt;Node46</title>
<path fill="none" stroke="midnightblue" d="M737.613,-145.476C704.665,-135.515 660.247,-122.086 625.272,-111.512"/>
<polygon fill="midnightblue" stroke="midnightblue" points="626.26,-108.155 615.675,-108.611 624.234,-114.855 626.26,-108.155"/>
</g>
<!-- Node47 -->
<g id="node47" class="node"><title>Node47</title>
<polygon fill="none" stroke="#bfbfbf" points="657.5,-78.5 657.5,-108.5 778.5,-108.5 778.5,-78.5 657.5,-78.5"/>
<text text-anchor="start" x="665.5" y="-96.5" font-family="Helvetica,sans-Serif" font-size="10.00">robot_state_publisher</text>
<text text-anchor="middle" x="718" y="-85.5" font-family="Helvetica,sans-Serif" font-size="10.00">/robot_state_publisher.h</text>
</g>
<!-- Node40&#45;&gt;Node47 -->
<g id="edge60" class="edge"><title>Node40&#45;&gt;Node47</title>
<path fill="none" stroke="midnightblue" d="M769.679,-145.396C760.857,-136.708 749.38,-125.405 739.483,-115.658"/>
<polygon fill="midnightblue" stroke="midnightblue" points="741.874,-113.1 732.293,-108.577 736.962,-118.087 741.874,-113.1"/>
</g>
<!-- Node48 -->
<g id="node48" class="node"><title>Node48</title>
<polygon fill="none" stroke="#bfbfbf" points="797,-84 797,-103 903,-103 903,-84 797,-84"/>
<text text-anchor="middle" x="850" y="-91" font-family="Helvetica,sans-Serif" font-size="10.00">XCM/cmd_service.h</text>
</g>
<!-- Node40&#45;&gt;Node48 -->
<g id="edge61" class="edge"><title>Node40&#45;&gt;Node48</title>
<path fill="none" stroke="midnightblue" d="M798.321,-145.396C808.816,-135.06 823.068,-121.024 833.948,-110.309"/>
<polygon fill="midnightblue" stroke="midnightblue" points="836.503,-112.705 841.172,-103.195 831.591,-107.718 836.503,-112.705"/>
</g>
<!-- Node49 -->
<g id="node49" class="node"><title>Node49</title>
<polygon fill="none" stroke="#bfbfbf" points="921,-84 921,-103 1035,-103 1035,-84 921,-84"/>
<text text-anchor="middle" x="978" y="-91" font-family="Helvetica,sans-Serif" font-size="10.00">XCM/status_service.h</text>
</g>
<!-- Node40&#45;&gt;Node49 -->
<g id="edge62" class="edge"><title>Node40&#45;&gt;Node49</title>
<path fill="none" stroke="midnightblue" d="M826.095,-145.396C861.038,-133.688 910.156,-117.231 942.98,-106.234"/>
<polygon fill="midnightblue" stroke="midnightblue" points="944.24,-109.503 952.61,-103.007 942.016,-102.865 944.24,-109.503"/>
</g>
<!-- Node41&#45;&gt;Node4 -->
<g id="edge54" class="edge"><title>Node41&#45;&gt;Node4</title>
<path fill="none" stroke="midnightblue" d="M127.765,-83.8553C118.388,-72.6501 101.834,-52.8697 89.9693,-38.6922"/>
<polygon fill="midnightblue" stroke="midnightblue" points="92.3957,-36.138 83.2937,-30.7154 87.0276,-40.6305 92.3957,-36.138"/>
</g>
</g>
</svg>
