<?xml version="1.0" encoding="UTF-8" standalone="no"?>
<!DOCTYPE svg PUBLIC "-//W3C//DTD SVG 1.1//EN"
 "http://www.w3.org/Graphics/SVG/1.1/DTD/svg11.dtd">
<!-- Generated by graphviz version 2.38.0 (20140413.2041)
 -->
<!-- Title: /home/lucamuratore/advr&#45;superbuild/external/XCM/src/XBotESCUtils.cpp Pages: 1 -->
<svg width="1661pt" height="240pt"
 viewBox="0.00 0.00 1660.50 240.00" xmlns="http://www.w3.org/2000/svg" xmlns:xlink="http://www.w3.org/1999/xlink">
<g id="graph0" class="graph" transform="scale(1 1) rotate(0) translate(4 236)">
<title>/home/lucamuratore/advr&#45;superbuild/external/XCM/src/XBotESCUtils.cpp</title>
<!-- Node1 -->
<g id="node1" class="node"><title>Node1</title>
<polygon fill="#bfbfbf" stroke="black" points="391,-190.5 391,-231.5 534,-231.5 534,-190.5 391,-190.5"/>
<text text-anchor="start" x="399" y="-219.5" font-family="Helvetica,sans-Serif" font-size="10.00">/home/lucamuratore</text>
<text text-anchor="start" x="399" y="-208.5" font-family="Helvetica,sans-Serif" font-size="10.00">/advr&#45;superbuild/external</text>
<text text-anchor="middle" x="462.5" y="-197.5" font-family="Helvetica,sans-Serif" font-size="10.00">/XCM/src/XBotESCUtils.cpp</text>
</g>
<!-- Node2 -->
<g id="node2" class="node"><title>Node2</title>
<g id="a_node2"><a xlink:href="XBotESCUtils_8h.html" target="_top" xlink:title="XCM/XBotESCUtils.h">
<polygon fill="none" stroke="black" points="143,-134.5 143,-153.5 256,-153.5 256,-134.5 143,-134.5"/>
<text text-anchor="middle" x="199.5" y="-141.5" font-family="Helvetica,sans-Serif" font-size="10.00">XCM/XBotESCUtils.h</text>
</a>
</g>
</g>
<!-- Node1&#45;&gt;Node2 -->
<g id="edge1" class="edge"><title>Node1&#45;&gt;Node2</title>
<path fill="none" stroke="midnightblue" d="M390.981,-192.324C344.006,-180.714 284.034,-165.892 243.835,-155.957"/>
<polygon fill="midnightblue" stroke="midnightblue" points="244.608,-152.543 234.061,-153.542 242.929,-159.339 244.608,-152.543"/>
</g>
<!-- Node6 -->
<g id="node6" class="node"><title>Node6</title>
<g id="a_node6"><a xlink:href="XBotUtils_8h.html" target="_top" xlink:title="XCM/XBotUtils.h">
<polygon fill="none" stroke="black" points="741.5,-134.5 741.5,-153.5 833.5,-153.5 833.5,-134.5 741.5,-134.5"/>
<text text-anchor="middle" x="787.5" y="-141.5" font-family="Helvetica,sans-Serif" font-size="10.00">XCM/XBotUtils.h</text>
</a>
</g>
</g>
<!-- Node1&#45;&gt;Node6 -->
<g id="edge5" class="edge"><title>Node1&#45;&gt;Node6</title>
<path fill="none" stroke="midnightblue" d="M534.225,-195.655C594.812,-183.538 680.186,-166.463 734.687,-155.563"/>
<polygon fill="midnightblue" stroke="midnightblue" points="735.705,-158.928 744.825,-153.535 734.332,-152.064 735.705,-158.928"/>
</g>
<!-- Node3 -->
<g id="node3" class="node"><title>Node3</title>
<g id="a_node3"><a xlink:href="XBotESC_8h.html" target="_top" xlink:title="XBotCore&#45;interfaces\l/XBotESC.h">
<polygon fill="none" stroke="black" points="0,-62 0,-92 105,-92 105,-62 0,-62"/>
<text text-anchor="start" x="8" y="-80" font-family="Helvetica,sans-Serif" font-size="10.00">XBotCore&#45;interfaces</text>
<text text-anchor="middle" x="52.5" y="-69" font-family="Helvetica,sans-Serif" font-size="10.00">/XBotESC.h</text>
</a>
</g>
</g>
<!-- Node2&#45;&gt;Node3 -->
<g id="edge2" class="edge"><title>Node2&#45;&gt;Node3</title>
<path fill="none" stroke="midnightblue" d="M179.98,-134.369C158.017,-124.657 121.724,-108.609 93.4673,-96.1148"/>
<polygon fill="midnightblue" stroke="midnightblue" points="94.7863,-92.8712 84.225,-92.0281 91.9554,-99.2732 94.7863,-92.8712"/>
</g>
<!-- Node5 -->
<g id="node5" class="node"><title>Node5</title>
<polygon fill="none" stroke="#bfbfbf" points="123.5,-67.5 123.5,-86.5 275.5,-86.5 275.5,-67.5 123.5,-67.5"/>
<text text-anchor="middle" x="199.5" y="-74.5" font-family="Helvetica,sans-Serif" font-size="10.00">XBotInterface/RobotInterface.h</text>
</g>
<!-- Node2&#45;&gt;Node5 -->
<g id="edge4" class="edge"><title>Node2&#45;&gt;Node5</title>
<path fill="none" stroke="midnightblue" d="M199.5,-134.234C199.5,-124.683 199.5,-109.118 199.5,-96.7829"/>
<polygon fill="midnightblue" stroke="midnightblue" points="203,-96.6273 199.5,-86.6273 196,-96.6273 203,-96.6273"/>
</g>
<!-- Node4 -->
<g id="node4" class="node"><title>Node4</title>
<polygon fill="none" stroke="#bfbfbf" points="153,-0.5 153,-19.5 202,-19.5 202,-0.5 153,-0.5"/>
<text text-anchor="middle" x="177.5" y="-7.5" font-family="Helvetica,sans-Serif" font-size="10.00">stdint.h</text>
</g>
<!-- Node3&#45;&gt;Node4 -->
<g id="edge3" class="edge"><title>Node3&#45;&gt;Node4</title>
<path fill="none" stroke="midnightblue" d="M79.6231,-61.896C101.168,-50.6928 131.075,-35.1412 152.144,-24.1853"/>
<polygon fill="midnightblue" stroke="midnightblue" points="153.883,-27.2258 161.14,-19.507 150.653,-21.0153 153.883,-27.2258"/>
</g>
<!-- Node6&#45;&gt;Node4 -->
<g id="edge6" class="edge"><title>Node6&#45;&gt;Node4</title>
<path fill="none" stroke="midnightblue" d="M741.269,-142.718C638.623,-141.424 395.052,-134.482 322.5,-98 300.01,-86.6913 305.035,-70.5593 284.5,-56 262.403,-40.3333 234.012,-28.7127 212.028,-21.2083"/>
<polygon fill="midnightblue" stroke="midnightblue" points="213.017,-17.8491 202.424,-18.0502 210.831,-24.4989 213.017,-17.8491"/>
</g>
<!-- Node7 -->
<g id="node7" class="node"><title>Node7</title>
<polygon fill="none" stroke="#bfbfbf" points="331.5,-67.5 331.5,-86.5 377.5,-86.5 377.5,-67.5 331.5,-67.5"/>
<text text-anchor="middle" x="354.5" y="-74.5" font-family="Helvetica,sans-Serif" font-size="10.00">stdio.h</text>
</g>
<!-- Node6&#45;&gt;Node7 -->
<g id="edge7" class="edge"><title>Node6&#45;&gt;Node7</title>
<path fill="none" stroke="midnightblue" d="M741.383,-140.401C650.416,-134.854 451.085,-120.496 386.5,-98 382.254,-96.5211 377.985,-94.398 374.011,-92.0822"/>
<polygon fill="midnightblue" stroke="midnightblue" points="375.721,-89.0204 365.42,-86.5416 371.927,-94.903 375.721,-89.0204"/>
</g>
<!-- Node8 -->
<g id="node8" class="node"><title>Node8</title>
<polygon fill="none" stroke="#bfbfbf" points="395.5,-67.5 395.5,-86.5 445.5,-86.5 445.5,-67.5 395.5,-67.5"/>
<text text-anchor="middle" x="420.5" y="-74.5" font-family="Helvetica,sans-Serif" font-size="10.00">fstream</text>
</g>
<!-- Node6&#45;&gt;Node8 -->
<g id="edge8" class="edge"><title>Node6&#45;&gt;Node8</title>
<path fill="none" stroke="midnightblue" d="M741.48,-142.484C675.983,-140.489 552.912,-132.041 454.5,-98 450.01,-96.4469 445.457,-94.2668 441.204,-91.9135"/>
<polygon fill="midnightblue" stroke="midnightblue" points="442.885,-88.8397 432.516,-86.6617 439.263,-94.8302 442.885,-88.8397"/>
</g>
<!-- Node9 -->
<g id="node9" class="node"><title>Node9</title>
<polygon fill="none" stroke="#bfbfbf" points="463.5,-67.5 463.5,-86.5 515.5,-86.5 515.5,-67.5 463.5,-67.5"/>
<text text-anchor="middle" x="489.5" y="-74.5" font-family="Helvetica,sans-Serif" font-size="10.00">sstream</text>
</g>
<!-- Node6&#45;&gt;Node9 -->
<g id="edge9" class="edge"><title>Node6&#45;&gt;Node9</title>
<path fill="none" stroke="midnightblue" d="M741.124,-139.975C687.59,-135.373 597.538,-124.19 524.5,-98 519.93,-96.3612 515.266,-94.1418 510.895,-91.7769"/>
<polygon fill="midnightblue" stroke="midnightblue" points="512.343,-88.5688 501.945,-86.5362 508.806,-94.6094 512.343,-88.5688"/>
</g>
<!-- Node10 -->
<g id="node10" class="node"><title>Node10</title>
<polygon fill="none" stroke="#bfbfbf" points="533.5,-67.5 533.5,-86.5 657.5,-86.5 657.5,-67.5 533.5,-67.5"/>
<text text-anchor="middle" x="595.5" y="-74.5" font-family="Helvetica,sans-Serif" font-size="10.00">boost/circular_buffer.hpp</text>
</g>
<!-- Node6&#45;&gt;Node10 -->
<g id="edge10" class="edge"><title>Node6&#45;&gt;Node10</title>
<path fill="none" stroke="midnightblue" d="M762.004,-134.369C728.2,-122.924 668.403,-102.681 630.421,-89.8223"/>
<polygon fill="midnightblue" stroke="midnightblue" points="631.39,-86.4552 620.796,-86.5637 629.145,-93.0856 631.39,-86.4552"/>
</g>
<!-- Node11 -->
<g id="node11" class="node"><title>Node11</title>
<polygon fill="none" stroke="#bfbfbf" points="675.5,-62 675.5,-92 777.5,-92 777.5,-62 675.5,-62"/>
<text text-anchor="start" x="683.5" y="-80" font-family="Helvetica,sans-Serif" font-size="10.00">boost/accumulators</text>
<text text-anchor="middle" x="726.5" y="-69" font-family="Helvetica,sans-Serif" font-size="10.00">/accumulators.hpp</text>
</g>
<!-- Node6&#45;&gt;Node11 -->
<g id="edge11" class="edge"><title>Node6&#45;&gt;Node11</title>
<path fill="none" stroke="midnightblue" d="M779.273,-134.234C770.95,-125.365 757.761,-111.311 746.651,-99.4722"/>
<polygon fill="midnightblue" stroke="midnightblue" points="749.117,-96.9858 739.722,-92.089 744.013,-101.776 749.117,-96.9858"/>
</g>
<!-- Node12 -->
<g id="node12" class="node"><title>Node12</title>
<polygon fill="none" stroke="#bfbfbf" points="796,-62 796,-92 901,-92 901,-62 796,-62"/>
<text text-anchor="start" x="804" y="-80" font-family="Helvetica,sans-Serif" font-size="10.00">boost/accumulators</text>
<text text-anchor="middle" x="848.5" y="-69" font-family="Helvetica,sans-Serif" font-size="10.00">/statistics/count.hpp</text>
</g>
<!-- Node6&#45;&gt;Node12 -->
<g id="edge12" class="edge"><title>Node6&#45;&gt;Node12</title>
<path fill="none" stroke="midnightblue" d="M795.727,-134.234C804.05,-125.365 817.239,-111.311 828.349,-99.4722"/>
<polygon fill="midnightblue" stroke="midnightblue" points="830.987,-101.776 835.278,-92.089 825.883,-96.9858 830.987,-101.776"/>
</g>
<!-- Node13 -->
<g id="node13" class="node"><title>Node13</title>
<polygon fill="none" stroke="#bfbfbf" points="919,-62 919,-92 1024,-92 1024,-62 919,-62"/>
<text text-anchor="start" x="927" y="-80" font-family="Helvetica,sans-Serif" font-size="10.00">boost/accumulators</text>
<text text-anchor="middle" x="971.5" y="-69" font-family="Helvetica,sans-Serif" font-size="10.00">/statistics/mean.hpp</text>
</g>
<!-- Node6&#45;&gt;Node13 -->
<g id="edge13" class="edge"><title>Node6&#45;&gt;Node13</title>
<path fill="none" stroke="midnightblue" d="M811.934,-134.369C839.902,-124.488 886.438,-108.049 922.057,-95.4662"/>
<polygon fill="midnightblue" stroke="midnightblue" points="923.527,-98.6592 931.79,-92.0281 921.195,-92.0589 923.527,-98.6592"/>
</g>
<!-- Node14 -->
<g id="node14" class="node"><title>Node14</title>
<polygon fill="none" stroke="#bfbfbf" points="1042.5,-62 1042.5,-92 1144.5,-92 1144.5,-62 1042.5,-62"/>
<text text-anchor="start" x="1050.5" y="-80" font-family="Helvetica,sans-Serif" font-size="10.00">boost/accumulators</text>
<text text-anchor="middle" x="1093.5" y="-69" font-family="Helvetica,sans-Serif" font-size="10.00">/statistics/min.hpp</text>
</g>
<!-- Node6&#45;&gt;Node14 -->
<g id="edge14" class="edge"><title>Node6&#45;&gt;Node14</title>
<path fill="none" stroke="midnightblue" d="M833.712,-136.535C883.469,-129.114 964.744,-115.654 1033.5,-98 1037.06,-97.086 1040.71,-96.0692 1044.38,-94.9921"/>
<polygon fill="midnightblue" stroke="midnightblue" points="1045.5,-98.3077 1054.04,-92.029 1043.45,-91.6154 1045.5,-98.3077"/>
</g>
<!-- Node15 -->
<g id="node15" class="node"><title>Node15</title>
<polygon fill="none" stroke="#bfbfbf" points="1162.5,-62 1162.5,-92 1264.5,-92 1264.5,-62 1162.5,-62"/>
<text text-anchor="start" x="1170.5" y="-80" font-family="Helvetica,sans-Serif" font-size="10.00">boost/accumulators</text>
<text text-anchor="middle" x="1213.5" y="-69" font-family="Helvetica,sans-Serif" font-size="10.00">/statistics/max.hpp</text>
</g>
<!-- Node6&#45;&gt;Node15 -->
<g id="edge15" class="edge"><title>Node6&#45;&gt;Node15</title>
<path fill="none" stroke="midnightblue" d="M833.651,-140.286C903.557,-135.513 1040.16,-123.589 1153.5,-98 1157.37,-97.1272 1161.33,-96.103 1165.3,-94.9873"/>
<polygon fill="midnightblue" stroke="midnightblue" points="1166.51,-98.2782 1175.09,-92.0601 1164.51,-91.5716 1166.51,-98.2782"/>
</g>
<!-- Node16 -->
<g id="node16" class="node"><title>Node16</title>
<polygon fill="none" stroke="#bfbfbf" points="1282.5,-62 1282.5,-92 1400.5,-92 1400.5,-62 1282.5,-62"/>
<text text-anchor="start" x="1290.5" y="-80" font-family="Helvetica,sans-Serif" font-size="10.00">boost/accumulators</text>
<text text-anchor="middle" x="1341.5" y="-69" font-family="Helvetica,sans-Serif" font-size="10.00">/statistics/variance.hpp</text>
</g>
<!-- Node6&#45;&gt;Node16 -->
<g id="edge16" class="edge"><title>Node6&#45;&gt;Node16</title>
<path fill="none" stroke="midnightblue" d="M833.816,-141.693C920.734,-138.585 1113.92,-128.557 1273.5,-98 1278.43,-97.0551 1283.52,-95.903 1288.6,-94.6336"/>
<polygon fill="midnightblue" stroke="midnightblue" points="1289.5,-98.0136 1298.28,-92.0719 1287.71,-91.2465 1289.5,-98.0136"/>
</g>
<!-- Node17 -->
<g id="node17" class="node"><title>Node17</title>
<polygon fill="none" stroke="#bfbfbf" points="1418.5,-62 1418.5,-92 1532.5,-92 1532.5,-62 1418.5,-62"/>
<text text-anchor="start" x="1426.5" y="-80" font-family="Helvetica,sans-Serif" font-size="10.00">boost/accumulators</text>
<text text-anchor="middle" x="1475.5" y="-69" font-family="Helvetica,sans-Serif" font-size="10.00">/statistics/error_of.hpp</text>
</g>
<!-- Node6&#45;&gt;Node17 -->
<g id="edge17" class="edge"><title>Node6&#45;&gt;Node17</title>
<path fill="none" stroke="midnightblue" d="M833.594,-143.144C937.362,-142.714 1196.85,-137.405 1409.5,-98 1414.45,-97.0827 1419.55,-95.9273 1424.63,-94.6366"/>
<polygon fill="midnightblue" stroke="midnightblue" points="1425.57,-98.0089 1434.3,-92.0149 1423.74,-91.2526 1425.57,-98.0089"/>
</g>
<!-- Node18 -->
<g id="node18" class="node"><title>Node18</title>
<polygon fill="none" stroke="#bfbfbf" points="1550.5,-56.5 1550.5,-97.5 1652.5,-97.5 1652.5,-56.5 1550.5,-56.5"/>
<text text-anchor="start" x="1558.5" y="-85.5" font-family="Helvetica,sans-Serif" font-size="10.00">boost/accumulators</text>
<text text-anchor="start" x="1558.5" y="-74.5" font-family="Helvetica,sans-Serif" font-size="10.00">/statistics/error_of</text>
<text text-anchor="middle" x="1601.5" y="-63.5" font-family="Helvetica,sans-Serif" font-size="10.00">_mean.hpp</text>
</g>
<!-- Node6&#45;&gt;Node18 -->
<g id="edge18" class="edge"><title>Node6&#45;&gt;Node18</title>
<path fill="none" stroke="midnightblue" d="M833.563,-141.831C972.291,-138.067 1385.56,-125.012 1540.11,-97.9204"/>
<polygon fill="midnightblue" stroke="midnightblue" points="1541.15,-101.288 1550.35,-96.0307 1539.88,-94.4042 1541.15,-101.288"/>
</g>
</g>
</svg>
