<?xml version="1.0" encoding="UTF-8" standalone="no"?>
<!DOCTYPE svg PUBLIC "-//W3C//DTD SVG 1.1//EN"
 "http://www.w3.org/Graphics/SVG/1.1/DTD/svg11.dtd">
<!-- Generated by graphviz version 2.38.0 (20140413.2041)
 -->
<!-- Title: /home/lucamuratore/advr&#45;superbuild/external/XCM/src/XBotYARP/XBotFT/XBotFT.cpp Pages: 1 -->
<svg width="2574pt" height="251pt"
 viewBox="0.00 0.00 2574.00 251.00" xmlns="http://www.w3.org/2000/svg" xmlns:xlink="http://www.w3.org/1999/xlink">
<g id="graph0" class="graph" transform="scale(1 1) rotate(0) translate(4 247)">
<title>/home/lucamuratore/advr&#45;superbuild/external/XCM/src/XBotYARP/XBotFT/XBotFT.cpp</title>
<!-- Node1 -->
<g id="node1" class="node"><title>Node1</title>
<polygon fill="#bfbfbf" stroke="black" points="1043,-190.5 1043,-242.5 1191,-242.5 1191,-190.5 1043,-190.5"/>
<text text-anchor="start" x="1051" y="-230.5" font-family="Helvetica,sans-Serif" font-size="10.00">/home/lucamuratore</text>
<text text-anchor="start" x="1051" y="-219.5" font-family="Helvetica,sans-Serif" font-size="10.00">/advr&#45;superbuild/external</text>
<text text-anchor="start" x="1051" y="-208.5" font-family="Helvetica,sans-Serif" font-size="10.00">/XCM/src/XBotYARP/XBotFT</text>
<text text-anchor="middle" x="1117" y="-197.5" font-family="Helvetica,sans-Serif" font-size="10.00">/XBotFT.cpp</text>
</g>
<!-- Node2 -->
<g id="node2" class="node"><title>Node2</title>
<g id="a_node2"><a xlink:href="XBotFT_8h.html" target="_top" xlink:title="XCM/XBotYARP/XBotFT.h">
<polygon fill="none" stroke="black" points="454.5,-134.5 454.5,-153.5 591.5,-153.5 591.5,-134.5 454.5,-134.5"/>
<text text-anchor="middle" x="523" y="-141.5" font-family="Helvetica,sans-Serif" font-size="10.00">XCM/XBotYARP/XBotFT.h</text>
</a>
</g>
</g>
<!-- Node1&#45;&gt;Node2 -->
<g id="edge1" class="edge"><title>Node1&#45;&gt;Node2</title>
<path fill="none" stroke="midnightblue" d="M1042.97,-206.714C930.366,-193.349 716.99,-168.024 601.68,-154.338"/>
<polygon fill="midnightblue" stroke="midnightblue" points="601.856,-150.835 591.513,-153.132 601.031,-157.786 601.856,-150.835"/>
</g>
<!-- Node6 -->
<g id="node6" class="node"><title>Node6</title>
<polygon fill="none" stroke="#bfbfbf" points="0,-67.5 0,-86.5 86,-86.5 86,-67.5 0,-67.5"/>
<text text-anchor="middle" x="43" y="-74.5" font-family="Helvetica,sans-Serif" font-size="10.00">yarp/os/Bottle.h</text>
</g>
<!-- Node1&#45;&gt;Node6 -->
<g id="edge29" class="edge"><title>Node1&#45;&gt;Node6</title>
<path fill="none" stroke="midnightblue" d="M1042.74,-210.348C918.673,-201.372 661.498,-181.195 445,-154 288.694,-134.366 247.121,-138.942 95,-98 87.3367,-95.9375 79.2442,-93.1427 71.7848,-90.2968"/>
<polygon fill="midnightblue" stroke="midnightblue" points="73.0185,-87.0209 62.4327,-86.5835 70.4353,-93.5268 73.0185,-87.0209"/>
</g>
<!-- Node15 -->
<g id="node15" class="node"><title>Node15</title>
<g id="a_node15"><a xlink:href="XBotUtils_8h.html" target="_top" xlink:title="XCM/XBotUtils.h">
<polygon fill="none" stroke="black" points="1594,-134.5 1594,-153.5 1686,-153.5 1686,-134.5 1594,-134.5"/>
<text text-anchor="middle" x="1640" y="-141.5" font-family="Helvetica,sans-Serif" font-size="10.00">XCM/XBotUtils.h</text>
</a>
</g>
</g>
<!-- Node1&#45;&gt;Node15 -->
<g id="edge14" class="edge"><title>Node1&#45;&gt;Node15</title>
<path fill="none" stroke="midnightblue" d="M1191.1,-205.511C1296.86,-191.254 1488.79,-165.383 1583.72,-152.586"/>
<polygon fill="midnightblue" stroke="midnightblue" points="1584.26,-156.045 1593.71,-151.241 1583.33,-149.108 1584.26,-156.045"/>
</g>
<!-- Node29 -->
<g id="node29" class="node"><title>Node29</title>
<polygon fill="none" stroke="#bfbfbf" points="1704.5,-134.5 1704.5,-153.5 1811.5,-153.5 1811.5,-134.5 1704.5,-134.5"/>
<text text-anchor="middle" x="1758" y="-141.5" font-family="Helvetica,sans-Serif" font-size="10.00">yarp/os/LogStream.h</text>
</g>
<!-- Node1&#45;&gt;Node29 -->
<g id="edge28" class="edge"><title>Node1&#45;&gt;Node29</title>
<path fill="none" stroke="midnightblue" d="M1191,-208.484C1299.11,-198.044 1506.78,-177.266 1694.35,-154.039"/>
<polygon fill="midnightblue" stroke="midnightblue" points="1694.91,-157.497 1704.4,-152.79 1694.05,-150.551 1694.91,-157.497"/>
</g>
<!-- Node3 -->
<g id="node3" class="node"><title>Node3</title>
<polygon fill="none" stroke="#bfbfbf" points="104,-67.5 104,-86.5 156,-86.5 156,-67.5 104,-67.5"/>
<text text-anchor="middle" x="130" y="-74.5" font-family="Helvetica,sans-Serif" font-size="10.00">memory</text>
</g>
<!-- Node2&#45;&gt;Node3 -->
<g id="edge2" class="edge"><title>Node2&#45;&gt;Node3</title>
<path fill="none" stroke="midnightblue" d="M454.273,-142.307C380.873,-139.756 262.004,-130.372 165,-98 160.394,-96.4631 155.715,-94.2904 151.339,-91.9393"/>
<polygon fill="midnightblue" stroke="midnightblue" points="152.789,-88.7318 142.394,-86.6854 149.244,-94.7677 152.789,-88.7318"/>
</g>
<!-- Node4 -->
<g id="node4" class="node"><title>Node4</title>
<polygon fill="none" stroke="#bfbfbf" points="174.5,-67.5 174.5,-86.5 209.5,-86.5 209.5,-67.5 174.5,-67.5"/>
<text text-anchor="middle" x="192" y="-74.5" font-family="Helvetica,sans-Serif" font-size="10.00">map</text>
</g>
<!-- Node2&#45;&gt;Node4 -->
<g id="edge3" class="edge"><title>Node2&#45;&gt;Node4</title>
<path fill="none" stroke="midnightblue" d="M454.37,-142.289C391.049,-139.473 295.539,-129.664 219,-98 215.766,-96.662 212.564,-94.8526 209.558,-92.8662"/>
<polygon fill="midnightblue" stroke="midnightblue" points="211.389,-89.8647 201.287,-86.6706 207.192,-95.4672 211.389,-89.8647"/>
</g>
<!-- Node5 -->
<g id="node5" class="node"><title>Node5</title>
<polygon fill="none" stroke="#bfbfbf" points="228,-67.5 228,-86.5 272,-86.5 272,-67.5 228,-67.5"/>
<text text-anchor="middle" x="250" y="-74.5" font-family="Helvetica,sans-Serif" font-size="10.00">vector</text>
</g>
<!-- Node2&#45;&gt;Node5 -->
<g id="edge4" class="edge"><title>Node2&#45;&gt;Node5</title>
<path fill="none" stroke="midnightblue" d="M454.267,-137.392C404.719,-131.651 336.992,-120.261 281,-98 277.094,-96.4472 273.154,-94.3762 269.453,-92.1548"/>
<polygon fill="midnightblue" stroke="midnightblue" points="271.182,-89.103 260.904,-86.5322 267.336,-94.9515 271.182,-89.103"/>
</g>
<!-- Node2&#45;&gt;Node6 -->
<g id="edge5" class="edge"><title>Node2&#45;&gt;Node6</title>
<path fill="none" stroke="midnightblue" d="M454.238,-141.305C368.894,-137.942 219.404,-127.912 95,-98 87.1532,-96.1133 78.8974,-93.3318 71.3329,-90.4394"/>
<polygon fill="midnightblue" stroke="midnightblue" points="72.4631,-87.1215 61.8792,-86.6388 69.852,-93.6163 72.4631,-87.1215"/>
</g>
<!-- Node7 -->
<g id="node7" class="node"><title>Node7</title>
<polygon fill="none" stroke="#bfbfbf" points="290,-67.5 290,-86.5 372,-86.5 372,-67.5 290,-67.5"/>
<text text-anchor="middle" x="331" y="-74.5" font-family="Helvetica,sans-Serif" font-size="10.00">yarp/os/Time.h</text>
</g>
<!-- Node2&#45;&gt;Node7 -->
<g id="edge6" class="edge"><title>Node2&#45;&gt;Node7</title>
<path fill="none" stroke="midnightblue" d="M493.963,-134.482C465.116,-125.859 419.714,-111.856 381,-98 374.376,-95.6293 367.326,-92.9242 360.673,-90.2862"/>
<polygon fill="midnightblue" stroke="midnightblue" points="361.889,-87.0027 351.305,-86.5159 359.275,-93.4965 361.889,-87.0027"/>
</g>
<!-- Node8 -->
<g id="node8" class="node"><title>Node8</title>
<polygon fill="none" stroke="#bfbfbf" points="390,-67.5 390,-86.5 512,-86.5 512,-67.5 390,-67.5"/>
<text text-anchor="middle" x="451" y="-74.5" font-family="Helvetica,sans-Serif" font-size="10.00">yarp/dev/DeviceDriver.h</text>
</g>
<!-- Node2&#45;&gt;Node8 -->
<g id="edge7" class="edge"><title>Node2&#45;&gt;Node8</title>
<path fill="none" stroke="midnightblue" d="M513.29,-134.234C501.738,-123.805 482.247,-106.209 468.14,-93.4732"/>
<polygon fill="midnightblue" stroke="midnightblue" points="470.324,-90.7304 460.556,-86.6273 465.634,-95.9263 470.324,-90.7304"/>
</g>
<!-- Node9 -->
<g id="node9" class="node"><title>Node9</title>
<polygon fill="none" stroke="#bfbfbf" points="530.5,-67.5 530.5,-86.5 659.5,-86.5 659.5,-67.5 530.5,-67.5"/>
<text text-anchor="middle" x="595" y="-74.5" font-family="Helvetica,sans-Serif" font-size="10.00">yarp/dev/IAnalogSensor.h</text>
</g>
<!-- Node2&#45;&gt;Node9 -->
<g id="edge8" class="edge"><title>Node2&#45;&gt;Node9</title>
<path fill="none" stroke="midnightblue" d="M532.71,-134.234C544.262,-123.805 563.753,-106.209 577.86,-93.4732"/>
<polygon fill="midnightblue" stroke="midnightblue" points="580.366,-95.9263 585.444,-86.6273 575.676,-90.7304 580.366,-95.9263"/>
</g>
<!-- Node10 -->
<g id="node10" class="node"><title>Node10</title>
<polygon fill="none" stroke="#bfbfbf" points="677.5,-67.5 677.5,-86.5 788.5,-86.5 788.5,-67.5 677.5,-67.5"/>
<text text-anchor="middle" x="733" y="-74.5" font-family="Helvetica,sans-Serif" font-size="10.00">yarp/dev/PolyDriver.h</text>
</g>
<!-- Node2&#45;&gt;Node10 -->
<g id="edge9" class="edge"><title>Node2&#45;&gt;Node10</title>
<path fill="none" stroke="midnightblue" d="M550.886,-134.369C588.095,-122.851 654.099,-102.422 695.597,-89.577"/>
<polygon fill="midnightblue" stroke="midnightblue" points="696.815,-92.8641 705.333,-86.5637 694.745,-86.1771 696.815,-92.8641"/>
</g>
<!-- Node11 -->
<g id="node11" class="node"><title>Node11</title>
<polygon fill="none" stroke="#bfbfbf" points="806,-67.5 806,-86.5 908,-86.5 908,-67.5 806,-67.5"/>
<text text-anchor="middle" x="857" y="-74.5" font-family="Helvetica,sans-Serif" font-size="10.00">yarp/dev/Wrapper.h</text>
</g>
<!-- Node2&#45;&gt;Node11 -->
<g id="edge10" class="edge"><title>Node2&#45;&gt;Node11</title>
<path fill="none" stroke="midnightblue" d="M591.737,-134.794C647.527,-127.398 727.972,-115.058 797,-98 806.061,-95.7608 815.721,-92.8033 824.582,-89.8516"/>
<polygon fill="midnightblue" stroke="midnightblue" points="825.85,-93.1167 834.173,-86.5601 823.578,-86.4958 825.85,-93.1167"/>
</g>
<!-- Node12 -->
<g id="node12" class="node"><title>Node12</title>
<polygon fill="none" stroke="#bfbfbf" points="926,-67.5 926,-86.5 1036,-86.5 1036,-67.5 926,-67.5"/>
<text text-anchor="middle" x="981" y="-74.5" font-family="Helvetica,sans-Serif" font-size="10.00">yarp/os/Semaphore.h</text>
</g>
<!-- Node2&#45;&gt;Node12 -->
<g id="edge11" class="edge"><title>Node2&#45;&gt;Node12</title>
<path fill="none" stroke="midnightblue" d="M591.608,-139.111C670.717,-133.718 804.342,-121.812 917,-98 927.059,-95.8738 937.795,-92.8342 947.544,-89.7645"/>
<polygon fill="midnightblue" stroke="midnightblue" points="948.853,-93.019 957.275,-86.5916 946.683,-86.3638 948.853,-93.019"/>
</g>
<!-- Node13 -->
<g id="node13" class="node"><title>Node13</title>
<g id="a_node13"><a xlink:href="IXBotInit_8h.html" target="_top" xlink:title="XBotCore&#45;interfaces\l/IXBotInit.h">
<polygon fill="none" stroke="black" points="1054.5,-62 1054.5,-92 1159.5,-92 1159.5,-62 1054.5,-62"/>
<text text-anchor="start" x="1062.5" y="-80" font-family="Helvetica,sans-Serif" font-size="10.00">XBotCore&#45;interfaces</text>
<text text-anchor="middle" x="1107" y="-69" font-family="Helvetica,sans-Serif" font-size="10.00">/IXBotInit.h</text>
</a>
</g>
</g>
<!-- Node2&#45;&gt;Node13 -->
<g id="edge12" class="edge"><title>Node2&#45;&gt;Node13</title>
<path fill="none" stroke="midnightblue" d="M591.685,-142.005C692.171,-139.442 884.725,-130.326 1045,-98 1049.36,-97.1209 1053.84,-96.0402 1058.31,-94.8405"/>
<polygon fill="midnightblue" stroke="midnightblue" points="1059.35,-98.1813 1068,-92.0562 1057.42,-91.4535 1059.35,-98.1813"/>
</g>
<!-- Node14 -->
<g id="node14" class="node"><title>Node14</title>
<polygon fill="none" stroke="#bfbfbf" points="1033,-0.5 1033,-19.5 1181,-19.5 1181,-0.5 1033,-0.5"/>
<text text-anchor="middle" x="1107" y="-7.5" font-family="Helvetica,sans-Serif" font-size="10.00">XBotInterface/XBotInterface.h</text>
</g>
<!-- Node13&#45;&gt;Node14 -->
<g id="edge13" class="edge"><title>Node13&#45;&gt;Node14</title>
<path fill="none" stroke="midnightblue" d="M1107,-61.896C1107,-52.5638 1107,-40.2143 1107,-30.0173"/>
<polygon fill="midnightblue" stroke="midnightblue" points="1110.5,-29.6945 1107,-19.6945 1103.5,-29.6946 1110.5,-29.6945"/>
</g>
<!-- Node16 -->
<g id="node16" class="node"><title>Node16</title>
<polygon fill="none" stroke="#bfbfbf" points="1177.5,-67.5 1177.5,-86.5 1226.5,-86.5 1226.5,-67.5 1177.5,-67.5"/>
<text text-anchor="middle" x="1202" y="-74.5" font-family="Helvetica,sans-Serif" font-size="10.00">stdint.h</text>
</g>
<!-- Node15&#45;&gt;Node16 -->
<g id="edge15" class="edge"><title>Node15&#45;&gt;Node16</title>
<path fill="none" stroke="midnightblue" d="M1593.94,-140.299C1502.55,-134.542 1301.45,-119.787 1236,-98 1231.42,-96.4745 1226.78,-94.2715 1222.46,-91.88"/>
<polygon fill="midnightblue" stroke="midnightblue" points="1224.04,-88.7428 1213.68,-86.5337 1220.4,-94.7225 1224.04,-88.7428"/>
</g>
<!-- Node17 -->
<g id="node17" class="node"><title>Node17</title>
<polygon fill="none" stroke="#bfbfbf" points="1245,-67.5 1245,-86.5 1291,-86.5 1291,-67.5 1245,-67.5"/>
<text text-anchor="middle" x="1268" y="-74.5" font-family="Helvetica,sans-Serif" font-size="10.00">stdio.h</text>
</g>
<!-- Node15&#45;&gt;Node17 -->
<g id="edge16" class="edge"><title>Node15&#45;&gt;Node17</title>
<path fill="none" stroke="midnightblue" d="M1593.73,-143.027C1526.92,-141.711 1400.44,-134.105 1300,-98 1295.84,-96.504 1291.65,-94.4065 1287.73,-92.1286"/>
<polygon fill="midnightblue" stroke="midnightblue" points="1289.54,-89.1329 1279.23,-86.6846 1285.77,-95.0267 1289.54,-89.1329"/>
</g>
<!-- Node18 -->
<g id="node18" class="node"><title>Node18</title>
<polygon fill="none" stroke="#bfbfbf" points="1309,-67.5 1309,-86.5 1359,-86.5 1359,-67.5 1309,-67.5"/>
<text text-anchor="middle" x="1334" y="-74.5" font-family="Helvetica,sans-Serif" font-size="10.00">fstream</text>
</g>
<!-- Node15&#45;&gt;Node18 -->
<g id="edge17" class="edge"><title>Node15&#45;&gt;Node18</title>
<path fill="none" stroke="midnightblue" d="M1593.95,-140.531C1538.78,-136.416 1444.27,-125.655 1368,-98 1363.53,-96.3805 1358.99,-94.17 1354.74,-91.8078"/>
<polygon fill="midnightblue" stroke="midnightblue" points="1356.42,-88.7334 1346.05,-86.5645 1352.8,-94.7271 1356.42,-88.7334"/>
</g>
<!-- Node19 -->
<g id="node19" class="node"><title>Node19</title>
<polygon fill="none" stroke="#bfbfbf" points="1377,-67.5 1377,-86.5 1429,-86.5 1429,-67.5 1377,-67.5"/>
<text text-anchor="middle" x="1403" y="-74.5" font-family="Helvetica,sans-Serif" font-size="10.00">sstream</text>
</g>
<!-- Node15&#45;&gt;Node19 -->
<g id="edge18" class="edge"><title>Node15&#45;&gt;Node19</title>
<path fill="none" stroke="midnightblue" d="M1593.93,-136.77C1552.22,-130.195 1489.6,-117.966 1438,-98 1433.55,-96.2772 1428.98,-94.0524 1424.68,-91.7154"/>
<polygon fill="midnightblue" stroke="midnightblue" points="1426.24,-88.5714 1415.83,-86.5717 1422.72,-94.6232 1426.24,-88.5714"/>
</g>
<!-- Node20 -->
<g id="node20" class="node"><title>Node20</title>
<polygon fill="none" stroke="#bfbfbf" points="1447,-67.5 1447,-86.5 1571,-86.5 1571,-67.5 1447,-67.5"/>
<text text-anchor="middle" x="1509" y="-74.5" font-family="Helvetica,sans-Serif" font-size="10.00">boost/circular_buffer.hpp</text>
</g>
<!-- Node15&#45;&gt;Node20 -->
<g id="edge19" class="edge"><title>Node15&#45;&gt;Node20</title>
<path fill="none" stroke="midnightblue" d="M1622.6,-134.369C1600.39,-123.345 1561.71,-104.155 1535.74,-91.2678"/>
<polygon fill="midnightblue" stroke="midnightblue" points="1536.98,-87.9767 1526.47,-86.6672 1533.87,-94.2473 1536.98,-87.9767"/>
</g>
<!-- Node21 -->
<g id="node21" class="node"><title>Node21</title>
<polygon fill="none" stroke="#bfbfbf" points="1589,-62 1589,-92 1691,-92 1691,-62 1589,-62"/>
<text text-anchor="start" x="1597" y="-80" font-family="Helvetica,sans-Serif" font-size="10.00">boost/accumulators</text>
<text text-anchor="middle" x="1640" y="-69" font-family="Helvetica,sans-Serif" font-size="10.00">/accumulators.hpp</text>
</g>
<!-- Node15&#45;&gt;Node21 -->
<g id="edge20" class="edge"><title>Node15&#45;&gt;Node21</title>
<path fill="none" stroke="midnightblue" d="M1640,-134.234C1640,-126.041 1640,-113.423 1640,-102.214"/>
<polygon fill="midnightblue" stroke="midnightblue" points="1643.5,-102.089 1640,-92.089 1636.5,-102.089 1643.5,-102.089"/>
</g>
<!-- Node22 -->
<g id="node22" class="node"><title>Node22</title>
<polygon fill="none" stroke="#bfbfbf" points="1709.5,-62 1709.5,-92 1814.5,-92 1814.5,-62 1709.5,-62"/>
<text text-anchor="start" x="1717.5" y="-80" font-family="Helvetica,sans-Serif" font-size="10.00">boost/accumulators</text>
<text text-anchor="middle" x="1762" y="-69" font-family="Helvetica,sans-Serif" font-size="10.00">/statistics/count.hpp</text>
</g>
<!-- Node15&#45;&gt;Node22 -->
<g id="edge21" class="edge"><title>Node15&#45;&gt;Node22</title>
<path fill="none" stroke="midnightblue" d="M1656.2,-134.369C1674.05,-124.857 1703.32,-109.265 1726.55,-96.8888"/>
<polygon fill="midnightblue" stroke="midnightblue" points="1728.26,-99.9427 1735.44,-92.1516 1724.97,-93.7649 1728.26,-99.9427"/>
</g>
<!-- Node23 -->
<g id="node23" class="node"><title>Node23</title>
<polygon fill="none" stroke="#bfbfbf" points="1832.5,-62 1832.5,-92 1937.5,-92 1937.5,-62 1832.5,-62"/>
<text text-anchor="start" x="1840.5" y="-80" font-family="Helvetica,sans-Serif" font-size="10.00">boost/accumulators</text>
<text text-anchor="middle" x="1885" y="-69" font-family="Helvetica,sans-Serif" font-size="10.00">/statistics/mean.hpp</text>
</g>
<!-- Node15&#45;&gt;Node23 -->
<g id="edge22" class="edge"><title>Node15&#45;&gt;Node23</title>
<path fill="none" stroke="midnightblue" d="M1678.64,-134.461C1716.03,-125.985 1774.2,-112.231 1824,-98 1827.16,-97.0967 1830.4,-96.1359 1833.67,-95.143"/>
<polygon fill="midnightblue" stroke="midnightblue" points="1834.95,-98.4087 1843.46,-92.093 1832.87,-91.7255 1834.95,-98.4087"/>
</g>
<!-- Node24 -->
<g id="node24" class="node"><title>Node24</title>
<polygon fill="none" stroke="#bfbfbf" points="1956,-62 1956,-92 2058,-92 2058,-62 1956,-62"/>
<text text-anchor="start" x="1964" y="-80" font-family="Helvetica,sans-Serif" font-size="10.00">boost/accumulators</text>
<text text-anchor="middle" x="2007" y="-69" font-family="Helvetica,sans-Serif" font-size="10.00">/statistics/min.hpp</text>
</g>
<!-- Node15&#45;&gt;Node24 -->
<g id="edge23" class="edge"><title>Node15&#45;&gt;Node24</title>
<path fill="none" stroke="midnightblue" d="M1686.14,-135.522C1689.47,-135.001 1692.79,-134.489 1696,-134 1807.42,-117.058 1837.32,-123.923 1947,-98 1950.8,-97.1022 1954.7,-96.0681 1958.6,-94.9529"/>
<polygon fill="midnightblue" stroke="midnightblue" points="1959.68,-98.284 1968.24,-92.0451 1957.65,-91.5823 1959.68,-98.284"/>
</g>
<!-- Node25 -->
<g id="node25" class="node"><title>Node25</title>
<polygon fill="none" stroke="#bfbfbf" points="2076,-62 2076,-92 2178,-92 2178,-62 2076,-62"/>
<text text-anchor="start" x="2084" y="-80" font-family="Helvetica,sans-Serif" font-size="10.00">boost/accumulators</text>
<text text-anchor="middle" x="2127" y="-69" font-family="Helvetica,sans-Serif" font-size="10.00">/statistics/max.hpp</text>
</g>
<!-- Node15&#45;&gt;Node25 -->
<g id="edge24" class="edge"><title>Node15&#45;&gt;Node25</title>
<path fill="none" stroke="midnightblue" d="M1686.11,-135.355C1689.45,-134.872 1692.78,-134.415 1696,-134 1860.31,-112.846 1904.95,-132.411 2067,-98 2071.11,-97.1276 2075.33,-96.0694 2079.54,-94.9004"/>
<polygon fill="midnightblue" stroke="midnightblue" points="2080.68,-98.2116 2089.27,-92.007 2078.69,-91.5018 2080.68,-98.2116"/>
</g>
<!-- Node26 -->
<g id="node26" class="node"><title>Node26</title>
<polygon fill="none" stroke="#bfbfbf" points="2196,-62 2196,-92 2314,-92 2314,-62 2196,-62"/>
<text text-anchor="start" x="2204" y="-80" font-family="Helvetica,sans-Serif" font-size="10.00">boost/accumulators</text>
<text text-anchor="middle" x="2255" y="-69" font-family="Helvetica,sans-Serif" font-size="10.00">/statistics/variance.hpp</text>
</g>
<!-- Node15&#45;&gt;Node26 -->
<g id="edge25" class="edge"><title>Node15&#45;&gt;Node26</title>
<path fill="none" stroke="midnightblue" d="M1686.1,-135.268C1689.45,-134.806 1692.77,-134.377 1696,-134 1913.33,-108.616 1971.71,-137.091 2187,-98 2192.02,-97.089 2197.19,-95.9489 2202.34,-94.6778"/>
<polygon fill="midnightblue" stroke="midnightblue" points="2203.38,-98.0231 2212.17,-92.0975 2201.6,-91.2527 2203.38,-98.0231"/>
</g>
<!-- Node27 -->
<g id="node27" class="node"><title>Node27</title>
<polygon fill="none" stroke="#bfbfbf" points="2332,-62 2332,-92 2446,-92 2446,-62 2332,-62"/>
<text text-anchor="start" x="2340" y="-80" font-family="Helvetica,sans-Serif" font-size="10.00">boost/accumulators</text>
<text text-anchor="middle" x="2389" y="-69" font-family="Helvetica,sans-Serif" font-size="10.00">/statistics/error_of.hpp</text>
</g>
<!-- Node15&#45;&gt;Node27 -->
<g id="edge26" class="edge"><title>Node15&#45;&gt;Node27</title>
<path fill="none" stroke="midnightblue" d="M1686.09,-135.21C1689.44,-134.762 1692.77,-134.351 1696,-134 1973.49,-103.815 2048.18,-146.816 2323,-98 2328.03,-97.1068 2333.21,-95.956 2338.36,-94.6582"/>
<polygon fill="midnightblue" stroke="midnightblue" points="2339.43,-97.9954 2348.17,-92.0104 2337.61,-91.2372 2339.43,-97.9954"/>
</g>
<!-- Node28 -->
<g id="node28" class="node"><title>Node28</title>
<polygon fill="none" stroke="#bfbfbf" points="2464,-56.5 2464,-97.5 2566,-97.5 2566,-56.5 2464,-56.5"/>
<text text-anchor="start" x="2472" y="-85.5" font-family="Helvetica,sans-Serif" font-size="10.00">boost/accumulators</text>
<text text-anchor="start" x="2472" y="-74.5" font-family="Helvetica,sans-Serif" font-size="10.00">/statistics/error_of</text>
<text text-anchor="middle" x="2515" y="-63.5" font-family="Helvetica,sans-Serif" font-size="10.00">_mean.hpp</text>
</g>
<!-- Node15&#45;&gt;Node28 -->
<g id="edge27" class="edge"><title>Node15&#45;&gt;Node28</title>
<path fill="none" stroke="midnightblue" d="M1686.09,-135.173C1689.44,-134.734 1692.77,-134.335 1696,-134 2028.63,-99.4919 2121.22,-158.8 2453.94,-97.9102"/>
<polygon fill="midnightblue" stroke="midnightblue" points="2454.66,-101.337 2463.86,-96.0734 2453.39,-94.4537 2454.66,-101.337"/>
</g>
</g>
</svg>
