<?xml version="1.0" encoding="UTF-8" standalone="no"?>
<!DOCTYPE svg PUBLIC "-//W3C//DTD SVG 1.1//EN"
 "http://www.w3.org/Graphics/SVG/1.1/DTD/svg11.dtd">
<!-- Generated by graphviz version 2.38.0 (20140413.2041)
 -->
<!-- Title: /home/lucamuratore/advr&#45;superbuild/external/XCM/include/XBotCore&#45;interfaces/XBotESC.h Pages: 1 -->
<svg width="1756pt" height="495pt"
 viewBox="0.00 0.00 1755.50 495.00" xmlns="http://www.w3.org/2000/svg" xmlns:xlink="http://www.w3.org/1999/xlink">
<g id="graph0" class="graph" transform="scale(1 1) rotate(0) translate(4 491)">
<title>/home/lucamuratore/advr&#45;superbuild/external/XCM/include/XBotCore&#45;interfaces/XBotESC.h</title>
<!-- Node1 -->
<g id="node1" class="node"><title>Node1</title>
<polygon fill="#bfbfbf" stroke="black" points="665.5,-434.5 665.5,-486.5 832.5,-486.5 832.5,-434.5 665.5,-434.5"/>
<text text-anchor="start" x="673.5" y="-474.5" font-family="Helvetica,sans-Serif" font-size="10.00">/home/lucamuratore</text>
<text text-anchor="start" x="673.5" y="-463.5" font-family="Helvetica,sans-Serif" font-size="10.00">/advr&#45;superbuild/external</text>
<text text-anchor="start" x="673.5" y="-452.5" font-family="Helvetica,sans-Serif" font-size="10.00">/XCM/include/XBotCore&#45;interfaces</text>
<text text-anchor="middle" x="749" y="-441.5" font-family="Helvetica,sans-Serif" font-size="10.00">/XBotESC.h</text>
</g>
<!-- Node2 -->
<g id="node2" class="node"><title>Node2</title>
<g id="a_node2"><a xlink:href="All_8h.html" target="_top" xlink:title="/home/lucamuratore\l/advr&#45;superbuild/external\l/XCM/include/XBotCore&#45;interfaces/All.h">
<polygon fill="none" stroke="black" points="355,-262 355,-303 545,-303 545,-262 355,-262"/>
<text text-anchor="start" x="363" y="-291" font-family="Helvetica,sans-Serif" font-size="10.00">/home/lucamuratore</text>
<text text-anchor="start" x="363" y="-280" font-family="Helvetica,sans-Serif" font-size="10.00">/advr&#45;superbuild/external</text>
<text text-anchor="middle" x="450" y="-269" font-family="Helvetica,sans-Serif" font-size="10.00">/XCM/include/XBotCore&#45;interfaces/All.h</text>
</a>
</g>
</g>
<!-- Node1&#45;&gt;Node2 -->
<g id="edge1" class="edge"><title>Node1&#45;&gt;Node2</title>
<path fill="none" stroke="midnightblue" d="M697.712,-429.31C636.274,-393.146 535.146,-333.619 483.149,-303.012"/>
<polygon fill="midnightblue" stroke="midnightblue" points="696.085,-432.414 706.478,-434.47 699.636,-426.381 696.085,-432.414"/>
</g>
<!-- Node9 -->
<g id="node9" class="node"><title>Node9</title>
<g id="a_node9"><a xlink:href="XBotPlugin_8h.html" target="_top" xlink:title="/home/lucamuratore\l/advr&#45;superbuild/external\l/XCM/include/XBotCore&#45;interfaces\l/XBotPlugin.h">
<polygon fill="none" stroke="black" points="665.5,-345.5 665.5,-397.5 832.5,-397.5 832.5,-345.5 665.5,-345.5"/>
<text text-anchor="start" x="673.5" y="-385.5" font-family="Helvetica,sans-Serif" font-size="10.00">/home/lucamuratore</text>
<text text-anchor="start" x="673.5" y="-374.5" font-family="Helvetica,sans-Serif" font-size="10.00">/advr&#45;superbuild/external</text>
<text text-anchor="start" x="673.5" y="-363.5" font-family="Helvetica,sans-Serif" font-size="10.00">/XCM/include/XBotCore&#45;interfaces</text>
<text text-anchor="middle" x="749" y="-352.5" font-family="Helvetica,sans-Serif" font-size="10.00">/XBotPlugin.h</text>
</a>
</g>
</g>
<!-- Node1&#45;&gt;Node9 -->
<g id="edge8" class="edge"><title>Node1&#45;&gt;Node9</title>
<path fill="none" stroke="midnightblue" d="M749,-424.191C749,-415.282 749,-405.899 749,-397.607"/>
<polygon fill="midnightblue" stroke="midnightblue" points="745.5,-424.336 749,-434.336 752.5,-424.336 745.5,-424.336"/>
</g>
<!-- Node15 -->
<g id="node15" class="node"><title>Node15</title>
<g id="a_node15"><a xlink:href="XBotCommunicationPlugin_8h.html" target="_top" xlink:title="/home/lucamuratore\l/advr&#45;superbuild/external\l/XCM/include/XBotPlugin\l/XBotCommunicationPlugin.h">
<polygon fill="none" stroke="black" points="1170.5,-167.5 1170.5,-219.5 1315.5,-219.5 1315.5,-167.5 1170.5,-167.5"/>
<text text-anchor="start" x="1178.5" y="-207.5" font-family="Helvetica,sans-Serif" font-size="10.00">/home/lucamuratore</text>
<text text-anchor="start" x="1178.5" y="-196.5" font-family="Helvetica,sans-Serif" font-size="10.00">/advr&#45;superbuild/external</text>
<text text-anchor="start" x="1178.5" y="-185.5" font-family="Helvetica,sans-Serif" font-size="10.00">/XCM/include/XBotPlugin</text>
<text text-anchor="middle" x="1243" y="-174.5" font-family="Helvetica,sans-Serif" font-size="10.00">/XBotCommunicationPlugin.h</text>
</a>
</g>
</g>
<!-- Node1&#45;&gt;Node15 -->
<g id="edge22" class="edge"><title>Node1&#45;&gt;Node15</title>
<path fill="none" stroke="midnightblue" d="M842.581,-433.93C922.345,-409.49 1037.89,-367.659 1127,-309 1154.83,-290.684 1156.3,-279.413 1180,-256 1192.18,-243.968 1205.76,-230.693 1217.18,-219.565"/>
<polygon fill="midnightblue" stroke="midnightblue" points="841.103,-430.721 832.548,-436.97 843.133,-437.42 841.103,-430.721"/>
</g>
<!-- Node21 -->
<g id="node21" class="node"><title>Node21</title>
<g id="a_node21"><a xlink:href="XBotESCUtils_8h.html" target="_top" xlink:title="/home/lucamuratore\l/advr&#45;superbuild/external\l/XCM/include/XCM/XBotESCUtils.h">
<polygon fill="none" stroke="black" points="239,-351 239,-392 415,-392 415,-351 239,-351"/>
<text text-anchor="start" x="247" y="-380" font-family="Helvetica,sans-Serif" font-size="10.00">/home/lucamuratore</text>
<text text-anchor="start" x="247" y="-369" font-family="Helvetica,sans-Serif" font-size="10.00">/advr&#45;superbuild/external</text>
<text text-anchor="middle" x="327" y="-358" font-family="Helvetica,sans-Serif" font-size="10.00">/XCM/include/XCM/XBotESCUtils.h</text>
</a>
</g>
</g>
<!-- Node1&#45;&gt;Node21 -->
<g id="edge23" class="edge"><title>Node1&#45;&gt;Node21</title>
<path fill="none" stroke="midnightblue" d="M655.44,-440.212C583.745,-425.431 485.507,-405.178 415.186,-390.681"/>
<polygon fill="midnightblue" stroke="midnightblue" points="654.873,-443.668 665.374,-442.26 656.287,-436.812 654.873,-443.668"/>
</g>
<!-- Node23 -->
<g id="node23" class="node"><title>Node23</title>
<g id="a_node23"><a xlink:href="XBotXDDP_8h.html" target="_top" xlink:title="/home/lucamuratore\l/advr&#45;superbuild/external\l/XCM/include/XCM/XBotXDDP.h">
<polygon fill="none" stroke="black" points="1175.5,-351 1175.5,-392 1338.5,-392 1338.5,-351 1175.5,-351"/>
<text text-anchor="start" x="1183.5" y="-380" font-family="Helvetica,sans-Serif" font-size="10.00">/home/lucamuratore</text>
<text text-anchor="start" x="1183.5" y="-369" font-family="Helvetica,sans-Serif" font-size="10.00">/advr&#45;superbuild/external</text>
<text text-anchor="middle" x="1257" y="-358" font-family="Helvetica,sans-Serif" font-size="10.00">/XCM/include/XCM/XBotXDDP.h</text>
</a>
</g>
</g>
<!-- Node1&#45;&gt;Node23 -->
<g id="edge26" class="edge"><title>Node1&#45;&gt;Node23</title>
<path fill="none" stroke="midnightblue" d="M842.745,-448.532C926.594,-438.004 1052.62,-420.41 1161,-398 1169.53,-396.237 1178.43,-394.177 1187.22,-392.006"/>
<polygon fill="midnightblue" stroke="midnightblue" points="842.222,-445.069 832.732,-449.78 843.089,-452.016 842.222,-445.069"/>
</g>
<!-- Node3 -->
<g id="node3" class="node"><title>Node3</title>
<g id="a_node3"><a xlink:href="XBotPluginHandler_8h.html" target="_top" xlink:title="/home/lucamuratore\l/advr&#45;superbuild/external\l/XCM/include/XCM/XBotPluginHandler.h">
<polygon fill="none" stroke="black" points="229.5,-173 229.5,-214 424.5,-214 424.5,-173 229.5,-173"/>
<text text-anchor="start" x="237.5" y="-202" font-family="Helvetica,sans-Serif" font-size="10.00">/home/lucamuratore</text>
<text text-anchor="start" x="237.5" y="-191" font-family="Helvetica,sans-Serif" font-size="10.00">/advr&#45;superbuild/external</text>
<text text-anchor="middle" x="327" y="-180" font-family="Helvetica,sans-Serif" font-size="10.00">/XCM/include/XCM/XBotPluginHandler.h</text>
</a>
</g>
</g>
<!-- Node2&#45;&gt;Node3 -->
<g id="edge2" class="edge"><title>Node2&#45;&gt;Node3</title>
<path fill="none" stroke="midnightblue" d="M414.042,-256.066C395.192,-242.733 372.448,-226.646 354.937,-214.26"/>
<polygon fill="midnightblue" stroke="midnightblue" points="412.211,-259.058 422.396,-261.976 416.253,-253.343 412.211,-259.058"/>
</g>
<!-- Node4 -->
<g id="node4" class="node"><title>Node4</title>
<g id="a_node4"><a xlink:href="NRTDeployer_8h.html" target="_top" xlink:title="/home/lucamuratore\l/advr&#45;superbuild/external\l/XCM/include/XCM/NRTDeployer.h">
<polygon fill="none" stroke="black" points="67.5,-84 67.5,-125 240.5,-125 240.5,-84 67.5,-84"/>
<text text-anchor="start" x="75.5" y="-113" font-family="Helvetica,sans-Serif" font-size="10.00">/home/lucamuratore</text>
<text text-anchor="start" x="75.5" y="-102" font-family="Helvetica,sans-Serif" font-size="10.00">/advr&#45;superbuild/external</text>
<text text-anchor="middle" x="154" y="-91" font-family="Helvetica,sans-Serif" font-size="10.00">/XCM/include/XCM/NRTDeployer.h</text>
</a>
</g>
</g>
<!-- Node3&#45;&gt;Node4 -->
<g id="edge3" class="edge"><title>Node3&#45;&gt;Node4</title>
<path fill="none" stroke="midnightblue" d="M279.237,-168.481C252.094,-154.831 218.538,-137.955 192.994,-125.11"/>
<polygon fill="midnightblue" stroke="midnightblue" points="277.669,-171.61 288.175,-172.976 280.814,-165.356 277.669,-171.61"/>
</g>
<!-- Node7 -->
<g id="node7" class="node"><title>Node7</title>
<g id="a_node7"><a xlink:href="DummyMain_8cpp.html" target="_top" xlink:title="/home/lucamuratore\l/advr&#45;superbuild/external\l/XCM/src/DummyMain.cpp">
<polygon fill="none" stroke="black" points="259,-84 259,-125 395,-125 395,-84 259,-84"/>
<text text-anchor="start" x="267" y="-113" font-family="Helvetica,sans-Serif" font-size="10.00">/home/lucamuratore</text>
<text text-anchor="start" x="267" y="-102" font-family="Helvetica,sans-Serif" font-size="10.00">/advr&#45;superbuild/external</text>
<text text-anchor="middle" x="327" y="-91" font-family="Helvetica,sans-Serif" font-size="10.00">/XCM/src/DummyMain.cpp</text>
</a>
</g>
</g>
<!-- Node3&#45;&gt;Node7 -->
<g id="edge6" class="edge"><title>Node3&#45;&gt;Node7</title>
<path fill="none" stroke="midnightblue" d="M327,-162.441C327,-150.101 327,-136.162 327,-125.164"/>
<polygon fill="midnightblue" stroke="midnightblue" points="323.5,-162.758 327,-172.758 330.5,-162.758 323.5,-162.758"/>
</g>
<!-- Node8 -->
<g id="node8" class="node"><title>Node8</title>
<g id="a_node8"><a xlink:href="XBotPluginHandler_8cpp.html" target="_top" xlink:title="/home/lucamuratore\l/advr&#45;superbuild/external\l/XCM/src/XBotPluginHandler.cpp">
<polygon fill="none" stroke="black" points="413.5,-84 413.5,-125 576.5,-125 576.5,-84 413.5,-84"/>
<text text-anchor="start" x="421.5" y="-113" font-family="Helvetica,sans-Serif" font-size="10.00">/home/lucamuratore</text>
<text text-anchor="start" x="421.5" y="-102" font-family="Helvetica,sans-Serif" font-size="10.00">/advr&#45;superbuild/external</text>
<text text-anchor="middle" x="495" y="-91" font-family="Helvetica,sans-Serif" font-size="10.00">/XCM/src/XBotPluginHandler.cpp</text>
</a>
</g>
</g>
<!-- Node3&#45;&gt;Node8 -->
<g id="edge7" class="edge"><title>Node3&#45;&gt;Node8</title>
<path fill="none" stroke="midnightblue" d="M373.727,-168.302C400.024,-154.684 432.435,-137.9 457.133,-125.11"/>
<polygon fill="midnightblue" stroke="midnightblue" points="371.973,-165.269 364.702,-172.976 375.192,-171.485 371.973,-165.269"/>
</g>
<!-- Node5 -->
<g id="node5" class="node"><title>Node5</title>
<g id="a_node5"><a xlink:href="NRTDeployer_8cpp.html" target="_top" xlink:title="/home/lucamuratore\l/advr&#45;superbuild/external\l/XCM/src/NRTDeployer.cpp">
<polygon fill="none" stroke="black" points="0,-0.5 0,-41.5 140,-41.5 140,-0.5 0,-0.5"/>
<text text-anchor="start" x="8" y="-29.5" font-family="Helvetica,sans-Serif" font-size="10.00">/home/lucamuratore</text>
<text text-anchor="start" x="8" y="-18.5" font-family="Helvetica,sans-Serif" font-size="10.00">/advr&#45;superbuild/external</text>
<text text-anchor="middle" x="70" y="-7.5" font-family="Helvetica,sans-Serif" font-size="10.00">/XCM/src/NRTDeployer.cpp</text>
</a>
</g>
</g>
<!-- Node4&#45;&gt;Node5 -->
<g id="edge4" class="edge"><title>Node4&#45;&gt;Node5</title>
<path fill="none" stroke="midnightblue" d="M126.211,-76.5383C114.427,-65.1044 100.95,-52.0287 90.1468,-41.5472"/>
<polygon fill="midnightblue" stroke="midnightblue" points="124.052,-79.3196 133.666,-83.7711 128.926,-74.2957 124.052,-79.3196"/>
</g>
<!-- Node6 -->
<g id="node6" class="node"><title>Node6</title>
<g id="a_node6"><a xlink:href="NRTDeployerMain_8cpp.html" target="_top" xlink:title="/home/lucamuratore\l/advr&#45;superbuild/external\l/XCM/src/NRTDeployerMain.cpp">
<polygon fill="none" stroke="black" points="158.5,-0.5 158.5,-41.5 319.5,-41.5 319.5,-0.5 158.5,-0.5"/>
<text text-anchor="start" x="166.5" y="-29.5" font-family="Helvetica,sans-Serif" font-size="10.00">/home/lucamuratore</text>
<text text-anchor="start" x="166.5" y="-18.5" font-family="Helvetica,sans-Serif" font-size="10.00">/advr&#45;superbuild/external</text>
<text text-anchor="middle" x="239" y="-7.5" font-family="Helvetica,sans-Serif" font-size="10.00">/XCM/src/NRTDeployerMain.cpp</text>
</a>
</g>
</g>
<!-- Node4&#45;&gt;Node6 -->
<g id="edge5" class="edge"><title>Node4&#45;&gt;Node6</title>
<path fill="none" stroke="midnightblue" d="M182.12,-76.5383C194.044,-65.1044 207.682,-52.0287 218.613,-41.5472"/>
<polygon fill="midnightblue" stroke="midnightblue" points="179.372,-74.3238 174.576,-83.7711 184.217,-79.3765 179.372,-74.3238"/>
</g>
<!-- Node9&#45;&gt;Node2 -->
<g id="edge9" class="edge"><title>Node9&#45;&gt;Node2</title>
<path fill="none" stroke="midnightblue" d="M655.57,-343.315C610.688,-330.255 557.921,-314.902 517.086,-303.02"/>
<polygon fill="midnightblue" stroke="midnightblue" points="654.735,-346.717 665.314,-346.15 656.69,-339.995 654.735,-346.717"/>
</g>
<!-- Node10 -->
<g id="node10" class="node"><title>Node10</title>
<g id="a_node10"><a xlink:href="XBotControlModule_8h.html" target="_top" xlink:title="/home/lucamuratore\l/advr&#45;superbuild/external\l/XCM/include/XCM/XBotControlModule.h">
<polygon fill="none" stroke="black" points="921.5,-262 921.5,-303 1118.5,-303 1118.5,-262 921.5,-262"/>
<text text-anchor="start" x="929.5" y="-291" font-family="Helvetica,sans-Serif" font-size="10.00">/home/lucamuratore</text>
<text text-anchor="start" x="929.5" y="-280" font-family="Helvetica,sans-Serif" font-size="10.00">/advr&#45;superbuild/external</text>
<text text-anchor="middle" x="1020" y="-269" font-family="Helvetica,sans-Serif" font-size="10.00">/XCM/include/XCM/XBotControlModule.h</text>
</a>
</g>
</g>
<!-- Node9&#45;&gt;Node10 -->
<g id="edge10" class="edge"><title>Node9&#45;&gt;Node10</title>
<path fill="none" stroke="midnightblue" d="M836.744,-342.331C876.613,-329.532 922.807,-314.702 958.842,-303.134"/>
<polygon fill="midnightblue" stroke="midnightblue" points="835.472,-339.063 827.021,-345.453 837.612,-345.728 835.472,-339.063"/>
</g>
<!-- Node14 -->
<g id="node14" class="node"><title>Node14</title>
<g id="a_node14"><a xlink:href="XBotControlPlugin_8h.html" target="_top" xlink:title="/home/lucamuratore\l/advr&#45;superbuild/external\l/XCM/include/XCM/XBotControlPlugin.h">
<polygon fill="none" stroke="black" points="563.5,-262 563.5,-303 756.5,-303 756.5,-262 563.5,-262"/>
<text text-anchor="start" x="571.5" y="-291" font-family="Helvetica,sans-Serif" font-size="10.00">/home/lucamuratore</text>
<text text-anchor="start" x="571.5" y="-280" font-family="Helvetica,sans-Serif" font-size="10.00">/advr&#45;superbuild/external</text>
<text text-anchor="middle" x="660" y="-269" font-family="Helvetica,sans-Serif" font-size="10.00">/XCM/include/XCM/XBotControlPlugin.h</text>
</a>
</g>
</g>
<!-- Node9&#45;&gt;Node14 -->
<g id="edge14" class="edge"><title>Node9&#45;&gt;Node14</title>
<path fill="none" stroke="midnightblue" d="M715.938,-338.181C703.878,-326.392 690.616,-313.428 680.032,-303.082"/>
<polygon fill="midnightblue" stroke="midnightblue" points="713.66,-340.849 723.258,-345.336 718.553,-335.843 713.66,-340.849"/>
</g>
<!-- Node20 -->
<g id="node20" class="node"><title>Node20</title>
<g id="a_node20"><a xlink:href="XBotPlugin_8cpp.html" target="_top" xlink:title="/home/lucamuratore\l/advr&#45;superbuild/external\l/XCM/src/XBotPlugin.cpp">
<polygon fill="none" stroke="black" points="774.5,-262 774.5,-303 903.5,-303 903.5,-262 774.5,-262"/>
<text text-anchor="start" x="782.5" y="-291" font-family="Helvetica,sans-Serif" font-size="10.00">/home/lucamuratore</text>
<text text-anchor="start" x="782.5" y="-280" font-family="Helvetica,sans-Serif" font-size="10.00">/advr&#45;superbuild/external</text>
<text text-anchor="middle" x="839" y="-269" font-family="Helvetica,sans-Serif" font-size="10.00">/XCM/src/XBotPlugin.cpp</text>
</a>
</g>
</g>
<!-- Node9&#45;&gt;Node20 -->
<g id="edge21" class="edge"><title>Node9&#45;&gt;Node20</title>
<path fill="none" stroke="midnightblue" d="M782.433,-338.181C794.629,-326.392 808.04,-313.428 818.743,-303.082"/>
<polygon fill="midnightblue" stroke="midnightblue" points="779.789,-335.869 775.032,-345.336 784.654,-340.902 779.789,-335.869"/>
</g>
<!-- Node11 -->
<g id="node11" class="node"><title>Node11</title>
<g id="a_node11"><a xlink:href="XBotModuleHandler_8h.html" target="_top" xlink:title="/home/lucamuratore\l/advr&#45;superbuild/external\l/XCM/include/XCM/XBotModuleHandler.h">
<polygon fill="none" stroke="black" points="952,-173 952,-214 1152,-214 1152,-173 952,-173"/>
<text text-anchor="start" x="960" y="-202" font-family="Helvetica,sans-Serif" font-size="10.00">/home/lucamuratore</text>
<text text-anchor="start" x="960" y="-191" font-family="Helvetica,sans-Serif" font-size="10.00">/advr&#45;superbuild/external</text>
<text text-anchor="middle" x="1052" y="-180" font-family="Helvetica,sans-Serif" font-size="10.00">/XCM/include/XCM/XBotModuleHandler.h</text>
</a>
</g>
</g>
<!-- Node10&#45;&gt;Node11 -->
<g id="edge11" class="edge"><title>Node10&#45;&gt;Node11</title>
<path fill="none" stroke="midnightblue" d="M1030.78,-252.187C1035.39,-239.666 1040.64,-225.384 1044.77,-214.164"/>
<polygon fill="midnightblue" stroke="midnightblue" points="1027.43,-251.165 1027.26,-261.758 1034,-253.581 1027.43,-251.165"/>
</g>
<!-- Node13 -->
<g id="node13" class="node"><title>Node13</title>
<g id="a_node13"><a xlink:href="XBotControlModule_8cpp.html" target="_top" xlink:title="/home/lucamuratore\l/advr&#45;superbuild/external\l/XCM/src/XBotControlModule.cpp">
<polygon fill="none" stroke="black" points="768.5,-173 768.5,-214 933.5,-214 933.5,-173 768.5,-173"/>
<text text-anchor="start" x="776.5" y="-202" font-family="Helvetica,sans-Serif" font-size="10.00">/home/lucamuratore</text>
<text text-anchor="start" x="776.5" y="-191" font-family="Helvetica,sans-Serif" font-size="10.00">/advr&#45;superbuild/external</text>
<text text-anchor="middle" x="851" y="-180" font-family="Helvetica,sans-Serif" font-size="10.00">/XCM/src/XBotControlModule.cpp</text>
</a>
</g>
</g>
<!-- Node10&#45;&gt;Node13 -->
<g id="edge13" class="edge"><title>Node10&#45;&gt;Node13</title>
<path fill="none" stroke="midnightblue" d="M972.995,-257.302C946.541,-243.684 913.937,-226.9 889.092,-214.11"/>
<polygon fill="midnightblue" stroke="midnightblue" points="971.58,-260.51 982.073,-261.976 974.784,-254.287 971.58,-260.51"/>
</g>
<!-- Node12 -->
<g id="node12" class="node"><title>Node12</title>
<g id="a_node12"><a xlink:href="XBotModuleHandler_8cpp.html" target="_top" xlink:title="/home/lucamuratore\l/advr&#45;superbuild/external\l/XCM/src/XBotModuleHandler.cpp">
<polygon fill="none" stroke="black" points="962.5,-84 962.5,-125 1129.5,-125 1129.5,-84 962.5,-84"/>
<text text-anchor="start" x="970.5" y="-113" font-family="Helvetica,sans-Serif" font-size="10.00">/home/lucamuratore</text>
<text text-anchor="start" x="970.5" y="-102" font-family="Helvetica,sans-Serif" font-size="10.00">/advr&#45;superbuild/external</text>
<text text-anchor="middle" x="1046" y="-91" font-family="Helvetica,sans-Serif" font-size="10.00">/XCM/src/XBotModuleHandler.cpp</text>
</a>
</g>
</g>
<!-- Node11&#45;&gt;Node12 -->
<g id="edge12" class="edge"><title>Node11&#45;&gt;Node12</title>
<path fill="none" stroke="midnightblue" d="M1049.93,-162.441C1049.08,-150.101 1048.11,-136.162 1047.36,-125.164"/>
<polygon fill="midnightblue" stroke="midnightblue" points="1046.46,-163.023 1050.64,-172.758 1053.44,-162.541 1046.46,-163.023"/>
</g>
<!-- Node14&#45;&gt;Node3 -->
<g id="edge19" class="edge"><title>Node14&#45;&gt;Node3</title>
<path fill="none" stroke="midnightblue" d="M575.454,-259.411C521.916,-245.424 453.317,-227.502 401.77,-214.034"/>
<polygon fill="midnightblue" stroke="midnightblue" points="574.708,-262.834 585.268,-261.976 576.478,-256.061 574.708,-262.834"/>
</g>
<!-- Node14&#45;&gt;Node15 -->
<g id="edge15" class="edge"><title>Node14&#45;&gt;Node15</title>
<path fill="none" stroke="midnightblue" d="M744.626,-259.814C751.494,-258.401 758.348,-257.104 765,-256 939.341,-227.068 987.661,-254.43 1161,-220 1164.07,-219.39 1167.19,-218.709 1170.33,-217.971"/>
<polygon fill="midnightblue" stroke="midnightblue" points="743.623,-256.449 734.575,-261.96 745.085,-263.295 743.623,-256.449"/>
</g>
<!-- Node17 -->
<g id="node17" class="node"><title>Node17</title>
<g id="a_node17"><a xlink:href="XBotLoggingPlugin_8h.html" target="_top" xlink:title="/home/lucamuratore\l/advr&#45;superbuild/external\l/XCM/include/XBotPlugin\l/XBotLoggingPlugin.h">
<polygon fill="none" stroke="black" points="622,-167.5 622,-219.5 750,-219.5 750,-167.5 622,-167.5"/>
<text text-anchor="start" x="630" y="-207.5" font-family="Helvetica,sans-Serif" font-size="10.00">/home/lucamuratore</text>
<text text-anchor="start" x="630" y="-196.5" font-family="Helvetica,sans-Serif" font-size="10.00">/advr&#45;superbuild/external</text>
<text text-anchor="start" x="630" y="-185.5" font-family="Helvetica,sans-Serif" font-size="10.00">/XCM/include/XBotPlugin</text>
<text text-anchor="middle" x="686" y="-174.5" font-family="Helvetica,sans-Serif" font-size="10.00">/XBotLoggingPlugin.h</text>
</a>
</g>
</g>
<!-- Node14&#45;&gt;Node17 -->
<g id="edge17" class="edge"><title>Node14&#45;&gt;Node17</title>
<path fill="none" stroke="midnightblue" d="M668.768,-252.16C671.907,-241.658 675.415,-229.919 678.443,-219.788"/>
<polygon fill="midnightblue" stroke="midnightblue" points="665.41,-251.175 665.9,-261.758 672.117,-253.179 665.41,-251.175"/>
</g>
<!-- Node19 -->
<g id="node19" class="node"><title>Node19</title>
<g id="a_node19"><a xlink:href="XBotControlPlugin_8cpp.html" target="_top" xlink:title="/home/lucamuratore\l/advr&#45;superbuild/external\l/XCM/src/XBotControlPlugin.cpp">
<polygon fill="none" stroke="black" points="442.5,-173 442.5,-214 603.5,-214 603.5,-173 442.5,-173"/>
<text text-anchor="start" x="450.5" y="-202" font-family="Helvetica,sans-Serif" font-size="10.00">/home/lucamuratore</text>
<text text-anchor="start" x="450.5" y="-191" font-family="Helvetica,sans-Serif" font-size="10.00">/advr&#45;superbuild/external</text>
<text text-anchor="middle" x="523" y="-180" font-family="Helvetica,sans-Serif" font-size="10.00">/XCM/src/XBotControlPlugin.cpp</text>
</a>
</g>
</g>
<!-- Node14&#45;&gt;Node19 -->
<g id="edge20" class="edge"><title>Node14&#45;&gt;Node19</title>
<path fill="none" stroke="midnightblue" d="M620.798,-256.605C599.639,-243.169 573.884,-226.813 554.117,-214.26"/>
<polygon fill="midnightblue" stroke="midnightblue" points="618.937,-259.569 629.255,-261.976 622.689,-253.66 618.937,-259.569"/>
</g>
<!-- Node16 -->
<g id="node16" class="node"><title>Node16</title>
<g id="a_node16"><a xlink:href="XBotCommunicationPlugin_8cpp.html" target="_top" xlink:title="/home/lucamuratore\l/advr&#45;superbuild/external\l/XCM/src/XBotPlugin/XBotCommunication\lPlugin.cpp">
<polygon fill="none" stroke="black" points="1147.5,-78.5 1147.5,-130.5 1350.5,-130.5 1350.5,-78.5 1147.5,-78.5"/>
<text text-anchor="start" x="1155.5" y="-118.5" font-family="Helvetica,sans-Serif" font-size="10.00">/home/lucamuratore</text>
<text text-anchor="start" x="1155.5" y="-107.5" font-family="Helvetica,sans-Serif" font-size="10.00">/advr&#45;superbuild/external</text>
<text text-anchor="start" x="1155.5" y="-96.5" font-family="Helvetica,sans-Serif" font-size="10.00">/XCM/src/XBotPlugin/XBotCommunication</text>
<text text-anchor="middle" x="1249" y="-85.5" font-family="Helvetica,sans-Serif" font-size="10.00">Plugin.cpp</text>
</a>
</g>
</g>
<!-- Node15&#45;&gt;Node16 -->
<g id="edge16" class="edge"><title>Node15&#45;&gt;Node16</title>
<path fill="none" stroke="midnightblue" d="M1245.44,-157.191C1246.05,-148.282 1246.7,-138.899 1247.27,-130.607"/>
<polygon fill="midnightblue" stroke="midnightblue" points="1241.93,-157.119 1244.74,-167.336 1248.92,-157.601 1241.93,-157.119"/>
</g>
<!-- Node18 -->
<g id="node18" class="node"><title>Node18</title>
<g id="a_node18"><a xlink:href="XBotLoggingPlugin_8cpp.html" target="_top" xlink:title="/home/lucamuratore\l/advr&#45;superbuild/external\l/XCM/src/XBotPlugin/XBotLogging\lPlugin.cpp">
<polygon fill="none" stroke="black" points="601.5,-78.5 601.5,-130.5 770.5,-130.5 770.5,-78.5 601.5,-78.5"/>
<text text-anchor="start" x="609.5" y="-118.5" font-family="Helvetica,sans-Serif" font-size="10.00">/home/lucamuratore</text>
<text text-anchor="start" x="609.5" y="-107.5" font-family="Helvetica,sans-Serif" font-size="10.00">/advr&#45;superbuild/external</text>
<text text-anchor="start" x="609.5" y="-96.5" font-family="Helvetica,sans-Serif" font-size="10.00">/XCM/src/XBotPlugin/XBotLogging</text>
<text text-anchor="middle" x="686" y="-85.5" font-family="Helvetica,sans-Serif" font-size="10.00">Plugin.cpp</text>
</a>
</g>
</g>
<!-- Node17&#45;&gt;Node18 -->
<g id="edge18" class="edge"><title>Node17&#45;&gt;Node18</title>
<path fill="none" stroke="midnightblue" d="M686,-157.191C686,-148.282 686,-138.899 686,-130.607"/>
<polygon fill="midnightblue" stroke="midnightblue" points="682.5,-157.336 686,-167.336 689.5,-157.336 682.5,-157.336"/>
</g>
<!-- Node21&#45;&gt;Node3 -->
<g id="edge24" class="edge"><title>Node21&#45;&gt;Node3</title>
<path fill="none" stroke="midnightblue" d="M327,-340.604C327,-304.501 327,-244.809 327,-214.095"/>
<polygon fill="midnightblue" stroke="midnightblue" points="323.5,-340.992 327,-350.992 330.5,-340.992 323.5,-340.992"/>
</g>
<!-- Node22 -->
<g id="node22" class="node"><title>Node22</title>
<g id="a_node22"><a xlink:href="XBotESCUtils_8cpp.html" target="_top" xlink:title="/home/lucamuratore\l/advr&#45;superbuild/external\l/XCM/src/XBotESCUtils.cpp">
<polygon fill="none" stroke="black" points="155.5,-262 155.5,-303 298.5,-303 298.5,-262 155.5,-262"/>
<text text-anchor="start" x="163.5" y="-291" font-family="Helvetica,sans-Serif" font-size="10.00">/home/lucamuratore</text>
<text text-anchor="start" x="163.5" y="-280" font-family="Helvetica,sans-Serif" font-size="10.00">/advr&#45;superbuild/external</text>
<text text-anchor="middle" x="227" y="-269" font-family="Helvetica,sans-Serif" font-size="10.00">/XCM/src/XBotESCUtils.cpp</text>
</a>
</g>
</g>
<!-- Node21&#45;&gt;Node22 -->
<g id="edge25" class="edge"><title>Node21&#45;&gt;Node22</title>
<path fill="none" stroke="midnightblue" d="M296.685,-344.126C281.537,-330.947 263.521,-315.273 249.602,-303.164"/>
<polygon fill="midnightblue" stroke="midnightblue" points="294.467,-346.835 304.308,-350.758 299.061,-341.554 294.467,-346.835"/>
</g>
<!-- Node24 -->
<g id="node24" class="node"><title>Node24</title>
<g id="a_node24"><a xlink:href="XBotCommunicationHandler_8h.html" target="_top" xlink:title="/home/lucamuratore\l/advr&#45;superbuild/external\l/XCM/include/XCM/XBotCommunication\lHandler.h">
<polygon fill="none" stroke="black" points="1339,-256.5 1339,-308.5 1533,-308.5 1533,-256.5 1339,-256.5"/>
<text text-anchor="start" x="1347" y="-296.5" font-family="Helvetica,sans-Serif" font-size="10.00">/home/lucamuratore</text>
<text text-anchor="start" x="1347" y="-285.5" font-family="Helvetica,sans-Serif" font-size="10.00">/advr&#45;superbuild/external</text>
<text text-anchor="start" x="1347" y="-274.5" font-family="Helvetica,sans-Serif" font-size="10.00">/XCM/include/XCM/XBotCommunication</text>
<text text-anchor="middle" x="1436" y="-263.5" font-family="Helvetica,sans-Serif" font-size="10.00">Handler.h</text>
</a>
</g>
</g>
<!-- Node23&#45;&gt;Node24 -->
<g id="edge27" class="edge"><title>Node23&#45;&gt;Node24</title>
<path fill="none" stroke="midnightblue" d="M1306.21,-346.58C1330.5,-334.777 1359.79,-320.542 1384.39,-308.585"/>
<polygon fill="midnightblue" stroke="midnightblue" points="1304.64,-343.456 1297.17,-350.976 1307.7,-349.752 1304.64,-343.456"/>
</g>
<!-- Node27 -->
<g id="node27" class="node"><title>Node27</title>
<g id="a_node27"><a xlink:href="XBotXDDP_8cpp.html" target="_top" xlink:title="/home/lucamuratore\l/advr&#45;superbuild/external\l/XCM/src/XBotXDDP.cpp">
<polygon fill="none" stroke="black" points="1189.5,-262 1189.5,-303 1320.5,-303 1320.5,-262 1189.5,-262"/>
<text text-anchor="start" x="1197.5" y="-291" font-family="Helvetica,sans-Serif" font-size="10.00">/home/lucamuratore</text>
<text text-anchor="start" x="1197.5" y="-280" font-family="Helvetica,sans-Serif" font-size="10.00">/advr&#45;superbuild/external</text>
<text text-anchor="middle" x="1255" y="-269" font-family="Helvetica,sans-Serif" font-size="10.00">/XCM/src/XBotXDDP.cpp</text>
</a>
</g>
</g>
<!-- Node23&#45;&gt;Node27 -->
<g id="edge31" class="edge"><title>Node23&#45;&gt;Node27</title>
<path fill="none" stroke="midnightblue" d="M1256.31,-340.441C1256.03,-328.101 1255.7,-314.162 1255.45,-303.164"/>
<polygon fill="midnightblue" stroke="midnightblue" points="1252.82,-340.841 1256.55,-350.758 1259.82,-340.681 1252.82,-340.841"/>
</g>
<!-- Node24&#45;&gt;Node15 -->
<g id="edge28" class="edge"><title>Node24&#45;&gt;Node15</title>
<path fill="none" stroke="midnightblue" d="M1371.21,-252.295C1347.63,-241.665 1321.21,-229.755 1298.51,-219.521"/>
<polygon fill="midnightblue" stroke="midnightblue" points="1369.88,-255.534 1380.44,-256.453 1372.76,-249.152 1369.88,-255.534"/>
</g>
<!-- Node25 -->
<g id="node25" class="node"><title>Node25</title>
<g id="a_node25"><a xlink:href="XBotCommunicationHandler_8cpp.html" target="_top" xlink:title="/home/lucamuratore\l/advr&#45;superbuild/external\l/XCM/src/XBotCommunicationHandler.cpp">
<polygon fill="none" stroke="black" points="1334,-173 1334,-214 1538,-214 1538,-173 1334,-173"/>
<text text-anchor="start" x="1342" y="-202" font-family="Helvetica,sans-Serif" font-size="10.00">/home/lucamuratore</text>
<text text-anchor="start" x="1342" y="-191" font-family="Helvetica,sans-Serif" font-size="10.00">/advr&#45;superbuild/external</text>
<text text-anchor="middle" x="1436" y="-180" font-family="Helvetica,sans-Serif" font-size="10.00">/XCM/src/XBotCommunicationHandler.cpp</text>
</a>
</g>
</g>
<!-- Node24&#45;&gt;Node25 -->
<g id="edge29" class="edge"><title>Node24&#45;&gt;Node25</title>
<path fill="none" stroke="midnightblue" d="M1436,-246.155C1436,-235.21 1436,-223.549 1436,-214.082"/>
<polygon fill="midnightblue" stroke="midnightblue" points="1432.5,-246.336 1436,-256.336 1439.5,-246.336 1432.5,-246.336"/>
</g>
<!-- Node26 -->
<g id="node26" class="node"><title>Node26</title>
<g id="a_node26"><a xlink:href="XBotCommunicationMain_8cpp.html" target="_top" xlink:title="/home/lucamuratore\l/advr&#45;superbuild/external\l/XCM/src/XBotCommunicationMain.cpp">
<polygon fill="none" stroke="black" points="1556.5,-173 1556.5,-214 1747.5,-214 1747.5,-173 1556.5,-173"/>
<text text-anchor="start" x="1564.5" y="-202" font-family="Helvetica,sans-Serif" font-size="10.00">/home/lucamuratore</text>
<text text-anchor="start" x="1564.5" y="-191" font-family="Helvetica,sans-Serif" font-size="10.00">/advr&#45;superbuild/external</text>
<text text-anchor="middle" x="1652" y="-180" font-family="Helvetica,sans-Serif" font-size="10.00">/XCM/src/XBotCommunicationMain.cpp</text>
</a>
</g>
</g>
<!-- Node24&#45;&gt;Node26 -->
<g id="edge30" class="edge"><title>Node24&#45;&gt;Node26</title>
<path fill="none" stroke="midnightblue" d="M1507.76,-252.598C1539.11,-239.969 1575.08,-225.482 1603.25,-214.134"/>
<polygon fill="midnightblue" stroke="midnightblue" points="1506.15,-249.47 1498.19,-256.453 1508.77,-255.963 1506.15,-249.47"/>
</g>
</g>
</svg>
