<?xml version="1.0" encoding="UTF-8" standalone="no"?>
<!DOCTYPE svg PUBLIC "-//W3C//DTD SVG 1.1//EN"
 "http://www.w3.org/Graphics/SVG/1.1/DTD/svg11.dtd">
<!-- Generated by graphviz version 2.38.0 (20140413.2041)
 -->
<!-- Title: /home/lucamuratore/advr&#45;superbuild/external/XCM/include/XBotCore&#45;interfaces/XBotPipes.h Pages: 1 -->
<svg width="1397pt" height="195pt"
 viewBox="0.00 0.00 1396.50 195.00" xmlns="http://www.w3.org/2000/svg" xmlns:xlink="http://www.w3.org/1999/xlink">
<g id="graph0" class="graph" transform="scale(1 1) rotate(0) translate(4 191)">
<title>/home/lucamuratore/advr&#45;superbuild/external/XCM/include/XBotCore&#45;interfaces/XBotPipes.h</title>
<!-- Node1 -->
<g id="node1" class="node"><title>Node1</title>
<polygon fill="#bfbfbf" stroke="black" points="234,-134.5 234,-186.5 401,-186.5 401,-134.5 234,-134.5"/>
<text text-anchor="start" x="242" y="-174.5" font-family="Helvetica,sans-Serif" font-size="10.00">/home/lucamuratore</text>
<text text-anchor="start" x="242" y="-163.5" font-family="Helvetica,sans-Serif" font-size="10.00">/advr&#45;superbuild/external</text>
<text text-anchor="start" x="242" y="-152.5" font-family="Helvetica,sans-Serif" font-size="10.00">/XCM/include/XBotCore&#45;interfaces</text>
<text text-anchor="middle" x="317.5" y="-141.5" font-family="Helvetica,sans-Serif" font-size="10.00">/XBotPipes.h</text>
</g>
<!-- Node2 -->
<g id="node2" class="node"><title>Node2</title>
<polygon fill="none" stroke="#bfbfbf" points="41,-78.5 41,-97.5 82,-97.5 82,-78.5 41,-78.5"/>
<text text-anchor="middle" x="61.5" y="-85.5" font-family="Helvetica,sans-Serif" font-size="10.00">string</text>
</g>
<!-- Node1&#45;&gt;Node2 -->
<g id="edge1" class="edge"><title>Node1&#45;&gt;Node2</title>
<path fill="none" stroke="midnightblue" d="M233.908,-137.303C193.725,-126.502 144.655,-113.122 92.0071,-98.0923"/>
<polygon fill="midnightblue" stroke="midnightblue" points="92.7134,-94.6539 82.1363,-95.267 90.7871,-101.384 92.7134,-94.6539"/>
</g>
<!-- Node3 -->
<g id="node3" class="node"><title>Node3</title>
<polygon fill="none" stroke="#bfbfbf" points="100.5,-78.5 100.5,-97.5 152.5,-97.5 152.5,-78.5 100.5,-78.5"/>
<text text-anchor="middle" x="126.5" y="-85.5" font-family="Helvetica,sans-Serif" font-size="10.00">memory</text>
</g>
<!-- Node1&#45;&gt;Node3 -->
<g id="edge2" class="edge"><title>Node1&#45;&gt;Node3</title>
<path fill="none" stroke="midnightblue" d="M249.623,-134.446C218.9,-123.106 184.005,-110.226 159.229,-101.081"/>
<polygon fill="midnightblue" stroke="midnightblue" points="160.195,-97.7063 149.601,-97.527 157.771,-104.273 160.195,-97.7063"/>
</g>
<!-- Node4 -->
<g id="node4" class="node"><title>Node4</title>
<polygon fill="none" stroke="#bfbfbf" points="170.5,-78.5 170.5,-97.5 224.5,-97.5 224.5,-78.5 170.5,-78.5"/>
<text text-anchor="middle" x="197.5" y="-85.5" font-family="Helvetica,sans-Serif" font-size="10.00">iostream</text>
</g>
<!-- Node1&#45;&gt;Node4 -->
<g id="edge3" class="edge"><title>Node1&#45;&gt;Node4</title>
<path fill="none" stroke="midnightblue" d="M274.855,-134.446C256.668,-123.761 236.154,-111.709 220.823,-102.702"/>
<polygon fill="midnightblue" stroke="midnightblue" points="222.409,-99.5748 212.014,-97.527 218.863,-105.61 222.409,-99.5748"/>
</g>
<!-- Node5 -->
<g id="node5" class="node"><title>Node5</title>
<polygon fill="none" stroke="#bfbfbf" points="242.5,-78.5 242.5,-97.5 310.5,-97.5 310.5,-78.5 242.5,-78.5"/>
<text text-anchor="middle" x="276.5" y="-85.5" font-family="Helvetica,sans-Serif" font-size="10.00">sys/types.h</text>
</g>
<!-- Node1&#45;&gt;Node5 -->
<g id="edge4" class="edge"><title>Node1&#45;&gt;Node5</title>
<path fill="none" stroke="midnightblue" d="M302.929,-134.446C297.569,-125.229 291.618,-114.995 286.721,-106.576"/>
<polygon fill="midnightblue" stroke="midnightblue" points="289.61,-104.58 281.557,-97.6955 283.559,-108.1 289.61,-104.58"/>
</g>
<!-- Node6 -->
<g id="node6" class="node"><title>Node6</title>
<polygon fill="none" stroke="#bfbfbf" points="328.5,-78.5 328.5,-97.5 388.5,-97.5 388.5,-78.5 328.5,-78.5"/>
<text text-anchor="middle" x="358.5" y="-85.5" font-family="Helvetica,sans-Serif" font-size="10.00">sys/stat.h</text>
</g>
<!-- Node1&#45;&gt;Node6 -->
<g id="edge5" class="edge"><title>Node1&#45;&gt;Node6</title>
<path fill="none" stroke="midnightblue" d="M332.071,-134.446C337.431,-125.229 343.382,-114.995 348.279,-106.576"/>
<polygon fill="midnightblue" stroke="midnightblue" points="351.441,-108.1 353.443,-97.6955 345.39,-104.58 351.441,-108.1"/>
</g>
<!-- Node7 -->
<g id="node7" class="node"><title>Node7</title>
<polygon fill="none" stroke="#bfbfbf" points="406.5,-78.5 406.5,-97.5 450.5,-97.5 450.5,-78.5 406.5,-78.5"/>
<text text-anchor="middle" x="428.5" y="-85.5" font-family="Helvetica,sans-Serif" font-size="10.00">fcntl.h</text>
</g>
<!-- Node1&#45;&gt;Node7 -->
<g id="edge6" class="edge"><title>Node1&#45;&gt;Node7</title>
<path fill="none" stroke="midnightblue" d="M356.947,-134.446C373.611,-123.862 392.388,-111.936 406.524,-102.958"/>
<polygon fill="midnightblue" stroke="midnightblue" points="408.51,-105.843 415.075,-97.527 404.757,-99.9339 408.51,-105.843"/>
</g>
<!-- Node8 -->
<g id="node8" class="node"><title>Node8</title>
<polygon fill="none" stroke="#bfbfbf" points="469,-78.5 469,-97.5 520,-97.5 520,-78.5 469,-78.5"/>
<text text-anchor="middle" x="494.5" y="-85.5" font-family="Helvetica,sans-Serif" font-size="10.00">unistd.h</text>
</g>
<!-- Node1&#45;&gt;Node8 -->
<g id="edge7" class="edge"><title>Node1&#45;&gt;Node8</title>
<path fill="none" stroke="midnightblue" d="M380.402,-134.446C408.619,-123.207 440.635,-110.455 463.556,-101.325"/>
<polygon fill="midnightblue" stroke="midnightblue" points="465.097,-104.479 473.092,-97.527 462.507,-97.9758 465.097,-104.479"/>
</g>
<!-- Node9 -->
<g id="node9" class="node"><title>Node9</title>
<g id="a_node9"><a xlink:href="XBotUtils_8h.html" target="_top" xlink:title="XCM/XBotUtils.h">
<polygon fill="none" stroke="black" points="538.5,-78.5 538.5,-97.5 630.5,-97.5 630.5,-78.5 538.5,-78.5"/>
<text text-anchor="middle" x="584.5" y="-85.5" font-family="Helvetica,sans-Serif" font-size="10.00">XCM/XBotUtils.h</text>
</a>
</g>
</g>
<!-- Node1&#45;&gt;Node9 -->
<g id="edge8" class="edge"><title>Node1&#45;&gt;Node9</title>
<path fill="none" stroke="midnightblue" d="M401.248,-137.387C447.938,-125.058 504.103,-110.228 541.843,-100.263"/>
<polygon fill="midnightblue" stroke="midnightblue" points="543.2,-103.525 551.975,-97.5879 541.413,-96.757 543.2,-103.525"/>
</g>
<!-- Node10 -->
<g id="node10" class="node"><title>Node10</title>
<polygon fill="none" stroke="#bfbfbf" points="0,-11.5 0,-30.5 49,-30.5 49,-11.5 0,-11.5"/>
<text text-anchor="middle" x="24.5" y="-18.5" font-family="Helvetica,sans-Serif" font-size="10.00">stdint.h</text>
</g>
<!-- Node9&#45;&gt;Node10 -->
<g id="edge9" class="edge"><title>Node9&#45;&gt;Node10</title>
<path fill="none" stroke="midnightblue" d="M538.327,-79.1492C535.344,-78.7333 532.382,-78.3453 529.5,-78 321.047,-53.0252 258.817,-104.845 58.5,-42 53.8913,-40.5541 49.2413,-38.3868 44.9225,-36.0053"/>
<polygon fill="midnightblue" stroke="midnightblue" points="46.5012,-32.8685 36.1419,-30.6469 42.8547,-38.8438 46.5012,-32.8685"/>
</g>
<!-- Node11 -->
<g id="node11" class="node"><title>Node11</title>
<polygon fill="none" stroke="#bfbfbf" points="67.5,-11.5 67.5,-30.5 113.5,-30.5 113.5,-11.5 67.5,-11.5"/>
<text text-anchor="middle" x="90.5" y="-18.5" font-family="Helvetica,sans-Serif" font-size="10.00">stdio.h</text>
</g>
<!-- Node9&#45;&gt;Node11 -->
<g id="edge10" class="edge"><title>Node9&#45;&gt;Node11</title>
<path fill="none" stroke="midnightblue" d="M538.322,-79.1894C535.34,-78.7636 532.38,-78.3625 529.5,-78 349.327,-55.3217 294.681,-99.7114 122.5,-42 118.237,-40.5712 113.96,-38.4712 109.983,-36.1626"/>
<polygon fill="midnightblue" stroke="midnightblue" points="111.694,-33.1011 101.395,-30.6148 107.896,-38.9809 111.694,-33.1011"/>
</g>
<!-- Node12 -->
<g id="node12" class="node"><title>Node12</title>
<polygon fill="none" stroke="#bfbfbf" points="131.5,-11.5 131.5,-30.5 181.5,-30.5 181.5,-11.5 131.5,-11.5"/>
<text text-anchor="middle" x="156.5" y="-18.5" font-family="Helvetica,sans-Serif" font-size="10.00">fstream</text>
</g>
<!-- Node9&#45;&gt;Node12 -->
<g id="edge11" class="edge"><title>Node9&#45;&gt;Node12</title>
<path fill="none" stroke="midnightblue" d="M538.315,-79.2485C535.334,-78.8083 532.377,-78.3878 529.5,-78 379.344,-57.7581 334.381,-89.483 190.5,-42 185.913,-40.4863 181.273,-38.2885 176.957,-35.8985"/>
<polygon fill="midnightblue" stroke="midnightblue" points="178.535,-32.7614 168.173,-30.5504 174.894,-38.7404 178.535,-32.7614"/>
</g>
<!-- Node13 -->
<g id="node13" class="node"><title>Node13</title>
<polygon fill="none" stroke="#bfbfbf" points="199.5,-11.5 199.5,-30.5 251.5,-30.5 251.5,-11.5 199.5,-11.5"/>
<text text-anchor="middle" x="225.5" y="-18.5" font-family="Helvetica,sans-Serif" font-size="10.00">sstream</text>
</g>
<!-- Node9&#45;&gt;Node13 -->
<g id="edge12" class="edge"><title>Node9&#45;&gt;Node13</title>
<path fill="none" stroke="midnightblue" d="M538.302,-79.34C535.325,-78.8774 532.371,-78.4269 529.5,-78 410.19,-60.2586 374.765,-80.6403 260.5,-42 255.901,-40.4447 251.224,-38.2635 246.849,-35.91"/>
<polygon fill="midnightblue" stroke="midnightblue" points="248.298,-32.7023 237.903,-30.6585 244.755,-38.7392 248.298,-32.7023"/>
</g>
<!-- Node14 -->
<g id="node14" class="node"><title>Node14</title>
<polygon fill="none" stroke="#bfbfbf" points="269.5,-11.5 269.5,-30.5 393.5,-30.5 393.5,-11.5 269.5,-11.5"/>
<text text-anchor="middle" x="331.5" y="-18.5" font-family="Helvetica,sans-Serif" font-size="10.00">boost/circular_buffer.hpp</text>
</g>
<!-- Node9&#45;&gt;Node14 -->
<g id="edge13" class="edge"><title>Node9&#45;&gt;Node14</title>
<path fill="none" stroke="midnightblue" d="M548.499,-78.4602C511.72,-69.6511 453.005,-55.3535 402.5,-42 392.286,-39.2994 381.281,-36.2624 371.057,-33.3861"/>
<polygon fill="midnightblue" stroke="midnightblue" points="371.725,-29.9379 361.15,-30.582 369.819,-36.6733 371.725,-29.9379"/>
</g>
<!-- Node15 -->
<g id="node15" class="node"><title>Node15</title>
<polygon fill="none" stroke="#bfbfbf" points="411.5,-6 411.5,-36 513.5,-36 513.5,-6 411.5,-6"/>
<text text-anchor="start" x="419.5" y="-24" font-family="Helvetica,sans-Serif" font-size="10.00">boost/accumulators</text>
<text text-anchor="middle" x="462.5" y="-13" font-family="Helvetica,sans-Serif" font-size="10.00">/accumulators.hpp</text>
</g>
<!-- Node9&#45;&gt;Node15 -->
<g id="edge14" class="edge"><title>Node9&#45;&gt;Node15</title>
<path fill="none" stroke="midnightblue" d="M568.299,-78.3685C550.446,-68.8566 521.183,-53.2655 497.953,-40.8888"/>
<polygon fill="midnightblue" stroke="midnightblue" points="499.533,-37.7649 489.061,-36.1516 496.241,-43.9427 499.533,-37.7649"/>
</g>
<!-- Node16 -->
<g id="node16" class="node"><title>Node16</title>
<polygon fill="none" stroke="#bfbfbf" points="532,-6 532,-36 637,-36 637,-6 532,-6"/>
<text text-anchor="start" x="540" y="-24" font-family="Helvetica,sans-Serif" font-size="10.00">boost/accumulators</text>
<text text-anchor="middle" x="584.5" y="-13" font-family="Helvetica,sans-Serif" font-size="10.00">/statistics/count.hpp</text>
</g>
<!-- Node9&#45;&gt;Node16 -->
<g id="edge15" class="edge"><title>Node9&#45;&gt;Node16</title>
<path fill="none" stroke="midnightblue" d="M584.5,-78.2338C584.5,-70.0406 584.5,-57.4225 584.5,-46.2136"/>
<polygon fill="midnightblue" stroke="midnightblue" points="588,-46.089 584.5,-36.089 581,-46.0891 588,-46.089"/>
</g>
<!-- Node17 -->
<g id="node17" class="node"><title>Node17</title>
<polygon fill="none" stroke="#bfbfbf" points="655,-6 655,-36 760,-36 760,-6 655,-6"/>
<text text-anchor="start" x="663" y="-24" font-family="Helvetica,sans-Serif" font-size="10.00">boost/accumulators</text>
<text text-anchor="middle" x="707.5" y="-13" font-family="Helvetica,sans-Serif" font-size="10.00">/statistics/mean.hpp</text>
</g>
<!-- Node9&#45;&gt;Node17 -->
<g id="edge16" class="edge"><title>Node9&#45;&gt;Node17</title>
<path fill="none" stroke="midnightblue" d="M600.833,-78.3685C618.833,-68.8566 648.336,-53.2655 671.757,-40.8888"/>
<polygon fill="midnightblue" stroke="midnightblue" points="673.515,-43.9184 680.721,-36.1516 670.244,-37.7295 673.515,-43.9184"/>
</g>
<!-- Node18 -->
<g id="node18" class="node"><title>Node18</title>
<polygon fill="none" stroke="#bfbfbf" points="778.5,-6 778.5,-36 880.5,-36 880.5,-6 778.5,-6"/>
<text text-anchor="start" x="786.5" y="-24" font-family="Helvetica,sans-Serif" font-size="10.00">boost/accumulators</text>
<text text-anchor="middle" x="829.5" y="-13" font-family="Helvetica,sans-Serif" font-size="10.00">/statistics/min.hpp</text>
</g>
<!-- Node9&#45;&gt;Node18 -->
<g id="edge17" class="edge"><title>Node9&#45;&gt;Node18</title>
<path fill="none" stroke="midnightblue" d="M623.727,-78.4541C661.346,-70.0244 719.628,-56.3506 769.5,-42 772.666,-41.0891 775.913,-40.117 779.18,-39.1107"/>
<polygon fill="midnightblue" stroke="midnightblue" points="780.496,-42.3657 788.976,-36.0154 778.387,-35.6909 780.496,-42.3657"/>
</g>
<!-- Node19 -->
<g id="node19" class="node"><title>Node19</title>
<polygon fill="none" stroke="#bfbfbf" points="898.5,-6 898.5,-36 1000.5,-36 1000.5,-6 898.5,-6"/>
<text text-anchor="start" x="906.5" y="-24" font-family="Helvetica,sans-Serif" font-size="10.00">boost/accumulators</text>
<text text-anchor="middle" x="949.5" y="-13" font-family="Helvetica,sans-Serif" font-size="10.00">/statistics/max.hpp</text>
</g>
<!-- Node9&#45;&gt;Node19 -->
<g id="edge18" class="edge"><title>Node9&#45;&gt;Node19</title>
<path fill="none" stroke="midnightblue" d="M630.707,-82.7304C690.873,-76.5924 799.038,-63.5743 889.5,-42 893.297,-41.0945 897.196,-40.0549 901.096,-38.9359"/>
<polygon fill="midnightblue" stroke="midnightblue" points="902.175,-42.2662 910.734,-36.0217 900.149,-35.5658 902.175,-42.2662"/>
</g>
<!-- Node20 -->
<g id="node20" class="node"><title>Node20</title>
<polygon fill="none" stroke="#bfbfbf" points="1018.5,-6 1018.5,-36 1136.5,-36 1136.5,-6 1018.5,-6"/>
<text text-anchor="start" x="1026.5" y="-24" font-family="Helvetica,sans-Serif" font-size="10.00">boost/accumulators</text>
<text text-anchor="middle" x="1077.5" y="-13" font-family="Helvetica,sans-Serif" font-size="10.00">/statistics/variance.hpp</text>
</g>
<!-- Node9&#45;&gt;Node20 -->
<g id="edge19" class="edge"><title>Node9&#45;&gt;Node20</title>
<path fill="none" stroke="midnightblue" d="M630.505,-84.8542C708.922,-80.5914 873.22,-69.0258 1009.5,-42 1014.23,-41.062 1019.11,-39.9425 1023.97,-38.719"/>
<polygon fill="midnightblue" stroke="midnightblue" points="1025.13,-42.0339 1033.89,-36.0867 1023.33,-35.2679 1025.13,-42.0339"/>
</g>
<!-- Node21 -->
<g id="node21" class="node"><title>Node21</title>
<polygon fill="none" stroke="#bfbfbf" points="1154.5,-6 1154.5,-36 1268.5,-36 1268.5,-6 1154.5,-6"/>
<text text-anchor="start" x="1162.5" y="-24" font-family="Helvetica,sans-Serif" font-size="10.00">boost/accumulators</text>
<text text-anchor="middle" x="1211.5" y="-13" font-family="Helvetica,sans-Serif" font-size="10.00">/statistics/error_of.hpp</text>
</g>
<!-- Node9&#45;&gt;Node21 -->
<g id="edge20" class="edge"><title>Node9&#45;&gt;Node21</title>
<path fill="none" stroke="midnightblue" d="M630.757,-86.6262C727.282,-85.1175 956.855,-77.7208 1145.5,-42 1150.25,-41.1006 1155.14,-39.9875 1160.02,-38.7503"/>
<polygon fill="midnightblue" stroke="midnightblue" points="1161.2,-42.0559 1169.94,-36.0656 1159.37,-35.2989 1161.2,-42.0559"/>
</g>
<!-- Node22 -->
<g id="node22" class="node"><title>Node22</title>
<polygon fill="none" stroke="#bfbfbf" points="1286.5,-0.5 1286.5,-41.5 1388.5,-41.5 1388.5,-0.5 1286.5,-0.5"/>
<text text-anchor="start" x="1294.5" y="-29.5" font-family="Helvetica,sans-Serif" font-size="10.00">boost/accumulators</text>
<text text-anchor="start" x="1294.5" y="-18.5" font-family="Helvetica,sans-Serif" font-size="10.00">/statistics/error_of</text>
<text text-anchor="middle" x="1337.5" y="-7.5" font-family="Helvetica,sans-Serif" font-size="10.00">_mean.hpp</text>
</g>
<!-- Node9&#45;&gt;Node22 -->
<g id="edge21" class="edge"><title>Node9&#45;&gt;Node22</title>
<path fill="none" stroke="midnightblue" d="M630.591,-85.5508C761.407,-81.1993 1134.16,-67.0885 1276.13,-41.9225"/>
<polygon fill="midnightblue" stroke="midnightblue" points="1277.16,-45.2905 1286.35,-40.0124 1275.87,-38.4098 1277.16,-45.2905"/>
</g>
</g>
</svg>
