<?xml version="1.0" encoding="UTF-8" standalone="no"?>
<!DOCTYPE svg PUBLIC "-//W3C//DTD SVG 1.1//EN"
 "http://www.w3.org/Graphics/SVG/1.1/DTD/svg11.dtd">
<!-- Generated by graphviz version 2.38.0 (20140413.2041)
 -->
<!-- Title: /home/lucamuratore/advr&#45;superbuild/external/XCM/src/XBotModuleHandler.cpp Pages: 1 -->
<svg width="3792pt" height="441pt"
 viewBox="0.00 0.00 3792.00 441.00" xmlns="http://www.w3.org/2000/svg" xmlns:xlink="http://www.w3.org/1999/xlink">
<g id="graph0" class="graph" transform="scale(1 1) rotate(0) translate(4 437)">
<title>/home/lucamuratore/advr&#45;superbuild/external/XCM/src/XBotModuleHandler.cpp</title>
<!-- Node1 -->
<g id="node1" class="node"><title>Node1</title>
<polygon fill="#bfbfbf" stroke="black" points="1008.5,-391.5 1008.5,-432.5 1175.5,-432.5 1175.5,-391.5 1008.5,-391.5"/>
<text text-anchor="start" x="1016.5" y="-420.5" font-family="Helvetica,sans-Serif" font-size="10.00">/home/lucamuratore</text>
<text text-anchor="start" x="1016.5" y="-409.5" font-family="Helvetica,sans-Serif" font-size="10.00">/advr&#45;superbuild/external</text>
<text text-anchor="middle" x="1092" y="-398.5" font-family="Helvetica,sans-Serif" font-size="10.00">/XCM/src/XBotModuleHandler.cpp</text>
</g>
<!-- Node2 -->
<g id="node2" class="node"><title>Node2</title>
<g id="a_node2"><a xlink:href="XBotModuleHandler_8h.html" target="_top" xlink:title="XCM/XBotModuleHandler.h">
<polygon fill="none" stroke="black" points="1023.5,-335.5 1023.5,-354.5 1160.5,-354.5 1160.5,-335.5 1023.5,-335.5"/>
<text text-anchor="middle" x="1092" y="-342.5" font-family="Helvetica,sans-Serif" font-size="10.00">XCM/XBotModuleHandler.h</text>
</a>
</g>
</g>
<!-- Node1&#45;&gt;Node2 -->
<g id="edge1" class="edge"><title>Node1&#45;&gt;Node2</title>
<path fill="none" stroke="midnightblue" d="M1092,-391.498C1092,-383.065 1092,-373.235 1092,-364.874"/>
<polygon fill="midnightblue" stroke="midnightblue" points="1095.5,-364.652 1092,-354.652 1088.5,-364.653 1095.5,-364.652"/>
</g>
<!-- Node3 -->
<g id="node3" class="node"><title>Node3</title>
<g id="a_node3"><a xlink:href="XBotControlModule_8h.html" target="_top" xlink:title="XCM/XBotControlModule.h">
<polygon fill="none" stroke="black" points="847.5,-274 847.5,-293 982.5,-293 982.5,-274 847.5,-274"/>
<text text-anchor="middle" x="915" y="-281" font-family="Helvetica,sans-Serif" font-size="10.00">XCM/XBotControlModule.h</text>
</a>
</g>
</g>
<!-- Node2&#45;&gt;Node3 -->
<g id="edge2" class="edge"><title>Node2&#45;&gt;Node3</title>
<path fill="none" stroke="midnightblue" d="M1066.64,-335.475C1036.02,-325.18 984.343,-307.81 949.954,-296.25"/>
<polygon fill="midnightblue" stroke="midnightblue" points="950.907,-292.878 940.313,-293.009 948.676,-299.513 950.907,-292.878"/>
</g>
<!-- Node21 -->
<g id="node21" class="node"><title>Node21</title>
<g id="a_node21"><a xlink:href="TimeProvider_8h.html" target="_top" xlink:title="XCM/TimeProvider.h">
<polygon fill="none" stroke="black" points="1079,-274 1079,-293 1187,-293 1187,-274 1079,-274"/>
<text text-anchor="middle" x="1133" y="-281" font-family="Helvetica,sans-Serif" font-size="10.00">XCM/TimeProvider.h</text>
</a>
</g>
</g>
<!-- Node2&#45;&gt;Node21 -->
<g id="edge29" class="edge"><title>Node2&#45;&gt;Node21</title>
<path fill="none" stroke="midnightblue" d="M1097.87,-335.475C1103.96,-326.638 1113.64,-312.589 1121.3,-301.475"/>
<polygon fill="midnightblue" stroke="midnightblue" points="1124.34,-303.229 1127.14,-293.009 1118.58,-299.258 1124.34,-303.229"/>
</g>
<!-- Node22 -->
<g id="node22" class="node"><title>Node22</title>
<g id="a_node22"><a xlink:href="XDomainCommunication_8h.html" target="_top" xlink:title="XBotCore&#45;interfaces\l/XDomainCommunication.h">
<polygon fill="none" stroke="black" points="2144.5,-268.5 2144.5,-298.5 2281.5,-298.5 2281.5,-268.5 2144.5,-268.5"/>
<text text-anchor="start" x="2152.5" y="-286.5" font-family="Helvetica,sans-Serif" font-size="10.00">XBotCore&#45;interfaces</text>
<text text-anchor="middle" x="2213" y="-275.5" font-family="Helvetica,sans-Serif" font-size="10.00">/XDomainCommunication.h</text>
</a>
</g>
</g>
<!-- Node2&#45;&gt;Node22 -->
<g id="edge31" class="edge"><title>Node2&#45;&gt;Node22</title>
<path fill="none" stroke="midnightblue" d="M1160.86,-340.345C1358.19,-329.871 1924.97,-299.788 2134.18,-288.684"/>
<polygon fill="midnightblue" stroke="midnightblue" points="2134.67,-292.163 2144.47,-288.138 2134.3,-285.173 2134.67,-292.163"/>
</g>
<!-- Node42 -->
<g id="node42" class="node"><title>Node42</title>
<g id="a_node42"><a xlink:href="XBotCommunicationInterface_8h.html" target="_top" xlink:title="XCM/XBotCommunicationInterface.h">
<polygon fill="none" stroke="black" points="943.5,-140 943.5,-159 1122.5,-159 1122.5,-140 943.5,-140"/>
<text text-anchor="middle" x="1033" y="-147" font-family="Helvetica,sans-Serif" font-size="10.00">XCM/XBotCommunicationInterface.h</text>
</a>
</g>
</g>
<!-- Node2&#45;&gt;Node42 -->
<g id="edge68" class="edge"><title>Node2&#45;&gt;Node42</title>
<path fill="none" stroke="midnightblue" d="M1087.05,-335.277C1082.17,-326.383 1074.76,-312.073 1070,-299 1053.45,-253.583 1041.74,-197.718 1036.34,-169.193"/>
<polygon fill="midnightblue" stroke="midnightblue" points="1039.73,-168.261 1034.48,-159.059 1032.85,-169.528 1039.73,-168.261"/>
</g>
<!-- Node4 -->
<g id="node4" class="node"><title>Node4</title>
<polygon fill="none" stroke="#bfbfbf" points="898,-67.5 898,-86.5 1050,-86.5 1050,-67.5 898,-67.5"/>
<text text-anchor="middle" x="974" y="-74.5" font-family="Helvetica,sans-Serif" font-size="10.00">XBotInterface/RobotInterface.h</text>
</g>
<!-- Node3&#45;&gt;Node4 -->
<g id="edge3" class="edge"><title>Node3&#45;&gt;Node4</title>
<path fill="none" stroke="midnightblue" d="M914.663,-273.766C914.057,-250.267 914.356,-184.088 934,-134 939.725,-119.401 950.094,-105.052 958.84,-94.5337"/>
<polygon fill="midnightblue" stroke="midnightblue" points="961.75,-96.5218 965.668,-86.6781 956.466,-91.9299 961.75,-96.5218"/>
</g>
<!-- Node5 -->
<g id="node5" class="node"><title>Node5</title>
<g id="a_node5"><a xlink:href="XBotPlugin_8h.html" target="_top" xlink:title="XBotCore&#45;interfaces\l/XBotPlugin.h">
<polygon fill="none" stroke="black" points="458.5,-201.5 458.5,-231.5 563.5,-231.5 563.5,-201.5 458.5,-201.5"/>
<text text-anchor="start" x="466.5" y="-219.5" font-family="Helvetica,sans-Serif" font-size="10.00">XBotCore&#45;interfaces</text>
<text text-anchor="middle" x="511" y="-208.5" font-family="Helvetica,sans-Serif" font-size="10.00">/XBotPlugin.h</text>
</a>
</g>
</g>
<!-- Node3&#45;&gt;Node5 -->
<g id="edge4" class="edge"><title>Node3&#45;&gt;Node5</title>
<path fill="none" stroke="midnightblue" d="M861.769,-273.936C787.538,-261.992 653.162,-240.373 574.023,-227.64"/>
<polygon fill="midnightblue" stroke="midnightblue" points="574.136,-224.113 563.707,-225.98 573.024,-231.024 574.136,-224.113"/>
</g>
<!-- Node6 -->
<g id="node6" class="node"><title>Node6</title>
<g id="a_node6"><a xlink:href="IXBotJoint_8h.html" target="_top" xlink:title="XBotCore&#45;interfaces\l/IXBotJoint.h">
<polygon fill="none" stroke="black" points="458.5,-134.5 458.5,-164.5 563.5,-164.5 563.5,-134.5 458.5,-134.5"/>
<text text-anchor="start" x="466.5" y="-152.5" font-family="Helvetica,sans-Serif" font-size="10.00">XBotCore&#45;interfaces</text>
<text text-anchor="middle" x="511" y="-141.5" font-family="Helvetica,sans-Serif" font-size="10.00">/IXBotJoint.h</text>
</a>
</g>
</g>
<!-- Node5&#45;&gt;Node6 -->
<g id="edge5" class="edge"><title>Node5&#45;&gt;Node6</title>
<path fill="none" stroke="midnightblue" d="M511,-201.396C511,-193.645 511,-183.812 511,-174.86"/>
<polygon fill="midnightblue" stroke="midnightblue" points="514.5,-174.576 511,-164.577 507.5,-174.577 514.5,-174.576"/>
</g>
<!-- Node7 -->
<g id="node7" class="node"><title>Node7</title>
<polygon fill="none" stroke="#bfbfbf" points="412.5,-67.5 412.5,-86.5 447.5,-86.5 447.5,-67.5 412.5,-67.5"/>
<text text-anchor="middle" x="430" y="-74.5" font-family="Helvetica,sans-Serif" font-size="10.00">map</text>
</g>
<!-- Node5&#45;&gt;Node7 -->
<g id="edge25" class="edge"><title>Node5&#45;&gt;Node7</title>
<path fill="none" stroke="midnightblue" d="M486.67,-201.396C473.564,-192.566 458.233,-180.02 449,-165 436.128,-144.058 431.916,-115.569 430.572,-96.9864"/>
<polygon fill="midnightblue" stroke="midnightblue" points="434.06,-96.6606 430.054,-86.8522 427.069,-97.0178 434.06,-96.6606"/>
</g>
<!-- Node8 -->
<g id="node8" class="node"><title>Node8</title>
<polygon fill="none" stroke="#bfbfbf" points="327,-67.5 327,-86.5 371,-86.5 371,-67.5 327,-67.5"/>
<text text-anchor="middle" x="349" y="-74.5" font-family="Helvetica,sans-Serif" font-size="10.00">vector</text>
</g>
<!-- Node5&#45;&gt;Node8 -->
<g id="edge26" class="edge"><title>Node5&#45;&gt;Node8</title>
<path fill="none" stroke="midnightblue" d="M458.261,-211.082C398.92,-204.89 308.038,-191.309 287,-165 267.209,-140.251 301.452,-109.785 326.419,-92.2568"/>
<polygon fill="midnightblue" stroke="midnightblue" points="328.429,-95.1228 334.76,-86.6271 324.513,-89.3208 328.429,-95.1228"/>
</g>
<!-- Node9 -->
<g id="node9" class="node"><title>Node9</title>
<polygon fill="none" stroke="#bfbfbf" points="727,-0.5 727,-19.5 779,-19.5 779,-0.5 727,-0.5"/>
<text text-anchor="middle" x="753" y="-7.5" font-family="Helvetica,sans-Serif" font-size="10.00">memory</text>
</g>
<!-- Node5&#45;&gt;Node9 -->
<g id="edge27" class="edge"><title>Node5&#45;&gt;Node9</title>
<path fill="none" stroke="midnightblue" d="M563.522,-208.426C615.806,-200.341 691.184,-185.526 712,-165 749.022,-128.494 753.784,-62.5999 753.698,-30.1349"/>
<polygon fill="midnightblue" stroke="midnightblue" points="757.191,-29.7333 753.498,-19.8029 750.192,-29.8689 757.191,-29.7333"/>
</g>
<!-- Node10 -->
<g id="node10" class="node"><title>Node10</title>
<polygon fill="none" stroke="#bfbfbf" points="611.5,-67.5 611.5,-86.5 652.5,-86.5 652.5,-67.5 611.5,-67.5"/>
<text text-anchor="middle" x="632" y="-74.5" font-family="Helvetica,sans-Serif" font-size="10.00">string</text>
</g>
<!-- Node5&#45;&gt;Node10 -->
<g id="edge28" class="edge"><title>Node5&#45;&gt;Node10</title>
<path fill="none" stroke="midnightblue" d="M563.813,-208.188C612.341,-200.26 679.082,-185.876 695,-165 714.32,-139.664 679.789,-109.394 654.683,-92.0619"/>
<polygon fill="midnightblue" stroke="midnightblue" points="656.567,-89.1118 646.299,-86.5001 652.697,-94.9449 656.567,-89.1118"/>
</g>
<!-- Node11 -->
<g id="node11" class="node"><title>Node11</title>
<g id="a_node11"><a xlink:href="IXBotModel_8h.html" target="_top" xlink:title="XBotCore&#45;interfaces\l/IXBotModel.h">
<polygon fill="none" stroke="black" points="296.5,-134.5 296.5,-164.5 401.5,-164.5 401.5,-134.5 296.5,-134.5"/>
<text text-anchor="start" x="304.5" y="-152.5" font-family="Helvetica,sans-Serif" font-size="10.00">XBotCore&#45;interfaces</text>
<text text-anchor="middle" x="349" y="-141.5" font-family="Helvetica,sans-Serif" font-size="10.00">/IXBotModel.h</text>
</a>
</g>
</g>
<!-- Node5&#45;&gt;Node11 -->
<g id="edge10" class="edge"><title>Node5&#45;&gt;Node11</title>
<path fill="none" stroke="midnightblue" d="M475.848,-201.396C451.754,-191.728 419.589,-178.823 393.678,-168.426"/>
<polygon fill="midnightblue" stroke="midnightblue" points="394.667,-165.052 384.083,-164.577 392.06,-171.549 394.667,-165.052"/>
</g>
<!-- Node12 -->
<g id="node12" class="node"><title>Node12</title>
<g id="a_node12"><a xlink:href="IXBotFT_8h.html" target="_top" xlink:title="XBotCore&#45;interfaces\l/IXBotFT.h">
<polygon fill="none" stroke="black" points="581.5,-134.5 581.5,-164.5 686.5,-164.5 686.5,-134.5 581.5,-134.5"/>
<text text-anchor="start" x="589.5" y="-152.5" font-family="Helvetica,sans-Serif" font-size="10.00">XBotCore&#45;interfaces</text>
<text text-anchor="middle" x="634" y="-141.5" font-family="Helvetica,sans-Serif" font-size="10.00">/IXBotFT.h</text>
</a>
</g>
</g>
<!-- Node5&#45;&gt;Node12 -->
<g id="edge14" class="edge"><title>Node5&#45;&gt;Node12</title>
<path fill="none" stroke="midnightblue" d="M537.689,-201.396C555.5,-191.984 579.118,-179.503 598.508,-169.256"/>
<polygon fill="midnightblue" stroke="midnightblue" points="600.157,-172.343 607.363,-164.577 596.886,-166.154 600.157,-172.343"/>
</g>
<!-- Node13 -->
<g id="node13" class="node"><title>Node13</title>
<g id="a_node13"><a xlink:href="IXBotIMU_8h.html" target="_top" xlink:title="XBotCore&#45;interfaces\l/IXBotIMU.h">
<polygon fill="none" stroke="black" points="134.5,-134.5 134.5,-164.5 239.5,-164.5 239.5,-134.5 134.5,-134.5"/>
<text text-anchor="start" x="142.5" y="-152.5" font-family="Helvetica,sans-Serif" font-size="10.00">XBotCore&#45;interfaces</text>
<text text-anchor="middle" x="187" y="-141.5" font-family="Helvetica,sans-Serif" font-size="10.00">/IXBotIMU.h</text>
</a>
</g>
</g>
<!-- Node5&#45;&gt;Node13 -->
<g id="edge15" class="edge"><title>Node5&#45;&gt;Node13</title>
<path fill="none" stroke="midnightblue" d="M458.275,-205.445C406.282,-195.458 324.584,-179.571 254,-165 252.543,-164.699 251.069,-164.393 249.582,-164.083"/>
<polygon fill="midnightblue" stroke="midnightblue" points="250.153,-160.627 239.647,-161.993 248.712,-167.477 250.153,-160.627"/>
</g>
<!-- Node14 -->
<g id="node14" class="node"><title>Node14</title>
<g id="a_node14"><a xlink:href="XBotSharedMemory_8h.html" target="_top" xlink:title="XBotCore&#45;interfaces\l/XBotSharedMemory.h">
<polygon fill="none" stroke="black" points="0,-134.5 0,-164.5 116,-164.5 116,-134.5 0,-134.5"/>
<text text-anchor="start" x="8" y="-152.5" font-family="Helvetica,sans-Serif" font-size="10.00">XBotCore&#45;interfaces</text>
<text text-anchor="middle" x="58" y="-141.5" font-family="Helvetica,sans-Serif" font-size="10.00">/XBotSharedMemory.h</text>
</a>
</g>
</g>
<!-- Node5&#45;&gt;Node14 -->
<g id="edge17" class="edge"><title>Node5&#45;&gt;Node14</title>
<path fill="none" stroke="midnightblue" d="M458.346,-210.014C385.811,-202.147 250.888,-186.402 126.157,-165.113"/>
<polygon fill="midnightblue" stroke="midnightblue" points="126.496,-161.62 116.047,-163.371 125.307,-168.518 126.496,-161.62"/>
</g>
<!-- Node19 -->
<g id="node19" class="node"><title>Node19</title>
<g id="a_node19"><a xlink:href="XBotESC_8h.html" target="_top" xlink:title="XBotCore&#45;interfaces\l/XBotESC.h">
<polygon fill="none" stroke="black" points="781.5,-134.5 781.5,-164.5 886.5,-164.5 886.5,-134.5 781.5,-134.5"/>
<text text-anchor="start" x="789.5" y="-152.5" font-family="Helvetica,sans-Serif" font-size="10.00">XBotCore&#45;interfaces</text>
<text text-anchor="middle" x="834" y="-141.5" font-family="Helvetica,sans-Serif" font-size="10.00">/XBotESC.h</text>
</a>
</g>
</g>
<!-- Node5&#45;&gt;Node19 -->
<g id="edge23" class="edge"><title>Node5&#45;&gt;Node19</title>
<path fill="none" stroke="midnightblue" d="M563.518,-205.432C615.307,-195.436 696.686,-179.543 767,-165 768.457,-164.699 769.931,-164.392 771.418,-164.082"/>
<polygon fill="midnightblue" stroke="midnightblue" points="772.289,-167.475 781.353,-161.989 770.846,-160.626 772.289,-167.475"/>
</g>
<!-- Node6&#45;&gt;Node7 -->
<g id="edge6" class="edge"><title>Node6&#45;&gt;Node7</title>
<path fill="none" stroke="midnightblue" d="M494.608,-134.233C481.133,-122.505 462.059,-105.904 448.13,-93.7797"/>
<polygon fill="midnightblue" stroke="midnightblue" points="450.059,-90.8184 440.218,-86.8932 445.463,-96.0985 450.059,-90.8184"/>
</g>
<!-- Node6&#45;&gt;Node8 -->
<g id="edge7" class="edge"><title>Node6&#45;&gt;Node8</title>
<path fill="none" stroke="midnightblue" d="M478.606,-134.403C449.202,-121.606 406.236,-102.908 377.954,-90.6004"/>
<polygon fill="midnightblue" stroke="midnightblue" points="379.175,-87.3147 368.609,-86.5336 376.382,-93.7333 379.175,-87.3147"/>
</g>
<!-- Node6&#45;&gt;Node9 -->
<g id="edge8" class="edge"><title>Node6&#45;&gt;Node9</title>
<path fill="none" stroke="midnightblue" d="M521.112,-134.41C536.38,-114.142 567.254,-76.9037 602,-56 637.801,-34.462 684.632,-22.606 716.588,-16.5457"/>
<polygon fill="midnightblue" stroke="midnightblue" points="717.594,-19.9209 726.817,-14.707 716.356,-13.0313 717.594,-19.9209"/>
</g>
<!-- Node6&#45;&gt;Node10 -->
<g id="edge9" class="edge"><title>Node6&#45;&gt;Node10</title>
<path fill="none" stroke="midnightblue" d="M535.195,-134.403C556.583,-121.942 587.575,-103.884 608.691,-91.5807"/>
<polygon fill="midnightblue" stroke="midnightblue" points="610.475,-94.592 617.354,-86.5336 606.951,-88.5437 610.475,-94.592"/>
</g>
<!-- Node11&#45;&gt;Node7 -->
<g id="edge11" class="edge"><title>Node11&#45;&gt;Node7</title>
<path fill="none" stroke="midnightblue" d="M365.392,-134.233C378.867,-122.505 397.941,-105.904 411.87,-93.7797"/>
<polygon fill="midnightblue" stroke="midnightblue" points="414.537,-96.0985 419.782,-86.8932 409.941,-90.8184 414.537,-96.0985"/>
</g>
<!-- Node11&#45;&gt;Node8 -->
<g id="edge13" class="edge"><title>Node11&#45;&gt;Node8</title>
<path fill="none" stroke="midnightblue" d="M349,-134.233C349,-123.501 349,-108.687 349,-96.959"/>
<polygon fill="midnightblue" stroke="midnightblue" points="352.5,-96.8931 349,-86.8932 345.5,-96.8932 352.5,-96.8931"/>
</g>
<!-- Node11&#45;&gt;Node10 -->
<g id="edge12" class="edge"><title>Node11&#45;&gt;Node10</title>
<path fill="none" stroke="midnightblue" d="M401.567,-135.405C460.39,-120.751 553.696,-97.5068 601.529,-85.591"/>
<polygon fill="midnightblue" stroke="midnightblue" points="602.434,-88.9724 611.292,-83.1588 600.742,-82.18 602.434,-88.9724"/>
</g>
<!-- Node13&#45;&gt;Node8 -->
<g id="edge16" class="edge"><title>Node13&#45;&gt;Node8</title>
<path fill="none" stroke="midnightblue" d="M229.137,-134.407C255.012,-125.2 288.535,-112.265 317,-98 320.652,-96.1701 324.422,-94.0453 328.038,-91.8778"/>
<polygon fill="midnightblue" stroke="midnightblue" points="329.933,-94.8208 336.549,-86.5455 326.216,-88.8889 329.933,-94.8208"/>
</g>
<!-- Node15 -->
<g id="node15" class="node"><title>Node15</title>
<g id="a_node15"><a xlink:href="XBotSharedObject_8h.html" target="_top" xlink:title="XBotCore&#45;interfaces\l/XBotSharedObject.h">
<polygon fill="none" stroke="black" points="199.5,-62 199.5,-92 308.5,-92 308.5,-62 199.5,-62"/>
<text text-anchor="start" x="207.5" y="-80" font-family="Helvetica,sans-Serif" font-size="10.00">XBotCore&#45;interfaces</text>
<text text-anchor="middle" x="254" y="-69" font-family="Helvetica,sans-Serif" font-size="10.00">/XBotSharedObject.h</text>
</a>
</g>
</g>
<!-- Node14&#45;&gt;Node15 -->
<g id="edge18" class="edge"><title>Node14&#45;&gt;Node15</title>
<path fill="none" stroke="midnightblue" d="M97.1925,-134.403C128.306,-123.211 171.969,-107.506 205.322,-95.5093"/>
<polygon fill="midnightblue" stroke="midnightblue" points="206.65,-98.751 214.875,-92.0729 204.281,-92.1641 206.65,-98.751"/>
</g>
<!-- Node15&#45;&gt;Node9 -->
<g id="edge21" class="edge"><title>Node15&#45;&gt;Node9</title>
<path fill="none" stroke="midnightblue" d="M294.652,-61.9637C302.336,-59.6916 310.361,-57.5723 318,-56 463.657,-26.0212 641.071,-15.5739 716.382,-12.32"/>
<polygon fill="midnightblue" stroke="midnightblue" points="716.89,-15.802 726.736,-11.8906 716.6,-8.80801 716.89,-15.802"/>
</g>
<!-- Node16 -->
<g id="node16" class="node"><title>Node16</title>
<polygon fill="none" stroke="#bfbfbf" points="166,-0.5 166,-19.5 244,-19.5 244,-0.5 166,-0.5"/>
<text text-anchor="middle" x="205" y="-7.5" font-family="Helvetica,sans-Serif" font-size="10.00">boost/any.hpp</text>
</g>
<!-- Node15&#45;&gt;Node16 -->
<g id="edge19" class="edge"><title>Node15&#45;&gt;Node16</title>
<path fill="none" stroke="midnightblue" d="M243.368,-61.896C235.803,-51.8614 225.609,-38.3382 217.63,-27.7535"/>
<polygon fill="midnightblue" stroke="midnightblue" points="220.369,-25.5729 211.554,-19.6945 214.779,-29.7867 220.369,-25.5729"/>
</g>
<!-- Node17 -->
<g id="node17" class="node"><title>Node17</title>
<polygon fill="none" stroke="#bfbfbf" points="262.5,-0.5 262.5,-19.5 345.5,-19.5 345.5,-0.5 262.5,-0.5"/>
<text text-anchor="middle" x="304" y="-7.5" font-family="Helvetica,sans-Serif" font-size="10.00">unordered_map</text>
</g>
<!-- Node15&#45;&gt;Node17 -->
<g id="edge20" class="edge"><title>Node15&#45;&gt;Node17</title>
<path fill="none" stroke="midnightblue" d="M264.849,-61.896C272.568,-51.8614 282.971,-38.3382 291.113,-27.7535"/>
<polygon fill="midnightblue" stroke="midnightblue" points="293.989,-29.7548 297.312,-19.6945 288.441,-25.4868 293.989,-29.7548"/>
</g>
<!-- Node18 -->
<g id="node18" class="node"><title>Node18</title>
<polygon fill="none" stroke="#bfbfbf" points="2164,-0.5 2164,-19.5 2218,-19.5 2218,-0.5 2164,-0.5"/>
<text text-anchor="middle" x="2191" y="-7.5" font-family="Helvetica,sans-Serif" font-size="10.00">iostream</text>
</g>
<!-- Node15&#45;&gt;Node18 -->
<g id="edge22" class="edge"><title>Node15&#45;&gt;Node18</title>
<path fill="none" stroke="midnightblue" d="M292.844,-61.97C301.05,-59.5426 309.73,-57.3639 318,-56 505.07,-25.1476 1905.06,-13.1663 2153.4,-11.274"/>
<polygon fill="midnightblue" stroke="midnightblue" points="2153.73,-14.7717 2163.7,-11.1962 2153.67,-7.77185 2153.73,-14.7717"/>
</g>
<!-- Node20 -->
<g id="node20" class="node"><title>Node20</title>
<polygon fill="none" stroke="#bfbfbf" points="2357.5,-67.5 2357.5,-86.5 2406.5,-86.5 2406.5,-67.5 2357.5,-67.5"/>
<text text-anchor="middle" x="2382" y="-74.5" font-family="Helvetica,sans-Serif" font-size="10.00">stdint.h</text>
</g>
<!-- Node19&#45;&gt;Node20 -->
<g id="edge24" class="edge"><title>Node19&#45;&gt;Node20</title>
<path fill="none" stroke="midnightblue" d="M886.554,-139.819C901.817,-137.586 918.539,-135.416 934,-134 1496.05,-82.5274 2185.04,-78.2634 2346.84,-77.9959"/>
<polygon fill="midnightblue" stroke="midnightblue" points="2347.15,-81.4956 2357.15,-77.9833 2347.14,-74.4956 2347.15,-81.4956"/>
</g>
<!-- Node21&#45;&gt;Node9 -->
<g id="edge30" class="edge"><title>Node21&#45;&gt;Node9</title>
<path fill="none" stroke="midnightblue" d="M1134.98,-273.71C1139.88,-250.071 1150.77,-183.576 1131,-134 1113.53,-90.1776 1100.72,-78.0238 1059,-56 1012.82,-31.6208 860.152,-18.3095 789.483,-13.3216"/>
<polygon fill="midnightblue" stroke="midnightblue" points="789.491,-9.81393 779.274,-12.6189 789.01,-16.7974 789.491,-9.81393"/>
</g>
<!-- Node22&#45;&gt;Node18 -->
<g id="edge67" class="edge"><title>Node22&#45;&gt;Node18</title>
<path fill="none" stroke="midnightblue" d="M2211.85,-268.285C2208.17,-222.836 2196.68,-81.0398 2192.52,-29.7519"/>
<polygon fill="midnightblue" stroke="midnightblue" points="2195.99,-29.1871 2191.69,-19.5025 2189.01,-29.7525 2195.99,-29.1871"/>
</g>
<!-- Node23 -->
<g id="node23" class="node"><title>Node23</title>
<g id="a_node23"><a xlink:href="XBotPipes_8h.html" target="_top" xlink:title="XBotCore&#45;interfaces\l/XBotPipes.h">
<polygon fill="none" stroke="black" points="2338.5,-201.5 2338.5,-231.5 2443.5,-231.5 2443.5,-201.5 2338.5,-201.5"/>
<text text-anchor="start" x="2346.5" y="-219.5" font-family="Helvetica,sans-Serif" font-size="10.00">XBotCore&#45;interfaces</text>
<text text-anchor="middle" x="2391" y="-208.5" font-family="Helvetica,sans-Serif" font-size="10.00">/XBotPipes.h</text>
</a>
</g>
</g>
<!-- Node22&#45;&gt;Node23 -->
<g id="edge32" class="edge"><title>Node22&#45;&gt;Node23</title>
<path fill="none" stroke="midnightblue" d="M2251.62,-268.396C2278.45,-258.601 2314.38,-245.481 2343.03,-235.015"/>
<polygon fill="midnightblue" stroke="midnightblue" points="2344.26,-238.294 2352.45,-231.577 2341.86,-231.719 2344.26,-238.294"/>
</g>
<!-- Node25 -->
<g id="node25" class="node"><title>Node25</title>
<polygon fill="none" stroke="#bfbfbf" points="2856,-140 2856,-159 2916,-159 2916,-140 2856,-140"/>
<text text-anchor="middle" x="2886" y="-147" font-family="Helvetica,sans-Serif" font-size="10.00">sys/stat.h</text>
</g>
<!-- Node22&#45;&gt;Node25 -->
<g id="edge65" class="edge"><title>Node22&#45;&gt;Node25</title>
<path fill="none" stroke="midnightblue" d="M2281.9,-273.709C2399.28,-257.851 2644.96,-220.831 2847,-165 2849.81,-164.224 2852.7,-163.333 2855.57,-162.383"/>
<polygon fill="midnightblue" stroke="midnightblue" points="2856.9,-165.626 2865.17,-159.001 2854.57,-159.024 2856.9,-165.626"/>
</g>
<!-- Node26 -->
<g id="node26" class="node"><title>Node26</title>
<polygon fill="none" stroke="#bfbfbf" points="2219,-140 2219,-159 2263,-159 2263,-140 2219,-140"/>
<text text-anchor="middle" x="2241" y="-147" font-family="Helvetica,sans-Serif" font-size="10.00">fcntl.h</text>
</g>
<!-- Node22&#45;&gt;Node26 -->
<g id="edge66" class="edge"><title>Node22&#45;&gt;Node26</title>
<path fill="none" stroke="midnightblue" d="M2216,-268.374C2221.08,-244.397 2231.4,-195.748 2237.06,-169.056"/>
<polygon fill="midnightblue" stroke="midnightblue" points="2240.53,-169.606 2239.18,-159.097 2233.68,-168.153 2240.53,-169.606"/>
</g>
<!-- Node41 -->
<g id="node41" class="node"><title>Node41</title>
<g id="a_node41"><a xlink:href="CommunicationInterfaceROS_8h.html" target="_top" xlink:title="XCM/CommunicationInterface\lROS.h">
<polygon fill="none" stroke="black" points="1677.5,-201.5 1677.5,-231.5 1826.5,-231.5 1826.5,-201.5 1677.5,-201.5"/>
<text text-anchor="start" x="1685.5" y="-219.5" font-family="Helvetica,sans-Serif" font-size="10.00">XCM/CommunicationInterface</text>
<text text-anchor="middle" x="1752" y="-208.5" font-family="Helvetica,sans-Serif" font-size="10.00">ROS.h</text>
</a>
</g>
</g>
<!-- Node22&#45;&gt;Node41 -->
<g id="edge54" class="edge"><title>Node22&#45;&gt;Node41</title>
<path fill="none" stroke="midnightblue" d="M2144.48,-272.839C2062.49,-261.278 1925.2,-241.921 1836.65,-229.436"/>
<polygon fill="midnightblue" stroke="midnightblue" points="1837.03,-225.954 1826.64,-228.023 1836.05,-232.885 1837.03,-225.954"/>
</g>
<!-- Node23&#45;&gt;Node9 -->
<g id="edge34" class="edge"><title>Node23&#45;&gt;Node9</title>
<path fill="none" stroke="midnightblue" d="M2378.7,-201.268C2360,-180.017 2324.81,-141.663 2308,-134 2165.41,-69.0161 1009.5,-20.9928 789.198,-12.3827"/>
<polygon fill="midnightblue" stroke="midnightblue" points="789.264,-8.88272 779.136,-11.9915 788.992,-15.8774 789.264,-8.88272"/>
</g>
<!-- Node23&#45;&gt;Node10 -->
<g id="edge33" class="edge"><title>Node23&#45;&gt;Node10</title>
<path fill="none" stroke="midnightblue" d="M2369.23,-201.351C2353.95,-191.345 2333.1,-177.534 2315,-165 2295.63,-151.589 2294.32,-141.53 2272,-134 2126.34,-84.8682 1042.51,-105.966 889,-98 807.146,-93.7525 710.872,-85.3459 662.706,-80.9052"/>
<polygon fill="midnightblue" stroke="midnightblue" points="662.911,-77.4093 652.63,-79.9693 662.264,-84.3793 662.911,-77.4093"/>
</g>
<!-- Node23&#45;&gt;Node18 -->
<g id="edge35" class="edge"><title>Node23&#45;&gt;Node18</title>
<path fill="none" stroke="midnightblue" d="M2443.68,-205.072C2465.94,-197.78 2489.75,-185.514 2503,-165 2510.48,-153.427 2509.22,-146.293 2503,-134 2490.8,-109.889 2474.17,-115.981 2454,-98 2434.98,-81.0501 2437.23,-68.443 2415,-56 2355.6,-22.7455 2275.16,-13.8542 2228.6,-11.6056"/>
<polygon fill="midnightblue" stroke="midnightblue" points="2228.49,-8.09854 2218.36,-11.1926 2228.21,-15.0929 2228.49,-8.09854"/>
</g>
<!-- Node24 -->
<g id="node24" class="node"><title>Node24</title>
<polygon fill="none" stroke="#bfbfbf" points="2357,-140 2357,-159 2425,-159 2425,-140 2357,-140"/>
<text text-anchor="middle" x="2391" y="-147" font-family="Helvetica,sans-Serif" font-size="10.00">sys/types.h</text>
</g>
<!-- Node23&#45;&gt;Node24 -->
<g id="edge36" class="edge"><title>Node23&#45;&gt;Node24</title>
<path fill="none" stroke="midnightblue" d="M2391,-201.396C2391,-192.064 2391,-179.714 2391,-169.517"/>
<polygon fill="midnightblue" stroke="midnightblue" points="2394.5,-169.195 2391,-159.195 2387.5,-169.195 2394.5,-169.195"/>
</g>
<!-- Node23&#45;&gt;Node25 -->
<g id="edge37" class="edge"><title>Node23&#45;&gt;Node25</title>
<path fill="none" stroke="midnightblue" d="M2443.69,-213.857C2529.34,-210.255 2703.63,-199.042 2847,-165 2850,-164.289 2853.08,-163.412 2856.13,-162.445"/>
<polygon fill="midnightblue" stroke="midnightblue" points="2857.35,-165.726 2865.65,-159.14 2855.05,-159.113 2857.35,-165.726"/>
</g>
<!-- Node23&#45;&gt;Node26 -->
<g id="edge38" class="edge"><title>Node23&#45;&gt;Node26</title>
<path fill="none" stroke="midnightblue" d="M2358.45,-201.396C2332.13,-189.991 2295.41,-174.079 2270.07,-163.098"/>
<polygon fill="midnightblue" stroke="midnightblue" points="2271.2,-159.772 2260.63,-159.007 2268.42,-166.195 2271.2,-159.772"/>
</g>
<!-- Node27 -->
<g id="node27" class="node"><title>Node27</title>
<polygon fill="none" stroke="#bfbfbf" points="2443.5,-140 2443.5,-159 2494.5,-159 2494.5,-140 2443.5,-140"/>
<text text-anchor="middle" x="2469" y="-147" font-family="Helvetica,sans-Serif" font-size="10.00">unistd.h</text>
</g>
<!-- Node23&#45;&gt;Node27 -->
<g id="edge39" class="edge"><title>Node23&#45;&gt;Node27</title>
<path fill="none" stroke="midnightblue" d="M2407.92,-201.396C2420.57,-190.86 2437.83,-176.477 2450.77,-165.689"/>
<polygon fill="midnightblue" stroke="midnightblue" points="2453.12,-168.285 2458.57,-159.195 2448.64,-162.908 2453.12,-168.285"/>
</g>
<!-- Node28 -->
<g id="node28" class="node"><title>Node28</title>
<g id="a_node28"><a xlink:href="XBotUtils_8h.html" target="_top" xlink:title="XCM/XBotUtils.h">
<polygon fill="none" stroke="black" points="2746,-140 2746,-159 2838,-159 2838,-140 2746,-140"/>
<text text-anchor="middle" x="2792" y="-147" font-family="Helvetica,sans-Serif" font-size="10.00">XCM/XBotUtils.h</text>
</a>
</g>
</g>
<!-- Node23&#45;&gt;Node28 -->
<g id="edge40" class="edge"><title>Node23&#45;&gt;Node28</title>
<path fill="none" stroke="midnightblue" d="M2443.84,-206.936C2519.55,-194.663 2658.31,-172.171 2735.83,-159.605"/>
<polygon fill="midnightblue" stroke="midnightblue" points="2736.58,-163.03 2745.89,-157.975 2735.46,-156.12 2736.58,-163.03"/>
</g>
<!-- Node28&#45;&gt;Node20 -->
<g id="edge41" class="edge"><title>Node28&#45;&gt;Node20</title>
<path fill="none" stroke="midnightblue" d="M2745.76,-143.413C2680.36,-135.807 2557.3,-119.977 2454,-98 2441.73,-95.3899 2428.46,-91.8988 2416.69,-88.5644"/>
<polygon fill="midnightblue" stroke="midnightblue" points="2417.38,-85.1202 2406.81,-85.7005 2415.44,-91.8439 2417.38,-85.1202"/>
</g>
<!-- Node29 -->
<g id="node29" class="node"><title>Node29</title>
<polygon fill="none" stroke="#bfbfbf" points="2463,-67.5 2463,-86.5 2509,-86.5 2509,-67.5 2463,-67.5"/>
<text text-anchor="middle" x="2486" y="-74.5" font-family="Helvetica,sans-Serif" font-size="10.00">stdio.h</text>
</g>
<!-- Node28&#45;&gt;Node29 -->
<g id="edge42" class="edge"><title>Node28&#45;&gt;Node29</title>
<path fill="none" stroke="midnightblue" d="M2745.96,-145.31C2690.33,-140.27 2594.65,-127.769 2518,-98 2513.88,-96.3991 2509.7,-94.252 2505.79,-91.958"/>
<polygon fill="midnightblue" stroke="midnightblue" points="2507.6,-88.9613 2497.29,-86.5266 2503.84,-94.8601 2507.6,-88.9613"/>
</g>
<!-- Node30 -->
<g id="node30" class="node"><title>Node30</title>
<polygon fill="none" stroke="#bfbfbf" points="2527,-67.5 2527,-86.5 2577,-86.5 2577,-67.5 2527,-67.5"/>
<text text-anchor="middle" x="2552" y="-74.5" font-family="Helvetica,sans-Serif" font-size="10.00">fstream</text>
</g>
<!-- Node28&#45;&gt;Node30 -->
<g id="edge43" class="edge"><title>Node28&#45;&gt;Node30</title>
<path fill="none" stroke="midnightblue" d="M2745.8,-141.157C2703.24,-133.471 2638.87,-119.491 2586,-98 2581.67,-96.2408 2577.24,-93.999 2573.06,-91.6567"/>
<polygon fill="midnightblue" stroke="midnightblue" points="2574.84,-88.645 2564.46,-86.5168 2571.25,-94.6529 2574.84,-88.645"/>
</g>
<!-- Node31 -->
<g id="node31" class="node"><title>Node31</title>
<polygon fill="none" stroke="#bfbfbf" points="2595,-67.5 2595,-86.5 2647,-86.5 2647,-67.5 2595,-67.5"/>
<text text-anchor="middle" x="2621" y="-74.5" font-family="Helvetica,sans-Serif" font-size="10.00">sstream</text>
</g>
<!-- Node28&#45;&gt;Node31 -->
<g id="edge44" class="edge"><title>Node28&#45;&gt;Node31</title>
<path fill="none" stroke="midnightblue" d="M2765.15,-139.979C2737.33,-130.817 2692.85,-115.228 2656,-98 2651.93,-96.0993 2647.71,-93.8959 2643.66,-91.6607"/>
<polygon fill="midnightblue" stroke="midnightblue" points="2645.1,-88.454 2634.69,-86.5151 2641.62,-94.5263 2645.1,-88.454"/>
</g>
<!-- Node32 -->
<g id="node32" class="node"><title>Node32</title>
<polygon fill="none" stroke="#bfbfbf" points="2665,-67.5 2665,-86.5 2789,-86.5 2789,-67.5 2665,-67.5"/>
<text text-anchor="middle" x="2727" y="-74.5" font-family="Helvetica,sans-Serif" font-size="10.00">boost/circular_buffer.hpp</text>
</g>
<!-- Node28&#45;&gt;Node32 -->
<g id="edge45" class="edge"><title>Node28&#45;&gt;Node32</title>
<path fill="none" stroke="midnightblue" d="M2784.03,-139.855C2773.6,-128.544 2755.12,-108.496 2742.02,-94.2924"/>
<polygon fill="midnightblue" stroke="midnightblue" points="2744.39,-91.695 2735.04,-86.7154 2739.24,-96.4399 2744.39,-91.695"/>
</g>
<!-- Node33 -->
<g id="node33" class="node"><title>Node33</title>
<polygon fill="none" stroke="#bfbfbf" points="2807,-62 2807,-92 2909,-92 2909,-62 2807,-62"/>
<text text-anchor="start" x="2815" y="-80" font-family="Helvetica,sans-Serif" font-size="10.00">boost/accumulators</text>
<text text-anchor="middle" x="2858" y="-69" font-family="Helvetica,sans-Serif" font-size="10.00">/accumulators.hpp</text>
</g>
<!-- Node28&#45;&gt;Node33 -->
<g id="edge46" class="edge"><title>Node28&#45;&gt;Node33</title>
<path fill="none" stroke="midnightblue" d="M2800.09,-139.855C2809.42,-129.897 2825.08,-113.165 2837.77,-99.6129"/>
<polygon fill="midnightblue" stroke="midnightblue" points="2840.54,-101.768 2844.82,-92.0762 2835.43,-96.9844 2840.54,-101.768"/>
</g>
<!-- Node34 -->
<g id="node34" class="node"><title>Node34</title>
<polygon fill="none" stroke="#bfbfbf" points="2927.5,-62 2927.5,-92 3032.5,-92 3032.5,-62 2927.5,-62"/>
<text text-anchor="start" x="2935.5" y="-80" font-family="Helvetica,sans-Serif" font-size="10.00">boost/accumulators</text>
<text text-anchor="middle" x="2980" y="-69" font-family="Helvetica,sans-Serif" font-size="10.00">/statistics/count.hpp</text>
</g>
<!-- Node28&#45;&gt;Node34 -->
<g id="edge47" class="edge"><title>Node28&#45;&gt;Node34</title>
<path fill="none" stroke="midnightblue" d="M2814.68,-139.996C2843.81,-129.07 2895.13,-109.827 2932.88,-95.6699"/>
<polygon fill="midnightblue" stroke="midnightblue" points="2934.52,-98.7944 2942.65,-92.0059 2932.06,-92.24 2934.52,-98.7944"/>
</g>
<!-- Node35 -->
<g id="node35" class="node"><title>Node35</title>
<polygon fill="none" stroke="#bfbfbf" points="3050.5,-62 3050.5,-92 3155.5,-92 3155.5,-62 3050.5,-62"/>
<text text-anchor="start" x="3058.5" y="-80" font-family="Helvetica,sans-Serif" font-size="10.00">boost/accumulators</text>
<text text-anchor="middle" x="3103" y="-69" font-family="Helvetica,sans-Serif" font-size="10.00">/statistics/mean.hpp</text>
</g>
<!-- Node28&#45;&gt;Node35 -->
<g id="edge48" class="edge"><title>Node28&#45;&gt;Node35</title>
<path fill="none" stroke="midnightblue" d="M2822.73,-139.961C2830.62,-137.892 2839.1,-135.768 2847,-134 2933,-114.753 2956.6,-119.778 3042,-98 3045.61,-97.0783 3049.33,-96.0557 3053.05,-94.9744"/>
<polygon fill="midnightblue" stroke="midnightblue" points="3054.31,-98.2502 3062.87,-92.004 3052.28,-91.5502 3054.31,-98.2502"/>
</g>
<!-- Node36 -->
<g id="node36" class="node"><title>Node36</title>
<polygon fill="none" stroke="#bfbfbf" points="3174,-62 3174,-92 3276,-92 3276,-62 3174,-62"/>
<text text-anchor="start" x="3182" y="-80" font-family="Helvetica,sans-Serif" font-size="10.00">boost/accumulators</text>
<text text-anchor="middle" x="3225" y="-69" font-family="Helvetica,sans-Serif" font-size="10.00">/statistics/min.hpp</text>
</g>
<!-- Node28&#45;&gt;Node36 -->
<g id="edge49" class="edge"><title>Node28&#45;&gt;Node36</title>
<path fill="none" stroke="midnightblue" d="M2821.22,-139.955C2829.5,-137.764 2838.56,-135.582 2847,-134 2986.8,-107.801 3026.11,-128.657 3165,-98 3169.04,-97.1081 3173.19,-96.0453 3177.33,-94.8814"/>
<polygon fill="midnightblue" stroke="midnightblue" points="3178.35,-98.232 3186.92,-92.0145 3176.34,-91.5252 3178.35,-98.232"/>
</g>
<!-- Node37 -->
<g id="node37" class="node"><title>Node37</title>
<polygon fill="none" stroke="#bfbfbf" points="3294,-62 3294,-92 3396,-92 3396,-62 3294,-62"/>
<text text-anchor="start" x="3302" y="-80" font-family="Helvetica,sans-Serif" font-size="10.00">boost/accumulators</text>
<text text-anchor="middle" x="3345" y="-69" font-family="Helvetica,sans-Serif" font-size="10.00">/statistics/max.hpp</text>
</g>
<!-- Node28&#45;&gt;Node37 -->
<g id="edge50" class="edge"><title>Node28&#45;&gt;Node37</title>
<path fill="none" stroke="midnightblue" d="M2820.62,-139.936C2829.05,-137.691 2838.34,-135.486 2847,-134 3039.51,-100.976 3093.64,-137.164 3285,-98 3289.11,-97.1579 3293.34,-96.1209 3297.55,-94.9661"/>
<polygon fill="midnightblue" stroke="midnightblue" points="3298.68,-98.2802 3307.29,-92.0941 3296.7,-91.5662 3298.68,-98.2802"/>
</g>
<!-- Node38 -->
<g id="node38" class="node"><title>Node38</title>
<polygon fill="none" stroke="#bfbfbf" points="3414,-62 3414,-92 3532,-92 3532,-62 3414,-62"/>
<text text-anchor="start" x="3422" y="-80" font-family="Helvetica,sans-Serif" font-size="10.00">boost/accumulators</text>
<text text-anchor="middle" x="3473" y="-69" font-family="Helvetica,sans-Serif" font-size="10.00">/statistics/variance.hpp</text>
</g>
<!-- Node28&#45;&gt;Node38 -->
<g id="edge51" class="edge"><title>Node28&#45;&gt;Node38</title>
<path fill="none" stroke="midnightblue" d="M2820.04,-139.99C2828.62,-137.69 2838.13,-135.441 2847,-134 3092.3,-94.1373 3160.29,-141.327 3405,-98 3410.09,-97.0979 3415.35,-95.9526 3420.58,-94.6684"/>
<polygon fill="midnightblue" stroke="midnightblue" points="3421.76,-97.9775 3430.54,-92.0548 3419.98,-91.2066 3421.76,-97.9775"/>
</g>
<!-- Node39 -->
<g id="node39" class="node"><title>Node39</title>
<polygon fill="none" stroke="#bfbfbf" points="3550,-62 3550,-92 3664,-92 3664,-62 3550,-62"/>
<text text-anchor="start" x="3558" y="-80" font-family="Helvetica,sans-Serif" font-size="10.00">boost/accumulators</text>
<text text-anchor="middle" x="3607" y="-69" font-family="Helvetica,sans-Serif" font-size="10.00">/statistics/error_of.hpp</text>
</g>
<!-- Node28&#45;&gt;Node39 -->
<g id="edge52" class="edge"><title>Node28&#45;&gt;Node39</title>
<path fill="none" stroke="midnightblue" d="M2819.74,-139.997C2828.4,-137.667 2838.02,-135.401 2847,-134 3152.17,-86.3796 3236.75,-151.176 3541,-98 3546.03,-97.1207 3551.22,-95.9792 3556.37,-94.6872"/>
<polygon fill="midnightblue" stroke="midnightblue" points="3557.43,-98.0253 3566.18,-92.0465 3555.61,-91.2658 3557.43,-98.0253"/>
</g>
<!-- Node40 -->
<g id="node40" class="node"><title>Node40</title>
<polygon fill="none" stroke="#bfbfbf" points="3682,-56.5 3682,-97.5 3784,-97.5 3784,-56.5 3682,-56.5"/>
<text text-anchor="start" x="3690" y="-85.5" font-family="Helvetica,sans-Serif" font-size="10.00">boost/accumulators</text>
<text text-anchor="start" x="3690" y="-74.5" font-family="Helvetica,sans-Serif" font-size="10.00">/statistics/error_of</text>
<text text-anchor="middle" x="3733" y="-63.5" font-family="Helvetica,sans-Serif" font-size="10.00">_mean.hpp</text>
</g>
<!-- Node28&#45;&gt;Node40 -->
<g id="edge53" class="edge"><title>Node28&#45;&gt;Node40</title>
<path fill="none" stroke="midnightblue" d="M2819.74,-139.951C2828.39,-137.62 2838.02,-135.364 2847,-134 3207.02,-79.3447 3309.8,-163.205 3671.89,-97.9098"/>
<polygon fill="midnightblue" stroke="midnightblue" points="3672.65,-101.329 3681.86,-96.0868 3671.39,-94.4432 3672.65,-101.329"/>
</g>
<!-- Node41&#45;&gt;Node42 -->
<g id="edge55" class="edge"><title>Node41&#45;&gt;Node42</title>
<path fill="none" stroke="midnightblue" d="M1677.08,-209.455C1566.22,-200.406 1351.97,-182.523 1170,-165 1154.23,-163.481 1137.44,-161.777 1121.23,-160.086"/>
<polygon fill="midnightblue" stroke="midnightblue" points="1121.53,-156.599 1111.22,-159.036 1120.8,-163.56 1121.53,-156.599"/>
</g>
<!-- Node43 -->
<g id="node43" class="node"><title>Node43</title>
<polygon fill="none" stroke="#bfbfbf" points="1891.5,-140 1891.5,-159 1946.5,-159 1946.5,-140 1891.5,-140"/>
<text text-anchor="middle" x="1919" y="-147" font-family="Helvetica,sans-Serif" font-size="10.00">ros/ros.h</text>
</g>
<!-- Node41&#45;&gt;Node43 -->
<g id="edge57" class="edge"><title>Node41&#45;&gt;Node43</title>
<path fill="none" stroke="midnightblue" d="M1788.16,-201.488C1814.25,-191.369 1850.31,-177.365 1882,-165 1883.83,-164.285 1885.71,-163.55 1887.61,-162.808"/>
<polygon fill="midnightblue" stroke="midnightblue" points="1889.05,-166.002 1897.09,-159.098 1886.5,-159.483 1889.05,-166.002"/>
</g>
<!-- Node44 -->
<g id="node44" class="node"><title>Node44</title>
<polygon fill="none" stroke="#bfbfbf" points="1965,-140 1965,-159 2065,-159 2065,-140 1965,-140"/>
<text text-anchor="middle" x="2015" y="-147" font-family="Helvetica,sans-Serif" font-size="10.00">std_srvs/SetBool.h</text>
</g>
<!-- Node41&#45;&gt;Node44 -->
<g id="edge58" class="edge"><title>Node41&#45;&gt;Node44</title>
<path fill="none" stroke="midnightblue" d="M1808.74,-201.476C1857.22,-189.496 1925.98,-172.501 1970.54,-161.488"/>
<polygon fill="midnightblue" stroke="midnightblue" points="1971.62,-164.826 1980.49,-159.029 1969.94,-158.03 1971.62,-164.826"/>
</g>
<!-- Node45 -->
<g id="node45" class="node"><title>Node45</title>
<polygon fill="none" stroke="#bfbfbf" points="2083,-140 2083,-159 2163,-159 2163,-140 2083,-140"/>
<text text-anchor="middle" x="2123" y="-147" font-family="Helvetica,sans-Serif" font-size="10.00">boost/bind.hpp</text>
</g>
<!-- Node41&#45;&gt;Node45 -->
<g id="edge59" class="edge"><title>Node41&#45;&gt;Node45</title>
<path fill="none" stroke="midnightblue" d="M1826.71,-206.63C1892.31,-198.166 1990.09,-183.907 2074,-165 2078.14,-164.068 2082.44,-162.978 2086.7,-161.822"/>
<polygon fill="midnightblue" stroke="midnightblue" points="2087.8,-165.147 2096.47,-159.047 2085.89,-158.413 2087.8,-165.147"/>
</g>
<!-- Node46 -->
<g id="node46" class="node"><title>Node46</title>
<polygon fill="none" stroke="#bfbfbf" points="1179,-134.5 1179,-164.5 1319,-164.5 1319,-134.5 1179,-134.5"/>
<text text-anchor="start" x="1187" y="-152.5" font-family="Helvetica,sans-Serif" font-size="10.00">RobotInterfaceROS/Generic</text>
<text text-anchor="middle" x="1249" y="-141.5" font-family="Helvetica,sans-Serif" font-size="10.00">ControlMessage.h</text>
</g>
<!-- Node41&#45;&gt;Node46 -->
<g id="edge60" class="edge"><title>Node41&#45;&gt;Node46</title>
<path fill="none" stroke="midnightblue" d="M1677.13,-208.024C1594.42,-199.438 1457.05,-184.219 1329.15,-165.118"/>
<polygon fill="midnightblue" stroke="midnightblue" points="1329.58,-161.643 1319.17,-163.617 1328.54,-168.566 1329.58,-161.643"/>
</g>
<!-- Node47 -->
<g id="node47" class="node"><title>Node47</title>
<polygon fill="none" stroke="#bfbfbf" points="1337,-134.5 1337,-164.5 1477,-164.5 1477,-134.5 1337,-134.5"/>
<text text-anchor="start" x="1345" y="-152.5" font-family="Helvetica,sans-Serif" font-size="10.00">RobotInterfaceROS/Generic</text>
<text text-anchor="middle" x="1407" y="-141.5" font-family="Helvetica,sans-Serif" font-size="10.00">JointStateMessage.h</text>
</g>
<!-- Node41&#45;&gt;Node47 -->
<g id="edge61" class="edge"><title>Node41&#45;&gt;Node47</title>
<path fill="none" stroke="midnightblue" d="M1677.56,-201.476C1621.5,-190.914 1544.75,-176.453 1487.31,-165.631"/>
<polygon fill="midnightblue" stroke="midnightblue" points="1487.66,-162.135 1477.18,-163.723 1486.36,-169.014 1487.66,-162.135"/>
</g>
<!-- Node48 -->
<g id="node48" class="node"><title>Node48</title>
<polygon fill="none" stroke="#bfbfbf" points="1495.5,-134.5 1495.5,-164.5 1616.5,-164.5 1616.5,-134.5 1495.5,-134.5"/>
<text text-anchor="start" x="1503.5" y="-152.5" font-family="Helvetica,sans-Serif" font-size="10.00">robot_state_publisher</text>
<text text-anchor="middle" x="1556" y="-141.5" font-family="Helvetica,sans-Serif" font-size="10.00">/robot_state_publisher.h</text>
</g>
<!-- Node41&#45;&gt;Node48 -->
<g id="edge62" class="edge"><title>Node41&#45;&gt;Node48</title>
<path fill="none" stroke="midnightblue" d="M1709.47,-201.396C1679.68,-191.515 1639.68,-178.252 1607.99,-167.743"/>
<polygon fill="midnightblue" stroke="midnightblue" points="1609.04,-164.402 1598.45,-164.577 1606.84,-171.046 1609.04,-164.402"/>
</g>
<!-- Node49 -->
<g id="node49" class="node"><title>Node49</title>
<polygon fill="none" stroke="#bfbfbf" points="1635,-140 1635,-159 1741,-159 1741,-140 1635,-140"/>
<text text-anchor="middle" x="1688" y="-147" font-family="Helvetica,sans-Serif" font-size="10.00">XCM/cmd_service.h</text>
</g>
<!-- Node41&#45;&gt;Node49 -->
<g id="edge63" class="edge"><title>Node41&#45;&gt;Node49</title>
<path fill="none" stroke="midnightblue" d="M1738.11,-201.396C1728.04,-191.161 1714.38,-177.296 1703.87,-166.622"/>
<polygon fill="midnightblue" stroke="midnightblue" points="1706.07,-163.865 1696.56,-159.195 1701.08,-168.776 1706.07,-163.865"/>
</g>
<!-- Node50 -->
<g id="node50" class="node"><title>Node50</title>
<polygon fill="none" stroke="#bfbfbf" points="1759,-140 1759,-159 1873,-159 1873,-140 1759,-140"/>
<text text-anchor="middle" x="1816" y="-147" font-family="Helvetica,sans-Serif" font-size="10.00">XCM/status_service.h</text>
</g>
<!-- Node41&#45;&gt;Node50 -->
<g id="edge64" class="edge"><title>Node41&#45;&gt;Node50</title>
<path fill="none" stroke="midnightblue" d="M1765.89,-201.396C1775.96,-191.161 1789.62,-177.296 1800.13,-166.622"/>
<polygon fill="midnightblue" stroke="midnightblue" points="1802.92,-168.776 1807.44,-159.195 1797.93,-163.865 1802.92,-168.776"/>
</g>
<!-- Node42&#45;&gt;Node4 -->
<g id="edge56" class="edge"><title>Node42&#45;&gt;Node4</title>
<path fill="none" stroke="midnightblue" d="M1025.77,-139.855C1016.39,-128.65 999.834,-108.87 987.969,-94.6922"/>
<polygon fill="midnightblue" stroke="midnightblue" points="990.396,-92.138 981.294,-86.7154 985.028,-96.6305 990.396,-92.138"/>
</g>
</g>
</svg>
