<?xml version="1.0" encoding="UTF-8" standalone="no"?>
<!DOCTYPE svg PUBLIC "-//W3C//DTD SVG 1.1//EN"
 "http://www.w3.org/Graphics/SVG/1.1/DTD/svg11.dtd">
<!-- Generated by graphviz version 2.38.0 (20140413.2041)
 -->
<!-- Title: /home/lucamuratore/advr&#45;superbuild/external/XCM/include/XCM/XBotESCUtils.h Pages: 1 -->
<svg width="284pt" height="173pt"
 viewBox="0.00 0.00 283.50 173.00" xmlns="http://www.w3.org/2000/svg" xmlns:xlink="http://www.w3.org/1999/xlink">
<g id="graph0" class="graph" transform="scale(1 1) rotate(0) translate(4 169)">
<title>/home/lucamuratore/advr&#45;superbuild/external/XCM/include/XCM/XBotESCUtils.h</title>
<!-- Node1 -->
<g id="node1" class="node"><title>Node1</title>
<polygon fill="#bfbfbf" stroke="black" points="37.5,-123.5 37.5,-164.5 213.5,-164.5 213.5,-123.5 37.5,-123.5"/>
<text text-anchor="start" x="45.5" y="-152.5" font-family="Helvetica,sans-Serif" font-size="10.00">/home/lucamuratore</text>
<text text-anchor="start" x="45.5" y="-141.5" font-family="Helvetica,sans-Serif" font-size="10.00">/advr&#45;superbuild/external</text>
<text text-anchor="middle" x="125.5" y="-130.5" font-family="Helvetica,sans-Serif" font-size="10.00">/XCM/include/XCM/XBotESCUtils.h</text>
</g>
<!-- Node2 -->
<g id="node2" class="node"><title>Node2</title>
<g id="a_node2"><a xlink:href="XBotESC_8h.html" target="_top" xlink:title="XBotCore&#45;interfaces\l/XBotESC.h">
<polygon fill="none" stroke="black" points="0,-56.5 0,-86.5 105,-86.5 105,-56.5 0,-56.5"/>
<text text-anchor="start" x="8" y="-74.5" font-family="Helvetica,sans-Serif" font-size="10.00">XBotCore&#45;interfaces</text>
<text text-anchor="middle" x="52.5" y="-63.5" font-family="Helvetica,sans-Serif" font-size="10.00">/XBotESC.h</text>
</a>
</g>
</g>
<!-- Node1&#45;&gt;Node2 -->
<g id="edge1" class="edge"><title>Node1&#45;&gt;Node2</title>
<path fill="none" stroke="midnightblue" d="M105.165,-123.362C95.7114,-114.232 84.4442,-103.35 74.7621,-93.9997"/>
<polygon fill="midnightblue" stroke="midnightblue" points="77.0265,-91.3208 67.4019,-86.8916 72.1637,-96.3561 77.0265,-91.3208"/>
</g>
<!-- Node4 -->
<g id="node4" class="node"><title>Node4</title>
<polygon fill="none" stroke="#bfbfbf" points="123.5,-62 123.5,-81 275.5,-81 275.5,-62 123.5,-62"/>
<text text-anchor="middle" x="199.5" y="-69" font-family="Helvetica,sans-Serif" font-size="10.00">XBotInterface/RobotInterface.h</text>
</g>
<!-- Node1&#45;&gt;Node4 -->
<g id="edge3" class="edge"><title>Node1&#45;&gt;Node4</title>
<path fill="none" stroke="midnightblue" d="M146.113,-123.362C157.7,-112.323 171.974,-98.7245 182.846,-88.3665"/>
<polygon fill="midnightblue" stroke="midnightblue" points="185.57,-90.6053 190.396,-81.1734 180.742,-85.5371 185.57,-90.6053"/>
</g>
<!-- Node3 -->
<g id="node3" class="node"><title>Node3</title>
<polygon fill="none" stroke="#bfbfbf" points="28,-0.5 28,-19.5 77,-19.5 77,-0.5 28,-0.5"/>
<text text-anchor="middle" x="52.5" y="-7.5" font-family="Helvetica,sans-Serif" font-size="10.00">stdint.h</text>
</g>
<!-- Node2&#45;&gt;Node3 -->
<g id="edge2" class="edge"><title>Node2&#45;&gt;Node3</title>
<path fill="none" stroke="midnightblue" d="M52.5,-56.3993C52.5,-48.4664 52.5,-38.458 52.5,-29.8583"/>
<polygon fill="midnightblue" stroke="midnightblue" points="56.0001,-29.6577 52.5,-19.6578 49.0001,-29.6578 56.0001,-29.6577"/>
</g>
</g>
</svg>
