<?xml version="1.0" encoding="UTF-8" standalone="no"?>
<!DOCTYPE svg PUBLIC "-//W3C//DTD SVG 1.1//EN"
 "http://www.w3.org/Graphics/SVG/1.1/DTD/svg11.dtd">
<!-- Generated by graphviz version 2.38.0 (20140413.2041)
 -->
<!-- Title: /home/lucamuratore/advr&#45;superbuild/external/XCM/include/XBotCore&#45;interfaces/XBotSharedObject.h Pages: 1 -->
<svg width="1498pt" height="573pt"
 viewBox="0.00 0.00 1497.50 573.00" xmlns="http://www.w3.org/2000/svg" xmlns:xlink="http://www.w3.org/1999/xlink">
<g id="graph0" class="graph" transform="scale(1 1) rotate(0) translate(4 569)">
<title>/home/lucamuratore/advr&#45;superbuild/external/XCM/include/XBotCore&#45;interfaces/XBotSharedObject.h</title>
<!-- Node1 -->
<g id="node1" class="node"><title>Node1</title>
<polygon fill="#bfbfbf" stroke="black" points="605.5,-512.5 605.5,-564.5 772.5,-564.5 772.5,-512.5 605.5,-512.5"/>
<text text-anchor="start" x="613.5" y="-552.5" font-family="Helvetica,sans-Serif" font-size="10.00">/home/lucamuratore</text>
<text text-anchor="start" x="613.5" y="-541.5" font-family="Helvetica,sans-Serif" font-size="10.00">/advr&#45;superbuild/external</text>
<text text-anchor="start" x="613.5" y="-530.5" font-family="Helvetica,sans-Serif" font-size="10.00">/XCM/include/XBotCore&#45;interfaces</text>
<text text-anchor="middle" x="689" y="-519.5" font-family="Helvetica,sans-Serif" font-size="10.00">/XBotSharedObject.h</text>
</g>
<!-- Node2 -->
<g id="node2" class="node"><title>Node2</title>
<g id="a_node2"><a xlink:href="All_8h.html" target="_top" xlink:title="/home/lucamuratore\l/advr&#45;superbuild/external\l/XCM/include/XBotCore&#45;interfaces/All.h">
<polygon fill="none" stroke="black" points="539,-256.5 539,-297.5 729,-297.5 729,-256.5 539,-256.5"/>
<text text-anchor="start" x="547" y="-285.5" font-family="Helvetica,sans-Serif" font-size="10.00">/home/lucamuratore</text>
<text text-anchor="start" x="547" y="-274.5" font-family="Helvetica,sans-Serif" font-size="10.00">/advr&#45;superbuild/external</text>
<text text-anchor="middle" x="634" y="-263.5" font-family="Helvetica,sans-Serif" font-size="10.00">/XCM/include/XBotCore&#45;interfaces/All.h</text>
</a>
</g>
</g>
<!-- Node1&#45;&gt;Node2 -->
<g id="edge1" class="edge"><title>Node1&#45;&gt;Node2</title>
<path fill="none" stroke="midnightblue" d="M665.006,-503.749C659.893,-495.07 655.105,-485.493 652,-476 631.503,-413.34 631.572,-333.963 632.928,-297.693"/>
<polygon fill="midnightblue" stroke="midnightblue" points="662.146,-505.777 670.394,-512.426 668.092,-502.085 662.146,-505.777"/>
</g>
<!-- Node9 -->
<g id="node9" class="node"><title>Node9</title>
<g id="a_node9"><a xlink:href="XBotSharedMemory_8h.html" target="_top" xlink:title="/home/lucamuratore\l/advr&#45;superbuild/external\l/XCM/include/XBotCore&#45;interfaces\l/XBotSharedMemory.h">
<polygon fill="none" stroke="black" points="661.5,-423.5 661.5,-475.5 828.5,-475.5 828.5,-423.5 661.5,-423.5"/>
<text text-anchor="start" x="669.5" y="-463.5" font-family="Helvetica,sans-Serif" font-size="10.00">/home/lucamuratore</text>
<text text-anchor="start" x="669.5" y="-452.5" font-family="Helvetica,sans-Serif" font-size="10.00">/advr&#45;superbuild/external</text>
<text text-anchor="start" x="669.5" y="-441.5" font-family="Helvetica,sans-Serif" font-size="10.00">/XCM/include/XBotCore&#45;interfaces</text>
<text text-anchor="middle" x="745" y="-430.5" font-family="Helvetica,sans-Serif" font-size="10.00">/XBotSharedMemory.h</text>
</a>
</g>
</g>
<!-- Node1&#45;&gt;Node9 -->
<g id="edge8" class="edge"><title>Node1&#45;&gt;Node9</title>
<path fill="none" stroke="midnightblue" d="M710.61,-503.927C716.671,-494.511 723.154,-484.439 728.839,-475.607"/>
<polygon fill="midnightblue" stroke="midnightblue" points="707.667,-502.033 705.198,-512.336 713.553,-505.822 707.667,-502.033"/>
</g>
<!-- Node3 -->
<g id="node3" class="node"><title>Node3</title>
<g id="a_node3"><a xlink:href="XBotPluginHandler_8h.html" target="_top" xlink:title="/home/lucamuratore\l/advr&#45;superbuild/external\l/XCM/include/XCM/XBotPluginHandler.h">
<polygon fill="none" stroke="black" points="397.5,-173 397.5,-214 592.5,-214 592.5,-173 397.5,-173"/>
<text text-anchor="start" x="405.5" y="-202" font-family="Helvetica,sans-Serif" font-size="10.00">/home/lucamuratore</text>
<text text-anchor="start" x="405.5" y="-191" font-family="Helvetica,sans-Serif" font-size="10.00">/advr&#45;superbuild/external</text>
<text text-anchor="middle" x="495" y="-180" font-family="Helvetica,sans-Serif" font-size="10.00">/XCM/include/XCM/XBotPluginHandler.h</text>
</a>
</g>
</g>
<!-- Node2&#45;&gt;Node3 -->
<g id="edge2" class="edge"><title>Node2&#45;&gt;Node3</title>
<path fill="none" stroke="midnightblue" d="M591.956,-251.348C571.63,-239.431 547.571,-225.324 528.504,-214.144"/>
<polygon fill="midnightblue" stroke="midnightblue" points="590.309,-254.44 600.706,-256.479 593.85,-248.401 590.309,-254.44"/>
</g>
<!-- Node4 -->
<g id="node4" class="node"><title>Node4</title>
<g id="a_node4"><a xlink:href="NRTDeployer_8h.html" target="_top" xlink:title="/home/lucamuratore\l/advr&#45;superbuild/external\l/XCM/include/XCM/NRTDeployer.h">
<polygon fill="none" stroke="black" points="67.5,-84 67.5,-125 240.5,-125 240.5,-84 67.5,-84"/>
<text text-anchor="start" x="75.5" y="-113" font-family="Helvetica,sans-Serif" font-size="10.00">/home/lucamuratore</text>
<text text-anchor="start" x="75.5" y="-102" font-family="Helvetica,sans-Serif" font-size="10.00">/advr&#45;superbuild/external</text>
<text text-anchor="middle" x="154" y="-91" font-family="Helvetica,sans-Serif" font-size="10.00">/XCM/include/XCM/NRTDeployer.h</text>
</a>
</g>
</g>
<!-- Node3&#45;&gt;Node4 -->
<g id="edge3" class="edge"><title>Node3&#45;&gt;Node4</title>
<path fill="none" stroke="midnightblue" d="M406.282,-170.541C359.715,-158.936 301.731,-144.363 250,-131 242.57,-129.081 234.822,-127.058 227.092,-125.026"/>
<polygon fill="midnightblue" stroke="midnightblue" points="405.49,-173.95 416.039,-172.97 407.181,-167.158 405.49,-173.95"/>
</g>
<!-- Node7 -->
<g id="node7" class="node"><title>Node7</title>
<g id="a_node7"><a xlink:href="DummyMain_8cpp.html" target="_top" xlink:title="/home/lucamuratore\l/advr&#45;superbuild/external\l/XCM/src/DummyMain.cpp">
<polygon fill="none" stroke="black" points="259,-84 259,-125 395,-125 395,-84 259,-84"/>
<text text-anchor="start" x="267" y="-113" font-family="Helvetica,sans-Serif" font-size="10.00">/home/lucamuratore</text>
<text text-anchor="start" x="267" y="-102" font-family="Helvetica,sans-Serif" font-size="10.00">/advr&#45;superbuild/external</text>
<text text-anchor="middle" x="327" y="-91" font-family="Helvetica,sans-Serif" font-size="10.00">/XCM/src/DummyMain.cpp</text>
</a>
</g>
</g>
<!-- Node3&#45;&gt;Node7 -->
<g id="edge6" class="edge"><title>Node3&#45;&gt;Node7</title>
<path fill="none" stroke="midnightblue" d="M448.273,-168.302C421.976,-154.684 389.565,-137.9 364.867,-125.11"/>
<polygon fill="midnightblue" stroke="midnightblue" points="446.808,-171.485 457.298,-172.976 450.027,-165.269 446.808,-171.485"/>
</g>
<!-- Node8 -->
<g id="node8" class="node"><title>Node8</title>
<g id="a_node8"><a xlink:href="XBotPluginHandler_8cpp.html" target="_top" xlink:title="/home/lucamuratore\l/advr&#45;superbuild/external\l/XCM/src/XBotPluginHandler.cpp">
<polygon fill="none" stroke="black" points="413.5,-84 413.5,-125 576.5,-125 576.5,-84 413.5,-84"/>
<text text-anchor="start" x="421.5" y="-113" font-family="Helvetica,sans-Serif" font-size="10.00">/home/lucamuratore</text>
<text text-anchor="start" x="421.5" y="-102" font-family="Helvetica,sans-Serif" font-size="10.00">/advr&#45;superbuild/external</text>
<text text-anchor="middle" x="495" y="-91" font-family="Helvetica,sans-Serif" font-size="10.00">/XCM/src/XBotPluginHandler.cpp</text>
</a>
</g>
</g>
<!-- Node3&#45;&gt;Node8 -->
<g id="edge7" class="edge"><title>Node3&#45;&gt;Node8</title>
<path fill="none" stroke="midnightblue" d="M495,-162.441C495,-150.101 495,-136.162 495,-125.164"/>
<polygon fill="midnightblue" stroke="midnightblue" points="491.5,-162.758 495,-172.758 498.5,-162.758 491.5,-162.758"/>
</g>
<!-- Node5 -->
<g id="node5" class="node"><title>Node5</title>
<g id="a_node5"><a xlink:href="NRTDeployer_8cpp.html" target="_top" xlink:title="/home/lucamuratore\l/advr&#45;superbuild/external\l/XCM/src/NRTDeployer.cpp">
<polygon fill="none" stroke="black" points="0,-0.5 0,-41.5 140,-41.5 140,-0.5 0,-0.5"/>
<text text-anchor="start" x="8" y="-29.5" font-family="Helvetica,sans-Serif" font-size="10.00">/home/lucamuratore</text>
<text text-anchor="start" x="8" y="-18.5" font-family="Helvetica,sans-Serif" font-size="10.00">/advr&#45;superbuild/external</text>
<text text-anchor="middle" x="70" y="-7.5" font-family="Helvetica,sans-Serif" font-size="10.00">/XCM/src/NRTDeployer.cpp</text>
</a>
</g>
</g>
<!-- Node4&#45;&gt;Node5 -->
<g id="edge4" class="edge"><title>Node4&#45;&gt;Node5</title>
<path fill="none" stroke="midnightblue" d="M126.211,-76.5383C114.427,-65.1044 100.95,-52.0287 90.1468,-41.5472"/>
<polygon fill="midnightblue" stroke="midnightblue" points="124.052,-79.3196 133.666,-83.7711 128.926,-74.2957 124.052,-79.3196"/>
</g>
<!-- Node6 -->
<g id="node6" class="node"><title>Node6</title>
<g id="a_node6"><a xlink:href="NRTDeployerMain_8cpp.html" target="_top" xlink:title="/home/lucamuratore\l/advr&#45;superbuild/external\l/XCM/src/NRTDeployerMain.cpp">
<polygon fill="none" stroke="black" points="158.5,-0.5 158.5,-41.5 319.5,-41.5 319.5,-0.5 158.5,-0.5"/>
<text text-anchor="start" x="166.5" y="-29.5" font-family="Helvetica,sans-Serif" font-size="10.00">/home/lucamuratore</text>
<text text-anchor="start" x="166.5" y="-18.5" font-family="Helvetica,sans-Serif" font-size="10.00">/advr&#45;superbuild/external</text>
<text text-anchor="middle" x="239" y="-7.5" font-family="Helvetica,sans-Serif" font-size="10.00">/XCM/src/NRTDeployerMain.cpp</text>
</a>
</g>
</g>
<!-- Node4&#45;&gt;Node6 -->
<g id="edge5" class="edge"><title>Node4&#45;&gt;Node6</title>
<path fill="none" stroke="midnightblue" d="M182.12,-76.5383C194.044,-65.1044 207.682,-52.0287 218.613,-41.5472"/>
<polygon fill="midnightblue" stroke="midnightblue" points="179.372,-74.3238 174.576,-83.7711 184.217,-79.3765 179.372,-74.3238"/>
</g>
<!-- Node9&#45;&gt;Node2 -->
<g id="edge9" class="edge"><title>Node9&#45;&gt;Node2</title>
<path fill="none" stroke="midnightblue" d="M723.111,-414.877C700.341,-379.902 665.463,-326.328 646.813,-297.681"/>
<polygon fill="midnightblue" stroke="midnightblue" points="720.232,-416.871 728.622,-423.342 726.099,-413.052 720.232,-416.871"/>
</g>
<!-- Node10 -->
<g id="node10" class="node"><title>Node10</title>
<g id="a_node10"><a xlink:href="XBotPlugin_8h.html" target="_top" xlink:title="/home/lucamuratore\l/advr&#45;superbuild/external\l/XCM/include/XBotCore&#45;interfaces\l/XBotPlugin.h">
<polygon fill="none" stroke="black" points="760.5,-334.5 760.5,-386.5 927.5,-386.5 927.5,-334.5 760.5,-334.5"/>
<text text-anchor="start" x="768.5" y="-374.5" font-family="Helvetica,sans-Serif" font-size="10.00">/home/lucamuratore</text>
<text text-anchor="start" x="768.5" y="-363.5" font-family="Helvetica,sans-Serif" font-size="10.00">/advr&#45;superbuild/external</text>
<text text-anchor="start" x="768.5" y="-352.5" font-family="Helvetica,sans-Serif" font-size="10.00">/XCM/include/XBotCore&#45;interfaces</text>
<text text-anchor="middle" x="844" y="-341.5" font-family="Helvetica,sans-Serif" font-size="10.00">/XBotPlugin.h</text>
</a>
</g>
</g>
<!-- Node9&#45;&gt;Node10 -->
<g id="edge10" class="edge"><title>Node9&#45;&gt;Node10</title>
<path fill="none" stroke="midnightblue" d="M781.244,-416.649C792.51,-406.749 804.764,-395.98 815.429,-386.607"/>
<polygon fill="midnightblue" stroke="midnightblue" points="778.836,-414.106 773.635,-423.336 783.457,-419.364 778.836,-414.106"/>
</g>
<!-- Node10&#45;&gt;Node2 -->
<g id="edge11" class="edge"><title>Node10&#45;&gt;Node2</title>
<path fill="none" stroke="midnightblue" d="M770.08,-330.812C741.694,-319.795 709.976,-307.486 684.308,-297.524"/>
<polygon fill="midnightblue" stroke="midnightblue" points="768.977,-334.138 779.566,-334.493 771.51,-327.612 768.977,-334.138"/>
</g>
<!-- Node11 -->
<g id="node11" class="node"><title>Node11</title>
<g id="a_node11"><a xlink:href="XBotControlModule_8h.html" target="_top" xlink:title="/home/lucamuratore\l/advr&#45;superbuild/external\l/XCM/include/XCM/XBotControlModule.h">
<polygon fill="none" stroke="black" points="1032.5,-256.5 1032.5,-297.5 1229.5,-297.5 1229.5,-256.5 1032.5,-256.5"/>
<text text-anchor="start" x="1040.5" y="-285.5" font-family="Helvetica,sans-Serif" font-size="10.00">/home/lucamuratore</text>
<text text-anchor="start" x="1040.5" y="-274.5" font-family="Helvetica,sans-Serif" font-size="10.00">/advr&#45;superbuild/external</text>
<text text-anchor="middle" x="1131" y="-263.5" font-family="Helvetica,sans-Serif" font-size="10.00">/XCM/include/XCM/XBotControlModule.h</text>
</a>
</g>
</g>
<!-- Node10&#45;&gt;Node11 -->
<g id="edge12" class="edge"><title>Node10&#45;&gt;Node11</title>
<path fill="none" stroke="midnightblue" d="M937.422,-332.971C978.021,-321.442 1024.73,-308.177 1062.1,-297.566"/>
<polygon fill="midnightblue" stroke="midnightblue" points="936.447,-329.609 927.784,-335.708 938.36,-336.343 936.447,-329.609"/>
</g>
<!-- Node15 -->
<g id="node15" class="node"><title>Node15</title>
<g id="a_node15"><a xlink:href="XBotControlPlugin_8h.html" target="_top" xlink:title="/home/lucamuratore\l/advr&#45;superbuild/external\l/XCM/include/XCM/XBotControlPlugin.h">
<polygon fill="none" stroke="black" points="747.5,-256.5 747.5,-297.5 940.5,-297.5 940.5,-256.5 747.5,-256.5"/>
<text text-anchor="start" x="755.5" y="-285.5" font-family="Helvetica,sans-Serif" font-size="10.00">/home/lucamuratore</text>
<text text-anchor="start" x="755.5" y="-274.5" font-family="Helvetica,sans-Serif" font-size="10.00">/advr&#45;superbuild/external</text>
<text text-anchor="middle" x="844" y="-263.5" font-family="Helvetica,sans-Serif" font-size="10.00">/XCM/include/XCM/XBotControlPlugin.h</text>
</a>
</g>
</g>
<!-- Node10&#45;&gt;Node15 -->
<g id="edge16" class="edge"><title>Node10&#45;&gt;Node15</title>
<path fill="none" stroke="midnightblue" d="M844,-324.147C844,-315.055 844,-305.597 844,-297.628"/>
<polygon fill="midnightblue" stroke="midnightblue" points="840.5,-324.16 844,-334.16 847.5,-324.16 840.5,-324.16"/>
</g>
<!-- Node21 -->
<g id="node21" class="node"><title>Node21</title>
<g id="a_node21"><a xlink:href="XBotPlugin_8cpp.html" target="_top" xlink:title="/home/lucamuratore\l/advr&#45;superbuild/external\l/XCM/src/XBotPlugin.cpp">
<polygon fill="none" stroke="black" points="1247.5,-256.5 1247.5,-297.5 1376.5,-297.5 1376.5,-256.5 1247.5,-256.5"/>
<text text-anchor="start" x="1255.5" y="-285.5" font-family="Helvetica,sans-Serif" font-size="10.00">/home/lucamuratore</text>
<text text-anchor="start" x="1255.5" y="-274.5" font-family="Helvetica,sans-Serif" font-size="10.00">/advr&#45;superbuild/external</text>
<text text-anchor="middle" x="1312" y="-263.5" font-family="Helvetica,sans-Serif" font-size="10.00">/XCM/src/XBotPlugin.cpp</text>
</a>
</g>
</g>
<!-- Node10&#45;&gt;Node21 -->
<g id="edge23" class="edge"><title>Node10&#45;&gt;Node21</title>
<path fill="none" stroke="midnightblue" d="M937.951,-347.772C1018.11,-337.066 1136.2,-319.633 1238,-298 1240.99,-297.364 1244.05,-296.68 1247.13,-295.963"/>
<polygon fill="midnightblue" stroke="midnightblue" points="937.332,-344.323 927.879,-349.108 938.253,-351.262 937.332,-344.323"/>
</g>
<!-- Node12 -->
<g id="node12" class="node"><title>Node12</title>
<g id="a_node12"><a xlink:href="XBotModuleHandler_8h.html" target="_top" xlink:title="/home/lucamuratore\l/advr&#45;superbuild/external\l/XCM/include/XCM/XBotModuleHandler.h">
<polygon fill="none" stroke="black" points="1106,-173 1106,-214 1306,-214 1306,-173 1106,-173"/>
<text text-anchor="start" x="1114" y="-202" font-family="Helvetica,sans-Serif" font-size="10.00">/home/lucamuratore</text>
<text text-anchor="start" x="1114" y="-191" font-family="Helvetica,sans-Serif" font-size="10.00">/advr&#45;superbuild/external</text>
<text text-anchor="middle" x="1206" y="-180" font-family="Helvetica,sans-Serif" font-size="10.00">/XCM/include/XCM/XBotModuleHandler.h</text>
</a>
</g>
</g>
<!-- Node11&#45;&gt;Node12 -->
<g id="edge13" class="edge"><title>Node11&#45;&gt;Node12</title>
<path fill="none" stroke="midnightblue" d="M1156.11,-248.711C1166.56,-237.356 1178.46,-224.429 1188.01,-214.047"/>
<polygon fill="midnightblue" stroke="midnightblue" points="1153.35,-246.543 1149.16,-256.271 1158.5,-251.283 1153.35,-246.543"/>
</g>
<!-- Node14 -->
<g id="node14" class="node"><title>Node14</title>
<g id="a_node14"><a xlink:href="XBotControlModule_8cpp.html" target="_top" xlink:title="/home/lucamuratore\l/advr&#45;superbuild/external\l/XCM/src/XBotControlModule.cpp">
<polygon fill="none" stroke="black" points="1324.5,-173 1324.5,-214 1489.5,-214 1489.5,-173 1324.5,-173"/>
<text text-anchor="start" x="1332.5" y="-202" font-family="Helvetica,sans-Serif" font-size="10.00">/home/lucamuratore</text>
<text text-anchor="start" x="1332.5" y="-191" font-family="Helvetica,sans-Serif" font-size="10.00">/advr&#45;superbuild/external</text>
<text text-anchor="middle" x="1407" y="-180" font-family="Helvetica,sans-Serif" font-size="10.00">/XCM/src/XBotControlModule.cpp</text>
</a>
</g>
</g>
<!-- Node11&#45;&gt;Node14 -->
<g id="edge15" class="edge"><title>Node11&#45;&gt;Node14</title>
<path fill="none" stroke="midnightblue" d="M1206.75,-253.633C1248.78,-241.22 1300.57,-225.927 1340.95,-214.003"/>
<polygon fill="midnightblue" stroke="midnightblue" points="1205.71,-250.29 1197.11,-256.479 1207.69,-257.003 1205.71,-250.29"/>
</g>
<!-- Node13 -->
<g id="node13" class="node"><title>Node13</title>
<g id="a_node13"><a xlink:href="XBotModuleHandler_8cpp.html" target="_top" xlink:title="/home/lucamuratore\l/advr&#45;superbuild/external\l/XCM/src/XBotModuleHandler.cpp">
<polygon fill="none" stroke="black" points="1122.5,-84 1122.5,-125 1289.5,-125 1289.5,-84 1122.5,-84"/>
<text text-anchor="start" x="1130.5" y="-113" font-family="Helvetica,sans-Serif" font-size="10.00">/home/lucamuratore</text>
<text text-anchor="start" x="1130.5" y="-102" font-family="Helvetica,sans-Serif" font-size="10.00">/advr&#45;superbuild/external</text>
<text text-anchor="middle" x="1206" y="-91" font-family="Helvetica,sans-Serif" font-size="10.00">/XCM/src/XBotModuleHandler.cpp</text>
</a>
</g>
</g>
<!-- Node12&#45;&gt;Node13 -->
<g id="edge14" class="edge"><title>Node12&#45;&gt;Node13</title>
<path fill="none" stroke="midnightblue" d="M1206,-162.441C1206,-150.101 1206,-136.162 1206,-125.164"/>
<polygon fill="midnightblue" stroke="midnightblue" points="1202.5,-162.758 1206,-172.758 1209.5,-162.758 1202.5,-162.758"/>
</g>
<!-- Node15&#45;&gt;Node3 -->
<g id="edge21" class="edge"><title>Node15&#45;&gt;Node3</title>
<path fill="none" stroke="midnightblue" d="M750.563,-254.18C696.997,-241.671 630.328,-226.102 578.516,-214.003"/>
<polygon fill="midnightblue" stroke="midnightblue" points="749.872,-257.613 760.406,-256.479 751.464,-250.796 749.872,-257.613"/>
</g>
<!-- Node16 -->
<g id="node16" class="node"><title>Node16</title>
<g id="a_node16"><a xlink:href="XBotCommunicationPlugin_8h.html" target="_top" xlink:title="/home/lucamuratore\l/advr&#45;superbuild/external\l/XCM/include/XBotPlugin\l/XBotCommunicationPlugin.h">
<polygon fill="none" stroke="black" points="616.5,-167.5 616.5,-219.5 761.5,-219.5 761.5,-167.5 616.5,-167.5"/>
<text text-anchor="start" x="624.5" y="-207.5" font-family="Helvetica,sans-Serif" font-size="10.00">/home/lucamuratore</text>
<text text-anchor="start" x="624.5" y="-196.5" font-family="Helvetica,sans-Serif" font-size="10.00">/advr&#45;superbuild/external</text>
<text text-anchor="start" x="624.5" y="-185.5" font-family="Helvetica,sans-Serif" font-size="10.00">/XCM/include/XBotPlugin</text>
<text text-anchor="middle" x="689" y="-174.5" font-family="Helvetica,sans-Serif" font-size="10.00">/XBotCommunicationPlugin.h</text>
</a>
</g>
</g>
<!-- Node15&#45;&gt;Node16 -->
<g id="edge17" class="edge"><title>Node15&#45;&gt;Node16</title>
<path fill="none" stroke="midnightblue" d="M797.956,-251.79C778.639,-241.633 756.182,-229.824 736.691,-219.576"/>
<polygon fill="midnightblue" stroke="midnightblue" points="796.394,-254.923 806.874,-256.479 799.651,-248.727 796.394,-254.923"/>
</g>
<!-- Node18 -->
<g id="node18" class="node"><title>Node18</title>
<g id="a_node18"><a xlink:href="XBotLoggingPlugin_8h.html" target="_top" xlink:title="/home/lucamuratore\l/advr&#45;superbuild/external\l/XCM/include/XBotPlugin\l/XBotLoggingPlugin.h">
<polygon fill="none" stroke="black" points="780,-167.5 780,-219.5 908,-219.5 908,-167.5 780,-167.5"/>
<text text-anchor="start" x="788" y="-207.5" font-family="Helvetica,sans-Serif" font-size="10.00">/home/lucamuratore</text>
<text text-anchor="start" x="788" y="-196.5" font-family="Helvetica,sans-Serif" font-size="10.00">/advr&#45;superbuild/external</text>
<text text-anchor="start" x="788" y="-185.5" font-family="Helvetica,sans-Serif" font-size="10.00">/XCM/include/XBotPlugin</text>
<text text-anchor="middle" x="844" y="-174.5" font-family="Helvetica,sans-Serif" font-size="10.00">/XBotLoggingPlugin.h</text>
</a>
</g>
</g>
<!-- Node15&#45;&gt;Node18 -->
<g id="edge19" class="edge"><title>Node15&#45;&gt;Node18</title>
<path fill="none" stroke="midnightblue" d="M844,-246.121C844,-237.413 844,-227.989 844,-219.607"/>
<polygon fill="midnightblue" stroke="midnightblue" points="840.5,-246.271 844,-256.271 847.5,-246.271 840.5,-246.271"/>
</g>
<!-- Node20 -->
<g id="node20" class="node"><title>Node20</title>
<g id="a_node20"><a xlink:href="XBotControlPlugin_8cpp.html" target="_top" xlink:title="/home/lucamuratore\l/advr&#45;superbuild/external\l/XCM/src/XBotControlPlugin.cpp">
<polygon fill="none" stroke="black" points="926.5,-173 926.5,-214 1087.5,-214 1087.5,-173 926.5,-173"/>
<text text-anchor="start" x="934.5" y="-202" font-family="Helvetica,sans-Serif" font-size="10.00">/home/lucamuratore</text>
<text text-anchor="start" x="934.5" y="-191" font-family="Helvetica,sans-Serif" font-size="10.00">/advr&#45;superbuild/external</text>
<text text-anchor="middle" x="1007" y="-180" font-family="Helvetica,sans-Serif" font-size="10.00">/XCM/src/XBotControlPlugin.cpp</text>
</a>
</g>
</g>
<!-- Node15&#45;&gt;Node20 -->
<g id="edge22" class="edge"><title>Node15&#45;&gt;Node20</title>
<path fill="none" stroke="midnightblue" d="M892.059,-251.97C916.252,-239.874 945.201,-225.4 967.994,-214.003"/>
<polygon fill="midnightblue" stroke="midnightblue" points="890.422,-248.876 883.043,-256.479 893.552,-255.137 890.422,-248.876"/>
</g>
<!-- Node17 -->
<g id="node17" class="node"><title>Node17</title>
<g id="a_node17"><a xlink:href="XBotCommunicationPlugin_8cpp.html" target="_top" xlink:title="/home/lucamuratore\l/advr&#45;superbuild/external\l/XCM/src/XBotPlugin/XBotCommunication\lPlugin.cpp">
<polygon fill="none" stroke="black" points="594.5,-78.5 594.5,-130.5 797.5,-130.5 797.5,-78.5 594.5,-78.5"/>
<text text-anchor="start" x="602.5" y="-118.5" font-family="Helvetica,sans-Serif" font-size="10.00">/home/lucamuratore</text>
<text text-anchor="start" x="602.5" y="-107.5" font-family="Helvetica,sans-Serif" font-size="10.00">/advr&#45;superbuild/external</text>
<text text-anchor="start" x="602.5" y="-96.5" font-family="Helvetica,sans-Serif" font-size="10.00">/XCM/src/XBotPlugin/XBotCommunication</text>
<text text-anchor="middle" x="696" y="-85.5" font-family="Helvetica,sans-Serif" font-size="10.00">Plugin.cpp</text>
</a>
</g>
</g>
<!-- Node16&#45;&gt;Node17 -->
<g id="edge18" class="edge"><title>Node16&#45;&gt;Node17</title>
<path fill="none" stroke="midnightblue" d="M691.841,-157.191C692.558,-148.282 693.313,-138.899 693.98,-130.607"/>
<polygon fill="midnightblue" stroke="midnightblue" points="688.338,-157.087 691.025,-167.336 695.316,-157.649 688.338,-157.087"/>
</g>
<!-- Node19 -->
<g id="node19" class="node"><title>Node19</title>
<g id="a_node19"><a xlink:href="XBotLoggingPlugin_8cpp.html" target="_top" xlink:title="/home/lucamuratore\l/advr&#45;superbuild/external\l/XCM/src/XBotPlugin/XBotLogging\lPlugin.cpp">
<polygon fill="none" stroke="black" points="815.5,-78.5 815.5,-130.5 984.5,-130.5 984.5,-78.5 815.5,-78.5"/>
<text text-anchor="start" x="823.5" y="-118.5" font-family="Helvetica,sans-Serif" font-size="10.00">/home/lucamuratore</text>
<text text-anchor="start" x="823.5" y="-107.5" font-family="Helvetica,sans-Serif" font-size="10.00">/advr&#45;superbuild/external</text>
<text text-anchor="start" x="823.5" y="-96.5" font-family="Helvetica,sans-Serif" font-size="10.00">/XCM/src/XBotPlugin/XBotLogging</text>
<text text-anchor="middle" x="900" y="-85.5" font-family="Helvetica,sans-Serif" font-size="10.00">Plugin.cpp</text>
</a>
</g>
</g>
<!-- Node18&#45;&gt;Node19 -->
<g id="edge20" class="edge"><title>Node18&#45;&gt;Node19</title>
<path fill="none" stroke="midnightblue" d="M865.61,-158.927C871.671,-149.511 878.154,-139.439 883.839,-130.607"/>
<polygon fill="midnightblue" stroke="midnightblue" points="862.667,-157.033 860.198,-167.336 868.553,-160.822 862.667,-157.033"/>
</g>
</g>
</svg>
