<?xml version="1.0" encoding="UTF-8" standalone="no"?>
<!DOCTYPE svg PUBLIC "-//W3C//DTD SVG 1.1//EN"
 "http://www.w3.org/Graphics/SVG/1.1/DTD/svg11.dtd">
<!-- Generated by graphviz version 2.38.0 (20140413.2041)
 -->
<!-- Title: /home/lucamuratore/advr&#45;superbuild/external/XCM/include/XCM/XBotXDDP.h Pages: 1 -->
<svg width="2440pt" height="329pt"
 viewBox="0.00 0.00 2439.50 329.00" xmlns="http://www.w3.org/2000/svg" xmlns:xlink="http://www.w3.org/1999/xlink">
<g id="graph0" class="graph" transform="scale(1 1) rotate(0) translate(4 325)">
<title>/home/lucamuratore/advr&#45;superbuild/external/XCM/include/XCM/XBotXDDP.h</title>
<!-- Node1 -->
<g id="node1" class="node"><title>Node1</title>
<polygon fill="#bfbfbf" stroke="black" points="760,-279.5 760,-320.5 923,-320.5 923,-279.5 760,-279.5"/>
<text text-anchor="start" x="768" y="-308.5" font-family="Helvetica,sans-Serif" font-size="10.00">/home/lucamuratore</text>
<text text-anchor="start" x="768" y="-297.5" font-family="Helvetica,sans-Serif" font-size="10.00">/advr&#45;superbuild/external</text>
<text text-anchor="middle" x="841.5" y="-286.5" font-family="Helvetica,sans-Serif" font-size="10.00">/XCM/include/XCM/XBotXDDP.h</text>
</g>
<!-- Node2 -->
<g id="node2" class="node"><title>Node2</title>
<g id="a_node2"><a xlink:href="XBotESC_8h.html" target="_top" xlink:title="XBotCore&#45;interfaces\l/XBotESC.h">
<polygon fill="none" stroke="black" points="183,-145.5 183,-175.5 288,-175.5 288,-145.5 183,-145.5"/>
<text text-anchor="start" x="191" y="-163.5" font-family="Helvetica,sans-Serif" font-size="10.00">XBotCore&#45;interfaces</text>
<text text-anchor="middle" x="235.5" y="-152.5" font-family="Helvetica,sans-Serif" font-size="10.00">/XBotESC.h</text>
</a>
</g>
</g>
<!-- Node1&#45;&gt;Node2 -->
<g id="edge1" class="edge"><title>Node1&#45;&gt;Node2</title>
<path fill="none" stroke="midnightblue" d="M759.78,-287.426C693.968,-277.494 599.275,-261.823 517.5,-243 436.683,-224.397 344.664,-196.513 288.34,-178.664"/>
<polygon fill="midnightblue" stroke="midnightblue" points="289.181,-175.259 278.591,-175.562 287.058,-181.929 289.181,-175.259"/>
</g>
<!-- Node4 -->
<g id="node4" class="node"><title>Node4</title>
<polygon fill="none" stroke="#bfbfbf" points="928.5,-218 928.5,-237 974.5,-237 974.5,-218 928.5,-218"/>
<text text-anchor="middle" x="951.5" y="-225" font-family="Helvetica,sans-Serif" font-size="10.00">cstring</text>
</g>
<!-- Node1&#45;&gt;Node4 -->
<g id="edge3" class="edge"><title>Node1&#45;&gt;Node4</title>
<path fill="none" stroke="midnightblue" d="M872.141,-279.362C890.378,-267.674 913.092,-253.116 929.541,-242.573"/>
<polygon fill="midnightblue" stroke="midnightblue" points="931.436,-245.516 937.967,-237.173 927.659,-239.623 931.436,-245.516"/>
</g>
<!-- Node5 -->
<g id="node5" class="node"><title>Node5</title>
<g id="a_node5"><a xlink:href="IXBotJoint_8h.html" target="_top" xlink:title="XBotCore&#45;interfaces\l/IXBotJoint.h">
<polygon fill="none" stroke="black" points="527,-212.5 527,-242.5 632,-242.5 632,-212.5 527,-212.5"/>
<text text-anchor="start" x="535" y="-230.5" font-family="Helvetica,sans-Serif" font-size="10.00">XBotCore&#45;interfaces</text>
<text text-anchor="middle" x="579.5" y="-219.5" font-family="Helvetica,sans-Serif" font-size="10.00">/IXBotJoint.h</text>
</a>
</g>
</g>
<!-- Node1&#45;&gt;Node5 -->
<g id="edge4" class="edge"><title>Node1&#45;&gt;Node5</title>
<path fill="none" stroke="midnightblue" d="M768.866,-279.455C728.968,-268.72 679.991,-255.54 641.842,-245.275"/>
<polygon fill="midnightblue" stroke="midnightblue" points="642.454,-241.815 631.888,-242.597 640.635,-248.575 642.454,-241.815"/>
</g>
<!-- Node10 -->
<g id="node10" class="node"><title>Node10</title>
<g id="a_node10"><a xlink:href="IXBotFT_8h.html" target="_top" xlink:title="XBotCore&#45;interfaces\l/IXBotFT.h">
<polygon fill="none" stroke="black" points="993,-212.5 993,-242.5 1098,-242.5 1098,-212.5 993,-212.5"/>
<text text-anchor="start" x="1001" y="-230.5" font-family="Helvetica,sans-Serif" font-size="10.00">XBotCore&#45;interfaces</text>
<text text-anchor="middle" x="1045.5" y="-219.5" font-family="Helvetica,sans-Serif" font-size="10.00">/IXBotFT.h</text>
</a>
</g>
</g>
<!-- Node1&#45;&gt;Node10 -->
<g id="edge9" class="edge"><title>Node1&#45;&gt;Node10</title>
<path fill="none" stroke="midnightblue" d="M898.054,-279.455C928.459,-268.948 965.636,-256.1 995.052,-245.934"/>
<polygon fill="midnightblue" stroke="midnightblue" points="996.401,-249.171 1004.71,-242.597 994.115,-242.555 996.401,-249.171"/>
</g>
<!-- Node11 -->
<g id="node11" class="node"><title>Node11</title>
<g id="a_node11"><a xlink:href="IXBotIMU_8h.html" target="_top" xlink:title="XBotCore&#45;interfaces\l/IXBotIMU.h">
<polygon fill="none" stroke="black" points="650,-212.5 650,-242.5 755,-242.5 755,-212.5 650,-212.5"/>
<text text-anchor="start" x="658" y="-230.5" font-family="Helvetica,sans-Serif" font-size="10.00">XBotCore&#45;interfaces</text>
<text text-anchor="middle" x="702.5" y="-219.5" font-family="Helvetica,sans-Serif" font-size="10.00">/IXBotIMU.h</text>
</a>
</g>
</g>
<!-- Node1&#45;&gt;Node11 -->
<g id="edge10" class="edge"><title>Node1&#45;&gt;Node11</title>
<path fill="none" stroke="midnightblue" d="M802.781,-279.362C782.947,-269.302 758.923,-257.117 739.362,-247.196"/>
<polygon fill="midnightblue" stroke="midnightblue" points="740.94,-244.072 730.438,-242.67 737.773,-250.315 740.94,-244.072"/>
</g>
<!-- Node12 -->
<g id="node12" class="node"><title>Node12</title>
<g id="a_node12"><a xlink:href="XDomainCommunication_8h.html" target="_top" xlink:title="XBotCore&#45;interfaces\l/XDomainCommunication.h">
<polygon fill="none" stroke="black" points="773,-212.5 773,-242.5 910,-242.5 910,-212.5 773,-212.5"/>
<text text-anchor="start" x="781" y="-230.5" font-family="Helvetica,sans-Serif" font-size="10.00">XBotCore&#45;interfaces</text>
<text text-anchor="middle" x="841.5" y="-219.5" font-family="Helvetica,sans-Serif" font-size="10.00">/XDomainCommunication.h</text>
</a>
</g>
</g>
<!-- Node1&#45;&gt;Node12 -->
<g id="edge12" class="edge"><title>Node1&#45;&gt;Node12</title>
<path fill="none" stroke="midnightblue" d="M841.5,-279.362C841.5,-271.226 841.5,-261.7 841.5,-253.105"/>
<polygon fill="midnightblue" stroke="midnightblue" points="845,-252.892 841.5,-242.892 838,-252.892 845,-252.892"/>
</g>
<!-- Node43 -->
<g id="node43" class="node"><title>Node43</title>
<polygon fill="none" stroke="#bfbfbf" points="1116.5,-218 1116.5,-237 1210.5,-237 1210.5,-218 1116.5,-218"/>
<text text-anchor="middle" x="1163.5" y="-225" font-family="Helvetica,sans-Serif" font-size="10.00">XBotCoreModel.h</text>
</g>
<!-- Node1&#45;&gt;Node43 -->
<g id="edge49" class="edge"><title>Node1&#45;&gt;Node43</title>
<path fill="none" stroke="midnightblue" d="M923.171,-282.639C975.66,-271.903 1045.24,-257.257 1106.5,-243 1111.22,-241.9 1116.16,-240.71 1121.06,-239.5"/>
<polygon fill="midnightblue" stroke="midnightblue" points="1122.15,-242.835 1131,-237.011 1120.45,-236.044 1122.15,-242.835"/>
</g>
<!-- Node3 -->
<g id="node3" class="node"><title>Node3</title>
<polygon fill="none" stroke="#bfbfbf" points="0,-11.5 0,-30.5 49,-30.5 49,-11.5 0,-11.5"/>
<text text-anchor="middle" x="24.5" y="-18.5" font-family="Helvetica,sans-Serif" font-size="10.00">stdint.h</text>
</g>
<!-- Node2&#45;&gt;Node3 -->
<g id="edge2" class="edge"><title>Node2&#45;&gt;Node3</title>
<path fill="none" stroke="midnightblue" d="M213.714,-145.303C173.175,-118.885 86.6111,-62.4752 46.1644,-36.1178"/>
<polygon fill="midnightblue" stroke="midnightblue" points="47.8846,-33.0613 37.5956,-30.5339 44.0628,-38.9259 47.8846,-33.0613"/>
</g>
<!-- Node6 -->
<g id="node6" class="node"><title>Node6</title>
<polygon fill="none" stroke="#bfbfbf" points="556,-151 556,-170 591,-170 591,-151 556,-151"/>
<text text-anchor="middle" x="573.5" y="-158" font-family="Helvetica,sans-Serif" font-size="10.00">map</text>
</g>
<!-- Node5&#45;&gt;Node6 -->
<g id="edge5" class="edge"><title>Node5&#45;&gt;Node6</title>
<path fill="none" stroke="midnightblue" d="M578.198,-212.396C577.327,-202.963 576.172,-190.448 575.225,-180.189"/>
<polygon fill="midnightblue" stroke="midnightblue" points="578.707,-179.83 574.303,-170.195 571.737,-180.474 578.707,-179.83"/>
</g>
<!-- Node7 -->
<g id="node7" class="node"><title>Node7</title>
<polygon fill="none" stroke="#bfbfbf" points="667.5,-151 667.5,-170 711.5,-170 711.5,-151 667.5,-151"/>
<text text-anchor="middle" x="689.5" y="-158" font-family="Helvetica,sans-Serif" font-size="10.00">vector</text>
</g>
<!-- Node5&#45;&gt;Node7 -->
<g id="edge6" class="edge"><title>Node5&#45;&gt;Node7</title>
<path fill="none" stroke="midnightblue" d="M603.368,-212.396C622.071,-201.344 647.936,-186.061 666.431,-175.132"/>
<polygon fill="midnightblue" stroke="midnightblue" points="668.275,-178.108 675.104,-170.007 664.714,-172.081 668.275,-178.108"/>
</g>
<!-- Node8 -->
<g id="node8" class="node"><title>Node8</title>
<polygon fill="none" stroke="#bfbfbf" points="501.5,-84 501.5,-103 553.5,-103 553.5,-84 501.5,-84"/>
<text text-anchor="middle" x="527.5" y="-91" font-family="Helvetica,sans-Serif" font-size="10.00">memory</text>
</g>
<!-- Node5&#45;&gt;Node8 -->
<g id="edge7" class="edge"><title>Node5&#45;&gt;Node8</title>
<path fill="none" stroke="midnightblue" d="M568.235,-212.248C561.062,-202.531 552.098,-189.097 546.5,-176 537.778,-155.593 532.7,-130.523 530.022,-113.62"/>
<polygon fill="midnightblue" stroke="midnightblue" points="533.436,-112.774 528.537,-103.38 526.509,-113.779 533.436,-112.774"/>
</g>
<!-- Node9 -->
<g id="node9" class="node"><title>Node9</title>
<polygon fill="none" stroke="#bfbfbf" points="572,-84 572,-103 613,-103 613,-84 572,-84"/>
<text text-anchor="middle" x="592.5" y="-91" font-family="Helvetica,sans-Serif" font-size="10.00">string</text>
</g>
<!-- Node5&#45;&gt;Node9 -->
<g id="edge8" class="edge"><title>Node5&#45;&gt;Node9</title>
<path fill="none" stroke="midnightblue" d="M586.776,-212.35C591.44,-202.459 597.061,-188.783 599.5,-176 603.566,-154.692 600.287,-129.796 596.982,-113.18"/>
<polygon fill="midnightblue" stroke="midnightblue" points="600.342,-112.162 594.779,-103.145 593.504,-113.663 600.342,-112.162"/>
</g>
<!-- Node11&#45;&gt;Node7 -->
<g id="edge11" class="edge"><title>Node11&#45;&gt;Node7</title>
<path fill="none" stroke="midnightblue" d="M699.679,-212.396C697.793,-202.963 695.29,-190.448 693.238,-180.189"/>
<polygon fill="midnightblue" stroke="midnightblue" points="696.632,-179.314 691.239,-170.195 689.768,-180.687 696.632,-179.314"/>
</g>
<!-- Node13 -->
<g id="node13" class="node"><title>Node13</title>
<g id="a_node13"><a xlink:href="XBotPipes_8h.html" target="_top" xlink:title="XBotCore&#45;interfaces\l/XBotPipes.h">
<polygon fill="none" stroke="black" points="789,-145.5 789,-175.5 894,-175.5 894,-145.5 789,-145.5"/>
<text text-anchor="start" x="797" y="-163.5" font-family="Helvetica,sans-Serif" font-size="10.00">XBotCore&#45;interfaces</text>
<text text-anchor="middle" x="841.5" y="-152.5" font-family="Helvetica,sans-Serif" font-size="10.00">/XBotPipes.h</text>
</a>
</g>
</g>
<!-- Node12&#45;&gt;Node13 -->
<g id="edge13" class="edge"><title>Node12&#45;&gt;Node13</title>
<path fill="none" stroke="midnightblue" d="M841.5,-212.396C841.5,-204.645 841.5,-194.812 841.5,-185.86"/>
<polygon fill="midnightblue" stroke="midnightblue" points="845,-185.576 841.5,-175.577 838,-185.577 845,-185.576"/>
</g>
<!-- Node14 -->
<g id="node14" class="node"><title>Node14</title>
<polygon fill="none" stroke="#bfbfbf" points="631.5,-84 631.5,-103 685.5,-103 685.5,-84 631.5,-84"/>
<text text-anchor="middle" x="658.5" y="-91" font-family="Helvetica,sans-Serif" font-size="10.00">iostream</text>
</g>
<!-- Node12&#45;&gt;Node14 -->
<g id="edge48" class="edge"><title>Node12&#45;&gt;Node14</title>
<path fill="none" stroke="midnightblue" d="M821.916,-212.374C786.895,-187.113 713.905,-134.464 678.55,-108.963"/>
<polygon fill="midnightblue" stroke="midnightblue" points="680.577,-106.109 670.419,-103.097 676.482,-111.786 680.577,-106.109"/>
</g>
<!-- Node16 -->
<g id="node16" class="node"><title>Node16</title>
<polygon fill="none" stroke="#bfbfbf" points="969.5,-84 969.5,-103 1029.5,-103 1029.5,-84 969.5,-84"/>
<text text-anchor="middle" x="999.5" y="-91" font-family="Helvetica,sans-Serif" font-size="10.00">sys/stat.h</text>
</g>
<!-- Node12&#45;&gt;Node16 -->
<g id="edge46" class="edge"><title>Node12&#45;&gt;Node16</title>
<path fill="none" stroke="midnightblue" d="M858.619,-212.384C870.861,-202.276 887.718,-188.328 902.5,-176 930.163,-152.929 962.128,-126.023 981.571,-109.63"/>
<polygon fill="midnightblue" stroke="midnightblue" points="983.938,-112.213 989.326,-103.09 979.425,-106.862 983.938,-112.213"/>
</g>
<!-- Node17 -->
<g id="node17" class="node"><title>Node17</title>
<polygon fill="none" stroke="#bfbfbf" points="1047.5,-84 1047.5,-103 1091.5,-103 1091.5,-84 1047.5,-84"/>
<text text-anchor="middle" x="1069.5" y="-91" font-family="Helvetica,sans-Serif" font-size="10.00">fcntl.h</text>
</g>
<!-- Node12&#45;&gt;Node17 -->
<g id="edge47" class="edge"><title>Node12&#45;&gt;Node17</title>
<path fill="none" stroke="midnightblue" d="M868.135,-212.453C886.828,-202.493 912.341,-188.696 934.5,-176 974.661,-152.989 1020.66,-124.826 1047.26,-108.351"/>
<polygon fill="midnightblue" stroke="midnightblue" points="1049.17,-111.286 1055.82,-103.039 1045.48,-105.338 1049.17,-111.286"/>
</g>
<!-- Node32 -->
<g id="node32" class="node"><title>Node32</title>
<g id="a_node32"><a xlink:href="CommunicationInterfaceROS_8h.html" target="_top" xlink:title="XCM/CommunicationInterface\lROS.h">
<polygon fill="none" stroke="black" points="1669,-145.5 1669,-175.5 1818,-175.5 1818,-145.5 1669,-145.5"/>
<text text-anchor="start" x="1677" y="-163.5" font-family="Helvetica,sans-Serif" font-size="10.00">XCM/CommunicationInterface</text>
<text text-anchor="middle" x="1743.5" y="-152.5" font-family="Helvetica,sans-Serif" font-size="10.00">ROS.h</text>
</a>
</g>
</g>
<!-- Node12&#45;&gt;Node32 -->
<g id="edge35" class="edge"><title>Node12&#45;&gt;Node32</title>
<path fill="none" stroke="midnightblue" d="M910.332,-213.231C913.426,-212.784 916.493,-212.37 919.5,-212 1188.22,-178.914 1509.05,-167.159 1658.75,-163.27"/>
<polygon fill="midnightblue" stroke="midnightblue" points="1658.89,-166.768 1668.8,-163.014 1658.71,-159.77 1658.89,-166.768"/>
</g>
<!-- Node13&#45;&gt;Node8 -->
<g id="edge15" class="edge"><title>Node13&#45;&gt;Node8</title>
<path fill="none" stroke="midnightblue" d="M788.789,-153.376C732.104,-146.002 639.715,-131.699 562.5,-109 560.211,-108.327 557.867,-107.553 555.531,-106.722"/>
<polygon fill="midnightblue" stroke="midnightblue" points="556.714,-103.427 546.125,-103.08 554.187,-109.954 556.714,-103.427"/>
</g>
<!-- Node13&#45;&gt;Node9 -->
<g id="edge14" class="edge"><title>Node13&#45;&gt;Node9</title>
<path fill="none" stroke="midnightblue" d="M788.797,-150.773C743.845,-142.523 677.892,-128.496 622.5,-109 620.887,-108.432 619.246,-107.802 617.606,-107.132"/>
<polygon fill="midnightblue" stroke="midnightblue" points="618.966,-103.906 608.41,-103.005 616.1,-110.293 618.966,-103.906"/>
</g>
<!-- Node13&#45;&gt;Node14 -->
<g id="edge16" class="edge"><title>Node13&#45;&gt;Node14</title>
<path fill="none" stroke="midnightblue" d="M798.836,-145.496C769.383,-135.669 729.392,-122.01 694.5,-109 692.653,-108.311 690.759,-107.591 688.851,-106.855"/>
<polygon fill="midnightblue" stroke="midnightblue" points="689.955,-103.528 679.368,-103.119 687.389,-110.041 689.955,-103.528"/>
</g>
<!-- Node15 -->
<g id="node15" class="node"><title>Node15</title>
<polygon fill="none" stroke="#bfbfbf" points="813.5,-84 813.5,-103 881.5,-103 881.5,-84 813.5,-84"/>
<text text-anchor="middle" x="847.5" y="-91" font-family="Helvetica,sans-Serif" font-size="10.00">sys/types.h</text>
</g>
<!-- Node13&#45;&gt;Node15 -->
<g id="edge17" class="edge"><title>Node13&#45;&gt;Node15</title>
<path fill="none" stroke="midnightblue" d="M842.802,-145.396C843.673,-135.963 844.828,-123.448 845.775,-113.189"/>
<polygon fill="midnightblue" stroke="midnightblue" points="849.263,-113.474 846.697,-103.195 842.293,-112.83 849.263,-113.474"/>
</g>
<!-- Node13&#45;&gt;Node16 -->
<g id="edge18" class="edge"><title>Node13&#45;&gt;Node16</title>
<path fill="none" stroke="midnightblue" d="M875.784,-145.396C903.629,-133.941 942.526,-117.938 969.232,-106.952"/>
<polygon fill="midnightblue" stroke="midnightblue" points="970.905,-110.048 978.821,-103.007 968.242,-103.575 970.905,-110.048"/>
</g>
<!-- Node13&#45;&gt;Node17 -->
<g id="edge19" class="edge"><title>Node13&#45;&gt;Node17</title>
<path fill="none" stroke="midnightblue" d="M894.145,-148.812C934.291,-139.991 990.64,-126.158 1038.5,-109 1040.11,-108.421 1041.76,-107.788 1043.41,-107.121"/>
<polygon fill="midnightblue" stroke="midnightblue" points="1044.93,-110.276 1052.69,-103.06 1042.12,-103.864 1044.93,-110.276"/>
</g>
<!-- Node18 -->
<g id="node18" class="node"><title>Node18</title>
<polygon fill="none" stroke="#bfbfbf" points="900,-84 900,-103 951,-103 951,-84 900,-84"/>
<text text-anchor="middle" x="925.5" y="-91" font-family="Helvetica,sans-Serif" font-size="10.00">unistd.h</text>
</g>
<!-- Node13&#45;&gt;Node18 -->
<g id="edge20" class="edge"><title>Node13&#45;&gt;Node18</title>
<path fill="none" stroke="midnightblue" d="M859.727,-145.396C873.473,-134.759 892.284,-120.203 906.269,-109.381"/>
<polygon fill="midnightblue" stroke="midnightblue" points="908.497,-112.082 914.264,-103.195 904.213,-106.546 908.497,-112.082"/>
</g>
<!-- Node19 -->
<g id="node19" class="node"><title>Node19</title>
<g id="a_node19"><a xlink:href="XBotUtils_8h.html" target="_top" xlink:title="XCM/XBotUtils.h">
<polygon fill="none" stroke="black" points="703.5,-84 703.5,-103 795.5,-103 795.5,-84 703.5,-84"/>
<text text-anchor="middle" x="749.5" y="-91" font-family="Helvetica,sans-Serif" font-size="10.00">XCM/XBotUtils.h</text>
</a>
</g>
</g>
<!-- Node13&#45;&gt;Node19 -->
<g id="edge21" class="edge"><title>Node13&#45;&gt;Node19</title>
<path fill="none" stroke="midnightblue" d="M821.537,-145.396C806.252,-134.597 785.248,-119.756 769.863,-108.887"/>
<polygon fill="midnightblue" stroke="midnightblue" points="771.728,-105.919 761.541,-103.007 767.688,-111.636 771.728,-105.919"/>
</g>
<!-- Node19&#45;&gt;Node3 -->
<g id="edge22" class="edge"><title>Node19&#45;&gt;Node3</title>
<path fill="none" stroke="midnightblue" d="M721.469,-83.9463C712.891,-81.6447 703.375,-79.406 694.5,-78 554.465,-55.8158 192.921,-83.9886 57.5,-42 52.9129,-40.5777 48.3071,-38.3837 44.0528,-35.9616"/>
<polygon fill="midnightblue" stroke="midnightblue" points="45.7649,-32.903 35.4446,-30.5064 42.0178,-38.8157 45.7649,-32.903"/>
</g>
<!-- Node20 -->
<g id="node20" class="node"><title>Node20</title>
<polygon fill="none" stroke="#bfbfbf" points="818.5,-11.5 818.5,-30.5 864.5,-30.5 864.5,-11.5 818.5,-11.5"/>
<text text-anchor="middle" x="841.5" y="-18.5" font-family="Helvetica,sans-Serif" font-size="10.00">stdio.h</text>
</g>
<!-- Node19&#45;&gt;Node20 -->
<g id="edge23" class="edge"><title>Node19&#45;&gt;Node20</title>
<path fill="none" stroke="midnightblue" d="M760.781,-83.8553C776.024,-72.1744 803.428,-51.1748 822.033,-36.9179"/>
<polygon fill="midnightblue" stroke="midnightblue" points="824.318,-39.5761 830.127,-30.7154 820.06,-34.0198 824.318,-39.5761"/>
</g>
<!-- Node21 -->
<g id="node21" class="node"><title>Node21</title>
<polygon fill="none" stroke="#bfbfbf" points="882.5,-11.5 882.5,-30.5 932.5,-30.5 932.5,-11.5 882.5,-11.5"/>
<text text-anchor="middle" x="907.5" y="-18.5" font-family="Helvetica,sans-Serif" font-size="10.00">fstream</text>
</g>
<!-- Node19&#45;&gt;Node21 -->
<g id="edge24" class="edge"><title>Node19&#45;&gt;Node21</title>
<path fill="none" stroke="midnightblue" d="M773.257,-83.9977C798.553,-74.6756 839.537,-58.7947 873.5,-42 877.26,-40.1407 881.167,-38.0262 884.936,-35.8851"/>
<polygon fill="midnightblue" stroke="midnightblue" points="887.011,-38.7251 893.855,-30.638 883.461,-32.6916 887.011,-38.7251"/>
</g>
<!-- Node22 -->
<g id="node22" class="node"><title>Node22</title>
<polygon fill="none" stroke="#bfbfbf" points="950.5,-11.5 950.5,-30.5 1002.5,-30.5 1002.5,-11.5 950.5,-11.5"/>
<text text-anchor="middle" x="976.5" y="-18.5" font-family="Helvetica,sans-Serif" font-size="10.00">sstream</text>
</g>
<!-- Node19&#45;&gt;Node22 -->
<g id="edge25" class="edge"><title>Node19&#45;&gt;Node22</title>
<path fill="none" stroke="midnightblue" d="M781.781,-83.985C789.241,-82.0183 797.147,-79.9354 804.5,-78 865.382,-61.9754 883.225,-65.8219 941.5,-42 945.844,-40.2241 950.315,-38.0061 954.546,-35.6996"/>
<polygon fill="midnightblue" stroke="midnightblue" points="956.383,-38.6809 963.289,-30.646 952.879,-32.6206 956.383,-38.6809"/>
</g>
<!-- Node23 -->
<g id="node23" class="node"><title>Node23</title>
<polygon fill="none" stroke="#bfbfbf" points="1020.5,-11.5 1020.5,-30.5 1144.5,-30.5 1144.5,-11.5 1020.5,-11.5"/>
<text text-anchor="middle" x="1082.5" y="-18.5" font-family="Helvetica,sans-Serif" font-size="10.00">boost/circular_buffer.hpp</text>
</g>
<!-- Node19&#45;&gt;Node23 -->
<g id="edge26" class="edge"><title>Node19&#45;&gt;Node23</title>
<path fill="none" stroke="midnightblue" d="M779.934,-83.9798C787.896,-81.8874 796.493,-79.7485 804.5,-78 895.731,-58.0792 920.439,-62.6867 1011.5,-42 1022.38,-39.5277 1034.08,-36.4208 1044.79,-33.398"/>
<polygon fill="midnightblue" stroke="midnightblue" points="1046.04,-36.6795 1054.68,-30.5491 1044.1,-29.9528 1046.04,-36.6795"/>
</g>
<!-- Node24 -->
<g id="node24" class="node"><title>Node24</title>
<polygon fill="none" stroke="#bfbfbf" points="1162.5,-6 1162.5,-36 1264.5,-36 1264.5,-6 1162.5,-6"/>
<text text-anchor="start" x="1170.5" y="-24" font-family="Helvetica,sans-Serif" font-size="10.00">boost/accumulators</text>
<text text-anchor="middle" x="1213.5" y="-13" font-family="Helvetica,sans-Serif" font-size="10.00">/accumulators.hpp</text>
</g>
<!-- Node19&#45;&gt;Node24 -->
<g id="edge27" class="edge"><title>Node19&#45;&gt;Node24</title>
<path fill="none" stroke="midnightblue" d="M778.426,-83.9753C786.78,-81.7584 795.951,-79.5581 804.5,-78 957.907,-50.0403 1001.07,-74.852 1153.5,-42 1157.55,-41.1282 1161.7,-40.0796 1165.84,-38.9252"/>
<polygon fill="midnightblue" stroke="midnightblue" points="1166.85,-42.2776 1175.44,-36.0729 1164.85,-35.5679 1166.85,-42.2776"/>
</g>
<!-- Node25 -->
<g id="node25" class="node"><title>Node25</title>
<polygon fill="none" stroke="#bfbfbf" points="1283,-6 1283,-36 1388,-36 1388,-6 1283,-6"/>
<text text-anchor="start" x="1291" y="-24" font-family="Helvetica,sans-Serif" font-size="10.00">boost/accumulators</text>
<text text-anchor="middle" x="1335.5" y="-13" font-family="Helvetica,sans-Serif" font-size="10.00">/statistics/count.hpp</text>
</g>
<!-- Node19&#45;&gt;Node25 -->
<g id="edge28" class="edge"><title>Node19&#45;&gt;Node25</title>
<path fill="none" stroke="midnightblue" d="M777.832,-83.9819C786.337,-81.7102 795.737,-79.479 804.5,-78 1010.64,-43.2103 1068.38,-82.37 1273.5,-42 1277.93,-41.1288 1282.48,-40.0435 1287.01,-38.8319"/>
<polygon fill="midnightblue" stroke="midnightblue" points="1288.19,-42.1338 1296.84,-36.0121 1286.26,-35.4051 1288.19,-42.1338"/>
</g>
<!-- Node26 -->
<g id="node26" class="node"><title>Node26</title>
<polygon fill="none" stroke="#bfbfbf" points="67,-6 67,-36 172,-36 172,-6 67,-6"/>
<text text-anchor="start" x="75" y="-24" font-family="Helvetica,sans-Serif" font-size="10.00">boost/accumulators</text>
<text text-anchor="middle" x="119.5" y="-13" font-family="Helvetica,sans-Serif" font-size="10.00">/statistics/mean.hpp</text>
</g>
<!-- Node19&#45;&gt;Node26 -->
<g id="edge29" class="edge"><title>Node19&#45;&gt;Node26</title>
<path fill="none" stroke="midnightblue" d="M721.174,-83.9457C712.669,-81.673 703.268,-79.4503 694.5,-78 469.003,-40.7028 405.902,-85.4017 181.5,-42 177.07,-41.1433 172.516,-40.0679 167.983,-38.8629"/>
<polygon fill="midnightblue" stroke="midnightblue" points="168.728,-35.4356 158.151,-36.0522 166.804,-42.166 168.728,-35.4356"/>
</g>
<!-- Node27 -->
<g id="node27" class="node"><title>Node27</title>
<polygon fill="none" stroke="#bfbfbf" points="190.5,-6 190.5,-36 292.5,-36 292.5,-6 190.5,-6"/>
<text text-anchor="start" x="198.5" y="-24" font-family="Helvetica,sans-Serif" font-size="10.00">boost/accumulators</text>
<text text-anchor="middle" x="241.5" y="-13" font-family="Helvetica,sans-Serif" font-size="10.00">/statistics/min.hpp</text>
</g>
<!-- Node19&#45;&gt;Node27 -->
<g id="edge30" class="edge"><title>Node19&#45;&gt;Node27</title>
<path fill="none" stroke="midnightblue" d="M720.87,-83.9877C712.44,-81.744 703.155,-79.5264 694.5,-78 521.768,-47.5379 473.17,-77.9713 301.5,-42 297.389,-41.1387 293.168,-40.0882 288.96,-38.9244"/>
<polygon fill="midnightblue" stroke="midnightblue" points="289.808,-35.5253 279.225,-36.0388 287.818,-42.2367 289.808,-35.5253"/>
</g>
<!-- Node28 -->
<g id="node28" class="node"><title>Node28</title>
<polygon fill="none" stroke="#bfbfbf" points="310.5,-6 310.5,-36 412.5,-36 412.5,-6 310.5,-6"/>
<text text-anchor="start" x="318.5" y="-24" font-family="Helvetica,sans-Serif" font-size="10.00">boost/accumulators</text>
<text text-anchor="middle" x="361.5" y="-13" font-family="Helvetica,sans-Serif" font-size="10.00">/statistics/max.hpp</text>
</g>
<!-- Node19&#45;&gt;Node28 -->
<g id="edge31" class="edge"><title>Node19&#45;&gt;Node28</title>
<path fill="none" stroke="midnightblue" d="M719.974,-83.9805C711.773,-81.8157 702.832,-79.6409 694.5,-78 574.422,-54.3532 540.76,-69.4753 421.5,-42 417.638,-41.1103 413.672,-40.0739 409.709,-38.9498"/>
<polygon fill="midnightblue" stroke="midnightblue" points="410.506,-35.5349 399.922,-36.0089 408.492,-42.2388 410.506,-35.5349"/>
</g>
<!-- Node29 -->
<g id="node29" class="node"><title>Node29</title>
<polygon fill="none" stroke="#bfbfbf" points="430.5,-6 430.5,-36 548.5,-36 548.5,-6 430.5,-6"/>
<text text-anchor="start" x="438.5" y="-24" font-family="Helvetica,sans-Serif" font-size="10.00">boost/accumulators</text>
<text text-anchor="middle" x="489.5" y="-13" font-family="Helvetica,sans-Serif" font-size="10.00">/statistics/variance.hpp</text>
</g>
<!-- Node19&#45;&gt;Node29 -->
<g id="edge32" class="edge"><title>Node19&#45;&gt;Node29</title>
<path fill="none" stroke="midnightblue" d="M717.219,-83.985C709.759,-82.0183 701.853,-79.9354 694.5,-78 633.618,-61.9754 618.15,-58.8838 557.5,-42 553.91,-41.0007 550.218,-39.9579 546.498,-38.896"/>
<polygon fill="midnightblue" stroke="midnightblue" points="547.216,-35.4606 536.638,-36.057 545.279,-42.1873 547.216,-35.4606"/>
</g>
<!-- Node30 -->
<g id="node30" class="node"><title>Node30</title>
<polygon fill="none" stroke="#bfbfbf" points="566.5,-6 566.5,-36 680.5,-36 680.5,-6 566.5,-6"/>
<text text-anchor="start" x="574.5" y="-24" font-family="Helvetica,sans-Serif" font-size="10.00">boost/accumulators</text>
<text text-anchor="middle" x="623.5" y="-13" font-family="Helvetica,sans-Serif" font-size="10.00">/statistics/error_of.hpp</text>
</g>
<!-- Node19&#45;&gt;Node30 -->
<g id="edge33" class="edge"><title>Node19&#45;&gt;Node30</title>
<path fill="none" stroke="midnightblue" d="M734.05,-83.8553C715.087,-73.2453 682.384,-54.9469 657.452,-40.9967"/>
<polygon fill="midnightblue" stroke="midnightblue" points="659.093,-37.9047 648.657,-36.0762 655.675,-44.0135 659.093,-37.9047"/>
</g>
<!-- Node31 -->
<g id="node31" class="node"><title>Node31</title>
<polygon fill="none" stroke="#bfbfbf" points="698.5,-0.5 698.5,-41.5 800.5,-41.5 800.5,-0.5 698.5,-0.5"/>
<text text-anchor="start" x="706.5" y="-29.5" font-family="Helvetica,sans-Serif" font-size="10.00">boost/accumulators</text>
<text text-anchor="start" x="706.5" y="-18.5" font-family="Helvetica,sans-Serif" font-size="10.00">/statistics/error_of</text>
<text text-anchor="middle" x="749.5" y="-7.5" font-family="Helvetica,sans-Serif" font-size="10.00">_mean.hpp</text>
</g>
<!-- Node19&#45;&gt;Node31 -->
<g id="edge34" class="edge"><title>Node19&#45;&gt;Node31</title>
<path fill="none" stroke="midnightblue" d="M749.5,-83.8553C749.5,-75.8604 749.5,-63.5002 749.5,-51.9243"/>
<polygon fill="midnightblue" stroke="midnightblue" points="753,-51.6616 749.5,-41.6616 746,-51.6616 753,-51.6616"/>
</g>
<!-- Node33 -->
<g id="node33" class="node"><title>Node33</title>
<g id="a_node33"><a xlink:href="XBotCommunicationInterface_8h.html" target="_top" xlink:title="XCM/XBotCommunicationInterface.h">
<polygon fill="none" stroke="black" points="1251,-84 1251,-103 1430,-103 1430,-84 1251,-84"/>
<text text-anchor="middle" x="1340.5" y="-91" font-family="Helvetica,sans-Serif" font-size="10.00">XCM/XBotCommunicationInterface.h</text>
</a>
</g>
</g>
<!-- Node32&#45;&gt;Node33 -->
<g id="edge36" class="edge"><title>Node32&#45;&gt;Node33</title>
<path fill="none" stroke="midnightblue" d="M1668.64,-147.426C1592.38,-135.126 1475.42,-116.262 1403.68,-104.69"/>
<polygon fill="midnightblue" stroke="midnightblue" points="1403.86,-101.175 1393.43,-103.038 1402.75,-108.085 1403.86,-101.175"/>
</g>
<!-- Node35 -->
<g id="node35" class="node"><title>Node35</title>
<polygon fill="none" stroke="#bfbfbf" points="1448,-84 1448,-103 1503,-103 1503,-84 1448,-84"/>
<text text-anchor="middle" x="1475.5" y="-91" font-family="Helvetica,sans-Serif" font-size="10.00">ros/ros.h</text>
</g>
<!-- Node32&#45;&gt;Node35 -->
<g id="edge38" class="edge"><title>Node32&#45;&gt;Node35</title>
<path fill="none" stroke="midnightblue" d="M1668.87,-146.297C1623.25,-137.46 1563.96,-124.602 1512.5,-109 1510.07,-108.264 1507.58,-107.441 1505.09,-106.571"/>
<polygon fill="midnightblue" stroke="midnightblue" points="1506.25,-103.265 1495.65,-103.064 1503.81,-109.827 1506.25,-103.265"/>
</g>
<!-- Node36 -->
<g id="node36" class="node"><title>Node36</title>
<polygon fill="none" stroke="#bfbfbf" points="1521.5,-84 1521.5,-103 1621.5,-103 1621.5,-84 1521.5,-84"/>
<text text-anchor="middle" x="1571.5" y="-91" font-family="Helvetica,sans-Serif" font-size="10.00">std_srvs/SetBool.h</text>
</g>
<!-- Node32&#45;&gt;Node36 -->
<g id="edge39" class="edge"><title>Node32&#45;&gt;Node36</title>
<path fill="none" stroke="midnightblue" d="M1706.18,-145.396C1675.6,-133.84 1632.77,-117.656 1603.68,-106.663"/>
<polygon fill="midnightblue" stroke="midnightblue" points="1604.6,-103.268 1594.01,-103.007 1602.13,-109.816 1604.6,-103.268"/>
</g>
<!-- Node37 -->
<g id="node37" class="node"><title>Node37</title>
<polygon fill="none" stroke="#bfbfbf" points="1639.5,-84 1639.5,-103 1719.5,-103 1719.5,-84 1639.5,-84"/>
<text text-anchor="middle" x="1679.5" y="-91" font-family="Helvetica,sans-Serif" font-size="10.00">boost/bind.hpp</text>
</g>
<!-- Node32&#45;&gt;Node37 -->
<g id="edge40" class="edge"><title>Node32&#45;&gt;Node37</title>
<path fill="none" stroke="midnightblue" d="M1729.61,-145.396C1719.54,-135.161 1705.88,-121.296 1695.37,-110.622"/>
<polygon fill="midnightblue" stroke="midnightblue" points="1697.57,-107.865 1688.06,-103.195 1692.58,-112.776 1697.57,-107.865"/>
</g>
<!-- Node38 -->
<g id="node38" class="node"><title>Node38</title>
<polygon fill="none" stroke="#bfbfbf" points="1737.5,-78.5 1737.5,-108.5 1877.5,-108.5 1877.5,-78.5 1737.5,-78.5"/>
<text text-anchor="start" x="1745.5" y="-96.5" font-family="Helvetica,sans-Serif" font-size="10.00">RobotInterfaceROS/Generic</text>
<text text-anchor="middle" x="1807.5" y="-85.5" font-family="Helvetica,sans-Serif" font-size="10.00">ControlMessage.h</text>
</g>
<!-- Node32&#45;&gt;Node38 -->
<g id="edge41" class="edge"><title>Node32&#45;&gt;Node38</title>
<path fill="none" stroke="midnightblue" d="M1757.39,-145.396C1765.86,-136.793 1776.85,-125.626 1786.39,-115.945"/>
<polygon fill="midnightblue" stroke="midnightblue" points="1789.12,-118.158 1793.64,-108.577 1784.13,-113.247 1789.12,-118.158"/>
</g>
<!-- Node39 -->
<g id="node39" class="node"><title>Node39</title>
<polygon fill="none" stroke="#bfbfbf" points="1895.5,-78.5 1895.5,-108.5 2035.5,-108.5 2035.5,-78.5 1895.5,-78.5"/>
<text text-anchor="start" x="1903.5" y="-96.5" font-family="Helvetica,sans-Serif" font-size="10.00">RobotInterfaceROS/Generic</text>
<text text-anchor="middle" x="1965.5" y="-85.5" font-family="Helvetica,sans-Serif" font-size="10.00">JointStateMessage.h</text>
</g>
<!-- Node32&#45;&gt;Node39 -->
<g id="edge42" class="edge"><title>Node32&#45;&gt;Node39</title>
<path fill="none" stroke="midnightblue" d="M1791.4,-145.476C1825.42,-135.515 1871.28,-122.086 1907.4,-111.512"/>
<polygon fill="midnightblue" stroke="midnightblue" points="1908.69,-114.78 1917.31,-108.611 1906.73,-108.062 1908.69,-114.78"/>
</g>
<!-- Node40 -->
<g id="node40" class="node"><title>Node40</title>
<polygon fill="none" stroke="#bfbfbf" points="2054,-78.5 2054,-108.5 2175,-108.5 2175,-78.5 2054,-78.5"/>
<text text-anchor="start" x="2062" y="-96.5" font-family="Helvetica,sans-Serif" font-size="10.00">robot_state_publisher</text>
<text text-anchor="middle" x="2114.5" y="-85.5" font-family="Helvetica,sans-Serif" font-size="10.00">/robot_state_publisher.h</text>
</g>
<!-- Node32&#45;&gt;Node40 -->
<g id="edge43" class="edge"><title>Node32&#45;&gt;Node40</title>
<path fill="none" stroke="midnightblue" d="M1818.17,-147.782C1876.84,-138.388 1960.86,-124.524 2043.96,-109.06"/>
<polygon fill="midnightblue" stroke="midnightblue" points="2044.64,-112.494 2053.82,-107.216 2043.35,-105.614 2044.64,-112.494"/>
</g>
<!-- Node41 -->
<g id="node41" class="node"><title>Node41</title>
<polygon fill="none" stroke="#bfbfbf" points="2193.5,-84 2193.5,-103 2299.5,-103 2299.5,-84 2193.5,-84"/>
<text text-anchor="middle" x="2246.5" y="-91" font-family="Helvetica,sans-Serif" font-size="10.00">XCM/cmd_service.h</text>
</g>
<!-- Node32&#45;&gt;Node41 -->
<g id="edge44" class="edge"><title>Node32&#45;&gt;Node41</title>
<path fill="none" stroke="midnightblue" d="M1818,-153.618C1905.99,-146.06 2056.56,-131.209 2184.5,-109 2190.65,-107.933 2197.1,-106.632 2203.42,-105.251"/>
<polygon fill="midnightblue" stroke="midnightblue" points="2204.2,-108.662 2213.18,-103.039 2202.66,-101.835 2204.2,-108.662"/>
</g>
<!-- Node42 -->
<g id="node42" class="node"><title>Node42</title>
<polygon fill="none" stroke="#bfbfbf" points="2317.5,-84 2317.5,-103 2431.5,-103 2431.5,-84 2317.5,-84"/>
<text text-anchor="middle" x="2374.5" y="-91" font-family="Helvetica,sans-Serif" font-size="10.00">XCM/status_service.h</text>
</g>
<!-- Node32&#45;&gt;Node42 -->
<g id="edge45" class="edge"><title>Node32&#45;&gt;Node42</title>
<path fill="none" stroke="midnightblue" d="M1818.35,-155.845C1926.88,-149.859 2134.03,-135.852 2308.5,-109 2315.36,-107.945 2322.57,-106.604 2329.6,-105.165"/>
<polygon fill="midnightblue" stroke="midnightblue" points="2330.67,-108.516 2339.72,-103.009 2329.21,-101.67 2330.67,-108.516"/>
</g>
<!-- Node34 -->
<g id="node34" class="node"><title>Node34</title>
<polygon fill="none" stroke="#bfbfbf" points="1406.5,-11.5 1406.5,-30.5 1558.5,-30.5 1558.5,-11.5 1406.5,-11.5"/>
<text text-anchor="middle" x="1482.5" y="-18.5" font-family="Helvetica,sans-Serif" font-size="10.00">XBotInterface/RobotInterface.h</text>
</g>
<!-- Node33&#45;&gt;Node34 -->
<g id="edge37" class="edge"><title>Node33&#45;&gt;Node34</title>
<path fill="none" stroke="midnightblue" d="M1357.63,-83.9961C1382.15,-71.8218 1427.47,-49.3223 1456.24,-35.037"/>
<polygon fill="midnightblue" stroke="midnightblue" points="1457.91,-38.116 1465.31,-30.5341 1454.8,-31.8461 1457.91,-38.116"/>
</g>
</g>
</svg>
