<?xml version="1.0" encoding="UTF-8" standalone="no"?>
<!DOCTYPE svg PUBLIC "-//W3C//DTD SVG 1.1//EN"
 "http://www.w3.org/Graphics/SVG/1.1/DTD/svg11.dtd">
<!-- Generated by graphviz version 2.38.0 (20140413.2041)
 -->
<!-- Title: /home/lucamuratore/advr&#45;superbuild/external/XCM/src/XDomainCommunication.cpp Pages: 1 -->
<svg width="2202pt" height="329pt"
 viewBox="0.00 0.00 2202.00 329.00" xmlns="http://www.w3.org/2000/svg" xmlns:xlink="http://www.w3.org/1999/xlink">
<g id="graph0" class="graph" transform="scale(1 1) rotate(0) translate(4 325)">
<title>/home/lucamuratore/advr&#45;superbuild/external/XCM/src/XDomainCommunication.cpp</title>
<!-- Node1 -->
<g id="node1" class="node"><title>Node1</title>
<polygon fill="#bfbfbf" stroke="black" points="809.5,-279.5 809.5,-320.5 998.5,-320.5 998.5,-279.5 809.5,-279.5"/>
<text text-anchor="start" x="817.5" y="-308.5" font-family="Helvetica,sans-Serif" font-size="10.00">/home/lucamuratore</text>
<text text-anchor="start" x="817.5" y="-297.5" font-family="Helvetica,sans-Serif" font-size="10.00">/advr&#45;superbuild/external</text>
<text text-anchor="middle" x="904" y="-286.5" font-family="Helvetica,sans-Serif" font-size="10.00">/XCM/src/XDomainCommunication.cpp</text>
</g>
<!-- Node2 -->
<g id="node2" class="node"><title>Node2</title>
<g id="a_node2"><a xlink:href="XDomainCommunication_8h.html" target="_top" xlink:title="XBotCore&#45;interfaces\l/XDomainCommunication.h">
<polygon fill="none" stroke="black" points="835.5,-212.5 835.5,-242.5 972.5,-242.5 972.5,-212.5 835.5,-212.5"/>
<text text-anchor="start" x="843.5" y="-230.5" font-family="Helvetica,sans-Serif" font-size="10.00">XBotCore&#45;interfaces</text>
<text text-anchor="middle" x="904" y="-219.5" font-family="Helvetica,sans-Serif" font-size="10.00">/XDomainCommunication.h</text>
</a>
</g>
</g>
<!-- Node1&#45;&gt;Node2 -->
<g id="edge1" class="edge"><title>Node1&#45;&gt;Node2</title>
<path fill="none" stroke="midnightblue" d="M904,-279.362C904,-271.226 904,-261.7 904,-253.105"/>
<polygon fill="midnightblue" stroke="midnightblue" points="907.5,-252.892 904,-242.892 900.5,-252.892 907.5,-252.892"/>
</g>
<!-- Node3 -->
<g id="node3" class="node"><title>Node3</title>
<g id="a_node3"><a xlink:href="XBotPipes_8h.html" target="_top" xlink:title="XBotCore&#45;interfaces\l/XBotPipes.h">
<polygon fill="none" stroke="black" points="697.5,-145.5 697.5,-175.5 802.5,-175.5 802.5,-145.5 697.5,-145.5"/>
<text text-anchor="start" x="705.5" y="-163.5" font-family="Helvetica,sans-Serif" font-size="10.00">XBotCore&#45;interfaces</text>
<text text-anchor="middle" x="750" y="-152.5" font-family="Helvetica,sans-Serif" font-size="10.00">/XBotPipes.h</text>
</a>
</g>
</g>
<!-- Node2&#45;&gt;Node3 -->
<g id="edge2" class="edge"><title>Node2&#45;&gt;Node3</title>
<path fill="none" stroke="midnightblue" d="M870.584,-212.396C847.78,-202.771 817.372,-189.936 792.797,-179.564"/>
<polygon fill="midnightblue" stroke="midnightblue" points="793.925,-176.241 783.35,-175.577 791.202,-182.69 793.925,-176.241"/>
</g>
<!-- Node6 -->
<g id="node6" class="node"><title>Node6</title>
<polygon fill="none" stroke="#bfbfbf" points="406,-84 406,-103 460,-103 460,-84 406,-84"/>
<text text-anchor="middle" x="433" y="-91" font-family="Helvetica,sans-Serif" font-size="10.00">iostream</text>
</g>
<!-- Node2&#45;&gt;Node6 -->
<g id="edge37" class="edge"><title>Node2&#45;&gt;Node6</title>
<path fill="none" stroke="midnightblue" d="M838.971,-212.494C795.946,-202.933 738.385,-189.581 688,-176 589.721,-149.51 564.963,-142.935 469,-109 467.094,-108.326 465.141,-107.611 463.177,-106.874"/>
<polygon fill="midnightblue" stroke="midnightblue" points="464.033,-103.451 453.444,-103.089 461.496,-109.975 464.033,-103.451"/>
</g>
<!-- Node8 -->
<g id="node8" class="node"><title>Node8</title>
<polygon fill="none" stroke="#bfbfbf" points="874,-84 874,-103 934,-103 934,-84 874,-84"/>
<text text-anchor="middle" x="904" y="-91" font-family="Helvetica,sans-Serif" font-size="10.00">sys/stat.h</text>
</g>
<!-- Node2&#45;&gt;Node8 -->
<g id="edge35" class="edge"><title>Node2&#45;&gt;Node8</title>
<path fill="none" stroke="midnightblue" d="M904,-212.374C904,-188.504 904,-140.181 904,-113.415"/>
<polygon fill="midnightblue" stroke="midnightblue" points="907.5,-113.097 904,-103.097 900.5,-113.097 907.5,-113.097"/>
</g>
<!-- Node9 -->
<g id="node9" class="node"><title>Node9</title>
<polygon fill="none" stroke="#bfbfbf" points="952,-84 952,-103 996,-103 996,-84 952,-84"/>
<text text-anchor="middle" x="974" y="-91" font-family="Helvetica,sans-Serif" font-size="10.00">fcntl.h</text>
</g>
<!-- Node2&#45;&gt;Node9 -->
<g id="edge36" class="edge"><title>Node2&#45;&gt;Node9</title>
<path fill="none" stroke="midnightblue" d="M911.491,-212.374C924.376,-188.076 950.698,-138.44 964.722,-111.996"/>
<polygon fill="midnightblue" stroke="midnightblue" points="967.848,-113.572 969.441,-103.097 961.664,-110.292 967.848,-113.572"/>
</g>
<!-- Node25 -->
<g id="node25" class="node"><title>Node25</title>
<g id="a_node25"><a xlink:href="CommunicationInterfaceROS_8h.html" target="_top" xlink:title="XCM/CommunicationInterface\lROS.h">
<polygon fill="none" stroke="black" points="1491.5,-145.5 1491.5,-175.5 1640.5,-175.5 1640.5,-145.5 1491.5,-145.5"/>
<text text-anchor="start" x="1499.5" y="-163.5" font-family="Helvetica,sans-Serif" font-size="10.00">XCM/CommunicationInterface</text>
<text text-anchor="middle" x="1566" y="-152.5" font-family="Helvetica,sans-Serif" font-size="10.00">ROS.h</text>
</a>
</g>
</g>
<!-- Node2&#45;&gt;Node25 -->
<g id="edge24" class="edge"><title>Node2&#45;&gt;Node25</title>
<path fill="none" stroke="midnightblue" d="M972.662,-219.758C1094.59,-207.786 1348.54,-182.852 1481.18,-169.828"/>
<polygon fill="midnightblue" stroke="midnightblue" points="1481.69,-173.295 1491.3,-168.835 1481,-166.329 1481.69,-173.295"/>
</g>
<!-- Node4 -->
<g id="node4" class="node"><title>Node4</title>
<polygon fill="none" stroke="#bfbfbf" points="814.5,-84 814.5,-103 855.5,-103 855.5,-84 814.5,-84"/>
<text text-anchor="middle" x="835" y="-91" font-family="Helvetica,sans-Serif" font-size="10.00">string</text>
</g>
<!-- Node3&#45;&gt;Node4 -->
<g id="edge3" class="edge"><title>Node3&#45;&gt;Node4</title>
<path fill="none" stroke="midnightblue" d="M768.444,-145.396C782.353,-134.759 801.389,-120.203 815.54,-109.381"/>
<polygon fill="midnightblue" stroke="midnightblue" points="817.813,-112.049 823.63,-103.195 813.561,-106.489 817.813,-112.049"/>
</g>
<!-- Node5 -->
<g id="node5" class="node"><title>Node5</title>
<polygon fill="none" stroke="#bfbfbf" points="478,-84 478,-103 530,-103 530,-84 478,-84"/>
<text text-anchor="middle" x="504" y="-91" font-family="Helvetica,sans-Serif" font-size="10.00">memory</text>
</g>
<!-- Node3&#45;&gt;Node5 -->
<g id="edge4" class="edge"><title>Node3&#45;&gt;Node5</title>
<path fill="none" stroke="midnightblue" d="M697.336,-149.309C654.261,-140.399 592.024,-126.21 539,-109 536.865,-108.307 534.678,-107.541 532.489,-106.734"/>
<polygon fill="midnightblue" stroke="midnightblue" points="533.639,-103.426 523.051,-103.031 531.082,-109.942 533.639,-103.426"/>
</g>
<!-- Node3&#45;&gt;Node6 -->
<g id="edge5" class="edge"><title>Node3&#45;&gt;Node6</title>
<path fill="none" stroke="midnightblue" d="M697.476,-153.336C640.468,-145.892 547.115,-131.493 469,-109 466.564,-108.299 464.066,-107.49 461.578,-106.621"/>
<polygon fill="midnightblue" stroke="midnightblue" points="462.766,-103.329 452.175,-103.069 460.293,-109.877 462.766,-103.329"/>
</g>
<!-- Node7 -->
<g id="node7" class="node"><title>Node7</title>
<polygon fill="none" stroke="#bfbfbf" points="548,-84 548,-103 616,-103 616,-84 548,-84"/>
<text text-anchor="middle" x="582" y="-91" font-family="Helvetica,sans-Serif" font-size="10.00">sys/types.h</text>
</g>
<!-- Node3&#45;&gt;Node7 -->
<g id="edge6" class="edge"><title>Node3&#45;&gt;Node7</title>
<path fill="none" stroke="midnightblue" d="M713.547,-145.396C683.678,-133.84 641.85,-117.656 613.436,-106.663"/>
<polygon fill="midnightblue" stroke="midnightblue" points="614.577,-103.351 603.987,-103.007 612.051,-109.88 614.577,-103.351"/>
</g>
<!-- Node3&#45;&gt;Node8 -->
<g id="edge7" class="edge"><title>Node3&#45;&gt;Node8</title>
<path fill="none" stroke="midnightblue" d="M783.416,-145.396C810.556,-133.941 848.469,-117.938 874.498,-106.952"/>
<polygon fill="midnightblue" stroke="midnightblue" points="875.993,-110.12 883.845,-103.007 873.271,-103.671 875.993,-110.12"/>
</g>
<!-- Node3&#45;&gt;Node9 -->
<g id="edge8" class="edge"><title>Node3&#45;&gt;Node9</title>
<path fill="none" stroke="midnightblue" d="M802.8,-148.412C842.04,-139.519 896.582,-125.771 943,-109 944.614,-108.417 946.257,-107.781 947.904,-107.112"/>
<polygon fill="midnightblue" stroke="midnightblue" points="949.427,-110.266 957.179,-103.044 946.616,-103.855 949.427,-110.266"/>
</g>
<!-- Node10 -->
<g id="node10" class="node"><title>Node10</title>
<polygon fill="none" stroke="#bfbfbf" points="634.5,-84 634.5,-103 685.5,-103 685.5,-84 634.5,-84"/>
<text text-anchor="middle" x="660" y="-91" font-family="Helvetica,sans-Serif" font-size="10.00">unistd.h</text>
</g>
<!-- Node3&#45;&gt;Node10 -->
<g id="edge9" class="edge"><title>Node3&#45;&gt;Node10</title>
<path fill="none" stroke="midnightblue" d="M730.471,-145.396C715.518,-134.597 694.97,-119.756 679.921,-108.887"/>
<polygon fill="midnightblue" stroke="midnightblue" points="681.935,-106.025 671.779,-103.007 677.837,-111.699 681.935,-106.025"/>
</g>
<!-- Node11 -->
<g id="node11" class="node"><title>Node11</title>
<g id="a_node11"><a xlink:href="XBotUtils_8h.html" target="_top" xlink:title="XCM/XBotUtils.h">
<polygon fill="none" stroke="black" points="704,-84 704,-103 796,-103 796,-84 704,-84"/>
<text text-anchor="middle" x="750" y="-91" font-family="Helvetica,sans-Serif" font-size="10.00">XCM/XBotUtils.h</text>
</a>
</g>
</g>
<!-- Node3&#45;&gt;Node11 -->
<g id="edge10" class="edge"><title>Node3&#45;&gt;Node11</title>
<path fill="none" stroke="midnightblue" d="M750,-145.396C750,-136.064 750,-123.714 750,-113.517"/>
<polygon fill="midnightblue" stroke="midnightblue" points="753.5,-113.195 750,-103.195 746.5,-113.195 753.5,-113.195"/>
</g>
<!-- Node12 -->
<g id="node12" class="node"><title>Node12</title>
<polygon fill="none" stroke="#bfbfbf" points="1206.5,-11.5 1206.5,-30.5 1255.5,-30.5 1255.5,-11.5 1206.5,-11.5"/>
<text text-anchor="middle" x="1231" y="-18.5" font-family="Helvetica,sans-Serif" font-size="10.00">stdint.h</text>
</g>
<!-- Node11&#45;&gt;Node12 -->
<g id="edge11" class="edge"><title>Node11&#45;&gt;Node12</title>
<path fill="none" stroke="midnightblue" d="M778.63,-83.9877C787.06,-81.744 796.345,-79.5264 805,-78 977.732,-47.5379 1031.4,-96.8589 1198,-42 1202.49,-40.5222 1207.01,-38.3405 1211.2,-35.955"/>
<polygon fill="midnightblue" stroke="midnightblue" points="1213.12,-38.8854 1219.72,-30.6015 1209.39,-32.9583 1213.12,-38.8854"/>
</g>
<!-- Node13 -->
<g id="node13" class="node"><title>Node13</title>
<polygon fill="none" stroke="#bfbfbf" points="1274,-11.5 1274,-30.5 1320,-30.5 1320,-11.5 1274,-11.5"/>
<text text-anchor="middle" x="1297" y="-18.5" font-family="Helvetica,sans-Serif" font-size="10.00">stdio.h</text>
</g>
<!-- Node11&#45;&gt;Node13 -->
<g id="edge12" class="edge"><title>Node11&#45;&gt;Node13</title>
<path fill="none" stroke="midnightblue" d="M778.334,-83.9911C786.839,-81.7196 796.238,-79.4863 805,-78 1006.74,-43.78 1069.23,-104.728 1264,-42 1268.5,-40.5515 1273.02,-38.3831 1277.22,-36.0013"/>
<polygon fill="midnightblue" stroke="midnightblue" points="1279.13,-38.9302 1285.74,-30.6432 1275.41,-33.0048 1279.13,-38.9302"/>
</g>
<!-- Node14 -->
<g id="node14" class="node"><title>Node14</title>
<polygon fill="none" stroke="#bfbfbf" points="1338,-11.5 1338,-30.5 1388,-30.5 1388,-11.5 1338,-11.5"/>
<text text-anchor="middle" x="1363" y="-18.5" font-family="Helvetica,sans-Serif" font-size="10.00">fstream</text>
</g>
<!-- Node11&#45;&gt;Node14 -->
<g id="edge13" class="edge"><title>Node11&#45;&gt;Node14</title>
<path fill="none" stroke="midnightblue" d="M778.325,-83.9376C786.83,-81.6646 796.231,-79.4438 805,-78 1035.34,-40.0758 1106,-111.021 1329,-42 1333.61,-40.5718 1338.27,-38.4125 1342.59,-36.0333"/>
<polygon fill="midnightblue" stroke="midnightblue" points="1344.66,-38.8708 1351.37,-30.6721 1341.01,-32.8965 1344.66,-38.8708"/>
</g>
<!-- Node15 -->
<g id="node15" class="node"><title>Node15</title>
<polygon fill="none" stroke="#bfbfbf" points="0,-11.5 0,-30.5 52,-30.5 52,-11.5 0,-11.5"/>
<text text-anchor="middle" x="26" y="-18.5" font-family="Helvetica,sans-Serif" font-size="10.00">sstream</text>
</g>
<!-- Node11&#45;&gt;Node15 -->
<g id="edge14" class="edge"><title>Node11&#45;&gt;Node15</title>
<path fill="none" stroke="midnightblue" d="M721.45,-83.9533C712.715,-81.6519 703.029,-79.4117 694,-78 415.594,-34.4732 331.184,-122.032 61,-42 56.0595,-40.5366 51.0659,-38.2607 46.4583,-35.7606"/>
<polygon fill="midnightblue" stroke="midnightblue" points="48.0603,-32.6404 37.6833,-30.5027 44.4623,-38.645 48.0603,-32.6404"/>
</g>
<!-- Node16 -->
<g id="node16" class="node"><title>Node16</title>
<polygon fill="none" stroke="#bfbfbf" points="70,-11.5 70,-30.5 194,-30.5 194,-11.5 70,-11.5"/>
<text text-anchor="middle" x="132" y="-18.5" font-family="Helvetica,sans-Serif" font-size="10.00">boost/circular_buffer.hpp</text>
</g>
<!-- Node11&#45;&gt;Node16 -->
<g id="edge15" class="edge"><title>Node11&#45;&gt;Node16</title>
<path fill="none" stroke="midnightblue" d="M721.147,-83.9696C712.487,-81.6976 702.918,-79.4692 694,-78 478.102,-42.4323 418.508,-79.8553 203,-42 191.315,-39.9475 178.79,-36.7614 167.562,-33.5309"/>
<polygon fill="midnightblue" stroke="midnightblue" points="168.26,-30.0869 157.677,-30.583 166.259,-36.7949 168.26,-30.0869"/>
</g>
<!-- Node17 -->
<g id="node17" class="node"><title>Node17</title>
<polygon fill="none" stroke="#bfbfbf" points="212,-6 212,-36 314,-36 314,-6 212,-6"/>
<text text-anchor="start" x="220" y="-24" font-family="Helvetica,sans-Serif" font-size="10.00">boost/accumulators</text>
<text text-anchor="middle" x="263" y="-13" font-family="Helvetica,sans-Serif" font-size="10.00">/accumulators.hpp</text>
</g>
<!-- Node11&#45;&gt;Node17 -->
<g id="edge16" class="edge"><title>Node11&#45;&gt;Node17</title>
<path fill="none" stroke="midnightblue" d="M720.546,-83.9507C712.039,-81.7335 702.703,-79.5391 694,-78 530.868,-49.1488 485.05,-76.4112 323,-42 318.892,-41.1276 314.672,-40.0694 310.465,-38.9004"/>
<polygon fill="midnightblue" stroke="midnightblue" points="311.315,-35.5018 300.732,-36.007 309.32,-42.2116 311.315,-35.5018"/>
</g>
<!-- Node18 -->
<g id="node18" class="node"><title>Node18</title>
<polygon fill="none" stroke="#bfbfbf" points="332.5,-6 332.5,-36 437.5,-36 437.5,-6 332.5,-6"/>
<text text-anchor="start" x="340.5" y="-24" font-family="Helvetica,sans-Serif" font-size="10.00">boost/accumulators</text>
<text text-anchor="middle" x="385" y="-13" font-family="Helvetica,sans-Serif" font-size="10.00">/statistics/count.hpp</text>
</g>
<!-- Node11&#45;&gt;Node18 -->
<g id="edge17" class="edge"><title>Node11&#45;&gt;Node18</title>
<path fill="none" stroke="midnightblue" d="M719.623,-83.9903C711.353,-81.8503 702.368,-79.6855 694,-78 584.815,-56.0082 554.432,-67.4446 446,-42 442.143,-41.0949 438.181,-40.0556 434.218,-38.9367"/>
<polygon fill="midnightblue" stroke="midnightblue" points="435.004,-35.5193 424.422,-36.0229 433.009,-42.2287 435.004,-35.5193"/>
</g>
<!-- Node19 -->
<g id="node19" class="node"><title>Node19</title>
<polygon fill="none" stroke="#bfbfbf" points="455.5,-6 455.5,-36 560.5,-36 560.5,-6 455.5,-6"/>
<text text-anchor="start" x="463.5" y="-24" font-family="Helvetica,sans-Serif" font-size="10.00">boost/accumulators</text>
<text text-anchor="middle" x="508" y="-13" font-family="Helvetica,sans-Serif" font-size="10.00">/statistics/mean.hpp</text>
</g>
<!-- Node11&#45;&gt;Node19 -->
<g id="edge18" class="edge"><title>Node11&#45;&gt;Node19</title>
<path fill="none" stroke="midnightblue" d="M718.028,-83.9296C681.956,-74.1675 621.585,-57.5501 570,-42 566.914,-41.0697 563.746,-40.0986 560.554,-39.1074"/>
<polygon fill="midnightblue" stroke="midnightblue" points="561.548,-35.751 550.958,-36.094 559.45,-42.4295 561.548,-35.751"/>
</g>
<!-- Node20 -->
<g id="node20" class="node"><title>Node20</title>
<polygon fill="none" stroke="#bfbfbf" points="579,-6 579,-36 681,-36 681,-6 579,-6"/>
<text text-anchor="start" x="587" y="-24" font-family="Helvetica,sans-Serif" font-size="10.00">boost/accumulators</text>
<text text-anchor="middle" x="630" y="-13" font-family="Helvetica,sans-Serif" font-size="10.00">/statistics/min.hpp</text>
</g>
<!-- Node11&#45;&gt;Node20 -->
<g id="edge19" class="edge"><title>Node11&#45;&gt;Node20</title>
<path fill="none" stroke="midnightblue" d="M735.286,-83.8553C717.305,-73.2918 686.353,-55.1073 662.648,-41.1805"/>
<polygon fill="midnightblue" stroke="midnightblue" points="664.354,-38.1239 653.959,-36.0762 660.809,-44.1594 664.354,-38.1239"/>
</g>
<!-- Node21 -->
<g id="node21" class="node"><title>Node21</title>
<polygon fill="none" stroke="#bfbfbf" points="699,-6 699,-36 801,-36 801,-6 699,-6"/>
<text text-anchor="start" x="707" y="-24" font-family="Helvetica,sans-Serif" font-size="10.00">boost/accumulators</text>
<text text-anchor="middle" x="750" y="-13" font-family="Helvetica,sans-Serif" font-size="10.00">/statistics/max.hpp</text>
</g>
<!-- Node11&#45;&gt;Node21 -->
<g id="edge20" class="edge"><title>Node11&#45;&gt;Node21</title>
<path fill="none" stroke="midnightblue" d="M750,-83.8553C750,-74.5483 750,-59.3253 750,-46.3107"/>
<polygon fill="midnightblue" stroke="midnightblue" points="753.5,-46.0761 750,-36.0762 746.5,-46.0762 753.5,-46.0761"/>
</g>
<!-- Node22 -->
<g id="node22" class="node"><title>Node22</title>
<polygon fill="none" stroke="#bfbfbf" points="819,-6 819,-36 937,-36 937,-6 819,-6"/>
<text text-anchor="start" x="827" y="-24" font-family="Helvetica,sans-Serif" font-size="10.00">boost/accumulators</text>
<text text-anchor="middle" x="878" y="-13" font-family="Helvetica,sans-Serif" font-size="10.00">/statistics/variance.hpp</text>
</g>
<!-- Node11&#45;&gt;Node22 -->
<g id="edge21" class="edge"><title>Node11&#45;&gt;Node22</title>
<path fill="none" stroke="midnightblue" d="M765.44,-83.9961C784.627,-73.4281 817.94,-55.0797 843.362,-41.0777"/>
<polygon fill="midnightblue" stroke="midnightblue" points="845.26,-44.0285 852.331,-36.1383 841.883,-37.897 845.26,-44.0285"/>
</g>
<!-- Node23 -->
<g id="node23" class="node"><title>Node23</title>
<polygon fill="none" stroke="#bfbfbf" points="955,-6 955,-36 1069,-36 1069,-6 955,-6"/>
<text text-anchor="start" x="963" y="-24" font-family="Helvetica,sans-Serif" font-size="10.00">boost/accumulators</text>
<text text-anchor="middle" x="1012" y="-13" font-family="Helvetica,sans-Serif" font-size="10.00">/statistics/error_of.hpp</text>
</g>
<!-- Node11&#45;&gt;Node23 -->
<g id="edge22" class="edge"><title>Node11&#45;&gt;Node23</title>
<path fill="none" stroke="midnightblue" d="M782.271,-83.9473C789.732,-81.9824 797.64,-79.9097 805,-78 867.604,-61.756 883.703,-59.3827 946,-42 949.553,-41.0085 953.208,-39.9659 956.887,-38.899"/>
<polygon fill="midnightblue" stroke="midnightblue" points="958.024,-42.2128 966.632,-36.036 956.051,-35.4966 958.024,-42.2128"/>
</g>
<!-- Node24 -->
<g id="node24" class="node"><title>Node24</title>
<polygon fill="none" stroke="#bfbfbf" points="1087,-0.5 1087,-41.5 1189,-41.5 1189,-0.5 1087,-0.5"/>
<text text-anchor="start" x="1095" y="-29.5" font-family="Helvetica,sans-Serif" font-size="10.00">boost/accumulators</text>
<text text-anchor="start" x="1095" y="-18.5" font-family="Helvetica,sans-Serif" font-size="10.00">/statistics/error_of</text>
<text text-anchor="middle" x="1138" y="-7.5" font-family="Helvetica,sans-Serif" font-size="10.00">_mean.hpp</text>
</g>
<!-- Node11&#45;&gt;Node24 -->
<g id="edge23" class="edge"><title>Node11&#45;&gt;Node24</title>
<path fill="none" stroke="midnightblue" d="M779.526,-83.9805C787.727,-81.8157 796.668,-79.6409 805,-78 921.911,-54.9767 956.905,-68.7048 1076.86,-42.0386"/>
<polygon fill="midnightblue" stroke="midnightblue" points="1077.82,-45.4099 1086.8,-39.7818 1076.27,-38.5838 1077.82,-45.4099"/>
</g>
<!-- Node26 -->
<g id="node26" class="node"><title>Node26</title>
<g id="a_node26"><a xlink:href="XBotCommunicationInterface_8h.html" target="_top" xlink:title="XCM/XBotCommunicationInterface.h">
<polygon fill="none" stroke="black" points="1409.5,-84 1409.5,-103 1588.5,-103 1588.5,-84 1409.5,-84"/>
<text text-anchor="middle" x="1499" y="-91" font-family="Helvetica,sans-Serif" font-size="10.00">XCM/XBotCommunicationInterface.h</text>
</a>
</g>
</g>
<!-- Node25&#45;&gt;Node26 -->
<g id="edge25" class="edge"><title>Node25&#45;&gt;Node26</title>
<path fill="none" stroke="midnightblue" d="M1551.46,-145.396C1540.81,-135.06 1526.34,-121.024 1515.3,-110.309"/>
<polygon fill="midnightblue" stroke="midnightblue" points="1517.58,-107.646 1507.96,-103.195 1512.7,-112.67 1517.58,-107.646"/>
</g>
<!-- Node28 -->
<g id="node28" class="node"><title>Node28</title>
<polygon fill="none" stroke="#bfbfbf" points="1606.5,-84 1606.5,-103 1661.5,-103 1661.5,-84 1606.5,-84"/>
<text text-anchor="middle" x="1634" y="-91" font-family="Helvetica,sans-Serif" font-size="10.00">ros/ros.h</text>
</g>
<!-- Node25&#45;&gt;Node28 -->
<g id="edge27" class="edge"><title>Node25&#45;&gt;Node28</title>
<path fill="none" stroke="midnightblue" d="M1580.75,-145.396C1591.57,-135.06 1606.25,-121.024 1617.46,-110.309"/>
<polygon fill="midnightblue" stroke="midnightblue" points="1620.09,-112.634 1624.9,-103.195 1615.26,-107.574 1620.09,-112.634"/>
</g>
<!-- Node29 -->
<g id="node29" class="node"><title>Node29</title>
<polygon fill="none" stroke="#bfbfbf" points="1680,-84 1680,-103 1780,-103 1780,-84 1680,-84"/>
<text text-anchor="middle" x="1730" y="-91" font-family="Helvetica,sans-Serif" font-size="10.00">std_srvs/SetBool.h</text>
</g>
<!-- Node25&#45;&gt;Node29 -->
<g id="edge28" class="edge"><title>Node25&#45;&gt;Node29</title>
<path fill="none" stroke="midnightblue" d="M1601.59,-145.396C1630.62,-133.89 1671.22,-117.797 1698.95,-106.807"/>
<polygon fill="midnightblue" stroke="midnightblue" points="1700.53,-109.945 1708.54,-103.007 1697.95,-103.438 1700.53,-109.945"/>
</g>
<!-- Node30 -->
<g id="node30" class="node"><title>Node30</title>
<polygon fill="none" stroke="#bfbfbf" points="1798,-84 1798,-103 1878,-103 1878,-84 1798,-84"/>
<text text-anchor="middle" x="1838" y="-91" font-family="Helvetica,sans-Serif" font-size="10.00">boost/bind.hpp</text>
</g>
<!-- Node25&#45;&gt;Node30 -->
<g id="edge29" class="edge"><title>Node25&#45;&gt;Node30</title>
<path fill="none" stroke="midnightblue" d="M1633.12,-145.492C1677.53,-135.931 1736.95,-122.578 1789,-109 1792.8,-108.008 1796.76,-106.925 1800.69,-105.812"/>
<polygon fill="midnightblue" stroke="midnightblue" points="1801.72,-109.158 1810.36,-103.021 1799.78,-102.433 1801.72,-109.158"/>
</g>
<!-- Node31 -->
<g id="node31" class="node"><title>Node31</title>
<polygon fill="none" stroke="#bfbfbf" points="1896,-78.5 1896,-108.5 2036,-108.5 2036,-78.5 1896,-78.5"/>
<text text-anchor="start" x="1904" y="-96.5" font-family="Helvetica,sans-Serif" font-size="10.00">RobotInterfaceROS/Generic</text>
<text text-anchor="middle" x="1966" y="-85.5" font-family="Helvetica,sans-Serif" font-size="10.00">ControlMessage.h</text>
</g>
<!-- Node25&#45;&gt;Node31 -->
<g id="edge30" class="edge"><title>Node25&#45;&gt;Node31</title>
<path fill="none" stroke="midnightblue" d="M1640.68,-148.302C1703.44,-138.765 1795.78,-124.438 1885.7,-109.197"/>
<polygon fill="midnightblue" stroke="midnightblue" points="1886.53,-112.607 1895.81,-107.48 1885.36,-105.706 1886.53,-112.607"/>
</g>
<!-- Node32 -->
<g id="node32" class="node"><title>Node32</title>
<polygon fill="none" stroke="#bfbfbf" points="2054,-78.5 2054,-108.5 2194,-108.5 2194,-78.5 2054,-78.5"/>
<text text-anchor="start" x="2062" y="-96.5" font-family="Helvetica,sans-Serif" font-size="10.00">RobotInterfaceROS/Generic</text>
<text text-anchor="middle" x="2124" y="-85.5" font-family="Helvetica,sans-Serif" font-size="10.00">JointStateMessage.h</text>
</g>
<!-- Node25&#45;&gt;Node32 -->
<g id="edge31" class="edge"><title>Node25&#45;&gt;Node32</title>
<path fill="none" stroke="midnightblue" d="M1640.89,-153.39C1733.23,-145.456 1895.17,-130.241 2043.62,-109.131"/>
<polygon fill="midnightblue" stroke="midnightblue" points="2044.43,-112.551 2053.83,-107.666 2043.44,-105.621 2044.43,-112.551"/>
</g>
<!-- Node33 -->
<g id="node33" class="node"><title>Node33</title>
<polygon fill="none" stroke="#bfbfbf" points="1013.5,-78.5 1013.5,-108.5 1134.5,-108.5 1134.5,-78.5 1013.5,-78.5"/>
<text text-anchor="start" x="1021.5" y="-96.5" font-family="Helvetica,sans-Serif" font-size="10.00">robot_state_publisher</text>
<text text-anchor="middle" x="1074" y="-85.5" font-family="Helvetica,sans-Serif" font-size="10.00">/robot_state_publisher.h</text>
</g>
<!-- Node25&#45;&gt;Node33 -->
<g id="edge32" class="edge"><title>Node25&#45;&gt;Node33</title>
<path fill="none" stroke="midnightblue" d="M1491.41,-152.512C1409.01,-144.356 1272.23,-129.524 1144.6,-109.007"/>
<polygon fill="midnightblue" stroke="midnightblue" points="1145.08,-105.539 1134.65,-107.392 1143.96,-112.448 1145.08,-105.539"/>
</g>
<!-- Node34 -->
<g id="node34" class="node"><title>Node34</title>
<polygon fill="none" stroke="#bfbfbf" points="1153,-84 1153,-103 1259,-103 1259,-84 1153,-84"/>
<text text-anchor="middle" x="1206" y="-91" font-family="Helvetica,sans-Serif" font-size="10.00">XCM/cmd_service.h</text>
</g>
<!-- Node25&#45;&gt;Node34 -->
<g id="edge33" class="edge"><title>Node25&#45;&gt;Node34</title>
<path fill="none" stroke="midnightblue" d="M1491.37,-148.165C1430.95,-138.673 1343.75,-124.26 1268,-109 1262.31,-107.853 1256.34,-106.566 1250.45,-105.245"/>
<polygon fill="midnightblue" stroke="midnightblue" points="1251.2,-101.828 1240.68,-103.009 1249.64,-108.651 1251.2,-101.828"/>
</g>
<!-- Node35 -->
<g id="node35" class="node"><title>Node35</title>
<polygon fill="none" stroke="#bfbfbf" points="1277,-84 1277,-103 1391,-103 1391,-84 1277,-84"/>
<text text-anchor="middle" x="1334" y="-91" font-family="Helvetica,sans-Serif" font-size="10.00">XCM/status_service.h</text>
</g>
<!-- Node25&#45;&gt;Node35 -->
<g id="edge34" class="edge"><title>Node25&#45;&gt;Node35</title>
<path fill="none" stroke="midnightblue" d="M1515.95,-145.476C1473.55,-133.597 1413.55,-116.787 1374.22,-105.768"/>
<polygon fill="midnightblue" stroke="midnightblue" points="1375.01,-102.356 1364.44,-103.029 1373.13,-109.097 1375.01,-102.356"/>
</g>
<!-- Node27 -->
<g id="node27" class="node"><title>Node27</title>
<polygon fill="none" stroke="#bfbfbf" points="1423,-11.5 1423,-30.5 1575,-30.5 1575,-11.5 1423,-11.5"/>
<text text-anchor="middle" x="1499" y="-18.5" font-family="Helvetica,sans-Serif" font-size="10.00">XBotInterface/RobotInterface.h</text>
</g>
<!-- Node26&#45;&gt;Node27 -->
<g id="edge26" class="edge"><title>Node26&#45;&gt;Node27</title>
<path fill="none" stroke="midnightblue" d="M1499,-83.8553C1499,-73.1786 1499,-54.7167 1499,-40.7343"/>
<polygon fill="midnightblue" stroke="midnightblue" points="1502.5,-40.7154 1499,-30.7154 1495.5,-40.7154 1502.5,-40.7154"/>
</g>
</g>
</svg>
